%TF.GenerationSoftware,KiCad,Pcbnew,9.0.0-9.0.0-2~ubuntu24.04.1*%
%TF.CreationDate,2025-02-26T14:58:08+01:00*%
%TF.ProjectId,SupplyBoard,53757070-6c79-4426-9f61-72642e6b6963,rev?*%
%TF.SameCoordinates,Original*%
%TF.FileFunction,Copper,L2,Bot*%
%TF.FilePolarity,Positive*%
%FSLAX46Y46*%
G04 Gerber Fmt 4.6, Leading zero omitted, Abs format (unit mm)*
G04 Created by KiCad (PCBNEW 9.0.0-9.0.0-2~ubuntu24.04.1) date 2025-02-26 14:58:08*
%MOMM*%
%LPD*%
G01*
G04 APERTURE LIST*
G04 Aperture macros list*
%AMRoundRect*
0 Rectangle with rounded corners*
0 $1 Rounding radius*
0 $2 $3 $4 $5 $6 $7 $8 $9 X,Y pos of 4 corners*
0 Add a 4 corners polygon primitive as box body*
4,1,4,$2,$3,$4,$5,$6,$7,$8,$9,$2,$3,0*
0 Add four circle primitives for the rounded corners*
1,1,$1+$1,$2,$3*
1,1,$1+$1,$4,$5*
1,1,$1+$1,$6,$7*
1,1,$1+$1,$8,$9*
0 Add four rect primitives between the rounded corners*
20,1,$1+$1,$2,$3,$4,$5,0*
20,1,$1+$1,$4,$5,$6,$7,0*
20,1,$1+$1,$6,$7,$8,$9,0*
20,1,$1+$1,$8,$9,$2,$3,0*%
G04 Aperture macros list end*
%TA.AperFunction,ComponentPad*%
%ADD10R,1.350000X1.350000*%
%TD*%
%TA.AperFunction,ComponentPad*%
%ADD11O,1.350000X1.350000*%
%TD*%
%TA.AperFunction,ComponentPad*%
%ADD12R,1.700000X1.700000*%
%TD*%
%TA.AperFunction,ComponentPad*%
%ADD13O,1.700000X1.700000*%
%TD*%
%TA.AperFunction,ComponentPad*%
%ADD14R,3.800000X3.800000*%
%TD*%
%TA.AperFunction,ComponentPad*%
%ADD15C,4.000000*%
%TD*%
%TA.AperFunction,SMDPad,CuDef*%
%ADD16RoundRect,0.237500X-0.237500X0.250000X-0.237500X-0.250000X0.237500X-0.250000X0.237500X0.250000X0*%
%TD*%
%TA.AperFunction,SMDPad,CuDef*%
%ADD17R,1.500000X4.000000*%
%TD*%
%TA.AperFunction,SMDPad,CuDef*%
%ADD18RoundRect,0.237500X-0.250000X-0.237500X0.250000X-0.237500X0.250000X0.237500X-0.250000X0.237500X0*%
%TD*%
%TA.AperFunction,SMDPad,CuDef*%
%ADD19RoundRect,0.150000X0.587500X0.150000X-0.587500X0.150000X-0.587500X-0.150000X0.587500X-0.150000X0*%
%TD*%
%TA.AperFunction,ViaPad*%
%ADD20C,0.600000*%
%TD*%
%TA.AperFunction,Conductor*%
%ADD21C,1.500000*%
%TD*%
%TA.AperFunction,Conductor*%
%ADD22C,0.200000*%
%TD*%
%TA.AperFunction,Conductor*%
%ADD23C,0.250000*%
%TD*%
%TA.AperFunction,Conductor*%
%ADD24C,0.300000*%
%TD*%
%TA.AperFunction,Conductor*%
%ADD25C,1.000000*%
%TD*%
G04 APERTURE END LIST*
D10*
%TO.P,SW2,1,B*%
%TO.N,/BATT_INPUT*%
X180479200Y-99314000D03*
D11*
%TO.P,SW2,2,C*%
%TO.N,unconnected-(SW2-C-Pad2)*%
X182479200Y-99314000D03*
%TO.P,SW2,3,A*%
%TO.N,/Controlador/BATT_INPUT*%
X184479200Y-99314000D03*
%TD*%
D12*
%TO.P,J2,1,Pin_1*%
%TO.N,+3.3V*%
X159004000Y-67056000D03*
D13*
%TO.P,J2,2,Pin_2*%
%TO.N,/Controlador/SWDIO*%
X159004000Y-69596000D03*
%TO.P,J2,3,Pin_3*%
%TO.N,/Controlador/SWCLK*%
X159004000Y-72136000D03*
%TO.P,J2,4,Pin_4*%
%TO.N,GND*%
X159004000Y-74676000D03*
%TD*%
D14*
%TO.P,J1,1,Pin_1*%
%TO.N,GND*%
X169966000Y-96520000D03*
D15*
%TO.P,J1,2,Pin_2*%
%TO.N,/CurrentSense_Lipo/V_IN_{1}*%
X174966000Y-96520000D03*
%TD*%
D16*
%TO.P,R15,1*%
%TO.N,/BYPASS_EN*%
X188468000Y-91797500D03*
%TO.P,R15,2*%
%TO.N,GND*%
X188468000Y-93622500D03*
%TD*%
D17*
%TO.P,J3,1,BYPASS*%
%TO.N,/BATT_BYPASS*%
X191390000Y-53000000D03*
%TO.P,J3,3,GND*%
%TO.N,GND*%
X188850000Y-53000000D03*
%TO.P,J3,5,5V*%
%TO.N,+5V*%
X186310000Y-53000000D03*
%TO.P,J3,7,SDA_0*%
%TO.N,/I2C0_SDA*%
X183770000Y-53000000D03*
%TO.P,J3,9,SCL_0*%
%TO.N,/I2C0_SCL*%
X181230000Y-53000000D03*
%TO.P,J3,11,IO0*%
%TO.N,unconnected-(J3-IO0-Pad11)*%
X178690000Y-53000000D03*
%TO.P,J3,13,IO2*%
%TO.N,unconnected-(J3-IO2-Pad13)*%
X176150000Y-53000000D03*
%TO.P,J3,15,GND*%
%TO.N,GND*%
X173610000Y-53000000D03*
%TO.P,J3,17,SDA_1*%
%TO.N,unconnected-(J3-SDA_1-Pad17)*%
X171070000Y-53000000D03*
%TO.P,J3,19,SCL_1*%
%TO.N,unconnected-(J3-SCL_1-Pad19)*%
X168530000Y-53000000D03*
%TO.P,J3,21,GND*%
%TO.N,GND*%
X165990000Y-53000000D03*
%TO.P,J3,23,CS1*%
%TO.N,/SPI.CS1*%
X163450000Y-53000000D03*
%TD*%
D18*
%TO.P,R23,1*%
%TO.N,/I2C0_SCL*%
X183341000Y-58449000D03*
%TO.P,R23,2*%
%TO.N,+3.3V*%
X185166000Y-58449000D03*
%TD*%
D19*
%TO.P,Q2,1,G*%
%TO.N,/BYPASS_EN*%
X186740800Y-91795600D03*
%TO.P,Q2,2,S*%
%TO.N,GND*%
X186740800Y-93695600D03*
%TO.P,Q2,3,D*%
%TO.N,Net-(Q1-G)*%
X184865800Y-92745600D03*
%TD*%
D18*
%TO.P,R22,1*%
%TO.N,/I2C0_SDA*%
X183341000Y-59944000D03*
%TO.P,R22,2*%
%TO.N,+3.3V*%
X185166000Y-59944000D03*
%TD*%
D20*
%TO.N,GND*%
X166751000Y-59817000D03*
X190881000Y-60833000D03*
X195580000Y-91694000D03*
X158798243Y-64073880D03*
X191008000Y-67310000D03*
X165735000Y-58801000D03*
X179324000Y-72910000D03*
X177038000Y-72898000D03*
X170688000Y-91948000D03*
X168148000Y-79502000D03*
X167386000Y-79502000D03*
X181356000Y-82804000D03*
X164811154Y-90643154D03*
X177038000Y-73660000D03*
X189738000Y-59944000D03*
X189915800Y-88747600D03*
X189915800Y-89636600D03*
X176276000Y-72898000D03*
X155956000Y-80264000D03*
X167386000Y-81026000D03*
X165608000Y-60960000D03*
X173610000Y-56388000D03*
X162081400Y-90181200D03*
X167259000Y-60325000D03*
X164846000Y-80264000D03*
X188595000Y-60833000D03*
X190677800Y-87223600D03*
X188595000Y-59944000D03*
X164846000Y-81026000D03*
X188595000Y-61722000D03*
X190677800Y-88239600D03*
X168148000Y-81026000D03*
X189915800Y-86715600D03*
X196342000Y-91694000D03*
X164592000Y-59944000D03*
X179324000Y-78442000D03*
X163847983Y-93018046D03*
X174498000Y-57404000D03*
X190881000Y-61722000D03*
X165608000Y-79502000D03*
X176276000Y-73660000D03*
X179832000Y-88392000D03*
X179324000Y-73660000D03*
X165608000Y-80264000D03*
X155956000Y-81026000D03*
X190754000Y-74168000D03*
X183896000Y-81534000D03*
X189738000Y-60833000D03*
X166243000Y-59309000D03*
X183896000Y-83312000D03*
X155956000Y-79502000D03*
X164846000Y-79502000D03*
X161700400Y-89038200D03*
X199287200Y-81177200D03*
X167644000Y-91944000D03*
X189738000Y-61722000D03*
X168148000Y-80264000D03*
X177824000Y-72910000D03*
X178574000Y-72910000D03*
X175006000Y-57912000D03*
X166116000Y-61468000D03*
X167386000Y-80264000D03*
X165100000Y-60452000D03*
X159004000Y-88638200D03*
X178193200Y-94107000D03*
X189915800Y-87731600D03*
X161700400Y-89673200D03*
X165608000Y-81026000D03*
X178574000Y-73660000D03*
X173990000Y-56896000D03*
X166291243Y-67121880D03*
X177824000Y-73660000D03*
%TO.N,/SPI.MISO*%
X169418000Y-57150000D03*
X174244000Y-72390000D03*
%TO.N,/SPI.CS1*%
X175943243Y-69153880D03*
%TO.N,/SPI.SCK*%
X171498243Y-65638880D03*
X172514243Y-68518880D03*
%TO.N,/SPI.CS0*%
X172641243Y-70296880D03*
X164592000Y-66802000D03*
%TO.N,/SPI.MOSI*%
X171450000Y-56642000D03*
X175641000Y-71120000D03*
%TO.N,/I2C0_SCL*%
X181912243Y-63692880D03*
%TO.N,/BATT_BYPASS*%
X193342243Y-60390880D03*
X194358243Y-61406880D03*
X194866243Y-61914880D03*
X183896000Y-85090000D03*
X191691243Y-58739880D03*
X184658000Y-85090000D03*
X185420000Y-85090000D03*
X192770743Y-59819380D03*
X193850243Y-60898880D03*
X192199243Y-59247880D03*
%TO.N,/I2C0_SDA*%
X181150243Y-64835880D03*
%TO.N,+5V*%
X171958000Y-76708000D03*
X183415001Y-72163001D03*
X185928000Y-68834000D03*
%TO.N,+3.3V*%
X168831243Y-70042880D03*
X185166000Y-57150000D03*
X167894000Y-67564000D03*
%TO.N,/Controlador/BATT_INPUT*%
X195072000Y-84709000D03*
X197358000Y-84709000D03*
X156239400Y-87006200D03*
X195834000Y-85344000D03*
X156239400Y-87641200D03*
X196596000Y-84709000D03*
X155477400Y-86371200D03*
X198882000Y-84709000D03*
X197358000Y-85344000D03*
X160528000Y-76962000D03*
X195072000Y-85344000D03*
X199644000Y-85344000D03*
X155477400Y-87006200D03*
X156239400Y-85736200D03*
X155477400Y-85736200D03*
X156239400Y-86371200D03*
X198120000Y-84709000D03*
X155477400Y-87641200D03*
X158242000Y-85852000D03*
X195834000Y-84709000D03*
X198882000Y-85344000D03*
X198120000Y-85344000D03*
X196596000Y-85344000D03*
X199644000Y-84709000D03*
%TO.N,/LIPO_TO_5V/5V_OUT*%
X185674000Y-76962000D03*
X187198000Y-76962000D03*
X170942000Y-81026000D03*
X170942000Y-79502000D03*
X170942000Y-80264000D03*
X186436000Y-76962000D03*
%TO.N,/I_{3v3}_SENSE*%
X192024000Y-67818000D03*
X170180000Y-73406000D03*
%TO.N,/I_{5v}_SENSE*%
X173184000Y-76962000D03*
X188214000Y-71374000D03*
%TO.N,/Controlador/~{RESET}*%
X167386000Y-69850000D03*
X166116000Y-91440000D03*
%TO.N,Net-(U3-EN)*%
X193280721Y-90475142D03*
X199288400Y-92557600D03*
%TO.N,/Controlador/SWCLK*%
X173990000Y-66294000D03*
%TO.N,/Controlador/SWDIO*%
X174927243Y-67248880D03*
%TO.N,/Controlador/UART_TX*%
X181277243Y-60263880D03*
X177114062Y-62122000D03*
%TO.N,Net-(L1--)*%
X163576000Y-79767200D03*
X161798000Y-85720600D03*
X163576000Y-82307200D03*
X163576000Y-81037200D03*
X163576000Y-81672200D03*
X163576000Y-82942200D03*
X163576000Y-80402200D03*
%TO.N,Net-(L1-+)*%
X158115000Y-81037200D03*
X158115000Y-81672200D03*
X158115000Y-80402200D03*
X159547601Y-85720600D03*
X158115000Y-82942200D03*
X158115000Y-82307200D03*
X158115000Y-79767200D03*
%TO.N,/BATT_INPUT*%
X174853349Y-84276351D03*
X175615349Y-85038351D03*
X180441349Y-92150351D03*
X179425349Y-92150351D03*
X180441349Y-91388351D03*
X173329349Y-84276351D03*
X179933349Y-90880351D03*
X173329349Y-85038351D03*
X174853349Y-85038351D03*
X179425349Y-91388351D03*
X174091349Y-85038351D03*
X174091349Y-84276351D03*
X179933349Y-92658351D03*
%TO.N,Net-(Q1-G)*%
X185928000Y-94742000D03*
%TO.N,/BYPASS_EN*%
X168642674Y-68343078D03*
%TO.N,/Controlador/5V_ENABLE*%
X158510987Y-87601734D03*
X167005000Y-68961000D03*
%TD*%
D21*
%TO.N,GND*%
X173610000Y-56516000D02*
X175006000Y-57912000D01*
X173610000Y-53400000D02*
X173610000Y-56516000D01*
X165990000Y-57024000D02*
X166116000Y-57150000D01*
X165990000Y-53400000D02*
X165990000Y-57024000D01*
D22*
%TO.N,/SPI.MISO*%
X174879000Y-71120000D02*
X176629000Y-69370000D01*
X176629000Y-69370000D02*
X176629000Y-64361000D01*
X174879000Y-71755000D02*
X174879000Y-71120000D01*
X176629000Y-64361000D02*
X169418000Y-57150000D01*
X174244000Y-72390000D02*
X174879000Y-71755000D01*
D23*
%TO.N,/SPI.CS1*%
X176276000Y-68821123D02*
X176276000Y-64643000D01*
X175943243Y-69153880D02*
X176276000Y-68821123D01*
X173609000Y-61976000D02*
X167894000Y-61976000D01*
X176276000Y-64643000D02*
X173609000Y-61976000D01*
X167894000Y-61976000D02*
X163450000Y-57532000D01*
X163450000Y-57532000D02*
X163450000Y-53151880D01*
%TO.N,/SPI.SCK*%
X172514243Y-68518880D02*
X172514243Y-66654880D01*
X172514243Y-66654880D02*
X171498243Y-65638880D01*
%TO.N,/SPI.CS0*%
X164846000Y-66548000D02*
X164592000Y-66802000D01*
X168892363Y-66548000D02*
X164846000Y-66548000D01*
X172641243Y-70296880D02*
X168892363Y-66548000D01*
D22*
%TO.N,/SPI.MOSI*%
X171450000Y-57642705D02*
X171450000Y-56642000D01*
X175641000Y-71120000D02*
X177137000Y-69624000D01*
X177137000Y-69624000D02*
X177137000Y-63329705D01*
X177137000Y-63329705D02*
X171450000Y-57642705D01*
D24*
%TO.N,/I2C0_SCL*%
X181230000Y-56338000D02*
X181230000Y-53151880D01*
X183341000Y-58449000D02*
X181230000Y-56338000D01*
D23*
X181912243Y-63692880D02*
X181912243Y-59877757D01*
X181912243Y-59877757D02*
X183341000Y-58449000D01*
D21*
%TO.N,/BATT_BYPASS*%
X196596000Y-63500000D02*
X196451363Y-63500000D01*
X196596000Y-75946000D02*
X196596000Y-63500000D01*
X191390000Y-53500000D02*
X191390000Y-58438637D01*
X183896000Y-85090000D02*
X187452000Y-85090000D01*
X196451363Y-63500000D02*
X191691243Y-58739880D01*
X187452000Y-85090000D02*
X196596000Y-75946000D01*
X191390000Y-58438637D02*
X194866243Y-61914880D01*
D24*
%TO.N,/I2C0_SDA*%
X184150000Y-57404000D02*
X183642000Y-56896000D01*
X183642000Y-56896000D02*
X183642000Y-53279880D01*
X183341000Y-59944000D02*
X184150000Y-59135000D01*
X183642000Y-53279880D02*
X183770000Y-53151880D01*
X184150000Y-59135000D02*
X184150000Y-57404000D01*
D23*
X181551304Y-64835880D02*
X183341000Y-63046184D01*
X183341000Y-63046184D02*
X183341000Y-59944000D01*
X181150243Y-64835880D02*
X181551304Y-64835880D01*
D21*
%TO.N,+5V*%
X186310000Y-53151880D02*
X186310000Y-56516000D01*
D24*
X183360999Y-72163001D02*
X183415001Y-72163001D01*
D21*
X186944000Y-67818000D02*
X185928000Y-68834000D01*
X186310000Y-56516000D02*
X186944000Y-57150000D01*
D24*
X171958000Y-76708000D02*
X172466000Y-76200000D01*
X179324000Y-76200000D02*
X183360999Y-72163001D01*
D21*
X186944000Y-57150000D02*
X186944000Y-67818000D01*
D24*
X172466000Y-76200000D02*
X179324000Y-76200000D01*
D23*
%TO.N,+3.3V*%
X167894000Y-67564000D02*
X167894000Y-69105637D01*
X167894000Y-69105637D02*
X168831243Y-70042880D01*
D22*
X185166000Y-58449000D02*
X185166000Y-57150000D01*
X185166000Y-59944000D02*
X185166000Y-58449000D01*
D25*
%TO.N,/Controlador/BATT_INPUT*%
X179176000Y-97938000D02*
X177292000Y-99822000D01*
X190246000Y-91186000D02*
X194818000Y-86614000D01*
D24*
X159538572Y-76962000D02*
X160528000Y-76962000D01*
D25*
X184479200Y-99314000D02*
X185433794Y-99314000D01*
D24*
X158242000Y-85093000D02*
X158242000Y-85852000D01*
X157099000Y-79401572D02*
X159538572Y-76962000D01*
X157099000Y-83666427D02*
X157099000Y-79401572D01*
D25*
X156210000Y-89916000D02*
X155702000Y-89408000D01*
D24*
X157099000Y-83666427D02*
X157099000Y-83950000D01*
D25*
X183103200Y-97938000D02*
X179176000Y-97938000D01*
X185433794Y-99314000D02*
X190246000Y-94501794D01*
X194818000Y-86614000D02*
X195326000Y-86614000D01*
X167386000Y-99822000D02*
X161290000Y-93726000D01*
X184479200Y-99314000D02*
X183103200Y-97938000D01*
X156210000Y-91186000D02*
X156210000Y-89916000D01*
X161290000Y-93726000D02*
X156210000Y-93726000D01*
X190246000Y-94501794D02*
X190246000Y-91186000D01*
D24*
X157099000Y-83950000D02*
X158242000Y-85093000D01*
D25*
X177292000Y-99822000D02*
X167386000Y-99822000D01*
X156210000Y-93726000D02*
X156210000Y-91186000D01*
D24*
X158242000Y-85852000D02*
X158242000Y-85217000D01*
D25*
%TO.N,/LIPO_TO_5V/5V_OUT*%
X170942000Y-80264000D02*
X170942000Y-81026000D01*
X181610000Y-79502000D02*
X184150000Y-76962000D01*
X170942000Y-79502000D02*
X181610000Y-79502000D01*
X184150000Y-76962000D02*
X187198000Y-76962000D01*
X170942000Y-79502000D02*
X170942000Y-80264000D01*
D24*
%TO.N,/I_{3v3}_SENSE*%
X171704000Y-75692000D02*
X170180000Y-74168000D01*
X179070000Y-75692000D02*
X171704000Y-75692000D01*
X189484000Y-70358000D02*
X184404000Y-70358000D01*
X184404000Y-70358000D02*
X179070000Y-75692000D01*
X170180000Y-74168000D02*
X170180000Y-73406000D01*
X192024000Y-67818000D02*
X189484000Y-70358000D01*
D23*
%TO.N,/I_{5v}_SENSE*%
X182626000Y-76962000D02*
X188214000Y-71374000D01*
X173184000Y-76962000D02*
X182626000Y-76962000D01*
%TO.N,/Controlador/~{RESET}*%
X166116000Y-91440000D02*
X166116000Y-85344000D01*
X167386000Y-69850000D02*
X166370000Y-70866000D01*
X166370000Y-70866000D02*
X166370000Y-85090000D01*
X166116000Y-85344000D02*
X166370000Y-85090000D01*
D22*
%TO.N,Net-(U3-EN)*%
X197205942Y-90475142D02*
X199288400Y-92557600D01*
X193280721Y-90475142D02*
X197205942Y-90475142D01*
D23*
%TO.N,/Controlador/SWCLK*%
X163576000Y-68072000D02*
X159512000Y-72136000D01*
X173990000Y-66167000D02*
X172908880Y-65085880D01*
X165038120Y-65085880D02*
X163576000Y-66548000D01*
X172908880Y-65085880D02*
X165038120Y-65085880D01*
X173990000Y-66294000D02*
X173990000Y-66167000D01*
X163576000Y-66548000D02*
X163576000Y-68072000D01*
X159512000Y-72136000D02*
X159004000Y-72136000D01*
%TO.N,/Controlador/SWDIO*%
X173101000Y-64516000D02*
X164846000Y-64516000D01*
X164846000Y-64516000D02*
X159766000Y-69596000D01*
X159766000Y-69596000D02*
X159004000Y-69596000D01*
X174927243Y-67248880D02*
X174927243Y-66342243D01*
X174927243Y-66342243D02*
X173101000Y-64516000D01*
%TO.N,/Controlador/UART_TX*%
X177114062Y-62122000D02*
X177114062Y-62052062D01*
X177114062Y-62052062D02*
X178775244Y-60390880D01*
X181150243Y-60390880D02*
X181277243Y-60263880D01*
X178775244Y-60390880D02*
X181150243Y-60390880D01*
%TO.N,Net-(Q1-G)*%
X185928000Y-94742000D02*
X184865800Y-93679800D01*
X184865800Y-93679800D02*
X184865800Y-92745600D01*
D22*
%TO.N,/BYPASS_EN*%
X177038000Y-82550000D02*
X186283600Y-91795600D01*
X186742700Y-91797500D02*
X186740800Y-91795600D01*
X168642674Y-68343078D02*
X168642674Y-68584311D01*
X188468000Y-91797500D02*
X186742700Y-91797500D01*
X168642674Y-68584311D02*
X169418000Y-69359637D01*
X170434000Y-82550000D02*
X177038000Y-82550000D01*
X169418000Y-69359637D02*
X169418000Y-81534000D01*
X169418000Y-81534000D02*
X170434000Y-82550000D01*
X186283600Y-91795600D02*
X186740800Y-91795600D01*
%TO.N,/Controlador/5V_ENABLE*%
X156718000Y-84328000D02*
X157226000Y-84836000D01*
X157226000Y-86614000D02*
X158213734Y-87601734D01*
X156718000Y-79248000D02*
X156718000Y-84328000D01*
X167005000Y-68961000D02*
X156718000Y-79248000D01*
X157226000Y-84836000D02*
X157226000Y-86614000D01*
X158213734Y-87601734D02*
X158510987Y-87601734D01*
%TD*%
%TA.AperFunction,Conductor*%
%TO.N,GND*%
G36*
X189624565Y-58704550D02*
G01*
X193040000Y-62484000D01*
X188100565Y-62468842D01*
X188100565Y-51000500D01*
X189624565Y-51000500D01*
X189624565Y-58704550D01*
G37*
%TD.AperFunction*%
%TD*%
%TA.AperFunction,Conductor*%
%TO.N,GND*%
G36*
X166485641Y-69873277D02*
G01*
X166514878Y-69875368D01*
X166519705Y-69878981D01*
X166525649Y-69879977D01*
X166547346Y-69899674D01*
X166570811Y-69917240D01*
X166573609Y-69923516D01*
X166577381Y-69926940D01*
X166591297Y-69959375D01*
X166592361Y-69963337D01*
X166616263Y-70083497D01*
X166640123Y-70141101D01*
X166642220Y-70148906D01*
X166641591Y-70176077D01*
X166644497Y-70203099D01*
X166640796Y-70210492D01*
X166640605Y-70218757D01*
X166618451Y-70255128D01*
X166613221Y-70265578D01*
X166611445Y-70266631D01*
X166610148Y-70268762D01*
X166226970Y-70651941D01*
X166155942Y-70722968D01*
X166155941Y-70722969D01*
X166117500Y-70815773D01*
X166117500Y-84934049D01*
X166097815Y-85001088D01*
X166081181Y-85021730D01*
X165901942Y-85200968D01*
X165901941Y-85200969D01*
X165863500Y-85293773D01*
X165863500Y-90595279D01*
X165843815Y-90662318D01*
X165791011Y-90708073D01*
X165786954Y-90709840D01*
X165736820Y-90730606D01*
X165736814Y-90730609D01*
X165605711Y-90818210D01*
X165605707Y-90818213D01*
X165494213Y-90929707D01*
X165494210Y-90929711D01*
X165406609Y-91060814D01*
X165406602Y-91060827D01*
X165346264Y-91206498D01*
X165346261Y-91206510D01*
X165315500Y-91361153D01*
X165315500Y-91518846D01*
X165346261Y-91673489D01*
X165346264Y-91673501D01*
X165406602Y-91819172D01*
X165406609Y-91819185D01*
X165494210Y-91950288D01*
X165494213Y-91950292D01*
X165605707Y-92061786D01*
X165605711Y-92061789D01*
X165736814Y-92149390D01*
X165736827Y-92149397D01*
X165882498Y-92209735D01*
X165882503Y-92209737D01*
X166037153Y-92240499D01*
X166037156Y-92240500D01*
X166037158Y-92240500D01*
X166194844Y-92240500D01*
X166194845Y-92240499D01*
X166349497Y-92209737D01*
X166495179Y-92149394D01*
X166626289Y-92061789D01*
X166737789Y-91950289D01*
X166825394Y-91819179D01*
X166885737Y-91673497D01*
X166916500Y-91518842D01*
X166916500Y-91361158D01*
X166916500Y-91361155D01*
X166916499Y-91361153D01*
X166885737Y-91206503D01*
X166876638Y-91184536D01*
X166825397Y-91060827D01*
X166825390Y-91060814D01*
X166737789Y-90929711D01*
X166737786Y-90929707D01*
X166626292Y-90818213D01*
X166626288Y-90818210D01*
X166495185Y-90730609D01*
X166495179Y-90730606D01*
X166445046Y-90709840D01*
X166390643Y-90665998D01*
X166368579Y-90599704D01*
X166368500Y-90595279D01*
X166368500Y-85499951D01*
X166388185Y-85432912D01*
X166404819Y-85412270D01*
X166475378Y-85341711D01*
X166584059Y-85233030D01*
X166622500Y-85140225D01*
X166622500Y-85039775D01*
X166622500Y-84276490D01*
X172315849Y-84276490D01*
X172315849Y-85111183D01*
X172317561Y-85152764D01*
X172319240Y-85173103D01*
X172324366Y-85214392D01*
X172337561Y-85293775D01*
X172346193Y-85345710D01*
X172362978Y-85412270D01*
X172366529Y-85426348D01*
X172379676Y-85464807D01*
X172379680Y-85464819D01*
X172412964Y-85541032D01*
X172444530Y-85599631D01*
X172476096Y-85658232D01*
X172487036Y-85676681D01*
X172497334Y-85694046D01*
X172508440Y-85711128D01*
X172532536Y-85745049D01*
X178361740Y-93274437D01*
X178386376Y-93303875D01*
X178398986Y-93317832D01*
X178399001Y-93317847D01*
X178425820Y-93345350D01*
X178514958Y-93430070D01*
X178514963Y-93430074D01*
X178514964Y-93430075D01*
X178574447Y-93478572D01*
X178601422Y-93497345D01*
X178605270Y-93500023D01*
X178671425Y-93538962D01*
X178740080Y-93572635D01*
X178773264Y-93588911D01*
X178773266Y-93588912D01*
X178808382Y-93602937D01*
X178844550Y-93617383D01*
X178844559Y-93617386D01*
X178844565Y-93617388D01*
X178880357Y-93628617D01*
X178880366Y-93628619D01*
X178880378Y-93628623D01*
X178950063Y-93644792D01*
X178955157Y-93645974D01*
X178955164Y-93645974D01*
X179076710Y-93664593D01*
X179114859Y-93668961D01*
X179133634Y-93670391D01*
X179133639Y-93670391D01*
X179133650Y-93670392D01*
X179172012Y-93671851D01*
X179172024Y-93671851D01*
X180441209Y-93671851D01*
X180441223Y-93671851D01*
X180474292Y-93670768D01*
X180490476Y-93669707D01*
X180523391Y-93666465D01*
X180628557Y-93652619D01*
X180693407Y-93639719D01*
X180724674Y-93631341D01*
X180787286Y-93610087D01*
X180877713Y-93572631D01*
X180937019Y-93543385D01*
X180965052Y-93527200D01*
X181020029Y-93490465D01*
X181097679Y-93430882D01*
X181147392Y-93387284D01*
X181170282Y-93364394D01*
X181213880Y-93314681D01*
X181273463Y-93237031D01*
X181310198Y-93182054D01*
X181326383Y-93154021D01*
X181355629Y-93094715D01*
X181393085Y-93004288D01*
X181414339Y-92941676D01*
X181422717Y-92910409D01*
X181435617Y-92845560D01*
X181449463Y-92740396D01*
X181452705Y-92707476D01*
X181453766Y-92691290D01*
X181454849Y-92658225D01*
X181454849Y-91312624D01*
X181453186Y-91271650D01*
X181451557Y-91251619D01*
X181446581Y-91210933D01*
X181446580Y-91210923D01*
X181425398Y-91081522D01*
X181425395Y-91081508D01*
X181425394Y-91081501D01*
X181408697Y-91011344D01*
X181398097Y-90977679D01*
X181393921Y-90967121D01*
X181392923Y-90964150D01*
X181390681Y-90958928D01*
X181371512Y-90910457D01*
X181371509Y-90910452D01*
X181368419Y-90904571D01*
X181368611Y-90904469D01*
X181362409Y-90893069D01*
X181360549Y-90888735D01*
X181360548Y-90888733D01*
X181299205Y-90772821D01*
X181278574Y-90737392D01*
X181278572Y-90737388D01*
X181267763Y-90720445D01*
X181259539Y-90708639D01*
X181244332Y-90686808D01*
X175983932Y-83752646D01*
X175919904Y-83668245D01*
X175895262Y-83638230D01*
X175882630Y-83623996D01*
X175882629Y-83623995D01*
X175882622Y-83623987D01*
X175855787Y-83595991D01*
X175855779Y-83595983D01*
X175766396Y-83509627D01*
X175729238Y-83478874D01*
X175706628Y-83460161D01*
X175706626Y-83460160D01*
X175691054Y-83449171D01*
X175675616Y-83438276D01*
X175675613Y-83438274D01*
X175675610Y-83438272D01*
X175608976Y-83398536D01*
X175608968Y-83398532D01*
X175506302Y-83347552D01*
X175442844Y-83321503D01*
X175442823Y-83321495D01*
X175439594Y-83320170D01*
X175433632Y-83318206D01*
X175433616Y-83318201D01*
X175406096Y-83309138D01*
X175406073Y-83309131D01*
X175406071Y-83309131D01*
X175406064Y-83309129D01*
X175406045Y-83309124D01*
X175403973Y-83308600D01*
X175403973Y-83308601D01*
X175399734Y-83307531D01*
X175399747Y-83307494D01*
X175398040Y-83306953D01*
X175389628Y-83304980D01*
X175388615Y-83304725D01*
X175388590Y-83304719D01*
X175336587Y-83291597D01*
X175331923Y-83290939D01*
X175325023Y-83289645D01*
X175325023Y-83289649D01*
X175325014Y-83289647D01*
X175324997Y-83289737D01*
X175322671Y-83289284D01*
X175199831Y-83270262D01*
X175161272Y-83265800D01*
X175142305Y-83264341D01*
X175133176Y-83263990D01*
X175103523Y-83262851D01*
X173329475Y-83262851D01*
X173296408Y-83263934D01*
X173280207Y-83264996D01*
X173247306Y-83268236D01*
X173142152Y-83282080D01*
X173142150Y-83282080D01*
X173142145Y-83282081D01*
X173094304Y-83291597D01*
X173077296Y-83294980D01*
X173046041Y-83303354D01*
X173046033Y-83303356D01*
X172983425Y-83324607D01*
X172983401Y-83324616D01*
X172893015Y-83362054D01*
X172892979Y-83362071D01*
X172833673Y-83391317D01*
X172805645Y-83407500D01*
X172750674Y-83444230D01*
X172750646Y-83444251D01*
X172673015Y-83503820D01*
X172623286Y-83547433D01*
X172600431Y-83570288D01*
X172556818Y-83620017D01*
X172497236Y-83697664D01*
X172497225Y-83697679D01*
X172460498Y-83752646D01*
X172460486Y-83752665D01*
X172444309Y-83780687D01*
X172415069Y-83839982D01*
X172377615Y-83930404D01*
X172377611Y-83930415D01*
X172356357Y-83993026D01*
X172347979Y-84024295D01*
X172335079Y-84089151D01*
X172321236Y-84194300D01*
X172317993Y-84227218D01*
X172316932Y-84243407D01*
X172315849Y-84276490D01*
X166622500Y-84276490D01*
X166622500Y-71021950D01*
X166642185Y-70954911D01*
X166658815Y-70934273D01*
X166967238Y-70625849D01*
X167028559Y-70592366D01*
X167098250Y-70597350D01*
X167102366Y-70598970D01*
X167152503Y-70619737D01*
X167152506Y-70619737D01*
X167152511Y-70619739D01*
X167307153Y-70650499D01*
X167307156Y-70650500D01*
X167307158Y-70650500D01*
X167464844Y-70650500D01*
X167464845Y-70650499D01*
X167619497Y-70619737D01*
X167765179Y-70559394D01*
X167896289Y-70471789D01*
X167944580Y-70423498D01*
X168005903Y-70390012D01*
X168075594Y-70394996D01*
X168131528Y-70436867D01*
X168135364Y-70442287D01*
X168209453Y-70553168D01*
X168209456Y-70553172D01*
X168320950Y-70664666D01*
X168320954Y-70664669D01*
X168452057Y-70752270D01*
X168452070Y-70752277D01*
X168594738Y-70811371D01*
X168597746Y-70812617D01*
X168738943Y-70840703D01*
X168752396Y-70843379D01*
X168752399Y-70843380D01*
X168752401Y-70843380D01*
X168910087Y-70843380D01*
X169042308Y-70817079D01*
X169111900Y-70823306D01*
X169167077Y-70866169D01*
X169190322Y-70932058D01*
X169190500Y-70938696D01*
X169190500Y-81488747D01*
X169190500Y-81579253D01*
X169225135Y-81662868D01*
X169225136Y-81662869D01*
X170305132Y-82742866D01*
X170305134Y-82742868D01*
X170369801Y-82769652D01*
X170388747Y-82777500D01*
X170479253Y-82777500D01*
X176892405Y-82777500D01*
X176959444Y-82797185D01*
X176980086Y-82813819D01*
X185499681Y-91333415D01*
X185533166Y-91394738D01*
X185531076Y-91455691D01*
X185505702Y-91543026D01*
X185505701Y-91543032D01*
X185502800Y-91579898D01*
X185502800Y-91821100D01*
X185483115Y-91888139D01*
X185430311Y-91933894D01*
X185378800Y-91945100D01*
X184212598Y-91945100D01*
X184175732Y-91948001D01*
X184175726Y-91948002D01*
X184017906Y-91993854D01*
X184017903Y-91993855D01*
X183876437Y-92077517D01*
X183876429Y-92077523D01*
X183760223Y-92193729D01*
X183760217Y-92193737D01*
X183676555Y-92335203D01*
X183676554Y-92335206D01*
X183630702Y-92493026D01*
X183630701Y-92493032D01*
X183627800Y-92529898D01*
X183627800Y-92961301D01*
X183630701Y-92998167D01*
X183630702Y-92998173D01*
X183676554Y-93155993D01*
X183676555Y-93155996D01*
X183676556Y-93155998D01*
X183707369Y-93208100D01*
X183760217Y-93297462D01*
X183760223Y-93297470D01*
X183876429Y-93413676D01*
X183876433Y-93413679D01*
X183876435Y-93413681D01*
X184017902Y-93497344D01*
X184059524Y-93509436D01*
X184175726Y-93543197D01*
X184175729Y-93543197D01*
X184175731Y-93543198D01*
X184212606Y-93546100D01*
X184489300Y-93546100D01*
X184556339Y-93565785D01*
X184602094Y-93618589D01*
X184613300Y-93670100D01*
X184613300Y-93730026D01*
X184651741Y-93822830D01*
X185152147Y-94323236D01*
X185185632Y-94384559D01*
X185180648Y-94454251D01*
X185179028Y-94458367D01*
X185158264Y-94508497D01*
X185158261Y-94508505D01*
X185127500Y-94663153D01*
X185127500Y-94820846D01*
X185158261Y-94975489D01*
X185158264Y-94975501D01*
X185218602Y-95121172D01*
X185218609Y-95121185D01*
X185306210Y-95252288D01*
X185306213Y-95252292D01*
X185417707Y-95363786D01*
X185417711Y-95363789D01*
X185548814Y-95451390D01*
X185548827Y-95451397D01*
X185694498Y-95511735D01*
X185694503Y-95511737D01*
X185849153Y-95542499D01*
X185849156Y-95542500D01*
X185849158Y-95542500D01*
X186006844Y-95542500D01*
X186006845Y-95542499D01*
X186161497Y-95511737D01*
X186307179Y-95451394D01*
X186438289Y-95363789D01*
X186549789Y-95252289D01*
X186637394Y-95121179D01*
X186697737Y-94975497D01*
X186728500Y-94820842D01*
X186728500Y-94663158D01*
X186728500Y-94663155D01*
X186728499Y-94663153D01*
X186717926Y-94609998D01*
X186697737Y-94508503D01*
X186697735Y-94508497D01*
X186637397Y-94362827D01*
X186637390Y-94362814D01*
X186549789Y-94231711D01*
X186549786Y-94231707D01*
X186527119Y-94209040D01*
X186512415Y-94182112D01*
X186495823Y-94156294D01*
X186494931Y-94150093D01*
X186493634Y-94147717D01*
X186490800Y-94121359D01*
X186490800Y-93945600D01*
X186990800Y-93945600D01*
X186990800Y-94495600D01*
X187393934Y-94495600D01*
X187393949Y-94495599D01*
X187430789Y-94492700D01*
X187430795Y-94492699D01*
X187588493Y-94446883D01*
X187588496Y-94446882D01*
X187614666Y-94431405D01*
X187682389Y-94414220D01*
X187748652Y-94436378D01*
X187765471Y-94450454D01*
X187769961Y-94454944D01*
X187769965Y-94454947D01*
X187916688Y-94545448D01*
X187916699Y-94545453D01*
X188080347Y-94599680D01*
X188181352Y-94609999D01*
X188218000Y-94609999D01*
X188218000Y-93872500D01*
X188108300Y-93872500D01*
X188071981Y-93908819D01*
X188068891Y-93905729D01*
X188035811Y-93934394D01*
X187984300Y-93945600D01*
X186990800Y-93945600D01*
X186490800Y-93945600D01*
X186490800Y-92895600D01*
X186227800Y-92895600D01*
X186219114Y-92893049D01*
X186210153Y-92894338D01*
X186186112Y-92883359D01*
X186160761Y-92875915D01*
X186154833Y-92869074D01*
X186146597Y-92865313D01*
X186132307Y-92843078D01*
X186115006Y-92823111D01*
X186112718Y-92812596D01*
X186108823Y-92806535D01*
X186103800Y-92771600D01*
X186103800Y-92720100D01*
X186123485Y-92653061D01*
X186176289Y-92607306D01*
X186227800Y-92596100D01*
X187393986Y-92596100D01*
X187393994Y-92596100D01*
X187430869Y-92593198D01*
X187588698Y-92547344D01*
X187588700Y-92547342D01*
X187594179Y-92545751D01*
X187607473Y-92545788D01*
X187619929Y-92541143D01*
X187641734Y-92545886D01*
X187664049Y-92545950D01*
X187676732Y-92553499D01*
X187688202Y-92555995D01*
X187716456Y-92577146D01*
X187761982Y-92622672D01*
X187795467Y-92683995D01*
X187790483Y-92753687D01*
X187761982Y-92798035D01*
X187661429Y-92898587D01*
X187600105Y-92932071D01*
X187539154Y-92929982D01*
X187430789Y-92898499D01*
X187393949Y-92895600D01*
X186990800Y-92895600D01*
X186990800Y-93445600D01*
X187363000Y-93445600D01*
X187399319Y-93409281D01*
X187402408Y-93412370D01*
X187435489Y-93383706D01*
X187487000Y-93372500D01*
X188344000Y-93372500D01*
X188411039Y-93392185D01*
X188456794Y-93444989D01*
X188468000Y-93496500D01*
X188468000Y-93622500D01*
X188594000Y-93622500D01*
X188661039Y-93642185D01*
X188706794Y-93694989D01*
X188718000Y-93746500D01*
X188718000Y-94609999D01*
X188754640Y-94609999D01*
X188754654Y-94609998D01*
X188855650Y-94599681D01*
X188964783Y-94563517D01*
X189034611Y-94561115D01*
X189094654Y-94596846D01*
X189125847Y-94659366D01*
X189118287Y-94728826D01*
X189091469Y-94768904D01*
X185431672Y-98428702D01*
X185370349Y-98462187D01*
X185300657Y-98457203D01*
X185256310Y-98428702D01*
X185244989Y-98417381D01*
X185244987Y-98417379D01*
X185095296Y-98308622D01*
X185095263Y-98308605D01*
X184930435Y-98224620D01*
X184930432Y-98224619D01*
X184754465Y-98167445D01*
X184594241Y-98142068D01*
X184571714Y-98138500D01*
X184386686Y-98138500D01*
X184386681Y-98138500D01*
X184280260Y-98155355D01*
X184210967Y-98146400D01*
X184173182Y-98120563D01*
X183503211Y-97450591D01*
X183503210Y-97450590D01*
X183430048Y-97401705D01*
X183430046Y-97401704D01*
X183424576Y-97398049D01*
X183400433Y-97381917D01*
X183366984Y-97368062D01*
X183361806Y-97365917D01*
X183361802Y-97365915D01*
X183286235Y-97334614D01*
X183286227Y-97334612D01*
X183165007Y-97310500D01*
X183165003Y-97310500D01*
X179237803Y-97310500D01*
X179114196Y-97310500D01*
X179114194Y-97310500D01*
X178992970Y-97334613D01*
X178992960Y-97334616D01*
X178878773Y-97381913D01*
X178878760Y-97381920D01*
X178775992Y-97450588D01*
X178775988Y-97450591D01*
X177068400Y-99158181D01*
X177007077Y-99191666D01*
X176980719Y-99194500D01*
X175585926Y-99194500D01*
X175518887Y-99174815D01*
X175473132Y-99122011D01*
X175463188Y-99052853D01*
X175492213Y-98989297D01*
X175550991Y-98951523D01*
X175558334Y-98949609D01*
X175596740Y-98940843D01*
X175659318Y-98926560D01*
X175924408Y-98833801D01*
X176177445Y-98711945D01*
X176415248Y-98562523D01*
X176634825Y-98387416D01*
X176833416Y-98188825D01*
X177008523Y-97969248D01*
X177157945Y-97731445D01*
X177279801Y-97478408D01*
X177372560Y-97213318D01*
X177435055Y-96939509D01*
X177466500Y-96660425D01*
X177466500Y-96379575D01*
X177451674Y-96247986D01*
X177435057Y-96100505D01*
X177435054Y-96100487D01*
X177372560Y-95826682D01*
X177372556Y-95826670D01*
X177332194Y-95711324D01*
X177279801Y-95561592D01*
X177157945Y-95308555D01*
X177008523Y-95070752D01*
X176833416Y-94851175D01*
X176634825Y-94652584D01*
X176415248Y-94477477D01*
X176232775Y-94362821D01*
X176177442Y-94328053D01*
X175924411Y-94206200D01*
X175659329Y-94113443D01*
X175659317Y-94113439D01*
X175385512Y-94050945D01*
X175385494Y-94050942D01*
X175106431Y-94019500D01*
X175106425Y-94019500D01*
X174825575Y-94019500D01*
X174825568Y-94019500D01*
X174546505Y-94050942D01*
X174546487Y-94050945D01*
X174272682Y-94113439D01*
X174272670Y-94113443D01*
X174007588Y-94206200D01*
X173754557Y-94328053D01*
X173516753Y-94477476D01*
X173297175Y-94652583D01*
X173098583Y-94851175D01*
X172923476Y-95070753D01*
X172774053Y-95308557D01*
X172652200Y-95561588D01*
X172607041Y-95690645D01*
X172566319Y-95747421D01*
X172501367Y-95773168D01*
X172432805Y-95759712D01*
X172382402Y-95711324D01*
X172366000Y-95649690D01*
X172366000Y-94572172D01*
X172365999Y-94572155D01*
X172359598Y-94512627D01*
X172359596Y-94512620D01*
X172309354Y-94377913D01*
X172309350Y-94377906D01*
X172223190Y-94262812D01*
X172223187Y-94262809D01*
X172108093Y-94176649D01*
X172108086Y-94176645D01*
X171973379Y-94126403D01*
X171973372Y-94126401D01*
X171913844Y-94120000D01*
X170216000Y-94120000D01*
X170216000Y-95192768D01*
X170072247Y-95170000D01*
X169859753Y-95170000D01*
X169716000Y-95192768D01*
X169716000Y-94120000D01*
X168018155Y-94120000D01*
X167958627Y-94126401D01*
X167958620Y-94126403D01*
X167823913Y-94176645D01*
X167823906Y-94176649D01*
X167708812Y-94262809D01*
X167708809Y-94262812D01*
X167622649Y-94377906D01*
X167622645Y-94377913D01*
X167572403Y-94512620D01*
X167572401Y-94512627D01*
X167566000Y-94572155D01*
X167566000Y-96270000D01*
X168638769Y-96270000D01*
X168616000Y-96413753D01*
X168616000Y-96626247D01*
X168638769Y-96770000D01*
X167566000Y-96770000D01*
X167566000Y-98467844D01*
X167572401Y-98527372D01*
X167572403Y-98527379D01*
X167622645Y-98662086D01*
X167622649Y-98662093D01*
X167708809Y-98777187D01*
X167708812Y-98777190D01*
X167823906Y-98863350D01*
X167823913Y-98863354D01*
X167958620Y-98913596D01*
X167958627Y-98913598D01*
X168018155Y-98919999D01*
X168018172Y-98920000D01*
X169716000Y-98920000D01*
X169716000Y-97847231D01*
X169859753Y-97870000D01*
X170072247Y-97870000D01*
X170216000Y-97847231D01*
X170216000Y-98920000D01*
X171913828Y-98920000D01*
X171913844Y-98919999D01*
X171973372Y-98913598D01*
X171973379Y-98913596D01*
X172108086Y-98863354D01*
X172108093Y-98863350D01*
X172223187Y-98777190D01*
X172223190Y-98777187D01*
X172309350Y-98662093D01*
X172309354Y-98662086D01*
X172359596Y-98527379D01*
X172359598Y-98527372D01*
X172365999Y-98467844D01*
X172366000Y-98467827D01*
X172366000Y-97390309D01*
X172385685Y-97323270D01*
X172438489Y-97277515D01*
X172507647Y-97267571D01*
X172571203Y-97296596D01*
X172607041Y-97349354D01*
X172652200Y-97478411D01*
X172774053Y-97731442D01*
X172774055Y-97731445D01*
X172923477Y-97969248D01*
X172934429Y-97982981D01*
X173071892Y-98155355D01*
X173098584Y-98188825D01*
X173297175Y-98387416D01*
X173516752Y-98562523D01*
X173754555Y-98711945D01*
X174007592Y-98833801D01*
X174138181Y-98879496D01*
X174272670Y-98926556D01*
X174272682Y-98926560D01*
X174373666Y-98949609D01*
X174434645Y-98983718D01*
X174467503Y-99045379D01*
X174461808Y-99115016D01*
X174419368Y-99170520D01*
X174353658Y-99194268D01*
X174346074Y-99194500D01*
X167697281Y-99194500D01*
X167630242Y-99174815D01*
X167609600Y-99158181D01*
X165257739Y-96806319D01*
X161690010Y-93238590D01*
X161648174Y-93210636D01*
X161648169Y-93210633D01*
X161644378Y-93208100D01*
X161587233Y-93169917D01*
X161553629Y-93155998D01*
X161546588Y-93153081D01*
X161546582Y-93153078D01*
X161473035Y-93122614D01*
X161473027Y-93122612D01*
X161351807Y-93098500D01*
X161351803Y-93098500D01*
X156961500Y-93098500D01*
X156894461Y-93078815D01*
X156848706Y-93026011D01*
X156837500Y-92974500D01*
X156837500Y-90697892D01*
X156857185Y-90630853D01*
X156894461Y-90593577D01*
X156976531Y-90540833D01*
X156976533Y-90540831D01*
X156976543Y-90540825D01*
X157029347Y-90495070D01*
X157123567Y-90386336D01*
X157183338Y-90255459D01*
X157203023Y-90188420D01*
X157203024Y-90188416D01*
X157223500Y-90046000D01*
X157223500Y-87232595D01*
X157243185Y-87165556D01*
X157295989Y-87119801D01*
X157365147Y-87109857D01*
X157428703Y-87138882D01*
X157435174Y-87144908D01*
X157628597Y-87338331D01*
X157680654Y-87390388D01*
X157714139Y-87451711D01*
X157714591Y-87502258D01*
X157710487Y-87522892D01*
X157710487Y-87680580D01*
X157741248Y-87835223D01*
X157741251Y-87835235D01*
X157801589Y-87980906D01*
X157801596Y-87980919D01*
X157889197Y-88112022D01*
X157889200Y-88112026D01*
X158000694Y-88223520D01*
X158000698Y-88223523D01*
X158131801Y-88311124D01*
X158131814Y-88311131D01*
X158277485Y-88371469D01*
X158277490Y-88371471D01*
X158432140Y-88402233D01*
X158432143Y-88402234D01*
X158432145Y-88402234D01*
X158589831Y-88402234D01*
X158589832Y-88402233D01*
X158744484Y-88371471D01*
X158890166Y-88311128D01*
X159021276Y-88223523D01*
X159132776Y-88112023D01*
X159220381Y-87980913D01*
X159280724Y-87835231D01*
X159301679Y-87729885D01*
X159306555Y-87705373D01*
X159338940Y-87643462D01*
X159399656Y-87608888D01*
X159469425Y-87612627D01*
X159516702Y-87642740D01*
X159516937Y-87642980D01*
X159516944Y-87642988D01*
X159579396Y-87706666D01*
X159612542Y-87734971D01*
X159685231Y-87786692D01*
X159743972Y-87821115D01*
X159771927Y-87837497D01*
X159852546Y-87875620D01*
X159852551Y-87875622D01*
X159852568Y-87875630D01*
X159893463Y-87890714D01*
X159979541Y-87914077D01*
X160077194Y-87931514D01*
X160077201Y-87931514D01*
X160077209Y-87931516D01*
X160171020Y-87939362D01*
X160217006Y-87938911D01*
X160310667Y-87929222D01*
X160310674Y-87929220D01*
X160310679Y-87929220D01*
X160310680Y-87929219D01*
X160332983Y-87924783D01*
X160355849Y-87920235D01*
X160355855Y-87920234D01*
X160355858Y-87920232D01*
X160355868Y-87920231D01*
X160450696Y-87891465D01*
X160495393Y-87872951D01*
X160582782Y-87826241D01*
X160582790Y-87826235D01*
X160582793Y-87826234D01*
X160620042Y-87801346D01*
X160620044Y-87801343D01*
X160620050Y-87801340D01*
X160692430Y-87741939D01*
X160756736Y-87714628D01*
X160825604Y-87726419D01*
X160869467Y-87762307D01*
X160877593Y-87772897D01*
X160877601Y-87772906D01*
X160882895Y-87778200D01*
X160882902Y-87778206D01*
X160898012Y-87789800D01*
X160987596Y-87858540D01*
X161043187Y-87890635D01*
X161165118Y-87941138D01*
X161178350Y-87944683D01*
X161285357Y-87961342D01*
X161285362Y-87961342D01*
X161285369Y-87961343D01*
X161325160Y-87963218D01*
X161338122Y-87963830D01*
X161338123Y-87963829D01*
X161338125Y-87963830D01*
X161402979Y-87959921D01*
X161446217Y-87957315D01*
X161484353Y-87950866D01*
X161566283Y-87929833D01*
X161605338Y-87916235D01*
X161682623Y-87881831D01*
X161721835Y-87860277D01*
X161782401Y-87821114D01*
X161810596Y-87799884D01*
X161822160Y-87789800D01*
X161824582Y-87787883D01*
X161827485Y-87785157D01*
X161865170Y-87752300D01*
X161865175Y-87752293D01*
X161867534Y-87749743D01*
X161879417Y-87736414D01*
X161880952Y-87734973D01*
X161886377Y-87729882D01*
X161923381Y-87688792D01*
X161950363Y-87656183D01*
X161962909Y-87639658D01*
X161987072Y-87604900D01*
X164457601Y-83712991D01*
X164475673Y-83682164D01*
X164483993Y-83666748D01*
X164499839Y-83634729D01*
X164546967Y-83530379D01*
X164571694Y-83463371D01*
X164581447Y-83429808D01*
X164596481Y-83359993D01*
X164612617Y-83246643D01*
X164616398Y-83211121D01*
X164617636Y-83193645D01*
X164618900Y-83157925D01*
X164618900Y-79894325D01*
X164617817Y-79861260D01*
X164616756Y-79845074D01*
X164613514Y-79812154D01*
X164599668Y-79706990D01*
X164586768Y-79642141D01*
X164578390Y-79610874D01*
X164557136Y-79548262D01*
X164519680Y-79457835D01*
X164490434Y-79398529D01*
X164474249Y-79370496D01*
X164437514Y-79315519D01*
X164377931Y-79237869D01*
X164334333Y-79188156D01*
X164334328Y-79188150D01*
X164311448Y-79165270D01*
X164261736Y-79121673D01*
X164184095Y-79062096D01*
X164184090Y-79062093D01*
X164184084Y-79062088D01*
X164129097Y-79025346D01*
X164129093Y-79025343D01*
X164129080Y-79025335D01*
X164101073Y-79009167D01*
X164101063Y-79009161D01*
X164101050Y-79009154D01*
X164101036Y-79009147D01*
X164041765Y-78979919D01*
X164041757Y-78979915D01*
X163951345Y-78942466D01*
X163951334Y-78942462D01*
X163888723Y-78921208D01*
X163857454Y-78912830D01*
X163824574Y-78906290D01*
X163792604Y-78899931D01*
X163792601Y-78899930D01*
X163792598Y-78899930D01*
X163687449Y-78886087D01*
X163687443Y-78886086D01*
X163687440Y-78886086D01*
X163681283Y-78885479D01*
X163654531Y-78882844D01*
X163638342Y-78881783D01*
X163636136Y-78881710D01*
X163605274Y-78880700D01*
X161700526Y-78880700D01*
X161667459Y-78881783D01*
X161651258Y-78882845D01*
X161618357Y-78886085D01*
X161513203Y-78899929D01*
X161513201Y-78899929D01*
X161513196Y-78899930D01*
X161448352Y-78912828D01*
X161448347Y-78912829D01*
X161417092Y-78921203D01*
X161417084Y-78921205D01*
X161354476Y-78942456D01*
X161354452Y-78942465D01*
X161264066Y-78979903D01*
X161264030Y-78979920D01*
X161204724Y-79009166D01*
X161176696Y-79025349D01*
X161121725Y-79062079D01*
X161121697Y-79062100D01*
X161044066Y-79121669D01*
X160994337Y-79165282D01*
X160971482Y-79188137D01*
X160927873Y-79237862D01*
X160909773Y-79261450D01*
X160853344Y-79302651D01*
X160783598Y-79306804D01*
X160722679Y-79272591D01*
X160713023Y-79261447D01*
X160694934Y-79237873D01*
X160694931Y-79237869D01*
X160651333Y-79188156D01*
X160651328Y-79188150D01*
X160628448Y-79165270D01*
X160578736Y-79121673D01*
X160501095Y-79062096D01*
X160501090Y-79062093D01*
X160501084Y-79062088D01*
X160446097Y-79025346D01*
X160446093Y-79025343D01*
X160446080Y-79025335D01*
X160418073Y-79009167D01*
X160418063Y-79009161D01*
X160418050Y-79009154D01*
X160418036Y-79009147D01*
X160358765Y-78979919D01*
X160358757Y-78979915D01*
X160268345Y-78942466D01*
X160268334Y-78942462D01*
X160205723Y-78921208D01*
X160174454Y-78912830D01*
X160141574Y-78906290D01*
X160109604Y-78899931D01*
X160109601Y-78899930D01*
X160109598Y-78899930D01*
X160004449Y-78886087D01*
X160004443Y-78886086D01*
X160004440Y-78886086D01*
X159998283Y-78885479D01*
X159971531Y-78882844D01*
X159955342Y-78881783D01*
X159953136Y-78881710D01*
X159922274Y-78880700D01*
X158311678Y-78880700D01*
X158244639Y-78861015D01*
X158198884Y-78808211D01*
X158188940Y-78739053D01*
X158217965Y-78675497D01*
X158223997Y-78669019D01*
X158814735Y-78078281D01*
X159609249Y-77283767D01*
X159670570Y-77250284D01*
X159740262Y-77255268D01*
X159796195Y-77297140D01*
X159811487Y-77323994D01*
X159818606Y-77341179D01*
X159818607Y-77341181D01*
X159818609Y-77341184D01*
X159906210Y-77472289D01*
X160017707Y-77583786D01*
X160017711Y-77583789D01*
X160148814Y-77671390D01*
X160148827Y-77671397D01*
X160294498Y-77731735D01*
X160294503Y-77731737D01*
X160427978Y-77758287D01*
X160449153Y-77762499D01*
X160449156Y-77762500D01*
X160449158Y-77762500D01*
X160606844Y-77762500D01*
X160606845Y-77762499D01*
X160761497Y-77731737D01*
X160907179Y-77671394D01*
X161038289Y-77583789D01*
X161149789Y-77472289D01*
X161237394Y-77341179D01*
X161297737Y-77195497D01*
X161328500Y-77040842D01*
X161328500Y-76883158D01*
X161328500Y-76883155D01*
X161328499Y-76883153D01*
X161297738Y-76728510D01*
X161297737Y-76728503D01*
X161281712Y-76689815D01*
X161237397Y-76582827D01*
X161237390Y-76582814D01*
X161149789Y-76451711D01*
X161149786Y-76451707D01*
X161038292Y-76340213D01*
X161038288Y-76340210D01*
X160907185Y-76252609D01*
X160907172Y-76252602D01*
X160761501Y-76192264D01*
X160761489Y-76192261D01*
X160606845Y-76161500D01*
X160606842Y-76161500D01*
X160449158Y-76161500D01*
X160449150Y-76161500D01*
X160446955Y-76161937D01*
X160445783Y-76161832D01*
X160443093Y-76162097D01*
X160443042Y-76161586D01*
X160377364Y-76155702D01*
X160322191Y-76112833D01*
X160298954Y-76046941D01*
X160315030Y-75978945D01*
X160335092Y-75952640D01*
X166383865Y-69903867D01*
X166389152Y-69900980D01*
X166392529Y-69895985D01*
X166419466Y-69884428D01*
X166445186Y-69870384D01*
X166451198Y-69870813D01*
X166456739Y-69868437D01*
X166485641Y-69873277D01*
G37*
%TD.AperFunction*%
%TA.AperFunction,Conductor*%
G36*
X167293098Y-66820185D02*
G01*
X167338853Y-66872989D01*
X167348797Y-66942147D01*
X167319772Y-67005703D01*
X167313740Y-67012181D01*
X167272213Y-67053707D01*
X167272210Y-67053711D01*
X167184609Y-67184814D01*
X167184602Y-67184827D01*
X167124264Y-67330498D01*
X167124261Y-67330510D01*
X167093500Y-67485153D01*
X167093500Y-67642846D01*
X167124261Y-67797489D01*
X167124264Y-67797501D01*
X167184602Y-67943172D01*
X167184607Y-67943181D01*
X167201486Y-67968443D01*
X167222362Y-68035121D01*
X167203876Y-68102501D01*
X167151896Y-68149190D01*
X167089934Y-68160083D01*
X167089934Y-68160500D01*
X167087566Y-68160500D01*
X167086229Y-68160735D01*
X167083843Y-68160500D01*
X167083842Y-68160500D01*
X166926158Y-68160500D01*
X166926155Y-68160500D01*
X166771510Y-68191261D01*
X166771498Y-68191264D01*
X166625827Y-68251602D01*
X166625814Y-68251609D01*
X166494711Y-68339210D01*
X166494707Y-68339213D01*
X166383213Y-68450707D01*
X166383210Y-68450711D01*
X166295609Y-68581814D01*
X166295602Y-68581827D01*
X166235264Y-68727498D01*
X166235261Y-68727510D01*
X166204500Y-68882153D01*
X166204500Y-69039846D01*
X166235261Y-69194489D01*
X166235264Y-69194501D01*
X166266383Y-69269629D01*
X166273852Y-69339098D01*
X166242576Y-69401577D01*
X166239503Y-69404762D01*
X160526480Y-75117786D01*
X160465157Y-75151271D01*
X160395465Y-75146287D01*
X160339532Y-75104415D01*
X160315115Y-75038951D01*
X160320232Y-74997019D01*
X160319619Y-74996872D01*
X160320757Y-74992126D01*
X160331231Y-74926000D01*
X159437012Y-74926000D01*
X159469925Y-74868993D01*
X159504000Y-74741826D01*
X159504000Y-74610174D01*
X159469925Y-74483007D01*
X159437012Y-74426000D01*
X160331231Y-74426000D01*
X160320757Y-74359873D01*
X160320757Y-74359870D01*
X160255095Y-74157782D01*
X160158620Y-73968442D01*
X160033727Y-73796540D01*
X160033723Y-73796535D01*
X159883464Y-73646276D01*
X159883459Y-73646272D01*
X159711555Y-73521377D01*
X159702500Y-73516763D01*
X159651706Y-73468788D01*
X159634912Y-73400966D01*
X159657451Y-73334832D01*
X159702508Y-73295793D01*
X159711816Y-73291051D01*
X159850215Y-73190499D01*
X159883786Y-73166109D01*
X159883788Y-73166106D01*
X159883792Y-73166104D01*
X160034104Y-73015792D01*
X160034106Y-73015788D01*
X160034109Y-73015786D01*
X160159048Y-72843820D01*
X160159047Y-72843820D01*
X160159051Y-72843816D01*
X160255557Y-72654412D01*
X160321246Y-72452243D01*
X160354500Y-72242287D01*
X160354500Y-72029713D01*
X160321246Y-71819757D01*
X160311394Y-71789439D01*
X160309399Y-71719601D01*
X160341643Y-71663444D01*
X163790059Y-68215030D01*
X163828500Y-68122225D01*
X163828500Y-68021775D01*
X163828500Y-67469941D01*
X163848185Y-67402902D01*
X163900989Y-67357147D01*
X163970147Y-67347203D01*
X164033703Y-67376228D01*
X164040181Y-67382260D01*
X164081707Y-67423786D01*
X164081711Y-67423789D01*
X164212814Y-67511390D01*
X164212827Y-67511397D01*
X164358498Y-67571735D01*
X164358503Y-67571737D01*
X164513153Y-67602499D01*
X164513156Y-67602500D01*
X164513158Y-67602500D01*
X164670844Y-67602500D01*
X164670845Y-67602499D01*
X164825497Y-67571737D01*
X164971179Y-67511394D01*
X165102289Y-67423789D01*
X165213789Y-67312289D01*
X165301394Y-67181179D01*
X165361737Y-67035497D01*
X165388628Y-66900309D01*
X165421013Y-66838398D01*
X165481728Y-66803824D01*
X165510245Y-66800500D01*
X167226059Y-66800500D01*
X167293098Y-66820185D01*
G37*
%TD.AperFunction*%
%TA.AperFunction,Conductor*%
G36*
X161050179Y-50819685D02*
G01*
X161073135Y-50840803D01*
X161073773Y-50840166D01*
X161079520Y-50845913D01*
X161154087Y-50920480D01*
X161245413Y-50973207D01*
X161347273Y-51000500D01*
X161452727Y-51000500D01*
X162075500Y-51000500D01*
X162142539Y-51020185D01*
X162188294Y-51072989D01*
X162199500Y-51124500D01*
X162199500Y-55047870D01*
X162199501Y-55047876D01*
X162205908Y-55107483D01*
X162256202Y-55242328D01*
X162256206Y-55242335D01*
X162342452Y-55357544D01*
X162342455Y-55357547D01*
X162457664Y-55443793D01*
X162457671Y-55443797D01*
X162491829Y-55456537D01*
X162592517Y-55494091D01*
X162652127Y-55500500D01*
X163073500Y-55500499D01*
X163140539Y-55520183D01*
X163186294Y-55572987D01*
X163197500Y-55624499D01*
X163197500Y-57481775D01*
X163197500Y-57582225D01*
X163235941Y-57675030D01*
X167750970Y-62190059D01*
X167843775Y-62228500D01*
X167944225Y-62228500D01*
X173453049Y-62228500D01*
X173520088Y-62248185D01*
X173540730Y-62264819D01*
X175987181Y-64711270D01*
X176020666Y-64772593D01*
X176023500Y-64798951D01*
X176023500Y-68229380D01*
X176003815Y-68296419D01*
X175951011Y-68342174D01*
X175899500Y-68353380D01*
X175864398Y-68353380D01*
X175709753Y-68384141D01*
X175709741Y-68384144D01*
X175564070Y-68444482D01*
X175564057Y-68444489D01*
X175432954Y-68532090D01*
X175432950Y-68532093D01*
X175321456Y-68643587D01*
X175321453Y-68643591D01*
X175233852Y-68774694D01*
X175233845Y-68774707D01*
X175173507Y-68920378D01*
X175173504Y-68920390D01*
X175142743Y-69075033D01*
X175142743Y-69232726D01*
X175173504Y-69387369D01*
X175173507Y-69387381D01*
X175233845Y-69533052D01*
X175233852Y-69533065D01*
X175321453Y-69664168D01*
X175321456Y-69664172D01*
X175432950Y-69775666D01*
X175432954Y-69775669D01*
X175564057Y-69863270D01*
X175564061Y-69863272D01*
X175564064Y-69863274D01*
X175567678Y-69864771D01*
X175569334Y-69865457D01*
X175623738Y-69909296D01*
X175645805Y-69975590D01*
X175628527Y-70043290D01*
X175609565Y-70067700D01*
X175285037Y-70392227D01*
X175266247Y-70407648D01*
X175130711Y-70498210D01*
X175130707Y-70498213D01*
X175019213Y-70609707D01*
X175019210Y-70609711D01*
X174928645Y-70745251D01*
X174913224Y-70764041D01*
X174750132Y-70927135D01*
X174686135Y-70991132D01*
X174679865Y-71006270D01*
X174651500Y-71074746D01*
X174651500Y-71506758D01*
X174631815Y-71573797D01*
X174579011Y-71619552D01*
X174509853Y-71629496D01*
X174480052Y-71621321D01*
X174477500Y-71620264D01*
X174477498Y-71620263D01*
X174477497Y-71620263D01*
X174477494Y-71620262D01*
X174477489Y-71620261D01*
X174322845Y-71589500D01*
X174322842Y-71589500D01*
X174165158Y-71589500D01*
X174165155Y-71589500D01*
X174010510Y-71620261D01*
X174010498Y-71620264D01*
X173864827Y-71680602D01*
X173864814Y-71680609D01*
X173733711Y-71768210D01*
X173733707Y-71768213D01*
X173622213Y-71879707D01*
X173622210Y-71879711D01*
X173534609Y-72010814D01*
X173534602Y-72010827D01*
X173474264Y-72156498D01*
X173474261Y-72156510D01*
X173443500Y-72311153D01*
X173443500Y-72468846D01*
X173474261Y-72623489D01*
X173474264Y-72623501D01*
X173534602Y-72769172D01*
X173534609Y-72769185D01*
X173622210Y-72900288D01*
X173622213Y-72900292D01*
X173733707Y-73011786D01*
X173733711Y-73011789D01*
X173864814Y-73099390D01*
X173864827Y-73099397D01*
X174010498Y-73159735D01*
X174010503Y-73159737D01*
X174165153Y-73190499D01*
X174165156Y-73190500D01*
X174165158Y-73190500D01*
X174322844Y-73190500D01*
X174322845Y-73190499D01*
X174477497Y-73159737D01*
X174623179Y-73099394D01*
X174754289Y-73011789D01*
X174865789Y-72900289D01*
X174953394Y-72769179D01*
X175013737Y-72623497D01*
X175044500Y-72468842D01*
X175044500Y-72311158D01*
X175044500Y-72311155D01*
X175044499Y-72311153D01*
X175013737Y-72156503D01*
X174982615Y-72081369D01*
X174980969Y-72066060D01*
X174974515Y-72052083D01*
X174977311Y-72032032D01*
X174975147Y-72011902D01*
X174982180Y-71997121D01*
X174984166Y-71982883D01*
X174999537Y-71960644D01*
X175003122Y-71953112D01*
X175006178Y-71949554D01*
X175071866Y-71883868D01*
X175080480Y-71863069D01*
X175093400Y-71848032D01*
X175106748Y-71839373D01*
X175116731Y-71826985D01*
X175135459Y-71820750D01*
X175152018Y-71810010D01*
X175167926Y-71809942D01*
X175183024Y-71804917D01*
X175202148Y-71809797D01*
X175221887Y-71809714D01*
X175235309Y-71818260D01*
X175250724Y-71822194D01*
X175256348Y-71825738D01*
X175261811Y-71829388D01*
X175261815Y-71829390D01*
X175261821Y-71829394D01*
X175261823Y-71829395D01*
X175261827Y-71829397D01*
X175407498Y-71889735D01*
X175407503Y-71889737D01*
X175562153Y-71920499D01*
X175562156Y-71920500D01*
X175562158Y-71920500D01*
X175719844Y-71920500D01*
X175719845Y-71920499D01*
X175874497Y-71889737D01*
X176020179Y-71829394D01*
X176151289Y-71741789D01*
X176262789Y-71630289D01*
X176350394Y-71499179D01*
X176410737Y-71353497D01*
X176441500Y-71198842D01*
X176441500Y-71041158D01*
X176441500Y-71041155D01*
X176441499Y-71041153D01*
X176432283Y-70994821D01*
X176410737Y-70886503D01*
X176379614Y-70811365D01*
X176372146Y-70741901D01*
X176403420Y-70679422D01*
X176406465Y-70676266D01*
X177329865Y-69752868D01*
X177335597Y-69739030D01*
X177364500Y-69669253D01*
X177364500Y-63284452D01*
X177355889Y-63263663D01*
X177354175Y-63259524D01*
X177354173Y-63259522D01*
X177347762Y-63244043D01*
X177329866Y-63200837D01*
X177233572Y-63104543D01*
X177228844Y-63098467D01*
X177218737Y-63072843D01*
X177205539Y-63048672D01*
X177206101Y-63040806D01*
X177203208Y-63033470D01*
X177208558Y-63006453D01*
X177210523Y-62978980D01*
X177215249Y-62972666D01*
X177216781Y-62964932D01*
X177235888Y-62945096D01*
X177252395Y-62923047D01*
X177260693Y-62919346D01*
X177265254Y-62914612D01*
X177278190Y-62911543D01*
X177302511Y-62900697D01*
X177347559Y-62891737D01*
X177493241Y-62831394D01*
X177624351Y-62743789D01*
X177735851Y-62632289D01*
X177823456Y-62501179D01*
X177883799Y-62355497D01*
X177914562Y-62200842D01*
X177914562Y-62043158D01*
X177914562Y-62043155D01*
X177914561Y-62043153D01*
X177883800Y-61888510D01*
X177883799Y-61888503D01*
X177842549Y-61788915D01*
X177835080Y-61719446D01*
X177866355Y-61656967D01*
X177869399Y-61653812D01*
X178843514Y-60679699D01*
X178904837Y-60646214D01*
X178931195Y-60643380D01*
X180501784Y-60643380D01*
X180568823Y-60663065D01*
X180604886Y-60698489D01*
X180655453Y-60774169D01*
X180766950Y-60885666D01*
X180766954Y-60885669D01*
X180898057Y-60973270D01*
X180898070Y-60973277D01*
X181043355Y-61033455D01*
X181043746Y-61033617D01*
X181198396Y-61064379D01*
X181198399Y-61064380D01*
X181198401Y-61064380D01*
X181356087Y-61064380D01*
X181413416Y-61052975D01*
X181510740Y-61033617D01*
X181510743Y-61033615D01*
X181511551Y-61033455D01*
X181581142Y-61039682D01*
X181636320Y-61082544D01*
X181659565Y-61148434D01*
X181659743Y-61155072D01*
X181659743Y-62848159D01*
X181640058Y-62915198D01*
X181587254Y-62960953D01*
X181583197Y-62962720D01*
X181533063Y-62983486D01*
X181533057Y-62983489D01*
X181401954Y-63071090D01*
X181401950Y-63071093D01*
X181290456Y-63182587D01*
X181290453Y-63182591D01*
X181202852Y-63313694D01*
X181202845Y-63313707D01*
X181142507Y-63459378D01*
X181142504Y-63459390D01*
X181111743Y-63614033D01*
X181111743Y-63771726D01*
X181136464Y-63896008D01*
X181130237Y-63965600D01*
X181087374Y-64020777D01*
X181039039Y-64041816D01*
X180916751Y-64066141D01*
X180916741Y-64066144D01*
X180771070Y-64126482D01*
X180771057Y-64126489D01*
X180639954Y-64214090D01*
X180639950Y-64214093D01*
X180528456Y-64325587D01*
X180528453Y-64325591D01*
X180440852Y-64456694D01*
X180440845Y-64456707D01*
X180380507Y-64602378D01*
X180380504Y-64602390D01*
X180349743Y-64757033D01*
X180349743Y-64914726D01*
X180380504Y-65069369D01*
X180380507Y-65069381D01*
X180440845Y-65215052D01*
X180440852Y-65215065D01*
X180528453Y-65346168D01*
X180528456Y-65346172D01*
X180639950Y-65457666D01*
X180639954Y-65457669D01*
X180771057Y-65545270D01*
X180771070Y-65545277D01*
X180916741Y-65605615D01*
X180916746Y-65605617D01*
X181071396Y-65636379D01*
X181071399Y-65636380D01*
X181071401Y-65636380D01*
X181229087Y-65636380D01*
X181229088Y-65636379D01*
X181383740Y-65605617D01*
X181529422Y-65545274D01*
X181660532Y-65457669D01*
X181772032Y-65346169D01*
X181859637Y-65215059D01*
X181919980Y-65069377D01*
X181950743Y-64914722D01*
X181950743Y-64844892D01*
X181970428Y-64777853D01*
X181987062Y-64757211D01*
X182736164Y-64008109D01*
X183555059Y-63189214D01*
X183593500Y-63096409D01*
X183593500Y-62995959D01*
X183593500Y-61036245D01*
X183613185Y-60969206D01*
X183665989Y-60923451D01*
X183704898Y-60912887D01*
X183741253Y-60909174D01*
X183905016Y-60854908D01*
X184051850Y-60764340D01*
X184165819Y-60650371D01*
X184227142Y-60616886D01*
X184296834Y-60621870D01*
X184341181Y-60650371D01*
X184455150Y-60764340D01*
X184601984Y-60854908D01*
X184765747Y-60909174D01*
X184866823Y-60919500D01*
X185465176Y-60919499D01*
X185465184Y-60919498D01*
X185465187Y-60919498D01*
X185520530Y-60913844D01*
X185566253Y-60909174D01*
X185730016Y-60854908D01*
X185876850Y-60764340D01*
X185876852Y-60764337D01*
X185877403Y-60763998D01*
X185944795Y-60745558D01*
X186011459Y-60766480D01*
X186056229Y-60820122D01*
X186066500Y-60869537D01*
X186066500Y-67403164D01*
X186046815Y-67470203D01*
X186030181Y-67490845D01*
X185246405Y-68274620D01*
X185246399Y-68274627D01*
X185150370Y-68418346D01*
X185084221Y-68578040D01*
X185071184Y-68643587D01*
X185050500Y-68747574D01*
X185050500Y-68920426D01*
X185072130Y-69029169D01*
X185084221Y-69089959D01*
X185150370Y-69249653D01*
X185246399Y-69393372D01*
X185246405Y-69393379D01*
X185368620Y-69515594D01*
X185368627Y-69515600D01*
X185512346Y-69611629D01*
X185512347Y-69611629D01*
X185512348Y-69611630D01*
X185672042Y-69677779D01*
X185841574Y-69711500D01*
X185841576Y-69711500D01*
X186014424Y-69711500D01*
X186014426Y-69711500D01*
X186183958Y-69677779D01*
X186343652Y-69611630D01*
X186487374Y-69515599D01*
X187625599Y-68377374D01*
X187641444Y-68353661D01*
X187644990Y-68348354D01*
X187644991Y-68348351D01*
X187647603Y-68344443D01*
X187721631Y-68233652D01*
X187751931Y-68160500D01*
X187787779Y-68073958D01*
X187821500Y-67904426D01*
X187821500Y-67731574D01*
X187821500Y-57063574D01*
X187821500Y-57063571D01*
X187800541Y-56958207D01*
X187798934Y-56950127D01*
X187787778Y-56894042D01*
X187737209Y-56771958D01*
X187730620Y-56756051D01*
X187721634Y-56734355D01*
X187721633Y-56734354D01*
X187721631Y-56734348D01*
X187658394Y-56639707D01*
X187625599Y-56590625D01*
X187499055Y-56464081D01*
X187499032Y-56464060D01*
X187223819Y-56188846D01*
X187190334Y-56127523D01*
X187187500Y-56101165D01*
X187187500Y-55572720D01*
X187207185Y-55505681D01*
X187259989Y-55459926D01*
X187268155Y-55456542D01*
X187302331Y-55443796D01*
X187417546Y-55357546D01*
X187481047Y-55272719D01*
X187536979Y-55230850D01*
X187606671Y-55225866D01*
X187667994Y-55259351D01*
X187679579Y-55272721D01*
X187742813Y-55357190D01*
X187857906Y-55443350D01*
X187857913Y-55443354D01*
X187992620Y-55493596D01*
X187992627Y-55493598D01*
X188052155Y-55499999D01*
X188052172Y-55500000D01*
X188100565Y-55500000D01*
X188100565Y-62468842D01*
X193040000Y-62484000D01*
X189624565Y-58704550D01*
X189624565Y-55500000D01*
X189647828Y-55500000D01*
X189647844Y-55499999D01*
X189707372Y-55493598D01*
X189707379Y-55493596D01*
X189842086Y-55443354D01*
X189842093Y-55443350D01*
X189957187Y-55357190D01*
X189957188Y-55357189D01*
X190020420Y-55272722D01*
X190076353Y-55230850D01*
X190146045Y-55225866D01*
X190207368Y-55259351D01*
X190218953Y-55272720D01*
X190219266Y-55273138D01*
X190282187Y-55357190D01*
X190282455Y-55357547D01*
X190397664Y-55443793D01*
X190397669Y-55443796D01*
X190431832Y-55456538D01*
X190487766Y-55498408D01*
X190512184Y-55563871D01*
X190512500Y-55572720D01*
X190512500Y-58352211D01*
X190512500Y-58525063D01*
X190537790Y-58652212D01*
X190546221Y-58694596D01*
X190581976Y-58780915D01*
X190581978Y-58780920D01*
X190584970Y-58788141D01*
X190612369Y-58854289D01*
X190688683Y-58968501D01*
X190691108Y-58972130D01*
X190691109Y-58972132D01*
X190708402Y-58998013D01*
X190708403Y-58998014D01*
X194313934Y-62603544D01*
X194313940Y-62603549D01*
X195682181Y-63971790D01*
X195715666Y-64033113D01*
X195718500Y-64059471D01*
X195718500Y-75531165D01*
X195698815Y-75598204D01*
X195682181Y-75618846D01*
X187124846Y-84176181D01*
X187063523Y-84209666D01*
X187037165Y-84212500D01*
X183809571Y-84212500D01*
X183640050Y-84246219D01*
X183640041Y-84246222D01*
X183480347Y-84312369D01*
X183480344Y-84312370D01*
X183336626Y-84408400D01*
X183336622Y-84408403D01*
X183214403Y-84530622D01*
X183214400Y-84530626D01*
X183118370Y-84674344D01*
X183118369Y-84674347D01*
X183052222Y-84834041D01*
X183052219Y-84834050D01*
X183018500Y-85003569D01*
X183018500Y-85176430D01*
X183052219Y-85345949D01*
X183052222Y-85345958D01*
X183118369Y-85505652D01*
X183118370Y-85505655D01*
X183214400Y-85649373D01*
X183214403Y-85649377D01*
X183336622Y-85771596D01*
X183336626Y-85771599D01*
X183480344Y-85867629D01*
X183480346Y-85867629D01*
X183480348Y-85867631D01*
X183640043Y-85933778D01*
X183640045Y-85933778D01*
X183640050Y-85933780D01*
X183809569Y-85967499D01*
X183809572Y-85967500D01*
X183809574Y-85967500D01*
X187538424Y-85967500D01*
X187538426Y-85967500D01*
X187707958Y-85933779D01*
X187801504Y-85895029D01*
X187867652Y-85867631D01*
X188011374Y-85771599D01*
X188133599Y-85649374D01*
X197277599Y-76505374D01*
X197298226Y-76474503D01*
X197373631Y-76361652D01*
X197384886Y-76334480D01*
X197418798Y-76252609D01*
X197418799Y-76252606D01*
X197439777Y-76201962D01*
X197439779Y-76201958D01*
X197473501Y-76032426D01*
X197473501Y-75859574D01*
X197473501Y-75854464D01*
X197473500Y-75854438D01*
X197473500Y-63413571D01*
X197473499Y-63413569D01*
X197439780Y-63244050D01*
X197439777Y-63244041D01*
X197373631Y-63084348D01*
X197373629Y-63084346D01*
X197373629Y-63084344D01*
X197277599Y-62940626D01*
X197277596Y-62940622D01*
X197155377Y-62818403D01*
X197155373Y-62818400D01*
X197011655Y-62722370D01*
X197011652Y-62722369D01*
X196868940Y-62663256D01*
X196828711Y-62636376D01*
X195554912Y-61362577D01*
X195554910Y-61362574D01*
X192303819Y-58111483D01*
X192270334Y-58050160D01*
X192267500Y-58023802D01*
X192267500Y-55572720D01*
X192287185Y-55505681D01*
X192339989Y-55459926D01*
X192348155Y-55456542D01*
X192382331Y-55443796D01*
X192497546Y-55357546D01*
X192583796Y-55242331D01*
X192634091Y-55107483D01*
X192640500Y-55047873D01*
X192640499Y-51124499D01*
X192660184Y-51057461D01*
X192712988Y-51011706D01*
X192764499Y-51000500D01*
X193452725Y-51000500D01*
X193452727Y-51000500D01*
X193554587Y-50973207D01*
X193645913Y-50920480D01*
X193720480Y-50845913D01*
X193720480Y-50845912D01*
X193726227Y-50840166D01*
X193727783Y-50841722D01*
X193774914Y-50807310D01*
X193816860Y-50800000D01*
X201676000Y-50800000D01*
X201743039Y-50819685D01*
X201788794Y-50872489D01*
X201800000Y-50924000D01*
X201800000Y-100676000D01*
X201780315Y-100743039D01*
X201727511Y-100788794D01*
X201676000Y-100800000D01*
X153124000Y-100800000D01*
X153056961Y-100780315D01*
X153011206Y-100727511D01*
X153000000Y-100676000D01*
X153000000Y-98947350D01*
X155783700Y-98947350D01*
X155783700Y-99116649D01*
X155810181Y-99283847D01*
X155862496Y-99444853D01*
X155875507Y-99470387D01*
X155919478Y-99556685D01*
X155939352Y-99595688D01*
X156038848Y-99732634D01*
X156038852Y-99732639D01*
X156158560Y-99852347D01*
X156158565Y-99852351D01*
X156254339Y-99921934D01*
X156295515Y-99951850D01*
X156361074Y-99985254D01*
X156446346Y-100028703D01*
X156446348Y-100028703D01*
X156446351Y-100028705D01*
X156471499Y-100036876D01*
X156607352Y-100081018D01*
X156774551Y-100107500D01*
X156774556Y-100107500D01*
X156943849Y-100107500D01*
X157111047Y-100081018D01*
X157114829Y-100079789D01*
X157272049Y-100028705D01*
X157422885Y-99951850D01*
X157559841Y-99852346D01*
X157679546Y-99732641D01*
X157779050Y-99595685D01*
X157855905Y-99444849D01*
X157908218Y-99283847D01*
X157922818Y-99191666D01*
X157933669Y-99123156D01*
X158383699Y-99123156D01*
X158419265Y-99301952D01*
X158419268Y-99301962D01*
X158489031Y-99470387D01*
X158489033Y-99470391D01*
X158590313Y-99621967D01*
X158590319Y-99621975D01*
X158719224Y-99750880D01*
X158719232Y-99750886D01*
X158870808Y-99852166D01*
X158870812Y-99852168D01*
X159039237Y-99921931D01*
X159039242Y-99921933D01*
X159039246Y-99921933D01*
X159039247Y-99921934D01*
X159218043Y-99957500D01*
X159218046Y-99957500D01*
X159400356Y-99957500D01*
X159520645Y-99933572D01*
X159579158Y-99921933D01*
X159747145Y-99852351D01*
X159747587Y-99852168D01*
X159747591Y-99852166D01*
X159823551Y-99801411D01*
X159899172Y-99750883D01*
X160028083Y-99621972D01*
X160056098Y-99580043D01*
X160109709Y-99535240D01*
X160179034Y-99526531D01*
X160242062Y-99556685D01*
X160262300Y-99580042D01*
X160272753Y-99595685D01*
X160290318Y-99621974D01*
X160419224Y-99750880D01*
X160419232Y-99750886D01*
X160570808Y-99852166D01*
X160570812Y-99852168D01*
X160739237Y-99921931D01*
X160739242Y-99921933D01*
X160739246Y-99921933D01*
X160739247Y-99921934D01*
X160918043Y-99957500D01*
X160918046Y-99957500D01*
X161100356Y-99957500D01*
X161220645Y-99933572D01*
X161279158Y-99921933D01*
X161447145Y-99852351D01*
X161447587Y-99852168D01*
X161447591Y-99852166D01*
X161523551Y-99801411D01*
X161599172Y-99750883D01*
X161728083Y-99621972D01*
X161829367Y-99470389D01*
X161899133Y-99301958D01*
X161921072Y-99191666D01*
X161934700Y-99123156D01*
X161934700Y-98947350D01*
X162383700Y-98947350D01*
X162383700Y-99116649D01*
X162410181Y-99283847D01*
X162462496Y-99444853D01*
X162475507Y-99470387D01*
X162519478Y-99556685D01*
X162539352Y-99595688D01*
X162638848Y-99732634D01*
X162638852Y-99732639D01*
X162758560Y-99852347D01*
X162758565Y-99852351D01*
X162854339Y-99921934D01*
X162895515Y-99951850D01*
X162961074Y-99985254D01*
X163046346Y-100028703D01*
X163046348Y-100028703D01*
X163046351Y-100028705D01*
X163071499Y-100036876D01*
X163207352Y-100081018D01*
X163374551Y-100107500D01*
X163374556Y-100107500D01*
X163543849Y-100107500D01*
X163711047Y-100081018D01*
X163714829Y-100079789D01*
X163872049Y-100028705D01*
X164022885Y-99951850D01*
X164159841Y-99852346D01*
X164279546Y-99732641D01*
X164379050Y-99595685D01*
X164455905Y-99444849D01*
X164508218Y-99283847D01*
X164522818Y-99191666D01*
X164534700Y-99116649D01*
X164534700Y-98947350D01*
X164508218Y-98780152D01*
X164469858Y-98662093D01*
X164455905Y-98619151D01*
X164455903Y-98619148D01*
X164455903Y-98619146D01*
X164428020Y-98564425D01*
X164379050Y-98468315D01*
X164350270Y-98428702D01*
X164279551Y-98331365D01*
X164279547Y-98331360D01*
X164159839Y-98211652D01*
X164159834Y-98211648D01*
X164022888Y-98112152D01*
X164022887Y-98112151D01*
X164022885Y-98112150D01*
X163975782Y-98088150D01*
X163872053Y-98035296D01*
X163711047Y-97982981D01*
X163543849Y-97956500D01*
X163543844Y-97956500D01*
X163374556Y-97956500D01*
X163374551Y-97956500D01*
X163207352Y-97982981D01*
X163046346Y-98035296D01*
X162895511Y-98112152D01*
X162758565Y-98211648D01*
X162758560Y-98211652D01*
X162638852Y-98331360D01*
X162638848Y-98331365D01*
X162539352Y-98468311D01*
X162462496Y-98619146D01*
X162410181Y-98780152D01*
X162383700Y-98947350D01*
X161934700Y-98947350D01*
X161934700Y-98940843D01*
X161899134Y-98762047D01*
X161899133Y-98762046D01*
X161899133Y-98762042D01*
X161878382Y-98711945D01*
X161829368Y-98593612D01*
X161829366Y-98593608D01*
X161728086Y-98442032D01*
X161728080Y-98442024D01*
X161599175Y-98313119D01*
X161599167Y-98313113D01*
X161447591Y-98211833D01*
X161447587Y-98211831D01*
X161279162Y-98142068D01*
X161279152Y-98142065D01*
X161100356Y-98106500D01*
X161100354Y-98106500D01*
X160918046Y-98106500D01*
X160918044Y-98106500D01*
X160739247Y-98142065D01*
X160739237Y-98142068D01*
X160570812Y-98211831D01*
X160570808Y-98211833D01*
X160419232Y-98313113D01*
X160419224Y-98313119D01*
X160290316Y-98442027D01*
X160262302Y-98483955D01*
X160208690Y-98528760D01*
X160139365Y-98537467D01*
X160076338Y-98507313D01*
X160056098Y-98483955D01*
X160028083Y-98442027D01*
X159899175Y-98313119D01*
X159899167Y-98313113D01*
X159747591Y-98211833D01*
X159747587Y-98211831D01*
X159579162Y-98142068D01*
X159579152Y-98142065D01*
X159400356Y-98106500D01*
X159400354Y-98106500D01*
X159218046Y-98106500D01*
X159218044Y-98106500D01*
X159039247Y-98142065D01*
X159039237Y-98142068D01*
X158870812Y-98211831D01*
X158870808Y-98211833D01*
X158719232Y-98313113D01*
X158719224Y-98313119D01*
X158590319Y-98442024D01*
X158590313Y-98442032D01*
X158489033Y-98593608D01*
X158489031Y-98593612D01*
X158419268Y-98762037D01*
X158419265Y-98762047D01*
X158383700Y-98940843D01*
X158383700Y-98940846D01*
X158383700Y-99007711D01*
X158383700Y-99123154D01*
X158383700Y-99123156D01*
X158383699Y-99123156D01*
X157933669Y-99123156D01*
X157934700Y-99116649D01*
X157934700Y-98947350D01*
X157908218Y-98780152D01*
X157869858Y-98662093D01*
X157855905Y-98619151D01*
X157855903Y-98619148D01*
X157855903Y-98619146D01*
X157828020Y-98564425D01*
X157779050Y-98468315D01*
X157750270Y-98428702D01*
X157679551Y-98331365D01*
X157679547Y-98331360D01*
X157559839Y-98211652D01*
X157559834Y-98211648D01*
X157422888Y-98112152D01*
X157422887Y-98112151D01*
X157422885Y-98112150D01*
X157375782Y-98088150D01*
X157272053Y-98035296D01*
X157111047Y-97982981D01*
X156943849Y-97956500D01*
X156943844Y-97956500D01*
X156774556Y-97956500D01*
X156774551Y-97956500D01*
X156607352Y-97982981D01*
X156446346Y-98035296D01*
X156295511Y-98112152D01*
X156158565Y-98211648D01*
X156158560Y-98211652D01*
X156038852Y-98331360D01*
X156038848Y-98331365D01*
X155939352Y-98468311D01*
X155862496Y-98619146D01*
X155810181Y-98780152D01*
X155783700Y-98947350D01*
X153000000Y-98947350D01*
X153000000Y-85214000D01*
X154434500Y-85214000D01*
X154434500Y-90046000D01*
X154434501Y-90046009D01*
X154446052Y-90153450D01*
X154446054Y-90153462D01*
X154457260Y-90204972D01*
X154491383Y-90307497D01*
X154491386Y-90307503D01*
X154569171Y-90428537D01*
X154569179Y-90428548D01*
X154614923Y-90481340D01*
X154614926Y-90481343D01*
X154614930Y-90481347D01*
X154723664Y-90575567D01*
X154723667Y-90575568D01*
X154723668Y-90575569D01*
X154831039Y-90624605D01*
X154854541Y-90635338D01*
X154921580Y-90655023D01*
X154921584Y-90655024D01*
X155064000Y-90675500D01*
X155458500Y-90675500D01*
X155525539Y-90695185D01*
X155571294Y-90747989D01*
X155582500Y-90799500D01*
X155582500Y-91124197D01*
X155582500Y-93787803D01*
X155582500Y-93787805D01*
X155582499Y-93787805D01*
X155606613Y-93909029D01*
X155606616Y-93909039D01*
X155653913Y-94023226D01*
X155653920Y-94023239D01*
X155722588Y-94126007D01*
X155722591Y-94126011D01*
X155809988Y-94213408D01*
X155809992Y-94213411D01*
X155912760Y-94282079D01*
X155912773Y-94282086D01*
X156012120Y-94323236D01*
X156026965Y-94329385D01*
X156026969Y-94329385D01*
X156026970Y-94329386D01*
X156148194Y-94353500D01*
X156148197Y-94353500D01*
X156271803Y-94353500D01*
X160978719Y-94353500D01*
X161045758Y-94373185D01*
X161066400Y-94389819D01*
X166898589Y-100222008D01*
X166985992Y-100309411D01*
X166985994Y-100309413D01*
X166985996Y-100309414D01*
X167041570Y-100346547D01*
X167088767Y-100378083D01*
X167122215Y-100391937D01*
X167202965Y-100425386D01*
X167324192Y-100449499D01*
X167324196Y-100449500D01*
X167324197Y-100449500D01*
X177353804Y-100449500D01*
X177353805Y-100449499D01*
X177475035Y-100425386D01*
X177555784Y-100391937D01*
X177589233Y-100378083D01*
X177692008Y-100309411D01*
X177779411Y-100222008D01*
X179092021Y-98909396D01*
X179153342Y-98875913D01*
X179223033Y-98880897D01*
X179278967Y-98922768D01*
X179303384Y-98988233D01*
X179303700Y-98997079D01*
X179303700Y-100036870D01*
X179303701Y-100036876D01*
X179310108Y-100096483D01*
X179360402Y-100231328D01*
X179360406Y-100231335D01*
X179446652Y-100346544D01*
X179446655Y-100346547D01*
X179561864Y-100432793D01*
X179561871Y-100432797D01*
X179696717Y-100483091D01*
X179696716Y-100483091D01*
X179703644Y-100483835D01*
X179756327Y-100489500D01*
X181202072Y-100489499D01*
X181261683Y-100483091D01*
X181396531Y-100432796D01*
X181511746Y-100346546D01*
X181575441Y-100261459D01*
X181631374Y-100219590D01*
X181701066Y-100214606D01*
X181747592Y-100235453D01*
X181863104Y-100319378D01*
X181916424Y-100346546D01*
X182027964Y-100403379D01*
X182027967Y-100403380D01*
X182095690Y-100425384D01*
X182203936Y-100460555D01*
X182386686Y-100489500D01*
X182386687Y-100489500D01*
X182571713Y-100489500D01*
X182571714Y-100489500D01*
X182754464Y-100460555D01*
X182930435Y-100403379D01*
X183095296Y-100319378D01*
X183244987Y-100210621D01*
X183375821Y-100079787D01*
X183378880Y-100075576D01*
X183434206Y-100032909D01*
X183503819Y-100026926D01*
X183565615Y-100059529D01*
X183579515Y-100075570D01*
X183582579Y-100079787D01*
X183713413Y-100210621D01*
X183863104Y-100319378D01*
X183916424Y-100346546D01*
X184027964Y-100403379D01*
X184027967Y-100403380D01*
X184095690Y-100425384D01*
X184203936Y-100460555D01*
X184386686Y-100489500D01*
X184386687Y-100489500D01*
X184571713Y-100489500D01*
X184571714Y-100489500D01*
X184754464Y-100460555D01*
X184930435Y-100403379D01*
X185095296Y-100319378D01*
X185244987Y-100210621D01*
X185375821Y-100079787D01*
X185444504Y-99985252D01*
X185462523Y-99971356D01*
X185477355Y-99954098D01*
X185493305Y-99947619D01*
X185499831Y-99942587D01*
X185509400Y-99939305D01*
X185514951Y-99937650D01*
X185616829Y-99917386D01*
X185697904Y-99883803D01*
X185731027Y-99870083D01*
X185833802Y-99801411D01*
X185921205Y-99714008D01*
X189153219Y-96481995D01*
X195599500Y-96481995D01*
X195599500Y-96718004D01*
X195599501Y-96718020D01*
X195630306Y-96952010D01*
X195691394Y-97179993D01*
X195781714Y-97398045D01*
X195781716Y-97398050D01*
X195812051Y-97450591D01*
X195899727Y-97602450D01*
X195899729Y-97602453D01*
X195899730Y-97602454D01*
X196043406Y-97789697D01*
X196043412Y-97789704D01*
X196210295Y-97956587D01*
X196210302Y-97956593D01*
X196244692Y-97982981D01*
X196397550Y-98100273D01*
X196528918Y-98176118D01*
X196601943Y-98218280D01*
X196601948Y-98218282D01*
X196601951Y-98218284D01*
X196820007Y-98308606D01*
X197047986Y-98369693D01*
X197281989Y-98400500D01*
X197281996Y-98400500D01*
X197518004Y-98400500D01*
X197518011Y-98400500D01*
X197752014Y-98369693D01*
X197979993Y-98308606D01*
X198198049Y-98218284D01*
X198402450Y-98100273D01*
X198589699Y-97956592D01*
X198756592Y-97789699D01*
X198900273Y-97602450D01*
X198988240Y-97450085D01*
X199018284Y-97398050D01*
X199018284Y-97398048D01*
X199108606Y-97179993D01*
X199169693Y-96952014D01*
X199200500Y-96718011D01*
X199200500Y-96481989D01*
X199169693Y-96247986D01*
X199108606Y-96020007D01*
X199018284Y-95801951D01*
X199018282Y-95801948D01*
X199018280Y-95801943D01*
X198954021Y-95690645D01*
X198900273Y-95597550D01*
X198756592Y-95410301D01*
X198756587Y-95410295D01*
X198589704Y-95243412D01*
X198589697Y-95243406D01*
X198402454Y-95099730D01*
X198402453Y-95099729D01*
X198402450Y-95099727D01*
X198320957Y-95052677D01*
X198198056Y-94981719D01*
X198198045Y-94981714D01*
X197979993Y-94891394D01*
X197829894Y-94851175D01*
X197752014Y-94830307D01*
X197752013Y-94830306D01*
X197752010Y-94830306D01*
X197518020Y-94799501D01*
X197518017Y-94799500D01*
X197518011Y-94799500D01*
X197281989Y-94799500D01*
X197281983Y-94799500D01*
X197281979Y-94799501D01*
X197047989Y-94830306D01*
X196820006Y-94891394D01*
X196601954Y-94981714D01*
X196601943Y-94981719D01*
X196397545Y-95099730D01*
X196210302Y-95243406D01*
X196210295Y-95243412D01*
X196043412Y-95410295D01*
X196043406Y-95410302D01*
X195899730Y-95597545D01*
X195781719Y-95801943D01*
X195781714Y-95801954D01*
X195691394Y-96020006D01*
X195630306Y-96247989D01*
X195599501Y-96481979D01*
X195599500Y-96481995D01*
X189153219Y-96481995D01*
X189244965Y-96390249D01*
X190733406Y-94901807D01*
X190733409Y-94901804D01*
X190733411Y-94901802D01*
X190767239Y-94851175D01*
X190781182Y-94830308D01*
X190789553Y-94817778D01*
X190802083Y-94799027D01*
X190842620Y-94701162D01*
X190849386Y-94684829D01*
X190873500Y-94563597D01*
X190873500Y-94439991D01*
X190873500Y-91497281D01*
X190893185Y-91430242D01*
X190909819Y-91409600D01*
X191643920Y-90675499D01*
X192381583Y-89937835D01*
X192442904Y-89904352D01*
X192512596Y-89909336D01*
X192568529Y-89951208D01*
X192592946Y-90016672D01*
X192578094Y-90084945D01*
X192572369Y-90094401D01*
X192571333Y-90095950D01*
X192571323Y-90095969D01*
X192510985Y-90241640D01*
X192510982Y-90241652D01*
X192480221Y-90396295D01*
X192480221Y-90553988D01*
X192510982Y-90708631D01*
X192510985Y-90708643D01*
X192571323Y-90854314D01*
X192571330Y-90854327D01*
X192658931Y-90985430D01*
X192658934Y-90985434D01*
X192770428Y-91096928D01*
X192770432Y-91096931D01*
X192901535Y-91184532D01*
X192901548Y-91184539D01*
X193035510Y-91240027D01*
X193047224Y-91244879D01*
X193181810Y-91271650D01*
X193201874Y-91275641D01*
X193201877Y-91275642D01*
X193201879Y-91275642D01*
X193359565Y-91275642D01*
X193359566Y-91275641D01*
X193514218Y-91244879D01*
X193659900Y-91184536D01*
X193791010Y-91096931D01*
X193902510Y-90985431D01*
X193990115Y-90854321D01*
X194021236Y-90779187D01*
X194065075Y-90724786D01*
X194131369Y-90702721D01*
X194135796Y-90702642D01*
X197060347Y-90702642D01*
X197127386Y-90722327D01*
X197148028Y-90738961D01*
X198522903Y-92113836D01*
X198556388Y-92175159D01*
X198551404Y-92244851D01*
X198549784Y-92248968D01*
X198518663Y-92324103D01*
X198518661Y-92324110D01*
X198487900Y-92478753D01*
X198487900Y-92636446D01*
X198518661Y-92791089D01*
X198518664Y-92791101D01*
X198579002Y-92936772D01*
X198579009Y-92936785D01*
X198666610Y-93067888D01*
X198666613Y-93067892D01*
X198778107Y-93179386D01*
X198778111Y-93179389D01*
X198909214Y-93266990D01*
X198909227Y-93266997D01*
X199031992Y-93317847D01*
X199054903Y-93327337D01*
X199209553Y-93358099D01*
X199209556Y-93358100D01*
X199209558Y-93358100D01*
X199367244Y-93358100D01*
X199367245Y-93358099D01*
X199521897Y-93327337D01*
X199649610Y-93274437D01*
X199667572Y-93266997D01*
X199667572Y-93266996D01*
X199667579Y-93266994D01*
X199798689Y-93179389D01*
X199910189Y-93067889D01*
X199997794Y-92936779D01*
X200058137Y-92791097D01*
X200088900Y-92636442D01*
X200088900Y-92478758D01*
X200088900Y-92478755D01*
X200088899Y-92478753D01*
X200064277Y-92354973D01*
X200058137Y-92324103D01*
X200041372Y-92283628D01*
X199997797Y-92178427D01*
X199997790Y-92178414D01*
X199910189Y-92047311D01*
X199910186Y-92047307D01*
X199798692Y-91935813D01*
X199798688Y-91935810D01*
X199667585Y-91848209D01*
X199667572Y-91848202D01*
X199521901Y-91787864D01*
X199521889Y-91787861D01*
X199367245Y-91757100D01*
X199367242Y-91757100D01*
X199209558Y-91757100D01*
X199209555Y-91757100D01*
X199054910Y-91787861D01*
X199054903Y-91787863D01*
X198979768Y-91818984D01*
X198910299Y-91826451D01*
X198847820Y-91795176D01*
X198844636Y-91792103D01*
X197334812Y-90282278D01*
X197251195Y-90247642D01*
X194135796Y-90247642D01*
X194068757Y-90227957D01*
X194023002Y-90175153D01*
X194021255Y-90171142D01*
X193990115Y-90095963D01*
X193990113Y-90095960D01*
X193990111Y-90095956D01*
X193902510Y-89964853D01*
X193902507Y-89964849D01*
X193791013Y-89853355D01*
X193791009Y-89853352D01*
X193659906Y-89765751D01*
X193659893Y-89765744D01*
X193514222Y-89705406D01*
X193514210Y-89705403D01*
X193359566Y-89674642D01*
X193359563Y-89674642D01*
X193201879Y-89674642D01*
X193201876Y-89674642D01*
X193047231Y-89705403D01*
X193047219Y-89705406D01*
X192901548Y-89765744D01*
X192901529Y-89765754D01*
X192899980Y-89766790D01*
X192899045Y-89767082D01*
X192896167Y-89768621D01*
X192895875Y-89768074D01*
X192833302Y-89787663D01*
X192765923Y-89769174D01*
X192719236Y-89717192D01*
X192708065Y-89648221D01*
X192735955Y-89584159D01*
X192743405Y-89576013D01*
X194655600Y-87663819D01*
X194716923Y-87630334D01*
X194743281Y-87627500D01*
X200281990Y-87627500D01*
X200282000Y-87627500D01*
X200389456Y-87615947D01*
X200440967Y-87604741D01*
X200475197Y-87593347D01*
X200543497Y-87570616D01*
X200543501Y-87570613D01*
X200543504Y-87570613D01*
X200664543Y-87492825D01*
X200717347Y-87447070D01*
X200811567Y-87338336D01*
X200871338Y-87207459D01*
X200891023Y-87140420D01*
X200891024Y-87140416D01*
X200911500Y-86998000D01*
X200911500Y-83944000D01*
X200899947Y-83836544D01*
X200888741Y-83785033D01*
X200888637Y-83784722D01*
X200854616Y-83682502D01*
X200854613Y-83682496D01*
X200776828Y-83561462D01*
X200776825Y-83561457D01*
X200764664Y-83547422D01*
X200731076Y-83508659D01*
X200731072Y-83508656D01*
X200731070Y-83508653D01*
X200622336Y-83414433D01*
X200622333Y-83414431D01*
X200622331Y-83414430D01*
X200491465Y-83354664D01*
X200491460Y-83354662D01*
X200491459Y-83354662D01*
X200424420Y-83334977D01*
X200424422Y-83334977D01*
X200424417Y-83334976D01*
X200352359Y-83324616D01*
X200282000Y-83314500D01*
X194434000Y-83314500D01*
X194433991Y-83314500D01*
X194433990Y-83314501D01*
X194326549Y-83326052D01*
X194326537Y-83326054D01*
X194275027Y-83337260D01*
X194172502Y-83371383D01*
X194172496Y-83371386D01*
X194051462Y-83449171D01*
X194051451Y-83449179D01*
X193998659Y-83494923D01*
X193904433Y-83603664D01*
X193904430Y-83603668D01*
X193844664Y-83734534D01*
X193824976Y-83801582D01*
X193819949Y-83836549D01*
X193804502Y-83943990D01*
X193804500Y-83944001D01*
X193804500Y-86688719D01*
X193784815Y-86755758D01*
X193768181Y-86776400D01*
X189845992Y-90698589D01*
X189824136Y-90720445D01*
X189758586Y-90785994D01*
X189758585Y-90785996D01*
X189689233Y-90889789D01*
X189687586Y-90894393D01*
X189642614Y-91002964D01*
X189642612Y-91002972D01*
X189618500Y-91124192D01*
X189618500Y-91188101D01*
X189598815Y-91255140D01*
X189546011Y-91300895D01*
X189476853Y-91310839D01*
X189413297Y-91281814D01*
X189384583Y-91238802D01*
X189381958Y-91240027D01*
X189378909Y-91233488D01*
X189378908Y-91233484D01*
X189288340Y-91086650D01*
X189166350Y-90964660D01*
X189043308Y-90888767D01*
X189019518Y-90874093D01*
X189019513Y-90874091D01*
X189018069Y-90873612D01*
X188855753Y-90819826D01*
X188855751Y-90819825D01*
X188754678Y-90809500D01*
X188181330Y-90809500D01*
X188181312Y-90809501D01*
X188080247Y-90819825D01*
X187916484Y-90874092D01*
X187916481Y-90874093D01*
X187769650Y-90964659D01*
X187719306Y-91015003D01*
X187657982Y-91048487D01*
X187596749Y-91044106D01*
X187596190Y-91046032D01*
X187430873Y-90998002D01*
X187430867Y-90998001D01*
X187394001Y-90995100D01*
X187393994Y-90995100D01*
X186087606Y-90995100D01*
X186087598Y-90995100D01*
X186050732Y-90998001D01*
X186050726Y-90998002D01*
X185932861Y-91032246D01*
X185862992Y-91032047D01*
X185810585Y-91000851D01*
X177166870Y-82357136D01*
X177083253Y-82322500D01*
X170579596Y-82322500D01*
X170512557Y-82302815D01*
X170491915Y-82286181D01*
X169681819Y-81476085D01*
X169648334Y-81414762D01*
X169645500Y-81388404D01*
X169645500Y-74236636D01*
X169654739Y-74205168D01*
X169662859Y-74173360D01*
X169664539Y-74171795D01*
X169665185Y-74169597D01*
X169689966Y-74148123D01*
X169713998Y-74125751D01*
X169716255Y-74125343D01*
X169717989Y-74123842D01*
X169750465Y-74119172D01*
X169782757Y-74113347D01*
X169785719Y-74114103D01*
X169787147Y-74113898D01*
X169816948Y-74122074D01*
X169831834Y-74128239D01*
X169886236Y-74172081D01*
X169904152Y-74210704D01*
X169921408Y-74275104D01*
X169921411Y-74275111D01*
X169957944Y-74338389D01*
X171481942Y-75862386D01*
X171481944Y-75862389D01*
X171495567Y-75876012D01*
X171516997Y-75915261D01*
X171529047Y-75937328D01*
X171529046Y-75937330D01*
X171529049Y-75937334D01*
X171526072Y-75978945D01*
X171524065Y-76007019D01*
X171524063Y-76007021D01*
X171524063Y-76007026D01*
X171501249Y-76037500D01*
X171482195Y-76062954D01*
X171482190Y-76062957D01*
X171482190Y-76062958D01*
X171482188Y-76062958D01*
X171476775Y-76066790D01*
X171447709Y-76086211D01*
X171336213Y-76197707D01*
X171336210Y-76197711D01*
X171248609Y-76328814D01*
X171248602Y-76328827D01*
X171188264Y-76474498D01*
X171188261Y-76474510D01*
X171157500Y-76629153D01*
X171157500Y-76786846D01*
X171188261Y-76941489D01*
X171188264Y-76941501D01*
X171248602Y-77087172D01*
X171248609Y-77087185D01*
X171336210Y-77218288D01*
X171336213Y-77218292D01*
X171447707Y-77329786D01*
X171447711Y-77329789D01*
X171578814Y-77417390D01*
X171578827Y-77417397D01*
X171724498Y-77477735D01*
X171724503Y-77477737D01*
X171879153Y-77508499D01*
X171879156Y-77508500D01*
X171879158Y-77508500D01*
X172036844Y-77508500D01*
X172036845Y-77508499D01*
X172191497Y-77477737D01*
X172337179Y-77417394D01*
X172364290Y-77399278D01*
X172430966Y-77378399D01*
X172498347Y-77396882D01*
X172536286Y-77433489D01*
X172562212Y-77472291D01*
X172673707Y-77583786D01*
X172673711Y-77583789D01*
X172804814Y-77671390D01*
X172804827Y-77671397D01*
X172950498Y-77731735D01*
X172950503Y-77731737D01*
X173083978Y-77758287D01*
X173105153Y-77762499D01*
X173105156Y-77762500D01*
X173105158Y-77762500D01*
X173262844Y-77762500D01*
X173262845Y-77762499D01*
X173417497Y-77731737D01*
X173563179Y-77671394D01*
X173694289Y-77583789D01*
X173805789Y-77472289D01*
X173893394Y-77341179D01*
X173893395Y-77341176D01*
X173893397Y-77341173D01*
X173914159Y-77291048D01*
X173957999Y-77236644D01*
X174024293Y-77214579D01*
X174028720Y-77214500D01*
X182676223Y-77214500D01*
X182676225Y-77214500D01*
X182676226Y-77214499D01*
X182688204Y-77212117D01*
X182688776Y-77214996D01*
X182739658Y-77209516D01*
X182802143Y-77240778D01*
X182837808Y-77300859D01*
X182835328Y-77370685D01*
X182805347Y-77419231D01*
X181386400Y-78838181D01*
X181325077Y-78871666D01*
X181298719Y-78874500D01*
X171481357Y-78874500D01*
X171414318Y-78854815D01*
X171412466Y-78853602D01*
X171321185Y-78792609D01*
X171321172Y-78792602D01*
X171175501Y-78732264D01*
X171175489Y-78732261D01*
X171020845Y-78701500D01*
X171020842Y-78701500D01*
X170863158Y-78701500D01*
X170863155Y-78701500D01*
X170708510Y-78732261D01*
X170708498Y-78732264D01*
X170562827Y-78792602D01*
X170562814Y-78792609D01*
X170431711Y-78880210D01*
X170431707Y-78880213D01*
X170320213Y-78991707D01*
X170320210Y-78991711D01*
X170232609Y-79122814D01*
X170232602Y-79122827D01*
X170172264Y-79268498D01*
X170172261Y-79268510D01*
X170141500Y-79423153D01*
X170141500Y-79580846D01*
X170172261Y-79735489D01*
X170172263Y-79735497D01*
X170204013Y-79812150D01*
X170213705Y-79835547D01*
X170221174Y-79905017D01*
X170213705Y-79930453D01*
X170172263Y-80030502D01*
X170172261Y-80030510D01*
X170141500Y-80185153D01*
X170141500Y-80342846D01*
X170172261Y-80497489D01*
X170172263Y-80497497D01*
X170213705Y-80597547D01*
X170221174Y-80667017D01*
X170213705Y-80692453D01*
X170172263Y-80792502D01*
X170172261Y-80792510D01*
X170141500Y-80947153D01*
X170141500Y-81104846D01*
X170172261Y-81259489D01*
X170172264Y-81259501D01*
X170232602Y-81405172D01*
X170232609Y-81405185D01*
X170320210Y-81536288D01*
X170320213Y-81536292D01*
X170431707Y-81647786D01*
X170431711Y-81647789D01*
X170562814Y-81735390D01*
X170562827Y-81735397D01*
X170708498Y-81795735D01*
X170708503Y-81795737D01*
X170863153Y-81826499D01*
X170863156Y-81826500D01*
X170863158Y-81826500D01*
X171020844Y-81826500D01*
X171020845Y-81826499D01*
X171175497Y-81795737D01*
X171321179Y-81735394D01*
X171452289Y-81647789D01*
X171563789Y-81536289D01*
X171651394Y-81405179D01*
X171711737Y-81259497D01*
X171742500Y-81104842D01*
X171742500Y-80947158D01*
X171742500Y-80947155D01*
X171742499Y-80947153D01*
X171711738Y-80792510D01*
X171711737Y-80792503D01*
X171670294Y-80692452D01*
X171662826Y-80622983D01*
X171670295Y-80597547D01*
X171711737Y-80497497D01*
X171742500Y-80342842D01*
X171742500Y-80253500D01*
X171762185Y-80186461D01*
X171814989Y-80140706D01*
X171866500Y-80129500D01*
X181671804Y-80129500D01*
X181671805Y-80129499D01*
X181793035Y-80105386D01*
X181873784Y-80071937D01*
X181907233Y-80058083D01*
X182010008Y-79989411D01*
X182097411Y-79902008D01*
X182155970Y-79843449D01*
X182155982Y-79843435D01*
X184373601Y-77625819D01*
X184434924Y-77592334D01*
X184461282Y-77589500D01*
X185134643Y-77589500D01*
X185201682Y-77609185D01*
X185203534Y-77610398D01*
X185294814Y-77671390D01*
X185294827Y-77671397D01*
X185440498Y-77731735D01*
X185440503Y-77731737D01*
X185573978Y-77758287D01*
X185595153Y-77762499D01*
X185595156Y-77762500D01*
X185595158Y-77762500D01*
X185752844Y-77762500D01*
X185752845Y-77762499D01*
X185907497Y-77731737D01*
X186007547Y-77690294D01*
X186077017Y-77682826D01*
X186102450Y-77690294D01*
X186202503Y-77731737D01*
X186335978Y-77758287D01*
X186357153Y-77762499D01*
X186357156Y-77762500D01*
X186357158Y-77762500D01*
X186514844Y-77762500D01*
X186514845Y-77762499D01*
X186669497Y-77731737D01*
X186769547Y-77690294D01*
X186839017Y-77682826D01*
X186864450Y-77690294D01*
X186964503Y-77731737D01*
X187097978Y-77758287D01*
X187119153Y-77762499D01*
X187119156Y-77762500D01*
X187119158Y-77762500D01*
X187276844Y-77762500D01*
X187276845Y-77762499D01*
X187431497Y-77731737D01*
X187577179Y-77671394D01*
X187708289Y-77583789D01*
X187819789Y-77472289D01*
X187907394Y-77341179D01*
X187967737Y-77195497D01*
X187998500Y-77040842D01*
X187998500Y-76883158D01*
X187998500Y-76883155D01*
X187998499Y-76883153D01*
X187967738Y-76728510D01*
X187967737Y-76728503D01*
X187951712Y-76689815D01*
X187907397Y-76582827D01*
X187907390Y-76582814D01*
X187819789Y-76451711D01*
X187819786Y-76451707D01*
X187708292Y-76340213D01*
X187708288Y-76340210D01*
X187577185Y-76252609D01*
X187577172Y-76252602D01*
X187431501Y-76192264D01*
X187431489Y-76192261D01*
X187276845Y-76161500D01*
X187276842Y-76161500D01*
X187119158Y-76161500D01*
X187119155Y-76161500D01*
X186964510Y-76192261D01*
X186964502Y-76192263D01*
X186941087Y-76201962D01*
X186864452Y-76233705D01*
X186794983Y-76241174D01*
X186769549Y-76233705D01*
X186669497Y-76192263D01*
X186669489Y-76192261D01*
X186514845Y-76161500D01*
X186514842Y-76161500D01*
X186357158Y-76161500D01*
X186357155Y-76161500D01*
X186202510Y-76192261D01*
X186202502Y-76192263D01*
X186179087Y-76201962D01*
X186102452Y-76233705D01*
X186032983Y-76241174D01*
X186007549Y-76233705D01*
X185907497Y-76192263D01*
X185907489Y-76192261D01*
X185752845Y-76161500D01*
X185752842Y-76161500D01*
X185595158Y-76161500D01*
X185595155Y-76161500D01*
X185440510Y-76192261D01*
X185440498Y-76192264D01*
X185294827Y-76252602D01*
X185294814Y-76252609D01*
X185203534Y-76313602D01*
X185136857Y-76334480D01*
X185134643Y-76334500D01*
X184088194Y-76334500D01*
X183966970Y-76358613D01*
X183966960Y-76358616D01*
X183893361Y-76389102D01*
X183823892Y-76396571D01*
X183761413Y-76365295D01*
X183725761Y-76305206D01*
X183728255Y-76235381D01*
X183758226Y-76186862D01*
X187795238Y-72149849D01*
X187856559Y-72116366D01*
X187926251Y-72121350D01*
X187930366Y-72122970D01*
X187980503Y-72143737D01*
X187980506Y-72143737D01*
X187980511Y-72143739D01*
X188135153Y-72174499D01*
X188135156Y-72174500D01*
X188135158Y-72174500D01*
X188292844Y-72174500D01*
X188292845Y-72174499D01*
X188447497Y-72143737D01*
X188591332Y-72084159D01*
X188593172Y-72083397D01*
X188593172Y-72083396D01*
X188593179Y-72083394D01*
X188724289Y-71995789D01*
X188835789Y-71884289D01*
X188923394Y-71753179D01*
X188983737Y-71607497D01*
X189014500Y-71452842D01*
X189014500Y-71295158D01*
X189014500Y-71295155D01*
X189014499Y-71295153D01*
X188989371Y-71168826D01*
X188983737Y-71140503D01*
X188983735Y-71140498D01*
X188923397Y-70994827D01*
X188923390Y-70994814D01*
X188835789Y-70863711D01*
X188835786Y-70863707D01*
X188819260Y-70847181D01*
X188785775Y-70785858D01*
X188790759Y-70716166D01*
X188832631Y-70660233D01*
X188898095Y-70635816D01*
X188906941Y-70635500D01*
X189439854Y-70635500D01*
X189439870Y-70635501D01*
X189447466Y-70635501D01*
X189520533Y-70635501D01*
X189520534Y-70635501D01*
X189591111Y-70616589D01*
X189654389Y-70580056D01*
X191630238Y-68604204D01*
X191691559Y-68570721D01*
X191761250Y-68575705D01*
X191765321Y-68577306D01*
X191790503Y-68587737D01*
X191945153Y-68618499D01*
X191945156Y-68618500D01*
X191945158Y-68618500D01*
X192102844Y-68618500D01*
X192102845Y-68618499D01*
X192257497Y-68587737D01*
X192391835Y-68532093D01*
X192403172Y-68527397D01*
X192403172Y-68527396D01*
X192403179Y-68527394D01*
X192534289Y-68439789D01*
X192645789Y-68328289D01*
X192733394Y-68197179D01*
X192735845Y-68191263D01*
X192751456Y-68153574D01*
X192793737Y-68051497D01*
X192824500Y-67896842D01*
X192824500Y-67739158D01*
X192824500Y-67739155D01*
X192824499Y-67739153D01*
X192797317Y-67602500D01*
X192793737Y-67584503D01*
X192763456Y-67511397D01*
X192733397Y-67438827D01*
X192733390Y-67438814D01*
X192645789Y-67307711D01*
X192645786Y-67307707D01*
X192534292Y-67196213D01*
X192534288Y-67196210D01*
X192403185Y-67108609D01*
X192403172Y-67108602D01*
X192257501Y-67048264D01*
X192257489Y-67048261D01*
X192102845Y-67017500D01*
X192102842Y-67017500D01*
X191945158Y-67017500D01*
X191945155Y-67017500D01*
X191790510Y-67048261D01*
X191790498Y-67048264D01*
X191644827Y-67108602D01*
X191644814Y-67108609D01*
X191513711Y-67196210D01*
X191513707Y-67196213D01*
X191402213Y-67307707D01*
X191402210Y-67307711D01*
X191314609Y-67438814D01*
X191314602Y-67438827D01*
X191254264Y-67584498D01*
X191254261Y-67584510D01*
X191223500Y-67739153D01*
X191223500Y-67896846D01*
X191254260Y-68051488D01*
X191254262Y-68051493D01*
X191254263Y-68051497D01*
X191254265Y-68051501D01*
X191264674Y-68076632D01*
X191272140Y-68146102D01*
X191240863Y-68208580D01*
X191237792Y-68211762D01*
X189405374Y-70044181D01*
X189344051Y-70077666D01*
X189317693Y-70080500D01*
X184367466Y-70080500D01*
X184296889Y-70099411D01*
X184296888Y-70099411D01*
X184233611Y-70135943D01*
X184233609Y-70135945D01*
X178991374Y-75378181D01*
X178930051Y-75411666D01*
X178903693Y-75414500D01*
X171870306Y-75414500D01*
X171803267Y-75394815D01*
X171782625Y-75378181D01*
X170642436Y-74237991D01*
X170608951Y-74176668D01*
X170613935Y-74106976D01*
X170655807Y-74051043D01*
X170661228Y-74047207D01*
X170664226Y-74045203D01*
X170690289Y-74027789D01*
X170801789Y-73916289D01*
X170889394Y-73785179D01*
X170949737Y-73639497D01*
X170980500Y-73484842D01*
X170980500Y-73327158D01*
X170980500Y-73327155D01*
X170980499Y-73327153D01*
X170953317Y-73190500D01*
X170949737Y-73172503D01*
X170947089Y-73166109D01*
X170889397Y-73026827D01*
X170889390Y-73026814D01*
X170801789Y-72895711D01*
X170801786Y-72895707D01*
X170690292Y-72784213D01*
X170690288Y-72784210D01*
X170559185Y-72696609D01*
X170559172Y-72696602D01*
X170413501Y-72636264D01*
X170413489Y-72636261D01*
X170258845Y-72605500D01*
X170258842Y-72605500D01*
X170101158Y-72605500D01*
X170101155Y-72605500D01*
X169946510Y-72636261D01*
X169946507Y-72636262D01*
X169946506Y-72636262D01*
X169946503Y-72636263D01*
X169874431Y-72666116D01*
X169816952Y-72689924D01*
X169747482Y-72697392D01*
X169685003Y-72666116D01*
X169649351Y-72606027D01*
X169645500Y-72575362D01*
X169645500Y-69314385D01*
X169645499Y-69314382D01*
X169618687Y-69249653D01*
X169615158Y-69241132D01*
X169610866Y-69230769D01*
X169324004Y-68943907D01*
X169290519Y-68882584D01*
X169295503Y-68812892D01*
X169308578Y-68787342D01*
X169352068Y-68722257D01*
X169412411Y-68576575D01*
X169443174Y-68421920D01*
X169443174Y-68264236D01*
X169443174Y-68264233D01*
X169443173Y-68264231D01*
X169432103Y-68208580D01*
X169412411Y-68109581D01*
X169388352Y-68051497D01*
X169352071Y-67963905D01*
X169352064Y-67963892D01*
X169264463Y-67832789D01*
X169264460Y-67832785D01*
X169152966Y-67721291D01*
X169152962Y-67721288D01*
X169021859Y-67633687D01*
X169021846Y-67633680D01*
X168876175Y-67573342D01*
X168876165Y-67573339D01*
X168786540Y-67555511D01*
X168724629Y-67523125D01*
X168690055Y-67462409D01*
X168689115Y-67458085D01*
X168663738Y-67330510D01*
X168663737Y-67330503D01*
X168654295Y-67307707D01*
X168603397Y-67184827D01*
X168603390Y-67184814D01*
X168515789Y-67053711D01*
X168515786Y-67053707D01*
X168474260Y-67012181D01*
X168463647Y-66992744D01*
X168449147Y-66976011D01*
X168447230Y-66962679D01*
X168440775Y-66950858D01*
X168442354Y-66928771D01*
X168439203Y-66906853D01*
X168444798Y-66894601D01*
X168445759Y-66881166D01*
X168459029Y-66863439D01*
X168468228Y-66843297D01*
X168479559Y-66836014D01*
X168487631Y-66825233D01*
X168508376Y-66817495D01*
X168527006Y-66805523D01*
X168548924Y-66802371D01*
X168553095Y-66800816D01*
X168561941Y-66800500D01*
X168736412Y-66800500D01*
X168803451Y-66820185D01*
X168824093Y-66836819D01*
X171865390Y-69878116D01*
X171898875Y-69939439D01*
X171893891Y-70009131D01*
X171892271Y-70013247D01*
X171871507Y-70063377D01*
X171871504Y-70063385D01*
X171840743Y-70218033D01*
X171840743Y-70375726D01*
X171871504Y-70530369D01*
X171871507Y-70530381D01*
X171931845Y-70676052D01*
X171931852Y-70676065D01*
X172019453Y-70807168D01*
X172019456Y-70807172D01*
X172130950Y-70918666D01*
X172130954Y-70918669D01*
X172262057Y-71006270D01*
X172262070Y-71006277D01*
X172407741Y-71066615D01*
X172407746Y-71066617D01*
X172562396Y-71097379D01*
X172562399Y-71097380D01*
X172562401Y-71097380D01*
X172720087Y-71097380D01*
X172720088Y-71097379D01*
X172874740Y-71066617D01*
X173020422Y-71006274D01*
X173151532Y-70918669D01*
X173263032Y-70807169D01*
X173350637Y-70676059D01*
X173410980Y-70530377D01*
X173441743Y-70375722D01*
X173441743Y-70218038D01*
X173441743Y-70218035D01*
X173441742Y-70218033D01*
X173427992Y-70148906D01*
X173410980Y-70063383D01*
X173388508Y-70009131D01*
X173350640Y-69917707D01*
X173350633Y-69917694D01*
X173263032Y-69786591D01*
X173263029Y-69786587D01*
X173151535Y-69675093D01*
X173151531Y-69675090D01*
X173020428Y-69587489D01*
X173020415Y-69587482D01*
X172874744Y-69527144D01*
X172874734Y-69527141D01*
X172800827Y-69512440D01*
X172738916Y-69480055D01*
X172704342Y-69419339D01*
X172708083Y-69349569D01*
X172748949Y-69292898D01*
X172777558Y-69276265D01*
X172893422Y-69228274D01*
X173024532Y-69140669D01*
X173136032Y-69029169D01*
X173223637Y-68898059D01*
X173283980Y-68752377D01*
X173314743Y-68597722D01*
X173314743Y-68440038D01*
X173314743Y-68440035D01*
X173314742Y-68440033D01*
X173297561Y-68353661D01*
X173283980Y-68285383D01*
X173275221Y-68264236D01*
X173223640Y-68139707D01*
X173223633Y-68139694D01*
X173136032Y-68008591D01*
X173136029Y-68008587D01*
X173024535Y-67897093D01*
X173024531Y-67897090D01*
X172893428Y-67809489D01*
X172893422Y-67809486D01*
X172843289Y-67788720D01*
X172788886Y-67744878D01*
X172766822Y-67678584D01*
X172766743Y-67674159D01*
X172766743Y-66604656D01*
X172766742Y-66604653D01*
X172739749Y-66539486D01*
X172728302Y-66511850D01*
X172657273Y-66440821D01*
X172274094Y-66057642D01*
X172240609Y-65996319D01*
X172245593Y-65926627D01*
X172247204Y-65922533D01*
X172267980Y-65872377D01*
X172298743Y-65717722D01*
X172298743Y-65560038D01*
X172298743Y-65560035D01*
X172298742Y-65560033D01*
X172284130Y-65486571D01*
X172290357Y-65416980D01*
X172333220Y-65361803D01*
X172399110Y-65338558D01*
X172405747Y-65338380D01*
X172752929Y-65338380D01*
X172819968Y-65358065D01*
X172840610Y-65374699D01*
X173251345Y-65785434D01*
X173284830Y-65846757D01*
X173279846Y-65916449D01*
X173278225Y-65920567D01*
X173220264Y-66060498D01*
X173220261Y-66060510D01*
X173189500Y-66215153D01*
X173189500Y-66372846D01*
X173220261Y-66527489D01*
X173220264Y-66527501D01*
X173280602Y-66673172D01*
X173280609Y-66673185D01*
X173368210Y-66804288D01*
X173368213Y-66804292D01*
X173479707Y-66915786D01*
X173479711Y-66915789D01*
X173610814Y-67003390D01*
X173610827Y-67003397D01*
X173724676Y-67050554D01*
X173756503Y-67063737D01*
X173911153Y-67094499D01*
X173911156Y-67094500D01*
X174002743Y-67094500D01*
X174069782Y-67114185D01*
X174115537Y-67166989D01*
X174126743Y-67218500D01*
X174126743Y-67327726D01*
X174157504Y-67482369D01*
X174157507Y-67482381D01*
X174217845Y-67628052D01*
X174217852Y-67628065D01*
X174305453Y-67759168D01*
X174305456Y-67759172D01*
X174416950Y-67870666D01*
X174416954Y-67870669D01*
X174548057Y-67958270D01*
X174548070Y-67958277D01*
X174669531Y-68008587D01*
X174693746Y-68018617D01*
X174848396Y-68049379D01*
X174848399Y-68049380D01*
X174848401Y-68049380D01*
X175006087Y-68049380D01*
X175006088Y-68049379D01*
X175160740Y-68018617D01*
X175284363Y-67967411D01*
X175306415Y-67958277D01*
X175306415Y-67958276D01*
X175306422Y-67958274D01*
X175437532Y-67870669D01*
X175549032Y-67759169D01*
X175636637Y-67628059D01*
X175696980Y-67482377D01*
X175727743Y-67327722D01*
X175727743Y-67170038D01*
X175727743Y-67170035D01*
X175727742Y-67170033D01*
X175696980Y-67015383D01*
X175695654Y-67012181D01*
X175636640Y-66869707D01*
X175636633Y-66869694D01*
X175549032Y-66738591D01*
X175549029Y-66738587D01*
X175437535Y-66627093D01*
X175437531Y-66627090D01*
X175306428Y-66539489D01*
X175306422Y-66539486D01*
X175256289Y-66518720D01*
X175201886Y-66474878D01*
X175179822Y-66408584D01*
X175179743Y-66404159D01*
X175179743Y-66292019D01*
X175179742Y-66292016D01*
X175179616Y-66291711D01*
X175141302Y-66199213D01*
X175070273Y-66128184D01*
X173244030Y-64301941D01*
X173151226Y-64263500D01*
X173151225Y-64263500D01*
X164896225Y-64263500D01*
X164795775Y-64263500D01*
X164795773Y-64263500D01*
X164702969Y-64301941D01*
X164702968Y-64301942D01*
X160243902Y-68761007D01*
X160234113Y-68766351D01*
X160227132Y-68775049D01*
X160203994Y-68782798D01*
X160182579Y-68794492D01*
X160171454Y-68793696D01*
X160160880Y-68797238D01*
X160137227Y-68791248D01*
X160112887Y-68789508D01*
X160102194Y-68782377D01*
X160093148Y-68780087D01*
X160077729Y-68766064D01*
X160065625Y-68757992D01*
X160060397Y-68752398D01*
X160034104Y-68716208D01*
X159919081Y-68601185D01*
X159917654Y-68599658D01*
X159902859Y-68570240D01*
X159887084Y-68541350D01*
X159887239Y-68539180D01*
X159886262Y-68537238D01*
X159889719Y-68504502D01*
X159892068Y-68471658D01*
X159893371Y-68469916D01*
X159893600Y-68467755D01*
X159914204Y-68442087D01*
X159933940Y-68415725D01*
X159936481Y-68414337D01*
X159937339Y-68413269D01*
X159940180Y-68412317D01*
X159964915Y-68398810D01*
X160096331Y-68349796D01*
X160211546Y-68263546D01*
X160297796Y-68148331D01*
X160348091Y-68013483D01*
X160354500Y-67953873D01*
X160354499Y-66158128D01*
X160348091Y-66098517D01*
X160345887Y-66092609D01*
X160297797Y-65963671D01*
X160297793Y-65963664D01*
X160211547Y-65848455D01*
X160211544Y-65848452D01*
X160096335Y-65762206D01*
X160096328Y-65762202D01*
X159961482Y-65711908D01*
X159961483Y-65711908D01*
X159901883Y-65705501D01*
X159901881Y-65705500D01*
X159901873Y-65705500D01*
X159901864Y-65705500D01*
X158106129Y-65705500D01*
X158106123Y-65705501D01*
X158046516Y-65711908D01*
X157911671Y-65762202D01*
X157911664Y-65762206D01*
X157796455Y-65848452D01*
X157796452Y-65848455D01*
X157710206Y-65963664D01*
X157710202Y-65963671D01*
X157659908Y-66098517D01*
X157653501Y-66158116D01*
X157653501Y-66158123D01*
X157653500Y-66158135D01*
X157653500Y-67953870D01*
X157653501Y-67953876D01*
X157659908Y-68013483D01*
X157710202Y-68148328D01*
X157710206Y-68148335D01*
X157796452Y-68263544D01*
X157796455Y-68263547D01*
X157911664Y-68349793D01*
X157911671Y-68349797D01*
X158043082Y-68398810D01*
X158099016Y-68440681D01*
X158123433Y-68506145D01*
X158108582Y-68574418D01*
X158087431Y-68602673D01*
X157973889Y-68716215D01*
X157848951Y-68888179D01*
X157752444Y-69077585D01*
X157686753Y-69279760D01*
X157653500Y-69489713D01*
X157653500Y-69702286D01*
X157685427Y-69903869D01*
X157686754Y-69912243D01*
X157741424Y-70080500D01*
X157752444Y-70114414D01*
X157848951Y-70303820D01*
X157973890Y-70475786D01*
X158124213Y-70626109D01*
X158296182Y-70751050D01*
X158304946Y-70755516D01*
X158355742Y-70803491D01*
X158372536Y-70871312D01*
X158349998Y-70937447D01*
X158304946Y-70976484D01*
X158296182Y-70980949D01*
X158124213Y-71105890D01*
X157973890Y-71256213D01*
X157848951Y-71428179D01*
X157752444Y-71617585D01*
X157752443Y-71617587D01*
X157752443Y-71617588D01*
X157751574Y-71620263D01*
X157686753Y-71819760D01*
X157653500Y-72029713D01*
X157653500Y-72242286D01*
X157677923Y-72396490D01*
X157686754Y-72452243D01*
X157746546Y-72636264D01*
X157752444Y-72654414D01*
X157848951Y-72843820D01*
X157973890Y-73015786D01*
X158124213Y-73166109D01*
X158296179Y-73291048D01*
X158296181Y-73291049D01*
X158296184Y-73291051D01*
X158305493Y-73295794D01*
X158356290Y-73343766D01*
X158373087Y-73411587D01*
X158350552Y-73477722D01*
X158305502Y-73516762D01*
X158296443Y-73521378D01*
X158124540Y-73646272D01*
X158124535Y-73646276D01*
X157974276Y-73796535D01*
X157974272Y-73796540D01*
X157849379Y-73968442D01*
X157752904Y-74157782D01*
X157687242Y-74359870D01*
X157687242Y-74359873D01*
X157676769Y-74426000D01*
X158570988Y-74426000D01*
X158538075Y-74483007D01*
X158504000Y-74610174D01*
X158504000Y-74741826D01*
X158538075Y-74868993D01*
X158570988Y-74926000D01*
X157676769Y-74926000D01*
X157687242Y-74992126D01*
X157687242Y-74992129D01*
X157752904Y-75194217D01*
X157849379Y-75383557D01*
X157974272Y-75555459D01*
X157974276Y-75555464D01*
X158124535Y-75705723D01*
X158124540Y-75705727D01*
X158296442Y-75830620D01*
X158485782Y-75927095D01*
X158687871Y-75992757D01*
X158754000Y-76003231D01*
X158754000Y-75109012D01*
X158811007Y-75141925D01*
X158938174Y-75176000D01*
X159069826Y-75176000D01*
X159196993Y-75141925D01*
X159254000Y-75109012D01*
X159254000Y-76003230D01*
X159320126Y-75992757D01*
X159324872Y-75991619D01*
X159325135Y-75992718D01*
X159389616Y-75990870D01*
X159449453Y-76026944D01*
X159480287Y-76089642D01*
X159472329Y-76159057D01*
X159445786Y-76198480D01*
X157974090Y-77670177D01*
X156589132Y-79055135D01*
X156525135Y-79119132D01*
X156506025Y-79165267D01*
X156490500Y-79202746D01*
X156490500Y-84373255D01*
X156506983Y-84413047D01*
X156514452Y-84482516D01*
X156483177Y-84544996D01*
X156423088Y-84580648D01*
X156392422Y-84584500D01*
X155064000Y-84584500D01*
X155063991Y-84584500D01*
X155063990Y-84584501D01*
X154956549Y-84596052D01*
X154956537Y-84596054D01*
X154905027Y-84607260D01*
X154802502Y-84641383D01*
X154802496Y-84641386D01*
X154681462Y-84719171D01*
X154681451Y-84719179D01*
X154628659Y-84764923D01*
X154534433Y-84873664D01*
X154534430Y-84873668D01*
X154474664Y-85004534D01*
X154454976Y-85071582D01*
X154449282Y-85111186D01*
X154434500Y-85214000D01*
X153000000Y-85214000D01*
X153000000Y-79248092D01*
X153019685Y-79181053D01*
X153032424Y-79164486D01*
X155536384Y-76422056D01*
X157012528Y-74805327D01*
X157073180Y-74738897D01*
X157200000Y-74600000D01*
X157200000Y-50924000D01*
X157219685Y-50856961D01*
X157272489Y-50811206D01*
X157324000Y-50800000D01*
X160983140Y-50800000D01*
X161050179Y-50819685D01*
G37*
%TD.AperFunction*%
%TA.AperFunction,Conductor*%
G36*
X174897014Y-55226511D02*
G01*
X174906045Y-55225866D01*
X174929236Y-55238529D01*
X174953996Y-55247764D01*
X174963436Y-55257204D01*
X174967368Y-55259351D01*
X174978953Y-55272720D01*
X174979266Y-55273138D01*
X175042187Y-55357190D01*
X175042455Y-55357547D01*
X175157664Y-55443793D01*
X175157671Y-55443797D01*
X175292517Y-55494091D01*
X175292516Y-55494091D01*
X175299444Y-55494835D01*
X175352127Y-55500500D01*
X176947872Y-55500499D01*
X177007483Y-55494091D01*
X177142331Y-55443796D01*
X177257546Y-55357546D01*
X177320734Y-55273136D01*
X177376667Y-55231267D01*
X177446359Y-55226283D01*
X177507682Y-55259768D01*
X177519260Y-55273130D01*
X177582454Y-55357546D01*
X177582457Y-55357548D01*
X177697664Y-55443793D01*
X177697671Y-55443797D01*
X177832517Y-55494091D01*
X177832516Y-55494091D01*
X177839444Y-55494835D01*
X177892127Y-55500500D01*
X179487872Y-55500499D01*
X179547483Y-55494091D01*
X179682331Y-55443796D01*
X179797546Y-55357546D01*
X179860734Y-55273136D01*
X179916667Y-55231267D01*
X179986359Y-55226283D01*
X180047682Y-55259768D01*
X180059260Y-55273130D01*
X180122454Y-55357546D01*
X180122457Y-55357548D01*
X180237664Y-55443793D01*
X180237671Y-55443797D01*
X180271829Y-55456537D01*
X180372517Y-55494091D01*
X180432127Y-55500500D01*
X180828500Y-55500499D01*
X180895539Y-55520183D01*
X180941294Y-55572987D01*
X180952500Y-55624499D01*
X180952500Y-56293853D01*
X180952499Y-56293871D01*
X180952499Y-56374536D01*
X180971408Y-56445104D01*
X180971411Y-56445111D01*
X181007943Y-56508388D01*
X182358393Y-57858838D01*
X182391878Y-57920161D01*
X182388418Y-57985523D01*
X182363326Y-58061245D01*
X182353000Y-58162315D01*
X182353000Y-58735669D01*
X182353001Y-58735687D01*
X182363325Y-58836752D01*
X182363326Y-58836755D01*
X182397218Y-58939032D01*
X182399620Y-59008860D01*
X182367193Y-59065717D01*
X181861461Y-59571449D01*
X181800138Y-59604934D01*
X181730446Y-59599950D01*
X181704889Y-59586870D01*
X181656428Y-59554489D01*
X181656415Y-59554482D01*
X181510744Y-59494144D01*
X181510732Y-59494141D01*
X181356088Y-59463380D01*
X181356085Y-59463380D01*
X181198401Y-59463380D01*
X181198398Y-59463380D01*
X181043753Y-59494141D01*
X181043741Y-59494144D01*
X180898070Y-59554482D01*
X180898057Y-59554489D01*
X180766954Y-59642090D01*
X180766950Y-59642093D01*
X180655456Y-59753587D01*
X180655453Y-59753591D01*
X180567852Y-59884694D01*
X180567845Y-59884707D01*
X180507506Y-60030381D01*
X180507506Y-60030382D01*
X180507506Y-60030383D01*
X180505877Y-60038571D01*
X180473493Y-60100481D01*
X180412778Y-60135056D01*
X180384260Y-60138380D01*
X178725017Y-60138380D01*
X178632213Y-60176821D01*
X178632212Y-60176822D01*
X177483370Y-61325663D01*
X177422047Y-61359148D01*
X177352355Y-61354164D01*
X177348252Y-61352550D01*
X177347561Y-61352264D01*
X177347559Y-61352263D01*
X177347557Y-61352262D01*
X177347550Y-61352260D01*
X177192907Y-61321500D01*
X177192904Y-61321500D01*
X177035220Y-61321500D01*
X177035217Y-61321500D01*
X176880572Y-61352261D01*
X176880560Y-61352264D01*
X176734889Y-61412602D01*
X176734876Y-61412609D01*
X176603773Y-61500210D01*
X176603769Y-61500213D01*
X176492275Y-61611707D01*
X176492272Y-61611711D01*
X176404671Y-61742814D01*
X176404664Y-61742827D01*
X176344326Y-61888498D01*
X176344323Y-61888507D01*
X176335364Y-61933549D01*
X176302978Y-61995459D01*
X176242262Y-62030033D01*
X176172493Y-62026292D01*
X176126066Y-61997037D01*
X171713819Y-57584790D01*
X171699115Y-57557862D01*
X171682523Y-57532044D01*
X171681631Y-57525843D01*
X171680334Y-57523467D01*
X171677500Y-57497109D01*
X171677500Y-57497075D01*
X171697185Y-57430036D01*
X171749989Y-57384281D01*
X171753999Y-57382534D01*
X171829179Y-57351394D01*
X171960289Y-57263789D01*
X172071789Y-57152289D01*
X172159394Y-57021179D01*
X172219737Y-56875497D01*
X172250500Y-56720842D01*
X172250500Y-56563158D01*
X172250500Y-56563155D01*
X172250499Y-56563153D01*
X172243549Y-56528213D01*
X172219737Y-56408503D01*
X172198549Y-56357350D01*
X172159397Y-56262827D01*
X172159390Y-56262814D01*
X172071789Y-56131711D01*
X172071786Y-56131707D01*
X171960292Y-56020213D01*
X171960288Y-56020210D01*
X171829185Y-55932609D01*
X171829172Y-55932602D01*
X171683501Y-55872264D01*
X171683489Y-55872261D01*
X171528845Y-55841500D01*
X171528842Y-55841500D01*
X171371158Y-55841500D01*
X171371155Y-55841500D01*
X171216510Y-55872261D01*
X171216498Y-55872264D01*
X171070827Y-55932602D01*
X171070814Y-55932609D01*
X170939711Y-56020210D01*
X170939707Y-56020213D01*
X170828213Y-56131707D01*
X170828210Y-56131711D01*
X170740609Y-56262814D01*
X170740602Y-56262827D01*
X170680264Y-56408498D01*
X170680261Y-56408510D01*
X170649500Y-56563153D01*
X170649500Y-56720846D01*
X170680261Y-56875489D01*
X170680264Y-56875501D01*
X170740602Y-57021172D01*
X170740609Y-57021185D01*
X170828210Y-57152288D01*
X170828213Y-57152292D01*
X170939707Y-57263786D01*
X170939711Y-57263789D01*
X171070814Y-57351390D01*
X171070818Y-57351392D01*
X171070821Y-57351394D01*
X171145954Y-57382515D01*
X171200356Y-57426354D01*
X171222421Y-57492648D01*
X171222500Y-57497075D01*
X171222500Y-57687958D01*
X171257136Y-57771575D01*
X176873181Y-63387619D01*
X176906666Y-63448942D01*
X176909500Y-63475300D01*
X176909500Y-64020405D01*
X176889815Y-64087444D01*
X176837011Y-64133199D01*
X176767853Y-64143143D01*
X176704297Y-64114118D01*
X176697819Y-64108086D01*
X170183496Y-57593763D01*
X170150011Y-57532440D01*
X170154995Y-57462748D01*
X170156605Y-57458655D01*
X170187737Y-57383497D01*
X170218500Y-57228842D01*
X170218500Y-57071158D01*
X170218500Y-57071155D01*
X170218499Y-57071153D01*
X170208557Y-57021172D01*
X170187737Y-56916503D01*
X170187735Y-56916498D01*
X170127397Y-56770827D01*
X170127390Y-56770814D01*
X170039789Y-56639711D01*
X170039786Y-56639707D01*
X169928292Y-56528213D01*
X169928288Y-56528210D01*
X169797185Y-56440609D01*
X169797172Y-56440602D01*
X169651501Y-56380264D01*
X169651489Y-56380261D01*
X169496845Y-56349500D01*
X169496842Y-56349500D01*
X169339158Y-56349500D01*
X169339155Y-56349500D01*
X169184510Y-56380261D01*
X169184498Y-56380264D01*
X169038827Y-56440602D01*
X169038814Y-56440609D01*
X168907711Y-56528210D01*
X168907707Y-56528213D01*
X168796213Y-56639707D01*
X168796210Y-56639711D01*
X168708609Y-56770814D01*
X168708602Y-56770827D01*
X168648264Y-56916498D01*
X168648261Y-56916510D01*
X168617500Y-57071153D01*
X168617500Y-57228846D01*
X168648261Y-57383489D01*
X168648264Y-57383501D01*
X168708602Y-57529172D01*
X168708609Y-57529185D01*
X168796210Y-57660288D01*
X168796213Y-57660292D01*
X168907707Y-57771786D01*
X168907711Y-57771789D01*
X169038814Y-57859390D01*
X169038827Y-57859397D01*
X169174264Y-57915496D01*
X169184503Y-57919737D01*
X169339153Y-57950499D01*
X169339156Y-57950500D01*
X169339158Y-57950500D01*
X169496844Y-57950500D01*
X169496845Y-57950499D01*
X169651497Y-57919737D01*
X169726630Y-57888615D01*
X169796098Y-57881147D01*
X169858578Y-57912422D01*
X169861763Y-57915496D01*
X173458086Y-61511819D01*
X173491571Y-61573142D01*
X173486587Y-61642834D01*
X173444715Y-61698767D01*
X173379251Y-61723184D01*
X173370405Y-61723500D01*
X168049951Y-61723500D01*
X167982912Y-61703815D01*
X167962270Y-61687181D01*
X163738819Y-57463730D01*
X163705334Y-57402407D01*
X163702500Y-57376049D01*
X163702500Y-55624499D01*
X163722185Y-55557460D01*
X163774989Y-55511705D01*
X163826500Y-55500499D01*
X164247871Y-55500499D01*
X164247872Y-55500499D01*
X164307483Y-55494091D01*
X164442331Y-55443796D01*
X164557546Y-55357546D01*
X164621047Y-55272719D01*
X164676979Y-55230850D01*
X164746671Y-55225866D01*
X164807994Y-55259351D01*
X164819579Y-55272721D01*
X164882813Y-55357190D01*
X164997906Y-55443350D01*
X164997913Y-55443354D01*
X165132620Y-55493596D01*
X165132627Y-55493598D01*
X165192155Y-55499999D01*
X165192172Y-55500000D01*
X166787828Y-55500000D01*
X166787844Y-55499999D01*
X166847372Y-55493598D01*
X166847379Y-55493596D01*
X166982086Y-55443354D01*
X166982093Y-55443350D01*
X167097187Y-55357190D01*
X167097188Y-55357189D01*
X167160420Y-55272722D01*
X167216353Y-55230850D01*
X167286045Y-55225866D01*
X167347368Y-55259351D01*
X167358953Y-55272720D01*
X167359266Y-55273138D01*
X167422187Y-55357190D01*
X167422455Y-55357547D01*
X167537664Y-55443793D01*
X167537671Y-55443797D01*
X167672517Y-55494091D01*
X167672516Y-55494091D01*
X167679444Y-55494835D01*
X167732127Y-55500500D01*
X169327872Y-55500499D01*
X169387483Y-55494091D01*
X169522331Y-55443796D01*
X169637546Y-55357546D01*
X169700734Y-55273136D01*
X169756667Y-55231267D01*
X169826359Y-55226283D01*
X169887682Y-55259768D01*
X169899260Y-55273130D01*
X169962454Y-55357546D01*
X169962457Y-55357548D01*
X170077664Y-55443793D01*
X170077671Y-55443797D01*
X170212517Y-55494091D01*
X170212516Y-55494091D01*
X170219444Y-55494835D01*
X170272127Y-55500500D01*
X171867872Y-55500499D01*
X171927483Y-55494091D01*
X172062331Y-55443796D01*
X172177546Y-55357546D01*
X172241047Y-55272719D01*
X172296979Y-55230850D01*
X172366671Y-55225866D01*
X172427994Y-55259351D01*
X172439579Y-55272721D01*
X172502813Y-55357190D01*
X172617906Y-55443350D01*
X172617913Y-55443354D01*
X172752620Y-55493596D01*
X172752627Y-55493598D01*
X172812155Y-55499999D01*
X172812172Y-55500000D01*
X174407828Y-55500000D01*
X174407844Y-55499999D01*
X174467372Y-55493598D01*
X174467379Y-55493596D01*
X174602086Y-55443354D01*
X174602093Y-55443350D01*
X174717187Y-55357190D01*
X174717188Y-55357189D01*
X174780420Y-55272722D01*
X174801571Y-55256887D01*
X174820259Y-55238200D01*
X174829105Y-55236275D01*
X174836353Y-55230850D01*
X174862711Y-55228964D01*
X174888532Y-55223348D01*
X174897014Y-55226511D01*
G37*
%TD.AperFunction*%
%TD*%
%TA.AperFunction,Conductor*%
%TO.N,/Controlador/BATT_INPUT*%
G36*
X200349039Y-83839685D02*
G01*
X200394794Y-83892489D01*
X200406000Y-83944000D01*
X200406000Y-86998000D01*
X200386315Y-87065039D01*
X200333511Y-87110794D01*
X200282000Y-87122000D01*
X194434000Y-87122000D01*
X194366961Y-87102315D01*
X194321206Y-87049511D01*
X194310000Y-86998000D01*
X194310000Y-83944000D01*
X194329685Y-83876961D01*
X194382489Y-83831206D01*
X194434000Y-83820000D01*
X200282000Y-83820000D01*
X200349039Y-83839685D01*
G37*
%TD.AperFunction*%
%TD*%
%TA.AperFunction,Conductor*%
%TO.N,/Controlador/BATT_INPUT*%
G36*
X156661039Y-85109685D02*
G01*
X156706794Y-85162489D01*
X156718000Y-85214000D01*
X156718000Y-90046000D01*
X156698315Y-90113039D01*
X156645511Y-90158794D01*
X156594000Y-90170000D01*
X155064000Y-90170000D01*
X154996961Y-90150315D01*
X154951206Y-90097511D01*
X154940000Y-90046000D01*
X154940000Y-85214000D01*
X154959685Y-85146961D01*
X155012489Y-85101206D01*
X155064000Y-85090000D01*
X156594000Y-85090000D01*
X156661039Y-85109685D01*
G37*
%TD.AperFunction*%
%TD*%
%TA.AperFunction,Conductor*%
%TO.N,/BATT_INPUT*%
G36*
X175122486Y-83769810D02*
G01*
X175245318Y-83788831D01*
X175247025Y-83789372D01*
X175247963Y-83789269D01*
X175281486Y-83800308D01*
X175384153Y-83851289D01*
X175415162Y-83873172D01*
X175504545Y-83959528D01*
X175517177Y-83973762D01*
X180841601Y-90992320D01*
X180852410Y-91009263D01*
X180913761Y-91125191D01*
X180914777Y-91128214D01*
X180915933Y-91129496D01*
X180926533Y-91163161D01*
X180947720Y-91292593D01*
X180949349Y-91312624D01*
X180949349Y-92658225D01*
X180948288Y-92674411D01*
X180934442Y-92779575D01*
X180926064Y-92810842D01*
X180888608Y-92901269D01*
X180872423Y-92929302D01*
X180812840Y-93006952D01*
X180789950Y-93029842D01*
X180712300Y-93089425D01*
X180684267Y-93105610D01*
X180593840Y-93143066D01*
X180562573Y-93151444D01*
X180468747Y-93163797D01*
X180457407Y-93165290D01*
X180441223Y-93166351D01*
X179172024Y-93166351D01*
X179153249Y-93164921D01*
X179031692Y-93146301D01*
X178995864Y-93135061D01*
X178894025Y-93085112D01*
X178863205Y-93063663D01*
X178774067Y-92978943D01*
X178761443Y-92964972D01*
X178617910Y-92779575D01*
X172932247Y-85435595D01*
X172921136Y-85418505D01*
X172858004Y-85301304D01*
X172844852Y-85262830D01*
X172823027Y-85131517D01*
X172821349Y-85111186D01*
X172821349Y-84276476D01*
X172822410Y-84260291D01*
X172836255Y-84155127D01*
X172844633Y-84123859D01*
X172882089Y-84033432D01*
X172898272Y-84005401D01*
X172957862Y-83927743D01*
X172980741Y-83904864D01*
X173058399Y-83845274D01*
X173086428Y-83829091D01*
X173176858Y-83791634D01*
X173208124Y-83783257D01*
X173313290Y-83769412D01*
X173329475Y-83768351D01*
X175103523Y-83768351D01*
X175122486Y-83769810D01*
G37*
%TD.AperFunction*%
%TD*%
%TA.AperFunction,Conductor*%
%TO.N,Net-(L1--)*%
G36*
X163621459Y-79387261D02*
G01*
X163726623Y-79401106D01*
X163757891Y-79409484D01*
X163848318Y-79446940D01*
X163876352Y-79463125D01*
X163954002Y-79522709D01*
X163976891Y-79545598D01*
X164036474Y-79623248D01*
X164052659Y-79651281D01*
X164090115Y-79741708D01*
X164098493Y-79772975D01*
X164112339Y-79878139D01*
X164113400Y-79894325D01*
X164113400Y-83157925D01*
X164112162Y-83175401D01*
X164096026Y-83288751D01*
X164086273Y-83322314D01*
X164039145Y-83426664D01*
X164030825Y-83442080D01*
X161560296Y-87333989D01*
X161547750Y-87350514D01*
X161510746Y-87391604D01*
X161507588Y-87394105D01*
X161506529Y-87396060D01*
X161478334Y-87417290D01*
X161439122Y-87438844D01*
X161400067Y-87452442D01*
X161361931Y-87458891D01*
X161309166Y-87456403D01*
X161295934Y-87452858D01*
X161240343Y-87420763D01*
X161235035Y-87415455D01*
X161202941Y-87359867D01*
X161196624Y-87336288D01*
X161192400Y-87304198D01*
X161192400Y-79894325D01*
X161193461Y-79878140D01*
X161207306Y-79772976D01*
X161207306Y-79772975D01*
X161215684Y-79741708D01*
X161253140Y-79651281D01*
X161269323Y-79623250D01*
X161328913Y-79545592D01*
X161351792Y-79522713D01*
X161429450Y-79463123D01*
X161457479Y-79446940D01*
X161547909Y-79409483D01*
X161579175Y-79401106D01*
X161684341Y-79387261D01*
X161700526Y-79386200D01*
X163605274Y-79386200D01*
X163621459Y-79387261D01*
G37*
%TD.AperFunction*%
%TD*%
%TA.AperFunction,Conductor*%
%TO.N,Net-(L1-+)*%
G36*
X159938459Y-79387261D02*
G01*
X160043623Y-79401106D01*
X160074891Y-79409484D01*
X160165318Y-79446940D01*
X160193352Y-79463125D01*
X160271002Y-79522709D01*
X160293891Y-79545598D01*
X160353474Y-79623248D01*
X160369659Y-79651281D01*
X160407115Y-79741708D01*
X160415493Y-79772975D01*
X160429339Y-79878139D01*
X160430400Y-79894325D01*
X160430400Y-87184489D01*
X160428017Y-87208679D01*
X160422588Y-87235974D01*
X160416844Y-87264850D01*
X160398330Y-87309547D01*
X160373429Y-87346815D01*
X160339215Y-87381029D01*
X160301947Y-87405930D01*
X160257250Y-87424444D01*
X160222480Y-87431360D01*
X160212049Y-87433435D01*
X160166063Y-87433886D01*
X160068395Y-87416447D01*
X160027500Y-87401363D01*
X159940809Y-87350561D01*
X159907663Y-87322256D01*
X159836833Y-87235970D01*
X159824502Y-87217906D01*
X157704056Y-83432771D01*
X157697223Y-83418509D01*
X157658556Y-83322531D01*
X157650582Y-83291980D01*
X157637409Y-83189350D01*
X157636400Y-83173564D01*
X157636400Y-79894325D01*
X157637461Y-79878140D01*
X157651306Y-79772976D01*
X157659684Y-79741708D01*
X157697140Y-79651281D01*
X157713323Y-79623250D01*
X157772913Y-79545592D01*
X157795792Y-79522713D01*
X157873450Y-79463123D01*
X157901479Y-79446940D01*
X157991909Y-79409483D01*
X158023175Y-79401106D01*
X158128341Y-79387261D01*
X158144526Y-79386200D01*
X159922274Y-79386200D01*
X159938459Y-79387261D01*
G37*
%TD.AperFunction*%
%TD*%
M02*
