%TF.GenerationSoftware,KiCad,Pcbnew,9.0.0-9.0.0-2~ubuntu24.04.1*%
%TF.CreationDate,2025-02-26T14:58:08+01:00*%
%TF.ProjectId,SupplyBoard,53757070-6c79-4426-9f61-72642e6b6963,rev?*%
%TF.SameCoordinates,Original*%
%TF.FileFunction,Copper,L1,Top*%
%TF.FilePolarity,Positive*%
%FSLAX46Y46*%
G04 Gerber Fmt 4.6, Leading zero omitted, Abs format (unit mm)*
G04 Created by KiCad (PCBNEW 9.0.0-9.0.0-2~ubuntu24.04.1) date 2025-02-26 14:58:08*
%MOMM*%
%LPD*%
G01*
G04 APERTURE LIST*
G04 Aperture macros list*
%AMRoundRect*
0 Rectangle with rounded corners*
0 $1 Rounding radius*
0 $2 $3 $4 $5 $6 $7 $8 $9 X,Y pos of 4 corners*
0 Add a 4 corners polygon primitive as box body*
4,1,4,$2,$3,$4,$5,$6,$7,$8,$9,$2,$3,0*
0 Add four circle primitives for the rounded corners*
1,1,$1+$1,$2,$3*
1,1,$1+$1,$4,$5*
1,1,$1+$1,$6,$7*
1,1,$1+$1,$8,$9*
0 Add four rect primitives between the rounded corners*
20,1,$1+$1,$2,$3,$4,$5,0*
20,1,$1+$1,$4,$5,$6,$7,0*
20,1,$1+$1,$6,$7,$8,$9,0*
20,1,$1+$1,$8,$9,$2,$3,0*%
%AMFreePoly0*
4,1,14,0.230680,0.111820,0.364320,-0.021820,0.377500,-0.053640,0.377500,-0.080000,0.364320,-0.111820,0.332500,-0.125000,-0.332500,-0.125000,-0.364320,-0.111820,-0.377500,-0.080000,-0.377500,0.080000,-0.364320,0.111820,-0.332500,0.125000,0.198860,0.125000,0.230680,0.111820,0.230680,0.111820,$1*%
%AMFreePoly1*
4,1,14,0.364320,0.111820,0.377500,0.080000,0.377500,0.053640,0.364320,0.021820,0.230680,-0.111820,0.198860,-0.125000,-0.332500,-0.125000,-0.364320,-0.111820,-0.377500,-0.080000,-0.377500,0.080000,-0.364320,0.111820,-0.332500,0.125000,0.332500,0.125000,0.364320,0.111820,0.364320,0.111820,$1*%
%AMFreePoly2*
4,1,14,0.111820,0.364320,0.125000,0.332500,0.125000,-0.332500,0.111820,-0.364320,0.080000,-0.377500,-0.080000,-0.377500,-0.111820,-0.364320,-0.125000,-0.332500,-0.125000,0.198860,-0.111820,0.230680,0.021820,0.364320,0.053640,0.377500,0.080000,0.377500,0.111820,0.364320,0.111820,0.364320,$1*%
%AMFreePoly3*
4,1,14,-0.021820,0.364320,0.111820,0.230680,0.125000,0.198860,0.125000,-0.332500,0.111820,-0.364320,0.080000,-0.377500,-0.080000,-0.377500,-0.111820,-0.364320,-0.125000,-0.332500,-0.125000,0.332500,-0.111820,0.364320,-0.080000,0.377500,-0.053640,0.377500,-0.021820,0.364320,-0.021820,0.364320,$1*%
%AMFreePoly4*
4,1,14,0.364320,0.111820,0.377500,0.080000,0.377500,-0.080000,0.364320,-0.111820,0.332500,-0.125000,-0.198860,-0.125000,-0.230680,-0.111820,-0.364320,0.021820,-0.377500,0.053640,-0.377500,0.080000,-0.364320,0.111820,-0.332500,0.125000,0.332500,0.125000,0.364320,0.111820,0.364320,0.111820,$1*%
%AMFreePoly5*
4,1,14,0.364320,0.111820,0.377500,0.080000,0.377500,-0.080000,0.364320,-0.111820,0.332500,-0.125000,-0.332500,-0.125000,-0.364320,-0.111820,-0.377500,-0.080000,-0.377500,-0.053640,-0.364320,-0.021820,-0.230680,0.111820,-0.198860,0.125000,0.332500,0.125000,0.364320,0.111820,0.364320,0.111820,$1*%
%AMFreePoly6*
4,1,14,0.111820,0.364320,0.125000,0.332500,0.125000,-0.198860,0.111820,-0.230680,-0.021820,-0.364320,-0.053640,-0.377500,-0.080000,-0.377500,-0.111820,-0.364320,-0.125000,-0.332500,-0.125000,0.332500,-0.111820,0.364320,-0.080000,0.377500,0.080000,0.377500,0.111820,0.364320,0.111820,0.364320,$1*%
%AMFreePoly7*
4,1,14,0.111820,0.364320,0.125000,0.332500,0.125000,-0.332500,0.111820,-0.364320,0.080000,-0.377500,0.053640,-0.377500,0.021820,-0.364320,-0.111820,-0.230680,-0.125000,-0.198860,-0.125000,0.332500,-0.111820,0.364320,-0.080000,0.377500,0.080000,0.377500,0.111820,0.364320,0.111820,0.364320,$1*%
%AMFreePoly8*
4,1,23,0.500000,-0.750000,0.000000,-0.750000,0.000000,-0.745722,-0.065263,-0.745722,-0.191342,-0.711940,-0.304381,-0.646677,-0.396677,-0.554381,-0.461940,-0.441342,-0.495722,-0.315263,-0.495722,-0.250000,-0.500000,-0.250000,-0.500000,0.250000,-0.495722,0.250000,-0.495722,0.315263,-0.461940,0.441342,-0.396677,0.554381,-0.304381,0.646677,-0.191342,0.711940,-0.065263,0.745722,0.000000,0.745722,
0.000000,0.750000,0.500000,0.750000,0.500000,-0.750000,0.500000,-0.750000,$1*%
%AMFreePoly9*
4,1,23,0.000000,0.745722,0.065263,0.745722,0.191342,0.711940,0.304381,0.646677,0.396677,0.554381,0.461940,0.441342,0.495722,0.315263,0.495722,0.250000,0.500000,0.250000,0.500000,-0.250000,0.495722,-0.250000,0.495722,-0.315263,0.461940,-0.441342,0.396677,-0.554381,0.304381,-0.646677,0.191342,-0.711940,0.065263,-0.745722,0.000000,-0.745722,0.000000,-0.750000,-0.500000,-0.750000,
-0.500000,0.750000,0.000000,0.750000,0.000000,0.745722,0.000000,0.745722,$1*%
%AMFreePoly10*
4,1,17,1.395000,0.765000,0.855000,0.765000,0.855000,0.535000,1.395000,0.535000,1.395000,0.115000,0.855000,0.115000,0.855000,-0.115000,1.395000,-0.115000,1.395000,-0.535000,0.855000,-0.535000,0.855000,-0.765000,1.395000,-0.765000,1.395000,-1.185000,-0.855000,-1.185000,-0.855000,1.185000,1.395000,1.185000,1.395000,0.765000,1.395000,0.765000,$1*%
G04 Aperture macros list end*
%TA.AperFunction,SMDPad,CuDef*%
%ADD10RoundRect,0.237500X0.237500X-0.300000X0.237500X0.300000X-0.237500X0.300000X-0.237500X-0.300000X0*%
%TD*%
%TA.AperFunction,SMDPad,CuDef*%
%ADD11RoundRect,0.237500X-0.237500X0.300000X-0.237500X-0.300000X0.237500X-0.300000X0.237500X0.300000X0*%
%TD*%
%TA.AperFunction,SMDPad,CuDef*%
%ADD12RoundRect,0.237500X0.300000X0.237500X-0.300000X0.237500X-0.300000X-0.237500X0.300000X-0.237500X0*%
%TD*%
%TA.AperFunction,SMDPad,CuDef*%
%ADD13RoundRect,0.100000X-0.225000X-0.100000X0.225000X-0.100000X0.225000X0.100000X-0.225000X0.100000X0*%
%TD*%
%TA.AperFunction,SMDPad,CuDef*%
%ADD14FreePoly0,0.000000*%
%TD*%
%TA.AperFunction,SMDPad,CuDef*%
%ADD15RoundRect,0.062500X-0.375000X-0.062500X0.375000X-0.062500X0.375000X0.062500X-0.375000X0.062500X0*%
%TD*%
%TA.AperFunction,SMDPad,CuDef*%
%ADD16FreePoly1,0.000000*%
%TD*%
%TA.AperFunction,SMDPad,CuDef*%
%ADD17FreePoly2,0.000000*%
%TD*%
%TA.AperFunction,SMDPad,CuDef*%
%ADD18RoundRect,0.062500X-0.062500X-0.375000X0.062500X-0.375000X0.062500X0.375000X-0.062500X0.375000X0*%
%TD*%
%TA.AperFunction,SMDPad,CuDef*%
%ADD19FreePoly3,0.000000*%
%TD*%
%TA.AperFunction,SMDPad,CuDef*%
%ADD20FreePoly4,0.000000*%
%TD*%
%TA.AperFunction,SMDPad,CuDef*%
%ADD21FreePoly5,0.000000*%
%TD*%
%TA.AperFunction,SMDPad,CuDef*%
%ADD22FreePoly6,0.000000*%
%TD*%
%TA.AperFunction,SMDPad,CuDef*%
%ADD23FreePoly7,0.000000*%
%TD*%
%TA.AperFunction,SMDPad,CuDef*%
%ADD24RoundRect,0.237500X-0.250000X-0.237500X0.250000X-0.237500X0.250000X0.237500X-0.250000X0.237500X0*%
%TD*%
%TA.AperFunction,SMDPad,CuDef*%
%ADD25R,1.000000X1.500000*%
%TD*%
%TA.AperFunction,SMDPad,CuDef*%
%ADD26RoundRect,0.237500X-0.300000X-0.237500X0.300000X-0.237500X0.300000X0.237500X-0.300000X0.237500X0*%
%TD*%
%TA.AperFunction,SMDPad,CuDef*%
%ADD27RoundRect,0.125000X-0.687500X-0.125000X0.687500X-0.125000X0.687500X0.125000X-0.687500X0.125000X0*%
%TD*%
%TA.AperFunction,SMDPad,CuDef*%
%ADD28RoundRect,0.237500X0.250000X0.237500X-0.250000X0.237500X-0.250000X-0.237500X0.250000X-0.237500X0*%
%TD*%
%TA.AperFunction,SMDPad,CuDef*%
%ADD29RoundRect,0.249999X1.075001X-0.450001X1.075001X0.450001X-1.075001X0.450001X-1.075001X-0.450001X0*%
%TD*%
%TA.AperFunction,SMDPad,CuDef*%
%ADD30RoundRect,0.237500X-0.237500X0.250000X-0.237500X-0.250000X0.237500X-0.250000X0.237500X0.250000X0*%
%TD*%
%TA.AperFunction,SMDPad,CuDef*%
%ADD31C,1.500000*%
%TD*%
%TA.AperFunction,SMDPad,CuDef*%
%ADD32RoundRect,0.262500X0.562500X0.262500X-0.562500X0.262500X-0.562500X-0.262500X0.562500X-0.262500X0*%
%TD*%
%TA.AperFunction,SMDPad,CuDef*%
%ADD33RoundRect,0.262500X0.262500X-0.637500X0.262500X0.637500X-0.262500X0.637500X-0.262500X-0.637500X0*%
%TD*%
%TA.AperFunction,SMDPad,CuDef*%
%ADD34RoundRect,0.250000X0.537500X0.425000X-0.537500X0.425000X-0.537500X-0.425000X0.537500X-0.425000X0*%
%TD*%
%TA.AperFunction,SMDPad,CuDef*%
%ADD35RoundRect,0.250001X-0.924999X0.499999X-0.924999X-0.499999X0.924999X-0.499999X0.924999X0.499999X0*%
%TD*%
%TA.AperFunction,SMDPad,CuDef*%
%ADD36RoundRect,0.250000X0.450000X-0.325000X0.450000X0.325000X-0.450000X0.325000X-0.450000X-0.325000X0*%
%TD*%
%TA.AperFunction,SMDPad,CuDef*%
%ADD37RoundRect,0.250000X0.337500X0.475000X-0.337500X0.475000X-0.337500X-0.475000X0.337500X-0.475000X0*%
%TD*%
%TA.AperFunction,SMDPad,CuDef*%
%ADD38RoundRect,0.250000X0.325000X0.450000X-0.325000X0.450000X-0.325000X-0.450000X0.325000X-0.450000X0*%
%TD*%
%TA.AperFunction,ComponentPad*%
%ADD39R,1.350000X1.350000*%
%TD*%
%TA.AperFunction,ComponentPad*%
%ADD40O,1.350000X1.350000*%
%TD*%
%TA.AperFunction,SMDPad,CuDef*%
%ADD41R,0.279400X0.609600*%
%TD*%
%TA.AperFunction,SMDPad,CuDef*%
%ADD42RoundRect,0.237500X0.237500X-0.250000X0.237500X0.250000X-0.237500X0.250000X-0.237500X-0.250000X0*%
%TD*%
%TA.AperFunction,SMDPad,CuDef*%
%ADD43RoundRect,0.250000X0.400000X0.600000X-0.400000X0.600000X-0.400000X-0.600000X0.400000X-0.600000X0*%
%TD*%
%TA.AperFunction,ComponentPad*%
%ADD44R,1.700000X1.700000*%
%TD*%
%TA.AperFunction,ComponentPad*%
%ADD45O,1.700000X1.700000*%
%TD*%
%TA.AperFunction,SMDPad,CuDef*%
%ADD46FreePoly8,0.000000*%
%TD*%
%TA.AperFunction,SMDPad,CuDef*%
%ADD47FreePoly9,0.000000*%
%TD*%
%TA.AperFunction,ComponentPad*%
%ADD48R,3.800000X3.800000*%
%TD*%
%TA.AperFunction,ComponentPad*%
%ADD49C,4.000000*%
%TD*%
%TA.AperFunction,SMDPad,CuDef*%
%ADD50R,0.240000X0.599999*%
%TD*%
%TA.AperFunction,SMDPad,CuDef*%
%ADD51R,0.599999X0.240000*%
%TD*%
%TA.AperFunction,SMDPad,CuDef*%
%ADD52R,0.700001X0.850001*%
%TD*%
%TA.AperFunction,SMDPad,CuDef*%
%ADD53R,0.349999X1.450000*%
%TD*%
%TA.AperFunction,SMDPad,CuDef*%
%ADD54R,0.349999X1.799999*%
%TD*%
%TA.AperFunction,SMDPad,CuDef*%
%ADD55RoundRect,0.105000X-0.245000X-0.105000X0.245000X-0.105000X0.245000X0.105000X-0.245000X0.105000X0*%
%TD*%
%TA.AperFunction,SMDPad,CuDef*%
%ADD56FreePoly10,0.000000*%
%TD*%
%TA.AperFunction,SMDPad,CuDef*%
%ADD57R,4.500000X1.900000*%
%TD*%
%TA.AperFunction,SMDPad,CuDef*%
%ADD58RoundRect,0.250000X-0.700000X-1.600000X0.700000X-1.600000X0.700000X1.600000X-0.700000X1.600000X0*%
%TD*%
%TA.AperFunction,SMDPad,CuDef*%
%ADD59R,1.500000X4.000000*%
%TD*%
%TA.AperFunction,ViaPad*%
%ADD60C,0.600000*%
%TD*%
%TA.AperFunction,Conductor*%
%ADD61C,0.300000*%
%TD*%
%TA.AperFunction,Conductor*%
%ADD62C,1.000000*%
%TD*%
%TA.AperFunction,Conductor*%
%ADD63C,0.200000*%
%TD*%
%TA.AperFunction,Conductor*%
%ADD64C,0.500000*%
%TD*%
%TA.AperFunction,Conductor*%
%ADD65C,1.500000*%
%TD*%
%TA.AperFunction,Conductor*%
%ADD66C,0.250000*%
%TD*%
G04 APERTURE END LIST*
D10*
%TO.P,C26,1*%
%TO.N,/I_{3v3}_SENSE*%
X191058800Y-70712500D03*
%TO.P,C26,2*%
%TO.N,GND*%
X191058800Y-68987500D03*
%TD*%
D11*
%TO.P,C15,1*%
%TO.N,/Controlador/BATT_INPUT*%
X195173600Y-86616200D03*
%TO.P,C15,2*%
%TO.N,GND*%
X195173600Y-88341200D03*
%TD*%
D12*
%TO.P,C36,1*%
%TO.N,/Controlador/V_{5V}_SENSE*%
X168654243Y-72390000D03*
%TO.P,C36,2*%
%TO.N,GND*%
X166929243Y-72390000D03*
%TD*%
D13*
%TO.P,U6,1,NC*%
%TO.N,unconnected-(U6-NC-Pad1)*%
X180660000Y-78090000D03*
%TO.P,U6,2,GND*%
%TO.N,GND*%
X180660000Y-78740000D03*
%TO.P,U6,3,V_{OUT}*%
%TO.N,/Controlador/TEMP_SENSOR*%
X180660000Y-79390000D03*
%TO.P,U6,4,V_{DD}*%
%TO.N,+3.3V*%
X182560000Y-79390000D03*
%TO.P,U6,5,GND*%
%TO.N,GND*%
X182560000Y-78090000D03*
%TD*%
D10*
%TO.P,C8,1*%
%TO.N,/LIPO_TO_5V/5V_OUT*%
X168050400Y-85353000D03*
%TO.P,C8,2*%
%TO.N,GND*%
X168050400Y-83628000D03*
%TD*%
D14*
%TO.P,U1,1,VDD*%
%TO.N,+3.3V*%
X170135743Y-67907880D03*
D15*
%TO.P,U1,2,PC14*%
%TO.N,/BYPASS_EN*%
X170195743Y-68407880D03*
%TO.P,U1,3,PC15*%
%TO.N,/Controlador/5V_ENABLE*%
X170195743Y-68907880D03*
%TO.P,U1,4,NRST*%
%TO.N,/Controlador/~{RESET}*%
X170195743Y-69407880D03*
%TO.P,U1,5,VDDA*%
%TO.N,+3.3V*%
X170195743Y-69907880D03*
%TO.P,U1,6,PA0*%
%TO.N,/Controlador/V_{IN}_SENSE*%
X170195743Y-70407880D03*
D16*
%TO.P,U1,7,PA1*%
%TO.N,/Controlador/V_{5V}_SENSE*%
X170135743Y-70907880D03*
D17*
%TO.P,U1,8,PA2*%
%TO.N,/I_{3v3}_SENSE*%
X170633243Y-71405380D03*
D18*
%TO.P,U1,9,PA3*%
%TO.N,/I_{5v}_SENSE*%
X171133243Y-71345380D03*
%TO.P,U1,10,PA4*%
%TO.N,/I_{IN}_SENSE*%
X171633243Y-71345380D03*
%TO.P,U1,11,PA5*%
%TO.N,/I_{BYPASS}_SENSE*%
X172133243Y-71345380D03*
%TO.P,U1,12,PA6*%
%TO.N,/Controlador/TEMP_SENSOR*%
X172633243Y-71345380D03*
%TO.P,U1,13,PA7*%
%TO.N,/SPI.CS0*%
X173133243Y-71345380D03*
D19*
%TO.P,U1,14,PB0*%
%TO.N,/SPI.MISO*%
X173633243Y-71405380D03*
D20*
%TO.P,U1,15,PB1*%
%TO.N,/SPI.MOSI*%
X174130743Y-70907880D03*
D15*
%TO.P,U1,16,VSS*%
%TO.N,GND*%
X174070743Y-70407880D03*
%TO.P,U1,17,VDD*%
%TO.N,+3.3V*%
X174070743Y-69907880D03*
%TO.P,U1,18,PA8*%
%TO.N,/SPI.CS1*%
X174070743Y-69407880D03*
%TO.P,U1,19,PA9*%
%TO.N,/I2C0_SCL*%
X174070743Y-68907880D03*
%TO.P,U1,20,PA10*%
%TO.N,/I2C0_SDA*%
X174070743Y-68407880D03*
D21*
%TO.P,U1,21,PA13*%
%TO.N,/Controlador/SWDIO*%
X174130743Y-67907880D03*
D22*
%TO.P,U1,22,PA14*%
%TO.N,/Controlador/SWCLK*%
X173633243Y-67410380D03*
D18*
%TO.P,U1,23,PA15*%
%TO.N,Net-(U1-PA15)*%
X173133243Y-67470380D03*
%TO.P,U1,24,PB3*%
%TO.N,/SPI.SCK*%
X172633243Y-67470380D03*
%TO.P,U1,25,PB6*%
%TO.N,/Controlador/UART_TX*%
X172133243Y-67470380D03*
%TO.P,U1,26,PB7*%
%TO.N,/Controlador/UART_RX*%
X171633243Y-67470380D03*
%TO.P,U1,27,BOOT0*%
%TO.N,Net-(JP7-B)*%
X171133243Y-67470380D03*
D23*
%TO.P,U1,28,VSS*%
%TO.N,GND*%
X170633243Y-67410380D03*
%TD*%
D24*
%TO.P,R9,1*%
%TO.N,GND*%
X197510400Y-89865200D03*
%TO.P,R9,2*%
%TO.N,Net-(U3-EN)*%
X199335400Y-89865200D03*
%TD*%
D25*
%TO.P,JP5,1,A*%
%TO.N,/C_UART_TX*%
X182971443Y-61914880D03*
%TO.P,JP5,2,C*%
%TO.N,/Controlador/UART_RX*%
X181671443Y-61914880D03*
%TO.P,JP5,3,B*%
%TO.N,/C_UART_RX*%
X180371443Y-61914880D03*
%TD*%
D26*
%TO.P,C19,1*%
%TO.N,/LIPO_TO_3V/3V3_OUT*%
X186994800Y-88392000D03*
%TO.P,C19,2*%
%TO.N,GND*%
X188719800Y-88392000D03*
%TD*%
D27*
%TO.P,U5,1,OUT_{1}*%
%TO.N,/I_{IN}_SENSE*%
X177566849Y-87873351D03*
%TO.P,U5,2,-IN_{1}*%
%TO.N,/BATT_INPUT*%
X177566849Y-88523351D03*
%TO.P,U5,3,+IN_{1}*%
%TO.N,/CurrentSense_Lipo/V_IN_{1}*%
X177566849Y-89173351D03*
%TO.P,U5,4,GND*%
%TO.N,GND*%
X177566849Y-89823351D03*
%TO.P,U5,5,+IN_{2}*%
%TO.N,/BATT_BYPASS_SW/BATT_OUT*%
X181791849Y-89823351D03*
%TO.P,U5,6,-IN_{2}*%
%TO.N,/BATT_BYPASS*%
X181791849Y-89173351D03*
%TO.P,U5,7,OUT_{2}*%
%TO.N,/I_{BYPASS}_SENSE*%
X181791849Y-88523351D03*
%TO.P,U5,8,VS*%
%TO.N,+3.3V*%
X181791849Y-87873351D03*
%TD*%
D24*
%TO.P,R21,1*%
%TO.N,GND*%
X160319776Y-64169308D03*
%TO.P,R21,2*%
%TO.N,Net-(JP7-A)*%
X162144776Y-64169308D03*
%TD*%
D10*
%TO.P,C25,1*%
%TO.N,/I_{BYPASS}_SENSE*%
X179700649Y-86236851D03*
%TO.P,C25,2*%
%TO.N,GND*%
X179700649Y-84511851D03*
%TD*%
D26*
%TO.P,C17,1*%
%TO.N,/LIPO_TO_3V/3V3_OUT*%
X186994800Y-85404000D03*
%TO.P,C17,2*%
%TO.N,GND*%
X188719800Y-85404000D03*
%TD*%
D12*
%TO.P,C29,1*%
%TO.N,/Controlador/~{RESET}*%
X163715200Y-95123000D03*
%TO.P,C29,2*%
%TO.N,GND*%
X161990200Y-95123000D03*
%TD*%
D26*
%TO.P,C20,1*%
%TO.N,/LIPO_TO_3V/3V3_OUT*%
X186994800Y-89916000D03*
%TO.P,C20,2*%
%TO.N,GND*%
X188719800Y-89916000D03*
%TD*%
D28*
%TO.P,R17,1*%
%TO.N,GND*%
X166928000Y-75488800D03*
%TO.P,R17,2*%
%TO.N,/Controlador/V_{IN}_SENSE*%
X165103000Y-75488800D03*
%TD*%
D29*
%TO.P,R13,1,+*%
%TO.N,/LIPO_TO_3V/3V3_OUT*%
X195884800Y-75653600D03*
%TO.P,R13,2,-*%
%TO.N,+3.3V*%
X195884800Y-70853600D03*
%TD*%
D30*
%TO.P,R1,1*%
%TO.N,/Controlador/BATT_INPUT*%
X157509400Y-87340200D03*
%TO.P,R1,2*%
%TO.N,Net-(U2-PS{slash}SYNC)*%
X157509400Y-89165200D03*
%TD*%
D28*
%TO.P,R25,1*%
%TO.N,Net-(D3-A)*%
X195893200Y-79424600D03*
%TO.P,R25,2*%
%TO.N,/LIPO_TO_3V/3V3_OUT*%
X194068200Y-79424600D03*
%TD*%
D11*
%TO.P,C31,1*%
%TO.N,+3.3V*%
X179880243Y-69926080D03*
%TO.P,C31,2*%
%TO.N,GND*%
X179880243Y-71651080D03*
%TD*%
%TO.P,C23,1*%
%TO.N,GND*%
X181457349Y-84511851D03*
%TO.P,C23,2*%
%TO.N,+3.3V*%
X181457349Y-86236851D03*
%TD*%
D27*
%TO.P,U4,1,OUT_{1}*%
%TO.N,/I_{5v}_SENSE*%
X188946300Y-72278600D03*
%TO.P,U4,2,-IN_{1}*%
%TO.N,+5V*%
X188946300Y-72928600D03*
%TO.P,U4,3,+IN_{1}*%
%TO.N,/LIPO_TO_5V/5V_OUT*%
X188946300Y-73578600D03*
%TO.P,U4,4,GND*%
%TO.N,GND*%
X188946300Y-74228600D03*
%TO.P,U4,5,+IN_{2}*%
%TO.N,/LIPO_TO_3V/3V3_OUT*%
X193171300Y-74228600D03*
%TO.P,U4,6,-IN_{2}*%
%TO.N,+3.3V*%
X193171300Y-73578600D03*
%TO.P,U4,7,OUT_{2}*%
%TO.N,/I_{3v3}_SENSE*%
X193171300Y-72928600D03*
%TO.P,U4,8,VS*%
%TO.N,+3.3V*%
X193171300Y-72278600D03*
%TD*%
D28*
%TO.P,R4,1*%
%TO.N,/LIPO_TO_5V/5V_OUT*%
X162816100Y-92518000D03*
%TO.P,R4,2*%
%TO.N,Net-(U2-PG)*%
X160991100Y-92518000D03*
%TD*%
D31*
%TO.P,TP1,1,1*%
%TO.N,Net-(U1-PA15)*%
X174879000Y-64770000D03*
%TD*%
D11*
%TO.P,C32,1*%
%TO.N,+3.3V*%
X178407043Y-69926080D03*
%TO.P,C32,2*%
%TO.N,GND*%
X178407043Y-71651080D03*
%TD*%
D10*
%TO.P,C6,1*%
%TO.N,/LIPO_TO_5V/5V_OUT*%
X165104000Y-85353000D03*
%TO.P,C6,2*%
%TO.N,GND*%
X165104000Y-83628000D03*
%TD*%
D26*
%TO.P,C4,1*%
%TO.N,/LIPO_TO_5V/AUX*%
X161040000Y-90994000D03*
%TO.P,C4,2*%
%TO.N,GND*%
X162765000Y-90994000D03*
%TD*%
D10*
%TO.P,C7,1*%
%TO.N,/LIPO_TO_5V/5V_OUT*%
X166556400Y-85353000D03*
%TO.P,C7,2*%
%TO.N,GND*%
X166556400Y-83628000D03*
%TD*%
D29*
%TO.P,R11,1,+*%
%TO.N,/LIPO_TO_5V/5V_OUT*%
X186232800Y-75653600D03*
%TO.P,R11,2,-*%
%TO.N,+5V*%
X186232800Y-70853600D03*
%TD*%
D24*
%TO.P,R5,1*%
%TO.N,Net-(U3-FB)*%
X194184900Y-89890600D03*
%TO.P,R5,2*%
%TO.N,GND*%
X196009900Y-89890600D03*
%TD*%
D10*
%TO.P,C9,1*%
%TO.N,/LIPO_TO_5V/5V_OUT*%
X169523600Y-85353000D03*
%TO.P,C9,2*%
%TO.N,GND*%
X169523600Y-83628000D03*
%TD*%
D24*
%TO.P,R19,1*%
%TO.N,GND*%
X166879243Y-73914000D03*
%TO.P,R19,2*%
%TO.N,/Controlador/V_{5V}_SENSE*%
X168704243Y-73914000D03*
%TD*%
D32*
%TO.P,SW1,*%
%TO.N,*%
X157009200Y-100457000D03*
X163309200Y-100457000D03*
D33*
%TO.P,SW1,1,1*%
%TO.N,GND*%
X157609200Y-97082000D03*
%TO.P,SW1,2,2*%
%TO.N,/Controlador/~{RESET}*%
X162709200Y-97082000D03*
%TD*%
D10*
%TO.P,C27,1*%
%TO.N,/I_{IN}_SENSE*%
X178227449Y-86236851D03*
%TO.P,C27,2*%
%TO.N,GND*%
X178227449Y-84511851D03*
%TD*%
D34*
%TO.P,C22,1*%
%TO.N,/LIPO_TO_3V/3V3_OUT*%
X188447400Y-83515200D03*
%TO.P,C22,2*%
%TO.N,GND*%
X185572400Y-83515200D03*
%TD*%
D24*
%TO.P,R14,1*%
%TO.N,/BATT_INPUT*%
X180201700Y-97028000D03*
%TO.P,R14,2*%
%TO.N,Net-(Q1-G)*%
X182026700Y-97028000D03*
%TD*%
D28*
%TO.P,R2,1*%
%TO.N,/LIPO_TO_5V/5V_OUT*%
X165660900Y-87895200D03*
%TO.P,R2,2*%
%TO.N,/LIPO_TO_5V/FB*%
X163835900Y-87895200D03*
%TD*%
D35*
%TO.P,C10,1*%
%TO.N,/LIPO_TO_5V/5V_OUT*%
X171446000Y-87164600D03*
%TO.P,C10,2*%
%TO.N,GND*%
X171446000Y-90414600D03*
%TD*%
D31*
%TO.P,TP7,1,1*%
%TO.N,/I_{5v}_SENSE*%
X189026800Y-66522600D03*
%TD*%
D36*
%TO.P,D1,1,K*%
%TO.N,GND*%
X165874200Y-99958000D03*
%TO.P,D1,2,A*%
%TO.N,Net-(D1-A)*%
X165874200Y-97908000D03*
%TD*%
D11*
%TO.P,C33,1*%
%TO.N,+3.3V*%
X176943043Y-69926080D03*
%TO.P,C33,2*%
%TO.N,GND*%
X176943043Y-71651080D03*
%TD*%
D29*
%TO.P,R10,1,+*%
%TO.N,/CurrentSense_Lipo/V_IN_{1}*%
X174823849Y-91198351D03*
%TO.P,R10,2,-*%
%TO.N,/BATT_INPUT*%
X174823849Y-86398351D03*
%TD*%
D37*
%TO.P,C16,1*%
%TO.N,Net-(U3-FB)*%
X192729400Y-93192600D03*
%TO.P,C16,2*%
%TO.N,/LIPO_TO_3V/3V3_OUT*%
X190654400Y-93192600D03*
%TD*%
D38*
%TO.P,D3,1,K*%
%TO.N,GND*%
X197951200Y-81177200D03*
%TO.P,D3,2,A*%
%TO.N,Net-(D3-A)*%
X195901200Y-81177200D03*
%TD*%
D10*
%TO.P,C28,1*%
%TO.N,/I_{5v}_SENSE*%
X189585600Y-70712500D03*
%TO.P,C28,2*%
%TO.N,GND*%
X189585600Y-68987500D03*
%TD*%
D31*
%TO.P,TP9,1,1*%
%TO.N,/I_{3v3}_SENSE*%
X194056000Y-67056000D03*
%TD*%
D39*
%TO.P,SW2,1,B*%
%TO.N,/BATT_INPUT*%
X180479200Y-99314000D03*
D40*
%TO.P,SW2,2,C*%
%TO.N,unconnected-(SW2-C-Pad2)*%
X182479200Y-99314000D03*
%TO.P,SW2,3,A*%
%TO.N,/Controlador/BATT_INPUT*%
X184479200Y-99314000D03*
%TD*%
D28*
%TO.P,R7,1*%
%TO.N,Net-(R6-Pad2)*%
X188770900Y-91440000D03*
%TO.P,R7,2*%
%TO.N,/LIPO_TO_3V/3V3_OUT*%
X186945900Y-91440000D03*
%TD*%
D41*
%TO.P,U3,1,Vin*%
%TO.N,/Controlador/BATT_INPUT*%
X192803526Y-87871300D03*
%TO.P,U3,2,SW*%
%TO.N,Net-(L2-+)*%
X192303400Y-87871300D03*
%TO.P,U3,3,GND*%
%TO.N,GND*%
X191803274Y-87871300D03*
%TO.P,U3,4,PG*%
%TO.N,unconnected-(U3-PG-Pad4)*%
X191803274Y-89369900D03*
%TO.P,U3,5,EN*%
%TO.N,Net-(U3-EN)*%
X192303400Y-89369900D03*
%TO.P,U3,6,FB*%
%TO.N,Net-(U3-FB)*%
X192803526Y-89369900D03*
%TD*%
D11*
%TO.P,C24,1*%
%TO.N,GND*%
X192532000Y-68987500D03*
%TO.P,C24,2*%
%TO.N,+3.3V*%
X192532000Y-70712500D03*
%TD*%
D42*
%TO.P,R8,1*%
%TO.N,Net-(U3-EN)*%
X199745600Y-88388200D03*
%TO.P,R8,2*%
%TO.N,/Controlador/BATT_INPUT*%
X199745600Y-86563200D03*
%TD*%
D26*
%TO.P,C18,1*%
%TO.N,/LIPO_TO_3V/3V3_OUT*%
X186994800Y-86868000D03*
%TO.P,C18,2*%
%TO.N,GND*%
X188719800Y-86868000D03*
%TD*%
D30*
%TO.P,R18,1*%
%TO.N,/Controlador/V_{5V}_SENSE*%
X170228243Y-75287500D03*
%TO.P,R18,2*%
%TO.N,+5V*%
X170228243Y-77112500D03*
%TD*%
D25*
%TO.P,JP6,1,A*%
%TO.N,/C_UART_TX*%
X182971443Y-59083680D03*
%TO.P,JP6,2,C*%
%TO.N,/Controlador/UART_TX*%
X181671443Y-59083680D03*
%TO.P,JP6,3,B*%
%TO.N,/C_UART_RX*%
X180371443Y-59083680D03*
%TD*%
D43*
%TO.P,D2,1,K*%
%TO.N,/LIPO_TO_3V/3V3_OUT*%
X188569600Y-79095600D03*
%TO.P,D2,2,A*%
%TO.N,GND*%
X185069600Y-79095600D03*
%TD*%
D28*
%TO.P,R3,1*%
%TO.N,/LIPO_TO_5V/FB*%
X164594100Y-89419200D03*
%TO.P,R3,2*%
%TO.N,GND*%
X162769100Y-89419200D03*
%TD*%
D26*
%TO.P,C37,1*%
%TO.N,/Controlador/V_{IN}_SENSE*%
X165153000Y-76962000D03*
%TO.P,C37,2*%
%TO.N,GND*%
X166878000Y-76962000D03*
%TD*%
D12*
%TO.P,C35,1*%
%TO.N,Net-(U3-EN)*%
X199289900Y-91346000D03*
%TO.P,C35,2*%
%TO.N,GND*%
X197564900Y-91346000D03*
%TD*%
D29*
%TO.P,R12,1,+*%
%TO.N,/BATT_BYPASS_SW/BATT_OUT*%
X184475849Y-91198351D03*
%TO.P,R12,2,-*%
%TO.N,/BATT_BYPASS*%
X184475849Y-86398351D03*
%TD*%
D44*
%TO.P,J2,1,Pin_1*%
%TO.N,+3.3V*%
X159004000Y-67056000D03*
D45*
%TO.P,J2,2,Pin_2*%
%TO.N,/Controlador/SWDIO*%
X159004000Y-69596000D03*
%TO.P,J2,3,Pin_3*%
%TO.N,/Controlador/SWCLK*%
X159004000Y-72136000D03*
%TO.P,J2,4,Pin_4*%
%TO.N,GND*%
X159004000Y-74676000D03*
%TD*%
D28*
%TO.P,R16,1*%
%TO.N,/Controlador/V_{IN}_SENSE*%
X163626000Y-76962000D03*
%TO.P,R16,2*%
%TO.N,/Controlador/BATT_INPUT*%
X161801000Y-76962000D03*
%TD*%
%TO.P,R6,1*%
%TO.N,Net-(U3-FB)*%
X194104900Y-91414600D03*
%TO.P,R6,2*%
%TO.N,Net-(R6-Pad2)*%
X192279900Y-91414600D03*
%TD*%
D42*
%TO.P,R24,1*%
%TO.N,Net-(D1-A)*%
X165874200Y-95908500D03*
%TO.P,R24,2*%
%TO.N,/CurrentSense_Lipo/V_IN_{1}*%
X165874200Y-94083500D03*
%TD*%
D46*
%TO.P,JP7,1,A*%
%TO.N,Net-(JP7-A)*%
X163894676Y-64169308D03*
D47*
%TO.P,JP7,2,B*%
%TO.N,Net-(JP7-B)*%
X165194676Y-64169308D03*
%TD*%
D11*
%TO.P,C12,1*%
%TO.N,/Controlador/BATT_INPUT*%
X198221600Y-86616200D03*
%TO.P,C12,2*%
%TO.N,GND*%
X198221600Y-88341200D03*
%TD*%
D48*
%TO.P,J1,1,Pin_1*%
%TO.N,GND*%
X169966000Y-96520000D03*
D49*
%TO.P,J1,2,Pin_2*%
%TO.N,/CurrentSense_Lipo/V_IN_{1}*%
X174966000Y-96520000D03*
%TD*%
D12*
%TO.P,C5,1*%
%TO.N,/LIPO_TO_5V/5V_OUT*%
X163578900Y-84745600D03*
%TO.P,C5,2*%
%TO.N,GND*%
X161853900Y-84745600D03*
%TD*%
D50*
%TO.P,U2,1,PS/SYNC*%
%TO.N,Net-(U2-PS{slash}SYNC)*%
X160035999Y-88334000D03*
%TO.P,U2,2,PG*%
%TO.N,Net-(U2-PG)*%
X160535998Y-88334000D03*
%TO.P,U2,3,VAUX*%
%TO.N,/LIPO_TO_5V/AUX*%
X161036000Y-88334000D03*
%TO.P,U2,4,GND*%
%TO.N,GND*%
X161535998Y-88334000D03*
D51*
%TO.P,U2,5,FB*%
%TO.N,/LIPO_TO_5V/FB*%
X162186000Y-87909000D03*
%TO.P,U2,6,FB2*%
%TO.N,GND*%
X162186000Y-87409001D03*
D52*
%TO.P,U2,7,VOUT*%
%TO.N,/LIPO_TO_5V/5V_OUT*%
X162186000Y-86659000D03*
%TO.P,U2,8,VOUT*%
X162186000Y-86659000D03*
D53*
%TO.P,U2,9,L2*%
%TO.N,Net-(L1--)*%
X161285999Y-86409000D03*
D54*
%TO.P,U2,10,PGND*%
%TO.N,GND*%
X160786000Y-86584001D03*
D53*
%TO.P,U2,11,L1*%
%TO.N,Net-(L1-+)*%
X160286001Y-86409000D03*
D52*
%TO.P,U2,12,Vin*%
%TO.N,/Controlador/BATT_INPUT*%
X159386000Y-86659000D03*
%TO.P,U2,13,Vin*%
X159386000Y-86659000D03*
D51*
%TO.P,U2,14,EN*%
%TO.N,/Controlador/5V_ENABLE*%
X159386000Y-87409001D03*
%TO.P,U2,15,VSEL*%
%TO.N,GND*%
X159386000Y-87909000D03*
%TD*%
D31*
%TO.P,TP6,1,1*%
%TO.N,/I_{IN}_SENSE*%
X176631349Y-82752351D03*
%TD*%
D11*
%TO.P,C30,1*%
%TO.N,+3.3V*%
X181353443Y-69926080D03*
%TO.P,C30,2*%
%TO.N,GND*%
X181353443Y-71651080D03*
%TD*%
D55*
%TO.P,Q1,1,S*%
%TO.N,/BATT_INPUT*%
X181534600Y-93309800D03*
%TO.P,Q1,2,S*%
X181534600Y-93959800D03*
%TO.P,Q1,3,S*%
X181534600Y-94609800D03*
%TO.P,Q1,4,G*%
%TO.N,Net-(Q1-G)*%
X181534600Y-95259800D03*
D56*
%TO.P,Q1,5,D*%
%TO.N,/BATT_BYPASS_SW/BATT_OUT*%
X183489600Y-94284800D03*
%TD*%
D10*
%TO.P,C3,1*%
%TO.N,/Controlador/BATT_INPUT*%
X156366400Y-84693700D03*
%TO.P,C3,2*%
%TO.N,GND*%
X156366400Y-82968700D03*
%TD*%
D57*
%TO.P,L2,1,+*%
%TO.N,Net-(L2-+)*%
X192227200Y-84531200D03*
%TO.P,L2,2,-*%
%TO.N,/LIPO_TO_3V/3V3_OUT*%
X192227200Y-81431200D03*
%TD*%
D31*
%TO.P,TP8,1,1*%
%TO.N,/I_{BYPASS}_SENSE*%
X178536349Y-80212351D03*
%TD*%
D11*
%TO.P,C13,1*%
%TO.N,/Controlador/BATT_INPUT*%
X196697600Y-86616200D03*
%TO.P,C13,2*%
%TO.N,GND*%
X196697600Y-88341200D03*
%TD*%
D34*
%TO.P,C21,1*%
%TO.N,/LIPO_TO_3V/3V3_OUT*%
X188447400Y-81356200D03*
%TO.P,C21,2*%
%TO.N,GND*%
X185572400Y-81356200D03*
%TD*%
D58*
%TO.P,L1,1,+*%
%TO.N,Net-(L1-+)*%
X159436000Y-81189600D03*
%TO.P,L1,2,-*%
%TO.N,Net-(L1--)*%
X162136000Y-81189600D03*
%TD*%
D35*
%TO.P,C11,1*%
%TO.N,/LIPO_TO_5V/5V_OUT*%
X168148000Y-87169500D03*
%TO.P,C11,2*%
%TO.N,GND*%
X168148000Y-90419500D03*
%TD*%
D26*
%TO.P,C2,1*%
%TO.N,/Controlador/BATT_INPUT*%
X157993100Y-84745600D03*
%TO.P,C2,2*%
%TO.N,GND*%
X159718100Y-84745600D03*
%TD*%
D59*
%TO.P,J3,2,BYPASS*%
%TO.N,/BATT_BYPASS*%
X191390000Y-53000000D03*
%TO.P,J3,4,GND*%
%TO.N,GND*%
X188850000Y-53000000D03*
%TO.P,J3,6,3V3*%
%TO.N,+3.3V*%
X186310000Y-53000000D03*
%TO.P,J3,8,UART_TX*%
%TO.N,/C_UART_TX*%
X183770000Y-53000000D03*
%TO.P,J3,10,UART_RX*%
%TO.N,/C_UART_RX*%
X181230000Y-53000000D03*
%TO.P,J3,12,IO1*%
%TO.N,unconnected-(J3-IO1-Pad12)*%
X178690000Y-53000000D03*
%TO.P,J3,14,IO3*%
%TO.N,unconnected-(J3-IO3-Pad14)*%
X176150000Y-53000000D03*
%TO.P,J3,16,GND*%
%TO.N,GND*%
X173610000Y-53000000D03*
%TO.P,J3,18,MOSI*%
%TO.N,/SPI.MOSI*%
X171070000Y-53000000D03*
%TO.P,J3,20,MISO*%
%TO.N,/SPI.MISO*%
X168530000Y-53000000D03*
%TO.P,J3,22,SCK*%
%TO.N,/SPI.SCK*%
X165990000Y-53000000D03*
%TO.P,J3,24,CS0*%
%TO.N,/SPI.CS0*%
X163450000Y-53000000D03*
%TD*%
D60*
%TO.N,GND*%
X166751000Y-59817000D03*
X190881000Y-60833000D03*
X195580000Y-91694000D03*
X158798243Y-64073880D03*
X191008000Y-67310000D03*
X165735000Y-58801000D03*
X179324000Y-72910000D03*
X177038000Y-72898000D03*
X170688000Y-91948000D03*
X168148000Y-79502000D03*
X167386000Y-79502000D03*
X181356000Y-82804000D03*
X164811154Y-90643154D03*
X177038000Y-73660000D03*
X189738000Y-59944000D03*
X189915800Y-88747600D03*
X189915800Y-89636600D03*
X176276000Y-72898000D03*
X155956000Y-80264000D03*
X167386000Y-81026000D03*
X165608000Y-60960000D03*
X173610000Y-56388000D03*
X162081400Y-90181200D03*
X167259000Y-60325000D03*
X164846000Y-80264000D03*
X188595000Y-60833000D03*
X190677800Y-87223600D03*
X188595000Y-59944000D03*
X164846000Y-81026000D03*
X188595000Y-61722000D03*
X190677800Y-88239600D03*
X168148000Y-81026000D03*
X189915800Y-86715600D03*
X196342000Y-91694000D03*
X164592000Y-59944000D03*
X179324000Y-78442000D03*
X163847983Y-93018046D03*
X174498000Y-57404000D03*
X190881000Y-61722000D03*
X165608000Y-79502000D03*
X176276000Y-73660000D03*
X179832000Y-88392000D03*
X179324000Y-73660000D03*
X165608000Y-80264000D03*
X155956000Y-81026000D03*
X190754000Y-74168000D03*
X183896000Y-81534000D03*
X189738000Y-60833000D03*
X166243000Y-59309000D03*
X183896000Y-83312000D03*
X155956000Y-79502000D03*
X164846000Y-79502000D03*
X161700400Y-89038200D03*
X199287200Y-81177200D03*
X167644000Y-91944000D03*
X189738000Y-61722000D03*
X168148000Y-80264000D03*
X177824000Y-72910000D03*
X178574000Y-72910000D03*
X175006000Y-57912000D03*
X166116000Y-61468000D03*
X167386000Y-80264000D03*
X165100000Y-60452000D03*
X159004000Y-88638200D03*
X178193200Y-94107000D03*
X189915800Y-87731600D03*
X161700400Y-89673200D03*
X165608000Y-81026000D03*
X178574000Y-73660000D03*
X173990000Y-56896000D03*
X166291243Y-67121880D03*
X177824000Y-73660000D03*
%TO.N,/SPI.MISO*%
X169418000Y-57150000D03*
X174244000Y-72390000D03*
%TO.N,/SPI.CS1*%
X175943243Y-69153880D03*
%TO.N,/SPI.SCK*%
X171498243Y-65638880D03*
X172514243Y-68518880D03*
%TO.N,/SPI.CS0*%
X172641243Y-70296880D03*
X164592000Y-66802000D03*
%TO.N,/SPI.MOSI*%
X171450000Y-56642000D03*
X175641000Y-71120000D03*
%TO.N,/I2C0_SCL*%
X181912243Y-63692880D03*
%TO.N,/BATT_BYPASS*%
X193342243Y-60390880D03*
X194358243Y-61406880D03*
X194866243Y-61914880D03*
X183896000Y-85090000D03*
X191691243Y-58739880D03*
X184658000Y-85090000D03*
X185420000Y-85090000D03*
X192770743Y-59819380D03*
X193850243Y-60898880D03*
X192199243Y-59247880D03*
%TO.N,/I2C0_SDA*%
X181150243Y-64835880D03*
%TO.N,+5V*%
X171958000Y-76708000D03*
X183415001Y-72163001D03*
X185928000Y-68834000D03*
%TO.N,+3.3V*%
X168831243Y-70042880D03*
X185166000Y-57150000D03*
X167894000Y-67564000D03*
%TO.N,/Controlador/BATT_INPUT*%
X195072000Y-84709000D03*
X197358000Y-84709000D03*
X156239400Y-87006200D03*
X195834000Y-85344000D03*
X156239400Y-87641200D03*
X196596000Y-84709000D03*
X155477400Y-86371200D03*
X198882000Y-84709000D03*
X197358000Y-85344000D03*
X160528000Y-76962000D03*
X195072000Y-85344000D03*
X199644000Y-85344000D03*
X155477400Y-87006200D03*
X156239400Y-85736200D03*
X155477400Y-85736200D03*
X156239400Y-86371200D03*
X198120000Y-84709000D03*
X155477400Y-87641200D03*
X158242000Y-85852000D03*
X195834000Y-84709000D03*
X198882000Y-85344000D03*
X198120000Y-85344000D03*
X196596000Y-85344000D03*
X199644000Y-84709000D03*
%TO.N,/LIPO_TO_5V/5V_OUT*%
X185674000Y-76962000D03*
X187198000Y-76962000D03*
X170942000Y-81026000D03*
X170942000Y-79502000D03*
X170942000Y-80264000D03*
X186436000Y-76962000D03*
%TO.N,/I_{3v3}_SENSE*%
X192024000Y-67818000D03*
X170180000Y-73406000D03*
%TO.N,/I_{5v}_SENSE*%
X173184000Y-76962000D03*
X188214000Y-71374000D03*
%TO.N,/Controlador/~{RESET}*%
X167386000Y-69850000D03*
X166116000Y-91440000D03*
%TO.N,Net-(U3-EN)*%
X193280721Y-90475142D03*
X199288400Y-92557600D03*
%TO.N,/Controlador/SWCLK*%
X173990000Y-66294000D03*
%TO.N,/Controlador/SWDIO*%
X174927243Y-67248880D03*
%TO.N,/Controlador/UART_TX*%
X181277243Y-60263880D03*
X177114062Y-62122000D03*
%TO.N,Net-(L1--)*%
X163576000Y-79767200D03*
X161798000Y-85720600D03*
X163576000Y-82307200D03*
X163576000Y-81037200D03*
X163576000Y-81672200D03*
X163576000Y-82942200D03*
X163576000Y-80402200D03*
%TO.N,Net-(L1-+)*%
X158115000Y-81037200D03*
X158115000Y-81672200D03*
X158115000Y-80402200D03*
X159547601Y-85720600D03*
X158115000Y-82942200D03*
X158115000Y-82307200D03*
X158115000Y-79767200D03*
%TO.N,/BATT_INPUT*%
X174853349Y-84276351D03*
X175615349Y-85038351D03*
X180441349Y-92150351D03*
X179425349Y-92150351D03*
X180441349Y-91388351D03*
X173329349Y-84276351D03*
X179933349Y-90880351D03*
X173329349Y-85038351D03*
X174853349Y-85038351D03*
X179425349Y-91388351D03*
X174091349Y-85038351D03*
X174091349Y-84276351D03*
X179933349Y-92658351D03*
%TO.N,Net-(Q1-G)*%
X185928000Y-94742000D03*
%TO.N,/BYPASS_EN*%
X168642674Y-68343078D03*
%TO.N,/Controlador/5V_ENABLE*%
X158510987Y-87601734D03*
X167005000Y-68961000D03*
%TD*%
D61*
%TO.N,GND*%
X164460308Y-90994000D02*
X164811154Y-90643154D01*
D62*
X184099200Y-83515200D02*
X183896000Y-83312000D01*
X192532000Y-68987500D02*
X189585600Y-68987500D01*
D63*
X178400649Y-89823351D02*
X179832000Y-88392000D01*
X170633243Y-67410380D02*
X169709743Y-66486880D01*
D64*
X181457349Y-82905349D02*
X181356000Y-82804000D01*
D61*
X188946300Y-74228600D02*
X190693400Y-74228600D01*
D63*
X169709743Y-66486880D02*
X166926243Y-66486880D01*
X177566849Y-89823351D02*
X178400649Y-89823351D01*
D62*
X185069600Y-79095600D02*
X184968000Y-79197200D01*
D65*
X173610000Y-53400000D02*
X173610000Y-56388000D01*
D62*
X167644000Y-90232000D02*
X171388000Y-90232000D01*
D63*
X178193200Y-94107000D02*
X178193200Y-90449702D01*
D65*
X173990000Y-56896000D02*
X174498000Y-57404000D01*
D63*
X161990200Y-94875829D02*
X163847983Y-93018046D01*
X161535998Y-87638002D02*
X161535998Y-87757000D01*
D64*
X170942000Y-91694000D02*
X170688000Y-91948000D01*
D66*
X180660000Y-78740000D02*
X179622000Y-78740000D01*
D62*
X185572400Y-83515200D02*
X184099200Y-83515200D01*
D66*
X159004000Y-88646000D02*
X159004000Y-88638200D01*
D62*
X184073800Y-81356200D02*
X183896000Y-81534000D01*
D63*
X174098743Y-70379880D02*
X175671843Y-70379880D01*
D66*
X179622000Y-78740000D02*
X179324000Y-78442000D01*
D61*
X160811400Y-84339200D02*
X160786000Y-84364600D01*
D64*
X170942000Y-90414600D02*
X170942000Y-91694000D01*
D62*
X171388000Y-90232000D02*
X171450000Y-90170000D01*
D64*
X158369000Y-95123000D02*
X161990200Y-95123000D01*
D66*
X181910000Y-78740000D02*
X180660000Y-78740000D01*
D64*
X191058800Y-68987500D02*
X191058800Y-67360800D01*
D65*
X174498000Y-57404000D02*
X175006000Y-57912000D01*
D64*
X181457349Y-84511851D02*
X181457349Y-82905349D01*
X157609200Y-97082000D02*
X157609200Y-95882800D01*
D62*
X185572400Y-79700000D02*
X185069600Y-79197200D01*
D63*
X175671843Y-70379880D02*
X176943043Y-71651080D01*
X161764999Y-87409001D02*
X161535998Y-87638002D01*
X161990200Y-95123000D02*
X161990200Y-94875829D01*
D66*
X182560000Y-78090000D02*
X181910000Y-78740000D01*
D62*
X185572400Y-81356200D02*
X184073800Y-81356200D01*
D64*
X166929243Y-72390000D02*
X166929243Y-76910757D01*
X166878000Y-78994000D02*
X167386000Y-79502000D01*
D61*
X162765000Y-90994000D02*
X164460308Y-90994000D01*
D66*
X159386000Y-88264000D02*
X159004000Y-88646000D01*
D63*
X162186000Y-87409001D02*
X161764999Y-87409001D01*
D61*
X160786000Y-86584001D02*
X160786000Y-84364600D01*
D63*
X165874200Y-99958000D02*
X166528000Y-99958000D01*
D65*
X173610000Y-56388000D02*
X173610000Y-56516000D01*
X173610000Y-56516000D02*
X173990000Y-56896000D01*
D64*
X166878000Y-76962000D02*
X166878000Y-78994000D01*
X191058800Y-67360800D02*
X191008000Y-67310000D01*
X166929243Y-76910757D02*
X166878000Y-76962000D01*
D61*
X190693400Y-74228600D02*
X190754000Y-74168000D01*
D62*
X185572400Y-81356200D02*
X185572400Y-79700000D01*
D64*
X167644000Y-91944000D02*
X167640000Y-91948000D01*
X167644000Y-90419500D02*
X167644000Y-91944000D01*
X157609200Y-95882800D02*
X158369000Y-95123000D01*
D63*
X174070743Y-70407880D02*
X174098743Y-70379880D01*
X161535998Y-87757000D02*
X161535998Y-88334000D01*
X166528000Y-99958000D02*
X169966000Y-96520000D01*
D62*
X185069600Y-79197200D02*
X185069600Y-79095600D01*
D63*
X158893671Y-64169308D02*
X158798243Y-64073880D01*
D64*
X197951200Y-81177200D02*
X199287200Y-81177200D01*
D63*
X166926243Y-66486880D02*
X166291243Y-67121880D01*
D64*
X178227449Y-84511851D02*
X181457349Y-84511851D01*
D63*
X160319776Y-64169308D02*
X158893671Y-64169308D01*
X178193200Y-90449702D02*
X177566849Y-89823351D01*
D66*
X159386000Y-87909000D02*
X159386000Y-88264000D01*
D62*
X185572400Y-81356200D02*
X185572400Y-83515200D01*
D63*
%TO.N,/C_UART_TX*%
X182971443Y-61700180D02*
X182971443Y-61914880D01*
X182971443Y-59083680D02*
X182971443Y-57601680D01*
X182971443Y-61914880D02*
X182971443Y-59083680D01*
X183738243Y-56834880D02*
X183738243Y-53151880D01*
X183738243Y-53151880D02*
X183183243Y-52596880D01*
X182928243Y-61656980D02*
X182971443Y-61700180D01*
X182971443Y-57601680D02*
X183738243Y-56834880D01*
%TO.N,/SPI.MISO*%
X168530000Y-56262000D02*
X168530000Y-53000000D01*
X173633243Y-71405380D02*
X173633243Y-71779243D01*
X169418000Y-57150000D02*
X168530000Y-56262000D01*
X173633243Y-71779243D02*
X174244000Y-72390000D01*
D66*
%TO.N,/SPI.CS1*%
X174070743Y-69407880D02*
X175308243Y-69407880D01*
X175308243Y-69407880D02*
X175689243Y-69407880D01*
X175689243Y-69407880D02*
X175943243Y-69153880D01*
%TO.N,/SPI.SCK*%
X171498243Y-65638880D02*
X171498243Y-62041880D01*
X172633243Y-68399880D02*
X172514243Y-68518880D01*
X172633243Y-67470380D02*
X172633243Y-68399880D01*
X165958243Y-56501880D02*
X165958243Y-53151880D01*
X171498243Y-62041880D02*
X165958243Y-56501880D01*
%TO.N,/SPI.CS0*%
X163418243Y-57392880D02*
X163418243Y-53151880D01*
X172641243Y-70296880D02*
X172641243Y-70347562D01*
X173133243Y-70839562D02*
X173133243Y-71345380D01*
X163139243Y-66867880D02*
X161211243Y-64939880D01*
X161211243Y-64939880D02*
X161211243Y-59599880D01*
X163322000Y-66867880D02*
X163139243Y-66867880D01*
X164526120Y-66867880D02*
X163322000Y-66867880D01*
X164640243Y-66867880D02*
X163322000Y-66867880D01*
X172641243Y-70347562D02*
X173133243Y-70839562D01*
X164592000Y-66802000D02*
X164526120Y-66867880D01*
X161211243Y-59599880D02*
X163418243Y-57392880D01*
D63*
%TO.N,/SPI.MOSI*%
X171070000Y-56262000D02*
X171070000Y-53000000D01*
X171450000Y-56642000D02*
X171070000Y-56262000D01*
X175641000Y-71094328D02*
X175454552Y-70907880D01*
X175454552Y-70907880D02*
X174130743Y-70907880D01*
X175641000Y-71120000D02*
X175641000Y-71094328D01*
D66*
%TO.N,/I2C0_SCL*%
X178724777Y-68518880D02*
X182039243Y-65204414D01*
X175691243Y-68564453D02*
X175736815Y-68518880D01*
X175469815Y-68785880D02*
X175691243Y-68564452D01*
X175469816Y-68785880D02*
X175469815Y-68785880D01*
X175691243Y-68564452D02*
X175691243Y-68564453D01*
X174070743Y-68907880D02*
X175347816Y-68907880D01*
X182039243Y-63819880D02*
X181912243Y-63692880D01*
X175347816Y-68907880D02*
X175469816Y-68785880D01*
X175736815Y-68518880D02*
X178724777Y-68518880D01*
X182039243Y-65204414D02*
X182039243Y-63819880D01*
D63*
%TO.N,/C_UART_RX*%
X181198243Y-56707880D02*
X181198243Y-53151880D01*
X180371443Y-57534680D02*
X181198243Y-56707880D01*
X180388243Y-61630580D02*
X180371443Y-61647380D01*
X180371443Y-59083680D02*
X180371443Y-57534680D01*
X180371443Y-61647380D02*
X180371443Y-61914880D01*
X180371443Y-61914880D02*
X180371443Y-59083680D01*
D65*
%TO.N,/BATT_BYPASS*%
X191358243Y-58406880D02*
X192199243Y-59247880D01*
D61*
X182604348Y-89173351D02*
X184475849Y-87301850D01*
D65*
X191390000Y-53000000D02*
X191390000Y-58438637D01*
X191358243Y-56659880D02*
X191358243Y-53406880D01*
X191390000Y-58438637D02*
X194866243Y-61914880D01*
X193342243Y-60390880D02*
X192770743Y-59819380D01*
X194866243Y-61914880D02*
X194358243Y-61406880D01*
X191358243Y-58406880D02*
X191691243Y-58739880D01*
D61*
X184475849Y-87301850D02*
X184475849Y-86398351D01*
D65*
X193850243Y-60898880D02*
X193342243Y-60390880D01*
D61*
X181791849Y-89173351D02*
X182604348Y-89173351D01*
D65*
X194358243Y-61406880D02*
X193850243Y-60898880D01*
X191390000Y-58438637D02*
X192199243Y-59247880D01*
X192770743Y-59819380D02*
X192199243Y-59247880D01*
X191358243Y-56659880D02*
X191358243Y-58406880D01*
X192199243Y-59247880D02*
X191691243Y-58739880D01*
D66*
%TO.N,/I2C0_SDA*%
X181150243Y-64835880D02*
X181150243Y-64962880D01*
X181150243Y-64962880D02*
X177975243Y-68137880D01*
X175313243Y-68407880D02*
X174070743Y-68407880D01*
X175583243Y-68137880D02*
X175313243Y-68407880D01*
X177975243Y-68137880D02*
X175583243Y-68137880D01*
D61*
%TO.N,+5V*%
X186220400Y-70866000D02*
X186232800Y-70853600D01*
X183415001Y-72108999D02*
X184658000Y-70866000D01*
D65*
X185928000Y-68834000D02*
X185928000Y-70548800D01*
D61*
X171704000Y-76962000D02*
X170378743Y-76962000D01*
X188946300Y-72928600D02*
X188210408Y-72928600D01*
X183415001Y-72163001D02*
X183415001Y-72108999D01*
X170378743Y-76962000D02*
X170228243Y-77112500D01*
X171958000Y-76708000D02*
X171704000Y-76962000D01*
X184658000Y-70866000D02*
X186220400Y-70866000D01*
D65*
X185928000Y-70548800D02*
X186232800Y-70853600D01*
D61*
X186232800Y-70950992D02*
X186232800Y-70853600D01*
X188210408Y-72928600D02*
X186232800Y-70950992D01*
D65*
%TO.N,+3.3V*%
X186278243Y-63754000D02*
X186278243Y-61976000D01*
D66*
X167307243Y-67502880D02*
X168577243Y-67502880D01*
X176924843Y-69907880D02*
X176943043Y-69926080D01*
D63*
X182372000Y-76454000D02*
X182372000Y-70944637D01*
D66*
X174070743Y-69907880D02*
X175935243Y-69907880D01*
X173034304Y-69907880D02*
X172870304Y-69743880D01*
X175953443Y-69926080D02*
X176943043Y-69926080D01*
D61*
X193171300Y-72278600D02*
X194459800Y-72278600D01*
D66*
X170633242Y-69907880D02*
X170195743Y-69907880D01*
X172870304Y-69743880D02*
X170797242Y-69743880D01*
D65*
X187017522Y-64262000D02*
X189484000Y-64262000D01*
D63*
X186151243Y-57342880D02*
X186278243Y-57215880D01*
D66*
X159958880Y-68010880D02*
X166799243Y-68010880D01*
D63*
X181457349Y-87538851D02*
X181791849Y-87873351D01*
D65*
X186278243Y-61976000D02*
X186278243Y-62453243D01*
D63*
X185166000Y-57150000D02*
X186212363Y-57150000D01*
D66*
X170797242Y-69743880D02*
X170633242Y-69907880D01*
X168982243Y-67907880D02*
X170135743Y-67907880D01*
D61*
X193171300Y-73578600D02*
X193983799Y-73578600D01*
D65*
X186278243Y-53406880D02*
X186278243Y-57215880D01*
D63*
X182880000Y-79710000D02*
X182560000Y-79390000D01*
D65*
X195884800Y-66090800D02*
X195884800Y-66785660D01*
D61*
X193171300Y-71351800D02*
X192532000Y-70712500D01*
X193983799Y-73578600D02*
X194459800Y-73102599D01*
D66*
X166799243Y-68010880D02*
X167307243Y-67502880D01*
X159004000Y-67056000D02*
X159958880Y-68010880D01*
X175935243Y-69907880D02*
X175953443Y-69926080D01*
D63*
X181457349Y-86236851D02*
X181457349Y-87538851D01*
X181540029Y-86236851D02*
X182880000Y-84896880D01*
D65*
X185774261Y-65505261D02*
X187017522Y-64262000D01*
D61*
X194459800Y-73102599D02*
X194459800Y-72278600D01*
D65*
X186278243Y-63754000D02*
X186786243Y-64262000D01*
X181353443Y-69926080D02*
X176943043Y-69926080D01*
D66*
X168577243Y-67502880D02*
X168982243Y-67907880D01*
D61*
X194459800Y-72278600D02*
X195884800Y-70853600D01*
D63*
X182880000Y-84896880D02*
X182880000Y-79710000D01*
D65*
X181353443Y-69926080D02*
X185774261Y-65505261D01*
X195887200Y-66788060D02*
X195887200Y-68136740D01*
D61*
X193171300Y-72278600D02*
X193171300Y-71351800D01*
D65*
X186786243Y-64262000D02*
X188087000Y-64262000D01*
X186278243Y-61976000D02*
X186278243Y-57215880D01*
D63*
X183388000Y-77470000D02*
X182372000Y-76454000D01*
X185303243Y-57342880D02*
X186151243Y-57342880D01*
X182560000Y-79390000D02*
X183388000Y-78562000D01*
X186212363Y-57150000D02*
X186278243Y-57215880D01*
D65*
X189484000Y-64262000D02*
X194056000Y-64262000D01*
X195884800Y-66785660D02*
X195887200Y-66788060D01*
X188087000Y-64262000D02*
X189484000Y-64262000D01*
D66*
X168966243Y-69907880D02*
X170195743Y-69907880D01*
D63*
X181457349Y-86236851D02*
X181540029Y-86236851D01*
D66*
X168831243Y-70042880D02*
X168966243Y-69907880D01*
D63*
X182372000Y-70944637D02*
X181353443Y-69926080D01*
D66*
X174070743Y-69907880D02*
X173034304Y-69907880D01*
D65*
X185774261Y-65505261D02*
X186278243Y-65001280D01*
X195887200Y-68136740D02*
X195884800Y-68139140D01*
X186278243Y-62453243D02*
X188087000Y-64262000D01*
X194056000Y-64262000D02*
X195884800Y-66090800D01*
X186278243Y-65001280D02*
X186278243Y-63754000D01*
D63*
X183388000Y-78562000D02*
X183388000Y-77470000D01*
D65*
X195884800Y-68139140D02*
X195884800Y-70853600D01*
D66*
%TO.N,/Controlador/BATT_INPUT*%
X192803526Y-87871300D02*
X192803526Y-87510874D01*
X193700400Y-86614000D02*
X195171400Y-86614000D01*
D61*
X157993100Y-85603100D02*
X158242000Y-85852000D01*
X157993100Y-84745600D02*
X157993100Y-85603100D01*
D64*
X195226600Y-86563200D02*
X195173600Y-86616200D01*
D66*
X159386000Y-86659000D02*
X159049000Y-86659000D01*
X159049000Y-86659000D02*
X158242000Y-85852000D01*
D61*
X160528000Y-76962000D02*
X161801000Y-76962000D01*
D66*
X192803526Y-87510874D02*
X193700400Y-86614000D01*
X161798000Y-76962000D02*
X161801000Y-76962000D01*
D61*
X157941200Y-84693700D02*
X157993100Y-84745600D01*
D66*
X195171400Y-86614000D02*
X195173600Y-86616200D01*
D63*
%TO.N,/LIPO_TO_5V/AUX*%
X161036000Y-90990000D02*
X161040000Y-90994000D01*
X161036000Y-88334000D02*
X161036000Y-90990000D01*
%TO.N,/LIPO_TO_5V/5V_OUT*%
X163681600Y-92518000D02*
X165660900Y-90538700D01*
X165660900Y-90538700D02*
X165660900Y-87895200D01*
D61*
X188133801Y-73578600D02*
X186232800Y-75479601D01*
X188946300Y-73578600D02*
X188133801Y-73578600D01*
D63*
X162816100Y-92518000D02*
X163681600Y-92518000D01*
D62*
X186194400Y-75692000D02*
X186232800Y-75653600D01*
D61*
X186232800Y-75479601D02*
X186232800Y-75653600D01*
D66*
%TO.N,Net-(U3-FB)*%
X194184900Y-91334600D02*
X194104900Y-91414600D01*
X192803526Y-89730326D02*
X192988739Y-89915539D01*
X194184900Y-89890600D02*
X194184900Y-91334600D01*
X192803526Y-89369900D02*
X192803526Y-89730326D01*
X194104900Y-91817100D02*
X192729400Y-93192600D01*
X194104900Y-91414600D02*
X194104900Y-91817100D01*
X192988739Y-89915539D02*
X194159961Y-89915539D01*
X194159961Y-89915539D02*
X194184900Y-89890600D01*
%TO.N,/LIPO_TO_3V/3V3_OUT*%
X188698500Y-93192600D02*
X186945900Y-91440000D01*
D61*
X194459800Y-74228600D02*
X195884800Y-75653600D01*
D64*
X186994800Y-85404000D02*
X186994800Y-84967800D01*
X186994800Y-91391100D02*
X186945900Y-91440000D01*
X186994800Y-84967800D02*
X188447400Y-83515200D01*
X186994800Y-85404000D02*
X186994800Y-91391100D01*
D61*
X193171300Y-74228600D02*
X194459800Y-74228600D01*
D66*
X190654400Y-93192600D02*
X188698500Y-93192600D01*
D61*
%TO.N,/I_{BYPASS}_SENSE*%
X179171349Y-80847351D02*
X178536349Y-80212351D01*
X178409349Y-80212351D02*
X178028349Y-79831351D01*
X179700649Y-86236851D02*
X180030849Y-86236851D01*
X178536349Y-80212351D02*
X178409349Y-80212351D01*
X179700649Y-87244650D02*
X179700649Y-86236851D01*
X179700649Y-86236851D02*
X180516149Y-85421351D01*
X180979350Y-88523351D02*
X179700649Y-87244650D01*
D66*
X172133243Y-73581243D02*
X178536349Y-79984349D01*
X178536349Y-79984349D02*
X178536349Y-80212351D01*
D61*
X181820957Y-85421351D02*
X182372000Y-84870308D01*
X182372000Y-84870308D02*
X182372000Y-82270002D01*
D66*
X172133243Y-71345380D02*
X172133243Y-73581243D01*
D61*
X180516149Y-85421351D02*
X181820957Y-85421351D01*
X180949349Y-80847351D02*
X179171349Y-80847351D01*
X181791849Y-88523351D02*
X180979350Y-88523351D01*
X182372000Y-82270002D02*
X180949349Y-80847351D01*
%TO.N,/I_{3v3}_SENSE*%
X192054600Y-72928600D02*
X193171300Y-72928600D01*
X194310000Y-68834000D02*
X194310000Y-67564000D01*
X191058800Y-71932800D02*
X192054600Y-72928600D01*
X193040000Y-66802000D02*
X193802000Y-66802000D01*
X191968300Y-69803000D02*
X193341000Y-69803000D01*
X191058800Y-70712500D02*
X191058800Y-71932800D01*
X192024000Y-67818000D02*
X193040000Y-66802000D01*
X194310000Y-67564000D02*
X194056000Y-67310000D01*
X194056000Y-67310000D02*
X194056000Y-67056000D01*
D66*
X170633243Y-71405380D02*
X170633243Y-72952757D01*
D61*
X193802000Y-66802000D02*
X194056000Y-67056000D01*
D66*
X170633243Y-72952757D02*
X170180000Y-73406000D01*
D61*
X193341000Y-69803000D02*
X194310000Y-68834000D01*
X191058800Y-70712500D02*
X191968300Y-69803000D01*
%TO.N,/I_{IN}_SENSE*%
X176631349Y-84640751D02*
X176631349Y-82752351D01*
D66*
X173736000Y-79857002D02*
X176631349Y-82752351D01*
X173736000Y-75919428D02*
X173736000Y-79857002D01*
D61*
X177566849Y-86897451D02*
X178227449Y-86236851D01*
D66*
X171633243Y-73816671D02*
X173736000Y-75919428D01*
X171633243Y-71345380D02*
X171633243Y-73816671D01*
D61*
X178227449Y-86236851D02*
X176631349Y-84640751D01*
X177566849Y-87873351D02*
X177566849Y-86897451D01*
D66*
%TO.N,/I_{5v}_SENSE*%
X173228000Y-75946000D02*
X173228000Y-76918000D01*
X189585600Y-70712500D02*
X189585600Y-71639300D01*
X188645800Y-66903600D02*
X189026800Y-66522600D01*
X189585600Y-70712500D02*
X188645800Y-69772700D01*
X188214000Y-71546300D02*
X188946300Y-72278600D01*
X171133243Y-71345380D02*
X171133243Y-73851243D01*
X188645800Y-69772700D02*
X188645800Y-66903600D01*
X188214000Y-71374000D02*
X188214000Y-71546300D01*
X173228000Y-76918000D02*
X173184000Y-76962000D01*
X171133243Y-73851243D02*
X173228000Y-75946000D01*
X189585600Y-71639300D02*
X188946300Y-72278600D01*
%TO.N,/Controlador/~{RESET}*%
X167386000Y-69850000D02*
X167828120Y-69407880D01*
X166116000Y-91440000D02*
X166116000Y-91694000D01*
X162709200Y-96129000D02*
X163715200Y-95123000D01*
X162709200Y-97082000D02*
X162709200Y-96129000D01*
X166116000Y-91694000D02*
X163715200Y-94094800D01*
X167828120Y-69407880D02*
X170195743Y-69407880D01*
X163715200Y-94094800D02*
X163715200Y-95123000D01*
D63*
%TO.N,Net-(U3-EN)*%
X199288400Y-91347500D02*
X199289900Y-91346000D01*
X199289900Y-89910700D02*
X199335400Y-89865200D01*
X192633942Y-90475142D02*
X193280721Y-90475142D01*
X199289900Y-91346000D02*
X199289900Y-89910700D01*
X199335400Y-88798400D02*
X199745600Y-88388200D01*
X199335400Y-89865200D02*
X199335400Y-88798400D01*
X192303400Y-90144600D02*
X192633942Y-90475142D01*
X199288400Y-92557600D02*
X199288400Y-91347500D01*
X192303400Y-89369900D02*
X192303400Y-90144600D01*
D66*
%TO.N,/Controlador/V_{5V}_SENSE*%
X169363243Y-70907880D02*
X170135743Y-70907880D01*
X168654243Y-71616880D02*
X169363243Y-70907880D01*
X168654243Y-73386480D02*
X168654243Y-72390000D01*
X168704243Y-73436480D02*
X168654243Y-73386480D01*
X168654243Y-72390000D02*
X168654243Y-71616880D01*
X170077743Y-75287500D02*
X168704243Y-73914000D01*
X168704243Y-73914000D02*
X168704243Y-73436480D01*
X170228243Y-75287500D02*
X170077743Y-75287500D01*
%TO.N,/Controlador/V_{IN}_SENSE*%
X169079550Y-70657000D02*
X169328670Y-70407880D01*
X165153000Y-75538800D02*
X165103000Y-75488800D01*
X165153000Y-76962000D02*
X165153000Y-75538800D01*
X163626000Y-76962000D02*
X165153000Y-76962000D01*
X169328670Y-70407880D02*
X170195743Y-70407880D01*
X165103000Y-75488800D02*
X165103000Y-72641000D01*
X167087000Y-70657000D02*
X169079550Y-70657000D01*
X165103000Y-72641000D02*
X167087000Y-70657000D01*
D63*
%TO.N,Net-(D1-A)*%
X165874200Y-95908500D02*
X165874200Y-97908000D01*
D64*
%TO.N,Net-(D3-A)*%
X195910200Y-81168200D02*
X195910200Y-79441600D01*
D61*
%TO.N,/CurrentSense_Lipo/V_IN_{1}*%
X176754350Y-89173351D02*
X174823849Y-91103852D01*
D63*
X172172000Y-93726000D02*
X174966000Y-96520000D01*
D61*
X174823849Y-91103852D02*
X174823849Y-91198351D01*
X177566849Y-89173351D02*
X176754350Y-89173351D01*
D63*
X166485700Y-93726000D02*
X172172000Y-93726000D01*
X166128200Y-94083500D02*
X166485700Y-93726000D01*
X165874200Y-94083500D02*
X166128200Y-94083500D01*
D66*
%TO.N,/Controlador/SWCLK*%
X173633243Y-66650757D02*
X173633243Y-67410380D01*
X173990000Y-66294000D02*
X173633243Y-66650757D01*
%TO.N,/Controlador/SWDIO*%
X174649243Y-67907880D02*
X174130743Y-67907880D01*
X174927243Y-67248880D02*
X174927243Y-67629880D01*
X174927243Y-67629880D02*
X174649243Y-67907880D01*
D63*
%TO.N,/Controlador/UART_RX*%
X180873323Y-63119000D02*
X179451000Y-63119000D01*
X181671443Y-62320880D02*
X180873323Y-63119000D01*
X172466000Y-65659000D02*
X171633243Y-66491757D01*
X172466000Y-63627000D02*
X172466000Y-65659000D01*
X181671443Y-61914880D02*
X181671443Y-62320880D01*
X179451000Y-63119000D02*
X177927000Y-61595000D01*
X174498000Y-61595000D02*
X172466000Y-63627000D01*
X177927000Y-61595000D02*
X174498000Y-61595000D01*
X171633243Y-66491757D02*
X171633243Y-67470380D01*
D66*
%TO.N,/Controlador/UART_TX*%
X177114062Y-62122000D02*
X176930000Y-62306062D01*
X172819000Y-64036000D02*
X172819000Y-65805218D01*
X181277243Y-60263880D02*
X181671443Y-59869680D01*
X176930000Y-62306062D02*
X174548938Y-62306062D01*
X174548938Y-62306062D02*
X172819000Y-64036000D01*
X181671443Y-59869680D02*
X181671443Y-59083680D01*
X172819000Y-65805218D02*
X172133243Y-66490975D01*
X172133243Y-66490975D02*
X172133243Y-67470380D01*
%TO.N,Net-(JP7-B)*%
X168672671Y-64169308D02*
X171133243Y-66629880D01*
X165194676Y-64169308D02*
X168672671Y-64169308D01*
X171133243Y-66629880D02*
X171133243Y-67470380D01*
%TO.N,Net-(JP7-A)*%
X163894676Y-64169308D02*
X162144776Y-64169308D01*
D63*
%TO.N,Net-(L1--)*%
X161285999Y-86083113D02*
X161285999Y-86409000D01*
X161648512Y-85720600D02*
X161285999Y-86083113D01*
X161798000Y-85720600D02*
X161648512Y-85720600D01*
%TO.N,Net-(L1-+)*%
X159547601Y-85720600D02*
X159597601Y-85720600D01*
X160286001Y-86409000D02*
X160286001Y-86099868D01*
X159597601Y-85720600D02*
X160286001Y-86409000D01*
D61*
%TO.N,/BATT_INPUT*%
X177566849Y-88523351D02*
X176814349Y-88523351D01*
X176814349Y-88523351D02*
X174823849Y-86532851D01*
X174823849Y-86532851D02*
X174823849Y-86398351D01*
%TO.N,/BATT_BYPASS_SW/BATT_OUT*%
X181791849Y-89823351D02*
X183100849Y-89823351D01*
X183100849Y-89823351D02*
X184475849Y-91198351D01*
D66*
%TO.N,Net-(Q1-G)*%
X185928000Y-95504000D02*
X185928000Y-94742000D01*
X182026700Y-97028000D02*
X182026700Y-95751900D01*
X182026700Y-97028000D02*
X184404000Y-97028000D01*
X182026700Y-95751900D02*
X181534600Y-95259800D01*
X184404000Y-97028000D02*
X185928000Y-95504000D01*
D63*
%TO.N,/BYPASS_EN*%
X168707476Y-68407880D02*
X170195743Y-68407880D01*
X168642674Y-68343078D02*
X168707476Y-68407880D01*
%TO.N,Net-(U2-PS{slash}SYNC)*%
X157509400Y-89165200D02*
X159768598Y-89165200D01*
X160035999Y-88897799D02*
X160035999Y-88334000D01*
X159768598Y-89165200D02*
X160035999Y-88897799D01*
%TO.N,/LIPO_TO_5V/FB*%
X163822100Y-87909000D02*
X163835900Y-87895200D01*
X163835900Y-87895200D02*
X163835900Y-88661000D01*
X163835900Y-88661000D02*
X164594100Y-89419200D01*
X162186000Y-87909000D02*
X163822100Y-87909000D01*
%TO.N,Net-(U2-PG)*%
X159973200Y-89724000D02*
X159973200Y-91500100D01*
X159973200Y-91500100D02*
X160991100Y-92518000D01*
X160535998Y-88334000D02*
X160535998Y-89161202D01*
X160535998Y-89161202D02*
X159973200Y-89724000D01*
D66*
%TO.N,Net-(R6-Pad2)*%
X192279900Y-91414600D02*
X188796300Y-91414600D01*
X188796300Y-91414600D02*
X188770900Y-91440000D01*
%TO.N,/Controlador/TEMP_SENSOR*%
X172633243Y-73065243D02*
X172633243Y-71345380D01*
X179720000Y-79390000D02*
X179324000Y-78994000D01*
X180660000Y-79390000D02*
X179720000Y-79390000D01*
X179324000Y-78994000D02*
X178562000Y-78994000D01*
X178562000Y-78994000D02*
X172633243Y-73065243D01*
D63*
%TO.N,/Controlador/5V_ENABLE*%
X168188243Y-68907880D02*
X170195743Y-68907880D01*
X158510987Y-87601734D02*
X158510987Y-87572215D01*
X167005000Y-68961000D02*
X167500123Y-68961000D01*
X158510987Y-87572215D02*
X158674201Y-87409001D01*
X167500123Y-68961000D02*
X167561243Y-68899880D01*
X158674201Y-87409001D02*
X159386000Y-87409001D01*
X168180243Y-68899880D02*
X168188243Y-68907880D01*
X167561243Y-68899880D02*
X168180243Y-68899880D01*
%TO.N,Net-(U1-PA15)*%
X174498000Y-64770000D02*
X174879000Y-64770000D01*
X173133243Y-66134757D02*
X174498000Y-64770000D01*
X173133243Y-67470380D02*
X173133243Y-66134757D01*
%TD*%
%TA.AperFunction,Conductor*%
%TO.N,GND*%
G36*
X181296482Y-71195765D02*
G01*
X181342237Y-71248569D01*
X181353443Y-71300080D01*
X181353443Y-71651080D01*
X181704443Y-71651080D01*
X181771482Y-71670765D01*
X181817237Y-71723569D01*
X181828443Y-71775080D01*
X181828443Y-72658164D01*
X181855662Y-72693250D01*
X181864243Y-72738575D01*
X181864243Y-73295518D01*
X181844558Y-73362557D01*
X181827924Y-73383199D01*
X181150562Y-74060561D01*
X181089239Y-74094046D01*
X181062881Y-74096880D01*
X175742243Y-74096880D01*
X175675204Y-74077195D01*
X175629449Y-74024391D01*
X175618243Y-73972880D01*
X175618243Y-72042473D01*
X175627188Y-72012009D01*
X175634489Y-71981113D01*
X175636960Y-71978727D01*
X175637928Y-71975434D01*
X175661916Y-71954648D01*
X175684768Y-71932598D01*
X175689145Y-71931053D01*
X175690732Y-71929679D01*
X175718051Y-71920856D01*
X175719841Y-71920500D01*
X175719842Y-71920500D01*
X175821422Y-71900294D01*
X175891013Y-71906521D01*
X175946190Y-71949384D01*
X175968971Y-72009309D01*
X175978362Y-72101232D01*
X176032589Y-72264880D01*
X176032594Y-72264891D01*
X176123095Y-72411614D01*
X176123098Y-72411618D01*
X176245004Y-72533524D01*
X176245008Y-72533527D01*
X176391737Y-72624031D01*
X176468043Y-72649315D01*
X177418043Y-72649315D01*
X177494346Y-72624032D01*
X177609945Y-72552729D01*
X177677337Y-72534288D01*
X177740141Y-72552729D01*
X177855739Y-72624032D01*
X177932043Y-72649315D01*
X178882043Y-72649315D01*
X178958346Y-72624032D01*
X179078545Y-72549892D01*
X179145938Y-72531451D01*
X179208741Y-72549892D01*
X179328939Y-72624032D01*
X179405243Y-72649315D01*
X180355243Y-72649315D01*
X180431546Y-72624032D01*
X180551745Y-72549892D01*
X180619138Y-72531451D01*
X180681941Y-72549892D01*
X180802139Y-72624032D01*
X180878443Y-72649315D01*
X180878443Y-72126080D01*
X180355243Y-72126080D01*
X180355243Y-72649315D01*
X179405243Y-72649315D01*
X179405243Y-72126080D01*
X178882043Y-72126080D01*
X178882043Y-72649315D01*
X177932043Y-72649315D01*
X177932043Y-72126080D01*
X177418043Y-72126080D01*
X177418043Y-72649315D01*
X176468043Y-72649315D01*
X176468043Y-71775080D01*
X176487728Y-71708041D01*
X176540532Y-71662286D01*
X176592043Y-71651080D01*
X176943043Y-71651080D01*
X176943043Y-71300080D01*
X176962728Y-71233041D01*
X177015532Y-71187286D01*
X177067043Y-71176080D01*
X181229443Y-71176080D01*
X181296482Y-71195765D01*
G37*
%TD.AperFunction*%
%TD*%
%TA.AperFunction,Conductor*%
%TO.N,GND*%
G36*
X169463459Y-78371261D02*
G01*
X169568623Y-78385106D01*
X169599891Y-78393484D01*
X169690318Y-78430940D01*
X169718352Y-78447125D01*
X169796002Y-78506709D01*
X169818891Y-78529598D01*
X169878474Y-78607248D01*
X169894659Y-78635281D01*
X169932115Y-78725708D01*
X169940493Y-78756975D01*
X169954339Y-78862139D01*
X169955400Y-78878325D01*
X169955400Y-82468015D01*
X169935715Y-82535054D01*
X169882911Y-82580809D01*
X169818801Y-82591373D01*
X169810264Y-82590501D01*
X169810242Y-82590500D01*
X169773600Y-82590500D01*
X169773600Y-83504000D01*
X169753915Y-83571039D01*
X169701111Y-83616794D01*
X169649600Y-83628000D01*
X169523600Y-83628000D01*
X169523600Y-83754000D01*
X169503915Y-83821039D01*
X169451111Y-83866794D01*
X169399600Y-83878000D01*
X164129001Y-83878000D01*
X164110793Y-83896207D01*
X164109316Y-83901239D01*
X164056512Y-83946994D01*
X164005001Y-83958200D01*
X162698345Y-83958200D01*
X162631306Y-83938515D01*
X162620413Y-83929737D01*
X162620101Y-83930133D01*
X162614434Y-83925652D01*
X162467711Y-83835151D01*
X162467700Y-83835146D01*
X162304052Y-83780919D01*
X162203054Y-83770600D01*
X162103900Y-83770600D01*
X162103900Y-84621600D01*
X162084215Y-84688639D01*
X162031411Y-84734394D01*
X161979900Y-84745600D01*
X161853900Y-84745600D01*
X161853900Y-84871600D01*
X161834215Y-84938639D01*
X161781411Y-84984394D01*
X161729900Y-84995600D01*
X159842100Y-84995600D01*
X159775061Y-84975915D01*
X159729306Y-84923111D01*
X159718100Y-84871600D01*
X159718100Y-84745600D01*
X159592100Y-84745600D01*
X159525061Y-84725915D01*
X159479306Y-84673111D01*
X159468100Y-84621600D01*
X159468100Y-83770600D01*
X159968100Y-83770600D01*
X159968100Y-84495600D01*
X161603900Y-84495600D01*
X161603900Y-83770599D01*
X161504760Y-83770600D01*
X161504744Y-83770601D01*
X161403747Y-83780919D01*
X161240099Y-83835146D01*
X161240088Y-83835151D01*
X161093365Y-83925652D01*
X161093361Y-83925655D01*
X160971454Y-84047562D01*
X160891538Y-84177126D01*
X160839590Y-84223850D01*
X160770627Y-84235071D01*
X160706545Y-84207228D01*
X160680462Y-84177126D01*
X160600545Y-84047562D01*
X160478638Y-83925655D01*
X160478634Y-83925652D01*
X160331911Y-83835151D01*
X160331900Y-83835146D01*
X160168252Y-83780919D01*
X160067254Y-83770600D01*
X159968100Y-83770600D01*
X159468100Y-83770600D01*
X159468100Y-83770599D01*
X159368960Y-83770600D01*
X159368944Y-83770601D01*
X159267947Y-83780919D01*
X159104299Y-83835146D01*
X159104294Y-83835148D01*
X158968497Y-83918910D01*
X158901105Y-83937350D01*
X158834441Y-83916428D01*
X158789671Y-83862786D01*
X158784078Y-83835878D01*
X158779400Y-83831200D01*
X158279400Y-83831200D01*
X157345629Y-83831200D01*
X157278590Y-83811515D01*
X157232835Y-83758711D01*
X157222891Y-83689553D01*
X157240091Y-83642102D01*
X157276850Y-83582507D01*
X157276853Y-83582500D01*
X157331080Y-83418852D01*
X157341399Y-83317854D01*
X157341400Y-83317841D01*
X157341400Y-83218700D01*
X156490400Y-83218700D01*
X156423361Y-83199015D01*
X156377606Y-83146211D01*
X156366400Y-83094700D01*
X156366400Y-82968700D01*
X156240400Y-82968700D01*
X156173361Y-82949015D01*
X156127606Y-82896211D01*
X156116400Y-82844700D01*
X156116400Y-82718700D01*
X156616400Y-82718700D01*
X157341399Y-82718700D01*
X157341399Y-82619560D01*
X157341398Y-82619545D01*
X157331080Y-82518547D01*
X157276853Y-82354899D01*
X157276848Y-82354888D01*
X157186347Y-82208165D01*
X157186344Y-82208161D01*
X157064438Y-82086255D01*
X157064434Y-82086252D01*
X156917711Y-81995751D01*
X156917700Y-81995746D01*
X156754052Y-81941519D01*
X156653054Y-81931200D01*
X156616400Y-81931200D01*
X156616400Y-82718700D01*
X156116400Y-82718700D01*
X156116400Y-81931200D01*
X156079761Y-81931200D01*
X156079743Y-81931201D01*
X155978747Y-81941519D01*
X155815099Y-81995746D01*
X155815088Y-81995751D01*
X155668365Y-82086252D01*
X155668361Y-82086255D01*
X155562081Y-82192536D01*
X155500758Y-82226021D01*
X155431066Y-82221037D01*
X155375133Y-82179165D01*
X155350716Y-82113701D01*
X155350400Y-82104855D01*
X155350400Y-79701308D01*
X157614500Y-79701308D01*
X157614500Y-79833091D01*
X157648609Y-79960388D01*
X157648609Y-79960389D01*
X157684584Y-80022700D01*
X157701057Y-80090601D01*
X157684584Y-80146700D01*
X157648609Y-80209010D01*
X157648609Y-80209011D01*
X157614500Y-80336308D01*
X157614500Y-80468091D01*
X157648609Y-80595388D01*
X157648609Y-80595389D01*
X157684584Y-80657700D01*
X157701057Y-80725601D01*
X157684584Y-80781700D01*
X157648609Y-80844010D01*
X157648609Y-80844011D01*
X157614500Y-80971308D01*
X157614500Y-81103091D01*
X157648609Y-81230388D01*
X157648609Y-81230389D01*
X157684584Y-81292700D01*
X157701057Y-81360601D01*
X157684584Y-81416700D01*
X157648609Y-81479010D01*
X157648609Y-81479011D01*
X157614500Y-81606308D01*
X157614500Y-81738091D01*
X157648609Y-81865388D01*
X157648609Y-81865389D01*
X157684584Y-81927700D01*
X157701057Y-81995601D01*
X157684584Y-82051700D01*
X157648609Y-82114010D01*
X157648609Y-82114011D01*
X157648609Y-82114012D01*
X157648608Y-82114014D01*
X157614500Y-82241308D01*
X157614500Y-82373092D01*
X157639934Y-82468015D01*
X157648609Y-82500388D01*
X157648609Y-82500389D01*
X157684584Y-82562700D01*
X157701057Y-82630601D01*
X157684584Y-82686700D01*
X157648609Y-82749010D01*
X157648609Y-82749011D01*
X157648608Y-82749013D01*
X157648608Y-82749014D01*
X157623723Y-82841888D01*
X157614500Y-82876308D01*
X157614500Y-83008091D01*
X157648608Y-83135387D01*
X157673170Y-83177928D01*
X157714500Y-83249514D01*
X157807686Y-83342700D01*
X157921814Y-83408592D01*
X158049108Y-83442700D01*
X158049110Y-83442700D01*
X158180890Y-83442700D01*
X158180892Y-83442700D01*
X158308186Y-83408592D01*
X158422314Y-83342700D01*
X158504698Y-83260315D01*
X158566017Y-83226833D01*
X158633327Y-83230956D01*
X158651301Y-83237246D01*
X158651308Y-83237246D01*
X158651310Y-83237247D01*
X158681730Y-83240100D01*
X158681734Y-83240100D01*
X160190270Y-83240100D01*
X160220699Y-83237246D01*
X160220701Y-83237246D01*
X160291842Y-83212352D01*
X160348882Y-83192393D01*
X160458150Y-83111750D01*
X160538793Y-83002482D01*
X160569224Y-82915516D01*
X160583646Y-82874301D01*
X160583646Y-82874299D01*
X160586500Y-82843869D01*
X160586500Y-79535330D01*
X160985500Y-79535330D01*
X160985500Y-82843869D01*
X160988353Y-82874299D01*
X160988353Y-82874301D01*
X161021386Y-82968700D01*
X161033207Y-83002482D01*
X161113850Y-83111750D01*
X161223118Y-83192393D01*
X161244215Y-83199775D01*
X161351299Y-83237246D01*
X161381730Y-83240100D01*
X161381734Y-83240100D01*
X162890270Y-83240100D01*
X162914612Y-83237816D01*
X162920699Y-83237246D01*
X163029812Y-83199065D01*
X163099588Y-83195503D01*
X163160216Y-83230232D01*
X163170110Y-83243403D01*
X163170552Y-83243065D01*
X163175498Y-83249511D01*
X163175500Y-83249514D01*
X163268686Y-83342700D01*
X163382814Y-83408592D01*
X163510108Y-83442700D01*
X163510110Y-83442700D01*
X163641890Y-83442700D01*
X163641892Y-83442700D01*
X163769186Y-83408592D01*
X163883314Y-83342700D01*
X163917319Y-83308695D01*
X163978642Y-83275210D01*
X164048334Y-83280194D01*
X164104267Y-83322066D01*
X164122827Y-83371827D01*
X164129000Y-83378000D01*
X164854000Y-83378000D01*
X165354000Y-83378000D01*
X166306400Y-83378000D01*
X166806400Y-83378000D01*
X167800400Y-83378000D01*
X168300400Y-83378000D01*
X169273600Y-83378000D01*
X169273600Y-82590500D01*
X169236961Y-82590500D01*
X169236943Y-82590501D01*
X169135947Y-82600819D01*
X168972299Y-82655046D01*
X168972288Y-82655051D01*
X168852097Y-82729187D01*
X168784705Y-82747628D01*
X168721903Y-82729187D01*
X168601711Y-82655051D01*
X168601700Y-82655046D01*
X168438052Y-82600819D01*
X168337054Y-82590500D01*
X168300400Y-82590500D01*
X168300400Y-83378000D01*
X167800400Y-83378000D01*
X167800400Y-82590500D01*
X167763761Y-82590500D01*
X167763743Y-82590501D01*
X167662747Y-82600819D01*
X167499099Y-82655046D01*
X167499088Y-82655051D01*
X167368497Y-82735602D01*
X167301105Y-82754043D01*
X167238303Y-82735602D01*
X167107711Y-82655051D01*
X167107700Y-82655046D01*
X166944052Y-82600819D01*
X166843054Y-82590500D01*
X166806400Y-82590500D01*
X166806400Y-83378000D01*
X166306400Y-83378000D01*
X166306400Y-82590500D01*
X166269761Y-82590500D01*
X166269743Y-82590501D01*
X166168747Y-82600819D01*
X166005099Y-82655046D01*
X166005094Y-82655048D01*
X165895297Y-82722773D01*
X165827905Y-82741213D01*
X165765103Y-82722773D01*
X165655305Y-82655048D01*
X165655300Y-82655046D01*
X165491652Y-82600819D01*
X165390654Y-82590500D01*
X165354000Y-82590500D01*
X165354000Y-83378000D01*
X164854000Y-83378000D01*
X164854000Y-82590500D01*
X164817361Y-82590500D01*
X164817343Y-82590501D01*
X164716347Y-82600819D01*
X164552699Y-82655046D01*
X164552688Y-82655051D01*
X164405965Y-82745552D01*
X164405961Y-82745555D01*
X164284052Y-82867464D01*
X164280398Y-82872086D01*
X164275863Y-82875296D01*
X164273344Y-82880250D01*
X164247661Y-82895265D01*
X164223376Y-82912462D01*
X164217823Y-82912711D01*
X164213027Y-82915516D01*
X164183304Y-82914262D01*
X164153576Y-82915599D01*
X164148770Y-82912807D01*
X164143219Y-82912573D01*
X164118890Y-82895448D01*
X164093162Y-82880502D01*
X164089429Y-82874711D01*
X164086084Y-82872357D01*
X164079536Y-82859364D01*
X164068270Y-82841888D01*
X164065360Y-82834733D01*
X164042392Y-82749014D01*
X164002150Y-82679313D01*
X163998938Y-82671415D01*
X163996249Y-82644799D01*
X163989942Y-82618801D01*
X163992680Y-82609472D01*
X163991916Y-82601900D01*
X163998985Y-82587999D01*
X164006415Y-82562699D01*
X164031907Y-82518547D01*
X164042392Y-82500386D01*
X164076500Y-82373092D01*
X164076500Y-82241308D01*
X164042392Y-82114014D01*
X164006414Y-82051699D01*
X163989942Y-81983801D01*
X164006415Y-81927699D01*
X164042391Y-81865388D01*
X164042392Y-81865386D01*
X164076500Y-81738092D01*
X164076500Y-81606308D01*
X164042392Y-81479014D01*
X164006414Y-81416699D01*
X163989942Y-81348801D01*
X164006415Y-81292699D01*
X164042391Y-81230388D01*
X164042392Y-81230386D01*
X164076500Y-81103092D01*
X164076500Y-80971308D01*
X164042392Y-80844014D01*
X164006414Y-80781699D01*
X163989942Y-80713801D01*
X164006415Y-80657699D01*
X164042391Y-80595388D01*
X164042392Y-80595386D01*
X164076500Y-80468092D01*
X164076500Y-80336308D01*
X164042392Y-80209014D01*
X164006414Y-80146699D01*
X163989942Y-80078801D01*
X164006415Y-80022699D01*
X164042391Y-79960388D01*
X164042392Y-79960386D01*
X164076500Y-79833092D01*
X164076500Y-79701308D01*
X164042392Y-79574014D01*
X163976500Y-79459886D01*
X163883314Y-79366700D01*
X163813492Y-79326388D01*
X163769187Y-79300808D01*
X163705539Y-79283754D01*
X163641892Y-79266700D01*
X163510108Y-79266700D01*
X163382814Y-79300808D01*
X163382813Y-79300808D01*
X163382811Y-79300809D01*
X163382810Y-79300809D01*
X163338507Y-79326388D01*
X163270607Y-79342861D01*
X163204580Y-79320008D01*
X163176737Y-79292635D01*
X163162222Y-79272968D01*
X163158150Y-79267450D01*
X163048882Y-79186807D01*
X163048880Y-79186806D01*
X162920700Y-79141953D01*
X162890270Y-79139100D01*
X162890266Y-79139100D01*
X161381734Y-79139100D01*
X161381730Y-79139100D01*
X161351300Y-79141953D01*
X161351298Y-79141953D01*
X161223119Y-79186806D01*
X161223117Y-79186807D01*
X161113850Y-79267450D01*
X161033207Y-79376717D01*
X161033206Y-79376719D01*
X160988353Y-79504898D01*
X160988353Y-79504900D01*
X160985500Y-79535330D01*
X160586500Y-79535330D01*
X160583646Y-79504900D01*
X160583646Y-79504898D01*
X160538793Y-79376719D01*
X160538792Y-79376717D01*
X160531399Y-79366700D01*
X160458150Y-79267450D01*
X160348882Y-79186807D01*
X160348880Y-79186806D01*
X160220700Y-79141953D01*
X160190270Y-79139100D01*
X160190266Y-79139100D01*
X158681734Y-79139100D01*
X158681730Y-79139100D01*
X158651300Y-79141953D01*
X158651298Y-79141953D01*
X158523119Y-79186806D01*
X158523117Y-79186807D01*
X158453068Y-79238505D01*
X158413850Y-79267450D01*
X158413849Y-79267450D01*
X158406374Y-79272968D01*
X158405146Y-79271304D01*
X158354498Y-79298953D01*
X158296060Y-79297559D01*
X158180892Y-79266700D01*
X158049108Y-79266700D01*
X157921812Y-79300808D01*
X157807686Y-79366700D01*
X157807683Y-79366702D01*
X157714502Y-79459883D01*
X157714500Y-79459886D01*
X157648608Y-79574012D01*
X157614500Y-79701308D01*
X155350400Y-79701308D01*
X155350400Y-78878325D01*
X155351461Y-78862140D01*
X155365306Y-78756976D01*
X155365306Y-78756975D01*
X155373684Y-78725708D01*
X155411140Y-78635281D01*
X155427323Y-78607250D01*
X155486913Y-78529592D01*
X155509792Y-78506713D01*
X155587450Y-78447123D01*
X155615479Y-78430940D01*
X155705909Y-78393483D01*
X155737175Y-78385106D01*
X155842341Y-78371261D01*
X155858526Y-78370200D01*
X169447274Y-78370200D01*
X169463459Y-78371261D01*
G37*
%TD.AperFunction*%
%TD*%
%TA.AperFunction,Conductor*%
%TO.N,/LIPO_TO_3V/3V3_OUT*%
G36*
X195021200Y-78740001D02*
G01*
X195021200Y-79729020D01*
X195020150Y-79743399D01*
X194996419Y-79905058D01*
X194988155Y-79932600D01*
X194922058Y-80074007D01*
X194906226Y-80098015D01*
X194797413Y-80219908D01*
X194787054Y-80229935D01*
X194659164Y-80336844D01*
X194602392Y-80359659D01*
X194543051Y-80344747D01*
X194540669Y-80343205D01*
X194535727Y-80339903D01*
X194535725Y-80339902D01*
X194491983Y-80331200D01*
X193537201Y-80331200D01*
X193574328Y-80368327D01*
X193602105Y-80422844D01*
X193592534Y-80483276D01*
X193574328Y-80508335D01*
X192509335Y-81573328D01*
X192454818Y-81601105D01*
X192394386Y-81591534D01*
X192369327Y-81573328D01*
X192227199Y-81431200D01*
X192085071Y-81573328D01*
X192030555Y-81601105D01*
X191970123Y-81591534D01*
X191945064Y-81573328D01*
X190880071Y-80508335D01*
X190872952Y-80494363D01*
X190861866Y-80483277D01*
X190859413Y-80467790D01*
X190852294Y-80453818D01*
X190854746Y-80438330D01*
X190852294Y-80422845D01*
X190859411Y-80408874D01*
X190861865Y-80393386D01*
X190880071Y-80368328D01*
X190917198Y-80331200D01*
X191551465Y-80331200D01*
X192227199Y-81006934D01*
X192902934Y-80331200D01*
X191551465Y-80331200D01*
X190917198Y-80331200D01*
X189962429Y-80331200D01*
X189962419Y-80331201D01*
X189918674Y-80339902D01*
X189918671Y-80339903D01*
X189869058Y-80373054D01*
X189869054Y-80373058D01*
X189835904Y-80422670D01*
X189835902Y-80422674D01*
X189827200Y-80466416D01*
X189827200Y-82395970D01*
X189827201Y-82395980D01*
X189835902Y-82439725D01*
X189835903Y-82439727D01*
X189846029Y-82454882D01*
X189862637Y-82513770D01*
X189857069Y-82542832D01*
X189654925Y-83115580D01*
X189577255Y-83335644D01*
X189540058Y-83384225D01*
X189481411Y-83401664D01*
X189423714Y-83381300D01*
X189389005Y-83330912D01*
X189384899Y-83302695D01*
X189384899Y-83058716D01*
X189384898Y-83058714D01*
X189370066Y-82965058D01*
X189370063Y-82965048D01*
X189312541Y-82852156D01*
X189222943Y-82762558D01*
X189110051Y-82705036D01*
X189110047Y-82705035D01*
X189016384Y-82690200D01*
X188747401Y-82690200D01*
X188747400Y-82690201D01*
X188747400Y-83416200D01*
X188728493Y-83474391D01*
X188678993Y-83510355D01*
X188648400Y-83515200D01*
X188246400Y-83515200D01*
X188188209Y-83496293D01*
X188152245Y-83446793D01*
X188147400Y-83416200D01*
X188147400Y-82690201D01*
X188147399Y-82690200D01*
X187878417Y-82690200D01*
X187878414Y-82690201D01*
X187784758Y-82705033D01*
X187784747Y-82705036D01*
X187748344Y-82723585D01*
X187687912Y-82733156D01*
X187633396Y-82705378D01*
X187605619Y-82650861D01*
X187604400Y-82635375D01*
X187604400Y-82236024D01*
X187623307Y-82177833D01*
X187672807Y-82141869D01*
X187733993Y-82141869D01*
X187748346Y-82147815D01*
X187784748Y-82166363D01*
X187784752Y-82166364D01*
X187878415Y-82181199D01*
X188147398Y-82181199D01*
X188147400Y-82181198D01*
X188147400Y-81656201D01*
X188747400Y-81656201D01*
X188747400Y-82181198D01*
X188747401Y-82181199D01*
X189016383Y-82181199D01*
X189016385Y-82181198D01*
X189110041Y-82166366D01*
X189110051Y-82166363D01*
X189222943Y-82108841D01*
X189312541Y-82019243D01*
X189370063Y-81906351D01*
X189370064Y-81906347D01*
X189384900Y-81812684D01*
X189384900Y-81656201D01*
X189384899Y-81656200D01*
X188747401Y-81656200D01*
X188747400Y-81656201D01*
X188147400Y-81656201D01*
X188147400Y-80531201D01*
X188747400Y-80531201D01*
X188747400Y-81056199D01*
X188747401Y-81056200D01*
X189384898Y-81056200D01*
X189384899Y-81056199D01*
X189384899Y-80899716D01*
X189384898Y-80899714D01*
X189370066Y-80806058D01*
X189370063Y-80806048D01*
X189312541Y-80693156D01*
X189222943Y-80603558D01*
X189110051Y-80546036D01*
X189110047Y-80546035D01*
X189016384Y-80531200D01*
X188747401Y-80531200D01*
X188747400Y-80531201D01*
X188147400Y-80531201D01*
X188147399Y-80531200D01*
X187878417Y-80531200D01*
X187878414Y-80531201D01*
X187784758Y-80546033D01*
X187784747Y-80546036D01*
X187748344Y-80564585D01*
X187687912Y-80574156D01*
X187633396Y-80546378D01*
X187605619Y-80491861D01*
X187604400Y-80476375D01*
X187604400Y-79879774D01*
X187623307Y-79821583D01*
X187672807Y-79785619D01*
X187733993Y-79785619D01*
X187783493Y-79821583D01*
X187791609Y-79834829D01*
X187841957Y-79933642D01*
X187931556Y-80023241D01*
X188044448Y-80080763D01*
X188044452Y-80080764D01*
X188138115Y-80095599D01*
X188269600Y-80095599D01*
X188269600Y-79395601D01*
X188869600Y-79395601D01*
X188869600Y-80095598D01*
X188869601Y-80095599D01*
X189001083Y-80095599D01*
X189001085Y-80095598D01*
X189094741Y-80080766D01*
X189094751Y-80080763D01*
X189207643Y-80023241D01*
X189297241Y-79933643D01*
X189354763Y-79820751D01*
X189354764Y-79820747D01*
X189369600Y-79727084D01*
X189369600Y-79724600D01*
X193435769Y-79724600D01*
X193445072Y-79783335D01*
X193445072Y-79783338D01*
X193500798Y-79892705D01*
X193587594Y-79979501D01*
X193696967Y-80035229D01*
X193768199Y-80046510D01*
X193768200Y-80046509D01*
X193768200Y-79724601D01*
X194368200Y-79724601D01*
X194368200Y-80046510D01*
X194439432Y-80035229D01*
X194548805Y-79979501D01*
X194635601Y-79892705D01*
X194691327Y-79783338D01*
X194691327Y-79783335D01*
X194700631Y-79724600D01*
X194368201Y-79724600D01*
X194368200Y-79724601D01*
X193768200Y-79724601D01*
X193768199Y-79724600D01*
X193435769Y-79724600D01*
X189369600Y-79724600D01*
X189369600Y-79395601D01*
X189369599Y-79395600D01*
X188869601Y-79395600D01*
X188869600Y-79395601D01*
X188269600Y-79395601D01*
X188269600Y-79124600D01*
X193435769Y-79124600D01*
X193768199Y-79124600D01*
X193768200Y-79124599D01*
X194368200Y-79124599D01*
X194368201Y-79124600D01*
X194700631Y-79124600D01*
X194691327Y-79065864D01*
X194691327Y-79065861D01*
X194635601Y-78956494D01*
X194548805Y-78869698D01*
X194439436Y-78813971D01*
X194368200Y-78802688D01*
X194368200Y-79124599D01*
X193768200Y-79124599D01*
X193768200Y-78802688D01*
X193696963Y-78813971D01*
X193587594Y-78869698D01*
X193500798Y-78956494D01*
X193445072Y-79065861D01*
X193445072Y-79065864D01*
X193435769Y-79124600D01*
X188269600Y-79124600D01*
X188269600Y-78103318D01*
X188259575Y-78095601D01*
X188869600Y-78095601D01*
X188869600Y-78795599D01*
X188869601Y-78795600D01*
X189369598Y-78795600D01*
X189369599Y-78795599D01*
X189369599Y-78464116D01*
X189369598Y-78464114D01*
X189354766Y-78370458D01*
X189354763Y-78370448D01*
X189297241Y-78257556D01*
X189207643Y-78167958D01*
X189094751Y-78110436D01*
X189094747Y-78110435D01*
X189001084Y-78095600D01*
X188869601Y-78095600D01*
X188869600Y-78095601D01*
X188259575Y-78095601D01*
X188259574Y-78095600D01*
X188251091Y-78095600D01*
X188192900Y-78076693D01*
X188156936Y-78027193D01*
X188156936Y-77966007D01*
X188192900Y-77916507D01*
X188206431Y-77908246D01*
X188231897Y-77895374D01*
X188248673Y-77888738D01*
X188406302Y-77842499D01*
X188424013Y-77839019D01*
X188591934Y-77821715D01*
X188600926Y-77821200D01*
X188977588Y-77816917D01*
X189539520Y-77810527D01*
X195021200Y-77748200D01*
X195021200Y-78740001D01*
G37*
%TD.AperFunction*%
%TD*%
%TA.AperFunction,Conductor*%
%TO.N,/Controlador/BATT_INPUT*%
G36*
X199708525Y-84305998D02*
G01*
X199814067Y-84319429D01*
X199845455Y-84327706D01*
X199936291Y-84364956D01*
X199964453Y-84381098D01*
X200042500Y-84440645D01*
X200065510Y-84463546D01*
X200082703Y-84485861D01*
X200125426Y-84541313D01*
X200141703Y-84569405D01*
X200179376Y-84660054D01*
X200187804Y-84691407D01*
X200201733Y-84796883D01*
X200202800Y-84813117D01*
X200202800Y-86715474D01*
X200201739Y-86731659D01*
X200201739Y-86731660D01*
X200187893Y-86836824D01*
X200179515Y-86868091D01*
X200142059Y-86958518D01*
X200125874Y-86986551D01*
X200066291Y-87064201D01*
X200043401Y-87087091D01*
X199965751Y-87146674D01*
X199937718Y-87162859D01*
X199847291Y-87200315D01*
X199816024Y-87208693D01*
X199722198Y-87221046D01*
X199710858Y-87222539D01*
X199694674Y-87223600D01*
X195326126Y-87223600D01*
X195309941Y-87222539D01*
X195296917Y-87220824D01*
X195204775Y-87208693D01*
X195173508Y-87200315D01*
X195083081Y-87162859D01*
X195055048Y-87146674D01*
X194977398Y-87087091D01*
X194954508Y-87064201D01*
X194894925Y-86986551D01*
X194878740Y-86958518D01*
X194841284Y-86868091D01*
X194832906Y-86836823D01*
X194819061Y-86731659D01*
X194818000Y-86715474D01*
X194818000Y-84833752D01*
X194819054Y-84817617D01*
X194821775Y-84796883D01*
X194832817Y-84712748D01*
X194841144Y-84681574D01*
X194878385Y-84591369D01*
X194894474Y-84563400D01*
X194953735Y-84485855D01*
X194976492Y-84462990D01*
X195053761Y-84403361D01*
X195081648Y-84387144D01*
X195171683Y-84349476D01*
X195202815Y-84341003D01*
X195307624Y-84326743D01*
X195323728Y-84325614D01*
X199692299Y-84305008D01*
X199708525Y-84305998D01*
G37*
%TD.AperFunction*%
%TD*%
%TA.AperFunction,Conductor*%
%TO.N,Net-(L1--)*%
G36*
X162997159Y-79405885D02*
G01*
X163023760Y-79428913D01*
X163032669Y-79439177D01*
X163060512Y-79466550D01*
X163137365Y-79514205D01*
X163203392Y-79537058D01*
X163227610Y-79543812D01*
X163319057Y-79542568D01*
X163386957Y-79526095D01*
X163441259Y-79504355D01*
X163447986Y-79500470D01*
X163477895Y-79488079D01*
X163521399Y-79476423D01*
X163553486Y-79472200D01*
X163598513Y-79472200D01*
X163630601Y-79476423D01*
X163674102Y-79488079D01*
X163703999Y-79500463D01*
X163743000Y-79522980D01*
X163768658Y-79542669D01*
X163768679Y-79542685D01*
X163800513Y-79574519D01*
X163820219Y-79600200D01*
X163842733Y-79639195D01*
X163855119Y-79669098D01*
X163866774Y-79712592D01*
X163871000Y-79744685D01*
X163871000Y-79789710D01*
X163866775Y-79821804D01*
X163855121Y-79865296D01*
X163842735Y-79895199D01*
X163828445Y-79919950D01*
X163828444Y-79919951D01*
X163809240Y-79964798D01*
X163809237Y-79964807D01*
X163792767Y-80020898D01*
X163788991Y-80035800D01*
X163790235Y-80127249D01*
X163806705Y-80195144D01*
X163828445Y-80249448D01*
X163842734Y-80274197D01*
X163855121Y-80304102D01*
X163866775Y-80347594D01*
X163871000Y-80379688D01*
X163871000Y-80424710D01*
X163866775Y-80456804D01*
X163855121Y-80500296D01*
X163842735Y-80530199D01*
X163828445Y-80554950D01*
X163828444Y-80554951D01*
X163809240Y-80599798D01*
X163809237Y-80599807D01*
X163792767Y-80655898D01*
X163788991Y-80670800D01*
X163790235Y-80762249D01*
X163806705Y-80830144D01*
X163828445Y-80884448D01*
X163842734Y-80909197D01*
X163855121Y-80939102D01*
X163866775Y-80982594D01*
X163871000Y-81014688D01*
X163871000Y-81059710D01*
X163866775Y-81091804D01*
X163855121Y-81135296D01*
X163842735Y-81165199D01*
X163828445Y-81189950D01*
X163828444Y-81189951D01*
X163809240Y-81234798D01*
X163809237Y-81234807D01*
X163792767Y-81290898D01*
X163788991Y-81305800D01*
X163790235Y-81397249D01*
X163806705Y-81465144D01*
X163828445Y-81519448D01*
X163842734Y-81544197D01*
X163855121Y-81574102D01*
X163866775Y-81617594D01*
X163871000Y-81649688D01*
X163871000Y-81694710D01*
X163866775Y-81726804D01*
X163855121Y-81770296D01*
X163842735Y-81800199D01*
X163828445Y-81824950D01*
X163828444Y-81824951D01*
X163809240Y-81869798D01*
X163809237Y-81869807D01*
X163792767Y-81925898D01*
X163788991Y-81940800D01*
X163790235Y-82032249D01*
X163806705Y-82100144D01*
X163828445Y-82154448D01*
X163842734Y-82179197D01*
X163855121Y-82209102D01*
X163866342Y-82250980D01*
X163866775Y-82252594D01*
X163871000Y-82284688D01*
X163871000Y-82329710D01*
X163866774Y-82361805D01*
X163855120Y-82405296D01*
X163842735Y-82435198D01*
X163828451Y-82459939D01*
X163828449Y-82459942D01*
X163809240Y-82504799D01*
X163809211Y-82504881D01*
X163808771Y-82506369D01*
X163808734Y-82506426D01*
X163803617Y-82520557D01*
X163798750Y-82531773D01*
X163798749Y-82531778D01*
X163798100Y-82536993D01*
X163794037Y-82556573D01*
X163792757Y-82560933D01*
X163788991Y-82575797D01*
X163788991Y-82575801D01*
X163789412Y-82606795D01*
X163787454Y-82622530D01*
X163788218Y-82630102D01*
X163789727Y-82629949D01*
X163790038Y-82652810D01*
X163790037Y-82652813D01*
X163790234Y-82667246D01*
X163790234Y-82667248D01*
X163791200Y-82671230D01*
X163794065Y-82687982D01*
X163794477Y-82692063D01*
X163794479Y-82692074D01*
X163808576Y-82748828D01*
X163808577Y-82748832D01*
X163811785Y-82756719D01*
X163811788Y-82756725D01*
X163811790Y-82756730D01*
X163824182Y-82782063D01*
X163824185Y-82782069D01*
X163824186Y-82782070D01*
X163842733Y-82814195D01*
X163851666Y-82833236D01*
X163853644Y-82838594D01*
X163866862Y-82887920D01*
X163875002Y-82912153D01*
X163877912Y-82919308D01*
X163895549Y-82953233D01*
X163896561Y-82954804D01*
X163899746Y-82963426D01*
X163901615Y-82990810D01*
X163906903Y-83017749D01*
X163903961Y-83025170D01*
X163904505Y-83033133D01*
X163891272Y-83057182D01*
X163881157Y-83082702D01*
X163873789Y-83088955D01*
X163870823Y-83094348D01*
X163861462Y-83099419D01*
X163842857Y-83115213D01*
X163833676Y-83120227D01*
X163818837Y-83128329D01*
X163818836Y-83128330D01*
X163772003Y-83163389D01*
X163768672Y-83166720D01*
X163742998Y-83186419D01*
X163704003Y-83208933D01*
X163674099Y-83221320D01*
X163655887Y-83226200D01*
X163630607Y-83232974D01*
X163598513Y-83237200D01*
X163553489Y-83237200D01*
X163521397Y-83232975D01*
X163477902Y-83221321D01*
X163447997Y-83208934D01*
X163408998Y-83186418D01*
X163383320Y-83166714D01*
X163334073Y-83117467D01*
X163328821Y-83111416D01*
X163328800Y-83111436D01*
X163324525Y-83106809D01*
X163318561Y-83101543D01*
X163317256Y-83100390D01*
X163309952Y-83093390D01*
X163309485Y-83092904D01*
X163301922Y-83085039D01*
X163301919Y-83085037D01*
X163293569Y-83078858D01*
X163285248Y-83072126D01*
X163262363Y-83051917D01*
X163262361Y-83051916D01*
X163262360Y-83051915D01*
X163229571Y-83033133D01*
X163201731Y-83017185D01*
X163201719Y-83017178D01*
X163179200Y-83006050D01*
X163179193Y-83006048D01*
X163089115Y-82990270D01*
X163089110Y-82990270D01*
X163065852Y-82991457D01*
X163019335Y-82993832D01*
X163000793Y-82997471D01*
X162961945Y-83005095D01*
X162961934Y-83005098D01*
X162927414Y-83017178D01*
X162897512Y-83027641D01*
X162856558Y-83034600D01*
X161455976Y-83034600D01*
X161455238Y-83034383D01*
X161454500Y-83034591D01*
X161421769Y-83024555D01*
X161388937Y-83014915D01*
X161388434Y-83014335D01*
X161387700Y-83014110D01*
X161365586Y-82987967D01*
X161343182Y-82962111D01*
X161342907Y-82961156D01*
X161342577Y-82960765D01*
X161333037Y-82926785D01*
X161320461Y-82831259D01*
X161319400Y-82815074D01*
X161319400Y-79894325D01*
X161320461Y-79878140D01*
X161334306Y-79772976D01*
X161342684Y-79741708D01*
X161380140Y-79651279D01*
X161396323Y-79623250D01*
X161455913Y-79545592D01*
X161478792Y-79522713D01*
X161556450Y-79463123D01*
X161584479Y-79446940D01*
X161674909Y-79409483D01*
X161706175Y-79401106D01*
X161811341Y-79387261D01*
X161827526Y-79386200D01*
X162930120Y-79386200D01*
X162997159Y-79405885D01*
G37*
%TD.AperFunction*%
%TD*%
%TA.AperFunction,Conductor*%
%TO.N,/LIPO_TO_5V/5V_OUT*%
G36*
X171212059Y-78487061D02*
G01*
X171317223Y-78500906D01*
X171348491Y-78509284D01*
X171438918Y-78546740D01*
X171466952Y-78562925D01*
X171544602Y-78622509D01*
X171567491Y-78645398D01*
X171627074Y-78723048D01*
X171643259Y-78751081D01*
X171680715Y-78841508D01*
X171689093Y-78872775D01*
X171702939Y-78977939D01*
X171704000Y-78994125D01*
X171704000Y-85344000D01*
X172212000Y-86106000D01*
X172630960Y-86734441D01*
X172639922Y-86750295D01*
X172690707Y-86857890D01*
X172701233Y-86892655D01*
X172718662Y-87010357D01*
X172720000Y-87028521D01*
X172720000Y-88137874D01*
X172718939Y-88154060D01*
X172705093Y-88259224D01*
X172696715Y-88290491D01*
X172659259Y-88380918D01*
X172643074Y-88408951D01*
X172583491Y-88486601D01*
X172560601Y-88509491D01*
X172482951Y-88569074D01*
X172454918Y-88585259D01*
X172364491Y-88622715D01*
X172333224Y-88631093D01*
X172239398Y-88643446D01*
X172228058Y-88644939D01*
X172211874Y-88646000D01*
X168529000Y-88646000D01*
X168529000Y-85090000D01*
X170180000Y-85090000D01*
X170180000Y-84078070D01*
X170186959Y-84037115D01*
X170196325Y-84010349D01*
X170199100Y-83980756D01*
X170199100Y-83275244D01*
X170196325Y-83245651D01*
X170186959Y-83218884D01*
X170180000Y-83177928D01*
X170180000Y-78994125D01*
X170181061Y-78977940D01*
X170194906Y-78872776D01*
X170194906Y-78872775D01*
X170203284Y-78841508D01*
X170240740Y-78751081D01*
X170256923Y-78723050D01*
X170316513Y-78645392D01*
X170339392Y-78622513D01*
X170417050Y-78562923D01*
X170445079Y-78546740D01*
X170535509Y-78509283D01*
X170566775Y-78500906D01*
X170671941Y-78487061D01*
X170688126Y-78486000D01*
X171195874Y-78486000D01*
X171212059Y-78487061D01*
G37*
%TD.AperFunction*%
%TD*%
%TA.AperFunction,Conductor*%
%TO.N,/LIPO_TO_3V/3V3_OUT*%
G36*
X195827839Y-75173285D02*
G01*
X195873594Y-75226089D01*
X195884800Y-75277600D01*
X195884800Y-75653600D01*
X196260800Y-75653600D01*
X196327839Y-75673285D01*
X196373594Y-75726089D01*
X196384800Y-75777600D01*
X196384800Y-76853599D01*
X196868055Y-76853599D01*
X196935094Y-76873284D01*
X196980849Y-76926088D01*
X196990793Y-76995246D01*
X196961768Y-77058802D01*
X196950436Y-77070278D01*
X195328808Y-78511724D01*
X195311525Y-78524583D01*
X195182350Y-78604259D01*
X195182349Y-78604260D01*
X195082929Y-78703681D01*
X195060155Y-78716116D01*
X195039507Y-78731832D01*
X195027222Y-78734099D01*
X195021606Y-78737166D01*
X195021200Y-78737226D01*
X195021200Y-77748200D01*
X190999428Y-77793928D01*
X191770000Y-77216000D01*
X193068489Y-76153600D01*
X194059803Y-76153600D01*
X194070294Y-76256297D01*
X194125440Y-76422719D01*
X194125445Y-76422730D01*
X194217480Y-76571940D01*
X194217483Y-76571944D01*
X194341455Y-76695916D01*
X194341459Y-76695919D01*
X194490669Y-76787954D01*
X194490680Y-76787959D01*
X194657102Y-76843105D01*
X194759819Y-76853599D01*
X195384799Y-76853599D01*
X195384800Y-76853598D01*
X195384800Y-76153600D01*
X194059803Y-76153600D01*
X193068489Y-76153600D01*
X194290711Y-75153600D01*
X195760800Y-75153600D01*
X195827839Y-75173285D01*
G37*
%TD.AperFunction*%
%TD*%
%TA.AperFunction,Conductor*%
%TO.N,/CurrentSense_Lipo/V_IN_{1}*%
G36*
X175466888Y-91218036D02*
G01*
X175512643Y-91270840D01*
X175523849Y-91322351D01*
X175523849Y-92398350D01*
X175948821Y-92398350D01*
X175948835Y-92398349D01*
X176051545Y-92387856D01*
X176051547Y-92387856D01*
X176217968Y-92332710D01*
X176217979Y-92332705D01*
X176367189Y-92240670D01*
X176367193Y-92240667D01*
X176491165Y-92116695D01*
X176491168Y-92116691D01*
X176583203Y-91967481D01*
X176583208Y-91967470D01*
X176638355Y-91801047D01*
X176639671Y-91788163D01*
X176666064Y-91723470D01*
X176723244Y-91683317D01*
X176793054Y-91680451D01*
X176853332Y-91715783D01*
X176879805Y-91759055D01*
X177501998Y-93501193D01*
X177509222Y-93542899D01*
X177509222Y-95499040D01*
X177489537Y-95566079D01*
X177436733Y-95611834D01*
X177367575Y-95621778D01*
X177357630Y-95619931D01*
X177294654Y-95605557D01*
X176380214Y-96519999D01*
X176380214Y-96520001D01*
X177294653Y-97434440D01*
X177357629Y-97420067D01*
X177427368Y-97424340D01*
X177483726Y-97465639D01*
X177508809Y-97530850D01*
X177509222Y-97540958D01*
X177509222Y-98731421D01*
X177489537Y-98798460D01*
X177436733Y-98844215D01*
X177385222Y-98855421D01*
X175887207Y-98855421D01*
X174966000Y-97934214D01*
X174044790Y-98855421D01*
X172807222Y-98855421D01*
X172740183Y-98835736D01*
X172694428Y-98782932D01*
X172683222Y-98731421D01*
X172683222Y-97956604D01*
X172683222Y-97388564D01*
X173551786Y-96520000D01*
X173445539Y-96413753D01*
X173616000Y-96413753D01*
X173616000Y-96626247D01*
X173649242Y-96836126D01*
X173714906Y-97038220D01*
X173811377Y-97227554D01*
X173936278Y-97399466D01*
X174086534Y-97549722D01*
X174258446Y-97674623D01*
X174447780Y-97771094D01*
X174649874Y-97836758D01*
X174859753Y-97870000D01*
X175072247Y-97870000D01*
X175282126Y-97836758D01*
X175484220Y-97771094D01*
X175673554Y-97674623D01*
X175845466Y-97549722D01*
X175995722Y-97399466D01*
X176120623Y-97227554D01*
X176217094Y-97038220D01*
X176282758Y-96836126D01*
X176316000Y-96626247D01*
X176316000Y-96413753D01*
X176282758Y-96203874D01*
X176217094Y-96001780D01*
X176120623Y-95812446D01*
X175995722Y-95640534D01*
X175845466Y-95490278D01*
X175673554Y-95365377D01*
X175484220Y-95268906D01*
X175282126Y-95203242D01*
X175072247Y-95170000D01*
X174859753Y-95170000D01*
X174649874Y-95203242D01*
X174447780Y-95268906D01*
X174258446Y-95365377D01*
X174086534Y-95490278D01*
X173936278Y-95640534D01*
X173811377Y-95812446D01*
X173714906Y-96001780D01*
X173649242Y-96203874D01*
X173616000Y-96413753D01*
X173445539Y-96413753D01*
X172683222Y-95651436D01*
X172683222Y-94191344D01*
X174051558Y-94191344D01*
X174966000Y-95105786D01*
X174966001Y-95105786D01*
X175880441Y-94191344D01*
X175659179Y-94113922D01*
X175659177Y-94113921D01*
X175385424Y-94051439D01*
X175385412Y-94051437D01*
X175106401Y-94020000D01*
X174825598Y-94020000D01*
X174546587Y-94051437D01*
X174546575Y-94051439D01*
X174272822Y-94113921D01*
X174272820Y-94113922D01*
X174051558Y-94191344D01*
X172683222Y-94191344D01*
X172683222Y-93534560D01*
X172685974Y-93508578D01*
X172966882Y-92197672D01*
X173000177Y-92136247D01*
X173061396Y-92102571D01*
X173131102Y-92107339D01*
X173175811Y-92135974D01*
X173280504Y-92240667D01*
X173280508Y-92240670D01*
X173429718Y-92332705D01*
X173429729Y-92332710D01*
X173596151Y-92387856D01*
X173698868Y-92398350D01*
X174123848Y-92398350D01*
X174123849Y-92398349D01*
X174123849Y-91322351D01*
X174143534Y-91255312D01*
X174196338Y-91209557D01*
X174247849Y-91198351D01*
X175399849Y-91198351D01*
X175466888Y-91218036D01*
G37*
%TD.AperFunction*%
%TD*%
%TA.AperFunction,Conductor*%
%TO.N,GND*%
G36*
X165849771Y-58087953D02*
G01*
X165883798Y-58111576D01*
X168120356Y-60300641D01*
X168154497Y-60361601D01*
X168150261Y-60431342D01*
X168118430Y-60479721D01*
X166270296Y-62212345D01*
X166207925Y-62243835D01*
X166138430Y-62236606D01*
X166097138Y-62208890D01*
X166037851Y-62148690D01*
X163815843Y-59892448D01*
X163782830Y-59830873D01*
X163788347Y-59761222D01*
X163823991Y-59710872D01*
X165716866Y-58105620D01*
X165780722Y-58077274D01*
X165849771Y-58087953D01*
G37*
%TD.AperFunction*%
%TD*%
%TA.AperFunction,Conductor*%
%TO.N,/BATT_BYPASS_SW/BATT_OUT*%
G36*
X185537408Y-90373412D02*
G01*
X185642572Y-90387257D01*
X185673840Y-90395635D01*
X185764267Y-90433091D01*
X185792301Y-90449276D01*
X185869951Y-90508860D01*
X185892840Y-90531749D01*
X185952423Y-90609399D01*
X185968608Y-90637432D01*
X186006064Y-90727859D01*
X186014442Y-90759126D01*
X186028288Y-90864290D01*
X186029349Y-90880476D01*
X186029349Y-92445223D01*
X186028948Y-92455186D01*
X186023696Y-92520339D01*
X186020504Y-92540010D01*
X186004884Y-92603477D01*
X186002114Y-92613055D01*
X185130376Y-95228267D01*
X185122847Y-95246082D01*
X185079722Y-95329351D01*
X185064776Y-95358208D01*
X185063469Y-95359985D01*
X185063216Y-95361123D01*
X185041931Y-95389277D01*
X184959193Y-95471234D01*
X184927909Y-95493783D01*
X184823991Y-95546360D01*
X184787293Y-95558207D01*
X184747671Y-95564444D01*
X184662548Y-95577843D01*
X184643268Y-95579351D01*
X182981475Y-95579351D01*
X182965290Y-95578290D01*
X182952266Y-95576575D01*
X182860124Y-95564444D01*
X182828857Y-95556066D01*
X182738430Y-95518610D01*
X182710397Y-95502425D01*
X182632747Y-95442842D01*
X182609857Y-95419952D01*
X182550274Y-95342302D01*
X182534089Y-95314269D01*
X182496633Y-95223842D01*
X182488255Y-95192574D01*
X182474410Y-95087410D01*
X182473349Y-95071225D01*
X182473349Y-92592963D01*
X182473556Y-92585805D01*
X182473994Y-92578218D01*
X182476269Y-92538892D01*
X182477916Y-92524691D01*
X182486022Y-92478384D01*
X182487459Y-92471379D01*
X182888744Y-90765920D01*
X182893614Y-90750069D01*
X182932368Y-90648669D01*
X182948217Y-90619590D01*
X183007468Y-90538838D01*
X183030442Y-90515001D01*
X183108959Y-90452814D01*
X183137428Y-90435908D01*
X183229610Y-90396726D01*
X183261539Y-90387960D01*
X183351448Y-90375842D01*
X183369114Y-90373462D01*
X183385676Y-90372351D01*
X185521223Y-90372351D01*
X185537408Y-90373412D01*
G37*
%TD.AperFunction*%
%TD*%
%TA.AperFunction,Conductor*%
%TO.N,GND*%
G36*
X161603232Y-88027768D02*
G01*
X161665523Y-88059411D01*
X161695054Y-88102212D01*
X161697133Y-88107231D01*
X161717331Y-88137460D01*
X161717333Y-88137462D01*
X161741448Y-88173552D01*
X161776440Y-88196933D01*
X161785185Y-88205732D01*
X161808144Y-88237689D01*
X161954398Y-88530198D01*
X161954399Y-88530199D01*
X161954400Y-88530200D01*
X162806308Y-88530200D01*
X162822234Y-88531227D01*
X162850164Y-88534844D01*
X162925756Y-88544634D01*
X162956556Y-88552748D01*
X163045779Y-88589048D01*
X163073496Y-88604741D01*
X163150527Y-88662573D01*
X163173333Y-88684811D01*
X163238090Y-88766681D01*
X163247165Y-88779809D01*
X163402835Y-89039260D01*
X163410447Y-89054137D01*
X163453612Y-89154738D01*
X163462527Y-89186925D01*
X163477270Y-89295378D01*
X163478400Y-89312081D01*
X163478400Y-91070074D01*
X163477339Y-91086260D01*
X163463493Y-91191424D01*
X163455115Y-91222691D01*
X163417659Y-91313118D01*
X163401474Y-91341151D01*
X163341891Y-91418801D01*
X163319001Y-91441691D01*
X163241351Y-91501274D01*
X163213318Y-91517459D01*
X163122891Y-91554915D01*
X163091624Y-91563293D01*
X162997798Y-91575646D01*
X162986458Y-91577139D01*
X162970274Y-91578200D01*
X162443890Y-91578200D01*
X162424994Y-91576752D01*
X162390343Y-91571409D01*
X162302660Y-91557888D01*
X162266621Y-91546502D01*
X162164281Y-91495927D01*
X162133345Y-91474214D01*
X162050992Y-91395157D01*
X162028035Y-91365135D01*
X161973321Y-91264943D01*
X161960474Y-91229402D01*
X161936629Y-91107931D01*
X161934413Y-91089132D01*
X161913015Y-90565497D01*
X161913014Y-90565495D01*
X161902500Y-90308200D01*
X161902499Y-90308199D01*
X161680084Y-90162872D01*
X161679584Y-90162545D01*
X161679240Y-90162320D01*
X161667031Y-90153205D01*
X161590320Y-90088230D01*
X161569544Y-90065660D01*
X161515636Y-89990151D01*
X161501038Y-89963174D01*
X161467316Y-89876748D01*
X161459786Y-89847011D01*
X161447352Y-89747248D01*
X161446400Y-89731912D01*
X161446400Y-88165526D01*
X161450625Y-88133433D01*
X161454709Y-88118191D01*
X161491074Y-88058530D01*
X161542374Y-88030514D01*
X161546201Y-88029488D01*
X161601045Y-88027360D01*
X161603232Y-88027768D01*
G37*
%TD.AperFunction*%
%TD*%
%TA.AperFunction,Conductor*%
%TO.N,/LIPO_TO_5V/5V_OUT*%
G36*
X164178262Y-84329227D02*
G01*
X164197552Y-84331961D01*
X164282213Y-84343960D01*
X164315638Y-84353629D01*
X164393757Y-84388740D01*
X164403347Y-84393050D01*
X164432775Y-84411630D01*
X164495048Y-84464508D01*
X164506073Y-84473869D01*
X164529175Y-84499892D01*
X164580934Y-84578000D01*
X164587167Y-84587406D01*
X164595756Y-84602589D01*
X164719000Y-84861400D01*
X170180000Y-84861400D01*
X170180000Y-85090000D01*
X168529000Y-85090000D01*
X168529000Y-88646000D01*
X165696466Y-88646000D01*
X165678302Y-88644662D01*
X165560600Y-88627233D01*
X165525836Y-88616707D01*
X165426588Y-88569862D01*
X165396363Y-88549712D01*
X165314947Y-88476114D01*
X165291859Y-88448072D01*
X165230504Y-88346132D01*
X165222283Y-88329879D01*
X165199588Y-88275409D01*
X165199588Y-88275408D01*
X164719000Y-87122001D01*
X164719000Y-87122000D01*
X164718999Y-87122000D01*
X162634571Y-87122000D01*
X162575567Y-87104674D01*
X162575513Y-87104807D01*
X162574281Y-87104296D01*
X162567532Y-87102315D01*
X162565680Y-87101102D01*
X162564230Y-87100133D01*
X162564229Y-87100132D01*
X162505752Y-87088501D01*
X162505748Y-87088501D01*
X162315888Y-87088501D01*
X162302883Y-87085378D01*
X162293000Y-87086370D01*
X162259592Y-87074985D01*
X162226550Y-87058149D01*
X162195165Y-87035346D01*
X162138651Y-86978832D01*
X162115850Y-86947450D01*
X162079561Y-86876230D01*
X162067576Y-86839345D01*
X162053525Y-86750629D01*
X162052000Y-86731244D01*
X162052000Y-86598891D01*
X162053278Y-86581134D01*
X162069938Y-86465994D01*
X162080004Y-86431941D01*
X162124848Y-86334441D01*
X162144154Y-86304635D01*
X162174331Y-86270122D01*
X162220736Y-86217049D01*
X162233372Y-86204537D01*
X162766396Y-85747661D01*
X162766396Y-85747660D01*
X162775807Y-85739594D01*
X162775808Y-85739592D01*
X162941000Y-85598000D01*
X162941000Y-84836125D01*
X162942061Y-84819940D01*
X162955906Y-84714776D01*
X162964284Y-84683508D01*
X162988263Y-84625618D01*
X163001740Y-84593079D01*
X163017923Y-84565050D01*
X163077513Y-84487392D01*
X163100392Y-84464513D01*
X163178050Y-84404923D01*
X163206079Y-84388740D01*
X163296509Y-84351283D01*
X163327775Y-84342906D01*
X163432941Y-84329061D01*
X163449126Y-84328000D01*
X164160861Y-84328000D01*
X164178262Y-84329227D01*
G37*
%TD.AperFunction*%
%TD*%
%TA.AperFunction,Conductor*%
%TO.N,/Controlador/BATT_INPUT*%
G36*
X157435177Y-84238385D02*
G01*
X157455819Y-84255019D01*
X157471400Y-84270600D01*
X157869100Y-84270600D01*
X157936139Y-84290285D01*
X157981894Y-84343089D01*
X157993100Y-84394600D01*
X157993100Y-84745600D01*
X158344100Y-84745600D01*
X158411139Y-84765285D01*
X158456894Y-84818089D01*
X158468100Y-84869600D01*
X158468100Y-85702046D01*
X158547966Y-85675582D01*
X158617794Y-85673181D01*
X158677836Y-85708913D01*
X158709028Y-85771433D01*
X158701467Y-85840893D01*
X158682834Y-85868745D01*
X158684124Y-85869711D01*
X158592648Y-85991905D01*
X158592644Y-85991912D01*
X158542402Y-86126619D01*
X158542400Y-86126626D01*
X158535999Y-86186154D01*
X158535999Y-86309000D01*
X159262000Y-86309000D01*
X159329039Y-86328685D01*
X159374794Y-86381489D01*
X159386000Y-86433000D01*
X159386000Y-86659000D01*
X159612000Y-86659000D01*
X159620685Y-86661550D01*
X159629647Y-86660262D01*
X159653687Y-86671240D01*
X159668400Y-86675560D01*
X159668400Y-86726800D01*
X159648509Y-86852385D01*
X159590785Y-86965676D01*
X159500876Y-87055585D01*
X159436274Y-87088501D01*
X159160000Y-87088501D01*
X159092961Y-87068816D01*
X159072469Y-87045168D01*
X159072319Y-87045319D01*
X159036000Y-87009000D01*
X158530000Y-87009000D01*
X158462961Y-86989315D01*
X158417206Y-86936511D01*
X158406000Y-86885000D01*
X158406000Y-86753936D01*
X158329345Y-86629662D01*
X158207434Y-86507752D01*
X158060711Y-86417251D01*
X158060700Y-86417246D01*
X157984400Y-86391963D01*
X157984400Y-87216200D01*
X157964715Y-87283239D01*
X157911911Y-87328994D01*
X157860400Y-87340200D01*
X157509400Y-87340200D01*
X157509400Y-87691200D01*
X157489715Y-87758239D01*
X157436911Y-87803994D01*
X157385400Y-87815200D01*
X156569521Y-87815200D01*
X156584100Y-87859196D01*
X156586502Y-87929025D01*
X156550770Y-87989066D01*
X156488249Y-88020259D01*
X156466394Y-88022200D01*
X155477526Y-88022200D01*
X155461341Y-88021139D01*
X155448317Y-88019424D01*
X155356175Y-88007293D01*
X155324908Y-87998915D01*
X155234481Y-87961459D01*
X155206448Y-87945274D01*
X155128798Y-87885691D01*
X155105908Y-87862801D01*
X155046325Y-87785151D01*
X155030140Y-87757118D01*
X154992684Y-87666691D01*
X154984306Y-87635423D01*
X154970461Y-87530259D01*
X154969400Y-87514074D01*
X154969400Y-86865200D01*
X156569521Y-86865200D01*
X157034400Y-86865200D01*
X157034400Y-86391963D01*
X156958099Y-86417246D01*
X156958088Y-86417251D01*
X156811365Y-86507752D01*
X156811361Y-86507755D01*
X156689455Y-86629661D01*
X156689452Y-86629665D01*
X156598951Y-86776388D01*
X156598946Y-86776399D01*
X156569521Y-86865200D01*
X154969400Y-86865200D01*
X154969400Y-85515721D01*
X154970737Y-85497558D01*
X154988165Y-85379856D01*
X154998692Y-85345090D01*
X155049480Y-85237488D01*
X155058435Y-85221647D01*
X155171544Y-85051984D01*
X155225106Y-85007126D01*
X155294422Y-84998346D01*
X155357481Y-85028435D01*
X155394262Y-85087839D01*
X155398073Y-85108166D01*
X155401719Y-85143852D01*
X155455946Y-85307500D01*
X155455951Y-85307511D01*
X155546452Y-85454234D01*
X155546455Y-85454238D01*
X155668361Y-85576144D01*
X155668365Y-85576147D01*
X155815094Y-85666651D01*
X155891400Y-85691935D01*
X156841400Y-85691935D01*
X156917705Y-85666651D01*
X157064434Y-85576147D01*
X157064435Y-85576147D01*
X157066558Y-85574024D01*
X157068375Y-85573031D01*
X157070101Y-85571667D01*
X157070334Y-85571961D01*
X157127879Y-85540535D01*
X157197571Y-85545514D01*
X157226411Y-85561760D01*
X157226415Y-85561754D01*
X157226568Y-85561848D01*
X157231158Y-85564434D01*
X157232569Y-85565550D01*
X157379294Y-85656051D01*
X157379300Y-85656054D01*
X157518099Y-85702046D01*
X157518100Y-85702046D01*
X157518100Y-85220600D01*
X156841400Y-85220600D01*
X156841400Y-85691935D01*
X155891400Y-85691935D01*
X155891400Y-84817700D01*
X155911085Y-84750661D01*
X155963889Y-84704906D01*
X156015400Y-84693700D01*
X156366400Y-84693700D01*
X156366400Y-84342700D01*
X156386085Y-84275661D01*
X156438889Y-84229906D01*
X156490400Y-84218700D01*
X157368138Y-84218700D01*
X157435177Y-84238385D01*
G37*
%TD.AperFunction*%
%TD*%
%TA.AperFunction,Conductor*%
%TO.N,/LIPO_TO_5V/5V_OUT*%
G36*
X187649039Y-74949685D02*
G01*
X187694794Y-75002489D01*
X187706000Y-75054000D01*
X187706000Y-77346000D01*
X187686315Y-77413039D01*
X187633511Y-77458794D01*
X187582000Y-77470000D01*
X184528000Y-77470000D01*
X184460961Y-77450315D01*
X184415206Y-77397511D01*
X184404000Y-77346000D01*
X184404000Y-75054000D01*
X184423685Y-74986961D01*
X184476489Y-74941206D01*
X184528000Y-74930000D01*
X187582000Y-74930000D01*
X187649039Y-74949685D01*
G37*
%TD.AperFunction*%
%TD*%
%TA.AperFunction,Conductor*%
%TO.N,/BATT_INPUT*%
G36*
X179881522Y-90373009D02*
G01*
X179882702Y-90373131D01*
X180067026Y-90392190D01*
X180091984Y-90397406D01*
X180235368Y-90443197D01*
X180263525Y-90452189D01*
X180286897Y-90462407D01*
X180443595Y-90551128D01*
X180464381Y-90565913D01*
X180599600Y-90684812D01*
X180616922Y-90703536D01*
X180728814Y-90852738D01*
X180735940Y-90863336D01*
X181946967Y-92881714D01*
X181952270Y-92891528D01*
X182023272Y-93038384D01*
X182031136Y-93059258D01*
X182073179Y-93211045D01*
X182077175Y-93232991D01*
X182091846Y-93395430D01*
X182092349Y-93406584D01*
X182092349Y-94174223D01*
X182091288Y-94190409D01*
X182072842Y-94330514D01*
X182064464Y-94361781D01*
X182013522Y-94484766D01*
X181997336Y-94512800D01*
X181916297Y-94618411D01*
X181893409Y-94641299D01*
X181787798Y-94722338D01*
X181759764Y-94738524D01*
X181636779Y-94789467D01*
X181605511Y-94797845D01*
X181465408Y-94816290D01*
X181449223Y-94817351D01*
X180822345Y-94817351D01*
X180822345Y-94817352D01*
X180822348Y-97992350D01*
X180822349Y-97992351D01*
X181064137Y-97992351D01*
X181088329Y-97994734D01*
X181149360Y-98006874D01*
X181194058Y-98025388D01*
X181235445Y-98053042D01*
X181269658Y-98087255D01*
X181297311Y-98128642D01*
X181315825Y-98173338D01*
X181327966Y-98234370D01*
X181330349Y-98258563D01*
X181330349Y-99272258D01*
X181329752Y-99284412D01*
X181312331Y-99461285D01*
X181307589Y-99485126D01*
X181257773Y-99649349D01*
X181248470Y-99671807D01*
X181167576Y-99823149D01*
X181154071Y-99843361D01*
X181045203Y-99976017D01*
X181028015Y-99993205D01*
X180895359Y-100102073D01*
X180875147Y-100115578D01*
X180723805Y-100196472D01*
X180701347Y-100205775D01*
X180537124Y-100255591D01*
X180513283Y-100260333D01*
X180336410Y-100277754D01*
X180324256Y-100278351D01*
X179923442Y-100278351D01*
X179911288Y-100277754D01*
X179734414Y-100260333D01*
X179710573Y-100255591D01*
X179546350Y-100205775D01*
X179523892Y-100196472D01*
X179372550Y-100115578D01*
X179352338Y-100102073D01*
X179219682Y-99993205D01*
X179202494Y-99976017D01*
X179093626Y-99843361D01*
X179080121Y-99823149D01*
X178999227Y-99671807D01*
X178989924Y-99649349D01*
X178940106Y-99485120D01*
X178935367Y-99461292D01*
X178917946Y-99284412D01*
X178917349Y-99272258D01*
X178917349Y-91141312D01*
X178918129Y-91127429D01*
X178919646Y-91113958D01*
X178934890Y-90978666D01*
X178941066Y-90951609D01*
X178988198Y-90816913D01*
X179000238Y-90791910D01*
X179076164Y-90671075D01*
X179093470Y-90649374D01*
X179194372Y-90548472D01*
X179216073Y-90531166D01*
X179336908Y-90455240D01*
X179361911Y-90443200D01*
X179496607Y-90396068D01*
X179523664Y-90389892D01*
X179658956Y-90374648D01*
X179672427Y-90373131D01*
X179686310Y-90372351D01*
X179868769Y-90372351D01*
X179881522Y-90373009D01*
G37*
%TD.AperFunction*%
%TD*%
%TA.AperFunction,Conductor*%
%TO.N,Net-(L2-+)*%
G36*
X194415312Y-83564900D02*
G01*
X194473287Y-83584460D01*
X194508692Y-83634361D01*
X194513200Y-83663894D01*
X194513200Y-85553908D01*
X194494293Y-85612099D01*
X194480427Y-85627494D01*
X193689260Y-86339544D01*
X193658106Y-86355166D01*
X193659184Y-86357768D01*
X193557370Y-86399940D01*
X192976145Y-86981164D01*
X192972370Y-86984746D01*
X192481200Y-87426800D01*
X192481200Y-87453509D01*
X192476355Y-87468420D01*
X192476355Y-87478606D01*
X192476861Y-87478707D01*
X192476355Y-87481250D01*
X192476355Y-87484102D01*
X192475124Y-87487436D01*
X192463326Y-87546749D01*
X192463326Y-88089800D01*
X192458481Y-88104711D01*
X192458481Y-88120393D01*
X192449264Y-88133078D01*
X192444419Y-88147991D01*
X192431733Y-88157207D01*
X192422517Y-88169893D01*
X192407604Y-88174738D01*
X192394919Y-88183955D01*
X192364326Y-88188800D01*
X192242474Y-88188800D01*
X192184283Y-88169893D01*
X192148319Y-88120393D01*
X192143474Y-88089800D01*
X192143474Y-87546753D01*
X192143473Y-87546749D01*
X192141815Y-87538414D01*
X192131841Y-87488269D01*
X192131839Y-87488267D01*
X192131225Y-87485176D01*
X192130445Y-87484102D01*
X192130445Y-87481250D01*
X192129939Y-87478707D01*
X192130445Y-87478606D01*
X192130445Y-87477867D01*
X192125600Y-87453509D01*
X192125600Y-87426799D01*
X192125599Y-87426798D01*
X190026572Y-85627633D01*
X189994695Y-85575408D01*
X189992000Y-85552467D01*
X189992000Y-83615318D01*
X190010907Y-83557127D01*
X190060407Y-83521163D01*
X190092106Y-83516324D01*
X194415312Y-83564900D01*
G37*
%TD.AperFunction*%
%TD*%
%TA.AperFunction,Conductor*%
%TO.N,GND*%
G36*
X189084751Y-84699300D02*
G01*
X189205206Y-84714132D01*
X189234554Y-84722484D01*
X189337716Y-84770048D01*
X189363128Y-84786945D01*
X189446894Y-84863666D01*
X189465953Y-84887501D01*
X189522374Y-84986095D01*
X189533269Y-85014604D01*
X189558597Y-85133291D01*
X189560625Y-85148461D01*
X189585600Y-85597999D01*
X189585600Y-85598000D01*
X189921290Y-85876552D01*
X189921291Y-85876552D01*
X191695361Y-87348653D01*
X191703326Y-87356037D01*
X191807249Y-87463557D01*
X191820524Y-87480709D01*
X191860264Y-87545696D01*
X191895690Y-87603626D01*
X191904910Y-87623260D01*
X191932654Y-87704442D01*
X191937974Y-87736457D01*
X191937974Y-88089800D01*
X191938914Y-88101744D01*
X191940504Y-88121943D01*
X191945357Y-88152593D01*
X191946120Y-88157081D01*
X191946120Y-88157083D01*
X191959593Y-88188605D01*
X191965655Y-88208196D01*
X191970804Y-88234078D01*
X191971297Y-88236553D01*
X191973200Y-88255869D01*
X191973200Y-88290400D01*
X191973201Y-88290400D01*
X191985383Y-88302582D01*
X192006080Y-88309307D01*
X192017893Y-88319396D01*
X192019145Y-88320648D01*
X192019148Y-88320652D01*
X192085469Y-88364967D01*
X192129931Y-88373811D01*
X192143941Y-88376598D01*
X192143942Y-88376598D01*
X192143952Y-88376600D01*
X192143961Y-88376600D01*
X192148788Y-88377076D01*
X192148695Y-88378013D01*
X192170360Y-88381445D01*
X192172203Y-88382043D01*
X192178972Y-88384243D01*
X192191007Y-88386149D01*
X192242470Y-88394300D01*
X192242474Y-88394300D01*
X192364319Y-88394300D01*
X192364326Y-88394300D01*
X192396470Y-88391770D01*
X192427063Y-88386925D01*
X192431621Y-88386151D01*
X192434867Y-88384763D01*
X192437271Y-88383736D01*
X192456175Y-88377809D01*
X192462032Y-88376600D01*
X192462848Y-88376600D01*
X192521331Y-88364967D01*
X192522646Y-88364087D01*
X192533449Y-88361858D01*
X192554975Y-88364248D01*
X192576570Y-88362548D01*
X192581514Y-88364154D01*
X192585592Y-88364965D01*
X192585595Y-88364967D01*
X192644078Y-88376600D01*
X192644079Y-88376600D01*
X192962973Y-88376600D01*
X192962974Y-88376600D01*
X193021457Y-88364967D01*
X193087778Y-88320652D01*
X193087782Y-88320645D01*
X193089033Y-88319396D01*
X193091663Y-88318055D01*
X193095885Y-88315235D01*
X193096218Y-88315734D01*
X193131126Y-88297949D01*
X193141599Y-88290400D01*
X193141600Y-88290400D01*
X193266644Y-87915265D01*
X193271275Y-87903814D01*
X193323203Y-87795390D01*
X193336538Y-87774657D01*
X193409662Y-87687215D01*
X193427711Y-87670420D01*
X193520178Y-87603774D01*
X193541820Y-87591961D01*
X193647894Y-87550243D01*
X193671787Y-87544147D01*
X193757004Y-87533448D01*
X193791070Y-87529171D01*
X193803403Y-87528400D01*
X198266836Y-87528400D01*
X198277920Y-87529022D01*
X198295959Y-87531054D01*
X198419578Y-87544982D01*
X198441186Y-87549915D01*
X198561339Y-87591959D01*
X198570447Y-87595146D01*
X198590420Y-87604764D01*
X198706379Y-87677625D01*
X198723712Y-87691447D01*
X198820552Y-87788287D01*
X198834374Y-87805620D01*
X198907235Y-87921579D01*
X198916853Y-87941552D01*
X198962083Y-88070810D01*
X198967016Y-88092423D01*
X198982977Y-88234078D01*
X198983600Y-88245163D01*
X198983600Y-88599492D01*
X198982914Y-88611122D01*
X198966250Y-88751989D01*
X198960823Y-88774609D01*
X198913779Y-88902194D01*
X198903224Y-88922920D01*
X198827712Y-89036006D01*
X198812611Y-89053700D01*
X198708480Y-89150038D01*
X198699478Y-89157433D01*
X198424800Y-89357200D01*
X198424799Y-89357201D01*
X198423937Y-90627200D01*
X198423583Y-91147018D01*
X198423100Y-91156718D01*
X198405210Y-91337175D01*
X198401414Y-91356199D01*
X198350097Y-91525031D01*
X198342665Y-91542949D01*
X198259409Y-91698534D01*
X198248628Y-91714655D01*
X198136632Y-91851015D01*
X198122910Y-91864727D01*
X197986473Y-91976630D01*
X197970341Y-91987403D01*
X197814703Y-92070551D01*
X197796779Y-92077972D01*
X197627914Y-92129173D01*
X197608888Y-92132956D01*
X197446368Y-92148956D01*
X197428414Y-92150724D01*
X197418716Y-92151200D01*
X195875707Y-92151200D01*
X195863500Y-92150444D01*
X195715547Y-92132060D01*
X195691874Y-92126085D01*
X195558686Y-92074293D01*
X195537196Y-92062706D01*
X195420728Y-91979890D01*
X195402727Y-91963397D01*
X195310068Y-91854596D01*
X195296651Y-91834197D01*
X195233439Y-91706030D01*
X195225422Y-91682970D01*
X195195498Y-91543231D01*
X195193368Y-91518909D01*
X195198778Y-91369910D01*
X195199973Y-91357762D01*
X195313241Y-90655505D01*
X195326000Y-90576400D01*
X195326000Y-89154000D01*
X195325999Y-89154000D01*
X193956087Y-89154000D01*
X193946332Y-89153518D01*
X193764841Y-89135547D01*
X193745709Y-89131721D01*
X193571266Y-89078505D01*
X193562076Y-89075198D01*
X193491396Y-89045748D01*
X193491396Y-89045747D01*
X193491394Y-89045747D01*
X193448132Y-89027721D01*
X193263521Y-88950800D01*
X193263520Y-88950800D01*
X193159037Y-88950800D01*
X193100846Y-88931893D01*
X193089033Y-88921804D01*
X193087780Y-88920551D01*
X193087778Y-88920548D01*
X193025073Y-88878649D01*
X193021459Y-88876234D01*
X193021457Y-88876233D01*
X193021454Y-88876232D01*
X193021453Y-88876232D01*
X192962984Y-88864601D01*
X192962974Y-88864600D01*
X192644078Y-88864600D01*
X192644077Y-88864600D01*
X192644067Y-88864601D01*
X192576033Y-88878135D01*
X192575430Y-88875104D01*
X192530345Y-88878649D01*
X192525399Y-88877042D01*
X192462858Y-88864601D01*
X192462848Y-88864600D01*
X192143952Y-88864600D01*
X192143951Y-88864600D01*
X192143941Y-88864601D01*
X192075907Y-88878135D01*
X192075304Y-88875104D01*
X192030219Y-88878649D01*
X192025273Y-88877042D01*
X191962732Y-88864601D01*
X191962722Y-88864600D01*
X191643826Y-88864600D01*
X191643825Y-88864600D01*
X191643815Y-88864601D01*
X191585346Y-88876232D01*
X191585340Y-88876234D01*
X191519020Y-88920549D01*
X191512976Y-88926593D01*
X191477527Y-88949362D01*
X191473669Y-88950798D01*
X191190634Y-89195517D01*
X191190621Y-89195528D01*
X190787164Y-89544370D01*
X189819809Y-90380771D01*
X189812887Y-90386236D01*
X189679189Y-90482455D01*
X189664027Y-90491435D01*
X189519372Y-90560525D01*
X189502858Y-90566674D01*
X189348250Y-90609022D01*
X189330908Y-90612146D01*
X189166828Y-90626807D01*
X189158017Y-90627200D01*
X188765645Y-90627200D01*
X188754591Y-90626581D01*
X188598491Y-90609041D01*
X188576933Y-90604134D01*
X188433882Y-90554226D01*
X188413952Y-90544659D01*
X188285545Y-90464251D01*
X188268240Y-90450503D01*
X188160869Y-90343594D01*
X188147058Y-90326363D01*
X188066088Y-90198290D01*
X188056438Y-90178406D01*
X188005915Y-90035572D01*
X188000916Y-90014036D01*
X187982704Y-89858016D01*
X187982037Y-89846965D01*
X187979033Y-89150038D01*
X187963419Y-85527649D01*
X187963972Y-85516778D01*
X187981074Y-85355886D01*
X187985738Y-85334636D01*
X188035840Y-85186579D01*
X188045043Y-85166853D01*
X188126303Y-85033330D01*
X188139592Y-85016098D01*
X188248071Y-84903579D01*
X188264816Y-84889661D01*
X188330042Y-84846622D01*
X188395267Y-84803584D01*
X188414651Y-84793662D01*
X188432343Y-84786945D01*
X188560770Y-84738185D01*
X188581848Y-84732743D01*
X188741991Y-84709775D01*
X188752848Y-84708824D01*
X189069471Y-84698610D01*
X189084751Y-84699300D01*
G37*
%TD.AperFunction*%
%TD*%
%TA.AperFunction,Conductor*%
%TO.N,Net-(L1-+)*%
G36*
X159684459Y-79387261D02*
G01*
X159789623Y-79401106D01*
X159820891Y-79409484D01*
X159911318Y-79446940D01*
X159939352Y-79463125D01*
X160017002Y-79522709D01*
X160039891Y-79545598D01*
X160099474Y-79623248D01*
X160115659Y-79651281D01*
X160153115Y-79741708D01*
X160161493Y-79772975D01*
X160175339Y-79878139D01*
X160176400Y-79894325D01*
X160176400Y-82815074D01*
X160175339Y-82831259D01*
X160162763Y-82926785D01*
X160134497Y-82990682D01*
X160076172Y-83029153D01*
X160039824Y-83034600D01*
X158701722Y-83034600D01*
X158677222Y-83032155D01*
X158669527Y-83030604D01*
X158645890Y-83025839D01*
X158591582Y-83022513D01*
X158578581Y-83021717D01*
X158578576Y-83021716D01*
X158578561Y-83021716D01*
X158555545Y-83021599D01*
X158555540Y-83021599D01*
X158467540Y-83046466D01*
X158467532Y-83046469D01*
X158406214Y-83079951D01*
X158359385Y-83115006D01*
X158359376Y-83115014D01*
X158307674Y-83166717D01*
X158281996Y-83186420D01*
X158281991Y-83186424D01*
X158243003Y-83208933D01*
X158213102Y-83221319D01*
X158194803Y-83226222D01*
X158169606Y-83232974D01*
X158137513Y-83237200D01*
X158092489Y-83237200D01*
X158060397Y-83232975D01*
X158016902Y-83221321D01*
X157986997Y-83208934D01*
X157947997Y-83186417D01*
X157922320Y-83166714D01*
X157890485Y-83134879D01*
X157870778Y-83109196D01*
X157848265Y-83070201D01*
X157835878Y-83040296D01*
X157824225Y-82996805D01*
X157820000Y-82964712D01*
X157820000Y-82919685D01*
X157824225Y-82887594D01*
X157835877Y-82844105D01*
X157848266Y-82814194D01*
X157862553Y-82789449D01*
X157881759Y-82744599D01*
X157888303Y-82722312D01*
X157898230Y-82688508D01*
X157902007Y-82673601D01*
X157902008Y-82673599D01*
X157900764Y-82582151D01*
X157884291Y-82514250D01*
X157862553Y-82459951D01*
X157848264Y-82435203D01*
X157835878Y-82405296D01*
X157824225Y-82361803D01*
X157820000Y-82329712D01*
X157820000Y-82284686D01*
X157824225Y-82252595D01*
X157835878Y-82209102D01*
X157848264Y-82179196D01*
X157862553Y-82154449D01*
X157881759Y-82109599D01*
X157898232Y-82053500D01*
X157902008Y-82038599D01*
X157900764Y-81947151D01*
X157884291Y-81879250D01*
X157862553Y-81824951D01*
X157848264Y-81800203D01*
X157835878Y-81770296D01*
X157824225Y-81726803D01*
X157820000Y-81694712D01*
X157820000Y-81649686D01*
X157824225Y-81617595D01*
X157835878Y-81574102D01*
X157848264Y-81544196D01*
X157862553Y-81519449D01*
X157881759Y-81474599D01*
X157898232Y-81418500D01*
X157902008Y-81403599D01*
X157900764Y-81312151D01*
X157884291Y-81244250D01*
X157862553Y-81189951D01*
X157848264Y-81165203D01*
X157835878Y-81135296D01*
X157824225Y-81091803D01*
X157820000Y-81059712D01*
X157820000Y-81014686D01*
X157824225Y-80982595D01*
X157835878Y-80939102D01*
X157848264Y-80909196D01*
X157862553Y-80884449D01*
X157881759Y-80839599D01*
X157898232Y-80783500D01*
X157902008Y-80768599D01*
X157900764Y-80677151D01*
X157884291Y-80609250D01*
X157862553Y-80554951D01*
X157848264Y-80530203D01*
X157835878Y-80500296D01*
X157824225Y-80456803D01*
X157820000Y-80424712D01*
X157820000Y-80379686D01*
X157824225Y-80347595D01*
X157835878Y-80304102D01*
X157848264Y-80274196D01*
X157862553Y-80249449D01*
X157881759Y-80204599D01*
X157898232Y-80148500D01*
X157902008Y-80133599D01*
X157900764Y-80042151D01*
X157884291Y-79974250D01*
X157862553Y-79919951D01*
X157848264Y-79895203D01*
X157835878Y-79865296D01*
X157824225Y-79821803D01*
X157820000Y-79789712D01*
X157820000Y-79744684D01*
X157824223Y-79712598D01*
X157835879Y-79669093D01*
X157848261Y-79639201D01*
X157870783Y-79600193D01*
X157890476Y-79574529D01*
X157922324Y-79542681D01*
X157947996Y-79522981D01*
X157986997Y-79500463D01*
X158016905Y-79488077D01*
X158060394Y-79476425D01*
X158092485Y-79472200D01*
X158137512Y-79472200D01*
X158169604Y-79476424D01*
X158242873Y-79496057D01*
X158291159Y-79503001D01*
X158349597Y-79504395D01*
X158364952Y-79504187D01*
X158452965Y-79479326D01*
X158503613Y-79451677D01*
X158503612Y-79451676D01*
X158505764Y-79450502D01*
X158526883Y-79438970D01*
X158528421Y-79438300D01*
X158529296Y-79437653D01*
X158530770Y-79436849D01*
X158535350Y-79433184D01*
X158535878Y-79432794D01*
X158535879Y-79432795D01*
X158560802Y-79414401D01*
X158566187Y-79410427D01*
X158631817Y-79386458D01*
X158639817Y-79386200D01*
X159668274Y-79386200D01*
X159684459Y-79387261D01*
G37*
%TD.AperFunction*%
%TD*%
%TA.AperFunction,Conductor*%
%TO.N,/BATT_BYPASS*%
G36*
X184675758Y-84600461D02*
G01*
X184694787Y-84612197D01*
X184715566Y-84625014D01*
X184882103Y-84680199D01*
X184984891Y-84690700D01*
X185804001Y-84690699D01*
X185871039Y-84710383D01*
X185916794Y-84763187D01*
X185928000Y-84814699D01*
X185928000Y-86998000D01*
X185908315Y-87065039D01*
X185855511Y-87110794D01*
X185804000Y-87122000D01*
X183258000Y-87122000D01*
X183190961Y-87102315D01*
X183145206Y-87049511D01*
X183134000Y-86998000D01*
X183134000Y-85864278D01*
X183136408Y-85839960D01*
X183368064Y-84681682D01*
X183400514Y-84619804D01*
X183461266Y-84585294D01*
X183489656Y-84582000D01*
X184610662Y-84582000D01*
X184675758Y-84600461D01*
G37*
%TD.AperFunction*%
%TD*%
%TA.AperFunction,Conductor*%
%TO.N,/BATT_INPUT*%
G36*
X174832229Y-83768948D02*
G01*
X175009301Y-83786408D01*
X175033157Y-83791159D01*
X175154410Y-83827982D01*
X175197535Y-83841079D01*
X175220012Y-83850400D01*
X175371476Y-83931460D01*
X175391701Y-83944992D01*
X175524418Y-84054073D01*
X175541610Y-84071294D01*
X175654352Y-84208934D01*
X175661599Y-84218726D01*
X176206025Y-85035365D01*
X176212260Y-85045790D01*
X176295758Y-85202332D01*
X176305028Y-85224757D01*
X176354668Y-85388707D01*
X176359394Y-85412507D01*
X176376754Y-85589075D01*
X176377349Y-85601208D01*
X176377349Y-86318258D01*
X176376752Y-86330412D01*
X176359331Y-86507285D01*
X176354589Y-86531126D01*
X176304773Y-86695349D01*
X176295470Y-86717807D01*
X176214576Y-86869149D01*
X176201071Y-86889361D01*
X176092203Y-87022017D01*
X176075015Y-87039205D01*
X175942359Y-87148073D01*
X175922147Y-87161578D01*
X175770805Y-87242472D01*
X175748347Y-87251775D01*
X175584124Y-87301591D01*
X175560283Y-87306333D01*
X175383410Y-87323754D01*
X175371256Y-87324351D01*
X174103679Y-87324351D01*
X174091690Y-87323770D01*
X173917194Y-87306819D01*
X173893664Y-87302204D01*
X173731479Y-87253716D01*
X173709277Y-87244659D01*
X173559452Y-87165859D01*
X173539409Y-87152698D01*
X173407551Y-87046536D01*
X173390416Y-87029763D01*
X173281460Y-86900212D01*
X173267873Y-86880455D01*
X173185888Y-86732356D01*
X173176357Y-86710354D01*
X173124403Y-86549227D01*
X173119290Y-86525818D01*
X173098608Y-86351718D01*
X173097771Y-86339752D01*
X173097571Y-86330412D01*
X173088203Y-85892835D01*
X173075349Y-85292351D01*
X172698379Y-84538411D01*
X172691525Y-84521783D01*
X172652301Y-84402755D01*
X172646120Y-84367382D01*
X172642902Y-84251228D01*
X172647115Y-84215572D01*
X172677319Y-84103363D01*
X172691571Y-84070412D01*
X172752668Y-83971555D01*
X172752936Y-83971236D01*
X172752994Y-83971031D01*
X172775763Y-83944075D01*
X172862622Y-83866875D01*
X172892626Y-83847163D01*
X172973084Y-83809682D01*
X172997959Y-83798095D01*
X173032364Y-83787804D01*
X173077814Y-83781152D01*
X173156361Y-83769658D01*
X173174316Y-83768351D01*
X174820063Y-83768351D01*
X174832229Y-83768948D01*
G37*
%TD.AperFunction*%
%TD*%
%TA.AperFunction,Conductor*%
%TO.N,GND*%
G36*
X189514133Y-51020185D02*
G01*
X189559888Y-51072989D01*
X189564126Y-51083521D01*
X189600847Y-51188464D01*
X189607024Y-51215527D01*
X189623785Y-51364283D01*
X189624565Y-51378167D01*
X189624565Y-58704550D01*
X189882630Y-58990119D01*
X189882632Y-58990122D01*
X190759249Y-59960169D01*
X191520149Y-60802165D01*
X191527708Y-60811386D01*
X191631530Y-60951222D01*
X191643824Y-60971617D01*
X191716404Y-61123314D01*
X191724573Y-61145688D01*
X191766809Y-61308467D01*
X191770549Y-61331993D01*
X191780879Y-61499842D01*
X191780052Y-61523646D01*
X191758099Y-61690373D01*
X191752735Y-61713582D01*
X191699308Y-61873033D01*
X191689606Y-61894787D01*
X191606677Y-62041080D01*
X191592994Y-62060578D01*
X191483618Y-62188320D01*
X191466463Y-62204839D01*
X191353289Y-62294559D01*
X191334684Y-62309308D01*
X191314683Y-62322244D01*
X191165354Y-62399590D01*
X191143249Y-62408463D01*
X190981896Y-62455827D01*
X190958501Y-62460310D01*
X190785084Y-62476506D01*
X190773173Y-62477042D01*
X190622635Y-62476581D01*
X189103574Y-62471919D01*
X189091446Y-62471287D01*
X188914968Y-62453393D01*
X188891186Y-62448596D01*
X188727412Y-62398469D01*
X188705020Y-62389134D01*
X188629578Y-62348605D01*
X188554134Y-62308075D01*
X188533994Y-62294561D01*
X188401783Y-62185676D01*
X188384655Y-62168496D01*
X188296332Y-62060578D01*
X188276174Y-62035948D01*
X188262723Y-62015768D01*
X188182124Y-61864630D01*
X188172861Y-61842217D01*
X188123235Y-61678281D01*
X188118513Y-61654494D01*
X188101160Y-61477959D01*
X188100565Y-61465829D01*
X188100565Y-51378167D01*
X188101345Y-51364284D01*
X188102862Y-51350813D01*
X188118106Y-51215519D01*
X188124281Y-51188466D01*
X188160996Y-51083542D01*
X188201717Y-51026769D01*
X188266670Y-51001022D01*
X188278036Y-51000500D01*
X189447094Y-51000500D01*
X189514133Y-51020185D01*
G37*
%TD.AperFunction*%
%TD*%
M02*
