M48
; DRILL file {KiCad 9.0.0-9.0.0-2~ubuntu24.04.1} date 2025-02-26T14:58:11+0100
; FORMAT={-:-/ absolute / metric / decimal}
; #@! TF.CreationDate,2025-02-26T14:58:11+01:00
; #@! TF.GenerationSoftware,Kicad,Pcbnew,9.0.0-9.0.0-2~ubuntu24.04.1
; #@! TF.FileFunction,Plated,1,2,PTH
FMAT,2
METRIC
; #@! TA.AperFunction,Plated,PTH,ViaDrill
T1C0.300
; #@! TA.AperFunction,Plated,PTH,ComponentDrill
T2C0.800
; #@! TA.AperFunction,Plated,PTH,ComponentDrill
T3C1.000
; #@! TA.AperFunction,Plated,PTH,ComponentDrill
T4C2.700
%
G90
G05
T1
X155.477Y-85.736
X155.477Y-86.371
X155.477Y-87.006
X155.477Y-87.641
X155.956Y-79.502
X155.956Y-80.264
X155.956Y-81.026
X156.239Y-85.736
X156.239Y-86.371
X156.239Y-87.006
X156.239Y-87.641
X158.115Y-79.767
X158.115Y-80.402
X158.115Y-81.037
X158.115Y-81.672
X158.115Y-82.307
X158.115Y-82.942
X158.242Y-85.852
X158.511Y-87.602
X158.798Y-64.074
X159.004Y-88.638
X159.548Y-85.721
X160.528Y-76.962
X161.7Y-89.038
X161.7Y-89.673
X161.798Y-85.721
X162.081Y-90.181
X163.576Y-79.767
X163.576Y-80.402
X163.576Y-81.037
X163.576Y-81.672
X163.576Y-82.307
X163.576Y-82.942
X163.848Y-93.018
X164.592Y-59.944
X164.592Y-66.802
X164.811Y-90.643
X164.846Y-79.502
X164.846Y-80.264
X164.846Y-81.026
X165.1Y-60.452
X165.608Y-60.96
X165.608Y-79.502
X165.608Y-80.264
X165.608Y-81.026
X165.735Y-58.801
X166.116Y-61.468
X166.116Y-91.44
X166.243Y-59.309
X166.291Y-67.122
X166.751Y-59.817
X167.005Y-68.961
X167.259Y-60.325
X167.386Y-69.85
X167.386Y-79.502
X167.386Y-80.264
X167.386Y-81.026
X167.644Y-91.944
X167.894Y-67.564
X168.148Y-79.502
X168.148Y-80.264
X168.148Y-81.026
X168.643Y-68.343
X168.831Y-70.043
X169.418Y-57.15
X170.18Y-73.406
X170.688Y-91.948
X170.942Y-79.502
X170.942Y-80.264
X170.942Y-81.026
X171.45Y-56.642
X171.498Y-65.639
X171.958Y-76.708
X172.514Y-68.519
X172.641Y-70.297
X173.184Y-76.962
X173.329Y-84.276
X173.329Y-85.038
X173.61Y-56.388
X173.99Y-56.896
X173.99Y-66.294
X174.091Y-84.276
X174.091Y-85.038
X174.244Y-72.39
X174.498Y-57.404
X174.853Y-84.276
X174.853Y-85.038
X174.927Y-67.249
X175.006Y-57.912
X175.615Y-85.038
X175.641Y-71.12
X175.943Y-69.154
X176.276Y-72.898
X176.276Y-73.66
X177.038Y-72.898
X177.038Y-73.66
X177.114Y-62.122
X177.824Y-72.91
X177.824Y-73.66
X178.193Y-94.107
X178.574Y-72.91
X178.574Y-73.66
X179.324Y-72.91
X179.324Y-73.66
X179.324Y-78.442
X179.425Y-91.388
X179.425Y-92.15
X179.832Y-88.392
X179.933Y-90.88
X179.933Y-92.658
X180.441Y-91.388
X180.441Y-92.15
X181.15Y-64.836
X181.277Y-60.264
X181.356Y-82.804
X181.912Y-63.693
X183.415Y-72.163
X183.896Y-81.534
X183.896Y-83.312
X183.896Y-85.09
X184.658Y-85.09
X185.166Y-57.15
X185.42Y-85.09
X185.674Y-76.962
X185.928Y-68.834
X185.928Y-94.742
X186.436Y-76.962
X187.198Y-76.962
X188.214Y-71.374
X188.595Y-59.944
X188.595Y-60.833
X188.595Y-61.722
X189.738Y-59.944
X189.738Y-60.833
X189.738Y-61.722
X189.916Y-86.716
X189.916Y-87.732
X189.916Y-88.748
X189.916Y-89.637
X190.678Y-87.224
X190.678Y-88.24
X190.754Y-74.168
X190.881Y-60.833
X190.881Y-61.722
X191.008Y-67.31
X191.691Y-58.74
X192.024Y-67.818
X192.199Y-59.248
X192.771Y-59.819
X193.281Y-90.475
X193.342Y-60.391
X193.85Y-60.899
X194.358Y-61.407
X194.866Y-61.915
X195.072Y-84.709
X195.072Y-85.344
X195.58Y-91.694
X195.834Y-84.709
X195.834Y-85.344
X196.342Y-91.694
X196.596Y-84.709
X196.596Y-85.344
X197.358Y-84.709
X197.358Y-85.344
X198.12Y-84.709
X198.12Y-85.344
X198.882Y-84.709
X198.882Y-85.344
X199.287Y-81.177
X199.288Y-92.558
X199.644Y-84.709
X199.644Y-85.344
T2
X180.479Y-99.314
X182.479Y-99.314
X184.479Y-99.314
T3
X159.004Y-67.056
X159.004Y-69.596
X159.004Y-72.136
X159.004Y-74.676
T4
X169.966Y-96.52
X174.966Y-96.52
M30
