%TF.GenerationSoftware,KiCad,Pcbnew,9.0.0-9.0.0-2~ubuntu24.04.1*%
%TF.CreationDate,2025-03-07T10:49:14+01:00*%
%TF.ProjectId,BackPlane,4261636b-506c-4616-9e65-2e6b69636164,rev?*%
%TF.SameCoordinates,Original*%
%TF.FileFunction,Copper,L2,Bot*%
%TF.FilePolarity,Positive*%
%FSLAX46Y46*%
G04 Gerber Fmt 4.6, Leading zero omitted, Abs format (unit mm)*
G04 Created by KiCad (PCBNEW 9.0.0-9.0.0-2~ubuntu24.04.1) date 2025-03-07 10:49:14*
%MOMM*%
%LPD*%
G01*
G04 APERTURE LIST*
%TA.AperFunction,SMDPad,CuDef*%
%ADD10R,4.000000X1.500000*%
%TD*%
%TA.AperFunction,ComponentPad*%
%ADD11R,1.700000X1.700000*%
%TD*%
%TA.AperFunction,ComponentPad*%
%ADD12O,1.700000X1.700000*%
%TD*%
%TA.AperFunction,Conductor*%
%ADD13C,0.300000*%
%TD*%
%TA.AperFunction,Conductor*%
%ADD14C,1.000000*%
%TD*%
G04 APERTURE END LIST*
D10*
X136390000Y-55880000D03*
X136390000Y-58420000D03*
X136390000Y-60960000D03*
X136390000Y-63500000D03*
X136390000Y-66040000D03*
X136390000Y-68580000D03*
X136390000Y-71120000D03*
X136390000Y-73660000D03*
X136390000Y-76200000D03*
X136390000Y-78740000D03*
X136390000Y-81280000D03*
X136390000Y-83820000D03*
D11*
X124460000Y-55880000D03*
D12*
X127000000Y-55880000D03*
X124460000Y-58420000D03*
X127000000Y-58420000D03*
X124460000Y-60960000D03*
X127000000Y-60960000D03*
X124460000Y-63500000D03*
X127000000Y-63500000D03*
X124460000Y-66040000D03*
X127000000Y-66040000D03*
X124460000Y-68580000D03*
X127000000Y-68580000D03*
X124460000Y-71120000D03*
X127000000Y-71120000D03*
X124460000Y-73660000D03*
X127000000Y-73660000D03*
X124460000Y-76200000D03*
X127000000Y-76200000D03*
X124460000Y-78740000D03*
X127000000Y-78740000D03*
X124460000Y-81280000D03*
X127000000Y-81280000D03*
X124460000Y-83820000D03*
X127000000Y-83820000D03*
D11*
X63500000Y-55880000D03*
D12*
X66040000Y-55880000D03*
X63500000Y-58420000D03*
X66040000Y-58420000D03*
X63500000Y-60960000D03*
X66040000Y-60960000D03*
X63500000Y-63500000D03*
X66040000Y-63500000D03*
X63500000Y-66040000D03*
X66040000Y-66040000D03*
X63500000Y-68580000D03*
X66040000Y-68580000D03*
X63500000Y-71120000D03*
X66040000Y-71120000D03*
X63500000Y-73660000D03*
X66040000Y-73660000D03*
X63500000Y-76200000D03*
X66040000Y-76200000D03*
X63500000Y-78740000D03*
X66040000Y-78740000D03*
X63500000Y-81280000D03*
X66040000Y-81280000D03*
X63500000Y-83820000D03*
X66040000Y-83820000D03*
D11*
X104140000Y-55880000D03*
D12*
X106680000Y-55880000D03*
X104140000Y-58420000D03*
X106680000Y-58420000D03*
X104140000Y-60960000D03*
X106680000Y-60960000D03*
X104140000Y-63500000D03*
X106680000Y-63500000D03*
X104140000Y-66040000D03*
X106680000Y-66040000D03*
X104140000Y-68580000D03*
X106680000Y-68580000D03*
X104140000Y-71120000D03*
X106680000Y-71120000D03*
X104140000Y-73660000D03*
X106680000Y-73660000D03*
X104140000Y-76200000D03*
X106680000Y-76200000D03*
X104140000Y-78740000D03*
X106680000Y-78740000D03*
X104140000Y-81280000D03*
X106680000Y-81280000D03*
X104140000Y-83820000D03*
X106680000Y-83820000D03*
D11*
X83820000Y-55880000D03*
D12*
X86360000Y-55880000D03*
X83820000Y-58420000D03*
X86360000Y-58420000D03*
X83820000Y-60960000D03*
X86360000Y-60960000D03*
X83820000Y-63500000D03*
X86360000Y-63500000D03*
X83820000Y-66040000D03*
X86360000Y-66040000D03*
X83820000Y-68580000D03*
X86360000Y-68580000D03*
X83820000Y-71120000D03*
X86360000Y-71120000D03*
X83820000Y-73660000D03*
X86360000Y-73660000D03*
X83820000Y-76200000D03*
X86360000Y-76200000D03*
X83820000Y-78740000D03*
X86360000Y-78740000D03*
X83820000Y-81280000D03*
X86360000Y-81280000D03*
X83820000Y-83820000D03*
X86360000Y-83820000D03*
D13*
X106680000Y-71189000D02*
X105361000Y-69870000D01*
X105361000Y-69870000D02*
X87679000Y-69870000D01*
X87679000Y-69870000D02*
X86360000Y-71189000D01*
X106680000Y-68649000D02*
X105361000Y-67330000D01*
X105361000Y-67330000D02*
X87679000Y-67330000D01*
X87679000Y-67330000D02*
X86360000Y-68649000D01*
X106680000Y-66109000D02*
X105361000Y-64790000D01*
X105361000Y-64790000D02*
X87679000Y-64790000D01*
X87679000Y-64790000D02*
X86360000Y-66109000D01*
X106680000Y-63569000D02*
X105361000Y-62250000D01*
X105361000Y-62250000D02*
X87679000Y-62250000D01*
X87679000Y-62250000D02*
X86360000Y-63569000D01*
X86360000Y-63315000D02*
X85295000Y-62250000D01*
X85295000Y-62250000D02*
X67105000Y-62250000D01*
X67105000Y-62250000D02*
X66040000Y-63315000D01*
X86360000Y-70935000D02*
X85295000Y-69870000D01*
X85295000Y-69870000D02*
X67105000Y-69870000D01*
X67105000Y-69870000D02*
X66040000Y-70935000D01*
X87561000Y-77470000D02*
X86360000Y-76269000D01*
X67495000Y-77470000D02*
X66040000Y-76015000D01*
X125730000Y-77470000D02*
X107950000Y-77470000D01*
X106680000Y-76269000D02*
X105479000Y-77470000D01*
X127000000Y-76200000D02*
X125730000Y-77470000D01*
X86360000Y-76015000D02*
X84905000Y-77470000D01*
X107950000Y-77470000D02*
X106680000Y-76200000D01*
X84905000Y-77470000D02*
X67495000Y-77470000D01*
X135890000Y-76200000D02*
X127000000Y-76200000D01*
X105479000Y-77470000D02*
X87561000Y-77470000D01*
D14*
X61214000Y-59944000D02*
X61214000Y-71374000D01*
X63500000Y-58420000D02*
X62738000Y-58420000D01*
X61214000Y-71374000D02*
X63500000Y-73660000D01*
X135890000Y-58420000D02*
X63500000Y-58420000D01*
X135890000Y-73660000D02*
X63500000Y-73660000D01*
X62738000Y-58420000D02*
X61214000Y-59944000D01*
D13*
X84963000Y-85217000D02*
X67437000Y-85217000D01*
X67437000Y-85217000D02*
X66040000Y-83820000D01*
X125799000Y-85021000D02*
X107881000Y-85021000D01*
X135890000Y-83820000D02*
X127000000Y-83820000D01*
X87561000Y-85021000D02*
X86360000Y-83820000D01*
X106680000Y-83820000D02*
X105479000Y-85021000D01*
X86360000Y-83820000D02*
X84963000Y-85217000D01*
X127000000Y-83820000D02*
X125799000Y-85021000D01*
X107881000Y-85021000D02*
X106680000Y-83820000D01*
X105479000Y-85021000D02*
X87561000Y-85021000D01*
X127000000Y-68580000D02*
X125730000Y-67310000D01*
X67125000Y-67310000D02*
X66040000Y-68395000D01*
X135890000Y-68580000D02*
X127000000Y-68580000D01*
X107950000Y-67310000D02*
X106680000Y-68580000D01*
X85275000Y-67310000D02*
X67125000Y-67310000D01*
X125730000Y-67310000D02*
X107950000Y-67310000D01*
X86360000Y-68395000D02*
X85275000Y-67310000D01*
X86360000Y-65855000D02*
X85275000Y-64770000D01*
X127000000Y-66040000D02*
X125799000Y-64839000D01*
X125799000Y-64839000D02*
X107881000Y-64839000D01*
X85275000Y-64770000D02*
X67125000Y-64770000D01*
X67125000Y-64770000D02*
X66040000Y-65855000D01*
X107881000Y-64839000D02*
X106680000Y-66040000D01*
X135890000Y-66040000D02*
X127000000Y-66040000D01*
D14*
X63500000Y-55880000D02*
X135890000Y-55880000D01*
D13*
X85090000Y-82550000D02*
X86360000Y-81280000D01*
X105479000Y-82481000D02*
X106680000Y-81280000D01*
X105479000Y-82550000D02*
X106680000Y-81349000D01*
X107950000Y-82550000D02*
X125730000Y-82550000D01*
X67310000Y-82550000D02*
X85090000Y-82550000D01*
X125730000Y-82550000D02*
X127000000Y-81280000D01*
X135890000Y-81280000D02*
X127000000Y-81280000D01*
X87561000Y-82481000D02*
X105479000Y-82481000D01*
X86360000Y-81280000D02*
X87561000Y-82481000D01*
X106680000Y-81280000D02*
X107950000Y-82550000D01*
X87561000Y-82550000D02*
X105479000Y-82550000D01*
X66040000Y-81280000D02*
X67310000Y-82550000D01*
X86360000Y-81349000D02*
X87561000Y-82550000D01*
X125799000Y-69919000D02*
X107881000Y-69919000D01*
X127000000Y-71120000D02*
X125799000Y-69919000D01*
X107881000Y-69919000D02*
X106680000Y-71120000D01*
X135890000Y-71120000D02*
X127000000Y-71120000D01*
X106680000Y-78809000D02*
X105479000Y-80010000D01*
X107950000Y-80010000D02*
X106680000Y-78740000D01*
X86360000Y-78555000D02*
X84905000Y-80010000D01*
X127000000Y-78740000D02*
X125730000Y-80010000D01*
X87561000Y-80010000D02*
X86360000Y-78809000D01*
X67495000Y-80010000D02*
X66040000Y-78555000D01*
X135890000Y-78740000D02*
X127000000Y-78740000D01*
X125730000Y-80010000D02*
X107950000Y-80010000D01*
X84905000Y-80010000D02*
X67495000Y-80010000D01*
X105479000Y-80010000D02*
X87561000Y-80010000D01*
X106680000Y-61029000D02*
X105341000Y-59690000D01*
X67125000Y-59690000D02*
X66040000Y-60775000D01*
X85275000Y-59690000D02*
X67125000Y-59690000D01*
X87699000Y-59690000D02*
X86360000Y-61029000D01*
X105341000Y-59690000D02*
X87699000Y-59690000D01*
X108019000Y-59621000D02*
X106680000Y-60960000D01*
X125661000Y-59621000D02*
X108019000Y-59621000D01*
X135890000Y-60960000D02*
X127000000Y-60960000D01*
X86360000Y-60775000D02*
X85275000Y-59690000D01*
X127000000Y-60960000D02*
X125661000Y-59621000D01*
X107950000Y-62230000D02*
X106680000Y-63500000D01*
X135890000Y-63500000D02*
X127000000Y-63500000D01*
X125730000Y-62230000D02*
X107950000Y-62230000D01*
X127000000Y-63500000D02*
X125730000Y-62230000D01*
M02*
