%TF.GenerationSoftware,KiCad,Pcbnew,9.0.0-9.0.0-2~ubuntu24.04.1*%
%TF.CreationDate,2025-03-07T10:49:14+01:00*%
%TF.ProjectId,BackPlane,4261636b-506c-4616-9e65-2e6b69636164,rev?*%
%TF.SameCoordinates,Original*%
%TF.FileFunction,Legend,Bot*%
%TF.FilePolarity,Positive*%
%FSLAX46Y46*%
G04 Gerber Fmt 4.6, Leading zero omitted, Abs format (unit mm)*
G04 Created by KiCad (PCBNEW 9.0.0-9.0.0-2~ubuntu24.04.1) date 2025-03-07 10:49:14*
%MOMM*%
%LPD*%
G01*
G04 APERTURE LIST*
%ADD10C,0.685000*%
%ADD11C,0.000250*%
%ADD12C,0.150000*%
%ADD13C,0.000000*%
%ADD14C,0.120000*%
%ADD15R,4.000000X1.500000*%
%ADD16R,1.700000X1.700000*%
%ADD17O,1.700000X1.700000*%
G04 APERTURE END LIST*
D10*
X101942500Y-54249000D02*
G75*
G02*
X101257500Y-54249000I-342500J0D01*
G01*
X101257500Y-54249000D02*
G75*
G02*
X101942500Y-54249000I342500J0D01*
G01*
X61175500Y-54122000D02*
G75*
G02*
X60490500Y-54122000I-342500J0D01*
G01*
X60490500Y-54122000D02*
G75*
G02*
X61175500Y-54122000I342500J0D01*
G01*
X122262500Y-54249000D02*
G75*
G02*
X121577500Y-54249000I-342500J0D01*
G01*
X121577500Y-54249000D02*
G75*
G02*
X122262500Y-54249000I342500J0D01*
G01*
X81368500Y-54249000D02*
G75*
G02*
X80683500Y-54249000I-342500J0D01*
G01*
X80683500Y-54249000D02*
G75*
G02*
X81368500Y-54249000I342500J0D01*
G01*
D11*
X130819809Y-79938541D02*
X130819809Y-79937541D01*
X130819714Y-79938160D02*
X130819428Y-79938541D01*
X130819428Y-79937874D02*
X130819809Y-79938255D01*
X130818999Y-79938541D02*
X130818999Y-79937874D01*
X130818999Y-79937541D02*
X130819047Y-79937589D01*
X130819047Y-79937589D02*
X130818999Y-79937636D01*
X130818999Y-79937636D02*
X130818952Y-79937589D01*
X130818952Y-79937589D02*
X130818999Y-79937541D01*
X130818999Y-79937541D02*
X130818999Y-79937636D01*
X130818523Y-79938541D02*
X130818523Y-79937541D01*
X130818523Y-79937922D02*
X130818428Y-79937874D01*
X130818428Y-79937874D02*
X130818238Y-79937874D01*
X130818238Y-79937874D02*
X130818142Y-79937922D01*
X130818142Y-79937922D02*
X130818095Y-79937970D01*
X130818095Y-79937970D02*
X130818047Y-79938065D01*
X130818047Y-79938065D02*
X130818047Y-79938351D01*
X130818047Y-79938351D02*
X130818095Y-79938446D01*
X130818095Y-79938446D02*
X130818142Y-79938494D01*
X130818142Y-79938494D02*
X130818238Y-79938541D01*
X130818238Y-79938541D02*
X130818428Y-79938541D01*
X130818428Y-79938541D02*
X130818523Y-79938494D01*
X130817190Y-79937874D02*
X130817190Y-79938541D01*
X130817618Y-79937874D02*
X130817618Y-79938398D01*
X130817618Y-79938398D02*
X130817571Y-79938494D01*
X130817571Y-79938494D02*
X130817476Y-79938541D01*
X130817476Y-79938541D02*
X130817333Y-79938541D01*
X130817333Y-79938541D02*
X130817237Y-79938494D01*
X130817237Y-79938494D02*
X130817190Y-79938446D01*
X130816809Y-79937874D02*
X130816285Y-79937874D01*
X130816285Y-79937874D02*
X130816809Y-79938541D01*
X130816809Y-79938541D02*
X130816285Y-79938541D01*
X130815999Y-79937874D02*
X130815475Y-79937874D01*
X130815475Y-79937874D02*
X130815999Y-79938541D01*
X130815999Y-79938541D02*
X130815475Y-79938541D01*
X130814665Y-79938541D02*
X130814665Y-79938017D01*
X130814665Y-79938017D02*
X130814712Y-79937922D01*
X130814712Y-79937922D02*
X130814808Y-79937874D01*
X130814808Y-79937874D02*
X130814998Y-79937874D01*
X130814998Y-79937874D02*
X130815093Y-79937922D01*
X130814665Y-79938494D02*
X130814760Y-79938541D01*
X130814760Y-79938541D02*
X130814998Y-79938541D01*
X130814998Y-79938541D02*
X130815093Y-79938494D01*
X130815093Y-79938494D02*
X130815141Y-79938398D01*
X130815141Y-79938398D02*
X130815141Y-79938303D01*
X130815141Y-79938303D02*
X130815093Y-79938208D01*
X130815093Y-79938208D02*
X130814998Y-79938160D01*
X130814998Y-79938160D02*
X130814760Y-79938160D01*
X130814760Y-79938160D02*
X130814665Y-79938113D01*
X130814188Y-79938541D02*
X130814188Y-79937874D01*
X130814188Y-79938065D02*
X130814141Y-79937970D01*
X130814141Y-79937970D02*
X130814093Y-79937922D01*
X130814093Y-79937922D02*
X130813998Y-79937874D01*
X130813998Y-79937874D02*
X130813903Y-79937874D01*
X130813141Y-79938541D02*
X130813141Y-79937541D01*
X130813141Y-79938494D02*
X130813236Y-79938541D01*
X130813236Y-79938541D02*
X130813427Y-79938541D01*
X130813427Y-79938541D02*
X130813522Y-79938494D01*
X130813522Y-79938494D02*
X130813569Y-79938446D01*
X130813569Y-79938446D02*
X130813617Y-79938351D01*
X130813617Y-79938351D02*
X130813617Y-79938065D01*
X130813617Y-79938065D02*
X130813569Y-79937970D01*
X130813569Y-79937970D02*
X130813522Y-79937922D01*
X130813522Y-79937922D02*
X130813427Y-79937874D01*
X130813427Y-79937874D02*
X130813236Y-79937874D01*
X130813236Y-79937874D02*
X130813141Y-79937922D01*
X130812664Y-79938160D02*
X130811903Y-79938160D01*
X130810998Y-79937541D02*
X130811188Y-79937541D01*
X130811188Y-79937541D02*
X130811284Y-79937589D01*
X130811284Y-79937589D02*
X130811331Y-79937636D01*
X130811331Y-79937636D02*
X130811426Y-79937779D01*
X130811426Y-79937779D02*
X130811474Y-79937970D01*
X130811474Y-79937970D02*
X130811474Y-79938351D01*
X130811474Y-79938351D02*
X130811426Y-79938446D01*
X130811426Y-79938446D02*
X130811379Y-79938494D01*
X130811379Y-79938494D02*
X130811284Y-79938541D01*
X130811284Y-79938541D02*
X130811093Y-79938541D01*
X130811093Y-79938541D02*
X130810998Y-79938494D01*
X130810998Y-79938494D02*
X130810950Y-79938446D01*
X130810950Y-79938446D02*
X130810903Y-79938351D01*
X130810903Y-79938351D02*
X130810903Y-79938113D01*
X130810903Y-79938113D02*
X130810950Y-79938017D01*
X130810950Y-79938017D02*
X130810998Y-79937970D01*
X130810998Y-79937970D02*
X130811093Y-79937922D01*
X130811093Y-79937922D02*
X130811284Y-79937922D01*
X130811284Y-79937922D02*
X130811379Y-79937970D01*
X130811379Y-79937970D02*
X130811426Y-79938017D01*
X130811426Y-79938017D02*
X130811474Y-79938113D01*
X130810570Y-79937541D02*
X130809903Y-79937541D01*
X130809903Y-79937541D02*
X130810332Y-79938541D01*
X130808951Y-79938446D02*
X130808999Y-79938494D01*
X130808999Y-79938494D02*
X130809141Y-79938541D01*
X130809141Y-79938541D02*
X130809237Y-79938541D01*
X130809237Y-79938541D02*
X130809380Y-79938494D01*
X130809380Y-79938494D02*
X130809475Y-79938398D01*
X130809475Y-79938398D02*
X130809522Y-79938303D01*
X130809522Y-79938303D02*
X130809570Y-79938113D01*
X130809570Y-79938113D02*
X130809570Y-79937970D01*
X130809570Y-79937970D02*
X130809522Y-79937779D01*
X130809522Y-79937779D02*
X130809475Y-79937684D01*
X130809475Y-79937684D02*
X130809380Y-79937589D01*
X130809380Y-79937589D02*
X130809237Y-79937541D01*
X130809237Y-79937541D02*
X130809141Y-79937541D01*
X130809141Y-79937541D02*
X130808999Y-79937589D01*
X130808999Y-79937589D02*
X130808951Y-79937636D01*
X130808380Y-79937970D02*
X130808475Y-79937922D01*
X130808475Y-79937922D02*
X130808522Y-79937874D01*
X130808522Y-79937874D02*
X130808570Y-79937779D01*
X130808570Y-79937779D02*
X130808570Y-79937732D01*
X130808570Y-79937732D02*
X130808522Y-79937636D01*
X130808522Y-79937636D02*
X130808475Y-79937589D01*
X130808475Y-79937589D02*
X130808380Y-79937541D01*
X130808380Y-79937541D02*
X130808189Y-79937541D01*
X130808189Y-79937541D02*
X130808094Y-79937589D01*
X130808094Y-79937589D02*
X130808046Y-79937636D01*
X130808046Y-79937636D02*
X130807999Y-79937732D01*
X130807999Y-79937732D02*
X130807999Y-79937779D01*
X130807999Y-79937779D02*
X130808046Y-79937874D01*
X130808046Y-79937874D02*
X130808094Y-79937922D01*
X130808094Y-79937922D02*
X130808189Y-79937970D01*
X130808189Y-79937970D02*
X130808380Y-79937970D01*
X130808380Y-79937970D02*
X130808475Y-79938017D01*
X130808475Y-79938017D02*
X130808522Y-79938065D01*
X130808522Y-79938065D02*
X130808570Y-79938160D01*
X130808570Y-79938160D02*
X130808570Y-79938351D01*
X130808570Y-79938351D02*
X130808522Y-79938446D01*
X130808522Y-79938446D02*
X130808475Y-79938494D01*
X130808475Y-79938494D02*
X130808380Y-79938541D01*
X130808380Y-79938541D02*
X130808189Y-79938541D01*
X130808189Y-79938541D02*
X130808094Y-79938494D01*
X130808094Y-79938494D02*
X130808046Y-79938446D01*
X130808046Y-79938446D02*
X130807999Y-79938351D01*
X130807999Y-79938351D02*
X130807999Y-79938160D01*
X130807999Y-79938160D02*
X130808046Y-79938065D01*
X130808046Y-79938065D02*
X130808094Y-79938017D01*
X130808094Y-79938017D02*
X130808189Y-79937970D01*
X130807380Y-79937541D02*
X130807285Y-79937541D01*
X130807285Y-79937541D02*
X130807189Y-79937589D01*
X130807189Y-79937589D02*
X130807142Y-79937636D01*
X130807142Y-79937636D02*
X130807094Y-79937732D01*
X130807094Y-79937732D02*
X130807047Y-79937922D01*
X130807047Y-79937922D02*
X130807047Y-79938160D01*
X130807047Y-79938160D02*
X130807094Y-79938351D01*
X130807094Y-79938351D02*
X130807142Y-79938446D01*
X130807142Y-79938446D02*
X130807189Y-79938494D01*
X130807189Y-79938494D02*
X130807285Y-79938541D01*
X130807285Y-79938541D02*
X130807380Y-79938541D01*
X130807380Y-79938541D02*
X130807475Y-79938494D01*
X130807475Y-79938494D02*
X130807523Y-79938446D01*
X130807523Y-79938446D02*
X130807570Y-79938351D01*
X130807570Y-79938351D02*
X130807618Y-79938160D01*
X130807618Y-79938160D02*
X130807618Y-79937922D01*
X130807618Y-79937922D02*
X130807570Y-79937732D01*
X130807570Y-79937732D02*
X130807523Y-79937636D01*
X130807523Y-79937636D02*
X130807475Y-79937589D01*
X130807475Y-79937589D02*
X130807380Y-79937541D01*
X130806571Y-79938541D02*
X130806380Y-79938541D01*
X130806380Y-79938541D02*
X130806285Y-79938494D01*
X130806285Y-79938494D02*
X130806237Y-79938446D01*
X130806237Y-79938446D02*
X130806142Y-79938303D01*
X130806142Y-79938303D02*
X130806095Y-79938113D01*
X130806095Y-79938113D02*
X130806095Y-79937732D01*
X130806095Y-79937732D02*
X130806142Y-79937636D01*
X130806142Y-79937636D02*
X130806190Y-79937589D01*
X130806190Y-79937589D02*
X130806285Y-79937541D01*
X130806285Y-79937541D02*
X130806476Y-79937541D01*
X130806476Y-79937541D02*
X130806571Y-79937589D01*
X130806571Y-79937589D02*
X130806618Y-79937636D01*
X130806618Y-79937636D02*
X130806666Y-79937732D01*
X130806666Y-79937732D02*
X130806666Y-79937970D01*
X130806666Y-79937970D02*
X130806618Y-79938065D01*
X130806618Y-79938065D02*
X130806571Y-79938113D01*
X130806571Y-79938113D02*
X130806476Y-79938160D01*
X130806476Y-79938160D02*
X130806285Y-79938160D01*
X130806285Y-79938160D02*
X130806190Y-79938113D01*
X130806190Y-79938113D02*
X130806142Y-79938065D01*
X130806142Y-79938065D02*
X130806095Y-79937970D01*
X130805476Y-79937541D02*
X130805381Y-79937541D01*
X130805381Y-79937541D02*
X130805285Y-79937589D01*
X130805285Y-79937589D02*
X130805238Y-79937636D01*
X130805238Y-79937636D02*
X130805190Y-79937732D01*
X130805190Y-79937732D02*
X130805143Y-79937922D01*
X130805143Y-79937922D02*
X130805143Y-79938160D01*
X130805143Y-79938160D02*
X130805190Y-79938351D01*
X130805190Y-79938351D02*
X130805238Y-79938446D01*
X130805238Y-79938446D02*
X130805285Y-79938494D01*
X130805285Y-79938494D02*
X130805381Y-79938541D01*
X130805381Y-79938541D02*
X130805476Y-79938541D01*
X130805476Y-79938541D02*
X130805571Y-79938494D01*
X130805571Y-79938494D02*
X130805619Y-79938446D01*
X130805619Y-79938446D02*
X130805666Y-79938351D01*
X130805666Y-79938351D02*
X130805714Y-79938160D01*
X130805714Y-79938160D02*
X130805714Y-79937922D01*
X130805714Y-79937922D02*
X130805666Y-79937732D01*
X130805666Y-79937732D02*
X130805619Y-79937636D01*
X130805619Y-79937636D02*
X130805571Y-79937589D01*
X130805571Y-79937589D02*
X130805476Y-79937541D01*
X130804572Y-79937970D02*
X130804667Y-79937922D01*
X130804667Y-79937922D02*
X130804714Y-79937874D01*
X130804714Y-79937874D02*
X130804762Y-79937779D01*
X130804762Y-79937779D02*
X130804762Y-79937732D01*
X130804762Y-79937732D02*
X130804714Y-79937636D01*
X130804714Y-79937636D02*
X130804667Y-79937589D01*
X130804667Y-79937589D02*
X130804572Y-79937541D01*
X130804572Y-79937541D02*
X130804381Y-79937541D01*
X130804381Y-79937541D02*
X130804286Y-79937589D01*
X130804286Y-79937589D02*
X130804238Y-79937636D01*
X130804238Y-79937636D02*
X130804191Y-79937732D01*
X130804191Y-79937732D02*
X130804191Y-79937779D01*
X130804191Y-79937779D02*
X130804238Y-79937874D01*
X130804238Y-79937874D02*
X130804286Y-79937922D01*
X130804286Y-79937922D02*
X130804381Y-79937970D01*
X130804381Y-79937970D02*
X130804572Y-79937970D01*
X130804572Y-79937970D02*
X130804667Y-79938017D01*
X130804667Y-79938017D02*
X130804714Y-79938065D01*
X130804714Y-79938065D02*
X130804762Y-79938160D01*
X130804762Y-79938160D02*
X130804762Y-79938351D01*
X130804762Y-79938351D02*
X130804714Y-79938446D01*
X130804714Y-79938446D02*
X130804667Y-79938494D01*
X130804667Y-79938494D02*
X130804572Y-79938541D01*
X130804572Y-79938541D02*
X130804381Y-79938541D01*
X130804381Y-79938541D02*
X130804286Y-79938494D01*
X130804286Y-79938494D02*
X130804238Y-79938446D01*
X130804238Y-79938446D02*
X130804191Y-79938351D01*
X130804191Y-79938351D02*
X130804191Y-79938160D01*
X130804191Y-79938160D02*
X130804238Y-79938065D01*
X130804238Y-79938065D02*
X130804286Y-79938017D01*
X130804286Y-79938017D02*
X130804381Y-79937970D01*
X130812906Y-72461405D02*
X130813001Y-72461357D01*
X130813001Y-72461357D02*
X130813144Y-72461357D01*
X130813144Y-72461357D02*
X130813287Y-72461405D01*
X130813287Y-72461405D02*
X130813382Y-72461500D01*
X130813382Y-72461500D02*
X130813429Y-72461595D01*
X130813429Y-72461595D02*
X130813477Y-72461786D01*
X130813477Y-72461786D02*
X130813477Y-72461929D01*
X130813477Y-72461929D02*
X130813429Y-72462119D01*
X130813429Y-72462119D02*
X130813382Y-72462214D01*
X130813382Y-72462214D02*
X130813287Y-72462310D01*
X130813287Y-72462310D02*
X130813144Y-72462357D01*
X130813144Y-72462357D02*
X130813048Y-72462357D01*
X130813048Y-72462357D02*
X130812906Y-72462310D01*
X130812906Y-72462310D02*
X130812858Y-72462262D01*
X130812858Y-72462262D02*
X130812858Y-72461929D01*
X130812858Y-72461929D02*
X130813048Y-72461929D01*
X130812287Y-72461357D02*
X130812287Y-72461595D01*
X130812525Y-72461500D02*
X130812287Y-72461595D01*
X130812287Y-72461595D02*
X130812048Y-72461500D01*
X130812429Y-72461786D02*
X130812287Y-72461595D01*
X130812287Y-72461595D02*
X130812144Y-72461786D01*
X130811525Y-72461357D02*
X130811525Y-72461595D01*
X130811763Y-72461500D02*
X130811525Y-72461595D01*
X130811525Y-72461595D02*
X130811286Y-72461500D01*
X130811667Y-72461786D02*
X130811525Y-72461595D01*
X130811525Y-72461595D02*
X130811382Y-72461786D01*
X130810763Y-72461357D02*
X130810763Y-72461595D01*
X130811001Y-72461500D02*
X130810763Y-72461595D01*
X130810763Y-72461595D02*
X130810524Y-72461500D01*
X130810905Y-72461786D02*
X130810763Y-72461595D01*
X130810763Y-72461595D02*
X130810620Y-72461786D01*
X131245473Y-74858541D02*
X131245473Y-74857541D01*
X131245378Y-74858160D02*
X131245092Y-74858541D01*
X131245092Y-74857874D02*
X131245473Y-74858255D01*
X131244663Y-74858541D02*
X131244663Y-74857874D01*
X131244663Y-74857541D02*
X131244711Y-74857589D01*
X131244711Y-74857589D02*
X131244663Y-74857636D01*
X131244663Y-74857636D02*
X131244616Y-74857589D01*
X131244616Y-74857589D02*
X131244663Y-74857541D01*
X131244663Y-74857541D02*
X131244663Y-74857636D01*
X131244187Y-74858541D02*
X131244187Y-74857541D01*
X131244187Y-74857922D02*
X131244092Y-74857874D01*
X131244092Y-74857874D02*
X131243902Y-74857874D01*
X131243902Y-74857874D02*
X131243806Y-74857922D01*
X131243806Y-74857922D02*
X131243759Y-74857970D01*
X131243759Y-74857970D02*
X131243711Y-74858065D01*
X131243711Y-74858065D02*
X131243711Y-74858351D01*
X131243711Y-74858351D02*
X131243759Y-74858446D01*
X131243759Y-74858446D02*
X131243806Y-74858494D01*
X131243806Y-74858494D02*
X131243902Y-74858541D01*
X131243902Y-74858541D02*
X131244092Y-74858541D01*
X131244092Y-74858541D02*
X131244187Y-74858494D01*
X131242854Y-74857874D02*
X131242854Y-74858541D01*
X131243282Y-74857874D02*
X131243282Y-74858398D01*
X131243282Y-74858398D02*
X131243235Y-74858494D01*
X131243235Y-74858494D02*
X131243140Y-74858541D01*
X131243140Y-74858541D02*
X131242997Y-74858541D01*
X131242997Y-74858541D02*
X131242901Y-74858494D01*
X131242901Y-74858494D02*
X131242854Y-74858446D01*
X131242473Y-74857874D02*
X131241949Y-74857874D01*
X131241949Y-74857874D02*
X131242473Y-74858541D01*
X131242473Y-74858541D02*
X131241949Y-74858541D01*
X131241663Y-74857874D02*
X131241139Y-74857874D01*
X131241139Y-74857874D02*
X131241663Y-74858541D01*
X131241663Y-74858541D02*
X131241139Y-74858541D01*
X131240329Y-74858541D02*
X131240329Y-74858017D01*
X131240329Y-74858017D02*
X131240376Y-74857922D01*
X131240376Y-74857922D02*
X131240472Y-74857874D01*
X131240472Y-74857874D02*
X131240662Y-74857874D01*
X131240662Y-74857874D02*
X131240757Y-74857922D01*
X131240329Y-74858494D02*
X131240424Y-74858541D01*
X131240424Y-74858541D02*
X131240662Y-74858541D01*
X131240662Y-74858541D02*
X131240757Y-74858494D01*
X131240757Y-74858494D02*
X131240805Y-74858398D01*
X131240805Y-74858398D02*
X131240805Y-74858303D01*
X131240805Y-74858303D02*
X131240757Y-74858208D01*
X131240757Y-74858208D02*
X131240662Y-74858160D01*
X131240662Y-74858160D02*
X131240424Y-74858160D01*
X131240424Y-74858160D02*
X131240329Y-74858113D01*
X131239852Y-74858541D02*
X131239852Y-74857874D01*
X131239852Y-74858065D02*
X131239805Y-74857970D01*
X131239805Y-74857970D02*
X131239757Y-74857922D01*
X131239757Y-74857922D02*
X131239662Y-74857874D01*
X131239662Y-74857874D02*
X131239567Y-74857874D01*
X131238805Y-74858541D02*
X131238805Y-74857541D01*
X131238805Y-74858494D02*
X131238900Y-74858541D01*
X131238900Y-74858541D02*
X131239091Y-74858541D01*
X131239091Y-74858541D02*
X131239186Y-74858494D01*
X131239186Y-74858494D02*
X131239233Y-74858446D01*
X131239233Y-74858446D02*
X131239281Y-74858351D01*
X131239281Y-74858351D02*
X131239281Y-74858065D01*
X131239281Y-74858065D02*
X131239233Y-74857970D01*
X131239233Y-74857970D02*
X131239186Y-74857922D01*
X131239186Y-74857922D02*
X131239091Y-74857874D01*
X131239091Y-74857874D02*
X131238900Y-74857874D01*
X131238900Y-74857874D02*
X131238805Y-74857922D01*
X131238328Y-74858160D02*
X131237567Y-74858160D01*
X131236662Y-74857541D02*
X131236852Y-74857541D01*
X131236852Y-74857541D02*
X131236948Y-74857589D01*
X131236948Y-74857589D02*
X131236995Y-74857636D01*
X131236995Y-74857636D02*
X131237090Y-74857779D01*
X131237090Y-74857779D02*
X131237138Y-74857970D01*
X131237138Y-74857970D02*
X131237138Y-74858351D01*
X131237138Y-74858351D02*
X131237090Y-74858446D01*
X131237090Y-74858446D02*
X131237043Y-74858494D01*
X131237043Y-74858494D02*
X131236948Y-74858541D01*
X131236948Y-74858541D02*
X131236757Y-74858541D01*
X131236757Y-74858541D02*
X131236662Y-74858494D01*
X131236662Y-74858494D02*
X131236614Y-74858446D01*
X131236614Y-74858446D02*
X131236567Y-74858351D01*
X131236567Y-74858351D02*
X131236567Y-74858113D01*
X131236567Y-74858113D02*
X131236614Y-74858017D01*
X131236614Y-74858017D02*
X131236662Y-74857970D01*
X131236662Y-74857970D02*
X131236757Y-74857922D01*
X131236757Y-74857922D02*
X131236948Y-74857922D01*
X131236948Y-74857922D02*
X131237043Y-74857970D01*
X131237043Y-74857970D02*
X131237090Y-74858017D01*
X131237090Y-74858017D02*
X131237138Y-74858113D01*
X131236234Y-74857541D02*
X131235567Y-74857541D01*
X131235567Y-74857541D02*
X131235996Y-74858541D01*
X131234615Y-74858446D02*
X131234663Y-74858494D01*
X131234663Y-74858494D02*
X131234805Y-74858541D01*
X131234805Y-74858541D02*
X131234901Y-74858541D01*
X131234901Y-74858541D02*
X131235044Y-74858494D01*
X131235044Y-74858494D02*
X131235139Y-74858398D01*
X131235139Y-74858398D02*
X131235186Y-74858303D01*
X131235186Y-74858303D02*
X131235234Y-74858113D01*
X131235234Y-74858113D02*
X131235234Y-74857970D01*
X131235234Y-74857970D02*
X131235186Y-74857779D01*
X131235186Y-74857779D02*
X131235139Y-74857684D01*
X131235139Y-74857684D02*
X131235044Y-74857589D01*
X131235044Y-74857589D02*
X131234901Y-74857541D01*
X131234901Y-74857541D02*
X131234805Y-74857541D01*
X131234805Y-74857541D02*
X131234663Y-74857589D01*
X131234663Y-74857589D02*
X131234615Y-74857636D01*
X131234044Y-74857970D02*
X131234139Y-74857922D01*
X131234139Y-74857922D02*
X131234186Y-74857874D01*
X131234186Y-74857874D02*
X131234234Y-74857779D01*
X131234234Y-74857779D02*
X131234234Y-74857732D01*
X131234234Y-74857732D02*
X131234186Y-74857636D01*
X131234186Y-74857636D02*
X131234139Y-74857589D01*
X131234139Y-74857589D02*
X131234044Y-74857541D01*
X131234044Y-74857541D02*
X131233853Y-74857541D01*
X131233853Y-74857541D02*
X131233758Y-74857589D01*
X131233758Y-74857589D02*
X131233710Y-74857636D01*
X131233710Y-74857636D02*
X131233663Y-74857732D01*
X131233663Y-74857732D02*
X131233663Y-74857779D01*
X131233663Y-74857779D02*
X131233710Y-74857874D01*
X131233710Y-74857874D02*
X131233758Y-74857922D01*
X131233758Y-74857922D02*
X131233853Y-74857970D01*
X131233853Y-74857970D02*
X131234044Y-74857970D01*
X131234044Y-74857970D02*
X131234139Y-74858017D01*
X131234139Y-74858017D02*
X131234186Y-74858065D01*
X131234186Y-74858065D02*
X131234234Y-74858160D01*
X131234234Y-74858160D02*
X131234234Y-74858351D01*
X131234234Y-74858351D02*
X131234186Y-74858446D01*
X131234186Y-74858446D02*
X131234139Y-74858494D01*
X131234139Y-74858494D02*
X131234044Y-74858541D01*
X131234044Y-74858541D02*
X131233853Y-74858541D01*
X131233853Y-74858541D02*
X131233758Y-74858494D01*
X131233758Y-74858494D02*
X131233710Y-74858446D01*
X131233710Y-74858446D02*
X131233663Y-74858351D01*
X131233663Y-74858351D02*
X131233663Y-74858160D01*
X131233663Y-74858160D02*
X131233710Y-74858065D01*
X131233710Y-74858065D02*
X131233758Y-74858017D01*
X131233758Y-74858017D02*
X131233853Y-74857970D01*
X131233044Y-74857541D02*
X131232949Y-74857541D01*
X131232949Y-74857541D02*
X131232853Y-74857589D01*
X131232853Y-74857589D02*
X131232806Y-74857636D01*
X131232806Y-74857636D02*
X131232758Y-74857732D01*
X131232758Y-74857732D02*
X131232711Y-74857922D01*
X131232711Y-74857922D02*
X131232711Y-74858160D01*
X131232711Y-74858160D02*
X131232758Y-74858351D01*
X131232758Y-74858351D02*
X131232806Y-74858446D01*
X131232806Y-74858446D02*
X131232853Y-74858494D01*
X131232853Y-74858494D02*
X131232949Y-74858541D01*
X131232949Y-74858541D02*
X131233044Y-74858541D01*
X131233044Y-74858541D02*
X131233139Y-74858494D01*
X131233139Y-74858494D02*
X131233187Y-74858446D01*
X131233187Y-74858446D02*
X131233234Y-74858351D01*
X131233234Y-74858351D02*
X131233282Y-74858160D01*
X131233282Y-74858160D02*
X131233282Y-74857922D01*
X131233282Y-74857922D02*
X131233234Y-74857732D01*
X131233234Y-74857732D02*
X131233187Y-74857636D01*
X131233187Y-74857636D02*
X131233139Y-74857589D01*
X131233139Y-74857589D02*
X131233044Y-74857541D01*
X131232140Y-74857970D02*
X131232235Y-74857922D01*
X131232235Y-74857922D02*
X131232282Y-74857874D01*
X131232282Y-74857874D02*
X131232330Y-74857779D01*
X131232330Y-74857779D02*
X131232330Y-74857732D01*
X131232330Y-74857732D02*
X131232282Y-74857636D01*
X131232282Y-74857636D02*
X131232235Y-74857589D01*
X131232235Y-74857589D02*
X131232140Y-74857541D01*
X131232140Y-74857541D02*
X131231949Y-74857541D01*
X131231949Y-74857541D02*
X131231854Y-74857589D01*
X131231854Y-74857589D02*
X131231806Y-74857636D01*
X131231806Y-74857636D02*
X131231759Y-74857732D01*
X131231759Y-74857732D02*
X131231759Y-74857779D01*
X131231759Y-74857779D02*
X131231806Y-74857874D01*
X131231806Y-74857874D02*
X131231854Y-74857922D01*
X131231854Y-74857922D02*
X131231949Y-74857970D01*
X131231949Y-74857970D02*
X131232140Y-74857970D01*
X131232140Y-74857970D02*
X131232235Y-74858017D01*
X131232235Y-74858017D02*
X131232282Y-74858065D01*
X131232282Y-74858065D02*
X131232330Y-74858160D01*
X131232330Y-74858160D02*
X131232330Y-74858351D01*
X131232330Y-74858351D02*
X131232282Y-74858446D01*
X131232282Y-74858446D02*
X131232235Y-74858494D01*
X131232235Y-74858494D02*
X131232140Y-74858541D01*
X131232140Y-74858541D02*
X131231949Y-74858541D01*
X131231949Y-74858541D02*
X131231854Y-74858494D01*
X131231854Y-74858494D02*
X131231806Y-74858446D01*
X131231806Y-74858446D02*
X131231759Y-74858351D01*
X131231759Y-74858351D02*
X131231759Y-74858160D01*
X131231759Y-74858160D02*
X131231806Y-74858065D01*
X131231806Y-74858065D02*
X131231854Y-74858017D01*
X131231854Y-74858017D02*
X131231949Y-74857970D01*
X131230997Y-74858017D02*
X131231330Y-74858017D01*
X131231330Y-74858541D02*
X131231330Y-74857541D01*
X131231330Y-74857541D02*
X131230854Y-74857541D01*
X131230473Y-74858541D02*
X131230473Y-74857541D01*
X131230473Y-74857541D02*
X131230235Y-74857541D01*
X131230235Y-74857541D02*
X131230092Y-74857589D01*
X131230092Y-74857589D02*
X131229997Y-74857684D01*
X131229997Y-74857684D02*
X131229950Y-74857779D01*
X131229950Y-74857779D02*
X131229902Y-74857970D01*
X131229902Y-74857970D02*
X131229902Y-74858113D01*
X131229902Y-74858113D02*
X131229950Y-74858303D01*
X131229950Y-74858303D02*
X131229997Y-74858398D01*
X131229997Y-74858398D02*
X131230092Y-74858494D01*
X131230092Y-74858494D02*
X131230235Y-74858541D01*
X131230235Y-74858541D02*
X131230473Y-74858541D01*
X131238593Y-67381405D02*
X131238688Y-67381357D01*
X131238688Y-67381357D02*
X131238831Y-67381357D01*
X131238831Y-67381357D02*
X131238974Y-67381405D01*
X131238974Y-67381405D02*
X131239069Y-67381500D01*
X131239069Y-67381500D02*
X131239116Y-67381595D01*
X131239116Y-67381595D02*
X131239164Y-67381786D01*
X131239164Y-67381786D02*
X131239164Y-67381929D01*
X131239164Y-67381929D02*
X131239116Y-67382119D01*
X131239116Y-67382119D02*
X131239069Y-67382214D01*
X131239069Y-67382214D02*
X131238974Y-67382310D01*
X131238974Y-67382310D02*
X131238831Y-67382357D01*
X131238831Y-67382357D02*
X131238735Y-67382357D01*
X131238735Y-67382357D02*
X131238593Y-67382310D01*
X131238593Y-67382310D02*
X131238545Y-67382262D01*
X131238545Y-67382262D02*
X131238545Y-67381929D01*
X131238545Y-67381929D02*
X131238735Y-67381929D01*
X131237974Y-67381357D02*
X131237974Y-67381595D01*
X131238212Y-67381500D02*
X131237974Y-67381595D01*
X131237974Y-67381595D02*
X131237735Y-67381500D01*
X131238116Y-67381786D02*
X131237974Y-67381595D01*
X131237974Y-67381595D02*
X131237831Y-67381786D01*
X131237212Y-67381357D02*
X131237212Y-67381595D01*
X131237450Y-67381500D02*
X131237212Y-67381595D01*
X131237212Y-67381595D02*
X131236973Y-67381500D01*
X131237354Y-67381786D02*
X131237212Y-67381595D01*
X131237212Y-67381595D02*
X131237069Y-67381786D01*
X131236450Y-67381357D02*
X131236450Y-67381595D01*
X131236688Y-67381500D02*
X131236450Y-67381595D01*
X131236450Y-67381595D02*
X131236211Y-67381500D01*
X131236592Y-67381786D02*
X131236450Y-67381595D01*
X131236450Y-67381595D02*
X131236307Y-67381786D01*
X131205940Y-62158541D02*
X131205940Y-62157541D01*
X131205845Y-62158160D02*
X131205559Y-62158541D01*
X131205559Y-62157874D02*
X131205940Y-62158255D01*
X131205130Y-62158541D02*
X131205130Y-62157874D01*
X131205130Y-62157541D02*
X131205178Y-62157589D01*
X131205178Y-62157589D02*
X131205130Y-62157636D01*
X131205130Y-62157636D02*
X131205083Y-62157589D01*
X131205083Y-62157589D02*
X131205130Y-62157541D01*
X131205130Y-62157541D02*
X131205130Y-62157636D01*
X131204654Y-62158541D02*
X131204654Y-62157541D01*
X131204654Y-62157922D02*
X131204559Y-62157874D01*
X131204559Y-62157874D02*
X131204369Y-62157874D01*
X131204369Y-62157874D02*
X131204273Y-62157922D01*
X131204273Y-62157922D02*
X131204226Y-62157970D01*
X131204226Y-62157970D02*
X131204178Y-62158065D01*
X131204178Y-62158065D02*
X131204178Y-62158351D01*
X131204178Y-62158351D02*
X131204226Y-62158446D01*
X131204226Y-62158446D02*
X131204273Y-62158494D01*
X131204273Y-62158494D02*
X131204369Y-62158541D01*
X131204369Y-62158541D02*
X131204559Y-62158541D01*
X131204559Y-62158541D02*
X131204654Y-62158494D01*
X131203321Y-62157874D02*
X131203321Y-62158541D01*
X131203749Y-62157874D02*
X131203749Y-62158398D01*
X131203749Y-62158398D02*
X131203702Y-62158494D01*
X131203702Y-62158494D02*
X131203607Y-62158541D01*
X131203607Y-62158541D02*
X131203464Y-62158541D01*
X131203464Y-62158541D02*
X131203368Y-62158494D01*
X131203368Y-62158494D02*
X131203321Y-62158446D01*
X131202940Y-62157874D02*
X131202416Y-62157874D01*
X131202416Y-62157874D02*
X131202940Y-62158541D01*
X131202940Y-62158541D02*
X131202416Y-62158541D01*
X131202130Y-62157874D02*
X131201606Y-62157874D01*
X131201606Y-62157874D02*
X131202130Y-62158541D01*
X131202130Y-62158541D02*
X131201606Y-62158541D01*
X131200796Y-62158541D02*
X131200796Y-62158017D01*
X131200796Y-62158017D02*
X131200843Y-62157922D01*
X131200843Y-62157922D02*
X131200939Y-62157874D01*
X131200939Y-62157874D02*
X131201129Y-62157874D01*
X131201129Y-62157874D02*
X131201224Y-62157922D01*
X131200796Y-62158494D02*
X131200891Y-62158541D01*
X131200891Y-62158541D02*
X131201129Y-62158541D01*
X131201129Y-62158541D02*
X131201224Y-62158494D01*
X131201224Y-62158494D02*
X131201272Y-62158398D01*
X131201272Y-62158398D02*
X131201272Y-62158303D01*
X131201272Y-62158303D02*
X131201224Y-62158208D01*
X131201224Y-62158208D02*
X131201129Y-62158160D01*
X131201129Y-62158160D02*
X131200891Y-62158160D01*
X131200891Y-62158160D02*
X131200796Y-62158113D01*
X131200319Y-62158541D02*
X131200319Y-62157874D01*
X131200319Y-62158065D02*
X131200272Y-62157970D01*
X131200272Y-62157970D02*
X131200224Y-62157922D01*
X131200224Y-62157922D02*
X131200129Y-62157874D01*
X131200129Y-62157874D02*
X131200034Y-62157874D01*
X131199272Y-62158541D02*
X131199272Y-62157541D01*
X131199272Y-62158494D02*
X131199367Y-62158541D01*
X131199367Y-62158541D02*
X131199558Y-62158541D01*
X131199558Y-62158541D02*
X131199653Y-62158494D01*
X131199653Y-62158494D02*
X131199700Y-62158446D01*
X131199700Y-62158446D02*
X131199748Y-62158351D01*
X131199748Y-62158351D02*
X131199748Y-62158065D01*
X131199748Y-62158065D02*
X131199700Y-62157970D01*
X131199700Y-62157970D02*
X131199653Y-62157922D01*
X131199653Y-62157922D02*
X131199558Y-62157874D01*
X131199558Y-62157874D02*
X131199367Y-62157874D01*
X131199367Y-62157874D02*
X131199272Y-62157922D01*
X131198795Y-62158160D02*
X131198034Y-62158160D01*
X131197129Y-62157541D02*
X131197319Y-62157541D01*
X131197319Y-62157541D02*
X131197415Y-62157589D01*
X131197415Y-62157589D02*
X131197462Y-62157636D01*
X131197462Y-62157636D02*
X131197557Y-62157779D01*
X131197557Y-62157779D02*
X131197605Y-62157970D01*
X131197605Y-62157970D02*
X131197605Y-62158351D01*
X131197605Y-62158351D02*
X131197557Y-62158446D01*
X131197557Y-62158446D02*
X131197510Y-62158494D01*
X131197510Y-62158494D02*
X131197415Y-62158541D01*
X131197415Y-62158541D02*
X131197224Y-62158541D01*
X131197224Y-62158541D02*
X131197129Y-62158494D01*
X131197129Y-62158494D02*
X131197081Y-62158446D01*
X131197081Y-62158446D02*
X131197034Y-62158351D01*
X131197034Y-62158351D02*
X131197034Y-62158113D01*
X131197034Y-62158113D02*
X131197081Y-62158017D01*
X131197081Y-62158017D02*
X131197129Y-62157970D01*
X131197129Y-62157970D02*
X131197224Y-62157922D01*
X131197224Y-62157922D02*
X131197415Y-62157922D01*
X131197415Y-62157922D02*
X131197510Y-62157970D01*
X131197510Y-62157970D02*
X131197557Y-62158017D01*
X131197557Y-62158017D02*
X131197605Y-62158113D01*
X131196701Y-62157541D02*
X131196034Y-62157541D01*
X131196034Y-62157541D02*
X131196463Y-62158541D01*
X131195082Y-62158446D02*
X131195130Y-62158494D01*
X131195130Y-62158494D02*
X131195272Y-62158541D01*
X131195272Y-62158541D02*
X131195368Y-62158541D01*
X131195368Y-62158541D02*
X131195511Y-62158494D01*
X131195511Y-62158494D02*
X131195606Y-62158398D01*
X131195606Y-62158398D02*
X131195653Y-62158303D01*
X131195653Y-62158303D02*
X131195701Y-62158113D01*
X131195701Y-62158113D02*
X131195701Y-62157970D01*
X131195701Y-62157970D02*
X131195653Y-62157779D01*
X131195653Y-62157779D02*
X131195606Y-62157684D01*
X131195606Y-62157684D02*
X131195511Y-62157589D01*
X131195511Y-62157589D02*
X131195368Y-62157541D01*
X131195368Y-62157541D02*
X131195272Y-62157541D01*
X131195272Y-62157541D02*
X131195130Y-62157589D01*
X131195130Y-62157589D02*
X131195082Y-62157636D01*
X131194511Y-62157970D02*
X131194606Y-62157922D01*
X131194606Y-62157922D02*
X131194653Y-62157874D01*
X131194653Y-62157874D02*
X131194701Y-62157779D01*
X131194701Y-62157779D02*
X131194701Y-62157732D01*
X131194701Y-62157732D02*
X131194653Y-62157636D01*
X131194653Y-62157636D02*
X131194606Y-62157589D01*
X131194606Y-62157589D02*
X131194511Y-62157541D01*
X131194511Y-62157541D02*
X131194320Y-62157541D01*
X131194320Y-62157541D02*
X131194225Y-62157589D01*
X131194225Y-62157589D02*
X131194177Y-62157636D01*
X131194177Y-62157636D02*
X131194130Y-62157732D01*
X131194130Y-62157732D02*
X131194130Y-62157779D01*
X131194130Y-62157779D02*
X131194177Y-62157874D01*
X131194177Y-62157874D02*
X131194225Y-62157922D01*
X131194225Y-62157922D02*
X131194320Y-62157970D01*
X131194320Y-62157970D02*
X131194511Y-62157970D01*
X131194511Y-62157970D02*
X131194606Y-62158017D01*
X131194606Y-62158017D02*
X131194653Y-62158065D01*
X131194653Y-62158065D02*
X131194701Y-62158160D01*
X131194701Y-62158160D02*
X131194701Y-62158351D01*
X131194701Y-62158351D02*
X131194653Y-62158446D01*
X131194653Y-62158446D02*
X131194606Y-62158494D01*
X131194606Y-62158494D02*
X131194511Y-62158541D01*
X131194511Y-62158541D02*
X131194320Y-62158541D01*
X131194320Y-62158541D02*
X131194225Y-62158494D01*
X131194225Y-62158494D02*
X131194177Y-62158446D01*
X131194177Y-62158446D02*
X131194130Y-62158351D01*
X131194130Y-62158351D02*
X131194130Y-62158160D01*
X131194130Y-62158160D02*
X131194177Y-62158065D01*
X131194177Y-62158065D02*
X131194225Y-62158017D01*
X131194225Y-62158017D02*
X131194320Y-62157970D01*
X131193511Y-62157541D02*
X131193416Y-62157541D01*
X131193416Y-62157541D02*
X131193320Y-62157589D01*
X131193320Y-62157589D02*
X131193273Y-62157636D01*
X131193273Y-62157636D02*
X131193225Y-62157732D01*
X131193225Y-62157732D02*
X131193178Y-62157922D01*
X131193178Y-62157922D02*
X131193178Y-62158160D01*
X131193178Y-62158160D02*
X131193225Y-62158351D01*
X131193225Y-62158351D02*
X131193273Y-62158446D01*
X131193273Y-62158446D02*
X131193320Y-62158494D01*
X131193320Y-62158494D02*
X131193416Y-62158541D01*
X131193416Y-62158541D02*
X131193511Y-62158541D01*
X131193511Y-62158541D02*
X131193606Y-62158494D01*
X131193606Y-62158494D02*
X131193654Y-62158446D01*
X131193654Y-62158446D02*
X131193701Y-62158351D01*
X131193701Y-62158351D02*
X131193749Y-62158160D01*
X131193749Y-62158160D02*
X131193749Y-62157922D01*
X131193749Y-62157922D02*
X131193701Y-62157732D01*
X131193701Y-62157732D02*
X131193654Y-62157636D01*
X131193654Y-62157636D02*
X131193606Y-62157589D01*
X131193606Y-62157589D02*
X131193511Y-62157541D01*
X131192607Y-62157970D02*
X131192702Y-62157922D01*
X131192702Y-62157922D02*
X131192749Y-62157874D01*
X131192749Y-62157874D02*
X131192797Y-62157779D01*
X131192797Y-62157779D02*
X131192797Y-62157732D01*
X131192797Y-62157732D02*
X131192749Y-62157636D01*
X131192749Y-62157636D02*
X131192702Y-62157589D01*
X131192702Y-62157589D02*
X131192607Y-62157541D01*
X131192607Y-62157541D02*
X131192416Y-62157541D01*
X131192416Y-62157541D02*
X131192321Y-62157589D01*
X131192321Y-62157589D02*
X131192273Y-62157636D01*
X131192273Y-62157636D02*
X131192226Y-62157732D01*
X131192226Y-62157732D02*
X131192226Y-62157779D01*
X131192226Y-62157779D02*
X131192273Y-62157874D01*
X131192273Y-62157874D02*
X131192321Y-62157922D01*
X131192321Y-62157922D02*
X131192416Y-62157970D01*
X131192416Y-62157970D02*
X131192607Y-62157970D01*
X131192607Y-62157970D02*
X131192702Y-62158017D01*
X131192702Y-62158017D02*
X131192749Y-62158065D01*
X131192749Y-62158065D02*
X131192797Y-62158160D01*
X131192797Y-62158160D02*
X131192797Y-62158351D01*
X131192797Y-62158351D02*
X131192749Y-62158446D01*
X131192749Y-62158446D02*
X131192702Y-62158494D01*
X131192702Y-62158494D02*
X131192607Y-62158541D01*
X131192607Y-62158541D02*
X131192416Y-62158541D01*
X131192416Y-62158541D02*
X131192321Y-62158494D01*
X131192321Y-62158494D02*
X131192273Y-62158446D01*
X131192273Y-62158446D02*
X131192226Y-62158351D01*
X131192226Y-62158351D02*
X131192226Y-62158160D01*
X131192226Y-62158160D02*
X131192273Y-62158065D01*
X131192273Y-62158065D02*
X131192321Y-62158017D01*
X131192321Y-62158017D02*
X131192416Y-62157970D01*
X131191464Y-62158017D02*
X131191321Y-62158065D01*
X131191321Y-62158065D02*
X131191274Y-62158113D01*
X131191274Y-62158113D02*
X131191226Y-62158208D01*
X131191226Y-62158208D02*
X131191226Y-62158351D01*
X131191226Y-62158351D02*
X131191274Y-62158446D01*
X131191274Y-62158446D02*
X131191321Y-62158494D01*
X131191321Y-62158494D02*
X131191416Y-62158541D01*
X131191416Y-62158541D02*
X131191797Y-62158541D01*
X131191797Y-62158541D02*
X131191797Y-62157541D01*
X131191797Y-62157541D02*
X131191464Y-62157541D01*
X131191464Y-62157541D02*
X131191369Y-62157589D01*
X131191369Y-62157589D02*
X131191321Y-62157636D01*
X131191321Y-62157636D02*
X131191274Y-62157732D01*
X131191274Y-62157732D02*
X131191274Y-62157827D01*
X131191274Y-62157827D02*
X131191321Y-62157922D01*
X131191321Y-62157922D02*
X131191369Y-62157970D01*
X131191369Y-62157970D02*
X131191464Y-62158017D01*
X131191464Y-62158017D02*
X131191797Y-62158017D01*
X131190369Y-62157874D02*
X131190369Y-62158541D01*
X131190607Y-62157494D02*
X131190845Y-62158208D01*
X131190845Y-62158208D02*
X131190226Y-62158208D01*
X131199013Y-54681405D02*
X131199108Y-54681357D01*
X131199108Y-54681357D02*
X131199251Y-54681357D01*
X131199251Y-54681357D02*
X131199394Y-54681405D01*
X131199394Y-54681405D02*
X131199489Y-54681500D01*
X131199489Y-54681500D02*
X131199536Y-54681595D01*
X131199536Y-54681595D02*
X131199584Y-54681786D01*
X131199584Y-54681786D02*
X131199584Y-54681929D01*
X131199584Y-54681929D02*
X131199536Y-54682119D01*
X131199536Y-54682119D02*
X131199489Y-54682214D01*
X131199489Y-54682214D02*
X131199394Y-54682310D01*
X131199394Y-54682310D02*
X131199251Y-54682357D01*
X131199251Y-54682357D02*
X131199155Y-54682357D01*
X131199155Y-54682357D02*
X131199013Y-54682310D01*
X131199013Y-54682310D02*
X131198965Y-54682262D01*
X131198965Y-54682262D02*
X131198965Y-54681929D01*
X131198965Y-54681929D02*
X131199155Y-54681929D01*
X131198394Y-54681357D02*
X131198394Y-54681595D01*
X131198632Y-54681500D02*
X131198394Y-54681595D01*
X131198394Y-54681595D02*
X131198155Y-54681500D01*
X131198536Y-54681786D02*
X131198394Y-54681595D01*
X131198394Y-54681595D02*
X131198251Y-54681786D01*
X131197632Y-54681357D02*
X131197632Y-54681595D01*
X131197870Y-54681500D02*
X131197632Y-54681595D01*
X131197632Y-54681595D02*
X131197393Y-54681500D01*
X131197774Y-54681786D02*
X131197632Y-54681595D01*
X131197632Y-54681595D02*
X131197489Y-54681786D01*
X131196870Y-54681357D02*
X131196870Y-54681595D01*
X131197108Y-54681500D02*
X131196870Y-54681595D01*
X131196870Y-54681595D02*
X131196631Y-54681500D01*
X131197012Y-54681786D02*
X131196870Y-54681595D01*
X131196870Y-54681595D02*
X131196727Y-54681786D01*
X131613429Y-67216731D02*
X131613429Y-67215731D01*
X131613334Y-67216350D02*
X131613048Y-67216731D01*
X131613048Y-67216064D02*
X131613429Y-67216445D01*
X131612619Y-67216731D02*
X131612619Y-67216064D01*
X131612619Y-67215731D02*
X131612667Y-67215779D01*
X131612667Y-67215779D02*
X131612619Y-67215826D01*
X131612619Y-67215826D02*
X131612572Y-67215779D01*
X131612572Y-67215779D02*
X131612619Y-67215731D01*
X131612619Y-67215731D02*
X131612619Y-67215826D01*
X131612143Y-67216731D02*
X131612143Y-67215731D01*
X131612143Y-67216112D02*
X131612048Y-67216064D01*
X131612048Y-67216064D02*
X131611858Y-67216064D01*
X131611858Y-67216064D02*
X131611762Y-67216112D01*
X131611762Y-67216112D02*
X131611715Y-67216160D01*
X131611715Y-67216160D02*
X131611667Y-67216255D01*
X131611667Y-67216255D02*
X131611667Y-67216541D01*
X131611667Y-67216541D02*
X131611715Y-67216636D01*
X131611715Y-67216636D02*
X131611762Y-67216684D01*
X131611762Y-67216684D02*
X131611858Y-67216731D01*
X131611858Y-67216731D02*
X131612048Y-67216731D01*
X131612048Y-67216731D02*
X131612143Y-67216684D01*
X131610810Y-67216064D02*
X131610810Y-67216731D01*
X131611238Y-67216064D02*
X131611238Y-67216588D01*
X131611238Y-67216588D02*
X131611191Y-67216684D01*
X131611191Y-67216684D02*
X131611096Y-67216731D01*
X131611096Y-67216731D02*
X131610953Y-67216731D01*
X131610953Y-67216731D02*
X131610857Y-67216684D01*
X131610857Y-67216684D02*
X131610810Y-67216636D01*
X131610429Y-67216064D02*
X131609905Y-67216064D01*
X131609905Y-67216064D02*
X131610429Y-67216731D01*
X131610429Y-67216731D02*
X131609905Y-67216731D01*
X131609619Y-67216064D02*
X131609095Y-67216064D01*
X131609095Y-67216064D02*
X131609619Y-67216731D01*
X131609619Y-67216731D02*
X131609095Y-67216731D01*
X131608285Y-67216731D02*
X131608285Y-67216207D01*
X131608285Y-67216207D02*
X131608332Y-67216112D01*
X131608332Y-67216112D02*
X131608428Y-67216064D01*
X131608428Y-67216064D02*
X131608618Y-67216064D01*
X131608618Y-67216064D02*
X131608713Y-67216112D01*
X131608285Y-67216684D02*
X131608380Y-67216731D01*
X131608380Y-67216731D02*
X131608618Y-67216731D01*
X131608618Y-67216731D02*
X131608713Y-67216684D01*
X131608713Y-67216684D02*
X131608761Y-67216588D01*
X131608761Y-67216588D02*
X131608761Y-67216493D01*
X131608761Y-67216493D02*
X131608713Y-67216398D01*
X131608713Y-67216398D02*
X131608618Y-67216350D01*
X131608618Y-67216350D02*
X131608380Y-67216350D01*
X131608380Y-67216350D02*
X131608285Y-67216303D01*
X131607808Y-67216731D02*
X131607808Y-67216064D01*
X131607808Y-67216255D02*
X131607761Y-67216160D01*
X131607761Y-67216160D02*
X131607713Y-67216112D01*
X131607713Y-67216112D02*
X131607618Y-67216064D01*
X131607618Y-67216064D02*
X131607523Y-67216064D01*
X131606761Y-67216731D02*
X131606761Y-67215731D01*
X131606761Y-67216684D02*
X131606856Y-67216731D01*
X131606856Y-67216731D02*
X131607047Y-67216731D01*
X131607047Y-67216731D02*
X131607142Y-67216684D01*
X131607142Y-67216684D02*
X131607189Y-67216636D01*
X131607189Y-67216636D02*
X131607237Y-67216541D01*
X131607237Y-67216541D02*
X131607237Y-67216255D01*
X131607237Y-67216255D02*
X131607189Y-67216160D01*
X131607189Y-67216160D02*
X131607142Y-67216112D01*
X131607142Y-67216112D02*
X131607047Y-67216064D01*
X131607047Y-67216064D02*
X131606856Y-67216064D01*
X131606856Y-67216064D02*
X131606761Y-67216112D01*
X131606284Y-67216350D02*
X131605523Y-67216350D01*
X131604618Y-67215731D02*
X131604808Y-67215731D01*
X131604808Y-67215731D02*
X131604904Y-67215779D01*
X131604904Y-67215779D02*
X131604951Y-67215826D01*
X131604951Y-67215826D02*
X131605046Y-67215969D01*
X131605046Y-67215969D02*
X131605094Y-67216160D01*
X131605094Y-67216160D02*
X131605094Y-67216541D01*
X131605094Y-67216541D02*
X131605046Y-67216636D01*
X131605046Y-67216636D02*
X131604999Y-67216684D01*
X131604999Y-67216684D02*
X131604904Y-67216731D01*
X131604904Y-67216731D02*
X131604713Y-67216731D01*
X131604713Y-67216731D02*
X131604618Y-67216684D01*
X131604618Y-67216684D02*
X131604570Y-67216636D01*
X131604570Y-67216636D02*
X131604523Y-67216541D01*
X131604523Y-67216541D02*
X131604523Y-67216303D01*
X131604523Y-67216303D02*
X131604570Y-67216207D01*
X131604570Y-67216207D02*
X131604618Y-67216160D01*
X131604618Y-67216160D02*
X131604713Y-67216112D01*
X131604713Y-67216112D02*
X131604904Y-67216112D01*
X131604904Y-67216112D02*
X131604999Y-67216160D01*
X131604999Y-67216160D02*
X131605046Y-67216207D01*
X131605046Y-67216207D02*
X131605094Y-67216303D01*
X131604190Y-67215731D02*
X131603523Y-67215731D01*
X131603523Y-67215731D02*
X131603952Y-67216731D01*
X131602571Y-67216636D02*
X131602619Y-67216684D01*
X131602619Y-67216684D02*
X131602761Y-67216731D01*
X131602761Y-67216731D02*
X131602857Y-67216731D01*
X131602857Y-67216731D02*
X131603000Y-67216684D01*
X131603000Y-67216684D02*
X131603095Y-67216588D01*
X131603095Y-67216588D02*
X131603142Y-67216493D01*
X131603142Y-67216493D02*
X131603190Y-67216303D01*
X131603190Y-67216303D02*
X131603190Y-67216160D01*
X131603190Y-67216160D02*
X131603142Y-67215969D01*
X131603142Y-67215969D02*
X131603095Y-67215874D01*
X131603095Y-67215874D02*
X131603000Y-67215779D01*
X131603000Y-67215779D02*
X131602857Y-67215731D01*
X131602857Y-67215731D02*
X131602761Y-67215731D01*
X131602761Y-67215731D02*
X131602619Y-67215779D01*
X131602619Y-67215779D02*
X131602571Y-67215826D01*
X131602000Y-67216160D02*
X131602095Y-67216112D01*
X131602095Y-67216112D02*
X131602142Y-67216064D01*
X131602142Y-67216064D02*
X131602190Y-67215969D01*
X131602190Y-67215969D02*
X131602190Y-67215922D01*
X131602190Y-67215922D02*
X131602142Y-67215826D01*
X131602142Y-67215826D02*
X131602095Y-67215779D01*
X131602095Y-67215779D02*
X131602000Y-67215731D01*
X131602000Y-67215731D02*
X131601809Y-67215731D01*
X131601809Y-67215731D02*
X131601714Y-67215779D01*
X131601714Y-67215779D02*
X131601666Y-67215826D01*
X131601666Y-67215826D02*
X131601619Y-67215922D01*
X131601619Y-67215922D02*
X131601619Y-67215969D01*
X131601619Y-67215969D02*
X131601666Y-67216064D01*
X131601666Y-67216064D02*
X131601714Y-67216112D01*
X131601714Y-67216112D02*
X131601809Y-67216160D01*
X131601809Y-67216160D02*
X131602000Y-67216160D01*
X131602000Y-67216160D02*
X131602095Y-67216207D01*
X131602095Y-67216207D02*
X131602142Y-67216255D01*
X131602142Y-67216255D02*
X131602190Y-67216350D01*
X131602190Y-67216350D02*
X131602190Y-67216541D01*
X131602190Y-67216541D02*
X131602142Y-67216636D01*
X131602142Y-67216636D02*
X131602095Y-67216684D01*
X131602095Y-67216684D02*
X131602000Y-67216731D01*
X131602000Y-67216731D02*
X131601809Y-67216731D01*
X131601809Y-67216731D02*
X131601714Y-67216684D01*
X131601714Y-67216684D02*
X131601666Y-67216636D01*
X131601666Y-67216636D02*
X131601619Y-67216541D01*
X131601619Y-67216541D02*
X131601619Y-67216350D01*
X131601619Y-67216350D02*
X131601666Y-67216255D01*
X131601666Y-67216255D02*
X131601714Y-67216207D01*
X131601714Y-67216207D02*
X131601809Y-67216160D01*
X131601000Y-67215731D02*
X131600905Y-67215731D01*
X131600905Y-67215731D02*
X131600809Y-67215779D01*
X131600809Y-67215779D02*
X131600762Y-67215826D01*
X131600762Y-67215826D02*
X131600714Y-67215922D01*
X131600714Y-67215922D02*
X131600667Y-67216112D01*
X131600667Y-67216112D02*
X131600667Y-67216350D01*
X131600667Y-67216350D02*
X131600714Y-67216541D01*
X131600714Y-67216541D02*
X131600762Y-67216636D01*
X131600762Y-67216636D02*
X131600809Y-67216684D01*
X131600809Y-67216684D02*
X131600905Y-67216731D01*
X131600905Y-67216731D02*
X131601000Y-67216731D01*
X131601000Y-67216731D02*
X131601095Y-67216684D01*
X131601095Y-67216684D02*
X131601143Y-67216636D01*
X131601143Y-67216636D02*
X131601190Y-67216541D01*
X131601190Y-67216541D02*
X131601238Y-67216350D01*
X131601238Y-67216350D02*
X131601238Y-67216112D01*
X131601238Y-67216112D02*
X131601190Y-67215922D01*
X131601190Y-67215922D02*
X131601143Y-67215826D01*
X131601143Y-67215826D02*
X131601095Y-67215779D01*
X131601095Y-67215779D02*
X131601000Y-67215731D01*
X131600096Y-67216160D02*
X131600191Y-67216112D01*
X131600191Y-67216112D02*
X131600238Y-67216064D01*
X131600238Y-67216064D02*
X131600286Y-67215969D01*
X131600286Y-67215969D02*
X131600286Y-67215922D01*
X131600286Y-67215922D02*
X131600238Y-67215826D01*
X131600238Y-67215826D02*
X131600191Y-67215779D01*
X131600191Y-67215779D02*
X131600096Y-67215731D01*
X131600096Y-67215731D02*
X131599905Y-67215731D01*
X131599905Y-67215731D02*
X131599810Y-67215779D01*
X131599810Y-67215779D02*
X131599762Y-67215826D01*
X131599762Y-67215826D02*
X131599715Y-67215922D01*
X131599715Y-67215922D02*
X131599715Y-67215969D01*
X131599715Y-67215969D02*
X131599762Y-67216064D01*
X131599762Y-67216064D02*
X131599810Y-67216112D01*
X131599810Y-67216112D02*
X131599905Y-67216160D01*
X131599905Y-67216160D02*
X131600096Y-67216160D01*
X131600096Y-67216160D02*
X131600191Y-67216207D01*
X131600191Y-67216207D02*
X131600238Y-67216255D01*
X131600238Y-67216255D02*
X131600286Y-67216350D01*
X131600286Y-67216350D02*
X131600286Y-67216541D01*
X131600286Y-67216541D02*
X131600238Y-67216636D01*
X131600238Y-67216636D02*
X131600191Y-67216684D01*
X131600191Y-67216684D02*
X131600096Y-67216731D01*
X131600096Y-67216731D02*
X131599905Y-67216731D01*
X131599905Y-67216731D02*
X131599810Y-67216684D01*
X131599810Y-67216684D02*
X131599762Y-67216636D01*
X131599762Y-67216636D02*
X131599715Y-67216541D01*
X131599715Y-67216541D02*
X131599715Y-67216350D01*
X131599715Y-67216350D02*
X131599762Y-67216255D01*
X131599762Y-67216255D02*
X131599810Y-67216207D01*
X131599810Y-67216207D02*
X131599905Y-67216160D01*
X131599286Y-67216731D02*
X131599286Y-67215731D01*
X131599286Y-67215731D02*
X131599048Y-67215731D01*
X131599048Y-67215731D02*
X131598905Y-67215779D01*
X131598905Y-67215779D02*
X131598810Y-67215874D01*
X131598810Y-67215874D02*
X131598763Y-67215969D01*
X131598763Y-67215969D02*
X131598715Y-67216160D01*
X131598715Y-67216160D02*
X131598715Y-67216303D01*
X131598715Y-67216303D02*
X131598763Y-67216493D01*
X131598763Y-67216493D02*
X131598810Y-67216588D01*
X131598810Y-67216588D02*
X131598905Y-67216684D01*
X131598905Y-67216684D02*
X131599048Y-67216731D01*
X131599048Y-67216731D02*
X131599286Y-67216731D01*
X131598286Y-67216207D02*
X131597953Y-67216207D01*
X131597810Y-67216731D02*
X131598286Y-67216731D01*
X131598286Y-67216731D02*
X131598286Y-67215731D01*
X131598286Y-67215731D02*
X131597810Y-67215731D01*
X131606525Y-59783215D02*
X131606620Y-59783167D01*
X131606620Y-59783167D02*
X131606763Y-59783167D01*
X131606763Y-59783167D02*
X131606906Y-59783215D01*
X131606906Y-59783215D02*
X131607001Y-59783310D01*
X131607001Y-59783310D02*
X131607048Y-59783405D01*
X131607048Y-59783405D02*
X131607096Y-59783596D01*
X131607096Y-59783596D02*
X131607096Y-59783739D01*
X131607096Y-59783739D02*
X131607048Y-59783929D01*
X131607048Y-59783929D02*
X131607001Y-59784024D01*
X131607001Y-59784024D02*
X131606906Y-59784120D01*
X131606906Y-59784120D02*
X131606763Y-59784167D01*
X131606763Y-59784167D02*
X131606667Y-59784167D01*
X131606667Y-59784167D02*
X131606525Y-59784120D01*
X131606525Y-59784120D02*
X131606477Y-59784072D01*
X131606477Y-59784072D02*
X131606477Y-59783739D01*
X131606477Y-59783739D02*
X131606667Y-59783739D01*
X131605906Y-59783167D02*
X131605906Y-59783405D01*
X131606144Y-59783310D02*
X131605906Y-59783405D01*
X131605906Y-59783405D02*
X131605667Y-59783310D01*
X131606048Y-59783596D02*
X131605906Y-59783405D01*
X131605906Y-59783405D02*
X131605763Y-59783596D01*
X131605144Y-59783167D02*
X131605144Y-59783405D01*
X131605382Y-59783310D02*
X131605144Y-59783405D01*
X131605144Y-59783405D02*
X131604905Y-59783310D01*
X131605286Y-59783596D02*
X131605144Y-59783405D01*
X131605144Y-59783405D02*
X131605001Y-59783596D01*
X131604382Y-59783167D02*
X131604382Y-59783405D01*
X131604620Y-59783310D02*
X131604382Y-59783405D01*
X131604382Y-59783405D02*
X131604143Y-59783310D01*
X131604524Y-59783596D02*
X131604382Y-59783405D01*
X131604382Y-59783405D02*
X131604239Y-59783596D01*
X131627516Y-59608847D02*
X131627516Y-59607847D01*
X131627421Y-59608466D02*
X131627135Y-59608847D01*
X131627135Y-59608180D02*
X131627516Y-59608561D01*
X131626706Y-59608847D02*
X131626706Y-59608180D01*
X131626706Y-59607847D02*
X131626754Y-59607895D01*
X131626754Y-59607895D02*
X131626706Y-59607942D01*
X131626706Y-59607942D02*
X131626659Y-59607895D01*
X131626659Y-59607895D02*
X131626706Y-59607847D01*
X131626706Y-59607847D02*
X131626706Y-59607942D01*
X131626230Y-59608847D02*
X131626230Y-59607847D01*
X131626230Y-59608228D02*
X131626135Y-59608180D01*
X131626135Y-59608180D02*
X131625945Y-59608180D01*
X131625945Y-59608180D02*
X131625849Y-59608228D01*
X131625849Y-59608228D02*
X131625802Y-59608276D01*
X131625802Y-59608276D02*
X131625754Y-59608371D01*
X131625754Y-59608371D02*
X131625754Y-59608657D01*
X131625754Y-59608657D02*
X131625802Y-59608752D01*
X131625802Y-59608752D02*
X131625849Y-59608800D01*
X131625849Y-59608800D02*
X131625945Y-59608847D01*
X131625945Y-59608847D02*
X131626135Y-59608847D01*
X131626135Y-59608847D02*
X131626230Y-59608800D01*
X131624897Y-59608180D02*
X131624897Y-59608847D01*
X131625325Y-59608180D02*
X131625325Y-59608704D01*
X131625325Y-59608704D02*
X131625278Y-59608800D01*
X131625278Y-59608800D02*
X131625183Y-59608847D01*
X131625183Y-59608847D02*
X131625040Y-59608847D01*
X131625040Y-59608847D02*
X131624944Y-59608800D01*
X131624944Y-59608800D02*
X131624897Y-59608752D01*
X131624516Y-59608180D02*
X131623992Y-59608180D01*
X131623992Y-59608180D02*
X131624516Y-59608847D01*
X131624516Y-59608847D02*
X131623992Y-59608847D01*
X131623706Y-59608180D02*
X131623182Y-59608180D01*
X131623182Y-59608180D02*
X131623706Y-59608847D01*
X131623706Y-59608847D02*
X131623182Y-59608847D01*
X131622372Y-59608847D02*
X131622372Y-59608323D01*
X131622372Y-59608323D02*
X131622419Y-59608228D01*
X131622419Y-59608228D02*
X131622515Y-59608180D01*
X131622515Y-59608180D02*
X131622705Y-59608180D01*
X131622705Y-59608180D02*
X131622800Y-59608228D01*
X131622372Y-59608800D02*
X131622467Y-59608847D01*
X131622467Y-59608847D02*
X131622705Y-59608847D01*
X131622705Y-59608847D02*
X131622800Y-59608800D01*
X131622800Y-59608800D02*
X131622848Y-59608704D01*
X131622848Y-59608704D02*
X131622848Y-59608609D01*
X131622848Y-59608609D02*
X131622800Y-59608514D01*
X131622800Y-59608514D02*
X131622705Y-59608466D01*
X131622705Y-59608466D02*
X131622467Y-59608466D01*
X131622467Y-59608466D02*
X131622372Y-59608419D01*
X131621895Y-59608847D02*
X131621895Y-59608180D01*
X131621895Y-59608371D02*
X131621848Y-59608276D01*
X131621848Y-59608276D02*
X131621800Y-59608228D01*
X131621800Y-59608228D02*
X131621705Y-59608180D01*
X131621705Y-59608180D02*
X131621610Y-59608180D01*
X131620848Y-59608847D02*
X131620848Y-59607847D01*
X131620848Y-59608800D02*
X131620943Y-59608847D01*
X131620943Y-59608847D02*
X131621134Y-59608847D01*
X131621134Y-59608847D02*
X131621229Y-59608800D01*
X131621229Y-59608800D02*
X131621276Y-59608752D01*
X131621276Y-59608752D02*
X131621324Y-59608657D01*
X131621324Y-59608657D02*
X131621324Y-59608371D01*
X131621324Y-59608371D02*
X131621276Y-59608276D01*
X131621276Y-59608276D02*
X131621229Y-59608228D01*
X131621229Y-59608228D02*
X131621134Y-59608180D01*
X131621134Y-59608180D02*
X131620943Y-59608180D01*
X131620943Y-59608180D02*
X131620848Y-59608228D01*
X131620371Y-59608466D02*
X131619610Y-59608466D01*
X131618705Y-59607847D02*
X131618895Y-59607847D01*
X131618895Y-59607847D02*
X131618991Y-59607895D01*
X131618991Y-59607895D02*
X131619038Y-59607942D01*
X131619038Y-59607942D02*
X131619133Y-59608085D01*
X131619133Y-59608085D02*
X131619181Y-59608276D01*
X131619181Y-59608276D02*
X131619181Y-59608657D01*
X131619181Y-59608657D02*
X131619133Y-59608752D01*
X131619133Y-59608752D02*
X131619086Y-59608800D01*
X131619086Y-59608800D02*
X131618991Y-59608847D01*
X131618991Y-59608847D02*
X131618800Y-59608847D01*
X131618800Y-59608847D02*
X131618705Y-59608800D01*
X131618705Y-59608800D02*
X131618657Y-59608752D01*
X131618657Y-59608752D02*
X131618610Y-59608657D01*
X131618610Y-59608657D02*
X131618610Y-59608419D01*
X131618610Y-59608419D02*
X131618657Y-59608323D01*
X131618657Y-59608323D02*
X131618705Y-59608276D01*
X131618705Y-59608276D02*
X131618800Y-59608228D01*
X131618800Y-59608228D02*
X131618991Y-59608228D01*
X131618991Y-59608228D02*
X131619086Y-59608276D01*
X131619086Y-59608276D02*
X131619133Y-59608323D01*
X131619133Y-59608323D02*
X131619181Y-59608419D01*
X131618277Y-59607847D02*
X131617610Y-59607847D01*
X131617610Y-59607847D02*
X131618039Y-59608847D01*
X131616658Y-59608752D02*
X131616706Y-59608800D01*
X131616706Y-59608800D02*
X131616848Y-59608847D01*
X131616848Y-59608847D02*
X131616944Y-59608847D01*
X131616944Y-59608847D02*
X131617087Y-59608800D01*
X131617087Y-59608800D02*
X131617182Y-59608704D01*
X131617182Y-59608704D02*
X131617229Y-59608609D01*
X131617229Y-59608609D02*
X131617277Y-59608419D01*
X131617277Y-59608419D02*
X131617277Y-59608276D01*
X131617277Y-59608276D02*
X131617229Y-59608085D01*
X131617229Y-59608085D02*
X131617182Y-59607990D01*
X131617182Y-59607990D02*
X131617087Y-59607895D01*
X131617087Y-59607895D02*
X131616944Y-59607847D01*
X131616944Y-59607847D02*
X131616848Y-59607847D01*
X131616848Y-59607847D02*
X131616706Y-59607895D01*
X131616706Y-59607895D02*
X131616658Y-59607942D01*
X131616087Y-59608276D02*
X131616182Y-59608228D01*
X131616182Y-59608228D02*
X131616229Y-59608180D01*
X131616229Y-59608180D02*
X131616277Y-59608085D01*
X131616277Y-59608085D02*
X131616277Y-59608038D01*
X131616277Y-59608038D02*
X131616229Y-59607942D01*
X131616229Y-59607942D02*
X131616182Y-59607895D01*
X131616182Y-59607895D02*
X131616087Y-59607847D01*
X131616087Y-59607847D02*
X131615896Y-59607847D01*
X131615896Y-59607847D02*
X131615801Y-59607895D01*
X131615801Y-59607895D02*
X131615753Y-59607942D01*
X131615753Y-59607942D02*
X131615706Y-59608038D01*
X131615706Y-59608038D02*
X131615706Y-59608085D01*
X131615706Y-59608085D02*
X131615753Y-59608180D01*
X131615753Y-59608180D02*
X131615801Y-59608228D01*
X131615801Y-59608228D02*
X131615896Y-59608276D01*
X131615896Y-59608276D02*
X131616087Y-59608276D01*
X131616087Y-59608276D02*
X131616182Y-59608323D01*
X131616182Y-59608323D02*
X131616229Y-59608371D01*
X131616229Y-59608371D02*
X131616277Y-59608466D01*
X131616277Y-59608466D02*
X131616277Y-59608657D01*
X131616277Y-59608657D02*
X131616229Y-59608752D01*
X131616229Y-59608752D02*
X131616182Y-59608800D01*
X131616182Y-59608800D02*
X131616087Y-59608847D01*
X131616087Y-59608847D02*
X131615896Y-59608847D01*
X131615896Y-59608847D02*
X131615801Y-59608800D01*
X131615801Y-59608800D02*
X131615753Y-59608752D01*
X131615753Y-59608752D02*
X131615706Y-59608657D01*
X131615706Y-59608657D02*
X131615706Y-59608466D01*
X131615706Y-59608466D02*
X131615753Y-59608371D01*
X131615753Y-59608371D02*
X131615801Y-59608323D01*
X131615801Y-59608323D02*
X131615896Y-59608276D01*
X131615087Y-59607847D02*
X131614992Y-59607847D01*
X131614992Y-59607847D02*
X131614896Y-59607895D01*
X131614896Y-59607895D02*
X131614849Y-59607942D01*
X131614849Y-59607942D02*
X131614801Y-59608038D01*
X131614801Y-59608038D02*
X131614754Y-59608228D01*
X131614754Y-59608228D02*
X131614754Y-59608466D01*
X131614754Y-59608466D02*
X131614801Y-59608657D01*
X131614801Y-59608657D02*
X131614849Y-59608752D01*
X131614849Y-59608752D02*
X131614896Y-59608800D01*
X131614896Y-59608800D02*
X131614992Y-59608847D01*
X131614992Y-59608847D02*
X131615087Y-59608847D01*
X131615087Y-59608847D02*
X131615182Y-59608800D01*
X131615182Y-59608800D02*
X131615230Y-59608752D01*
X131615230Y-59608752D02*
X131615277Y-59608657D01*
X131615277Y-59608657D02*
X131615325Y-59608466D01*
X131615325Y-59608466D02*
X131615325Y-59608228D01*
X131615325Y-59608228D02*
X131615277Y-59608038D01*
X131615277Y-59608038D02*
X131615230Y-59607942D01*
X131615230Y-59607942D02*
X131615182Y-59607895D01*
X131615182Y-59607895D02*
X131615087Y-59607847D01*
X131614421Y-59607847D02*
X131613754Y-59607847D01*
X131613754Y-59607847D02*
X131614183Y-59608847D01*
X131613040Y-59608323D02*
X131613373Y-59608323D01*
X131613373Y-59608847D02*
X131613373Y-59607847D01*
X131613373Y-59607847D02*
X131612897Y-59607847D01*
X131612374Y-59608276D02*
X131612469Y-59608228D01*
X131612469Y-59608228D02*
X131612516Y-59608180D01*
X131612516Y-59608180D02*
X131612564Y-59608085D01*
X131612564Y-59608085D02*
X131612564Y-59608038D01*
X131612564Y-59608038D02*
X131612516Y-59607942D01*
X131612516Y-59607942D02*
X131612469Y-59607895D01*
X131612469Y-59607895D02*
X131612374Y-59607847D01*
X131612374Y-59607847D02*
X131612183Y-59607847D01*
X131612183Y-59607847D02*
X131612088Y-59607895D01*
X131612088Y-59607895D02*
X131612040Y-59607942D01*
X131612040Y-59607942D02*
X131611993Y-59608038D01*
X131611993Y-59608038D02*
X131611993Y-59608085D01*
X131611993Y-59608085D02*
X131612040Y-59608180D01*
X131612040Y-59608180D02*
X131612088Y-59608228D01*
X131612088Y-59608228D02*
X131612183Y-59608276D01*
X131612183Y-59608276D02*
X131612374Y-59608276D01*
X131612374Y-59608276D02*
X131612469Y-59608323D01*
X131612469Y-59608323D02*
X131612516Y-59608371D01*
X131612516Y-59608371D02*
X131612564Y-59608466D01*
X131612564Y-59608466D02*
X131612564Y-59608657D01*
X131612564Y-59608657D02*
X131612516Y-59608752D01*
X131612516Y-59608752D02*
X131612469Y-59608800D01*
X131612469Y-59608800D02*
X131612374Y-59608847D01*
X131612374Y-59608847D02*
X131612183Y-59608847D01*
X131612183Y-59608847D02*
X131612088Y-59608800D01*
X131612088Y-59608800D02*
X131612040Y-59608752D01*
X131612040Y-59608752D02*
X131611993Y-59608657D01*
X131611993Y-59608657D02*
X131611993Y-59608466D01*
X131611993Y-59608466D02*
X131612040Y-59608371D01*
X131612040Y-59608371D02*
X131612088Y-59608323D01*
X131612088Y-59608323D02*
X131612183Y-59608276D01*
X131620660Y-52151099D02*
X131620755Y-52151051D01*
X131620755Y-52151051D02*
X131620898Y-52151051D01*
X131620898Y-52151051D02*
X131621041Y-52151099D01*
X131621041Y-52151099D02*
X131621136Y-52151194D01*
X131621136Y-52151194D02*
X131621183Y-52151289D01*
X131621183Y-52151289D02*
X131621231Y-52151480D01*
X131621231Y-52151480D02*
X131621231Y-52151623D01*
X131621231Y-52151623D02*
X131621183Y-52151813D01*
X131621183Y-52151813D02*
X131621136Y-52151908D01*
X131621136Y-52151908D02*
X131621041Y-52152004D01*
X131621041Y-52152004D02*
X131620898Y-52152051D01*
X131620898Y-52152051D02*
X131620802Y-52152051D01*
X131620802Y-52152051D02*
X131620660Y-52152004D01*
X131620660Y-52152004D02*
X131620612Y-52151956D01*
X131620612Y-52151956D02*
X131620612Y-52151623D01*
X131620612Y-52151623D02*
X131620802Y-52151623D01*
X131620041Y-52151051D02*
X131620041Y-52151289D01*
X131620279Y-52151194D02*
X131620041Y-52151289D01*
X131620041Y-52151289D02*
X131619802Y-52151194D01*
X131620183Y-52151480D02*
X131620041Y-52151289D01*
X131620041Y-52151289D02*
X131619898Y-52151480D01*
X131619279Y-52151051D02*
X131619279Y-52151289D01*
X131619517Y-52151194D02*
X131619279Y-52151289D01*
X131619279Y-52151289D02*
X131619040Y-52151194D01*
X131619421Y-52151480D02*
X131619279Y-52151289D01*
X131619279Y-52151289D02*
X131619136Y-52151480D01*
X131618517Y-52151051D02*
X131618517Y-52151289D01*
X131618755Y-52151194D02*
X131618517Y-52151289D01*
X131618517Y-52151289D02*
X131618278Y-52151194D01*
X131618659Y-52151480D02*
X131618517Y-52151289D01*
X131618517Y-52151289D02*
X131618374Y-52151480D01*
X131632118Y-69762385D02*
X131632118Y-69761385D01*
X131632023Y-69762004D02*
X131631737Y-69762385D01*
X131631737Y-69761718D02*
X131632118Y-69762099D01*
X131631308Y-69762385D02*
X131631308Y-69761718D01*
X131631308Y-69761385D02*
X131631356Y-69761433D01*
X131631356Y-69761433D02*
X131631308Y-69761480D01*
X131631308Y-69761480D02*
X131631261Y-69761433D01*
X131631261Y-69761433D02*
X131631308Y-69761385D01*
X131631308Y-69761385D02*
X131631308Y-69761480D01*
X131630832Y-69762385D02*
X131630832Y-69761385D01*
X131630832Y-69761766D02*
X131630737Y-69761718D01*
X131630737Y-69761718D02*
X131630547Y-69761718D01*
X131630547Y-69761718D02*
X131630451Y-69761766D01*
X131630451Y-69761766D02*
X131630404Y-69761814D01*
X131630404Y-69761814D02*
X131630356Y-69761909D01*
X131630356Y-69761909D02*
X131630356Y-69762195D01*
X131630356Y-69762195D02*
X131630404Y-69762290D01*
X131630404Y-69762290D02*
X131630451Y-69762338D01*
X131630451Y-69762338D02*
X131630547Y-69762385D01*
X131630547Y-69762385D02*
X131630737Y-69762385D01*
X131630737Y-69762385D02*
X131630832Y-69762338D01*
X131629499Y-69761718D02*
X131629499Y-69762385D01*
X131629927Y-69761718D02*
X131629927Y-69762242D01*
X131629927Y-69762242D02*
X131629880Y-69762338D01*
X131629880Y-69762338D02*
X131629785Y-69762385D01*
X131629785Y-69762385D02*
X131629642Y-69762385D01*
X131629642Y-69762385D02*
X131629546Y-69762338D01*
X131629546Y-69762338D02*
X131629499Y-69762290D01*
X131629118Y-69761718D02*
X131628594Y-69761718D01*
X131628594Y-69761718D02*
X131629118Y-69762385D01*
X131629118Y-69762385D02*
X131628594Y-69762385D01*
X131628308Y-69761718D02*
X131627784Y-69761718D01*
X131627784Y-69761718D02*
X131628308Y-69762385D01*
X131628308Y-69762385D02*
X131627784Y-69762385D01*
X131626974Y-69762385D02*
X131626974Y-69761861D01*
X131626974Y-69761861D02*
X131627021Y-69761766D01*
X131627021Y-69761766D02*
X131627117Y-69761718D01*
X131627117Y-69761718D02*
X131627307Y-69761718D01*
X131627307Y-69761718D02*
X131627402Y-69761766D01*
X131626974Y-69762338D02*
X131627069Y-69762385D01*
X131627069Y-69762385D02*
X131627307Y-69762385D01*
X131627307Y-69762385D02*
X131627402Y-69762338D01*
X131627402Y-69762338D02*
X131627450Y-69762242D01*
X131627450Y-69762242D02*
X131627450Y-69762147D01*
X131627450Y-69762147D02*
X131627402Y-69762052D01*
X131627402Y-69762052D02*
X131627307Y-69762004D01*
X131627307Y-69762004D02*
X131627069Y-69762004D01*
X131627069Y-69762004D02*
X131626974Y-69761957D01*
X131626497Y-69762385D02*
X131626497Y-69761718D01*
X131626497Y-69761909D02*
X131626450Y-69761814D01*
X131626450Y-69761814D02*
X131626402Y-69761766D01*
X131626402Y-69761766D02*
X131626307Y-69761718D01*
X131626307Y-69761718D02*
X131626212Y-69761718D01*
X131625450Y-69762385D02*
X131625450Y-69761385D01*
X131625450Y-69762338D02*
X131625545Y-69762385D01*
X131625545Y-69762385D02*
X131625736Y-69762385D01*
X131625736Y-69762385D02*
X131625831Y-69762338D01*
X131625831Y-69762338D02*
X131625878Y-69762290D01*
X131625878Y-69762290D02*
X131625926Y-69762195D01*
X131625926Y-69762195D02*
X131625926Y-69761909D01*
X131625926Y-69761909D02*
X131625878Y-69761814D01*
X131625878Y-69761814D02*
X131625831Y-69761766D01*
X131625831Y-69761766D02*
X131625736Y-69761718D01*
X131625736Y-69761718D02*
X131625545Y-69761718D01*
X131625545Y-69761718D02*
X131625450Y-69761766D01*
X131624973Y-69762004D02*
X131624212Y-69762004D01*
X131623307Y-69761385D02*
X131623497Y-69761385D01*
X131623497Y-69761385D02*
X131623593Y-69761433D01*
X131623593Y-69761433D02*
X131623640Y-69761480D01*
X131623640Y-69761480D02*
X131623735Y-69761623D01*
X131623735Y-69761623D02*
X131623783Y-69761814D01*
X131623783Y-69761814D02*
X131623783Y-69762195D01*
X131623783Y-69762195D02*
X131623735Y-69762290D01*
X131623735Y-69762290D02*
X131623688Y-69762338D01*
X131623688Y-69762338D02*
X131623593Y-69762385D01*
X131623593Y-69762385D02*
X131623402Y-69762385D01*
X131623402Y-69762385D02*
X131623307Y-69762338D01*
X131623307Y-69762338D02*
X131623259Y-69762290D01*
X131623259Y-69762290D02*
X131623212Y-69762195D01*
X131623212Y-69762195D02*
X131623212Y-69761957D01*
X131623212Y-69761957D02*
X131623259Y-69761861D01*
X131623259Y-69761861D02*
X131623307Y-69761814D01*
X131623307Y-69761814D02*
X131623402Y-69761766D01*
X131623402Y-69761766D02*
X131623593Y-69761766D01*
X131623593Y-69761766D02*
X131623688Y-69761814D01*
X131623688Y-69761814D02*
X131623735Y-69761861D01*
X131623735Y-69761861D02*
X131623783Y-69761957D01*
X131622879Y-69761385D02*
X131622212Y-69761385D01*
X131622212Y-69761385D02*
X131622641Y-69762385D01*
X131621260Y-69762290D02*
X131621308Y-69762338D01*
X131621308Y-69762338D02*
X131621450Y-69762385D01*
X131621450Y-69762385D02*
X131621546Y-69762385D01*
X131621546Y-69762385D02*
X131621689Y-69762338D01*
X131621689Y-69762338D02*
X131621784Y-69762242D01*
X131621784Y-69762242D02*
X131621831Y-69762147D01*
X131621831Y-69762147D02*
X131621879Y-69761957D01*
X131621879Y-69761957D02*
X131621879Y-69761814D01*
X131621879Y-69761814D02*
X131621831Y-69761623D01*
X131621831Y-69761623D02*
X131621784Y-69761528D01*
X131621784Y-69761528D02*
X131621689Y-69761433D01*
X131621689Y-69761433D02*
X131621546Y-69761385D01*
X131621546Y-69761385D02*
X131621450Y-69761385D01*
X131621450Y-69761385D02*
X131621308Y-69761433D01*
X131621308Y-69761433D02*
X131621260Y-69761480D01*
X131620689Y-69761814D02*
X131620784Y-69761766D01*
X131620784Y-69761766D02*
X131620831Y-69761718D01*
X131620831Y-69761718D02*
X131620879Y-69761623D01*
X131620879Y-69761623D02*
X131620879Y-69761576D01*
X131620879Y-69761576D02*
X131620831Y-69761480D01*
X131620831Y-69761480D02*
X131620784Y-69761433D01*
X131620784Y-69761433D02*
X131620689Y-69761385D01*
X131620689Y-69761385D02*
X131620498Y-69761385D01*
X131620498Y-69761385D02*
X131620403Y-69761433D01*
X131620403Y-69761433D02*
X131620355Y-69761480D01*
X131620355Y-69761480D02*
X131620308Y-69761576D01*
X131620308Y-69761576D02*
X131620308Y-69761623D01*
X131620308Y-69761623D02*
X131620355Y-69761718D01*
X131620355Y-69761718D02*
X131620403Y-69761766D01*
X131620403Y-69761766D02*
X131620498Y-69761814D01*
X131620498Y-69761814D02*
X131620689Y-69761814D01*
X131620689Y-69761814D02*
X131620784Y-69761861D01*
X131620784Y-69761861D02*
X131620831Y-69761909D01*
X131620831Y-69761909D02*
X131620879Y-69762004D01*
X131620879Y-69762004D02*
X131620879Y-69762195D01*
X131620879Y-69762195D02*
X131620831Y-69762290D01*
X131620831Y-69762290D02*
X131620784Y-69762338D01*
X131620784Y-69762338D02*
X131620689Y-69762385D01*
X131620689Y-69762385D02*
X131620498Y-69762385D01*
X131620498Y-69762385D02*
X131620403Y-69762338D01*
X131620403Y-69762338D02*
X131620355Y-69762290D01*
X131620355Y-69762290D02*
X131620308Y-69762195D01*
X131620308Y-69762195D02*
X131620308Y-69762004D01*
X131620308Y-69762004D02*
X131620355Y-69761909D01*
X131620355Y-69761909D02*
X131620403Y-69761861D01*
X131620403Y-69761861D02*
X131620498Y-69761814D01*
X131619689Y-69761385D02*
X131619594Y-69761385D01*
X131619594Y-69761385D02*
X131619498Y-69761433D01*
X131619498Y-69761433D02*
X131619451Y-69761480D01*
X131619451Y-69761480D02*
X131619403Y-69761576D01*
X131619403Y-69761576D02*
X131619356Y-69761766D01*
X131619356Y-69761766D02*
X131619356Y-69762004D01*
X131619356Y-69762004D02*
X131619403Y-69762195D01*
X131619403Y-69762195D02*
X131619451Y-69762290D01*
X131619451Y-69762290D02*
X131619498Y-69762338D01*
X131619498Y-69762338D02*
X131619594Y-69762385D01*
X131619594Y-69762385D02*
X131619689Y-69762385D01*
X131619689Y-69762385D02*
X131619784Y-69762338D01*
X131619784Y-69762338D02*
X131619832Y-69762290D01*
X131619832Y-69762290D02*
X131619879Y-69762195D01*
X131619879Y-69762195D02*
X131619927Y-69762004D01*
X131619927Y-69762004D02*
X131619927Y-69761766D01*
X131619927Y-69761766D02*
X131619879Y-69761576D01*
X131619879Y-69761576D02*
X131619832Y-69761480D01*
X131619832Y-69761480D02*
X131619784Y-69761433D01*
X131619784Y-69761433D02*
X131619689Y-69761385D01*
X131618785Y-69761814D02*
X131618880Y-69761766D01*
X131618880Y-69761766D02*
X131618927Y-69761718D01*
X131618927Y-69761718D02*
X131618975Y-69761623D01*
X131618975Y-69761623D02*
X131618975Y-69761576D01*
X131618975Y-69761576D02*
X131618927Y-69761480D01*
X131618927Y-69761480D02*
X131618880Y-69761433D01*
X131618880Y-69761433D02*
X131618785Y-69761385D01*
X131618785Y-69761385D02*
X131618594Y-69761385D01*
X131618594Y-69761385D02*
X131618499Y-69761433D01*
X131618499Y-69761433D02*
X131618451Y-69761480D01*
X131618451Y-69761480D02*
X131618404Y-69761576D01*
X131618404Y-69761576D02*
X131618404Y-69761623D01*
X131618404Y-69761623D02*
X131618451Y-69761718D01*
X131618451Y-69761718D02*
X131618499Y-69761766D01*
X131618499Y-69761766D02*
X131618594Y-69761814D01*
X131618594Y-69761814D02*
X131618785Y-69761814D01*
X131618785Y-69761814D02*
X131618880Y-69761861D01*
X131618880Y-69761861D02*
X131618927Y-69761909D01*
X131618927Y-69761909D02*
X131618975Y-69762004D01*
X131618975Y-69762004D02*
X131618975Y-69762195D01*
X131618975Y-69762195D02*
X131618927Y-69762290D01*
X131618927Y-69762290D02*
X131618880Y-69762338D01*
X131618880Y-69762338D02*
X131618785Y-69762385D01*
X131618785Y-69762385D02*
X131618594Y-69762385D01*
X131618594Y-69762385D02*
X131618499Y-69762338D01*
X131618499Y-69762338D02*
X131618451Y-69762290D01*
X131618451Y-69762290D02*
X131618404Y-69762195D01*
X131618404Y-69762195D02*
X131618404Y-69762004D01*
X131618404Y-69762004D02*
X131618451Y-69761909D01*
X131618451Y-69761909D02*
X131618499Y-69761861D01*
X131618499Y-69761861D02*
X131618594Y-69761814D01*
X131617975Y-69761861D02*
X131617642Y-69761861D01*
X131617499Y-69762385D02*
X131617975Y-69762385D01*
X131617975Y-69762385D02*
X131617975Y-69761385D01*
X131617975Y-69761385D02*
X131617499Y-69761385D01*
X131616642Y-69761385D02*
X131616832Y-69761385D01*
X131616832Y-69761385D02*
X131616928Y-69761433D01*
X131616928Y-69761433D02*
X131616975Y-69761480D01*
X131616975Y-69761480D02*
X131617070Y-69761623D01*
X131617070Y-69761623D02*
X131617118Y-69761814D01*
X131617118Y-69761814D02*
X131617118Y-69762195D01*
X131617118Y-69762195D02*
X131617070Y-69762290D01*
X131617070Y-69762290D02*
X131617023Y-69762338D01*
X131617023Y-69762338D02*
X131616928Y-69762385D01*
X131616928Y-69762385D02*
X131616737Y-69762385D01*
X131616737Y-69762385D02*
X131616642Y-69762338D01*
X131616642Y-69762338D02*
X131616594Y-69762290D01*
X131616594Y-69762290D02*
X131616547Y-69762195D01*
X131616547Y-69762195D02*
X131616547Y-69761957D01*
X131616547Y-69761957D02*
X131616594Y-69761861D01*
X131616594Y-69761861D02*
X131616642Y-69761814D01*
X131616642Y-69761814D02*
X131616737Y-69761766D01*
X131616737Y-69761766D02*
X131616928Y-69761766D01*
X131616928Y-69761766D02*
X131617023Y-69761814D01*
X131617023Y-69761814D02*
X131617070Y-69761861D01*
X131617070Y-69761861D02*
X131617118Y-69761957D01*
X131625238Y-62317561D02*
X131625333Y-62317513D01*
X131625333Y-62317513D02*
X131625476Y-62317513D01*
X131625476Y-62317513D02*
X131625619Y-62317561D01*
X131625619Y-62317561D02*
X131625714Y-62317656D01*
X131625714Y-62317656D02*
X131625761Y-62317751D01*
X131625761Y-62317751D02*
X131625809Y-62317942D01*
X131625809Y-62317942D02*
X131625809Y-62318085D01*
X131625809Y-62318085D02*
X131625761Y-62318275D01*
X131625761Y-62318275D02*
X131625714Y-62318370D01*
X131625714Y-62318370D02*
X131625619Y-62318466D01*
X131625619Y-62318466D02*
X131625476Y-62318513D01*
X131625476Y-62318513D02*
X131625380Y-62318513D01*
X131625380Y-62318513D02*
X131625238Y-62318466D01*
X131625238Y-62318466D02*
X131625190Y-62318418D01*
X131625190Y-62318418D02*
X131625190Y-62318085D01*
X131625190Y-62318085D02*
X131625380Y-62318085D01*
X131624619Y-62317513D02*
X131624619Y-62317751D01*
X131624857Y-62317656D02*
X131624619Y-62317751D01*
X131624619Y-62317751D02*
X131624380Y-62317656D01*
X131624761Y-62317942D02*
X131624619Y-62317751D01*
X131624619Y-62317751D02*
X131624476Y-62317942D01*
X131623857Y-62317513D02*
X131623857Y-62317751D01*
X131624095Y-62317656D02*
X131623857Y-62317751D01*
X131623857Y-62317751D02*
X131623618Y-62317656D01*
X131623999Y-62317942D02*
X131623857Y-62317751D01*
X131623857Y-62317751D02*
X131623714Y-62317942D01*
X131623095Y-62317513D02*
X131623095Y-62317751D01*
X131623333Y-62317656D02*
X131623095Y-62317751D01*
X131623095Y-62317751D02*
X131622856Y-62317656D01*
X131623237Y-62317942D02*
X131623095Y-62317751D01*
X131623095Y-62317751D02*
X131622952Y-62317942D01*
X130798760Y-82478541D02*
X130798760Y-82477541D01*
X130798665Y-82478160D02*
X130798379Y-82478541D01*
X130798379Y-82477874D02*
X130798760Y-82478255D01*
X130797950Y-82478541D02*
X130797950Y-82477874D01*
X130797950Y-82477541D02*
X130797998Y-82477589D01*
X130797998Y-82477589D02*
X130797950Y-82477636D01*
X130797950Y-82477636D02*
X130797903Y-82477589D01*
X130797903Y-82477589D02*
X130797950Y-82477541D01*
X130797950Y-82477541D02*
X130797950Y-82477636D01*
X130797474Y-82478541D02*
X130797474Y-82477541D01*
X130797474Y-82477922D02*
X130797379Y-82477874D01*
X130797379Y-82477874D02*
X130797189Y-82477874D01*
X130797189Y-82477874D02*
X130797093Y-82477922D01*
X130797093Y-82477922D02*
X130797046Y-82477970D01*
X130797046Y-82477970D02*
X130796998Y-82478065D01*
X130796998Y-82478065D02*
X130796998Y-82478351D01*
X130796998Y-82478351D02*
X130797046Y-82478446D01*
X130797046Y-82478446D02*
X130797093Y-82478494D01*
X130797093Y-82478494D02*
X130797189Y-82478541D01*
X130797189Y-82478541D02*
X130797379Y-82478541D01*
X130797379Y-82478541D02*
X130797474Y-82478494D01*
X130796141Y-82477874D02*
X130796141Y-82478541D01*
X130796569Y-82477874D02*
X130796569Y-82478398D01*
X130796569Y-82478398D02*
X130796522Y-82478494D01*
X130796522Y-82478494D02*
X130796427Y-82478541D01*
X130796427Y-82478541D02*
X130796284Y-82478541D01*
X130796284Y-82478541D02*
X130796188Y-82478494D01*
X130796188Y-82478494D02*
X130796141Y-82478446D01*
X130795760Y-82477874D02*
X130795236Y-82477874D01*
X130795236Y-82477874D02*
X130795760Y-82478541D01*
X130795760Y-82478541D02*
X130795236Y-82478541D01*
X130794950Y-82477874D02*
X130794426Y-82477874D01*
X130794426Y-82477874D02*
X130794950Y-82478541D01*
X130794950Y-82478541D02*
X130794426Y-82478541D01*
X130793616Y-82478541D02*
X130793616Y-82478017D01*
X130793616Y-82478017D02*
X130793663Y-82477922D01*
X130793663Y-82477922D02*
X130793759Y-82477874D01*
X130793759Y-82477874D02*
X130793949Y-82477874D01*
X130793949Y-82477874D02*
X130794044Y-82477922D01*
X130793616Y-82478494D02*
X130793711Y-82478541D01*
X130793711Y-82478541D02*
X130793949Y-82478541D01*
X130793949Y-82478541D02*
X130794044Y-82478494D01*
X130794044Y-82478494D02*
X130794092Y-82478398D01*
X130794092Y-82478398D02*
X130794092Y-82478303D01*
X130794092Y-82478303D02*
X130794044Y-82478208D01*
X130794044Y-82478208D02*
X130793949Y-82478160D01*
X130793949Y-82478160D02*
X130793711Y-82478160D01*
X130793711Y-82478160D02*
X130793616Y-82478113D01*
X130793139Y-82478541D02*
X130793139Y-82477874D01*
X130793139Y-82478065D02*
X130793092Y-82477970D01*
X130793092Y-82477970D02*
X130793044Y-82477922D01*
X130793044Y-82477922D02*
X130792949Y-82477874D01*
X130792949Y-82477874D02*
X130792854Y-82477874D01*
X130792092Y-82478541D02*
X130792092Y-82477541D01*
X130792092Y-82478494D02*
X130792187Y-82478541D01*
X130792187Y-82478541D02*
X130792378Y-82478541D01*
X130792378Y-82478541D02*
X130792473Y-82478494D01*
X130792473Y-82478494D02*
X130792520Y-82478446D01*
X130792520Y-82478446D02*
X130792568Y-82478351D01*
X130792568Y-82478351D02*
X130792568Y-82478065D01*
X130792568Y-82478065D02*
X130792520Y-82477970D01*
X130792520Y-82477970D02*
X130792473Y-82477922D01*
X130792473Y-82477922D02*
X130792378Y-82477874D01*
X130792378Y-82477874D02*
X130792187Y-82477874D01*
X130792187Y-82477874D02*
X130792092Y-82477922D01*
X130791615Y-82478160D02*
X130790854Y-82478160D01*
X130789949Y-82477541D02*
X130790139Y-82477541D01*
X130790139Y-82477541D02*
X130790235Y-82477589D01*
X130790235Y-82477589D02*
X130790282Y-82477636D01*
X130790282Y-82477636D02*
X130790377Y-82477779D01*
X130790377Y-82477779D02*
X130790425Y-82477970D01*
X130790425Y-82477970D02*
X130790425Y-82478351D01*
X130790425Y-82478351D02*
X130790377Y-82478446D01*
X130790377Y-82478446D02*
X130790330Y-82478494D01*
X130790330Y-82478494D02*
X130790235Y-82478541D01*
X130790235Y-82478541D02*
X130790044Y-82478541D01*
X130790044Y-82478541D02*
X130789949Y-82478494D01*
X130789949Y-82478494D02*
X130789901Y-82478446D01*
X130789901Y-82478446D02*
X130789854Y-82478351D01*
X130789854Y-82478351D02*
X130789854Y-82478113D01*
X130789854Y-82478113D02*
X130789901Y-82478017D01*
X130789901Y-82478017D02*
X130789949Y-82477970D01*
X130789949Y-82477970D02*
X130790044Y-82477922D01*
X130790044Y-82477922D02*
X130790235Y-82477922D01*
X130790235Y-82477922D02*
X130790330Y-82477970D01*
X130790330Y-82477970D02*
X130790377Y-82478017D01*
X130790377Y-82478017D02*
X130790425Y-82478113D01*
X130789521Y-82477541D02*
X130788854Y-82477541D01*
X130788854Y-82477541D02*
X130789283Y-82478541D01*
X130787902Y-82478446D02*
X130787950Y-82478494D01*
X130787950Y-82478494D02*
X130788092Y-82478541D01*
X130788092Y-82478541D02*
X130788188Y-82478541D01*
X130788188Y-82478541D02*
X130788331Y-82478494D01*
X130788331Y-82478494D02*
X130788426Y-82478398D01*
X130788426Y-82478398D02*
X130788473Y-82478303D01*
X130788473Y-82478303D02*
X130788521Y-82478113D01*
X130788521Y-82478113D02*
X130788521Y-82477970D01*
X130788521Y-82477970D02*
X130788473Y-82477779D01*
X130788473Y-82477779D02*
X130788426Y-82477684D01*
X130788426Y-82477684D02*
X130788331Y-82477589D01*
X130788331Y-82477589D02*
X130788188Y-82477541D01*
X130788188Y-82477541D02*
X130788092Y-82477541D01*
X130788092Y-82477541D02*
X130787950Y-82477589D01*
X130787950Y-82477589D02*
X130787902Y-82477636D01*
X130787331Y-82477970D02*
X130787426Y-82477922D01*
X130787426Y-82477922D02*
X130787473Y-82477874D01*
X130787473Y-82477874D02*
X130787521Y-82477779D01*
X130787521Y-82477779D02*
X130787521Y-82477732D01*
X130787521Y-82477732D02*
X130787473Y-82477636D01*
X130787473Y-82477636D02*
X130787426Y-82477589D01*
X130787426Y-82477589D02*
X130787331Y-82477541D01*
X130787331Y-82477541D02*
X130787140Y-82477541D01*
X130787140Y-82477541D02*
X130787045Y-82477589D01*
X130787045Y-82477589D02*
X130786997Y-82477636D01*
X130786997Y-82477636D02*
X130786950Y-82477732D01*
X130786950Y-82477732D02*
X130786950Y-82477779D01*
X130786950Y-82477779D02*
X130786997Y-82477874D01*
X130786997Y-82477874D02*
X130787045Y-82477922D01*
X130787045Y-82477922D02*
X130787140Y-82477970D01*
X130787140Y-82477970D02*
X130787331Y-82477970D01*
X130787331Y-82477970D02*
X130787426Y-82478017D01*
X130787426Y-82478017D02*
X130787473Y-82478065D01*
X130787473Y-82478065D02*
X130787521Y-82478160D01*
X130787521Y-82478160D02*
X130787521Y-82478351D01*
X130787521Y-82478351D02*
X130787473Y-82478446D01*
X130787473Y-82478446D02*
X130787426Y-82478494D01*
X130787426Y-82478494D02*
X130787331Y-82478541D01*
X130787331Y-82478541D02*
X130787140Y-82478541D01*
X130787140Y-82478541D02*
X130787045Y-82478494D01*
X130787045Y-82478494D02*
X130786997Y-82478446D01*
X130786997Y-82478446D02*
X130786950Y-82478351D01*
X130786950Y-82478351D02*
X130786950Y-82478160D01*
X130786950Y-82478160D02*
X130786997Y-82478065D01*
X130786997Y-82478065D02*
X130787045Y-82478017D01*
X130787045Y-82478017D02*
X130787140Y-82477970D01*
X130786331Y-82477541D02*
X130786236Y-82477541D01*
X130786236Y-82477541D02*
X130786140Y-82477589D01*
X130786140Y-82477589D02*
X130786093Y-82477636D01*
X130786093Y-82477636D02*
X130786045Y-82477732D01*
X130786045Y-82477732D02*
X130785998Y-82477922D01*
X130785998Y-82477922D02*
X130785998Y-82478160D01*
X130785998Y-82478160D02*
X130786045Y-82478351D01*
X130786045Y-82478351D02*
X130786093Y-82478446D01*
X130786093Y-82478446D02*
X130786140Y-82478494D01*
X130786140Y-82478494D02*
X130786236Y-82478541D01*
X130786236Y-82478541D02*
X130786331Y-82478541D01*
X130786331Y-82478541D02*
X130786426Y-82478494D01*
X130786426Y-82478494D02*
X130786474Y-82478446D01*
X130786474Y-82478446D02*
X130786521Y-82478351D01*
X130786521Y-82478351D02*
X130786569Y-82478160D01*
X130786569Y-82478160D02*
X130786569Y-82477922D01*
X130786569Y-82477922D02*
X130786521Y-82477732D01*
X130786521Y-82477732D02*
X130786474Y-82477636D01*
X130786474Y-82477636D02*
X130786426Y-82477589D01*
X130786426Y-82477589D02*
X130786331Y-82477541D01*
X130785522Y-82478541D02*
X130785331Y-82478541D01*
X130785331Y-82478541D02*
X130785236Y-82478494D01*
X130785236Y-82478494D02*
X130785188Y-82478446D01*
X130785188Y-82478446D02*
X130785093Y-82478303D01*
X130785093Y-82478303D02*
X130785046Y-82478113D01*
X130785046Y-82478113D02*
X130785046Y-82477732D01*
X130785046Y-82477732D02*
X130785093Y-82477636D01*
X130785093Y-82477636D02*
X130785141Y-82477589D01*
X130785141Y-82477589D02*
X130785236Y-82477541D01*
X130785236Y-82477541D02*
X130785427Y-82477541D01*
X130785427Y-82477541D02*
X130785522Y-82477589D01*
X130785522Y-82477589D02*
X130785569Y-82477636D01*
X130785569Y-82477636D02*
X130785617Y-82477732D01*
X130785617Y-82477732D02*
X130785617Y-82477970D01*
X130785617Y-82477970D02*
X130785569Y-82478065D01*
X130785569Y-82478065D02*
X130785522Y-82478113D01*
X130785522Y-82478113D02*
X130785427Y-82478160D01*
X130785427Y-82478160D02*
X130785236Y-82478160D01*
X130785236Y-82478160D02*
X130785141Y-82478113D01*
X130785141Y-82478113D02*
X130785093Y-82478065D01*
X130785093Y-82478065D02*
X130785046Y-82477970D01*
X130784427Y-82477541D02*
X130784332Y-82477541D01*
X130784332Y-82477541D02*
X130784236Y-82477589D01*
X130784236Y-82477589D02*
X130784189Y-82477636D01*
X130784189Y-82477636D02*
X130784141Y-82477732D01*
X130784141Y-82477732D02*
X130784094Y-82477922D01*
X130784094Y-82477922D02*
X130784094Y-82478160D01*
X130784094Y-82478160D02*
X130784141Y-82478351D01*
X130784141Y-82478351D02*
X130784189Y-82478446D01*
X130784189Y-82478446D02*
X130784236Y-82478494D01*
X130784236Y-82478494D02*
X130784332Y-82478541D01*
X130784332Y-82478541D02*
X130784427Y-82478541D01*
X130784427Y-82478541D02*
X130784522Y-82478494D01*
X130784522Y-82478494D02*
X130784570Y-82478446D01*
X130784570Y-82478446D02*
X130784617Y-82478351D01*
X130784617Y-82478351D02*
X130784665Y-82478160D01*
X130784665Y-82478160D02*
X130784665Y-82477922D01*
X130784665Y-82477922D02*
X130784617Y-82477732D01*
X130784617Y-82477732D02*
X130784570Y-82477636D01*
X130784570Y-82477636D02*
X130784522Y-82477589D01*
X130784522Y-82477589D02*
X130784427Y-82477541D01*
X130783332Y-82478017D02*
X130783665Y-82478017D01*
X130783665Y-82478541D02*
X130783665Y-82477541D01*
X130783665Y-82477541D02*
X130783189Y-82477541D01*
X130791904Y-75001405D02*
X130791999Y-75001357D01*
X130791999Y-75001357D02*
X130792142Y-75001357D01*
X130792142Y-75001357D02*
X130792285Y-75001405D01*
X130792285Y-75001405D02*
X130792380Y-75001500D01*
X130792380Y-75001500D02*
X130792427Y-75001595D01*
X130792427Y-75001595D02*
X130792475Y-75001786D01*
X130792475Y-75001786D02*
X130792475Y-75001929D01*
X130792475Y-75001929D02*
X130792427Y-75002119D01*
X130792427Y-75002119D02*
X130792380Y-75002214D01*
X130792380Y-75002214D02*
X130792285Y-75002310D01*
X130792285Y-75002310D02*
X130792142Y-75002357D01*
X130792142Y-75002357D02*
X130792046Y-75002357D01*
X130792046Y-75002357D02*
X130791904Y-75002310D01*
X130791904Y-75002310D02*
X130791856Y-75002262D01*
X130791856Y-75002262D02*
X130791856Y-75001929D01*
X130791856Y-75001929D02*
X130792046Y-75001929D01*
X130791285Y-75001357D02*
X130791285Y-75001595D01*
X130791523Y-75001500D02*
X130791285Y-75001595D01*
X130791285Y-75001595D02*
X130791046Y-75001500D01*
X130791427Y-75001786D02*
X130791285Y-75001595D01*
X130791285Y-75001595D02*
X130791142Y-75001786D01*
X130790523Y-75001357D02*
X130790523Y-75001595D01*
X130790761Y-75001500D02*
X130790523Y-75001595D01*
X130790523Y-75001595D02*
X130790284Y-75001500D01*
X130790665Y-75001786D02*
X130790523Y-75001595D01*
X130790523Y-75001595D02*
X130790380Y-75001786D01*
X130789761Y-75001357D02*
X130789761Y-75001595D01*
X130789999Y-75001500D02*
X130789761Y-75001595D01*
X130789761Y-75001595D02*
X130789522Y-75001500D01*
X130789903Y-75001786D02*
X130789761Y-75001595D01*
X130789761Y-75001595D02*
X130789618Y-75001786D01*
X131217224Y-85018541D02*
X131217224Y-85017541D01*
X131217129Y-85018160D02*
X131216843Y-85018541D01*
X131216843Y-85017874D02*
X131217224Y-85018255D01*
X131216414Y-85018541D02*
X131216414Y-85017874D01*
X131216414Y-85017541D02*
X131216462Y-85017589D01*
X131216462Y-85017589D02*
X131216414Y-85017636D01*
X131216414Y-85017636D02*
X131216367Y-85017589D01*
X131216367Y-85017589D02*
X131216414Y-85017541D01*
X131216414Y-85017541D02*
X131216414Y-85017636D01*
X131215938Y-85018541D02*
X131215938Y-85017541D01*
X131215938Y-85017922D02*
X131215843Y-85017874D01*
X131215843Y-85017874D02*
X131215653Y-85017874D01*
X131215653Y-85017874D02*
X131215557Y-85017922D01*
X131215557Y-85017922D02*
X131215510Y-85017970D01*
X131215510Y-85017970D02*
X131215462Y-85018065D01*
X131215462Y-85018065D02*
X131215462Y-85018351D01*
X131215462Y-85018351D02*
X131215510Y-85018446D01*
X131215510Y-85018446D02*
X131215557Y-85018494D01*
X131215557Y-85018494D02*
X131215653Y-85018541D01*
X131215653Y-85018541D02*
X131215843Y-85018541D01*
X131215843Y-85018541D02*
X131215938Y-85018494D01*
X131214605Y-85017874D02*
X131214605Y-85018541D01*
X131215033Y-85017874D02*
X131215033Y-85018398D01*
X131215033Y-85018398D02*
X131214986Y-85018494D01*
X131214986Y-85018494D02*
X131214891Y-85018541D01*
X131214891Y-85018541D02*
X131214748Y-85018541D01*
X131214748Y-85018541D02*
X131214652Y-85018494D01*
X131214652Y-85018494D02*
X131214605Y-85018446D01*
X131214224Y-85017874D02*
X131213700Y-85017874D01*
X131213700Y-85017874D02*
X131214224Y-85018541D01*
X131214224Y-85018541D02*
X131213700Y-85018541D01*
X131213414Y-85017874D02*
X131212890Y-85017874D01*
X131212890Y-85017874D02*
X131213414Y-85018541D01*
X131213414Y-85018541D02*
X131212890Y-85018541D01*
X131212080Y-85018541D02*
X131212080Y-85018017D01*
X131212080Y-85018017D02*
X131212127Y-85017922D01*
X131212127Y-85017922D02*
X131212223Y-85017874D01*
X131212223Y-85017874D02*
X131212413Y-85017874D01*
X131212413Y-85017874D02*
X131212508Y-85017922D01*
X131212080Y-85018494D02*
X131212175Y-85018541D01*
X131212175Y-85018541D02*
X131212413Y-85018541D01*
X131212413Y-85018541D02*
X131212508Y-85018494D01*
X131212508Y-85018494D02*
X131212556Y-85018398D01*
X131212556Y-85018398D02*
X131212556Y-85018303D01*
X131212556Y-85018303D02*
X131212508Y-85018208D01*
X131212508Y-85018208D02*
X131212413Y-85018160D01*
X131212413Y-85018160D02*
X131212175Y-85018160D01*
X131212175Y-85018160D02*
X131212080Y-85018113D01*
X131211603Y-85018541D02*
X131211603Y-85017874D01*
X131211603Y-85018065D02*
X131211556Y-85017970D01*
X131211556Y-85017970D02*
X131211508Y-85017922D01*
X131211508Y-85017922D02*
X131211413Y-85017874D01*
X131211413Y-85017874D02*
X131211318Y-85017874D01*
X131210556Y-85018541D02*
X131210556Y-85017541D01*
X131210556Y-85018494D02*
X131210651Y-85018541D01*
X131210651Y-85018541D02*
X131210842Y-85018541D01*
X131210842Y-85018541D02*
X131210937Y-85018494D01*
X131210937Y-85018494D02*
X131210984Y-85018446D01*
X131210984Y-85018446D02*
X131211032Y-85018351D01*
X131211032Y-85018351D02*
X131211032Y-85018065D01*
X131211032Y-85018065D02*
X131210984Y-85017970D01*
X131210984Y-85017970D02*
X131210937Y-85017922D01*
X131210937Y-85017922D02*
X131210842Y-85017874D01*
X131210842Y-85017874D02*
X131210651Y-85017874D01*
X131210651Y-85017874D02*
X131210556Y-85017922D01*
X131210079Y-85018160D02*
X131209318Y-85018160D01*
X131208413Y-85017541D02*
X131208603Y-85017541D01*
X131208603Y-85017541D02*
X131208699Y-85017589D01*
X131208699Y-85017589D02*
X131208746Y-85017636D01*
X131208746Y-85017636D02*
X131208841Y-85017779D01*
X131208841Y-85017779D02*
X131208889Y-85017970D01*
X131208889Y-85017970D02*
X131208889Y-85018351D01*
X131208889Y-85018351D02*
X131208841Y-85018446D01*
X131208841Y-85018446D02*
X131208794Y-85018494D01*
X131208794Y-85018494D02*
X131208699Y-85018541D01*
X131208699Y-85018541D02*
X131208508Y-85018541D01*
X131208508Y-85018541D02*
X131208413Y-85018494D01*
X131208413Y-85018494D02*
X131208365Y-85018446D01*
X131208365Y-85018446D02*
X131208318Y-85018351D01*
X131208318Y-85018351D02*
X131208318Y-85018113D01*
X131208318Y-85018113D02*
X131208365Y-85018017D01*
X131208365Y-85018017D02*
X131208413Y-85017970D01*
X131208413Y-85017970D02*
X131208508Y-85017922D01*
X131208508Y-85017922D02*
X131208699Y-85017922D01*
X131208699Y-85017922D02*
X131208794Y-85017970D01*
X131208794Y-85017970D02*
X131208841Y-85018017D01*
X131208841Y-85018017D02*
X131208889Y-85018113D01*
X131207985Y-85017541D02*
X131207318Y-85017541D01*
X131207318Y-85017541D02*
X131207747Y-85018541D01*
X131206366Y-85018446D02*
X131206414Y-85018494D01*
X131206414Y-85018494D02*
X131206556Y-85018541D01*
X131206556Y-85018541D02*
X131206652Y-85018541D01*
X131206652Y-85018541D02*
X131206795Y-85018494D01*
X131206795Y-85018494D02*
X131206890Y-85018398D01*
X131206890Y-85018398D02*
X131206937Y-85018303D01*
X131206937Y-85018303D02*
X131206985Y-85018113D01*
X131206985Y-85018113D02*
X131206985Y-85017970D01*
X131206985Y-85017970D02*
X131206937Y-85017779D01*
X131206937Y-85017779D02*
X131206890Y-85017684D01*
X131206890Y-85017684D02*
X131206795Y-85017589D01*
X131206795Y-85017589D02*
X131206652Y-85017541D01*
X131206652Y-85017541D02*
X131206556Y-85017541D01*
X131206556Y-85017541D02*
X131206414Y-85017589D01*
X131206414Y-85017589D02*
X131206366Y-85017636D01*
X131205795Y-85017970D02*
X131205890Y-85017922D01*
X131205890Y-85017922D02*
X131205937Y-85017874D01*
X131205937Y-85017874D02*
X131205985Y-85017779D01*
X131205985Y-85017779D02*
X131205985Y-85017732D01*
X131205985Y-85017732D02*
X131205937Y-85017636D01*
X131205937Y-85017636D02*
X131205890Y-85017589D01*
X131205890Y-85017589D02*
X131205795Y-85017541D01*
X131205795Y-85017541D02*
X131205604Y-85017541D01*
X131205604Y-85017541D02*
X131205509Y-85017589D01*
X131205509Y-85017589D02*
X131205461Y-85017636D01*
X131205461Y-85017636D02*
X131205414Y-85017732D01*
X131205414Y-85017732D02*
X131205414Y-85017779D01*
X131205414Y-85017779D02*
X131205461Y-85017874D01*
X131205461Y-85017874D02*
X131205509Y-85017922D01*
X131205509Y-85017922D02*
X131205604Y-85017970D01*
X131205604Y-85017970D02*
X131205795Y-85017970D01*
X131205795Y-85017970D02*
X131205890Y-85018017D01*
X131205890Y-85018017D02*
X131205937Y-85018065D01*
X131205937Y-85018065D02*
X131205985Y-85018160D01*
X131205985Y-85018160D02*
X131205985Y-85018351D01*
X131205985Y-85018351D02*
X131205937Y-85018446D01*
X131205937Y-85018446D02*
X131205890Y-85018494D01*
X131205890Y-85018494D02*
X131205795Y-85018541D01*
X131205795Y-85018541D02*
X131205604Y-85018541D01*
X131205604Y-85018541D02*
X131205509Y-85018494D01*
X131205509Y-85018494D02*
X131205461Y-85018446D01*
X131205461Y-85018446D02*
X131205414Y-85018351D01*
X131205414Y-85018351D02*
X131205414Y-85018160D01*
X131205414Y-85018160D02*
X131205461Y-85018065D01*
X131205461Y-85018065D02*
X131205509Y-85018017D01*
X131205509Y-85018017D02*
X131205604Y-85017970D01*
X131204795Y-85017541D02*
X131204700Y-85017541D01*
X131204700Y-85017541D02*
X131204604Y-85017589D01*
X131204604Y-85017589D02*
X131204557Y-85017636D01*
X131204557Y-85017636D02*
X131204509Y-85017732D01*
X131204509Y-85017732D02*
X131204462Y-85017922D01*
X131204462Y-85017922D02*
X131204462Y-85018160D01*
X131204462Y-85018160D02*
X131204509Y-85018351D01*
X131204509Y-85018351D02*
X131204557Y-85018446D01*
X131204557Y-85018446D02*
X131204604Y-85018494D01*
X131204604Y-85018494D02*
X131204700Y-85018541D01*
X131204700Y-85018541D02*
X131204795Y-85018541D01*
X131204795Y-85018541D02*
X131204890Y-85018494D01*
X131204890Y-85018494D02*
X131204938Y-85018446D01*
X131204938Y-85018446D02*
X131204985Y-85018351D01*
X131204985Y-85018351D02*
X131205033Y-85018160D01*
X131205033Y-85018160D02*
X131205033Y-85017922D01*
X131205033Y-85017922D02*
X131204985Y-85017732D01*
X131204985Y-85017732D02*
X131204938Y-85017636D01*
X131204938Y-85017636D02*
X131204890Y-85017589D01*
X131204890Y-85017589D02*
X131204795Y-85017541D01*
X131203986Y-85018541D02*
X131203795Y-85018541D01*
X131203795Y-85018541D02*
X131203700Y-85018494D01*
X131203700Y-85018494D02*
X131203652Y-85018446D01*
X131203652Y-85018446D02*
X131203557Y-85018303D01*
X131203557Y-85018303D02*
X131203510Y-85018113D01*
X131203510Y-85018113D02*
X131203510Y-85017732D01*
X131203510Y-85017732D02*
X131203557Y-85017636D01*
X131203557Y-85017636D02*
X131203605Y-85017589D01*
X131203605Y-85017589D02*
X131203700Y-85017541D01*
X131203700Y-85017541D02*
X131203891Y-85017541D01*
X131203891Y-85017541D02*
X131203986Y-85017589D01*
X131203986Y-85017589D02*
X131204033Y-85017636D01*
X131204033Y-85017636D02*
X131204081Y-85017732D01*
X131204081Y-85017732D02*
X131204081Y-85017970D01*
X131204081Y-85017970D02*
X131204033Y-85018065D01*
X131204033Y-85018065D02*
X131203986Y-85018113D01*
X131203986Y-85018113D02*
X131203891Y-85018160D01*
X131203891Y-85018160D02*
X131203700Y-85018160D01*
X131203700Y-85018160D02*
X131203605Y-85018113D01*
X131203605Y-85018113D02*
X131203557Y-85018065D01*
X131203557Y-85018065D02*
X131203510Y-85017970D01*
X131202558Y-85018541D02*
X131203129Y-85018541D01*
X131202843Y-85018541D02*
X131202843Y-85017541D01*
X131202843Y-85017541D02*
X131202939Y-85017684D01*
X131202939Y-85017684D02*
X131203034Y-85017779D01*
X131203034Y-85017779D02*
X131203129Y-85017827D01*
X131201653Y-85017541D02*
X131202129Y-85017541D01*
X131202129Y-85017541D02*
X131202177Y-85018017D01*
X131202177Y-85018017D02*
X131202129Y-85017970D01*
X131202129Y-85017970D02*
X131202034Y-85017922D01*
X131202034Y-85017922D02*
X131201796Y-85017922D01*
X131201796Y-85017922D02*
X131201701Y-85017970D01*
X131201701Y-85017970D02*
X131201653Y-85018017D01*
X131201653Y-85018017D02*
X131201606Y-85018113D01*
X131201606Y-85018113D02*
X131201606Y-85018351D01*
X131201606Y-85018351D02*
X131201653Y-85018446D01*
X131201653Y-85018446D02*
X131201701Y-85018494D01*
X131201701Y-85018494D02*
X131201796Y-85018541D01*
X131201796Y-85018541D02*
X131202034Y-85018541D01*
X131202034Y-85018541D02*
X131202129Y-85018494D01*
X131202129Y-85018494D02*
X131202177Y-85018446D01*
X131210321Y-77541405D02*
X131210416Y-77541357D01*
X131210416Y-77541357D02*
X131210559Y-77541357D01*
X131210559Y-77541357D02*
X131210702Y-77541405D01*
X131210702Y-77541405D02*
X131210797Y-77541500D01*
X131210797Y-77541500D02*
X131210844Y-77541595D01*
X131210844Y-77541595D02*
X131210892Y-77541786D01*
X131210892Y-77541786D02*
X131210892Y-77541929D01*
X131210892Y-77541929D02*
X131210844Y-77542119D01*
X131210844Y-77542119D02*
X131210797Y-77542214D01*
X131210797Y-77542214D02*
X131210702Y-77542310D01*
X131210702Y-77542310D02*
X131210559Y-77542357D01*
X131210559Y-77542357D02*
X131210463Y-77542357D01*
X131210463Y-77542357D02*
X131210321Y-77542310D01*
X131210321Y-77542310D02*
X131210273Y-77542262D01*
X131210273Y-77542262D02*
X131210273Y-77541929D01*
X131210273Y-77541929D02*
X131210463Y-77541929D01*
X131209702Y-77541357D02*
X131209702Y-77541595D01*
X131209940Y-77541500D02*
X131209702Y-77541595D01*
X131209702Y-77541595D02*
X131209463Y-77541500D01*
X131209844Y-77541786D02*
X131209702Y-77541595D01*
X131209702Y-77541595D02*
X131209559Y-77541786D01*
X131208940Y-77541357D02*
X131208940Y-77541595D01*
X131209178Y-77541500D02*
X131208940Y-77541595D01*
X131208940Y-77541595D02*
X131208701Y-77541500D01*
X131209082Y-77541786D02*
X131208940Y-77541595D01*
X131208940Y-77541595D02*
X131208797Y-77541786D01*
X131208178Y-77541357D02*
X131208178Y-77541595D01*
X131208416Y-77541500D02*
X131208178Y-77541595D01*
X131208178Y-77541595D02*
X131207939Y-77541500D01*
X131208320Y-77541786D02*
X131208178Y-77541595D01*
X131208178Y-77541595D02*
X131208035Y-77541786D01*
D12*
X126063333Y-52564819D02*
X126063333Y-53279104D01*
X126063333Y-53279104D02*
X126110952Y-53421961D01*
X126110952Y-53421961D02*
X126206190Y-53517200D01*
X126206190Y-53517200D02*
X126349047Y-53564819D01*
X126349047Y-53564819D02*
X126444285Y-53564819D01*
X125063333Y-53564819D02*
X125634761Y-53564819D01*
X125349047Y-53564819D02*
X125349047Y-52564819D01*
X125349047Y-52564819D02*
X125444285Y-52707676D01*
X125444285Y-52707676D02*
X125539523Y-52802914D01*
X125539523Y-52802914D02*
X125634761Y-52850533D01*
X65103333Y-52564819D02*
X65103333Y-53279104D01*
X65103333Y-53279104D02*
X65150952Y-53421961D01*
X65150952Y-53421961D02*
X65246190Y-53517200D01*
X65246190Y-53517200D02*
X65389047Y-53564819D01*
X65389047Y-53564819D02*
X65484285Y-53564819D01*
X64198571Y-52898152D02*
X64198571Y-53564819D01*
X64436666Y-52517200D02*
X64674761Y-53231485D01*
X64674761Y-53231485D02*
X64055714Y-53231485D01*
D11*
X131205940Y-77398541D02*
X131205940Y-77397541D01*
X131205845Y-77398160D02*
X131205559Y-77398541D01*
X131205559Y-77397874D02*
X131205940Y-77398255D01*
X131205130Y-77398541D02*
X131205130Y-77397874D01*
X131205130Y-77397541D02*
X131205178Y-77397589D01*
X131205178Y-77397589D02*
X131205130Y-77397636D01*
X131205130Y-77397636D02*
X131205083Y-77397589D01*
X131205083Y-77397589D02*
X131205130Y-77397541D01*
X131205130Y-77397541D02*
X131205130Y-77397636D01*
X131204654Y-77398541D02*
X131204654Y-77397541D01*
X131204654Y-77397922D02*
X131204559Y-77397874D01*
X131204559Y-77397874D02*
X131204369Y-77397874D01*
X131204369Y-77397874D02*
X131204273Y-77397922D01*
X131204273Y-77397922D02*
X131204226Y-77397970D01*
X131204226Y-77397970D02*
X131204178Y-77398065D01*
X131204178Y-77398065D02*
X131204178Y-77398351D01*
X131204178Y-77398351D02*
X131204226Y-77398446D01*
X131204226Y-77398446D02*
X131204273Y-77398494D01*
X131204273Y-77398494D02*
X131204369Y-77398541D01*
X131204369Y-77398541D02*
X131204559Y-77398541D01*
X131204559Y-77398541D02*
X131204654Y-77398494D01*
X131203321Y-77397874D02*
X131203321Y-77398541D01*
X131203749Y-77397874D02*
X131203749Y-77398398D01*
X131203749Y-77398398D02*
X131203702Y-77398494D01*
X131203702Y-77398494D02*
X131203607Y-77398541D01*
X131203607Y-77398541D02*
X131203464Y-77398541D01*
X131203464Y-77398541D02*
X131203368Y-77398494D01*
X131203368Y-77398494D02*
X131203321Y-77398446D01*
X131202940Y-77397874D02*
X131202416Y-77397874D01*
X131202416Y-77397874D02*
X131202940Y-77398541D01*
X131202940Y-77398541D02*
X131202416Y-77398541D01*
X131202130Y-77397874D02*
X131201606Y-77397874D01*
X131201606Y-77397874D02*
X131202130Y-77398541D01*
X131202130Y-77398541D02*
X131201606Y-77398541D01*
X131200796Y-77398541D02*
X131200796Y-77398017D01*
X131200796Y-77398017D02*
X131200843Y-77397922D01*
X131200843Y-77397922D02*
X131200939Y-77397874D01*
X131200939Y-77397874D02*
X131201129Y-77397874D01*
X131201129Y-77397874D02*
X131201224Y-77397922D01*
X131200796Y-77398494D02*
X131200891Y-77398541D01*
X131200891Y-77398541D02*
X131201129Y-77398541D01*
X131201129Y-77398541D02*
X131201224Y-77398494D01*
X131201224Y-77398494D02*
X131201272Y-77398398D01*
X131201272Y-77398398D02*
X131201272Y-77398303D01*
X131201272Y-77398303D02*
X131201224Y-77398208D01*
X131201224Y-77398208D02*
X131201129Y-77398160D01*
X131201129Y-77398160D02*
X131200891Y-77398160D01*
X131200891Y-77398160D02*
X131200796Y-77398113D01*
X131200319Y-77398541D02*
X131200319Y-77397874D01*
X131200319Y-77398065D02*
X131200272Y-77397970D01*
X131200272Y-77397970D02*
X131200224Y-77397922D01*
X131200224Y-77397922D02*
X131200129Y-77397874D01*
X131200129Y-77397874D02*
X131200034Y-77397874D01*
X131199272Y-77398541D02*
X131199272Y-77397541D01*
X131199272Y-77398494D02*
X131199367Y-77398541D01*
X131199367Y-77398541D02*
X131199558Y-77398541D01*
X131199558Y-77398541D02*
X131199653Y-77398494D01*
X131199653Y-77398494D02*
X131199700Y-77398446D01*
X131199700Y-77398446D02*
X131199748Y-77398351D01*
X131199748Y-77398351D02*
X131199748Y-77398065D01*
X131199748Y-77398065D02*
X131199700Y-77397970D01*
X131199700Y-77397970D02*
X131199653Y-77397922D01*
X131199653Y-77397922D02*
X131199558Y-77397874D01*
X131199558Y-77397874D02*
X131199367Y-77397874D01*
X131199367Y-77397874D02*
X131199272Y-77397922D01*
X131198795Y-77398160D02*
X131198034Y-77398160D01*
X131197129Y-77397541D02*
X131197319Y-77397541D01*
X131197319Y-77397541D02*
X131197415Y-77397589D01*
X131197415Y-77397589D02*
X131197462Y-77397636D01*
X131197462Y-77397636D02*
X131197557Y-77397779D01*
X131197557Y-77397779D02*
X131197605Y-77397970D01*
X131197605Y-77397970D02*
X131197605Y-77398351D01*
X131197605Y-77398351D02*
X131197557Y-77398446D01*
X131197557Y-77398446D02*
X131197510Y-77398494D01*
X131197510Y-77398494D02*
X131197415Y-77398541D01*
X131197415Y-77398541D02*
X131197224Y-77398541D01*
X131197224Y-77398541D02*
X131197129Y-77398494D01*
X131197129Y-77398494D02*
X131197081Y-77398446D01*
X131197081Y-77398446D02*
X131197034Y-77398351D01*
X131197034Y-77398351D02*
X131197034Y-77398113D01*
X131197034Y-77398113D02*
X131197081Y-77398017D01*
X131197081Y-77398017D02*
X131197129Y-77397970D01*
X131197129Y-77397970D02*
X131197224Y-77397922D01*
X131197224Y-77397922D02*
X131197415Y-77397922D01*
X131197415Y-77397922D02*
X131197510Y-77397970D01*
X131197510Y-77397970D02*
X131197557Y-77398017D01*
X131197557Y-77398017D02*
X131197605Y-77398113D01*
X131196701Y-77397541D02*
X131196034Y-77397541D01*
X131196034Y-77397541D02*
X131196463Y-77398541D01*
X131195082Y-77398446D02*
X131195130Y-77398494D01*
X131195130Y-77398494D02*
X131195272Y-77398541D01*
X131195272Y-77398541D02*
X131195368Y-77398541D01*
X131195368Y-77398541D02*
X131195511Y-77398494D01*
X131195511Y-77398494D02*
X131195606Y-77398398D01*
X131195606Y-77398398D02*
X131195653Y-77398303D01*
X131195653Y-77398303D02*
X131195701Y-77398113D01*
X131195701Y-77398113D02*
X131195701Y-77397970D01*
X131195701Y-77397970D02*
X131195653Y-77397779D01*
X131195653Y-77397779D02*
X131195606Y-77397684D01*
X131195606Y-77397684D02*
X131195511Y-77397589D01*
X131195511Y-77397589D02*
X131195368Y-77397541D01*
X131195368Y-77397541D02*
X131195272Y-77397541D01*
X131195272Y-77397541D02*
X131195130Y-77397589D01*
X131195130Y-77397589D02*
X131195082Y-77397636D01*
X131194511Y-77397970D02*
X131194606Y-77397922D01*
X131194606Y-77397922D02*
X131194653Y-77397874D01*
X131194653Y-77397874D02*
X131194701Y-77397779D01*
X131194701Y-77397779D02*
X131194701Y-77397732D01*
X131194701Y-77397732D02*
X131194653Y-77397636D01*
X131194653Y-77397636D02*
X131194606Y-77397589D01*
X131194606Y-77397589D02*
X131194511Y-77397541D01*
X131194511Y-77397541D02*
X131194320Y-77397541D01*
X131194320Y-77397541D02*
X131194225Y-77397589D01*
X131194225Y-77397589D02*
X131194177Y-77397636D01*
X131194177Y-77397636D02*
X131194130Y-77397732D01*
X131194130Y-77397732D02*
X131194130Y-77397779D01*
X131194130Y-77397779D02*
X131194177Y-77397874D01*
X131194177Y-77397874D02*
X131194225Y-77397922D01*
X131194225Y-77397922D02*
X131194320Y-77397970D01*
X131194320Y-77397970D02*
X131194511Y-77397970D01*
X131194511Y-77397970D02*
X131194606Y-77398017D01*
X131194606Y-77398017D02*
X131194653Y-77398065D01*
X131194653Y-77398065D02*
X131194701Y-77398160D01*
X131194701Y-77398160D02*
X131194701Y-77398351D01*
X131194701Y-77398351D02*
X131194653Y-77398446D01*
X131194653Y-77398446D02*
X131194606Y-77398494D01*
X131194606Y-77398494D02*
X131194511Y-77398541D01*
X131194511Y-77398541D02*
X131194320Y-77398541D01*
X131194320Y-77398541D02*
X131194225Y-77398494D01*
X131194225Y-77398494D02*
X131194177Y-77398446D01*
X131194177Y-77398446D02*
X131194130Y-77398351D01*
X131194130Y-77398351D02*
X131194130Y-77398160D01*
X131194130Y-77398160D02*
X131194177Y-77398065D01*
X131194177Y-77398065D02*
X131194225Y-77398017D01*
X131194225Y-77398017D02*
X131194320Y-77397970D01*
X131193511Y-77397541D02*
X131193416Y-77397541D01*
X131193416Y-77397541D02*
X131193320Y-77397589D01*
X131193320Y-77397589D02*
X131193273Y-77397636D01*
X131193273Y-77397636D02*
X131193225Y-77397732D01*
X131193225Y-77397732D02*
X131193178Y-77397922D01*
X131193178Y-77397922D02*
X131193178Y-77398160D01*
X131193178Y-77398160D02*
X131193225Y-77398351D01*
X131193225Y-77398351D02*
X131193273Y-77398446D01*
X131193273Y-77398446D02*
X131193320Y-77398494D01*
X131193320Y-77398494D02*
X131193416Y-77398541D01*
X131193416Y-77398541D02*
X131193511Y-77398541D01*
X131193511Y-77398541D02*
X131193606Y-77398494D01*
X131193606Y-77398494D02*
X131193654Y-77398446D01*
X131193654Y-77398446D02*
X131193701Y-77398351D01*
X131193701Y-77398351D02*
X131193749Y-77398160D01*
X131193749Y-77398160D02*
X131193749Y-77397922D01*
X131193749Y-77397922D02*
X131193701Y-77397732D01*
X131193701Y-77397732D02*
X131193654Y-77397636D01*
X131193654Y-77397636D02*
X131193606Y-77397589D01*
X131193606Y-77397589D02*
X131193511Y-77397541D01*
X131192607Y-77397970D02*
X131192702Y-77397922D01*
X131192702Y-77397922D02*
X131192749Y-77397874D01*
X131192749Y-77397874D02*
X131192797Y-77397779D01*
X131192797Y-77397779D02*
X131192797Y-77397732D01*
X131192797Y-77397732D02*
X131192749Y-77397636D01*
X131192749Y-77397636D02*
X131192702Y-77397589D01*
X131192702Y-77397589D02*
X131192607Y-77397541D01*
X131192607Y-77397541D02*
X131192416Y-77397541D01*
X131192416Y-77397541D02*
X131192321Y-77397589D01*
X131192321Y-77397589D02*
X131192273Y-77397636D01*
X131192273Y-77397636D02*
X131192226Y-77397732D01*
X131192226Y-77397732D02*
X131192226Y-77397779D01*
X131192226Y-77397779D02*
X131192273Y-77397874D01*
X131192273Y-77397874D02*
X131192321Y-77397922D01*
X131192321Y-77397922D02*
X131192416Y-77397970D01*
X131192416Y-77397970D02*
X131192607Y-77397970D01*
X131192607Y-77397970D02*
X131192702Y-77398017D01*
X131192702Y-77398017D02*
X131192749Y-77398065D01*
X131192749Y-77398065D02*
X131192797Y-77398160D01*
X131192797Y-77398160D02*
X131192797Y-77398351D01*
X131192797Y-77398351D02*
X131192749Y-77398446D01*
X131192749Y-77398446D02*
X131192702Y-77398494D01*
X131192702Y-77398494D02*
X131192607Y-77398541D01*
X131192607Y-77398541D02*
X131192416Y-77398541D01*
X131192416Y-77398541D02*
X131192321Y-77398494D01*
X131192321Y-77398494D02*
X131192273Y-77398446D01*
X131192273Y-77398446D02*
X131192226Y-77398351D01*
X131192226Y-77398351D02*
X131192226Y-77398160D01*
X131192226Y-77398160D02*
X131192273Y-77398065D01*
X131192273Y-77398065D02*
X131192321Y-77398017D01*
X131192321Y-77398017D02*
X131192416Y-77397970D01*
X131191464Y-77398017D02*
X131191321Y-77398065D01*
X131191321Y-77398065D02*
X131191274Y-77398113D01*
X131191274Y-77398113D02*
X131191226Y-77398208D01*
X131191226Y-77398208D02*
X131191226Y-77398351D01*
X131191226Y-77398351D02*
X131191274Y-77398446D01*
X131191274Y-77398446D02*
X131191321Y-77398494D01*
X131191321Y-77398494D02*
X131191416Y-77398541D01*
X131191416Y-77398541D02*
X131191797Y-77398541D01*
X131191797Y-77398541D02*
X131191797Y-77397541D01*
X131191797Y-77397541D02*
X131191464Y-77397541D01*
X131191464Y-77397541D02*
X131191369Y-77397589D01*
X131191369Y-77397589D02*
X131191321Y-77397636D01*
X131191321Y-77397636D02*
X131191274Y-77397732D01*
X131191274Y-77397732D02*
X131191274Y-77397827D01*
X131191274Y-77397827D02*
X131191321Y-77397922D01*
X131191321Y-77397922D02*
X131191369Y-77397970D01*
X131191369Y-77397970D02*
X131191464Y-77398017D01*
X131191464Y-77398017D02*
X131191797Y-77398017D01*
X131190369Y-77397874D02*
X131190369Y-77398541D01*
X131190607Y-77397494D02*
X131190845Y-77398208D01*
X131190845Y-77398208D02*
X131190226Y-77398208D01*
X131199013Y-69921405D02*
X131199108Y-69921357D01*
X131199108Y-69921357D02*
X131199251Y-69921357D01*
X131199251Y-69921357D02*
X131199394Y-69921405D01*
X131199394Y-69921405D02*
X131199489Y-69921500D01*
X131199489Y-69921500D02*
X131199536Y-69921595D01*
X131199536Y-69921595D02*
X131199584Y-69921786D01*
X131199584Y-69921786D02*
X131199584Y-69921929D01*
X131199584Y-69921929D02*
X131199536Y-69922119D01*
X131199536Y-69922119D02*
X131199489Y-69922214D01*
X131199489Y-69922214D02*
X131199394Y-69922310D01*
X131199394Y-69922310D02*
X131199251Y-69922357D01*
X131199251Y-69922357D02*
X131199155Y-69922357D01*
X131199155Y-69922357D02*
X131199013Y-69922310D01*
X131199013Y-69922310D02*
X131198965Y-69922262D01*
X131198965Y-69922262D02*
X131198965Y-69921929D01*
X131198965Y-69921929D02*
X131199155Y-69921929D01*
X131198394Y-69921357D02*
X131198394Y-69921595D01*
X131198632Y-69921500D02*
X131198394Y-69921595D01*
X131198394Y-69921595D02*
X131198155Y-69921500D01*
X131198536Y-69921786D02*
X131198394Y-69921595D01*
X131198394Y-69921595D02*
X131198251Y-69921786D01*
X131197632Y-69921357D02*
X131197632Y-69921595D01*
X131197870Y-69921500D02*
X131197632Y-69921595D01*
X131197632Y-69921595D02*
X131197393Y-69921500D01*
X131197774Y-69921786D02*
X131197632Y-69921595D01*
X131197632Y-69921595D02*
X131197489Y-69921786D01*
X131196870Y-69921357D02*
X131196870Y-69921595D01*
X131197108Y-69921500D02*
X131196870Y-69921595D01*
X131196870Y-69921595D02*
X131196631Y-69921500D01*
X131197012Y-69921786D02*
X131196870Y-69921595D01*
X131196870Y-69921595D02*
X131196727Y-69921786D01*
X131238987Y-72318541D02*
X131238987Y-72317541D01*
X131238892Y-72318160D02*
X131238606Y-72318541D01*
X131238606Y-72317874D02*
X131238987Y-72318255D01*
X131238177Y-72318541D02*
X131238177Y-72317874D01*
X131238177Y-72317541D02*
X131238225Y-72317589D01*
X131238225Y-72317589D02*
X131238177Y-72317636D01*
X131238177Y-72317636D02*
X131238130Y-72317589D01*
X131238130Y-72317589D02*
X131238177Y-72317541D01*
X131238177Y-72317541D02*
X131238177Y-72317636D01*
X131237701Y-72318541D02*
X131237701Y-72317541D01*
X131237701Y-72317922D02*
X131237606Y-72317874D01*
X131237606Y-72317874D02*
X131237416Y-72317874D01*
X131237416Y-72317874D02*
X131237320Y-72317922D01*
X131237320Y-72317922D02*
X131237273Y-72317970D01*
X131237273Y-72317970D02*
X131237225Y-72318065D01*
X131237225Y-72318065D02*
X131237225Y-72318351D01*
X131237225Y-72318351D02*
X131237273Y-72318446D01*
X131237273Y-72318446D02*
X131237320Y-72318494D01*
X131237320Y-72318494D02*
X131237416Y-72318541D01*
X131237416Y-72318541D02*
X131237606Y-72318541D01*
X131237606Y-72318541D02*
X131237701Y-72318494D01*
X131236368Y-72317874D02*
X131236368Y-72318541D01*
X131236796Y-72317874D02*
X131236796Y-72318398D01*
X131236796Y-72318398D02*
X131236749Y-72318494D01*
X131236749Y-72318494D02*
X131236654Y-72318541D01*
X131236654Y-72318541D02*
X131236511Y-72318541D01*
X131236511Y-72318541D02*
X131236415Y-72318494D01*
X131236415Y-72318494D02*
X131236368Y-72318446D01*
X131235987Y-72317874D02*
X131235463Y-72317874D01*
X131235463Y-72317874D02*
X131235987Y-72318541D01*
X131235987Y-72318541D02*
X131235463Y-72318541D01*
X131235177Y-72317874D02*
X131234653Y-72317874D01*
X131234653Y-72317874D02*
X131235177Y-72318541D01*
X131235177Y-72318541D02*
X131234653Y-72318541D01*
X131233843Y-72318541D02*
X131233843Y-72318017D01*
X131233843Y-72318017D02*
X131233890Y-72317922D01*
X131233890Y-72317922D02*
X131233986Y-72317874D01*
X131233986Y-72317874D02*
X131234176Y-72317874D01*
X131234176Y-72317874D02*
X131234271Y-72317922D01*
X131233843Y-72318494D02*
X131233938Y-72318541D01*
X131233938Y-72318541D02*
X131234176Y-72318541D01*
X131234176Y-72318541D02*
X131234271Y-72318494D01*
X131234271Y-72318494D02*
X131234319Y-72318398D01*
X131234319Y-72318398D02*
X131234319Y-72318303D01*
X131234319Y-72318303D02*
X131234271Y-72318208D01*
X131234271Y-72318208D02*
X131234176Y-72318160D01*
X131234176Y-72318160D02*
X131233938Y-72318160D01*
X131233938Y-72318160D02*
X131233843Y-72318113D01*
X131233366Y-72318541D02*
X131233366Y-72317874D01*
X131233366Y-72318065D02*
X131233319Y-72317970D01*
X131233319Y-72317970D02*
X131233271Y-72317922D01*
X131233271Y-72317922D02*
X131233176Y-72317874D01*
X131233176Y-72317874D02*
X131233081Y-72317874D01*
X131232319Y-72318541D02*
X131232319Y-72317541D01*
X131232319Y-72318494D02*
X131232414Y-72318541D01*
X131232414Y-72318541D02*
X131232605Y-72318541D01*
X131232605Y-72318541D02*
X131232700Y-72318494D01*
X131232700Y-72318494D02*
X131232747Y-72318446D01*
X131232747Y-72318446D02*
X131232795Y-72318351D01*
X131232795Y-72318351D02*
X131232795Y-72318065D01*
X131232795Y-72318065D02*
X131232747Y-72317970D01*
X131232747Y-72317970D02*
X131232700Y-72317922D01*
X131232700Y-72317922D02*
X131232605Y-72317874D01*
X131232605Y-72317874D02*
X131232414Y-72317874D01*
X131232414Y-72317874D02*
X131232319Y-72317922D01*
X131231842Y-72318160D02*
X131231081Y-72318160D01*
X131230176Y-72317541D02*
X131230366Y-72317541D01*
X131230366Y-72317541D02*
X131230462Y-72317589D01*
X131230462Y-72317589D02*
X131230509Y-72317636D01*
X131230509Y-72317636D02*
X131230604Y-72317779D01*
X131230604Y-72317779D02*
X131230652Y-72317970D01*
X131230652Y-72317970D02*
X131230652Y-72318351D01*
X131230652Y-72318351D02*
X131230604Y-72318446D01*
X131230604Y-72318446D02*
X131230557Y-72318494D01*
X131230557Y-72318494D02*
X131230462Y-72318541D01*
X131230462Y-72318541D02*
X131230271Y-72318541D01*
X131230271Y-72318541D02*
X131230176Y-72318494D01*
X131230176Y-72318494D02*
X131230128Y-72318446D01*
X131230128Y-72318446D02*
X131230081Y-72318351D01*
X131230081Y-72318351D02*
X131230081Y-72318113D01*
X131230081Y-72318113D02*
X131230128Y-72318017D01*
X131230128Y-72318017D02*
X131230176Y-72317970D01*
X131230176Y-72317970D02*
X131230271Y-72317922D01*
X131230271Y-72317922D02*
X131230462Y-72317922D01*
X131230462Y-72317922D02*
X131230557Y-72317970D01*
X131230557Y-72317970D02*
X131230604Y-72318017D01*
X131230604Y-72318017D02*
X131230652Y-72318113D01*
X131229748Y-72317541D02*
X131229081Y-72317541D01*
X131229081Y-72317541D02*
X131229510Y-72318541D01*
X131228129Y-72318446D02*
X131228177Y-72318494D01*
X131228177Y-72318494D02*
X131228319Y-72318541D01*
X131228319Y-72318541D02*
X131228415Y-72318541D01*
X131228415Y-72318541D02*
X131228558Y-72318494D01*
X131228558Y-72318494D02*
X131228653Y-72318398D01*
X131228653Y-72318398D02*
X131228700Y-72318303D01*
X131228700Y-72318303D02*
X131228748Y-72318113D01*
X131228748Y-72318113D02*
X131228748Y-72317970D01*
X131228748Y-72317970D02*
X131228700Y-72317779D01*
X131228700Y-72317779D02*
X131228653Y-72317684D01*
X131228653Y-72317684D02*
X131228558Y-72317589D01*
X131228558Y-72317589D02*
X131228415Y-72317541D01*
X131228415Y-72317541D02*
X131228319Y-72317541D01*
X131228319Y-72317541D02*
X131228177Y-72317589D01*
X131228177Y-72317589D02*
X131228129Y-72317636D01*
X131227558Y-72317970D02*
X131227653Y-72317922D01*
X131227653Y-72317922D02*
X131227700Y-72317874D01*
X131227700Y-72317874D02*
X131227748Y-72317779D01*
X131227748Y-72317779D02*
X131227748Y-72317732D01*
X131227748Y-72317732D02*
X131227700Y-72317636D01*
X131227700Y-72317636D02*
X131227653Y-72317589D01*
X131227653Y-72317589D02*
X131227558Y-72317541D01*
X131227558Y-72317541D02*
X131227367Y-72317541D01*
X131227367Y-72317541D02*
X131227272Y-72317589D01*
X131227272Y-72317589D02*
X131227224Y-72317636D01*
X131227224Y-72317636D02*
X131227177Y-72317732D01*
X131227177Y-72317732D02*
X131227177Y-72317779D01*
X131227177Y-72317779D02*
X131227224Y-72317874D01*
X131227224Y-72317874D02*
X131227272Y-72317922D01*
X131227272Y-72317922D02*
X131227367Y-72317970D01*
X131227367Y-72317970D02*
X131227558Y-72317970D01*
X131227558Y-72317970D02*
X131227653Y-72318017D01*
X131227653Y-72318017D02*
X131227700Y-72318065D01*
X131227700Y-72318065D02*
X131227748Y-72318160D01*
X131227748Y-72318160D02*
X131227748Y-72318351D01*
X131227748Y-72318351D02*
X131227700Y-72318446D01*
X131227700Y-72318446D02*
X131227653Y-72318494D01*
X131227653Y-72318494D02*
X131227558Y-72318541D01*
X131227558Y-72318541D02*
X131227367Y-72318541D01*
X131227367Y-72318541D02*
X131227272Y-72318494D01*
X131227272Y-72318494D02*
X131227224Y-72318446D01*
X131227224Y-72318446D02*
X131227177Y-72318351D01*
X131227177Y-72318351D02*
X131227177Y-72318160D01*
X131227177Y-72318160D02*
X131227224Y-72318065D01*
X131227224Y-72318065D02*
X131227272Y-72318017D01*
X131227272Y-72318017D02*
X131227367Y-72317970D01*
X131226558Y-72317541D02*
X131226463Y-72317541D01*
X131226463Y-72317541D02*
X131226367Y-72317589D01*
X131226367Y-72317589D02*
X131226320Y-72317636D01*
X131226320Y-72317636D02*
X131226272Y-72317732D01*
X131226272Y-72317732D02*
X131226225Y-72317922D01*
X131226225Y-72317922D02*
X131226225Y-72318160D01*
X131226225Y-72318160D02*
X131226272Y-72318351D01*
X131226272Y-72318351D02*
X131226320Y-72318446D01*
X131226320Y-72318446D02*
X131226367Y-72318494D01*
X131226367Y-72318494D02*
X131226463Y-72318541D01*
X131226463Y-72318541D02*
X131226558Y-72318541D01*
X131226558Y-72318541D02*
X131226653Y-72318494D01*
X131226653Y-72318494D02*
X131226701Y-72318446D01*
X131226701Y-72318446D02*
X131226748Y-72318351D01*
X131226748Y-72318351D02*
X131226796Y-72318160D01*
X131226796Y-72318160D02*
X131226796Y-72317922D01*
X131226796Y-72317922D02*
X131226748Y-72317732D01*
X131226748Y-72317732D02*
X131226701Y-72317636D01*
X131226701Y-72317636D02*
X131226653Y-72317589D01*
X131226653Y-72317589D02*
X131226558Y-72317541D01*
X131225654Y-72317970D02*
X131225749Y-72317922D01*
X131225749Y-72317922D02*
X131225796Y-72317874D01*
X131225796Y-72317874D02*
X131225844Y-72317779D01*
X131225844Y-72317779D02*
X131225844Y-72317732D01*
X131225844Y-72317732D02*
X131225796Y-72317636D01*
X131225796Y-72317636D02*
X131225749Y-72317589D01*
X131225749Y-72317589D02*
X131225654Y-72317541D01*
X131225654Y-72317541D02*
X131225463Y-72317541D01*
X131225463Y-72317541D02*
X131225368Y-72317589D01*
X131225368Y-72317589D02*
X131225320Y-72317636D01*
X131225320Y-72317636D02*
X131225273Y-72317732D01*
X131225273Y-72317732D02*
X131225273Y-72317779D01*
X131225273Y-72317779D02*
X131225320Y-72317874D01*
X131225320Y-72317874D02*
X131225368Y-72317922D01*
X131225368Y-72317922D02*
X131225463Y-72317970D01*
X131225463Y-72317970D02*
X131225654Y-72317970D01*
X131225654Y-72317970D02*
X131225749Y-72318017D01*
X131225749Y-72318017D02*
X131225796Y-72318065D01*
X131225796Y-72318065D02*
X131225844Y-72318160D01*
X131225844Y-72318160D02*
X131225844Y-72318351D01*
X131225844Y-72318351D02*
X131225796Y-72318446D01*
X131225796Y-72318446D02*
X131225749Y-72318494D01*
X131225749Y-72318494D02*
X131225654Y-72318541D01*
X131225654Y-72318541D02*
X131225463Y-72318541D01*
X131225463Y-72318541D02*
X131225368Y-72318494D01*
X131225368Y-72318494D02*
X131225320Y-72318446D01*
X131225320Y-72318446D02*
X131225273Y-72318351D01*
X131225273Y-72318351D02*
X131225273Y-72318160D01*
X131225273Y-72318160D02*
X131225320Y-72318065D01*
X131225320Y-72318065D02*
X131225368Y-72318017D01*
X131225368Y-72318017D02*
X131225463Y-72317970D01*
X131224511Y-72318017D02*
X131224844Y-72318017D01*
X131224844Y-72318541D02*
X131224844Y-72317541D01*
X131224844Y-72317541D02*
X131224368Y-72317541D01*
X131224035Y-72317636D02*
X131223987Y-72317589D01*
X131223987Y-72317589D02*
X131223892Y-72317541D01*
X131223892Y-72317541D02*
X131223654Y-72317541D01*
X131223654Y-72317541D02*
X131223559Y-72317589D01*
X131223559Y-72317589D02*
X131223511Y-72317636D01*
X131223511Y-72317636D02*
X131223464Y-72317732D01*
X131223464Y-72317732D02*
X131223464Y-72317827D01*
X131223464Y-72317827D02*
X131223511Y-72317970D01*
X131223511Y-72317970D02*
X131224083Y-72318541D01*
X131224083Y-72318541D02*
X131223464Y-72318541D01*
X131232131Y-64841405D02*
X131232226Y-64841357D01*
X131232226Y-64841357D02*
X131232369Y-64841357D01*
X131232369Y-64841357D02*
X131232512Y-64841405D01*
X131232512Y-64841405D02*
X131232607Y-64841500D01*
X131232607Y-64841500D02*
X131232654Y-64841595D01*
X131232654Y-64841595D02*
X131232702Y-64841786D01*
X131232702Y-64841786D02*
X131232702Y-64841929D01*
X131232702Y-64841929D02*
X131232654Y-64842119D01*
X131232654Y-64842119D02*
X131232607Y-64842214D01*
X131232607Y-64842214D02*
X131232512Y-64842310D01*
X131232512Y-64842310D02*
X131232369Y-64842357D01*
X131232369Y-64842357D02*
X131232273Y-64842357D01*
X131232273Y-64842357D02*
X131232131Y-64842310D01*
X131232131Y-64842310D02*
X131232083Y-64842262D01*
X131232083Y-64842262D02*
X131232083Y-64841929D01*
X131232083Y-64841929D02*
X131232273Y-64841929D01*
X131231512Y-64841357D02*
X131231512Y-64841595D01*
X131231750Y-64841500D02*
X131231512Y-64841595D01*
X131231512Y-64841595D02*
X131231273Y-64841500D01*
X131231654Y-64841786D02*
X131231512Y-64841595D01*
X131231512Y-64841595D02*
X131231369Y-64841786D01*
X131230750Y-64841357D02*
X131230750Y-64841595D01*
X131230988Y-64841500D02*
X131230750Y-64841595D01*
X131230750Y-64841595D02*
X131230511Y-64841500D01*
X131230892Y-64841786D02*
X131230750Y-64841595D01*
X131230750Y-64841595D02*
X131230607Y-64841786D01*
X131229988Y-64841357D02*
X131229988Y-64841595D01*
X131230226Y-64841500D02*
X131229988Y-64841595D01*
X131229988Y-64841595D02*
X131229749Y-64841500D01*
X131230130Y-64841786D02*
X131229988Y-64841595D01*
X131229988Y-64841595D02*
X131229845Y-64841786D01*
X131235019Y-64698541D02*
X131235019Y-64697541D01*
X131234924Y-64698160D02*
X131234638Y-64698541D01*
X131234638Y-64697874D02*
X131235019Y-64698255D01*
X131234209Y-64698541D02*
X131234209Y-64697874D01*
X131234209Y-64697541D02*
X131234257Y-64697589D01*
X131234257Y-64697589D02*
X131234209Y-64697636D01*
X131234209Y-64697636D02*
X131234162Y-64697589D01*
X131234162Y-64697589D02*
X131234209Y-64697541D01*
X131234209Y-64697541D02*
X131234209Y-64697636D01*
X131233733Y-64698541D02*
X131233733Y-64697541D01*
X131233733Y-64697922D02*
X131233638Y-64697874D01*
X131233638Y-64697874D02*
X131233448Y-64697874D01*
X131233448Y-64697874D02*
X131233352Y-64697922D01*
X131233352Y-64697922D02*
X131233305Y-64697970D01*
X131233305Y-64697970D02*
X131233257Y-64698065D01*
X131233257Y-64698065D02*
X131233257Y-64698351D01*
X131233257Y-64698351D02*
X131233305Y-64698446D01*
X131233305Y-64698446D02*
X131233352Y-64698494D01*
X131233352Y-64698494D02*
X131233448Y-64698541D01*
X131233448Y-64698541D02*
X131233638Y-64698541D01*
X131233638Y-64698541D02*
X131233733Y-64698494D01*
X131232400Y-64697874D02*
X131232400Y-64698541D01*
X131232828Y-64697874D02*
X131232828Y-64698398D01*
X131232828Y-64698398D02*
X131232781Y-64698494D01*
X131232781Y-64698494D02*
X131232686Y-64698541D01*
X131232686Y-64698541D02*
X131232543Y-64698541D01*
X131232543Y-64698541D02*
X131232447Y-64698494D01*
X131232447Y-64698494D02*
X131232400Y-64698446D01*
X131232019Y-64697874D02*
X131231495Y-64697874D01*
X131231495Y-64697874D02*
X131232019Y-64698541D01*
X131232019Y-64698541D02*
X131231495Y-64698541D01*
X131231209Y-64697874D02*
X131230685Y-64697874D01*
X131230685Y-64697874D02*
X131231209Y-64698541D01*
X131231209Y-64698541D02*
X131230685Y-64698541D01*
X131229875Y-64698541D02*
X131229875Y-64698017D01*
X131229875Y-64698017D02*
X131229922Y-64697922D01*
X131229922Y-64697922D02*
X131230018Y-64697874D01*
X131230018Y-64697874D02*
X131230208Y-64697874D01*
X131230208Y-64697874D02*
X131230303Y-64697922D01*
X131229875Y-64698494D02*
X131229970Y-64698541D01*
X131229970Y-64698541D02*
X131230208Y-64698541D01*
X131230208Y-64698541D02*
X131230303Y-64698494D01*
X131230303Y-64698494D02*
X131230351Y-64698398D01*
X131230351Y-64698398D02*
X131230351Y-64698303D01*
X131230351Y-64698303D02*
X131230303Y-64698208D01*
X131230303Y-64698208D02*
X131230208Y-64698160D01*
X131230208Y-64698160D02*
X131229970Y-64698160D01*
X131229970Y-64698160D02*
X131229875Y-64698113D01*
X131229398Y-64698541D02*
X131229398Y-64697874D01*
X131229398Y-64698065D02*
X131229351Y-64697970D01*
X131229351Y-64697970D02*
X131229303Y-64697922D01*
X131229303Y-64697922D02*
X131229208Y-64697874D01*
X131229208Y-64697874D02*
X131229113Y-64697874D01*
X131228351Y-64698541D02*
X131228351Y-64697541D01*
X131228351Y-64698494D02*
X131228446Y-64698541D01*
X131228446Y-64698541D02*
X131228637Y-64698541D01*
X131228637Y-64698541D02*
X131228732Y-64698494D01*
X131228732Y-64698494D02*
X131228779Y-64698446D01*
X131228779Y-64698446D02*
X131228827Y-64698351D01*
X131228827Y-64698351D02*
X131228827Y-64698065D01*
X131228827Y-64698065D02*
X131228779Y-64697970D01*
X131228779Y-64697970D02*
X131228732Y-64697922D01*
X131228732Y-64697922D02*
X131228637Y-64697874D01*
X131228637Y-64697874D02*
X131228446Y-64697874D01*
X131228446Y-64697874D02*
X131228351Y-64697922D01*
X131227874Y-64698160D02*
X131227113Y-64698160D01*
X131226208Y-64697541D02*
X131226398Y-64697541D01*
X131226398Y-64697541D02*
X131226494Y-64697589D01*
X131226494Y-64697589D02*
X131226541Y-64697636D01*
X131226541Y-64697636D02*
X131226636Y-64697779D01*
X131226636Y-64697779D02*
X131226684Y-64697970D01*
X131226684Y-64697970D02*
X131226684Y-64698351D01*
X131226684Y-64698351D02*
X131226636Y-64698446D01*
X131226636Y-64698446D02*
X131226589Y-64698494D01*
X131226589Y-64698494D02*
X131226494Y-64698541D01*
X131226494Y-64698541D02*
X131226303Y-64698541D01*
X131226303Y-64698541D02*
X131226208Y-64698494D01*
X131226208Y-64698494D02*
X131226160Y-64698446D01*
X131226160Y-64698446D02*
X131226113Y-64698351D01*
X131226113Y-64698351D02*
X131226113Y-64698113D01*
X131226113Y-64698113D02*
X131226160Y-64698017D01*
X131226160Y-64698017D02*
X131226208Y-64697970D01*
X131226208Y-64697970D02*
X131226303Y-64697922D01*
X131226303Y-64697922D02*
X131226494Y-64697922D01*
X131226494Y-64697922D02*
X131226589Y-64697970D01*
X131226589Y-64697970D02*
X131226636Y-64698017D01*
X131226636Y-64698017D02*
X131226684Y-64698113D01*
X131225780Y-64697541D02*
X131225113Y-64697541D01*
X131225113Y-64697541D02*
X131225542Y-64698541D01*
X131224161Y-64698446D02*
X131224209Y-64698494D01*
X131224209Y-64698494D02*
X131224351Y-64698541D01*
X131224351Y-64698541D02*
X131224447Y-64698541D01*
X131224447Y-64698541D02*
X131224590Y-64698494D01*
X131224590Y-64698494D02*
X131224685Y-64698398D01*
X131224685Y-64698398D02*
X131224732Y-64698303D01*
X131224732Y-64698303D02*
X131224780Y-64698113D01*
X131224780Y-64698113D02*
X131224780Y-64697970D01*
X131224780Y-64697970D02*
X131224732Y-64697779D01*
X131224732Y-64697779D02*
X131224685Y-64697684D01*
X131224685Y-64697684D02*
X131224590Y-64697589D01*
X131224590Y-64697589D02*
X131224447Y-64697541D01*
X131224447Y-64697541D02*
X131224351Y-64697541D01*
X131224351Y-64697541D02*
X131224209Y-64697589D01*
X131224209Y-64697589D02*
X131224161Y-64697636D01*
X131223590Y-64697970D02*
X131223685Y-64697922D01*
X131223685Y-64697922D02*
X131223732Y-64697874D01*
X131223732Y-64697874D02*
X131223780Y-64697779D01*
X131223780Y-64697779D02*
X131223780Y-64697732D01*
X131223780Y-64697732D02*
X131223732Y-64697636D01*
X131223732Y-64697636D02*
X131223685Y-64697589D01*
X131223685Y-64697589D02*
X131223590Y-64697541D01*
X131223590Y-64697541D02*
X131223399Y-64697541D01*
X131223399Y-64697541D02*
X131223304Y-64697589D01*
X131223304Y-64697589D02*
X131223256Y-64697636D01*
X131223256Y-64697636D02*
X131223209Y-64697732D01*
X131223209Y-64697732D02*
X131223209Y-64697779D01*
X131223209Y-64697779D02*
X131223256Y-64697874D01*
X131223256Y-64697874D02*
X131223304Y-64697922D01*
X131223304Y-64697922D02*
X131223399Y-64697970D01*
X131223399Y-64697970D02*
X131223590Y-64697970D01*
X131223590Y-64697970D02*
X131223685Y-64698017D01*
X131223685Y-64698017D02*
X131223732Y-64698065D01*
X131223732Y-64698065D02*
X131223780Y-64698160D01*
X131223780Y-64698160D02*
X131223780Y-64698351D01*
X131223780Y-64698351D02*
X131223732Y-64698446D01*
X131223732Y-64698446D02*
X131223685Y-64698494D01*
X131223685Y-64698494D02*
X131223590Y-64698541D01*
X131223590Y-64698541D02*
X131223399Y-64698541D01*
X131223399Y-64698541D02*
X131223304Y-64698494D01*
X131223304Y-64698494D02*
X131223256Y-64698446D01*
X131223256Y-64698446D02*
X131223209Y-64698351D01*
X131223209Y-64698351D02*
X131223209Y-64698160D01*
X131223209Y-64698160D02*
X131223256Y-64698065D01*
X131223256Y-64698065D02*
X131223304Y-64698017D01*
X131223304Y-64698017D02*
X131223399Y-64697970D01*
X131222590Y-64697541D02*
X131222495Y-64697541D01*
X131222495Y-64697541D02*
X131222399Y-64697589D01*
X131222399Y-64697589D02*
X131222352Y-64697636D01*
X131222352Y-64697636D02*
X131222304Y-64697732D01*
X131222304Y-64697732D02*
X131222257Y-64697922D01*
X131222257Y-64697922D02*
X131222257Y-64698160D01*
X131222257Y-64698160D02*
X131222304Y-64698351D01*
X131222304Y-64698351D02*
X131222352Y-64698446D01*
X131222352Y-64698446D02*
X131222399Y-64698494D01*
X131222399Y-64698494D02*
X131222495Y-64698541D01*
X131222495Y-64698541D02*
X131222590Y-64698541D01*
X131222590Y-64698541D02*
X131222685Y-64698494D01*
X131222685Y-64698494D02*
X131222733Y-64698446D01*
X131222733Y-64698446D02*
X131222780Y-64698351D01*
X131222780Y-64698351D02*
X131222828Y-64698160D01*
X131222828Y-64698160D02*
X131222828Y-64697922D01*
X131222828Y-64697922D02*
X131222780Y-64697732D01*
X131222780Y-64697732D02*
X131222733Y-64697636D01*
X131222733Y-64697636D02*
X131222685Y-64697589D01*
X131222685Y-64697589D02*
X131222590Y-64697541D01*
X131221686Y-64697970D02*
X131221781Y-64697922D01*
X131221781Y-64697922D02*
X131221828Y-64697874D01*
X131221828Y-64697874D02*
X131221876Y-64697779D01*
X131221876Y-64697779D02*
X131221876Y-64697732D01*
X131221876Y-64697732D02*
X131221828Y-64697636D01*
X131221828Y-64697636D02*
X131221781Y-64697589D01*
X131221781Y-64697589D02*
X131221686Y-64697541D01*
X131221686Y-64697541D02*
X131221495Y-64697541D01*
X131221495Y-64697541D02*
X131221400Y-64697589D01*
X131221400Y-64697589D02*
X131221352Y-64697636D01*
X131221352Y-64697636D02*
X131221305Y-64697732D01*
X131221305Y-64697732D02*
X131221305Y-64697779D01*
X131221305Y-64697779D02*
X131221352Y-64697874D01*
X131221352Y-64697874D02*
X131221400Y-64697922D01*
X131221400Y-64697922D02*
X131221495Y-64697970D01*
X131221495Y-64697970D02*
X131221686Y-64697970D01*
X131221686Y-64697970D02*
X131221781Y-64698017D01*
X131221781Y-64698017D02*
X131221828Y-64698065D01*
X131221828Y-64698065D02*
X131221876Y-64698160D01*
X131221876Y-64698160D02*
X131221876Y-64698351D01*
X131221876Y-64698351D02*
X131221828Y-64698446D01*
X131221828Y-64698446D02*
X131221781Y-64698494D01*
X131221781Y-64698494D02*
X131221686Y-64698541D01*
X131221686Y-64698541D02*
X131221495Y-64698541D01*
X131221495Y-64698541D02*
X131221400Y-64698494D01*
X131221400Y-64698494D02*
X131221352Y-64698446D01*
X131221352Y-64698446D02*
X131221305Y-64698351D01*
X131221305Y-64698351D02*
X131221305Y-64698160D01*
X131221305Y-64698160D02*
X131221352Y-64698065D01*
X131221352Y-64698065D02*
X131221400Y-64698017D01*
X131221400Y-64698017D02*
X131221495Y-64697970D01*
X131220305Y-64698446D02*
X131220353Y-64698494D01*
X131220353Y-64698494D02*
X131220495Y-64698541D01*
X131220495Y-64698541D02*
X131220591Y-64698541D01*
X131220591Y-64698541D02*
X131220734Y-64698494D01*
X131220734Y-64698494D02*
X131220829Y-64698398D01*
X131220829Y-64698398D02*
X131220876Y-64698303D01*
X131220876Y-64698303D02*
X131220924Y-64698113D01*
X131220924Y-64698113D02*
X131220924Y-64697970D01*
X131220924Y-64697970D02*
X131220876Y-64697779D01*
X131220876Y-64697779D02*
X131220829Y-64697684D01*
X131220829Y-64697684D02*
X131220734Y-64697589D01*
X131220734Y-64697589D02*
X131220591Y-64697541D01*
X131220591Y-64697541D02*
X131220495Y-64697541D01*
X131220495Y-64697541D02*
X131220353Y-64697589D01*
X131220353Y-64697589D02*
X131220305Y-64697636D01*
X131219972Y-64697541D02*
X131219305Y-64697541D01*
X131219305Y-64697541D02*
X131219734Y-64698541D01*
X131228092Y-57221405D02*
X131228187Y-57221357D01*
X131228187Y-57221357D02*
X131228330Y-57221357D01*
X131228330Y-57221357D02*
X131228473Y-57221405D01*
X131228473Y-57221405D02*
X131228568Y-57221500D01*
X131228568Y-57221500D02*
X131228615Y-57221595D01*
X131228615Y-57221595D02*
X131228663Y-57221786D01*
X131228663Y-57221786D02*
X131228663Y-57221929D01*
X131228663Y-57221929D02*
X131228615Y-57222119D01*
X131228615Y-57222119D02*
X131228568Y-57222214D01*
X131228568Y-57222214D02*
X131228473Y-57222310D01*
X131228473Y-57222310D02*
X131228330Y-57222357D01*
X131228330Y-57222357D02*
X131228234Y-57222357D01*
X131228234Y-57222357D02*
X131228092Y-57222310D01*
X131228092Y-57222310D02*
X131228044Y-57222262D01*
X131228044Y-57222262D02*
X131228044Y-57221929D01*
X131228044Y-57221929D02*
X131228234Y-57221929D01*
X131227473Y-57221357D02*
X131227473Y-57221595D01*
X131227711Y-57221500D02*
X131227473Y-57221595D01*
X131227473Y-57221595D02*
X131227234Y-57221500D01*
X131227615Y-57221786D02*
X131227473Y-57221595D01*
X131227473Y-57221595D02*
X131227330Y-57221786D01*
X131226711Y-57221357D02*
X131226711Y-57221595D01*
X131226949Y-57221500D02*
X131226711Y-57221595D01*
X131226711Y-57221595D02*
X131226472Y-57221500D01*
X131226853Y-57221786D02*
X131226711Y-57221595D01*
X131226711Y-57221595D02*
X131226568Y-57221786D01*
X131225949Y-57221357D02*
X131225949Y-57221595D01*
X131226187Y-57221500D02*
X131225949Y-57221595D01*
X131225949Y-57221595D02*
X131225710Y-57221500D01*
X131226091Y-57221786D02*
X131225949Y-57221595D01*
X131225949Y-57221595D02*
X131225806Y-57221786D01*
X131223710Y-87558541D02*
X131223710Y-87557541D01*
X131223615Y-87558160D02*
X131223329Y-87558541D01*
X131223329Y-87557874D02*
X131223710Y-87558255D01*
X131222900Y-87558541D02*
X131222900Y-87557874D01*
X131222900Y-87557541D02*
X131222948Y-87557589D01*
X131222948Y-87557589D02*
X131222900Y-87557636D01*
X131222900Y-87557636D02*
X131222853Y-87557589D01*
X131222853Y-87557589D02*
X131222900Y-87557541D01*
X131222900Y-87557541D02*
X131222900Y-87557636D01*
X131222424Y-87558541D02*
X131222424Y-87557541D01*
X131222424Y-87557922D02*
X131222329Y-87557874D01*
X131222329Y-87557874D02*
X131222139Y-87557874D01*
X131222139Y-87557874D02*
X131222043Y-87557922D01*
X131222043Y-87557922D02*
X131221996Y-87557970D01*
X131221996Y-87557970D02*
X131221948Y-87558065D01*
X131221948Y-87558065D02*
X131221948Y-87558351D01*
X131221948Y-87558351D02*
X131221996Y-87558446D01*
X131221996Y-87558446D02*
X131222043Y-87558494D01*
X131222043Y-87558494D02*
X131222139Y-87558541D01*
X131222139Y-87558541D02*
X131222329Y-87558541D01*
X131222329Y-87558541D02*
X131222424Y-87558494D01*
X131221091Y-87557874D02*
X131221091Y-87558541D01*
X131221519Y-87557874D02*
X131221519Y-87558398D01*
X131221519Y-87558398D02*
X131221472Y-87558494D01*
X131221472Y-87558494D02*
X131221377Y-87558541D01*
X131221377Y-87558541D02*
X131221234Y-87558541D01*
X131221234Y-87558541D02*
X131221138Y-87558494D01*
X131221138Y-87558494D02*
X131221091Y-87558446D01*
X131220710Y-87557874D02*
X131220186Y-87557874D01*
X131220186Y-87557874D02*
X131220710Y-87558541D01*
X131220710Y-87558541D02*
X131220186Y-87558541D01*
X131219900Y-87557874D02*
X131219376Y-87557874D01*
X131219376Y-87557874D02*
X131219900Y-87558541D01*
X131219900Y-87558541D02*
X131219376Y-87558541D01*
X131218566Y-87558541D02*
X131218566Y-87558017D01*
X131218566Y-87558017D02*
X131218613Y-87557922D01*
X131218613Y-87557922D02*
X131218709Y-87557874D01*
X131218709Y-87557874D02*
X131218899Y-87557874D01*
X131218899Y-87557874D02*
X131218994Y-87557922D01*
X131218566Y-87558494D02*
X131218661Y-87558541D01*
X131218661Y-87558541D02*
X131218899Y-87558541D01*
X131218899Y-87558541D02*
X131218994Y-87558494D01*
X131218994Y-87558494D02*
X131219042Y-87558398D01*
X131219042Y-87558398D02*
X131219042Y-87558303D01*
X131219042Y-87558303D02*
X131218994Y-87558208D01*
X131218994Y-87558208D02*
X131218899Y-87558160D01*
X131218899Y-87558160D02*
X131218661Y-87558160D01*
X131218661Y-87558160D02*
X131218566Y-87558113D01*
X131218089Y-87558541D02*
X131218089Y-87557874D01*
X131218089Y-87558065D02*
X131218042Y-87557970D01*
X131218042Y-87557970D02*
X131217994Y-87557922D01*
X131217994Y-87557922D02*
X131217899Y-87557874D01*
X131217899Y-87557874D02*
X131217804Y-87557874D01*
X131217042Y-87558541D02*
X131217042Y-87557541D01*
X131217042Y-87558494D02*
X131217137Y-87558541D01*
X131217137Y-87558541D02*
X131217328Y-87558541D01*
X131217328Y-87558541D02*
X131217423Y-87558494D01*
X131217423Y-87558494D02*
X131217470Y-87558446D01*
X131217470Y-87558446D02*
X131217518Y-87558351D01*
X131217518Y-87558351D02*
X131217518Y-87558065D01*
X131217518Y-87558065D02*
X131217470Y-87557970D01*
X131217470Y-87557970D02*
X131217423Y-87557922D01*
X131217423Y-87557922D02*
X131217328Y-87557874D01*
X131217328Y-87557874D02*
X131217137Y-87557874D01*
X131217137Y-87557874D02*
X131217042Y-87557922D01*
X131216565Y-87558160D02*
X131215804Y-87558160D01*
X131214899Y-87557541D02*
X131215089Y-87557541D01*
X131215089Y-87557541D02*
X131215185Y-87557589D01*
X131215185Y-87557589D02*
X131215232Y-87557636D01*
X131215232Y-87557636D02*
X131215327Y-87557779D01*
X131215327Y-87557779D02*
X131215375Y-87557970D01*
X131215375Y-87557970D02*
X131215375Y-87558351D01*
X131215375Y-87558351D02*
X131215327Y-87558446D01*
X131215327Y-87558446D02*
X131215280Y-87558494D01*
X131215280Y-87558494D02*
X131215185Y-87558541D01*
X131215185Y-87558541D02*
X131214994Y-87558541D01*
X131214994Y-87558541D02*
X131214899Y-87558494D01*
X131214899Y-87558494D02*
X131214851Y-87558446D01*
X131214851Y-87558446D02*
X131214804Y-87558351D01*
X131214804Y-87558351D02*
X131214804Y-87558113D01*
X131214804Y-87558113D02*
X131214851Y-87558017D01*
X131214851Y-87558017D02*
X131214899Y-87557970D01*
X131214899Y-87557970D02*
X131214994Y-87557922D01*
X131214994Y-87557922D02*
X131215185Y-87557922D01*
X131215185Y-87557922D02*
X131215280Y-87557970D01*
X131215280Y-87557970D02*
X131215327Y-87558017D01*
X131215327Y-87558017D02*
X131215375Y-87558113D01*
X131214471Y-87557541D02*
X131213804Y-87557541D01*
X131213804Y-87557541D02*
X131214233Y-87558541D01*
X131212852Y-87558446D02*
X131212900Y-87558494D01*
X131212900Y-87558494D02*
X131213042Y-87558541D01*
X131213042Y-87558541D02*
X131213138Y-87558541D01*
X131213138Y-87558541D02*
X131213281Y-87558494D01*
X131213281Y-87558494D02*
X131213376Y-87558398D01*
X131213376Y-87558398D02*
X131213423Y-87558303D01*
X131213423Y-87558303D02*
X131213471Y-87558113D01*
X131213471Y-87558113D02*
X131213471Y-87557970D01*
X131213471Y-87557970D02*
X131213423Y-87557779D01*
X131213423Y-87557779D02*
X131213376Y-87557684D01*
X131213376Y-87557684D02*
X131213281Y-87557589D01*
X131213281Y-87557589D02*
X131213138Y-87557541D01*
X131213138Y-87557541D02*
X131213042Y-87557541D01*
X131213042Y-87557541D02*
X131212900Y-87557589D01*
X131212900Y-87557589D02*
X131212852Y-87557636D01*
X131212281Y-87557970D02*
X131212376Y-87557922D01*
X131212376Y-87557922D02*
X131212423Y-87557874D01*
X131212423Y-87557874D02*
X131212471Y-87557779D01*
X131212471Y-87557779D02*
X131212471Y-87557732D01*
X131212471Y-87557732D02*
X131212423Y-87557636D01*
X131212423Y-87557636D02*
X131212376Y-87557589D01*
X131212376Y-87557589D02*
X131212281Y-87557541D01*
X131212281Y-87557541D02*
X131212090Y-87557541D01*
X131212090Y-87557541D02*
X131211995Y-87557589D01*
X131211995Y-87557589D02*
X131211947Y-87557636D01*
X131211947Y-87557636D02*
X131211900Y-87557732D01*
X131211900Y-87557732D02*
X131211900Y-87557779D01*
X131211900Y-87557779D02*
X131211947Y-87557874D01*
X131211947Y-87557874D02*
X131211995Y-87557922D01*
X131211995Y-87557922D02*
X131212090Y-87557970D01*
X131212090Y-87557970D02*
X131212281Y-87557970D01*
X131212281Y-87557970D02*
X131212376Y-87558017D01*
X131212376Y-87558017D02*
X131212423Y-87558065D01*
X131212423Y-87558065D02*
X131212471Y-87558160D01*
X131212471Y-87558160D02*
X131212471Y-87558351D01*
X131212471Y-87558351D02*
X131212423Y-87558446D01*
X131212423Y-87558446D02*
X131212376Y-87558494D01*
X131212376Y-87558494D02*
X131212281Y-87558541D01*
X131212281Y-87558541D02*
X131212090Y-87558541D01*
X131212090Y-87558541D02*
X131211995Y-87558494D01*
X131211995Y-87558494D02*
X131211947Y-87558446D01*
X131211947Y-87558446D02*
X131211900Y-87558351D01*
X131211900Y-87558351D02*
X131211900Y-87558160D01*
X131211900Y-87558160D02*
X131211947Y-87558065D01*
X131211947Y-87558065D02*
X131211995Y-87558017D01*
X131211995Y-87558017D02*
X131212090Y-87557970D01*
X131211281Y-87557541D02*
X131211186Y-87557541D01*
X131211186Y-87557541D02*
X131211090Y-87557589D01*
X131211090Y-87557589D02*
X131211043Y-87557636D01*
X131211043Y-87557636D02*
X131210995Y-87557732D01*
X131210995Y-87557732D02*
X131210948Y-87557922D01*
X131210948Y-87557922D02*
X131210948Y-87558160D01*
X131210948Y-87558160D02*
X131210995Y-87558351D01*
X131210995Y-87558351D02*
X131211043Y-87558446D01*
X131211043Y-87558446D02*
X131211090Y-87558494D01*
X131211090Y-87558494D02*
X131211186Y-87558541D01*
X131211186Y-87558541D02*
X131211281Y-87558541D01*
X131211281Y-87558541D02*
X131211376Y-87558494D01*
X131211376Y-87558494D02*
X131211424Y-87558446D01*
X131211424Y-87558446D02*
X131211471Y-87558351D01*
X131211471Y-87558351D02*
X131211519Y-87558160D01*
X131211519Y-87558160D02*
X131211519Y-87557922D01*
X131211519Y-87557922D02*
X131211471Y-87557732D01*
X131211471Y-87557732D02*
X131211424Y-87557636D01*
X131211424Y-87557636D02*
X131211376Y-87557589D01*
X131211376Y-87557589D02*
X131211281Y-87557541D01*
X131210472Y-87558541D02*
X131210281Y-87558541D01*
X131210281Y-87558541D02*
X131210186Y-87558494D01*
X131210186Y-87558494D02*
X131210138Y-87558446D01*
X131210138Y-87558446D02*
X131210043Y-87558303D01*
X131210043Y-87558303D02*
X131209996Y-87558113D01*
X131209996Y-87558113D02*
X131209996Y-87557732D01*
X131209996Y-87557732D02*
X131210043Y-87557636D01*
X131210043Y-87557636D02*
X131210091Y-87557589D01*
X131210091Y-87557589D02*
X131210186Y-87557541D01*
X131210186Y-87557541D02*
X131210377Y-87557541D01*
X131210377Y-87557541D02*
X131210472Y-87557589D01*
X131210472Y-87557589D02*
X131210519Y-87557636D01*
X131210519Y-87557636D02*
X131210567Y-87557732D01*
X131210567Y-87557732D02*
X131210567Y-87557970D01*
X131210567Y-87557970D02*
X131210519Y-87558065D01*
X131210519Y-87558065D02*
X131210472Y-87558113D01*
X131210472Y-87558113D02*
X131210377Y-87558160D01*
X131210377Y-87558160D02*
X131210186Y-87558160D01*
X131210186Y-87558160D02*
X131210091Y-87558113D01*
X131210091Y-87558113D02*
X131210043Y-87558065D01*
X131210043Y-87558065D02*
X131209996Y-87557970D01*
X131209044Y-87558541D02*
X131209615Y-87558541D01*
X131209329Y-87558541D02*
X131209329Y-87557541D01*
X131209329Y-87557541D02*
X131209425Y-87557684D01*
X131209425Y-87557684D02*
X131209520Y-87557779D01*
X131209520Y-87557779D02*
X131209615Y-87557827D01*
X131208282Y-87558017D02*
X131208139Y-87558065D01*
X131208139Y-87558065D02*
X131208092Y-87558113D01*
X131208092Y-87558113D02*
X131208044Y-87558208D01*
X131208044Y-87558208D02*
X131208044Y-87558351D01*
X131208044Y-87558351D02*
X131208092Y-87558446D01*
X131208092Y-87558446D02*
X131208139Y-87558494D01*
X131208139Y-87558494D02*
X131208234Y-87558541D01*
X131208234Y-87558541D02*
X131208615Y-87558541D01*
X131208615Y-87558541D02*
X131208615Y-87557541D01*
X131208615Y-87557541D02*
X131208282Y-87557541D01*
X131208282Y-87557541D02*
X131208187Y-87557589D01*
X131208187Y-87557589D02*
X131208139Y-87557636D01*
X131208139Y-87557636D02*
X131208092Y-87557732D01*
X131208092Y-87557732D02*
X131208092Y-87557827D01*
X131208092Y-87557827D02*
X131208139Y-87557922D01*
X131208139Y-87557922D02*
X131208187Y-87557970D01*
X131208187Y-87557970D02*
X131208282Y-87558017D01*
X131208282Y-87558017D02*
X131208615Y-87558017D01*
X131216783Y-80081405D02*
X131216878Y-80081357D01*
X131216878Y-80081357D02*
X131217021Y-80081357D01*
X131217021Y-80081357D02*
X131217164Y-80081405D01*
X131217164Y-80081405D02*
X131217259Y-80081500D01*
X131217259Y-80081500D02*
X131217306Y-80081595D01*
X131217306Y-80081595D02*
X131217354Y-80081786D01*
X131217354Y-80081786D02*
X131217354Y-80081929D01*
X131217354Y-80081929D02*
X131217306Y-80082119D01*
X131217306Y-80082119D02*
X131217259Y-80082214D01*
X131217259Y-80082214D02*
X131217164Y-80082310D01*
X131217164Y-80082310D02*
X131217021Y-80082357D01*
X131217021Y-80082357D02*
X131216925Y-80082357D01*
X131216925Y-80082357D02*
X131216783Y-80082310D01*
X131216783Y-80082310D02*
X131216735Y-80082262D01*
X131216735Y-80082262D02*
X131216735Y-80081929D01*
X131216735Y-80081929D02*
X131216925Y-80081929D01*
X131216164Y-80081357D02*
X131216164Y-80081595D01*
X131216402Y-80081500D02*
X131216164Y-80081595D01*
X131216164Y-80081595D02*
X131215925Y-80081500D01*
X131216306Y-80081786D02*
X131216164Y-80081595D01*
X131216164Y-80081595D02*
X131216021Y-80081786D01*
X131215402Y-80081357D02*
X131215402Y-80081595D01*
X131215640Y-80081500D02*
X131215402Y-80081595D01*
X131215402Y-80081595D02*
X131215163Y-80081500D01*
X131215544Y-80081786D02*
X131215402Y-80081595D01*
X131215402Y-80081595D02*
X131215259Y-80081786D01*
X131214640Y-80081357D02*
X131214640Y-80081595D01*
X131214878Y-80081500D02*
X131214640Y-80081595D01*
X131214640Y-80081595D02*
X131214401Y-80081500D01*
X131214782Y-80081786D02*
X131214640Y-80081595D01*
X131214640Y-80081595D02*
X131214497Y-80081786D01*
D12*
X105743333Y-52564819D02*
X105743333Y-53279104D01*
X105743333Y-53279104D02*
X105790952Y-53421961D01*
X105790952Y-53421961D02*
X105886190Y-53517200D01*
X105886190Y-53517200D02*
X106029047Y-53564819D01*
X106029047Y-53564819D02*
X106124285Y-53564819D01*
X105362380Y-52564819D02*
X104743333Y-52564819D01*
X104743333Y-52564819D02*
X105076666Y-52945771D01*
X105076666Y-52945771D02*
X104933809Y-52945771D01*
X104933809Y-52945771D02*
X104838571Y-52993390D01*
X104838571Y-52993390D02*
X104790952Y-53041009D01*
X104790952Y-53041009D02*
X104743333Y-53136247D01*
X104743333Y-53136247D02*
X104743333Y-53374342D01*
X104743333Y-53374342D02*
X104790952Y-53469580D01*
X104790952Y-53469580D02*
X104838571Y-53517200D01*
X104838571Y-53517200D02*
X104933809Y-53564819D01*
X104933809Y-53564819D02*
X105219523Y-53564819D01*
X105219523Y-53564819D02*
X105314761Y-53517200D01*
X105314761Y-53517200D02*
X105362380Y-53469580D01*
X85423333Y-52564819D02*
X85423333Y-53279104D01*
X85423333Y-53279104D02*
X85470952Y-53421961D01*
X85470952Y-53421961D02*
X85566190Y-53517200D01*
X85566190Y-53517200D02*
X85709047Y-53564819D01*
X85709047Y-53564819D02*
X85804285Y-53564819D01*
X84994761Y-52660057D02*
X84947142Y-52612438D01*
X84947142Y-52612438D02*
X84851904Y-52564819D01*
X84851904Y-52564819D02*
X84613809Y-52564819D01*
X84613809Y-52564819D02*
X84518571Y-52612438D01*
X84518571Y-52612438D02*
X84470952Y-52660057D01*
X84470952Y-52660057D02*
X84423333Y-52755295D01*
X84423333Y-52755295D02*
X84423333Y-52850533D01*
X84423333Y-52850533D02*
X84470952Y-52993390D01*
X84470952Y-52993390D02*
X85042380Y-53564819D01*
X85042380Y-53564819D02*
X84423333Y-53564819D01*
D13*
G36*
X130662635Y-75844857D02*
G01*
X130711101Y-75919978D01*
X130733718Y-76030641D01*
X130737958Y-76096069D01*
X130739372Y-76166344D01*
X130737958Y-76236820D01*
X130733718Y-76302854D01*
X130711101Y-76413516D01*
X130663443Y-76487830D01*
X130581052Y-76515293D01*
X130498661Y-76487830D01*
X130451004Y-76412709D01*
X130428387Y-76302046D01*
X130424146Y-76236618D01*
X130422732Y-76166344D01*
X130424146Y-76095867D01*
X130428387Y-76029833D01*
X130451004Y-75919171D01*
X130498661Y-75844857D01*
X130581052Y-75817394D01*
X130662635Y-75844857D01*
G37*
G36*
X130140018Y-75509908D02*
G01*
X130582668Y-75509908D01*
X131359727Y-75509908D01*
X131879921Y-75509908D01*
X132514816Y-75509908D01*
X132649442Y-75509908D01*
X133109503Y-76200000D01*
X132649442Y-76890092D01*
X132514816Y-76890092D01*
X129406577Y-76890092D01*
X129204639Y-76890092D01*
X129136998Y-76886769D01*
X129070008Y-76876832D01*
X129004316Y-76860376D01*
X128940552Y-76837561D01*
X128879332Y-76808606D01*
X128821244Y-76773790D01*
X128766849Y-76733448D01*
X128716670Y-76687968D01*
X128671191Y-76637789D01*
X128630848Y-76583394D01*
X128596032Y-76525307D01*
X128567077Y-76464087D01*
X128544262Y-76400323D01*
X128527807Y-76334630D01*
X128517870Y-76267641D01*
X128514547Y-76200000D01*
X128517870Y-76132359D01*
X128527807Y-76065370D01*
X128544262Y-75999677D01*
X128567077Y-75935913D01*
X128596032Y-75874693D01*
X128630848Y-75816606D01*
X128671191Y-75762211D01*
X128716670Y-75712032D01*
X128766849Y-75666552D01*
X128768219Y-75665536D01*
X129406577Y-75665536D01*
X129411626Y-75790738D01*
X129417078Y-75920786D01*
X129422934Y-76052854D01*
X129429194Y-76184114D01*
X129436262Y-76312951D01*
X129444542Y-76437749D01*
X129454033Y-76556085D01*
X129464735Y-76665536D01*
X129629517Y-76665536D01*
X129657789Y-76578298D01*
X129694138Y-76463597D01*
X129732910Y-76339203D01*
X129770067Y-76222886D01*
X129810454Y-76346473D01*
X129850842Y-76469251D01*
X129886383Y-76579914D01*
X129915462Y-76665536D01*
X130080244Y-76665536D01*
X130091351Y-76536295D01*
X130102054Y-76410285D01*
X130111747Y-76286497D01*
X130119664Y-76166344D01*
X130220794Y-76166344D01*
X130226751Y-76287658D01*
X130244622Y-76393121D01*
X130274408Y-76482731D01*
X130316109Y-76556489D01*
X130387909Y-76629636D01*
X130476224Y-76673524D01*
X130581052Y-76688153D01*
X130689112Y-76673524D01*
X130778503Y-76629636D01*
X130849227Y-76556489D01*
X130889513Y-76482731D01*
X130918290Y-76393121D01*
X130935555Y-76287658D01*
X130941311Y-76166344D01*
X130935454Y-76045029D01*
X130917886Y-75939567D01*
X130888605Y-75849956D01*
X130847611Y-75776198D01*
X130793449Y-75720463D01*
X131049550Y-75720463D01*
X131107708Y-75882014D01*
X131211908Y-75833549D01*
X131279154Y-75816586D01*
X131359727Y-75810932D01*
X131442926Y-75821432D01*
X131495430Y-75850512D01*
X131522086Y-75892515D01*
X131529356Y-75940172D01*
X131511585Y-75995100D01*
X131466351Y-76037911D01*
X131404962Y-76071836D01*
X131337110Y-76100108D01*
X131243411Y-76137264D01*
X131155366Y-76190576D01*
X131089937Y-76270544D01*
X131064089Y-76389284D01*
X131086908Y-76514486D01*
X131155366Y-76608993D01*
X131223845Y-76652971D01*
X131307582Y-76679357D01*
X131406577Y-76688153D01*
X131492805Y-76682903D01*
X131567320Y-76667151D01*
X131682829Y-76620302D01*
X131624671Y-76466828D01*
X131535010Y-76505600D01*
X131421117Y-76521756D01*
X131333161Y-76509011D01*
X131280388Y-76470777D01*
X131262797Y-76407054D01*
X131278952Y-76356166D01*
X131320147Y-76317394D01*
X131376690Y-76287507D01*
X131438887Y-76263274D01*
X131536626Y-76223694D01*
X131630325Y-76165536D01*
X131700600Y-76075067D01*
X131721198Y-76013880D01*
X131728063Y-75938557D01*
X131708240Y-75830318D01*
X131879921Y-75830318D01*
X132098015Y-75830318D01*
X132098015Y-76500754D01*
X131879921Y-76500754D01*
X131879921Y-76665536D01*
X132514816Y-76665536D01*
X132514816Y-76500754D01*
X132298338Y-76500754D01*
X132298338Y-75830318D01*
X132514816Y-75830318D01*
X132514816Y-75665536D01*
X131879921Y-75665536D01*
X131879921Y-75830318D01*
X131708240Y-75830318D01*
X131705244Y-75813961D01*
X131636787Y-75721271D01*
X131565436Y-75678639D01*
X131473082Y-75653060D01*
X131359727Y-75644534D01*
X131247853Y-75651198D01*
X131161020Y-75671190D01*
X131049550Y-75720463D01*
X130793449Y-75720463D01*
X130776529Y-75703052D01*
X130688214Y-75659164D01*
X130582668Y-75644534D01*
X130474518Y-75659164D01*
X130384858Y-75703052D01*
X130313685Y-75776198D01*
X130273045Y-75849956D01*
X130244017Y-75939567D01*
X130226599Y-76045029D01*
X130220794Y-76166344D01*
X130119664Y-76166344D01*
X130119824Y-76163920D01*
X130126488Y-76041546D01*
X130131941Y-75918363D01*
X130136383Y-75793363D01*
X130140018Y-75665536D01*
X129957466Y-75665536D01*
X129967159Y-76442596D01*
X129844380Y-76019332D01*
X129698984Y-76019332D01*
X129581052Y-76442596D01*
X129589130Y-75665536D01*
X129406577Y-75665536D01*
X128768219Y-75665536D01*
X128821244Y-75626210D01*
X128879332Y-75591394D01*
X128940552Y-75562439D01*
X129004316Y-75539624D01*
X129070008Y-75523168D01*
X129136998Y-75513231D01*
X129204639Y-75509908D01*
X129406577Y-75509908D01*
X130140018Y-75509908D01*
G37*
G36*
X131463928Y-70764857D02*
G01*
X131512393Y-70839978D01*
X131535011Y-70950641D01*
X131539251Y-71016069D01*
X131540665Y-71086344D01*
X131539251Y-71156820D01*
X131535011Y-71222854D01*
X131512393Y-71333516D01*
X131464736Y-71407830D01*
X131382345Y-71435293D01*
X131299954Y-71407830D01*
X131252296Y-71332709D01*
X131229679Y-71222046D01*
X131225439Y-71156618D01*
X131224025Y-71086344D01*
X131225439Y-71015867D01*
X131229679Y-70949833D01*
X131252296Y-70839171D01*
X131299954Y-70764857D01*
X131382345Y-70737394D01*
X131463928Y-70764857D01*
G37*
G36*
X130257951Y-70429908D02*
G01*
X131383960Y-70429908D01*
X132130326Y-70429908D01*
X132514817Y-70429908D01*
X132649442Y-70429908D01*
X133109503Y-71120000D01*
X132649442Y-71810092D01*
X132514817Y-71810092D01*
X130257951Y-71810092D01*
X130056012Y-71810092D01*
X129988371Y-71806769D01*
X129921382Y-71796832D01*
X129855689Y-71780376D01*
X129791926Y-71757561D01*
X129730705Y-71728606D01*
X129672618Y-71693790D01*
X129618223Y-71653448D01*
X129568044Y-71607968D01*
X129522564Y-71557789D01*
X129482222Y-71503394D01*
X129447406Y-71445307D01*
X129418451Y-71384087D01*
X129395636Y-71320323D01*
X129379180Y-71254630D01*
X129369244Y-71187641D01*
X129365921Y-71120000D01*
X129369244Y-71052359D01*
X129379180Y-70985370D01*
X129395636Y-70919677D01*
X129418451Y-70855913D01*
X129447406Y-70794693D01*
X129474003Y-70750318D01*
X130257951Y-70750318D01*
X130476044Y-70750318D01*
X130476044Y-71420754D01*
X130257951Y-71420754D01*
X130257951Y-71585536D01*
X130892846Y-71585536D01*
X130892846Y-71420754D01*
X130676368Y-71420754D01*
X130676368Y-71086344D01*
X131022086Y-71086344D01*
X131028044Y-71207658D01*
X131045915Y-71313121D01*
X131075701Y-71402731D01*
X131117401Y-71476489D01*
X131189202Y-71549636D01*
X131277516Y-71593524D01*
X131382345Y-71608153D01*
X131490405Y-71593524D01*
X131579796Y-71549636D01*
X131650519Y-71476489D01*
X131690806Y-71402731D01*
X131719582Y-71313121D01*
X131736848Y-71207658D01*
X131742603Y-71086344D01*
X131736747Y-70965029D01*
X131719179Y-70859567D01*
X131689897Y-70769956D01*
X131648904Y-70696198D01*
X131577821Y-70623052D01*
X131570595Y-70619461D01*
X131852458Y-70619461D01*
X131891230Y-70785859D01*
X131987353Y-70751933D01*
X132052175Y-70738605D01*
X132128710Y-70734163D01*
X132215342Y-70745067D01*
X132271683Y-70777781D01*
X132312878Y-70886020D01*
X132297127Y-70953266D01*
X132249873Y-70996683D01*
X132178387Y-71020310D01*
X132089938Y-71028185D01*
X132028548Y-71028185D01*
X132028548Y-71192967D01*
X132102862Y-71192967D01*
X132164251Y-71199429D01*
X132219179Y-71220431D01*
X132258758Y-71259203D01*
X132274106Y-71320592D01*
X132240988Y-71407022D01*
X132149712Y-71438525D01*
X132037434Y-71419946D01*
X131941311Y-71373904D01*
X131870229Y-71519300D01*
X131985737Y-71578266D01*
X132062272Y-71600681D01*
X132148096Y-71608153D01*
X132226650Y-71602903D01*
X132294300Y-71587151D01*
X132396885Y-71528185D01*
X132456658Y-71438525D01*
X132476044Y-71327054D01*
X132442119Y-71212353D01*
X132351650Y-71128347D01*
X132420511Y-71088363D01*
X132472006Y-71033032D01*
X132504114Y-70963969D01*
X132514817Y-70882789D01*
X132492200Y-70755164D01*
X132422733Y-70654195D01*
X132369421Y-70616230D01*
X132303185Y-70587959D01*
X132223621Y-70570390D01*
X132130326Y-70564534D01*
X132051973Y-70570188D01*
X131972813Y-70583920D01*
X131902539Y-70601691D01*
X131852458Y-70619461D01*
X131570595Y-70619461D01*
X131489507Y-70579164D01*
X131383960Y-70564534D01*
X131275811Y-70579164D01*
X131186150Y-70623052D01*
X131114978Y-70696198D01*
X131074338Y-70769956D01*
X131045309Y-70859567D01*
X131027892Y-70965029D01*
X131022086Y-71086344D01*
X130676368Y-71086344D01*
X130676368Y-70750318D01*
X130892846Y-70750318D01*
X130892846Y-70585536D01*
X130257951Y-70585536D01*
X130257951Y-70750318D01*
X129474003Y-70750318D01*
X129482222Y-70736606D01*
X129522564Y-70682211D01*
X129568044Y-70632032D01*
X129618223Y-70586552D01*
X129672618Y-70546210D01*
X129730705Y-70511394D01*
X129791926Y-70482439D01*
X129855689Y-70459624D01*
X129921382Y-70443168D01*
X129988371Y-70433231D01*
X130056012Y-70429908D01*
X130257951Y-70429908D01*
G37*
G36*
X132186061Y-58071319D02*
G01*
X132260374Y-58142402D01*
X132300762Y-58249833D01*
X132309849Y-58315059D01*
X132312878Y-58386344D01*
X132303185Y-58512353D01*
X132269259Y-58620592D01*
X132203023Y-58695714D01*
X132094784Y-58723985D01*
X132065705Y-58723177D01*
X132036626Y-58719138D01*
X132036626Y-58047087D01*
X132054397Y-58045471D01*
X132072167Y-58045471D01*
X132186061Y-58071319D01*
G37*
G36*
X130587515Y-57729908D02*
G01*
X131516432Y-57729908D01*
X132051166Y-57729908D01*
X132514817Y-57729908D01*
X132649442Y-57729908D01*
X133109503Y-58420000D01*
X132649442Y-59110092D01*
X132514817Y-59110092D01*
X130178791Y-59110092D01*
X129976852Y-59110092D01*
X129909211Y-59106769D01*
X129842222Y-59096832D01*
X129776529Y-59080376D01*
X129712766Y-59057561D01*
X129651545Y-59028606D01*
X129593458Y-58993790D01*
X129539063Y-58953448D01*
X129488884Y-58907968D01*
X129443404Y-58857789D01*
X129403062Y-58803394D01*
X129368246Y-58745307D01*
X129339291Y-58684087D01*
X129316476Y-58620323D01*
X129300021Y-58554630D01*
X129290084Y-58487641D01*
X129286761Y-58420000D01*
X129288414Y-58386344D01*
X130178791Y-58386344D01*
X130187272Y-58506497D01*
X130212716Y-58611707D01*
X130252700Y-58701570D01*
X130304800Y-58775681D01*
X130368209Y-58833638D01*
X130442119Y-58875035D01*
X130524106Y-58899873D01*
X130611747Y-58908153D01*
X130715947Y-58899268D01*
X130770326Y-58885536D01*
X131017240Y-58885536D01*
X131177175Y-58885536D01*
X131222410Y-58811424D01*
X131267644Y-58731255D01*
X131312272Y-58648258D01*
X131355689Y-58565665D01*
X131396884Y-58484486D01*
X131434849Y-58405730D01*
X131468573Y-58333032D01*
X131497046Y-58270027D01*
X131497046Y-58885536D01*
X131676368Y-58885536D01*
X131676368Y-57896844D01*
X131837918Y-57896844D01*
X131837918Y-58872612D01*
X131965544Y-58891998D01*
X132077014Y-58896844D01*
X132171319Y-58889575D01*
X132257143Y-58867765D01*
X132332466Y-58830407D01*
X132395269Y-58776489D01*
X132445552Y-58705810D01*
X132483314Y-58618169D01*
X132506941Y-58512151D01*
X132514817Y-58386344D01*
X132506133Y-58257709D01*
X132480083Y-58149672D01*
X132438686Y-58061020D01*
X132383960Y-57990544D01*
X132316715Y-57937434D01*
X132237757Y-57900883D01*
X132148702Y-57879680D01*
X132051166Y-57872612D01*
X131946965Y-57878266D01*
X131837918Y-57896844D01*
X131676368Y-57896844D01*
X131676368Y-57885536D01*
X131516432Y-57885536D01*
X131469852Y-57996378D01*
X131420579Y-58107040D01*
X131368613Y-58217523D01*
X131313955Y-58328006D01*
X131256604Y-58438668D01*
X131196561Y-58549510D01*
X131196561Y-57885536D01*
X131017240Y-57885536D01*
X131017240Y-58885536D01*
X130770326Y-58885536D01*
X130795915Y-58879074D01*
X130851650Y-58854841D01*
X130884768Y-58835455D01*
X130833072Y-58677135D01*
X130745834Y-58717523D01*
X130639211Y-58735293D01*
X130519663Y-58709445D01*
X130439695Y-58637555D01*
X130394461Y-58527701D01*
X130384162Y-58460455D01*
X130380729Y-58386344D01*
X130387012Y-58277297D01*
X130405860Y-58189251D01*
X130437272Y-58122208D01*
X130507143Y-58058597D01*
X130603670Y-58037394D01*
X130642442Y-58039009D01*
X130681214Y-58043856D01*
X130681214Y-58408961D01*
X130879922Y-58408961D01*
X130879922Y-57909768D01*
X130769259Y-57880689D01*
X130686262Y-57868573D01*
X130587515Y-57864534D01*
X130498460Y-57872814D01*
X130418694Y-57897652D01*
X130349025Y-57938848D01*
X130290261Y-57996198D01*
X130243007Y-58069704D01*
X130207870Y-58159365D01*
X130186061Y-58264978D01*
X130178791Y-58386344D01*
X129288414Y-58386344D01*
X129290084Y-58352359D01*
X129300021Y-58285370D01*
X129316476Y-58219677D01*
X129339291Y-58155913D01*
X129368246Y-58094693D01*
X129403062Y-58036606D01*
X129443404Y-57982211D01*
X129488884Y-57932032D01*
X129539063Y-57886552D01*
X129593458Y-57846210D01*
X129651545Y-57811394D01*
X129712766Y-57782439D01*
X129776529Y-57759624D01*
X129842222Y-57743168D01*
X129909211Y-57733231D01*
X129976852Y-57729908D01*
X130178791Y-57729908D01*
X130587515Y-57729908D01*
G37*
G36*
X131435657Y-62831718D02*
G01*
X132314493Y-62831718D01*
X132529356Y-62831718D01*
X132663982Y-62831718D01*
X133109503Y-63500000D01*
X132663982Y-64168282D01*
X132529356Y-64168282D01*
X130972006Y-64168282D01*
X130770067Y-64168282D01*
X130639692Y-64155441D01*
X130514326Y-64117412D01*
X130398789Y-64055656D01*
X130297520Y-63972547D01*
X130214411Y-63871278D01*
X130177147Y-63801562D01*
X130972006Y-63801562D01*
X130972006Y-63966344D01*
X131698985Y-63966344D01*
X131698985Y-63801562D01*
X131435657Y-63801562D01*
X131435657Y-62966344D01*
X131757143Y-62966344D01*
X131804800Y-63071352D01*
X131837918Y-63135164D01*
X131874267Y-63203823D01*
X131913241Y-63275915D01*
X131954235Y-63350027D01*
X131995430Y-63423735D01*
X132035010Y-63494615D01*
X131773298Y-63966344D01*
X131988161Y-63966344D01*
X132146480Y-63646473D01*
X132312878Y-63966344D01*
X132513201Y-63966344D01*
X132257951Y-63499461D01*
X132301165Y-63428379D01*
X132343573Y-63354066D01*
X132384162Y-63279146D01*
X132421925Y-63206247D01*
X132456052Y-63136780D01*
X132485737Y-63072159D01*
X132529356Y-62966344D01*
X132314493Y-62966344D01*
X132280366Y-63053177D01*
X132239372Y-63148896D01*
X132193936Y-63249058D01*
X132146480Y-63349219D01*
X132099631Y-63252087D01*
X132052781Y-63151319D01*
X132009162Y-63053783D01*
X131972006Y-62966344D01*
X131757143Y-62966344D01*
X131435657Y-62966344D01*
X131235333Y-62966344D01*
X131235333Y-63801562D01*
X130972006Y-63801562D01*
X130177147Y-63801562D01*
X130152655Y-63755741D01*
X130114626Y-63630375D01*
X130101785Y-63500000D01*
X130114626Y-63369625D01*
X130152655Y-63244259D01*
X130214411Y-63128722D01*
X130297520Y-63027453D01*
X130398789Y-62944344D01*
X130514326Y-62882588D01*
X130639692Y-62844559D01*
X130770067Y-62831718D01*
X130972006Y-62831718D01*
X131435657Y-62831718D01*
G37*
G36*
X131372651Y-55512741D02*
G01*
X131430002Y-55533743D01*
X131471197Y-55577361D01*
X131487352Y-55649251D01*
X131441310Y-55753452D01*
X131317724Y-55784954D01*
X131211100Y-55784954D01*
X131211100Y-55513549D01*
X131257142Y-55508702D01*
X131306415Y-55507087D01*
X131372651Y-55512741D01*
G37*
G36*
X131403346Y-55982854D02*
G01*
X131442118Y-56074130D01*
X131430809Y-56131481D01*
X131400115Y-56165407D01*
X131354880Y-56181562D01*
X131301569Y-56185600D01*
X131254719Y-56183985D01*
X131211100Y-56179138D01*
X131211100Y-55949736D01*
X131288645Y-55949736D01*
X131403346Y-55982854D01*
G37*
G36*
X131290260Y-55199602D02*
G01*
X132238564Y-55199602D01*
X132521278Y-55199602D01*
X132655904Y-55199602D01*
X133109503Y-55880000D01*
X132655904Y-56560398D01*
X132521278Y-56560398D01*
X131012393Y-56560398D01*
X130810454Y-56560398D01*
X130677715Y-56547325D01*
X130550077Y-56508606D01*
X130432445Y-56445731D01*
X130329340Y-56361114D01*
X130244723Y-56258009D01*
X130181848Y-56140377D01*
X130143129Y-56012739D01*
X130130055Y-55880000D01*
X130143129Y-55747261D01*
X130181848Y-55619623D01*
X130244723Y-55501991D01*
X130329340Y-55398886D01*
X130372694Y-55363306D01*
X131012393Y-55363306D01*
X131012393Y-56334227D01*
X131136787Y-56351190D01*
X131270874Y-56358460D01*
X131373459Y-56352604D01*
X131398780Y-56347151D01*
X131753911Y-56347151D01*
X131967158Y-56347151D01*
X132006334Y-56229825D01*
X132049549Y-56110479D01*
X132095591Y-55995172D01*
X132143249Y-55889962D01*
X132184444Y-55983662D01*
X132231294Y-56103209D01*
X132254315Y-56166618D01*
X132276528Y-56230835D01*
X132316108Y-56347151D01*
X132521278Y-56347151D01*
X132490583Y-56265972D01*
X132459888Y-56187216D01*
X132428386Y-56110075D01*
X132395268Y-56033743D01*
X132360131Y-55958016D01*
X132322570Y-55882693D01*
X132282183Y-55806562D01*
X132238564Y-55728411D01*
X132238564Y-55347151D01*
X132038241Y-55347151D01*
X132038241Y-55726796D01*
X131981429Y-55830458D01*
X131929463Y-55932504D01*
X131882344Y-56032935D01*
X131838277Y-56134263D01*
X131795466Y-56239002D01*
X131753911Y-56347151D01*
X131398780Y-56347151D01*
X131455042Y-56335035D01*
X131566512Y-56273646D01*
X131621439Y-56188831D01*
X131635979Y-56095132D01*
X131627296Y-56028088D01*
X131601246Y-55969122D01*
X131508354Y-55881885D01*
X131593774Y-55838266D01*
X131646480Y-55781723D01*
X131673741Y-55717103D01*
X131682829Y-55649251D01*
X131675155Y-55566255D01*
X131652134Y-55498201D01*
X131568935Y-55401271D01*
X131511585Y-55370172D01*
X131444541Y-55349575D01*
X131370026Y-55338064D01*
X131290260Y-55334227D01*
X131222813Y-55336045D01*
X131152942Y-55341497D01*
X131082263Y-55350584D01*
X131012393Y-55363306D01*
X130372694Y-55363306D01*
X130432445Y-55314269D01*
X130550077Y-55251394D01*
X130677715Y-55212675D01*
X130810454Y-55199602D01*
X131012393Y-55199602D01*
X131290260Y-55199602D01*
G37*
G36*
X131345053Y-66043702D02*
G01*
X131404423Y-66073387D01*
X131449658Y-66185665D01*
X131437541Y-66254324D01*
X131401192Y-66301982D01*
X131345053Y-66329849D01*
X131273567Y-66339138D01*
X131246104Y-66338331D01*
X131213793Y-66334292D01*
X131213793Y-66033807D01*
X131257412Y-66033807D01*
X131345053Y-66043702D01*
G37*
G36*
X131717832Y-65366064D02*
G01*
X132310724Y-65366064D01*
X132525587Y-65366064D01*
X132660212Y-65366064D01*
X133109503Y-66040000D01*
X132660212Y-66713936D01*
X132525587Y-66713936D01*
X131015086Y-66713936D01*
X130813147Y-66713936D01*
X130681669Y-66700987D01*
X130555243Y-66662636D01*
X130438728Y-66600358D01*
X130336602Y-66516545D01*
X130311657Y-66486150D01*
X131015086Y-66486150D01*
X131078898Y-66498266D01*
X131149173Y-66506344D01*
X131217024Y-66510382D01*
X131273567Y-66511998D01*
X131355150Y-66507151D01*
X131428656Y-66492612D01*
X131493276Y-66467975D01*
X131548204Y-66432838D01*
X131624940Y-66330253D01*
X131644932Y-66262604D01*
X131651596Y-66184050D01*
X131642711Y-66100851D01*
X131616055Y-66025730D01*
X131568801Y-65963129D01*
X131498123Y-65917491D01*
X131556281Y-65824599D01*
X131616055Y-65717975D01*
X131671790Y-65606505D01*
X131717832Y-65500689D01*
X131753373Y-65500689D01*
X131801031Y-65605697D01*
X131834149Y-65669510D01*
X131870498Y-65738169D01*
X131909472Y-65810261D01*
X131950465Y-65884373D01*
X131991661Y-65958080D01*
X132031241Y-66028961D01*
X131769528Y-66500689D01*
X131984391Y-66500689D01*
X132142711Y-66180819D01*
X132309108Y-66500689D01*
X132509431Y-66500689D01*
X132254181Y-66033807D01*
X132297396Y-65962725D01*
X132339803Y-65888411D01*
X132380393Y-65813492D01*
X132418155Y-65740592D01*
X132452283Y-65671125D01*
X132481968Y-65606505D01*
X132525587Y-65500689D01*
X132310724Y-65500689D01*
X132276596Y-65587523D01*
X132235603Y-65683242D01*
X132190167Y-65783403D01*
X132142711Y-65883565D01*
X132095861Y-65786432D01*
X132049011Y-65685665D01*
X132005393Y-65588129D01*
X131968236Y-65500689D01*
X131753373Y-65500689D01*
X131717832Y-65500689D01*
X131509431Y-65500689D01*
X131469246Y-65595802D01*
X131423002Y-65687281D01*
X131371911Y-65777547D01*
X131317186Y-65869025D01*
X131213793Y-65869025D01*
X131213793Y-65500689D01*
X131015086Y-65500689D01*
X131015086Y-66486150D01*
X130311657Y-66486150D01*
X130252789Y-66414419D01*
X130190511Y-66297904D01*
X130152160Y-66171478D01*
X130139211Y-66040000D01*
X130152160Y-65908522D01*
X130190511Y-65782096D01*
X130252789Y-65665581D01*
X130336602Y-65563455D01*
X130438728Y-65479642D01*
X130555243Y-65417364D01*
X130681669Y-65379013D01*
X130813147Y-65366064D01*
X131015086Y-65366064D01*
X131717832Y-65366064D01*
G37*
G36*
X132236141Y-78384857D02*
G01*
X132284606Y-78459978D01*
X132307223Y-78570641D01*
X132311464Y-78636069D01*
X132312877Y-78706344D01*
X132311464Y-78776820D01*
X132307223Y-78842854D01*
X132284606Y-78953516D01*
X132236948Y-79027830D01*
X132154557Y-79055293D01*
X132072166Y-79027830D01*
X132024509Y-78952709D01*
X132001892Y-78842046D01*
X131997651Y-78776618D01*
X131996238Y-78706344D01*
X131997651Y-78635867D01*
X132001892Y-78569833D01*
X132024509Y-78459171D01*
X132072166Y-78384857D01*
X132154557Y-78357394D01*
X132236141Y-78384857D01*
G37*
G36*
X130098015Y-78049908D02*
G01*
X130222409Y-78049908D01*
X131317724Y-78049908D01*
X132156173Y-78049908D01*
X132514816Y-78049908D01*
X132649442Y-78049908D01*
X133109503Y-78740000D01*
X132649442Y-79430092D01*
X132514816Y-79430092D01*
X129364574Y-79430092D01*
X129162635Y-79430092D01*
X129094994Y-79426769D01*
X129028005Y-79416832D01*
X128962312Y-79400376D01*
X128898548Y-79377561D01*
X128837328Y-79348606D01*
X128779241Y-79313790D01*
X128724845Y-79273448D01*
X128674667Y-79227968D01*
X128629187Y-79177789D01*
X128588845Y-79123394D01*
X128554029Y-79065307D01*
X128525073Y-79004087D01*
X128502258Y-78940323D01*
X128485803Y-78874630D01*
X128475866Y-78807641D01*
X128472543Y-78740000D01*
X128475866Y-78672359D01*
X128485803Y-78605370D01*
X128502258Y-78539677D01*
X128525073Y-78475913D01*
X128554029Y-78414693D01*
X128588845Y-78356606D01*
X128629187Y-78302211D01*
X128674667Y-78252032D01*
X128724845Y-78206552D01*
X128726215Y-78205536D01*
X129364574Y-78205536D01*
X129369622Y-78330738D01*
X129375074Y-78460786D01*
X129380931Y-78592854D01*
X129387191Y-78724114D01*
X129394259Y-78852951D01*
X129402538Y-78977749D01*
X129412029Y-79096085D01*
X129422732Y-79205536D01*
X129587514Y-79205536D01*
X129615785Y-79118298D01*
X129652134Y-79003597D01*
X129690906Y-78879203D01*
X129728063Y-78762886D01*
X129768451Y-78886473D01*
X129808838Y-79009251D01*
X129844380Y-79119914D01*
X129873459Y-79205536D01*
X130038241Y-79205536D01*
X130049347Y-79076295D01*
X130060050Y-78950285D01*
X130069743Y-78826497D01*
X130077821Y-78703920D01*
X130084485Y-78581546D01*
X130089937Y-78458363D01*
X130093066Y-78370318D01*
X130222409Y-78370318D01*
X130440502Y-78370318D01*
X130440502Y-79040754D01*
X130222409Y-79040754D01*
X130222409Y-79205536D01*
X130857304Y-79205536D01*
X130857304Y-79040754D01*
X130640826Y-79040754D01*
X130640826Y-78370318D01*
X130857304Y-78370318D01*
X130857304Y-78260463D01*
X131007546Y-78260463D01*
X131065704Y-78422014D01*
X131169905Y-78373549D01*
X131237150Y-78356586D01*
X131317724Y-78350932D01*
X131400922Y-78361432D01*
X131453427Y-78390512D01*
X131480082Y-78432515D01*
X131487352Y-78480172D01*
X131469582Y-78535100D01*
X131424347Y-78577911D01*
X131362958Y-78611836D01*
X131295107Y-78640108D01*
X131201407Y-78677264D01*
X131113362Y-78730576D01*
X131047934Y-78810544D01*
X131022086Y-78929284D01*
X131044905Y-79054486D01*
X131113362Y-79148993D01*
X131181842Y-79192971D01*
X131265579Y-79219357D01*
X131364574Y-79228153D01*
X131450801Y-79222903D01*
X131525317Y-79207151D01*
X131640826Y-79160302D01*
X131582667Y-79006828D01*
X131493006Y-79045600D01*
X131379113Y-79061756D01*
X131291158Y-79049011D01*
X131238384Y-79010777D01*
X131220793Y-78947054D01*
X131236948Y-78896166D01*
X131278144Y-78857394D01*
X131334687Y-78827507D01*
X131396884Y-78803274D01*
X131494622Y-78763694D01*
X131587020Y-78706344D01*
X131794299Y-78706344D01*
X131800256Y-78827658D01*
X131818128Y-78933121D01*
X131847914Y-79022731D01*
X131889614Y-79096489D01*
X131961414Y-79169636D01*
X132049729Y-79213524D01*
X132154557Y-79228153D01*
X132262617Y-79213524D01*
X132352008Y-79169636D01*
X132422732Y-79096489D01*
X132463019Y-79022731D01*
X132491795Y-78933121D01*
X132509061Y-78827658D01*
X132514816Y-78706344D01*
X132508960Y-78585029D01*
X132491391Y-78479567D01*
X132462110Y-78389956D01*
X132421116Y-78316198D01*
X132350034Y-78243052D01*
X132261719Y-78199164D01*
X132156173Y-78184534D01*
X132048024Y-78199164D01*
X131958363Y-78243052D01*
X131887191Y-78316198D01*
X131846551Y-78389956D01*
X131817522Y-78479567D01*
X131800105Y-78585029D01*
X131794299Y-78706344D01*
X131587020Y-78706344D01*
X131588322Y-78705536D01*
X131658596Y-78615067D01*
X131679194Y-78553880D01*
X131686060Y-78478557D01*
X131663241Y-78353961D01*
X131594784Y-78261271D01*
X131523432Y-78218639D01*
X131431079Y-78193060D01*
X131317724Y-78184534D01*
X131205850Y-78191198D01*
X131119016Y-78211190D01*
X131007546Y-78260463D01*
X130857304Y-78260463D01*
X130857304Y-78205536D01*
X130222409Y-78205536D01*
X130222409Y-78370318D01*
X130093066Y-78370318D01*
X130094380Y-78333363D01*
X130098015Y-78205536D01*
X129915462Y-78205536D01*
X129925155Y-78982596D01*
X129802376Y-78559332D01*
X129656981Y-78559332D01*
X129539048Y-78982596D01*
X129547126Y-78205536D01*
X129364574Y-78205536D01*
X128726215Y-78205536D01*
X128779241Y-78166210D01*
X128837328Y-78131394D01*
X128898548Y-78102439D01*
X128962312Y-78079624D01*
X129028005Y-78063168D01*
X129094994Y-78053231D01*
X129162635Y-78049908D01*
X129364574Y-78049908D01*
X130098015Y-78049908D01*
G37*
G36*
X130635979Y-80589908D02*
G01*
X131340341Y-80589908D01*
X132514816Y-80589908D01*
X132649442Y-80589908D01*
X133109503Y-81280000D01*
X132649442Y-81970092D01*
X132514816Y-81970092D01*
X130201407Y-81970092D01*
X129999469Y-81970092D01*
X129931828Y-81966769D01*
X129864839Y-81956832D01*
X129799146Y-81940376D01*
X129735382Y-81917561D01*
X129674162Y-81888606D01*
X129616074Y-81853790D01*
X129561679Y-81813448D01*
X129511500Y-81767968D01*
X129466021Y-81717789D01*
X129425679Y-81663394D01*
X129390862Y-81605307D01*
X129361907Y-81544087D01*
X129339092Y-81480323D01*
X129322637Y-81414630D01*
X129312700Y-81347641D01*
X129309377Y-81280000D01*
X129311030Y-81246344D01*
X130201407Y-81246344D01*
X130209889Y-81363872D01*
X130235333Y-81467668D01*
X130275923Y-81557127D01*
X130329840Y-81631642D01*
X130396076Y-81690609D01*
X130473621Y-81733419D01*
X130560656Y-81759470D01*
X130655365Y-81768153D01*
X130751488Y-81759268D01*
X130826609Y-81739074D01*
X130880729Y-81714841D01*
X130913847Y-81695455D01*
X130862150Y-81537135D01*
X130772490Y-81578331D01*
X130652134Y-81595293D01*
X130560858Y-81578331D01*
X130481698Y-81521788D01*
X130425155Y-81415972D01*
X130408798Y-81341659D01*
X130403346Y-81251190D01*
X130409898Y-81145913D01*
X130429553Y-81058406D01*
X130462312Y-80988670D01*
X130540058Y-80920213D01*
X130655365Y-80897394D01*
X130783798Y-80915164D01*
X130865381Y-80950705D01*
X130913397Y-80800463D01*
X131030163Y-80800463D01*
X131088322Y-80962014D01*
X131192522Y-80913549D01*
X131259768Y-80896586D01*
X131340341Y-80890932D01*
X131423540Y-80901432D01*
X131476044Y-80930512D01*
X131502700Y-80972515D01*
X131509970Y-81020172D01*
X131492199Y-81075100D01*
X131446965Y-81117911D01*
X131385575Y-81151836D01*
X131317724Y-81180108D01*
X131224024Y-81217264D01*
X131135979Y-81270576D01*
X131070551Y-81350544D01*
X131044703Y-81469284D01*
X131067522Y-81594486D01*
X131135979Y-81688993D01*
X131204459Y-81732971D01*
X131288196Y-81759357D01*
X131387191Y-81768153D01*
X131473419Y-81762903D01*
X131547934Y-81747151D01*
X131663443Y-81700302D01*
X131605285Y-81546828D01*
X131515624Y-81585600D01*
X131401730Y-81601756D01*
X131313775Y-81589011D01*
X131261002Y-81550777D01*
X131257236Y-81537135D01*
X131850842Y-81537135D01*
X131934848Y-81574292D01*
X132025317Y-81624373D01*
X132110939Y-81682531D01*
X132180406Y-81745536D01*
X132316108Y-81745536D01*
X132316108Y-80910318D01*
X132514816Y-80910318D01*
X132514816Y-80745536D01*
X131907385Y-80745536D01*
X131907385Y-80910318D01*
X132117401Y-80910318D01*
X132117401Y-81469284D01*
X132014008Y-81411933D01*
X131915462Y-81372353D01*
X131850842Y-81537135D01*
X131257236Y-81537135D01*
X131243411Y-81487054D01*
X131259566Y-81436166D01*
X131300761Y-81397394D01*
X131357304Y-81367507D01*
X131419501Y-81343274D01*
X131517239Y-81303694D01*
X131610939Y-81245536D01*
X131681213Y-81155067D01*
X131701811Y-81093880D01*
X131708677Y-81018557D01*
X131685858Y-80893961D01*
X131617401Y-80801271D01*
X131546049Y-80758639D01*
X131453696Y-80733060D01*
X131340341Y-80724534D01*
X131228467Y-80731198D01*
X131141634Y-80751190D01*
X131030163Y-80800463D01*
X130913397Y-80800463D01*
X130915462Y-80794001D01*
X130801569Y-80746344D01*
X130724226Y-80729987D01*
X130635979Y-80724534D01*
X130506021Y-80739612D01*
X130398320Y-80784847D01*
X130312877Y-80860237D01*
X130264109Y-80935257D01*
X130229275Y-81024615D01*
X130208374Y-81128310D01*
X130201407Y-81246344D01*
X129311030Y-81246344D01*
X129312700Y-81212359D01*
X129322637Y-81145370D01*
X129339092Y-81079677D01*
X129361907Y-81015913D01*
X129390862Y-80954693D01*
X129425679Y-80896606D01*
X129466021Y-80842211D01*
X129511500Y-80792032D01*
X129561679Y-80746552D01*
X129616074Y-80706210D01*
X129674162Y-80671394D01*
X129735382Y-80642439D01*
X129799146Y-80619624D01*
X129864839Y-80603168D01*
X129931828Y-80593231D01*
X129999469Y-80589908D01*
X130201407Y-80589908D01*
X130635979Y-80589908D01*
G37*
D14*
X123130000Y-54550000D02*
X123130000Y-55880000D01*
X123130000Y-57150000D02*
X123130000Y-85150000D01*
X124460000Y-54550000D02*
X123130000Y-54550000D01*
X125730000Y-54550000D02*
X125730000Y-57150000D01*
X125730000Y-57150000D02*
X123130000Y-57150000D01*
X128330000Y-54550000D02*
X125730000Y-54550000D01*
X128330000Y-54550000D02*
X128330000Y-85150000D01*
X128330000Y-85150000D02*
X123130000Y-85150000D01*
X62170000Y-54550000D02*
X62170000Y-55880000D01*
X62170000Y-57150000D02*
X62170000Y-85150000D01*
X63500000Y-54550000D02*
X62170000Y-54550000D01*
X64770000Y-54550000D02*
X64770000Y-57150000D01*
X64770000Y-57150000D02*
X62170000Y-57150000D01*
X67370000Y-54550000D02*
X64770000Y-54550000D01*
X67370000Y-54550000D02*
X67370000Y-85150000D01*
X67370000Y-85150000D02*
X62170000Y-85150000D01*
D13*
G36*
X132186061Y-73311319D02*
G01*
X132260374Y-73382402D01*
X132300762Y-73489833D01*
X132309849Y-73555059D01*
X132312878Y-73626344D01*
X132303185Y-73752353D01*
X132269259Y-73860592D01*
X132203023Y-73935714D01*
X132094784Y-73963985D01*
X132065705Y-73963177D01*
X132036626Y-73959138D01*
X132036626Y-73287087D01*
X132054397Y-73285471D01*
X132072167Y-73285471D01*
X132186061Y-73311319D01*
G37*
G36*
X130587515Y-72969908D02*
G01*
X131516432Y-72969908D01*
X132051166Y-72969908D01*
X132514817Y-72969908D01*
X132649442Y-72969908D01*
X133109503Y-73660000D01*
X132649442Y-74350092D01*
X132514817Y-74350092D01*
X130178791Y-74350092D01*
X129976852Y-74350092D01*
X129909211Y-74346769D01*
X129842222Y-74336832D01*
X129776529Y-74320376D01*
X129712766Y-74297561D01*
X129651545Y-74268606D01*
X129593458Y-74233790D01*
X129539063Y-74193448D01*
X129488884Y-74147968D01*
X129443404Y-74097789D01*
X129403062Y-74043394D01*
X129368246Y-73985307D01*
X129339291Y-73924087D01*
X129316476Y-73860323D01*
X129300021Y-73794630D01*
X129290084Y-73727641D01*
X129286761Y-73660000D01*
X129288414Y-73626344D01*
X130178791Y-73626344D01*
X130187272Y-73746497D01*
X130212716Y-73851707D01*
X130252700Y-73941570D01*
X130304800Y-74015681D01*
X130368209Y-74073638D01*
X130442119Y-74115035D01*
X130524106Y-74139873D01*
X130611747Y-74148153D01*
X130715947Y-74139268D01*
X130770326Y-74125536D01*
X131017240Y-74125536D01*
X131177175Y-74125536D01*
X131222410Y-74051424D01*
X131267644Y-73971255D01*
X131312272Y-73888258D01*
X131355689Y-73805665D01*
X131396884Y-73724486D01*
X131434849Y-73645730D01*
X131468573Y-73573032D01*
X131497046Y-73510027D01*
X131497046Y-74125536D01*
X131676368Y-74125536D01*
X131676368Y-73136844D01*
X131837918Y-73136844D01*
X131837918Y-74112612D01*
X131965544Y-74131998D01*
X132077014Y-74136844D01*
X132171319Y-74129575D01*
X132257143Y-74107765D01*
X132332466Y-74070407D01*
X132395269Y-74016489D01*
X132445552Y-73945810D01*
X132483314Y-73858169D01*
X132506941Y-73752151D01*
X132514817Y-73626344D01*
X132506133Y-73497709D01*
X132480083Y-73389672D01*
X132438686Y-73301020D01*
X132383960Y-73230544D01*
X132316715Y-73177434D01*
X132237757Y-73140883D01*
X132148702Y-73119680D01*
X132051166Y-73112612D01*
X131946965Y-73118266D01*
X131837918Y-73136844D01*
X131676368Y-73136844D01*
X131676368Y-73125536D01*
X131516432Y-73125536D01*
X131469852Y-73236378D01*
X131420579Y-73347040D01*
X131368613Y-73457523D01*
X131313955Y-73568006D01*
X131256604Y-73678668D01*
X131196561Y-73789510D01*
X131196561Y-73125536D01*
X131017240Y-73125536D01*
X131017240Y-74125536D01*
X130770326Y-74125536D01*
X130795915Y-74119074D01*
X130851650Y-74094841D01*
X130884768Y-74075455D01*
X130833072Y-73917135D01*
X130745834Y-73957523D01*
X130639211Y-73975293D01*
X130519663Y-73949445D01*
X130439695Y-73877555D01*
X130394461Y-73767701D01*
X130384162Y-73700455D01*
X130380729Y-73626344D01*
X130387012Y-73517297D01*
X130405860Y-73429251D01*
X130437272Y-73362208D01*
X130507143Y-73298597D01*
X130603670Y-73277394D01*
X130642442Y-73279009D01*
X130681214Y-73283856D01*
X130681214Y-73648961D01*
X130879922Y-73648961D01*
X130879922Y-73149768D01*
X130769259Y-73120689D01*
X130686262Y-73108573D01*
X130587515Y-73104534D01*
X130498460Y-73112814D01*
X130418694Y-73137652D01*
X130349025Y-73178848D01*
X130290261Y-73236198D01*
X130243007Y-73309704D01*
X130207870Y-73399365D01*
X130186061Y-73504978D01*
X130178791Y-73626344D01*
X129288414Y-73626344D01*
X129290084Y-73592359D01*
X129300021Y-73525370D01*
X129316476Y-73459677D01*
X129339291Y-73395913D01*
X129368246Y-73334693D01*
X129403062Y-73276606D01*
X129443404Y-73222211D01*
X129488884Y-73172032D01*
X129539063Y-73126552D01*
X129593458Y-73086210D01*
X129651545Y-73051394D01*
X129712766Y-73022439D01*
X129776529Y-72999624D01*
X129842222Y-72983168D01*
X129909211Y-72973231D01*
X129976852Y-72969908D01*
X130178791Y-72969908D01*
X130587515Y-72969908D01*
G37*
G36*
X131451004Y-68224857D02*
G01*
X131499469Y-68299978D01*
X131522086Y-68410641D01*
X131526327Y-68476069D01*
X131527741Y-68546344D01*
X131526327Y-68616820D01*
X131522086Y-68682854D01*
X131499469Y-68793516D01*
X131451812Y-68867830D01*
X131369421Y-68895293D01*
X131287030Y-68867830D01*
X131239372Y-68792709D01*
X131216755Y-68682046D01*
X131212515Y-68616618D01*
X131211101Y-68546344D01*
X131212515Y-68475867D01*
X131216755Y-68409833D01*
X131239372Y-68299171D01*
X131287030Y-68224857D01*
X131369421Y-68197394D01*
X131451004Y-68224857D01*
G37*
G36*
X130245027Y-67889908D02*
G01*
X131371036Y-67889908D01*
X132514817Y-67889908D01*
X132649442Y-67889908D01*
X133109503Y-68580000D01*
X132649442Y-69270092D01*
X132514817Y-69270092D01*
X130245027Y-69270092D01*
X130043088Y-69270092D01*
X129975447Y-69266769D01*
X129908458Y-69256832D01*
X129842765Y-69240376D01*
X129779001Y-69217561D01*
X129717781Y-69188606D01*
X129659694Y-69153790D01*
X129605299Y-69113448D01*
X129555120Y-69067968D01*
X129509640Y-69017789D01*
X129469298Y-68963394D01*
X129434482Y-68905307D01*
X129405527Y-68844087D01*
X129382712Y-68780323D01*
X129366256Y-68714630D01*
X129356320Y-68647641D01*
X129352997Y-68580000D01*
X129356320Y-68512359D01*
X129366256Y-68445370D01*
X129382712Y-68379677D01*
X129405527Y-68315913D01*
X129434482Y-68254693D01*
X129461079Y-68210318D01*
X130245027Y-68210318D01*
X130463120Y-68210318D01*
X130463120Y-68880754D01*
X130245027Y-68880754D01*
X130245027Y-69045536D01*
X130879922Y-69045536D01*
X130879922Y-68880754D01*
X130663444Y-68880754D01*
X130663444Y-68546344D01*
X131009162Y-68546344D01*
X131015120Y-68667658D01*
X131032991Y-68773121D01*
X131062777Y-68862731D01*
X131104477Y-68936489D01*
X131176278Y-69009636D01*
X131264592Y-69053524D01*
X131369421Y-69068153D01*
X131477480Y-69053524D01*
X131566872Y-69009636D01*
X131637595Y-68936489D01*
X131677882Y-68862731D01*
X131686102Y-68837135D01*
X131850843Y-68837135D01*
X131934849Y-68874292D01*
X132025317Y-68924373D01*
X132110939Y-68982531D01*
X132180406Y-69045536D01*
X132316109Y-69045536D01*
X132316109Y-68210318D01*
X132514817Y-68210318D01*
X132514817Y-68045536D01*
X131907385Y-68045536D01*
X131907385Y-68210318D01*
X132117401Y-68210318D01*
X132117401Y-68769284D01*
X132014009Y-68711933D01*
X131915463Y-68672353D01*
X131850843Y-68837135D01*
X131686102Y-68837135D01*
X131706658Y-68773121D01*
X131723924Y-68667658D01*
X131729679Y-68546344D01*
X131723823Y-68425029D01*
X131706254Y-68319567D01*
X131676973Y-68229956D01*
X131635980Y-68156198D01*
X131564897Y-68083052D01*
X131476583Y-68039164D01*
X131371036Y-68024534D01*
X131262887Y-68039164D01*
X131173226Y-68083052D01*
X131102054Y-68156198D01*
X131061414Y-68229956D01*
X131032385Y-68319567D01*
X131014968Y-68425029D01*
X131009162Y-68546344D01*
X130663444Y-68546344D01*
X130663444Y-68210318D01*
X130879922Y-68210318D01*
X130879922Y-68045536D01*
X130245027Y-68045536D01*
X130245027Y-68210318D01*
X129461079Y-68210318D01*
X129469298Y-68196606D01*
X129509640Y-68142211D01*
X129555120Y-68092032D01*
X129605299Y-68046552D01*
X129659694Y-68006210D01*
X129717781Y-67971394D01*
X129779001Y-67942439D01*
X129842765Y-67919624D01*
X129908458Y-67903168D01*
X129975447Y-67893231D01*
X130043088Y-67889908D01*
X130245027Y-67889908D01*
G37*
G36*
X130514816Y-60269908D02*
G01*
X131278952Y-60269908D01*
X132130325Y-60269908D01*
X132514816Y-60269908D01*
X132649442Y-60269908D01*
X133109503Y-60960000D01*
X132649442Y-61650092D01*
X132514816Y-61650092D01*
X130236949Y-61650092D01*
X130035010Y-61650092D01*
X129967370Y-61646769D01*
X129900380Y-61636832D01*
X129834687Y-61620376D01*
X129770924Y-61597561D01*
X129709703Y-61568606D01*
X129651616Y-61533790D01*
X129597221Y-61493448D01*
X129547042Y-61447968D01*
X129501562Y-61397789D01*
X129461220Y-61343394D01*
X129426404Y-61285307D01*
X129397449Y-61224087D01*
X129374634Y-61160323D01*
X129358179Y-61094630D01*
X129348242Y-61027641D01*
X129344919Y-60960000D01*
X129348242Y-60892359D01*
X129358179Y-60825370D01*
X129374634Y-60759677D01*
X129397449Y-60695913D01*
X129426404Y-60634693D01*
X129461220Y-60576606D01*
X129501562Y-60522211D01*
X129547042Y-60472032D01*
X129560912Y-60459461D01*
X130236949Y-60459461D01*
X130275721Y-60625859D01*
X130371844Y-60591933D01*
X130436666Y-60578605D01*
X130513201Y-60574163D01*
X130599833Y-60585067D01*
X130656173Y-60617781D01*
X130697369Y-60726020D01*
X130681618Y-60793266D01*
X130634364Y-60836683D01*
X130562878Y-60860310D01*
X130474429Y-60868185D01*
X130413039Y-60868185D01*
X130413039Y-61032967D01*
X130487353Y-61032967D01*
X130548742Y-61039429D01*
X130603669Y-61060431D01*
X130643249Y-61099203D01*
X130658597Y-61160592D01*
X130625479Y-61247022D01*
X130534203Y-61278525D01*
X130421925Y-61259946D01*
X130325802Y-61213904D01*
X130254720Y-61359300D01*
X130370228Y-61418266D01*
X130446763Y-61440681D01*
X130532587Y-61448153D01*
X130611141Y-61442903D01*
X130678791Y-61427151D01*
X130681601Y-61425536D01*
X130999469Y-61425536D01*
X131209485Y-61425536D01*
X131221602Y-61341731D01*
X131238564Y-61245407D01*
X131258960Y-61141206D01*
X131281375Y-61033775D01*
X131305608Y-60925536D01*
X131331456Y-60818912D01*
X131357910Y-60718549D01*
X131383960Y-60629090D01*
X131409808Y-60717337D01*
X131435657Y-60817297D01*
X131460697Y-60923920D01*
X131484122Y-61032159D01*
X131505931Y-61139793D01*
X131526125Y-61244599D01*
X131543896Y-61341529D01*
X131558435Y-61425536D01*
X131766836Y-61425536D01*
X131745228Y-61322951D01*
X131719178Y-61209058D01*
X131688888Y-61086481D01*
X131654558Y-60957846D01*
X131629518Y-60869532D01*
X131602862Y-60780140D01*
X131574590Y-60689672D01*
X131545152Y-60599652D01*
X131514996Y-60511607D01*
X131496291Y-60459461D01*
X131852458Y-60459461D01*
X131891230Y-60625859D01*
X131987353Y-60591933D01*
X132052175Y-60578605D01*
X132128710Y-60574163D01*
X132215341Y-60585067D01*
X132271682Y-60617781D01*
X132312878Y-60726020D01*
X132297127Y-60793266D01*
X132249873Y-60836683D01*
X132178387Y-60860310D01*
X132089938Y-60868185D01*
X132028548Y-60868185D01*
X132028548Y-61032967D01*
X132102862Y-61032967D01*
X132164251Y-61039429D01*
X132219178Y-61060431D01*
X132258758Y-61099203D01*
X132274106Y-61160592D01*
X132240988Y-61247022D01*
X132149711Y-61278525D01*
X132037434Y-61259946D01*
X131941311Y-61213904D01*
X131870228Y-61359300D01*
X131985737Y-61418266D01*
X132062272Y-61440681D01*
X132148096Y-61448153D01*
X132226650Y-61442903D01*
X132294299Y-61427151D01*
X132396884Y-61368185D01*
X132456658Y-61278525D01*
X132476044Y-61167054D01*
X132442119Y-61052353D01*
X132351650Y-60968347D01*
X132420511Y-60928363D01*
X132472005Y-60873032D01*
X132504114Y-60803969D01*
X132514816Y-60722789D01*
X132492199Y-60595164D01*
X132422732Y-60494195D01*
X132369421Y-60456230D01*
X132303185Y-60427959D01*
X132223621Y-60410390D01*
X132130325Y-60404534D01*
X132051973Y-60410188D01*
X131972813Y-60423920D01*
X131902539Y-60441691D01*
X131852458Y-60459461D01*
X131496291Y-60459461D01*
X131484122Y-60425536D01*
X131278952Y-60425536D01*
X131238968Y-60544276D01*
X131196561Y-60677555D01*
X131168021Y-60771165D01*
X131140557Y-60864595D01*
X131114170Y-60957846D01*
X131089220Y-61049302D01*
X131066064Y-61137347D01*
X131044703Y-61221982D01*
X131018047Y-61335067D01*
X130999469Y-61425536D01*
X130681601Y-61425536D01*
X130781375Y-61368185D01*
X130841149Y-61278525D01*
X130860535Y-61167054D01*
X130826610Y-61052353D01*
X130736141Y-60968347D01*
X130805002Y-60928363D01*
X130856497Y-60873032D01*
X130888605Y-60803969D01*
X130899308Y-60722789D01*
X130876690Y-60595164D01*
X130807224Y-60494195D01*
X130753912Y-60456230D01*
X130687676Y-60427959D01*
X130608112Y-60410390D01*
X130514816Y-60404534D01*
X130436464Y-60410188D01*
X130357304Y-60423920D01*
X130287030Y-60441691D01*
X130236949Y-60459461D01*
X129560912Y-60459461D01*
X129597221Y-60426552D01*
X129651616Y-60386210D01*
X129709703Y-60351394D01*
X129770924Y-60322439D01*
X129834687Y-60299624D01*
X129900380Y-60283168D01*
X129967370Y-60273231D01*
X130035010Y-60269908D01*
X130236949Y-60269908D01*
X130514816Y-60269908D01*
G37*
G36*
X130648903Y-83129908D02*
G01*
X131353265Y-83129908D01*
X132130325Y-83129908D01*
X132514816Y-83129908D01*
X132649442Y-83129908D01*
X133109503Y-83820000D01*
X132649442Y-84510092D01*
X132514816Y-84510092D01*
X130214331Y-84510092D01*
X130012393Y-84510092D01*
X129944752Y-84506769D01*
X129877763Y-84496832D01*
X129812070Y-84480376D01*
X129748306Y-84457561D01*
X129687086Y-84428606D01*
X129628998Y-84393790D01*
X129574603Y-84353448D01*
X129524424Y-84307968D01*
X129478945Y-84257789D01*
X129438603Y-84203394D01*
X129403786Y-84145307D01*
X129374831Y-84084087D01*
X129352016Y-84020323D01*
X129335561Y-83954630D01*
X129325624Y-83887641D01*
X129322301Y-83820000D01*
X129323954Y-83786344D01*
X130214331Y-83786344D01*
X130222813Y-83903872D01*
X130248257Y-84007668D01*
X130288847Y-84097127D01*
X130342764Y-84171642D01*
X130409000Y-84230609D01*
X130486545Y-84273419D01*
X130573580Y-84299470D01*
X130668289Y-84308153D01*
X130764412Y-84299268D01*
X130839533Y-84279074D01*
X130893653Y-84254841D01*
X130926771Y-84235455D01*
X130875075Y-84077135D01*
X130785414Y-84118331D01*
X130665058Y-84135293D01*
X130573782Y-84118331D01*
X130494622Y-84061788D01*
X130438079Y-83955972D01*
X130421722Y-83881659D01*
X130416270Y-83791190D01*
X130422822Y-83685913D01*
X130442477Y-83598406D01*
X130475236Y-83528670D01*
X130552982Y-83460213D01*
X130668289Y-83437394D01*
X130796722Y-83455164D01*
X130878306Y-83490705D01*
X130926321Y-83340463D01*
X131043087Y-83340463D01*
X131101246Y-83502014D01*
X131205446Y-83453549D01*
X131272692Y-83436586D01*
X131353265Y-83430932D01*
X131436464Y-83441432D01*
X131488968Y-83470512D01*
X131515624Y-83512515D01*
X131522894Y-83560172D01*
X131505123Y-83615100D01*
X131459889Y-83657911D01*
X131398499Y-83691836D01*
X131330648Y-83720108D01*
X131236948Y-83757264D01*
X131148903Y-83810576D01*
X131083475Y-83890544D01*
X131057627Y-84009284D01*
X131080446Y-84134486D01*
X131148903Y-84228993D01*
X131217383Y-84272971D01*
X131301120Y-84299357D01*
X131400115Y-84308153D01*
X131486343Y-84302903D01*
X131560858Y-84287151D01*
X131676367Y-84240302D01*
X131618209Y-84086828D01*
X131528548Y-84125600D01*
X131414654Y-84141756D01*
X131326699Y-84129011D01*
X131273926Y-84090777D01*
X131256335Y-84027054D01*
X131272490Y-83976166D01*
X131313685Y-83937394D01*
X131370228Y-83907507D01*
X131432425Y-83883274D01*
X131530163Y-83843694D01*
X131623863Y-83785536D01*
X131694138Y-83695067D01*
X131714735Y-83633880D01*
X131721601Y-83558557D01*
X131698782Y-83433961D01*
X131630325Y-83341271D01*
X131593822Y-83319461D01*
X131852457Y-83319461D01*
X131891230Y-83485859D01*
X131987352Y-83451933D01*
X132052175Y-83438605D01*
X132128709Y-83434163D01*
X132215341Y-83445067D01*
X132271682Y-83477781D01*
X132312877Y-83586020D01*
X132297126Y-83653266D01*
X132249873Y-83696683D01*
X132178386Y-83720310D01*
X132089937Y-83728185D01*
X132028548Y-83728185D01*
X132028548Y-83892967D01*
X132102861Y-83892967D01*
X132164251Y-83899429D01*
X132219178Y-83920431D01*
X132258758Y-83959203D01*
X132274105Y-84020592D01*
X132240987Y-84107022D01*
X132149711Y-84138525D01*
X132037433Y-84119946D01*
X131941310Y-84073904D01*
X131870228Y-84219300D01*
X131985737Y-84278266D01*
X132062272Y-84300681D01*
X132148096Y-84308153D01*
X132226650Y-84302903D01*
X132294299Y-84287151D01*
X132396884Y-84228185D01*
X132456658Y-84138525D01*
X132476044Y-84027054D01*
X132442118Y-83912353D01*
X132351650Y-83828347D01*
X132420511Y-83788363D01*
X132472005Y-83733032D01*
X132504113Y-83663969D01*
X132514816Y-83582789D01*
X132492199Y-83455164D01*
X132422732Y-83354195D01*
X132369420Y-83316230D01*
X132303184Y-83287959D01*
X132223621Y-83270390D01*
X132130325Y-83264534D01*
X132051973Y-83270188D01*
X131972813Y-83283920D01*
X131902538Y-83301691D01*
X131852457Y-83319461D01*
X131593822Y-83319461D01*
X131558973Y-83298639D01*
X131466620Y-83273060D01*
X131353265Y-83264534D01*
X131241391Y-83271198D01*
X131154558Y-83291190D01*
X131043087Y-83340463D01*
X130926321Y-83340463D01*
X130928386Y-83334001D01*
X130814493Y-83286344D01*
X130737150Y-83269987D01*
X130648903Y-83264534D01*
X130518945Y-83279612D01*
X130411244Y-83324847D01*
X130325801Y-83400237D01*
X130277033Y-83475257D01*
X130242199Y-83564615D01*
X130221298Y-83668310D01*
X130214331Y-83786344D01*
X129323954Y-83786344D01*
X129325624Y-83752359D01*
X129335561Y-83685370D01*
X129352016Y-83619677D01*
X129374831Y-83555913D01*
X129403786Y-83494693D01*
X129438603Y-83436606D01*
X129478945Y-83382211D01*
X129524424Y-83332032D01*
X129574603Y-83286552D01*
X129628998Y-83246210D01*
X129687086Y-83211394D01*
X129748306Y-83182439D01*
X129812070Y-83159624D01*
X129877763Y-83143168D01*
X129944752Y-83133231D01*
X130012393Y-83129908D01*
X130214331Y-83129908D01*
X130648903Y-83129908D01*
G37*
D14*
X102810000Y-54550000D02*
X102810000Y-55880000D01*
X102810000Y-57150000D02*
X102810000Y-85150000D01*
X104140000Y-54550000D02*
X102810000Y-54550000D01*
X105410000Y-54550000D02*
X105410000Y-57150000D01*
X105410000Y-57150000D02*
X102810000Y-57150000D01*
X108010000Y-54550000D02*
X105410000Y-54550000D01*
X108010000Y-54550000D02*
X108010000Y-85150000D01*
X108010000Y-85150000D02*
X102810000Y-85150000D01*
X82490000Y-54550000D02*
X82490000Y-55880000D01*
X82490000Y-57150000D02*
X82490000Y-85150000D01*
X83820000Y-54550000D02*
X82490000Y-54550000D01*
X85090000Y-54550000D02*
X85090000Y-57150000D01*
X85090000Y-57150000D02*
X82490000Y-57150000D01*
X87690000Y-54550000D02*
X85090000Y-54550000D01*
X87690000Y-54550000D02*
X87690000Y-85150000D01*
X87690000Y-85150000D02*
X82490000Y-85150000D01*
%LPC*%
D15*
X136390000Y-55880000D03*
X136390000Y-58420000D03*
X136390000Y-60960000D03*
X136390000Y-63500000D03*
X136390000Y-66040000D03*
X136390000Y-68580000D03*
X136390000Y-71120000D03*
X136390000Y-73660000D03*
X136390000Y-76200000D03*
X136390000Y-78740000D03*
X136390000Y-81280000D03*
X136390000Y-83820000D03*
D16*
X124460000Y-55880000D03*
D17*
X127000000Y-55880000D03*
X124460000Y-58420000D03*
X127000000Y-58420000D03*
X124460000Y-60960000D03*
X127000000Y-60960000D03*
X124460000Y-63500000D03*
X127000000Y-63500000D03*
X124460000Y-66040000D03*
X127000000Y-66040000D03*
X124460000Y-68580000D03*
X127000000Y-68580000D03*
X124460000Y-71120000D03*
X127000000Y-71120000D03*
X124460000Y-73660000D03*
X127000000Y-73660000D03*
X124460000Y-76200000D03*
X127000000Y-76200000D03*
X124460000Y-78740000D03*
X127000000Y-78740000D03*
X124460000Y-81280000D03*
X127000000Y-81280000D03*
X124460000Y-83820000D03*
X127000000Y-83820000D03*
D16*
X63500000Y-55880000D03*
D17*
X66040000Y-55880000D03*
X63500000Y-58420000D03*
X66040000Y-58420000D03*
X63500000Y-60960000D03*
X66040000Y-60960000D03*
X63500000Y-63500000D03*
X66040000Y-63500000D03*
X63500000Y-66040000D03*
X66040000Y-66040000D03*
X63500000Y-68580000D03*
X66040000Y-68580000D03*
X63500000Y-71120000D03*
X66040000Y-71120000D03*
X63500000Y-73660000D03*
X66040000Y-73660000D03*
X63500000Y-76200000D03*
X66040000Y-76200000D03*
X63500000Y-78740000D03*
X66040000Y-78740000D03*
X63500000Y-81280000D03*
X66040000Y-81280000D03*
X63500000Y-83820000D03*
X66040000Y-83820000D03*
D16*
X104140000Y-55880000D03*
D17*
X106680000Y-55880000D03*
X104140000Y-58420000D03*
X106680000Y-58420000D03*
X104140000Y-60960000D03*
X106680000Y-60960000D03*
X104140000Y-63500000D03*
X106680000Y-63500000D03*
X104140000Y-66040000D03*
X106680000Y-66040000D03*
X104140000Y-68580000D03*
X106680000Y-68580000D03*
X104140000Y-71120000D03*
X106680000Y-71120000D03*
X104140000Y-73660000D03*
X106680000Y-73660000D03*
X104140000Y-76200000D03*
X106680000Y-76200000D03*
X104140000Y-78740000D03*
X106680000Y-78740000D03*
X104140000Y-81280000D03*
X106680000Y-81280000D03*
X104140000Y-83820000D03*
X106680000Y-83820000D03*
D16*
X83820000Y-55880000D03*
D17*
X86360000Y-55880000D03*
X83820000Y-58420000D03*
X86360000Y-58420000D03*
X83820000Y-60960000D03*
X86360000Y-60960000D03*
X83820000Y-63500000D03*
X86360000Y-63500000D03*
X83820000Y-66040000D03*
X86360000Y-66040000D03*
X83820000Y-68580000D03*
X86360000Y-68580000D03*
X83820000Y-71120000D03*
X86360000Y-71120000D03*
X83820000Y-73660000D03*
X86360000Y-73660000D03*
X83820000Y-76200000D03*
X86360000Y-76200000D03*
X83820000Y-78740000D03*
X86360000Y-78740000D03*
X83820000Y-81280000D03*
X86360000Y-81280000D03*
X83820000Y-83820000D03*
X86360000Y-83820000D03*
%LPD*%
M02*
