%TF.GenerationSoftware,KiCad,Pcbnew,9.0.0-9.0.0-2~ubuntu24.04.1*%
%TF.CreationDate,2025-03-07T10:49:14+01:00*%
%TF.ProjectId,BackPlane,4261636b-506c-4616-9e65-2e6b69636164,rev?*%
%TF.SameCoordinates,Original*%
%TF.FileFunction,Copper,L1,Top*%
%TF.FilePolarity,Positive*%
%FSLAX46Y46*%
G04 Gerber Fmt 4.6, Leading zero omitted, Abs format (unit mm)*
G04 Created by KiCad (PCBNEW 9.0.0-9.0.0-2~ubuntu24.04.1) date 2025-03-07 10:49:14*
%MOMM*%
%LPD*%
G01*
G04 APERTURE LIST*
%TA.AperFunction,SMDPad,CuDef*%
%ADD10R,4.000000X1.500000*%
%TD*%
%TA.AperFunction,ComponentPad*%
%ADD11R,1.700000X1.700000*%
%TD*%
%TA.AperFunction,ComponentPad*%
%ADD12O,1.700000X1.700000*%
%TD*%
%TA.AperFunction,Conductor*%
%ADD13C,0.300000*%
%TD*%
%TA.AperFunction,Conductor*%
%ADD14C,1.000000*%
%TD*%
G04 APERTURE END LIST*
D10*
X136390000Y-55880000D03*
X136390000Y-58420000D03*
X136390000Y-60960000D03*
X136390000Y-63500000D03*
X136390000Y-66040000D03*
X136390000Y-68580000D03*
X136390000Y-71120000D03*
X136390000Y-73660000D03*
X136390000Y-76200000D03*
X136390000Y-78740000D03*
X136390000Y-81280000D03*
X136390000Y-83820000D03*
D11*
X124460000Y-55880000D03*
D12*
X127000000Y-55880000D03*
X124460000Y-58420000D03*
X127000000Y-58420000D03*
X124460000Y-60960000D03*
X127000000Y-60960000D03*
X124460000Y-63500000D03*
X127000000Y-63500000D03*
X124460000Y-66040000D03*
X127000000Y-66040000D03*
X124460000Y-68580000D03*
X127000000Y-68580000D03*
X124460000Y-71120000D03*
X127000000Y-71120000D03*
X124460000Y-73660000D03*
X127000000Y-73660000D03*
X124460000Y-76200000D03*
X127000000Y-76200000D03*
X124460000Y-78740000D03*
X127000000Y-78740000D03*
X124460000Y-81280000D03*
X127000000Y-81280000D03*
X124460000Y-83820000D03*
X127000000Y-83820000D03*
D11*
X63500000Y-55880000D03*
D12*
X66040000Y-55880000D03*
X63500000Y-58420000D03*
X66040000Y-58420000D03*
X63500000Y-60960000D03*
X66040000Y-60960000D03*
X63500000Y-63500000D03*
X66040000Y-63500000D03*
X63500000Y-66040000D03*
X66040000Y-66040000D03*
X63500000Y-68580000D03*
X66040000Y-68580000D03*
X63500000Y-71120000D03*
X66040000Y-71120000D03*
X63500000Y-73660000D03*
X66040000Y-73660000D03*
X63500000Y-76200000D03*
X66040000Y-76200000D03*
X63500000Y-78740000D03*
X66040000Y-78740000D03*
X63500000Y-81280000D03*
X66040000Y-81280000D03*
X63500000Y-83820000D03*
X66040000Y-83820000D03*
D11*
X104140000Y-55880000D03*
D12*
X106680000Y-55880000D03*
X104140000Y-58420000D03*
X106680000Y-58420000D03*
X104140000Y-60960000D03*
X106680000Y-60960000D03*
X104140000Y-63500000D03*
X106680000Y-63500000D03*
X104140000Y-66040000D03*
X106680000Y-66040000D03*
X104140000Y-68580000D03*
X106680000Y-68580000D03*
X104140000Y-71120000D03*
X106680000Y-71120000D03*
X104140000Y-73660000D03*
X106680000Y-73660000D03*
X104140000Y-76200000D03*
X106680000Y-76200000D03*
X104140000Y-78740000D03*
X106680000Y-78740000D03*
X104140000Y-81280000D03*
X106680000Y-81280000D03*
X104140000Y-83820000D03*
X106680000Y-83820000D03*
D11*
X83820000Y-55880000D03*
D12*
X86360000Y-55880000D03*
X83820000Y-58420000D03*
X86360000Y-58420000D03*
X83820000Y-60960000D03*
X86360000Y-60960000D03*
X83820000Y-63500000D03*
X86360000Y-63500000D03*
X83820000Y-66040000D03*
X86360000Y-66040000D03*
X83820000Y-68580000D03*
X86360000Y-68580000D03*
X83820000Y-71120000D03*
X86360000Y-71120000D03*
X83820000Y-73660000D03*
X86360000Y-73660000D03*
X83820000Y-76200000D03*
X86360000Y-76200000D03*
X83820000Y-78740000D03*
X86360000Y-78740000D03*
X83820000Y-81280000D03*
X86360000Y-81280000D03*
X83820000Y-83820000D03*
X86360000Y-83820000D03*
D13*
X85021000Y-64839000D02*
X83820000Y-66040000D01*
X64701000Y-64839000D02*
X63500000Y-66040000D01*
X124460000Y-66040000D02*
X123259000Y-64839000D01*
X104140000Y-66040000D02*
X102939000Y-64839000D01*
X123259000Y-64839000D02*
X105341000Y-64839000D01*
X105341000Y-64839000D02*
X104140000Y-66040000D01*
X82619000Y-64839000D02*
X64701000Y-64839000D01*
X125661000Y-64839000D02*
X124460000Y-66040000D01*
X134689000Y-64839000D02*
X125661000Y-64839000D01*
X135890000Y-66040000D02*
X134689000Y-64839000D01*
X102939000Y-64839000D02*
X85021000Y-64839000D01*
X83820000Y-66040000D02*
X82619000Y-64839000D01*
X125661000Y-62299000D02*
X124460000Y-63500000D01*
X63500000Y-63500000D02*
X64701000Y-62299000D01*
X134689000Y-62299000D02*
X125661000Y-62299000D01*
X104140000Y-63500000D02*
X105341000Y-62299000D01*
X102870000Y-62230000D02*
X104140000Y-63500000D01*
X85090000Y-62230000D02*
X102870000Y-62230000D01*
X105341000Y-62299000D02*
X123259000Y-62299000D01*
X82619000Y-62299000D02*
X83820000Y-63500000D01*
X123259000Y-62299000D02*
X124460000Y-63500000D01*
X83820000Y-63500000D02*
X85090000Y-62230000D01*
X135890000Y-63500000D02*
X134689000Y-62299000D01*
X64701000Y-62299000D02*
X82619000Y-62299000D01*
D14*
X63500000Y-58420000D02*
X135890000Y-58420000D01*
X135890000Y-73660000D02*
X63500000Y-73660000D01*
D13*
X135890000Y-76200000D02*
X134689000Y-74999000D01*
X105341000Y-74999000D02*
X104140000Y-76200000D01*
X123259000Y-74999000D02*
X105341000Y-74999000D01*
X64701000Y-74999000D02*
X63500000Y-76200000D01*
X102939000Y-74999000D02*
X85021000Y-74999000D01*
X83820000Y-76200000D02*
X82619000Y-74999000D01*
X85021000Y-74999000D02*
X83820000Y-76200000D01*
X82619000Y-74999000D02*
X64701000Y-74999000D01*
X104140000Y-76200000D02*
X102939000Y-74999000D01*
X124460000Y-76200000D02*
X123259000Y-74999000D01*
X125661000Y-74999000D02*
X124460000Y-76200000D01*
X134689000Y-74999000D02*
X125661000Y-74999000D01*
X134689000Y-69919000D02*
X125661000Y-69919000D01*
X82619000Y-69919000D02*
X64701000Y-69919000D01*
X105341000Y-69919000D02*
X104140000Y-71120000D01*
X125661000Y-69919000D02*
X124460000Y-71120000D01*
X123259000Y-69919000D02*
X105341000Y-69919000D01*
X124460000Y-71120000D02*
X123259000Y-69919000D01*
X104140000Y-71120000D02*
X102939000Y-69919000D01*
X85021000Y-69919000D02*
X83820000Y-71120000D01*
X102939000Y-69919000D02*
X85021000Y-69919000D01*
X135890000Y-71120000D02*
X134689000Y-69919000D01*
X83820000Y-71120000D02*
X82619000Y-69919000D01*
X64701000Y-69919000D02*
X63500000Y-71120000D01*
X125661000Y-77539000D02*
X124460000Y-78740000D01*
X83820000Y-78740000D02*
X82619000Y-77539000D01*
X135890000Y-78740000D02*
X134689000Y-77539000D01*
X82619000Y-77539000D02*
X64701000Y-77539000D01*
X105341000Y-77539000D02*
X104140000Y-78740000D01*
X134689000Y-77539000D02*
X125661000Y-77539000D01*
X64701000Y-77539000D02*
X63500000Y-78740000D01*
X85021000Y-77539000D02*
X83820000Y-78740000D01*
X102939000Y-77539000D02*
X85021000Y-77539000D01*
X104140000Y-78740000D02*
X102939000Y-77539000D01*
X124460000Y-78740000D02*
X123259000Y-77539000D01*
X123259000Y-77539000D02*
X105341000Y-77539000D01*
D14*
X135890000Y-55880000D02*
X63500000Y-55880000D01*
D13*
X85021000Y-59759000D02*
X83820000Y-60960000D01*
X82619000Y-59759000D02*
X64701000Y-59759000D01*
X134689000Y-59759000D02*
X125661000Y-59759000D01*
X135890000Y-60960000D02*
X134689000Y-59759000D01*
X123259000Y-59759000D02*
X105341000Y-59759000D01*
X124460000Y-60960000D02*
X123259000Y-59759000D01*
X105341000Y-59759000D02*
X104140000Y-60960000D01*
X83820000Y-60960000D02*
X82619000Y-59759000D01*
X102939000Y-59759000D02*
X85021000Y-59759000D01*
X104140000Y-60960000D02*
X102939000Y-59759000D01*
X64701000Y-59759000D02*
X63500000Y-60960000D01*
X125661000Y-59759000D02*
X124460000Y-60960000D01*
X102939000Y-80079000D02*
X85021000Y-80079000D01*
X104140000Y-81280000D02*
X102939000Y-80079000D01*
X135890000Y-81280000D02*
X134689000Y-80079000D01*
X124460000Y-81280000D02*
X123259000Y-80079000D01*
X64701000Y-80079000D02*
X63500000Y-81280000D01*
X85021000Y-80079000D02*
X83820000Y-81280000D01*
X105341000Y-80079000D02*
X104140000Y-81280000D01*
X82619000Y-80079000D02*
X64701000Y-80079000D01*
X123259000Y-80079000D02*
X105341000Y-80079000D01*
X134689000Y-80079000D02*
X125661000Y-80079000D01*
X83820000Y-81280000D02*
X82619000Y-80079000D01*
X125661000Y-80079000D02*
X124460000Y-81280000D01*
X85021000Y-67379000D02*
X83820000Y-68580000D01*
X135890000Y-68580000D02*
X134689000Y-67379000D01*
X125661000Y-67379000D02*
X124460000Y-68580000D01*
X123259000Y-67379000D02*
X105341000Y-67379000D01*
X124460000Y-68580000D02*
X123259000Y-67379000D01*
X105341000Y-67379000D02*
X104140000Y-68580000D01*
X102939000Y-67379000D02*
X85021000Y-67379000D01*
X83820000Y-68580000D02*
X82619000Y-67379000D01*
X64701000Y-67379000D02*
X63500000Y-68580000D01*
X82619000Y-67379000D02*
X64701000Y-67379000D01*
X134689000Y-67379000D02*
X125661000Y-67379000D01*
X104140000Y-68580000D02*
X102939000Y-67379000D01*
X134689000Y-82619000D02*
X125661000Y-82619000D01*
X83820000Y-83820000D02*
X82619000Y-82619000D01*
X135890000Y-83820000D02*
X134689000Y-82619000D01*
X82619000Y-82619000D02*
X64701000Y-82619000D01*
X104140000Y-83820000D02*
X102939000Y-82619000D01*
X102939000Y-82619000D02*
X85021000Y-82619000D01*
X105341000Y-82619000D02*
X104140000Y-83820000D01*
X125661000Y-82619000D02*
X124460000Y-83820000D01*
X85021000Y-82619000D02*
X83820000Y-83820000D01*
X64701000Y-82619000D02*
X63500000Y-83820000D01*
X123259000Y-82619000D02*
X105341000Y-82619000D01*
X124460000Y-83820000D02*
X123259000Y-82619000D01*
M02*
