%TF.GenerationSoftware,KiCad,Pcbnew,9.0.0-9.0.0-2~ubuntu24.04.1*%
%TF.CreationDate,2025-03-07T10:50:06+01:00*%
%TF.ProjectId,BackPlane,4261636b-506c-4616-9e65-2e6b69636164,rev?*%
%TF.SameCoordinates,Original*%
%TF.FileFunction,Drillmap*%
%TF.FilePolarity,Positive*%
%FSLAX45Y45*%
G04 Gerber Fmt 4.5, Leading zero omitted, Abs format (unit mm)*
G04 Created by KiCad (PCBNEW 9.0.0-9.0.0-2~ubuntu24.04.1) date 2025-03-07 10:50:06*
%MOMM*%
%LPD*%
G01*
G04 APERTURE LIST*
%ADD10C,0.200000*%
%ADD11C,0.100000*%
G04 APERTURE END LIST*
D10*
X10056500Y-3487000D02*
G75*
G02*
X9756500Y-3487000I-150000J0D01*
G01*
X9756500Y-3487000D02*
G75*
G02*
X10056500Y-3487000I150000J0D01*
G01*
X5906500Y-3487000D02*
G75*
G02*
X6406500Y-2987000I500000J0D01*
G01*
X10351862Y-10714273D02*
G75*
G02*
X9906500Y-10987000I-445362J227273D01*
G01*
X12426704Y-10387000D02*
G75*
G02*
X12961135Y-10714274I-4J-600000D01*
G01*
X13906500Y-3487000D02*
X13906500Y-10487000D01*
X6406500Y-10987000D02*
G75*
G02*
X5906500Y-10487000I0J500000D01*
G01*
X12961138Y-3259727D02*
G75*
G02*
X13406500Y-2987000I445362J-227273D01*
G01*
X13406500Y-10987000D02*
G75*
G02*
X12961138Y-10714273I0J500000D01*
G01*
X8924622Y-3587000D02*
X7386303Y-3587000D01*
X13556500Y-10487000D02*
G75*
G02*
X13256500Y-10487000I-150000J0D01*
G01*
X13256500Y-10487000D02*
G75*
G02*
X13556500Y-10487000I150000J0D01*
G01*
X6406500Y-2987000D02*
G75*
G02*
X6851862Y-3259727I0J-500000D01*
G01*
X10886303Y-3587000D02*
G75*
G02*
X10351860Y-3259728I-3J600010D01*
G01*
X6556500Y-10487000D02*
G75*
G02*
X6256500Y-10487000I-150000J0D01*
G01*
X6256500Y-10487000D02*
G75*
G02*
X6556500Y-10487000I150000J0D01*
G01*
X8926704Y-10387000D02*
X7386296Y-10387000D01*
X9906500Y-10987000D02*
G75*
G02*
X9461138Y-10714273I0J500000D01*
G01*
X13556500Y-3487000D02*
G75*
G02*
X13256500Y-3487000I-150000J0D01*
G01*
X13256500Y-3487000D02*
G75*
G02*
X13556500Y-3487000I150000J0D01*
G01*
X10886303Y-3587000D02*
X12428749Y-3587000D01*
X9461138Y-3259727D02*
G75*
G02*
X9906500Y-2987000I445362J-227273D01*
G01*
X12961138Y-3259727D02*
G75*
G02*
X12428749Y-3586995I-534438J272737D01*
G01*
X10351862Y-10714273D02*
G75*
G02*
X10886296Y-10386996I534438J-272727D01*
G01*
X13406500Y-2987000D02*
G75*
G02*
X13906500Y-3487000I0J-500000D01*
G01*
X10886296Y-10387000D02*
X12426704Y-10387000D01*
X6851862Y-10714273D02*
G75*
G02*
X7386296Y-10386996I534438J-272727D01*
G01*
X6556500Y-3487000D02*
G75*
G02*
X6256500Y-3487000I-150000J0D01*
G01*
X6256500Y-3487000D02*
G75*
G02*
X6556500Y-3487000I150000J0D01*
G01*
X7386303Y-3587000D02*
G75*
G02*
X6851860Y-3259728I-3J600010D01*
G01*
X9461138Y-3259727D02*
G75*
G02*
X8924622Y-3586995I-534438J272737D01*
G01*
X8926704Y-10387000D02*
G75*
G02*
X9461135Y-10714274I-4J-600000D01*
G01*
X10056500Y-10487000D02*
G75*
G02*
X9756500Y-10487000I-150000J0D01*
G01*
X9756500Y-10487000D02*
G75*
G02*
X10056500Y-10487000I150000J0D01*
G01*
X5906500Y-3487000D02*
X5906500Y-10487000D01*
X6851862Y-10714273D02*
G75*
G02*
X6406500Y-10987000I-445362J227273D01*
G01*
X9906500Y-2987000D02*
G75*
G02*
X10351862Y-3259727I0J-500000D01*
G01*
X13906500Y-10487000D02*
G75*
G02*
X13406500Y-10987000I-500000J0D01*
G01*
D11*
X6300000Y-5538000D02*
X6400000Y-5638000D01*
X6400000Y-5538000D02*
X6300000Y-5638000D01*
X6300000Y-5792000D02*
X6400000Y-5892000D01*
X6400000Y-5792000D02*
X6300000Y-5892000D01*
X6300000Y-6046000D02*
X6400000Y-6146000D01*
X6400000Y-6046000D02*
X6300000Y-6146000D01*
X6300000Y-6300000D02*
X6400000Y-6400000D01*
X6400000Y-6300000D02*
X6300000Y-6400000D01*
X6300000Y-6554000D02*
X6400000Y-6654000D01*
X6400000Y-6554000D02*
X6300000Y-6654000D01*
X6300000Y-6808000D02*
X6400000Y-6908000D01*
X6400000Y-6808000D02*
X6300000Y-6908000D01*
X6300000Y-7062000D02*
X6400000Y-7162000D01*
X6400000Y-7062000D02*
X6300000Y-7162000D01*
X6300000Y-7316000D02*
X6400000Y-7416000D01*
X6400000Y-7316000D02*
X6300000Y-7416000D01*
X6300000Y-7570000D02*
X6400000Y-7670000D01*
X6400000Y-7570000D02*
X6300000Y-7670000D01*
X6300000Y-7824000D02*
X6400000Y-7924000D01*
X6400000Y-7824000D02*
X6300000Y-7924000D01*
X6300000Y-8078000D02*
X6400000Y-8178000D01*
X6400000Y-8078000D02*
X6300000Y-8178000D01*
X6300000Y-8332000D02*
X6400000Y-8432000D01*
X6400000Y-8332000D02*
X6300000Y-8432000D01*
X6554000Y-5538000D02*
X6654000Y-5638000D01*
X6654000Y-5538000D02*
X6554000Y-5638000D01*
X6554000Y-5792000D02*
X6654000Y-5892000D01*
X6654000Y-5792000D02*
X6554000Y-5892000D01*
X6554000Y-6046000D02*
X6654000Y-6146000D01*
X6654000Y-6046000D02*
X6554000Y-6146000D01*
X6554000Y-6300000D02*
X6654000Y-6400000D01*
X6654000Y-6300000D02*
X6554000Y-6400000D01*
X6554000Y-6554000D02*
X6654000Y-6654000D01*
X6654000Y-6554000D02*
X6554000Y-6654000D01*
X6554000Y-6808000D02*
X6654000Y-6908000D01*
X6654000Y-6808000D02*
X6554000Y-6908000D01*
X6554000Y-7062000D02*
X6654000Y-7162000D01*
X6654000Y-7062000D02*
X6554000Y-7162000D01*
X6554000Y-7316000D02*
X6654000Y-7416000D01*
X6654000Y-7316000D02*
X6554000Y-7416000D01*
X6554000Y-7570000D02*
X6654000Y-7670000D01*
X6654000Y-7570000D02*
X6554000Y-7670000D01*
X6554000Y-7824000D02*
X6654000Y-7924000D01*
X6654000Y-7824000D02*
X6554000Y-7924000D01*
X6554000Y-8078000D02*
X6654000Y-8178000D01*
X6654000Y-8078000D02*
X6554000Y-8178000D01*
X6554000Y-8332000D02*
X6654000Y-8432000D01*
X6654000Y-8332000D02*
X6554000Y-8432000D01*
X8332000Y-5538000D02*
X8432000Y-5638000D01*
X8432000Y-5538000D02*
X8332000Y-5638000D01*
X8332000Y-5792000D02*
X8432000Y-5892000D01*
X8432000Y-5792000D02*
X8332000Y-5892000D01*
X8332000Y-6046000D02*
X8432000Y-6146000D01*
X8432000Y-6046000D02*
X8332000Y-6146000D01*
X8332000Y-6300000D02*
X8432000Y-6400000D01*
X8432000Y-6300000D02*
X8332000Y-6400000D01*
X8332000Y-6554000D02*
X8432000Y-6654000D01*
X8432000Y-6554000D02*
X8332000Y-6654000D01*
X8332000Y-6808000D02*
X8432000Y-6908000D01*
X8432000Y-6808000D02*
X8332000Y-6908000D01*
X8332000Y-7062000D02*
X8432000Y-7162000D01*
X8432000Y-7062000D02*
X8332000Y-7162000D01*
X8332000Y-7316000D02*
X8432000Y-7416000D01*
X8432000Y-7316000D02*
X8332000Y-7416000D01*
X8332000Y-7570000D02*
X8432000Y-7670000D01*
X8432000Y-7570000D02*
X8332000Y-7670000D01*
X8332000Y-7824000D02*
X8432000Y-7924000D01*
X8432000Y-7824000D02*
X8332000Y-7924000D01*
X8332000Y-8078000D02*
X8432000Y-8178000D01*
X8432000Y-8078000D02*
X8332000Y-8178000D01*
X8332000Y-8332000D02*
X8432000Y-8432000D01*
X8432000Y-8332000D02*
X8332000Y-8432000D01*
X8586000Y-5538000D02*
X8686000Y-5638000D01*
X8686000Y-5538000D02*
X8586000Y-5638000D01*
X8586000Y-5792000D02*
X8686000Y-5892000D01*
X8686000Y-5792000D02*
X8586000Y-5892000D01*
X8586000Y-6046000D02*
X8686000Y-6146000D01*
X8686000Y-6046000D02*
X8586000Y-6146000D01*
X8586000Y-6300000D02*
X8686000Y-6400000D01*
X8686000Y-6300000D02*
X8586000Y-6400000D01*
X8586000Y-6554000D02*
X8686000Y-6654000D01*
X8686000Y-6554000D02*
X8586000Y-6654000D01*
X8586000Y-6808000D02*
X8686000Y-6908000D01*
X8686000Y-6808000D02*
X8586000Y-6908000D01*
X8586000Y-7062000D02*
X8686000Y-7162000D01*
X8686000Y-7062000D02*
X8586000Y-7162000D01*
X8586000Y-7316000D02*
X8686000Y-7416000D01*
X8686000Y-7316000D02*
X8586000Y-7416000D01*
X8586000Y-7570000D02*
X8686000Y-7670000D01*
X8686000Y-7570000D02*
X8586000Y-7670000D01*
X8586000Y-7824000D02*
X8686000Y-7924000D01*
X8686000Y-7824000D02*
X8586000Y-7924000D01*
X8586000Y-8078000D02*
X8686000Y-8178000D01*
X8686000Y-8078000D02*
X8586000Y-8178000D01*
X8586000Y-8332000D02*
X8686000Y-8432000D01*
X8686000Y-8332000D02*
X8586000Y-8432000D01*
X10364000Y-5538000D02*
X10464000Y-5638000D01*
X10464000Y-5538000D02*
X10364000Y-5638000D01*
X10364000Y-5792000D02*
X10464000Y-5892000D01*
X10464000Y-5792000D02*
X10364000Y-5892000D01*
X10364000Y-6046000D02*
X10464000Y-6146000D01*
X10464000Y-6046000D02*
X10364000Y-6146000D01*
X10364000Y-6300000D02*
X10464000Y-6400000D01*
X10464000Y-6300000D02*
X10364000Y-6400000D01*
X10364000Y-6554000D02*
X10464000Y-6654000D01*
X10464000Y-6554000D02*
X10364000Y-6654000D01*
X10364000Y-6808000D02*
X10464000Y-6908000D01*
X10464000Y-6808000D02*
X10364000Y-6908000D01*
X10364000Y-7062000D02*
X10464000Y-7162000D01*
X10464000Y-7062000D02*
X10364000Y-7162000D01*
X10364000Y-7316000D02*
X10464000Y-7416000D01*
X10464000Y-7316000D02*
X10364000Y-7416000D01*
X10364000Y-7570000D02*
X10464000Y-7670000D01*
X10464000Y-7570000D02*
X10364000Y-7670000D01*
X10364000Y-7824000D02*
X10464000Y-7924000D01*
X10464000Y-7824000D02*
X10364000Y-7924000D01*
X10364000Y-8078000D02*
X10464000Y-8178000D01*
X10464000Y-8078000D02*
X10364000Y-8178000D01*
X10364000Y-8332000D02*
X10464000Y-8432000D01*
X10464000Y-8332000D02*
X10364000Y-8432000D01*
X10618000Y-5538000D02*
X10718000Y-5638000D01*
X10718000Y-5538000D02*
X10618000Y-5638000D01*
X10618000Y-5792000D02*
X10718000Y-5892000D01*
X10718000Y-5792000D02*
X10618000Y-5892000D01*
X10618000Y-6046000D02*
X10718000Y-6146000D01*
X10718000Y-6046000D02*
X10618000Y-6146000D01*
X10618000Y-6300000D02*
X10718000Y-6400000D01*
X10718000Y-6300000D02*
X10618000Y-6400000D01*
X10618000Y-6554000D02*
X10718000Y-6654000D01*
X10718000Y-6554000D02*
X10618000Y-6654000D01*
X10618000Y-6808000D02*
X10718000Y-6908000D01*
X10718000Y-6808000D02*
X10618000Y-6908000D01*
X10618000Y-7062000D02*
X10718000Y-7162000D01*
X10718000Y-7062000D02*
X10618000Y-7162000D01*
X10618000Y-7316000D02*
X10718000Y-7416000D01*
X10718000Y-7316000D02*
X10618000Y-7416000D01*
X10618000Y-7570000D02*
X10718000Y-7670000D01*
X10718000Y-7570000D02*
X10618000Y-7670000D01*
X10618000Y-7824000D02*
X10718000Y-7924000D01*
X10718000Y-7824000D02*
X10618000Y-7924000D01*
X10618000Y-8078000D02*
X10718000Y-8178000D01*
X10718000Y-8078000D02*
X10618000Y-8178000D01*
X10618000Y-8332000D02*
X10718000Y-8432000D01*
X10718000Y-8332000D02*
X10618000Y-8432000D01*
X12396000Y-5538000D02*
X12496000Y-5638000D01*
X12496000Y-5538000D02*
X12396000Y-5638000D01*
X12396000Y-5792000D02*
X12496000Y-5892000D01*
X12496000Y-5792000D02*
X12396000Y-5892000D01*
X12396000Y-6046000D02*
X12496000Y-6146000D01*
X12496000Y-6046000D02*
X12396000Y-6146000D01*
X12396000Y-6300000D02*
X12496000Y-6400000D01*
X12496000Y-6300000D02*
X12396000Y-6400000D01*
X12396000Y-6554000D02*
X12496000Y-6654000D01*
X12496000Y-6554000D02*
X12396000Y-6654000D01*
X12396000Y-6808000D02*
X12496000Y-6908000D01*
X12496000Y-6808000D02*
X12396000Y-6908000D01*
X12396000Y-7062000D02*
X12496000Y-7162000D01*
X12496000Y-7062000D02*
X12396000Y-7162000D01*
X12396000Y-7316000D02*
X12496000Y-7416000D01*
X12496000Y-7316000D02*
X12396000Y-7416000D01*
X12396000Y-7570000D02*
X12496000Y-7670000D01*
X12496000Y-7570000D02*
X12396000Y-7670000D01*
X12396000Y-7824000D02*
X12496000Y-7924000D01*
X12496000Y-7824000D02*
X12396000Y-7924000D01*
X12396000Y-8078000D02*
X12496000Y-8178000D01*
X12496000Y-8078000D02*
X12396000Y-8178000D01*
X12396000Y-8332000D02*
X12496000Y-8432000D01*
X12496000Y-8332000D02*
X12396000Y-8432000D01*
X12650000Y-5538000D02*
X12750000Y-5638000D01*
X12750000Y-5538000D02*
X12650000Y-5638000D01*
X12650000Y-5792000D02*
X12750000Y-5892000D01*
X12750000Y-5792000D02*
X12650000Y-5892000D01*
X12650000Y-6046000D02*
X12750000Y-6146000D01*
X12750000Y-6046000D02*
X12650000Y-6146000D01*
X12650000Y-6300000D02*
X12750000Y-6400000D01*
X12750000Y-6300000D02*
X12650000Y-6400000D01*
X12650000Y-6554000D02*
X12750000Y-6654000D01*
X12750000Y-6554000D02*
X12650000Y-6654000D01*
X12650000Y-6808000D02*
X12750000Y-6908000D01*
X12750000Y-6808000D02*
X12650000Y-6908000D01*
X12650000Y-7062000D02*
X12750000Y-7162000D01*
X12750000Y-7062000D02*
X12650000Y-7162000D01*
X12650000Y-7316000D02*
X12750000Y-7416000D01*
X12750000Y-7316000D02*
X12650000Y-7416000D01*
X12650000Y-7570000D02*
X12750000Y-7670000D01*
X12750000Y-7570000D02*
X12650000Y-7670000D01*
X12650000Y-7824000D02*
X12750000Y-7924000D01*
X12750000Y-7824000D02*
X12650000Y-7924000D01*
X12650000Y-8078000D02*
X12750000Y-8178000D01*
X12750000Y-8078000D02*
X12650000Y-8178000D01*
X12650000Y-8332000D02*
X12750000Y-8432000D01*
X12750000Y-8332000D02*
X12650000Y-8432000D01*
D10*
X6157277Y-11308484D02*
X6157277Y-11108484D01*
X6157277Y-11108484D02*
X6204896Y-11108484D01*
X6204896Y-11108484D02*
X6233467Y-11118008D01*
X6233467Y-11118008D02*
X6252515Y-11137055D01*
X6252515Y-11137055D02*
X6262039Y-11156103D01*
X6262039Y-11156103D02*
X6271562Y-11194198D01*
X6271562Y-11194198D02*
X6271562Y-11222769D01*
X6271562Y-11222769D02*
X6262039Y-11260865D01*
X6262039Y-11260865D02*
X6252515Y-11279912D01*
X6252515Y-11279912D02*
X6233467Y-11298960D01*
X6233467Y-11298960D02*
X6204896Y-11308484D01*
X6204896Y-11308484D02*
X6157277Y-11308484D01*
X6357277Y-11308484D02*
X6357277Y-11175150D01*
X6357277Y-11213246D02*
X6366801Y-11194198D01*
X6366801Y-11194198D02*
X6376324Y-11184674D01*
X6376324Y-11184674D02*
X6395372Y-11175150D01*
X6395372Y-11175150D02*
X6414420Y-11175150D01*
X6481086Y-11308484D02*
X6481086Y-11175150D01*
X6481086Y-11108484D02*
X6471562Y-11118008D01*
X6471562Y-11118008D02*
X6481086Y-11127531D01*
X6481086Y-11127531D02*
X6490610Y-11118008D01*
X6490610Y-11118008D02*
X6481086Y-11108484D01*
X6481086Y-11108484D02*
X6481086Y-11127531D01*
X6604896Y-11308484D02*
X6585848Y-11298960D01*
X6585848Y-11298960D02*
X6576324Y-11279912D01*
X6576324Y-11279912D02*
X6576324Y-11108484D01*
X6709658Y-11308484D02*
X6690610Y-11298960D01*
X6690610Y-11298960D02*
X6681086Y-11279912D01*
X6681086Y-11279912D02*
X6681086Y-11108484D01*
X6938229Y-11308484D02*
X6938229Y-11108484D01*
X6938229Y-11108484D02*
X7004896Y-11251341D01*
X7004896Y-11251341D02*
X7071562Y-11108484D01*
X7071562Y-11108484D02*
X7071562Y-11308484D01*
X7252515Y-11308484D02*
X7252515Y-11203722D01*
X7252515Y-11203722D02*
X7242991Y-11184674D01*
X7242991Y-11184674D02*
X7223943Y-11175150D01*
X7223943Y-11175150D02*
X7185848Y-11175150D01*
X7185848Y-11175150D02*
X7166801Y-11184674D01*
X7252515Y-11298960D02*
X7233467Y-11308484D01*
X7233467Y-11308484D02*
X7185848Y-11308484D01*
X7185848Y-11308484D02*
X7166801Y-11298960D01*
X7166801Y-11298960D02*
X7157277Y-11279912D01*
X7157277Y-11279912D02*
X7157277Y-11260865D01*
X7157277Y-11260865D02*
X7166801Y-11241817D01*
X7166801Y-11241817D02*
X7185848Y-11232293D01*
X7185848Y-11232293D02*
X7233467Y-11232293D01*
X7233467Y-11232293D02*
X7252515Y-11222769D01*
X7347753Y-11175150D02*
X7347753Y-11375150D01*
X7347753Y-11184674D02*
X7366801Y-11175150D01*
X7366801Y-11175150D02*
X7404896Y-11175150D01*
X7404896Y-11175150D02*
X7423943Y-11184674D01*
X7423943Y-11184674D02*
X7433467Y-11194198D01*
X7433467Y-11194198D02*
X7442991Y-11213246D01*
X7442991Y-11213246D02*
X7442991Y-11270388D01*
X7442991Y-11270388D02*
X7433467Y-11289436D01*
X7433467Y-11289436D02*
X7423943Y-11298960D01*
X7423943Y-11298960D02*
X7404896Y-11308484D01*
X7404896Y-11308484D02*
X7366801Y-11308484D01*
X7366801Y-11308484D02*
X7347753Y-11298960D01*
X7528705Y-11289436D02*
X7538229Y-11298960D01*
X7538229Y-11298960D02*
X7528705Y-11308484D01*
X7528705Y-11308484D02*
X7519182Y-11298960D01*
X7519182Y-11298960D02*
X7528705Y-11289436D01*
X7528705Y-11289436D02*
X7528705Y-11308484D01*
X7528705Y-11184674D02*
X7538229Y-11194198D01*
X7538229Y-11194198D02*
X7528705Y-11203722D01*
X7528705Y-11203722D02*
X7519182Y-11194198D01*
X7519182Y-11194198D02*
X7528705Y-11184674D01*
X7528705Y-11184674D02*
X7528705Y-11203722D01*
D11*
X5796500Y-11587000D02*
X5896500Y-11687000D01*
X5896500Y-11587000D02*
X5796500Y-11687000D01*
D10*
X6262039Y-11728484D02*
X6147753Y-11728484D01*
X6204896Y-11728484D02*
X6204896Y-11528484D01*
X6204896Y-11528484D02*
X6185848Y-11557055D01*
X6185848Y-11557055D02*
X6166801Y-11576103D01*
X6166801Y-11576103D02*
X6147753Y-11585627D01*
X6347753Y-11709436D02*
X6357277Y-11718960D01*
X6357277Y-11718960D02*
X6347753Y-11728484D01*
X6347753Y-11728484D02*
X6338229Y-11718960D01*
X6338229Y-11718960D02*
X6347753Y-11709436D01*
X6347753Y-11709436D02*
X6347753Y-11728484D01*
X6481086Y-11528484D02*
X6500134Y-11528484D01*
X6500134Y-11528484D02*
X6519182Y-11538008D01*
X6519182Y-11538008D02*
X6528705Y-11547531D01*
X6528705Y-11547531D02*
X6538229Y-11566579D01*
X6538229Y-11566579D02*
X6547753Y-11604674D01*
X6547753Y-11604674D02*
X6547753Y-11652293D01*
X6547753Y-11652293D02*
X6538229Y-11690388D01*
X6538229Y-11690388D02*
X6528705Y-11709436D01*
X6528705Y-11709436D02*
X6519182Y-11718960D01*
X6519182Y-11718960D02*
X6500134Y-11728484D01*
X6500134Y-11728484D02*
X6481086Y-11728484D01*
X6481086Y-11728484D02*
X6462039Y-11718960D01*
X6462039Y-11718960D02*
X6452515Y-11709436D01*
X6452515Y-11709436D02*
X6442991Y-11690388D01*
X6442991Y-11690388D02*
X6433467Y-11652293D01*
X6433467Y-11652293D02*
X6433467Y-11604674D01*
X6433467Y-11604674D02*
X6442991Y-11566579D01*
X6442991Y-11566579D02*
X6452515Y-11547531D01*
X6452515Y-11547531D02*
X6462039Y-11538008D01*
X6462039Y-11538008D02*
X6481086Y-11528484D01*
X6671562Y-11528484D02*
X6690610Y-11528484D01*
X6690610Y-11528484D02*
X6709658Y-11538008D01*
X6709658Y-11538008D02*
X6719182Y-11547531D01*
X6719182Y-11547531D02*
X6728705Y-11566579D01*
X6728705Y-11566579D02*
X6738229Y-11604674D01*
X6738229Y-11604674D02*
X6738229Y-11652293D01*
X6738229Y-11652293D02*
X6728705Y-11690388D01*
X6728705Y-11690388D02*
X6719182Y-11709436D01*
X6719182Y-11709436D02*
X6709658Y-11718960D01*
X6709658Y-11718960D02*
X6690610Y-11728484D01*
X6690610Y-11728484D02*
X6671562Y-11728484D01*
X6671562Y-11728484D02*
X6652515Y-11718960D01*
X6652515Y-11718960D02*
X6642991Y-11709436D01*
X6642991Y-11709436D02*
X6633467Y-11690388D01*
X6633467Y-11690388D02*
X6623943Y-11652293D01*
X6623943Y-11652293D02*
X6623943Y-11604674D01*
X6623943Y-11604674D02*
X6633467Y-11566579D01*
X6633467Y-11566579D02*
X6642991Y-11547531D01*
X6642991Y-11547531D02*
X6652515Y-11538008D01*
X6652515Y-11538008D02*
X6671562Y-11528484D01*
X6862039Y-11528484D02*
X6881086Y-11528484D01*
X6881086Y-11528484D02*
X6900134Y-11538008D01*
X6900134Y-11538008D02*
X6909658Y-11547531D01*
X6909658Y-11547531D02*
X6919182Y-11566579D01*
X6919182Y-11566579D02*
X6928705Y-11604674D01*
X6928705Y-11604674D02*
X6928705Y-11652293D01*
X6928705Y-11652293D02*
X6919182Y-11690388D01*
X6919182Y-11690388D02*
X6909658Y-11709436D01*
X6909658Y-11709436D02*
X6900134Y-11718960D01*
X6900134Y-11718960D02*
X6881086Y-11728484D01*
X6881086Y-11728484D02*
X6862039Y-11728484D01*
X6862039Y-11728484D02*
X6842991Y-11718960D01*
X6842991Y-11718960D02*
X6833467Y-11709436D01*
X6833467Y-11709436D02*
X6823943Y-11690388D01*
X6823943Y-11690388D02*
X6814420Y-11652293D01*
X6814420Y-11652293D02*
X6814420Y-11604674D01*
X6814420Y-11604674D02*
X6823943Y-11566579D01*
X6823943Y-11566579D02*
X6833467Y-11547531D01*
X6833467Y-11547531D02*
X6842991Y-11538008D01*
X6842991Y-11538008D02*
X6862039Y-11528484D01*
X7014420Y-11728484D02*
X7014420Y-11595150D01*
X7014420Y-11614198D02*
X7023943Y-11604674D01*
X7023943Y-11604674D02*
X7042991Y-11595150D01*
X7042991Y-11595150D02*
X7071563Y-11595150D01*
X7071563Y-11595150D02*
X7090610Y-11604674D01*
X7090610Y-11604674D02*
X7100134Y-11623722D01*
X7100134Y-11623722D02*
X7100134Y-11728484D01*
X7100134Y-11623722D02*
X7109658Y-11604674D01*
X7109658Y-11604674D02*
X7128705Y-11595150D01*
X7128705Y-11595150D02*
X7157277Y-11595150D01*
X7157277Y-11595150D02*
X7176324Y-11604674D01*
X7176324Y-11604674D02*
X7185848Y-11623722D01*
X7185848Y-11623722D02*
X7185848Y-11728484D01*
X7281086Y-11728484D02*
X7281086Y-11595150D01*
X7281086Y-11614198D02*
X7290610Y-11604674D01*
X7290610Y-11604674D02*
X7309658Y-11595150D01*
X7309658Y-11595150D02*
X7338229Y-11595150D01*
X7338229Y-11595150D02*
X7357277Y-11604674D01*
X7357277Y-11604674D02*
X7366801Y-11623722D01*
X7366801Y-11623722D02*
X7366801Y-11728484D01*
X7366801Y-11623722D02*
X7376324Y-11604674D01*
X7376324Y-11604674D02*
X7395372Y-11595150D01*
X7395372Y-11595150D02*
X7423943Y-11595150D01*
X7423943Y-11595150D02*
X7442991Y-11604674D01*
X7442991Y-11604674D02*
X7452515Y-11623722D01*
X7452515Y-11623722D02*
X7452515Y-11728484D01*
X7842991Y-11518960D02*
X7671563Y-11776103D01*
X8100134Y-11528484D02*
X8119182Y-11528484D01*
X8119182Y-11528484D02*
X8138229Y-11538008D01*
X8138229Y-11538008D02*
X8147753Y-11547531D01*
X8147753Y-11547531D02*
X8157277Y-11566579D01*
X8157277Y-11566579D02*
X8166801Y-11604674D01*
X8166801Y-11604674D02*
X8166801Y-11652293D01*
X8166801Y-11652293D02*
X8157277Y-11690388D01*
X8157277Y-11690388D02*
X8147753Y-11709436D01*
X8147753Y-11709436D02*
X8138229Y-11718960D01*
X8138229Y-11718960D02*
X8119182Y-11728484D01*
X8119182Y-11728484D02*
X8100134Y-11728484D01*
X8100134Y-11728484D02*
X8081086Y-11718960D01*
X8081086Y-11718960D02*
X8071563Y-11709436D01*
X8071563Y-11709436D02*
X8062039Y-11690388D01*
X8062039Y-11690388D02*
X8052515Y-11652293D01*
X8052515Y-11652293D02*
X8052515Y-11604674D01*
X8052515Y-11604674D02*
X8062039Y-11566579D01*
X8062039Y-11566579D02*
X8071563Y-11547531D01*
X8071563Y-11547531D02*
X8081086Y-11538008D01*
X8081086Y-11538008D02*
X8100134Y-11528484D01*
X8252515Y-11709436D02*
X8262039Y-11718960D01*
X8262039Y-11718960D02*
X8252515Y-11728484D01*
X8252515Y-11728484D02*
X8242991Y-11718960D01*
X8242991Y-11718960D02*
X8252515Y-11709436D01*
X8252515Y-11709436D02*
X8252515Y-11728484D01*
X8385848Y-11528484D02*
X8404896Y-11528484D01*
X8404896Y-11528484D02*
X8423944Y-11538008D01*
X8423944Y-11538008D02*
X8433468Y-11547531D01*
X8433468Y-11547531D02*
X8442991Y-11566579D01*
X8442991Y-11566579D02*
X8452515Y-11604674D01*
X8452515Y-11604674D02*
X8452515Y-11652293D01*
X8452515Y-11652293D02*
X8442991Y-11690388D01*
X8442991Y-11690388D02*
X8433468Y-11709436D01*
X8433468Y-11709436D02*
X8423944Y-11718960D01*
X8423944Y-11718960D02*
X8404896Y-11728484D01*
X8404896Y-11728484D02*
X8385848Y-11728484D01*
X8385848Y-11728484D02*
X8366801Y-11718960D01*
X8366801Y-11718960D02*
X8357277Y-11709436D01*
X8357277Y-11709436D02*
X8347753Y-11690388D01*
X8347753Y-11690388D02*
X8338229Y-11652293D01*
X8338229Y-11652293D02*
X8338229Y-11604674D01*
X8338229Y-11604674D02*
X8347753Y-11566579D01*
X8347753Y-11566579D02*
X8357277Y-11547531D01*
X8357277Y-11547531D02*
X8366801Y-11538008D01*
X8366801Y-11538008D02*
X8385848Y-11528484D01*
X8519182Y-11528484D02*
X8642991Y-11528484D01*
X8642991Y-11528484D02*
X8576325Y-11604674D01*
X8576325Y-11604674D02*
X8604896Y-11604674D01*
X8604896Y-11604674D02*
X8623944Y-11614198D01*
X8623944Y-11614198D02*
X8633468Y-11623722D01*
X8633468Y-11623722D02*
X8642991Y-11642769D01*
X8642991Y-11642769D02*
X8642991Y-11690388D01*
X8642991Y-11690388D02*
X8633468Y-11709436D01*
X8633468Y-11709436D02*
X8623944Y-11718960D01*
X8623944Y-11718960D02*
X8604896Y-11728484D01*
X8604896Y-11728484D02*
X8547753Y-11728484D01*
X8547753Y-11728484D02*
X8528706Y-11718960D01*
X8528706Y-11718960D02*
X8519182Y-11709436D01*
X8738229Y-11728484D02*
X8776325Y-11728484D01*
X8776325Y-11728484D02*
X8795372Y-11718960D01*
X8795372Y-11718960D02*
X8804896Y-11709436D01*
X8804896Y-11709436D02*
X8823944Y-11680865D01*
X8823944Y-11680865D02*
X8833468Y-11642769D01*
X8833468Y-11642769D02*
X8833468Y-11566579D01*
X8833468Y-11566579D02*
X8823944Y-11547531D01*
X8823944Y-11547531D02*
X8814420Y-11538008D01*
X8814420Y-11538008D02*
X8795372Y-11528484D01*
X8795372Y-11528484D02*
X8757277Y-11528484D01*
X8757277Y-11528484D02*
X8738229Y-11538008D01*
X8738229Y-11538008D02*
X8728706Y-11547531D01*
X8728706Y-11547531D02*
X8719182Y-11566579D01*
X8719182Y-11566579D02*
X8719182Y-11614198D01*
X8719182Y-11614198D02*
X8728706Y-11633246D01*
X8728706Y-11633246D02*
X8738229Y-11642769D01*
X8738229Y-11642769D02*
X8757277Y-11652293D01*
X8757277Y-11652293D02*
X8795372Y-11652293D01*
X8795372Y-11652293D02*
X8814420Y-11642769D01*
X8814420Y-11642769D02*
X8823944Y-11633246D01*
X8823944Y-11633246D02*
X8833468Y-11614198D01*
X9004896Y-11595150D02*
X9004896Y-11728484D01*
X8957277Y-11518960D02*
X8909658Y-11661817D01*
X8909658Y-11661817D02*
X9033468Y-11661817D01*
X9100134Y-11528484D02*
X9100134Y-11566579D01*
X9176325Y-11528484D02*
X9176325Y-11566579D01*
X9471563Y-11804674D02*
X9462039Y-11795150D01*
X9462039Y-11795150D02*
X9442991Y-11766579D01*
X9442991Y-11766579D02*
X9433468Y-11747531D01*
X9433468Y-11747531D02*
X9423944Y-11718960D01*
X9423944Y-11718960D02*
X9414420Y-11671341D01*
X9414420Y-11671341D02*
X9414420Y-11633246D01*
X9414420Y-11633246D02*
X9423944Y-11585627D01*
X9423944Y-11585627D02*
X9433468Y-11557055D01*
X9433468Y-11557055D02*
X9442991Y-11538008D01*
X9442991Y-11538008D02*
X9462039Y-11509436D01*
X9462039Y-11509436D02*
X9471563Y-11499912D01*
X9557277Y-11728484D02*
X9595372Y-11728484D01*
X9595372Y-11728484D02*
X9614420Y-11718960D01*
X9614420Y-11718960D02*
X9623944Y-11709436D01*
X9623944Y-11709436D02*
X9642991Y-11680865D01*
X9642991Y-11680865D02*
X9652515Y-11642769D01*
X9652515Y-11642769D02*
X9652515Y-11566579D01*
X9652515Y-11566579D02*
X9642991Y-11547531D01*
X9642991Y-11547531D02*
X9633468Y-11538008D01*
X9633468Y-11538008D02*
X9614420Y-11528484D01*
X9614420Y-11528484D02*
X9576325Y-11528484D01*
X9576325Y-11528484D02*
X9557277Y-11538008D01*
X9557277Y-11538008D02*
X9547753Y-11547531D01*
X9547753Y-11547531D02*
X9538230Y-11566579D01*
X9538230Y-11566579D02*
X9538230Y-11614198D01*
X9538230Y-11614198D02*
X9547753Y-11633246D01*
X9547753Y-11633246D02*
X9557277Y-11642769D01*
X9557277Y-11642769D02*
X9576325Y-11652293D01*
X9576325Y-11652293D02*
X9614420Y-11652293D01*
X9614420Y-11652293D02*
X9633468Y-11642769D01*
X9633468Y-11642769D02*
X9642991Y-11633246D01*
X9642991Y-11633246D02*
X9652515Y-11614198D01*
X9823944Y-11528484D02*
X9785849Y-11528484D01*
X9785849Y-11528484D02*
X9766801Y-11538008D01*
X9766801Y-11538008D02*
X9757277Y-11547531D01*
X9757277Y-11547531D02*
X9738230Y-11576103D01*
X9738230Y-11576103D02*
X9728706Y-11614198D01*
X9728706Y-11614198D02*
X9728706Y-11690388D01*
X9728706Y-11690388D02*
X9738230Y-11709436D01*
X9738230Y-11709436D02*
X9747753Y-11718960D01*
X9747753Y-11718960D02*
X9766801Y-11728484D01*
X9766801Y-11728484D02*
X9804896Y-11728484D01*
X9804896Y-11728484D02*
X9823944Y-11718960D01*
X9823944Y-11718960D02*
X9833468Y-11709436D01*
X9833468Y-11709436D02*
X9842991Y-11690388D01*
X9842991Y-11690388D02*
X9842991Y-11642769D01*
X9842991Y-11642769D02*
X9833468Y-11623722D01*
X9833468Y-11623722D02*
X9823944Y-11614198D01*
X9823944Y-11614198D02*
X9804896Y-11604674D01*
X9804896Y-11604674D02*
X9766801Y-11604674D01*
X9766801Y-11604674D02*
X9747753Y-11614198D01*
X9747753Y-11614198D02*
X9738230Y-11623722D01*
X9738230Y-11623722D02*
X9728706Y-11642769D01*
X10081087Y-11728484D02*
X10081087Y-11528484D01*
X10166801Y-11728484D02*
X10166801Y-11623722D01*
X10166801Y-11623722D02*
X10157277Y-11604674D01*
X10157277Y-11604674D02*
X10138230Y-11595150D01*
X10138230Y-11595150D02*
X10109658Y-11595150D01*
X10109658Y-11595150D02*
X10090611Y-11604674D01*
X10090611Y-11604674D02*
X10081087Y-11614198D01*
X10290611Y-11728484D02*
X10271563Y-11718960D01*
X10271563Y-11718960D02*
X10262039Y-11709436D01*
X10262039Y-11709436D02*
X10252515Y-11690388D01*
X10252515Y-11690388D02*
X10252515Y-11633246D01*
X10252515Y-11633246D02*
X10262039Y-11614198D01*
X10262039Y-11614198D02*
X10271563Y-11604674D01*
X10271563Y-11604674D02*
X10290611Y-11595150D01*
X10290611Y-11595150D02*
X10319182Y-11595150D01*
X10319182Y-11595150D02*
X10338230Y-11604674D01*
X10338230Y-11604674D02*
X10347753Y-11614198D01*
X10347753Y-11614198D02*
X10357277Y-11633246D01*
X10357277Y-11633246D02*
X10357277Y-11690388D01*
X10357277Y-11690388D02*
X10347753Y-11709436D01*
X10347753Y-11709436D02*
X10338230Y-11718960D01*
X10338230Y-11718960D02*
X10319182Y-11728484D01*
X10319182Y-11728484D02*
X10290611Y-11728484D01*
X10471563Y-11728484D02*
X10452515Y-11718960D01*
X10452515Y-11718960D02*
X10442992Y-11699912D01*
X10442992Y-11699912D02*
X10442992Y-11528484D01*
X10623944Y-11718960D02*
X10604896Y-11728484D01*
X10604896Y-11728484D02*
X10566801Y-11728484D01*
X10566801Y-11728484D02*
X10547753Y-11718960D01*
X10547753Y-11718960D02*
X10538230Y-11699912D01*
X10538230Y-11699912D02*
X10538230Y-11623722D01*
X10538230Y-11623722D02*
X10547753Y-11604674D01*
X10547753Y-11604674D02*
X10566801Y-11595150D01*
X10566801Y-11595150D02*
X10604896Y-11595150D01*
X10604896Y-11595150D02*
X10623944Y-11604674D01*
X10623944Y-11604674D02*
X10633468Y-11623722D01*
X10633468Y-11623722D02*
X10633468Y-11642769D01*
X10633468Y-11642769D02*
X10538230Y-11661817D01*
X10709658Y-11718960D02*
X10728706Y-11728484D01*
X10728706Y-11728484D02*
X10766801Y-11728484D01*
X10766801Y-11728484D02*
X10785849Y-11718960D01*
X10785849Y-11718960D02*
X10795373Y-11699912D01*
X10795373Y-11699912D02*
X10795373Y-11690388D01*
X10795373Y-11690388D02*
X10785849Y-11671341D01*
X10785849Y-11671341D02*
X10766801Y-11661817D01*
X10766801Y-11661817D02*
X10738230Y-11661817D01*
X10738230Y-11661817D02*
X10719182Y-11652293D01*
X10719182Y-11652293D02*
X10709658Y-11633246D01*
X10709658Y-11633246D02*
X10709658Y-11623722D01*
X10709658Y-11623722D02*
X10719182Y-11604674D01*
X10719182Y-11604674D02*
X10738230Y-11595150D01*
X10738230Y-11595150D02*
X10766801Y-11595150D01*
X10766801Y-11595150D02*
X10785849Y-11604674D01*
X10862039Y-11804674D02*
X10871563Y-11795150D01*
X10871563Y-11795150D02*
X10890611Y-11766579D01*
X10890611Y-11766579D02*
X10900134Y-11747531D01*
X10900134Y-11747531D02*
X10909658Y-11718960D01*
X10909658Y-11718960D02*
X10919182Y-11671341D01*
X10919182Y-11671341D02*
X10919182Y-11633246D01*
X10919182Y-11633246D02*
X10909658Y-11585627D01*
X10909658Y-11585627D02*
X10900134Y-11557055D01*
X10900134Y-11557055D02*
X10890611Y-11538008D01*
X10890611Y-11538008D02*
X10871563Y-11509436D01*
X10871563Y-11509436D02*
X10862039Y-11499912D01*
M02*
