<?xml version="1.0"?>
<!DOCTYPE svg PUBLIC "-//W3C//DTD SVG 1.1//EN" "http://www.w3.org/Graphics/SVG/1.1/DTD/svg11.dtd">
<svg width="61.2mm" height="81.2mm" viewBox="0 0 61.2 81.2" xmlns="http://www.w3.org/2000/svg" version="1.1">
<g id="Fillet" transform="translate(30.600000,40.600000) scale(1,-1)">
<path id="Fillet_f0000"  d="M -16.0 -30.999999999999996 L -16.0 -36.99999999999999 L -16.0 -36.99999999999999 L -16.0 -30.999999999999996 L -16.0 -30.999999999999996 Z " stroke="#191919" stroke-width="0.7 px" style="stroke-width:0.7;stroke-miterlimit:4;stroke-dasharray:none;stroke-linecap:square;fill:#727980;fill-opacity:1.0;fill-rule: evenodd"/>
<path id="Fillet_f0001"  d="M -30.0 7.999999999999998 A 5 5 0 0 1 -28 4A 5 5 0 0 0 -26 1.22465e-15L -26.0 -37.0 A 3 3 0 0 1 -23 -40L -18.999999999999996 -39.99999999999999 A 3 3 0 0 1 -16 -37L -16.0 -30.999999999999996 L 16.0 -30.999999999999996 L 16.0 -36.99999999999999 A 3 3 0 0 1 19 -40L 27.0 -40.0 A 3 3 0 0 1 30 -37L 30.0 40.0 L -30.0 40.0 L -29.999999999999996 7.999999999999998 Z " stroke="#191919" stroke-width="0.7 px" style="stroke-width:0.7;stroke-miterlimit:4;stroke-dasharray:none;stroke-linecap:square;fill:#727980;fill-opacity:1.0;fill-rule: evenodd"/>
<path id="Fillet_f0002"  d="M -16.0 -36.99999999999999 A 3 3 0 0 0 -19 -40L -18.999999999999996 -39.99999999999999 A 3 3 0 0 1 -16 -37L -16.0 -36.99999999999999 Z " stroke="#191919" stroke-width="0.7 px" style="stroke-width:0.7;stroke-miterlimit:4;stroke-dasharray:none;stroke-linecap:square;fill:#727980;fill-opacity:1.0;fill-rule: evenodd"/>
<path id="Fillet_f0003"  d="M 16.0 -30.999999999999996 L -16.0 -30.999999999999996 L -16.0 -30.999999999999996 L 16.0 -30.999999999999996 L 16.0 -30.999999999999996 Z " stroke="#191919" stroke-width="0.7 px" style="stroke-width:0.7;stroke-miterlimit:4;stroke-dasharray:none;stroke-linecap:square;fill:#727980;fill-opacity:1.0;fill-rule: evenodd"/>
<path id="Fillet_f0004"  d="M -16.0 -36.99999999999999 L -16.0 -30.999999999999996 L 16.0 -30.999999999999996 L 16.0 -36.99999999999999 A 3 3 0 0 1 19 -40L 27.0 -40.0 A 3 3 0 0 1 30 -37L 30.0 40.0 L -30.0 40.0 L -29.999999999999996 7.999999999999998 A 5 5 0 0 1 -28 4A 5 5 0 0 0 -26 1.22465e-15L -26.0 -37.0 A 3 3 0 0 1 -23 -40L -18.999999999999996 -39.99999999999999 A 3 3 0 0 1 -16 -37Z " stroke="#191919" stroke-width="0.7 px" style="stroke-width:0.7;stroke-miterlimit:4;stroke-dasharray:none;stroke-linecap:square;fill:#727980;fill-opacity:1.0;fill-rule: evenodd"/>
<path id="Fillet_f0005"  d="M -22.999999999999996 -40.0 L -18.999999999999996 -39.99999999999999 L -18.999999999999996 -39.99999999999999 L -22.999999999999996 -40.0 L -22.999999999999996 -40.0 Z " stroke="#191919" stroke-width="0.7 px" style="stroke-width:0.7;stroke-miterlimit:4;stroke-dasharray:none;stroke-linecap:square;fill:#727980;fill-opacity:1.0;fill-rule: evenodd"/>
<path id="Fillet_f0006"  d="M 16.0 -36.99999999999999 L 16.0 -30.999999999999996 L 16.0 -30.999999999999996 L 16.0 -36.99999999999999 L 16.0 -36.99999999999999 Z " stroke="#191919" stroke-width="0.7 px" style="stroke-width:0.7;stroke-miterlimit:4;stroke-dasharray:none;stroke-linecap:square;fill:#727980;fill-opacity:1.0;fill-rule: evenodd"/>
<path id="Fillet_f0007"  d="M -26.0 -37.0 A 3 3 0 0 1 -23 -40L -22.999999999999996 -40.0 A 3 3 0 0 0 -26 -37L -26.0 -37.0 Z " stroke="#191919" stroke-width="0.7 px" style="stroke-width:0.7;stroke-miterlimit:4;stroke-dasharray:none;stroke-linecap:square;fill:#727980;fill-opacity:1.0;fill-rule: evenodd"/>
<path id="Fillet_f0008"  d="M 16.0 -36.99999999999999 A 3 3 0 0 1 19 -40L 19.0 -39.99999999999999 A 3 3 0 0 0 16 -37L 16.0 -36.99999999999999 Z " stroke="#191919" stroke-width="0.7 px" style="stroke-width:0.7;stroke-miterlimit:4;stroke-dasharray:none;stroke-linecap:square;fill:#727980;fill-opacity:1.0;fill-rule: evenodd"/>
<path id="Fillet_f0009"  d="M -26.0 0.0 L -26.0 -37.0 L -26.0 -37.0 L -26.0 0.0 L -26.0 0.0 Z " stroke="#191919" stroke-width="0.7 px" style="stroke-width:0.7;stroke-miterlimit:4;stroke-dasharray:none;stroke-linecap:square;fill:#727980;fill-opacity:1.0;fill-rule: evenodd"/>
<path id="Fillet_f0010"  d="M 27.0 -40.0 L 19.0 -39.99999999999999 L 19.0 -39.99999999999999 L 27.0 -40.0 L 27.0 -40.0 Z " stroke="#191919" stroke-width="0.7 px" style="stroke-width:0.7;stroke-miterlimit:4;stroke-dasharray:none;stroke-linecap:square;fill:#727980;fill-opacity:1.0;fill-rule: evenodd"/>
<path id="Fillet_f0011"  d="M -26.0 0.0 L -26.0 0.0 A 5 5 0 0 1 -28 4L -28.0 3.999999999999999 A 5 5 0 0 0 -26 1.22465e-15Z " stroke="#191919" stroke-width="0.7 px" style="stroke-width:0.7;stroke-miterlimit:4;stroke-dasharray:none;stroke-linecap:square;fill:#727980;fill-opacity:1.0;fill-rule: evenodd"/>
<path id="Fillet_f0012"  d="M 27.0 -40.0 A 3 3 0 0 1 30 -37L 30.0 -37.0 A 3 3 0 0 0 27 -40L 27.0 -40.0 Z " stroke="#191919" stroke-width="0.7 px" style="stroke-width:0.7;stroke-miterlimit:4;stroke-dasharray:none;stroke-linecap:square;fill:#727980;fill-opacity:1.0;fill-rule: evenodd"/>
<path id="Fillet_f0013"  d="M -28.0 3.9999999999999973 A 5 5 0 0 0 -30 8L -30.0 7.999999999999998 A 5 5 0 0 1 -28 4L -28.0 3.999999999999999 Z " stroke="#191919" stroke-width="0.7 px" style="stroke-width:0.7;stroke-miterlimit:4;stroke-dasharray:none;stroke-linecap:square;fill:#727980;fill-opacity:1.0;fill-rule: evenodd"/>
<path id="Fillet_f0014"  d="M 30.0 40.0 L 30.0 -37.0 L 30.0 -37.0 L 30.0 40.0 L 30.0 40.0 Z " stroke="#191919" stroke-width="0.7 px" style="stroke-width:0.7;stroke-miterlimit:4;stroke-dasharray:none;stroke-linecap:square;fill:#727980;fill-opacity:1.0;fill-rule: evenodd"/>
<path id="Fillet_f0015"  d="M -30.0 7.999999999999998 L -30.0 7.999999999999998 L -30.0 40.0 L -30.0 40.0 L -29.999999999999996 7.999999999999998 Z " stroke="#191919" stroke-width="0.7 px" style="stroke-width:0.7;stroke-miterlimit:4;stroke-dasharray:none;stroke-linecap:square;fill:#727980;fill-opacity:1.0;fill-rule: evenodd"/>
<path id="Fillet_f0016"  d="M -30.0 40.0 L 30.0 40.0 L 30.0 40.0 L -30.0 40.0 L -30.0 40.0 Z " stroke="#191919" stroke-width="0.7 px" style="stroke-width:0.7;stroke-miterlimit:4;stroke-dasharray:none;stroke-linecap:square;fill:#727980;fill-opacity:1.0;fill-rule: evenodd"/>
<title>b'Fillet'</title>
</g>
</svg>