999
FreeCAD v1.0 39109 (Git)
  0
SECTION
  2
HEADER
  9
$ACADVER
  1
AC1014
  9
$ACADMAINTVER
 70
     9
  9
$DWGCODEPAGE
  3
ANSI_1252
  9
$TEXTSTYLE
  7
STANDARD
  9
$DIMSTYLE
  2
STANDARD
  9
$DIMTXSTY
  7
STANDARD
  9
$CMLSTYLE
  2
STANDARD
  9
$LUNITS
 70
2
  9
$INSUNITS
 70
4
  9
$PEXTMAX
 10
50
 20
50
 30
50
  9
$PEXTMIN
 10
0
 20
0
 30
0
  9
$HANDSEED
  5
FFFF
  0
ENDSEC
  0
SECTION
  2
CLASSES
  0
CLASS
  1
ACDBDICTIONARYWDFLT
  2
AcDbDictionaryWithDefault
  3
ObjectDBX Classes
 90
        0
280
     0
281
     0
  0
CLASS
  1
XRECORD
  2
AcDbXrecord
  3
ObjectDBX Classes
 90
        0
280
     0
281
     0
  0
CLASS
  1
LWPOLYLINE
  2
AcDbPolyline
  3
ObjectDBX Classes
 90
        0
280
     0
281
     1
  0
ENDSEC
  0
SECTION
  2
TABLES
  0
TABLE
  2
VPORT
  5
20
330
0
100
AcDbSymbolTable
 70
     1
  0
VPORT
  5
21
330
20
100
AcDbSymbolTableRecord
100
AcDbViewportTableRecord
  2
*ACTIVE
 70
     0
  0
ENDTAB
  0
TABLE
  2
LTYPE
  5
22
330
0
100
AcDbSymbolTable
 70
     1
  0
LTYPE
  5
23
330
21
100
AcDbSymbolTableRecord
100
AcDbLinetypeTableRecord
  2
BYBLOCK
 70
     0
  3

 72
    65
 73
     0
 40
0.0
  0
LTYPE
  5
24
330
21
100
AcDbSymbolTableRecord
100
AcDbLinetypeTableRecord
  2
BYLAYER
 70
     0
  3

 72
    65
 73
     0
 40
0.0
  0
LTYPE
  5
25
330
21
100
AcDbSymbolTableRecord
100
AcDbLinetypeTableRecord
  2
CONTINUOUS
 70
     0
  3
Solid line
 72
    65
 73
     0
 40
0.0
  0
ENDTAB
  0
TABLE
  2
LAYER
  5
A33
330
0
100
AcDbSymbolTable
 70
3
  0
LAYER
  5
A34
330
A33
100
AcDbSymbolTableRecord
100
AcDbLayerTableRecord
  2
0
 70
   0
 62
   7
  6
CONTINUOUS
  0
LAYER
  5
A35
330
A33
100
AcDbSymbolTableRecord
100
AcDbLayerTableRecord
  2
View
 70
    0
 62
    7
  6
CONTINUOUS
  0
LAYER
  5
A36
330
A33
100
AcDbSymbolTableRecord
100
AcDbLayerTableRecord
  2
ProjItem
 70
    0
 62
    7
  6
CONTINUOUS
  0
ENDTAB
  0
TABLE
  2
STYLE
  5
70
330
0
100
AcDbSymbolTable
 70
     2
  0
STYLE
  5
71
330
70
100
AcDbSymbolTableRecord
100
AcDbTextStyleTableRecord
  2
STANDARD
 70
     0
 40
0.0
 41
1.0
 50
0.0
 71
     0
 42
2.5
  3
arial.ttf
  4

  0
STYLE
  5
72
330
70
100
AcDbSymbolTableRecord
100
AcDbTextStyleTableRecord
  2
ANNOTATIVE
 70
     0
 40
0.0
 41
1.0
 50
0.0
 71
     0
 42
2.5
  3
arial.ttf
  4

  0
ENDTAB
  0
TABLE
  2
VIEW
  5
73
330
0
100
AcDbSymbolTable
 70
     0
  0
ENDTAB
  0
TABLE
  2
UCS
  5
74
330
0
100
AcDbSymbolTable
 70
     0
  0
ENDTAB
  0
TABLE
  2
APPID
  5
75
330
0
100
AcDbSymbolTable
 70
     2
  0
APPID
  5
76
330
75
100
AcDbSymbolTableRecord
100
AcDbRegAppTableRecord
  2
ACAD
 70
     0
  0
APPID
  5
77
330
75
100
AcDbSymbolTableRecord
100
AcDbRegAppTableRecord
  2
ACADANNOTATIVE
 70
     0
  0
ENDTAB
  0
TABLE
  2
DIMSTYLE
  5
78
330
0
100
AcDbSymbolTable
 70
     2
  0
DIMSTYLE
105
79
330
78
100
AcDbSymbolTableRecord
100
AcDbDimStyleTableRecord
  2
STANDARD
 70
     0
  3

  4

  5

  6

  7

 40
0.0
 41
2.5
 42
0.625
 43
3.75
 44
1.25
 45
0.0
 46
0.0
 47
0.0
 48
0.0
140
2.5
141
2.5
142
0.0
143
0.03937007874016
144
1.0
145
0.0
146
1.0
147
0.625
 71
     0
 72
     0
 73
     0
 74
     0
 75
     0
 76
     0
 77
     1
 78
     8
170
     0
171
     3
172
     1
173
     0
174
     0
175
     0
176
     0
177
     0
178
     0
270
     2
271
     2
272
     2
273
     2
274
     3
340
71
275
     0
280
     0
281
     0
282
     0
283
     0
284
     8
285
     0
286
     0
287
     3
288
     0
  0
ENDTAB
  0
TABLE
  2
BLOCK_RECORD
  5
A01
330
0
100
AcDbSymbolTable
  70
5
  0
BLOCK_RECORD
  5
A02
330
A01
100
AcDbSymbolTableRecord
100
AcDbBlockTableRecord
  2
*MODEL_SPACE
  0
BLOCK_RECORD
  5
A03
330
A01
100
AcDbSymbolTableRecord
100
AcDbBlockTableRecord
  2
*PAPER_SPACE
  0
ENDTAB
  0
ENDSEC
  0
SECTION
  2
BLOCKS
  0
BLOCK
  5
A04
330
A02
100
AcDbEntity
  8
0
100
AcDbBlockBegin
  2
*MODEL_SPACE
 70
   0
 10
0
 20
0
 30
0
  3
*MODEL_SPACE
  1
 
  0
ENDBLK
  5
A05
330
A02
100
AcDbEntity
  8
0
100
AcDbBlockEnd
  0
BLOCK
  5
A06
330
A03
100
AcDbEntity
 67
1
  8
0
100
AcDbBlockBegin
  2
*PAPER_SPACE
 70
   0
 10
0
 20
0
 30
0
  3
*PAPER_SPACE
  1
 
  0
ENDBLK
  5
A07
330
A03
100
AcDbEntity
 67
    1
  8
0
100
AcDbBlockEnd
  0
ENDSEC
  0
SECTION
  2
ENTITIES
  0
LINE
  5
A08
330
A02
100
AcDbEntity
  8
View
100
AcDbLine
 10
132.500000000
 20
104.250000000
 30
0.000000000
 11
132.500000000
 21
105.750000000
 31
0.000000000
  0
SPLINE
  5
A09
330
A02
100
AcDbEntity
  8
View
100
AcDbSpline
210
0
220
0
230
1
 70
8
 71
2
 72
30
 73
27
 74
0
 40
4.712388980
 40
4.712388980
 40
4.712388980
 40
4.824588718
 40
4.824588718
 40
4.936788456
 40
4.936788456
 40
5.048988193
 40
5.048988193
 40
5.161187931
 40
5.161187931
 40
5.273387669
 40
5.273387669
 40
5.385587406
 40
5.385587406
 40
5.497787144
 40
5.497787144
 40
5.609986881
 40
5.609986881
 40
5.722186619
 40
5.722186619
 40
5.834386357
 40
5.834386357
 40
5.946586094
 40
5.946586094
 40
6.058785832
 40
6.058785832
 40
6.283185307
 40
6.283185307
 40
6.283185307
 10
132.500000000
 20
104.250000000
 30
0.000000000
 10
132.490568315
 20
104.250000000
 30
0.000000000
 10
132.481136630
 20
104.250000000
 30
0.000000000
 10
132.452960183
 20
104.250000000
 30
0.000000000
 10
132.424783737
 20
104.250000000
 30
0.000000000
 10
132.378216864
 20
104.250000000
 30
0.000000000
 10
132.331649991
 20
104.250000000
 30
0.000000000
 10
132.267278297
 20
104.250000000
 30
0.000000000
 10
132.202906604
 20
104.250000000
 30
0.000000000
 10
132.121539601
 20
104.250000000
 30
0.000000000
 10
132.040172598
 20
104.250000000
 30
0.000000000
 10
131.942833523
 20
104.250000000
 30
0.000000000
 10
131.845494447
 20
104.250000000
 30
0.000000000
 10
131.733407395
 20
104.250000000
 30
0.000000000
 10
131.621320344
 20
104.250000000
 30
0.000000000
 10
131.495894875
 20
104.250000000
 30
0.000000000
 10
131.370469406
 20
104.250000000
 30
0.000000000
 10
131.233282818
 20
104.250000000
 30
0.000000000
 10
131.096096230
 20
104.250000000
 30
0.000000000
 10
130.948873723
 20
104.250000000
 30
0.000000000
 10
130.801651217
 20
104.250000000
 30
0.000000000
 10
130.646244202
 20
104.250000000
 30
0.000000000
 10
130.490837186
 20
104.250000000
 30
0.000000000
 10
130.329199994
 20
104.250000000
 30
0.000000000
 10
130.167562802
 20
104.250000000
 30
0.000000000
 10
129.837077933
 20
104.250000000
 30
0.000000000
 10
129.500000000
 20
104.250000000
 30
0.000000000
  0
LINE
  5
A0A
330
A02
100
AcDbEntity
  8
View
100
AcDbLine
 10
132.500000000
 20
104.250000000
 30
0.000000000
 11
164.500000000
 21
104.250000000
 31
0.000000000
  0
LINE
  5
A0B
330
A02
100
AcDbEntity
  8
View
100
AcDbLine
 10
129.500000000
 20
104.250000000
 30
0.000000000
 11
125.500000000
 21
104.250000000
 31
0.000000000
  0
SPLINE
  5
A0C
330
A02
100
AcDbEntity
  8
View
100
AcDbSpline
210
0
220
0
230
1
 70
8
 71
1
 72
17
 73
15
 74
0
 40
4.712388980
 40
4.712388980
 40
4.824588718
 40
4.936788456
 40
5.048988193
 40
5.161187931
 40
5.273387669
 40
5.385587406
 40
5.497787144
 40
5.609986881
 40
5.722186619
 40
5.834386357
 40
5.946586094
 40
6.058785832
 40
6.170985570
 40
6.283185307
 40
6.283185307
 10
122.500000000
 20
104.250000000
 30
0.000000000
 10
122.518863370
 20
104.250000000
 30
0.000000000
 10
122.575216263
 20
104.250000000
 30
0.000000000
 10
122.668350009
 20
104.250000000
 30
0.000000000
 10
122.797093396
 20
104.250000000
 30
0.000000000
 10
122.959827402
 20
104.250000000
 30
0.000000000
 10
123.154505553
 20
104.250000000
 30
0.000000000
 10
123.378679656
 20
104.250000000
 30
0.000000000
 10
123.629530594
 20
104.250000000
 30
0.000000000
 10
123.903903770
 20
104.250000000
 30
0.000000000
 10
124.198348783
 20
104.250000000
 30
0.000000000
 10
124.509162814
 20
104.250000000
 30
0.000000000
 10
124.832437198
 20
104.250000000
 30
0.000000000
 10
125.164106572
 20
104.250000000
 30
0.000000000
 10
125.500000000
 20
104.250000000
 30
0.000000000
  0
SPLINE
  5
A0D
330
A02
100
AcDbEntity
  8
View
100
AcDbSpline
210
0
220
0
230
1
 70
8
 71
2
 72
30
 73
27
 74
0
 40
4.712388980
 40
4.712388980
 40
4.712388980
 40
4.824588718
 40
4.824588718
 40
4.936788456
 40
4.936788456
 40
5.048988193
 40
5.048988193
 40
5.161187931
 40
5.161187931
 40
5.273387669
 40
5.273387669
 40
5.385587406
 40
5.385587406
 40
5.497787144
 40
5.497787144
 40
5.609986881
 40
5.609986881
 40
5.722186619
 40
5.722186619
 40
5.834386357
 40
5.834386357
 40
5.946586094
 40
5.946586094
 40
6.058785832
 40
6.058785832
 40
6.283185307
 40
6.283185307
 40
6.283185307
 10
164.500000000
 20
104.250000000
 30
0.000000000
 10
164.509431685
 20
104.250000000
 30
0.000000000
 10
164.518863370
 20
104.250000000
 30
0.000000000
 10
164.547039817
 20
104.250000000
 30
0.000000000
 10
164.575216263
 20
104.250000000
 30
0.000000000
 10
164.621783136
 20
104.250000000
 30
0.000000000
 10
164.668350009
 20
104.250000000
 30
0.000000000
 10
164.732721703
 20
104.250000000
 30
0.000000000
 10
164.797093396
 20
104.250000000
 30
0.000000000
 10
164.878460399
 20
104.250000000
 30
0.000000000
 10
164.959827402
 20
104.250000000
 30
0.000000000
 10
165.057166477
 20
104.250000000
 30
0.000000000
 10
165.154505553
 20
104.250000000
 30
0.000000000
 10
165.266592605
 20
104.250000000
 30
0.000000000
 10
165.378679656
 20
104.250000000
 30
0.000000000
 10
165.504105125
 20
104.250000000
 30
0.000000000
 10
165.629530594
 20
104.250000000
 30
0.000000000
 10
165.766717182
 20
104.250000000
 30
0.000000000
 10
165.903903770
 20
104.250000000
 30
0.000000000
 10
166.051126277
 20
104.250000000
 30
0.000000000
 10
166.198348783
 20
104.250000000
 30
0.000000000
 10
166.353755798
 20
104.250000000
 30
0.000000000
 10
166.509162814
 20
104.250000000
 30
0.000000000
 10
166.670800006
 20
104.250000000
 30
0.000000000
 10
166.832437198
 20
104.250000000
 30
0.000000000
 10
167.162922067
 20
104.250000000
 30
0.000000000
 10
167.500000000
 20
104.250000000
 30
0.000000000
  0
LINE
  5
A0E
330
A02
100
AcDbEntity
  8
View
100
AcDbLine
 10
167.500000000
 20
104.250000000
 30
0.000000000
 11
175.500000000
 21
104.250000000
 31
0.000000000
  0
SPLINE
  5
A0F
330
A02
100
AcDbEntity
  8
View
100
AcDbSpline
210
0
220
0
230
1
 70
8
 71
1
 72
17
 73
15
 74
0
 40
0.000000000
 40
0.000000000
 40
0.066235373
 40
0.132470745
 40
0.198706118
 40
0.264941491
 40
0.331176864
 40
0.397412236
 40
0.463647609
 40
0.529882982
 40
0.596118354
 40
0.662353727
 40
0.728589100
 40
0.794824473
 40
0.861059845
 40
0.927295218
 40
0.927295218
 10
122.500000000
 20
104.250000000
 30
0.000000000
 10
122.489036198
 20
104.250000000
 30
0.000000000
 10
122.456192873
 20
104.250000000
 30
0.000000000
 10
122.401614060
 20
104.250000000
 30
0.000000000
 10
122.325539117
 20
104.250000000
 30
0.000000000
 10
122.228301670
 20
104.250000000
 30
0.000000000
 10
122.110328158
 20
104.250000000
 30
0.000000000
 10
121.972135955
 20
104.250000000
 30
0.000000000
 10
121.814331106
 20
104.250000000
 30
0.000000000
 10
121.637605668
 20
104.250000000
 30
0.000000000
 10
121.442734674
 20
104.250000000
 30
0.000000000
 10
121.230572734
 20
104.250000000
 30
0.000000000
 10
121.002050289
 20
104.250000000
 30
0.000000000
 10
120.758169530
 20
104.250000000
 30
0.000000000
 10
120.500000000
 20
104.250000000
 30
0.000000000
  0
SPLINE
  5
A10
330
A02
100
AcDbEntity
  8
View
100
AcDbSpline
210
0
220
0
230
1
 70
8
 71
1
 72
17
 73
15
 74
0
 40
0.000000000
 40
0.000000000
 40
0.112199738
 40
0.224399475
 40
0.336599213
 40
0.448798951
 40
0.560998688
 40
0.673198426
 40
0.785398163
 40
0.897597901
 40
1.009797639
 40
1.121997376
 40
1.234197114
 40
1.346396852
 40
1.458596589
 40
1.570796327
 40
1.570796327
 10
175.500000000
 20
104.250000000
 30
0.000000000
 10
175.835893428
 20
104.250000000
 30
0.000000000
 10
176.167562802
 20
104.250000000
 30
0.000000000
 10
176.490837186
 20
104.250000000
 30
0.000000000
 10
176.801651217
 20
104.250000000
 30
0.000000000
 10
177.096096230
 20
104.250000000
 30
0.000000000
 10
177.370469406
 20
104.250000000
 30
0.000000000
 10
177.621320344
 20
104.250000000
 30
0.000000000
 10
177.845494447
 20
104.250000000
 30
0.000000000
 10
178.040172598
 20
104.250000000
 30
0.000000000
 10
178.202906604
 20
104.250000000
 30
0.000000000
 10
178.331649991
 20
104.250000000
 30
0.000000000
 10
178.424783737
 20
104.250000000
 30
0.000000000
 10
178.481136630
 20
104.250000000
 30
0.000000000
 10
178.500000000
 20
104.250000000
 30
0.000000000
  0
SPLINE
  5
A11
330
A02
100
AcDbEntity
  8
View
100
AcDbSpline
210
0
220
0
230
1
 70
8
 71
1
 72
17
 73
15
 74
0
 40
3.141592654
 40
3.141592654
 40
3.207828026
 40
3.274063399
 40
3.340298772
 40
3.406534144
 40
3.472769517
 40
3.539004890
 40
3.605240263
 40
3.671475635
 40
3.737711008
 40
3.803946381
 40
3.870181753
 40
3.936417126
 40
4.002652499
 40
4.068887872
 40
4.068887872
 10
118.500000000
 20
104.250000000
 30
0.000000000
 10
118.510963802
 20
104.250000000
 30
0.000000000
 10
118.543807127
 20
104.250000000
 30
0.000000000
 10
118.598385940
 20
104.250000000
 30
0.000000000
 10
118.674460883
 20
104.250000000
 30
0.000000000
 10
118.771698330
 20
104.250000000
 30
0.000000000
 10
118.889671842
 20
104.250000000
 30
0.000000000
 10
119.027864045
 20
104.250000000
 30
0.000000000
 10
119.185668894
 20
104.250000000
 30
0.000000000
 10
119.362394332
 20
104.250000000
 30
0.000000000
 10
119.557265326
 20
104.250000000
 30
0.000000000
 10
119.769427266
 20
104.250000000
 30
0.000000000
 10
119.997949711
 20
104.250000000
 30
0.000000000
 10
120.241830470
 20
104.250000000
 30
0.000000000
 10
120.500000000
 20
104.250000000
 30
0.000000000
  0
SPLINE
  5
A12
330
A02
100
AcDbEntity
  8
View
100
AcDbSpline
210
0
220
0
230
1
 70
8
 71
2
 72
30
 73
27
 74
0
 40
4.712388980
 40
4.712388980
 40
4.712388980
 40
4.824588718
 40
4.824588718
 40
4.936788456
 40
4.936788456
 40
5.048988193
 40
5.048988193
 40
5.161187931
 40
5.161187931
 40
5.273387669
 40
5.273387669
 40
5.385587406
 40
5.385587406
 40
5.497787144
 40
5.497787144
 40
5.609986881
 40
5.609986881
 40
5.722186619
 40
5.722186619
 40
5.834386357
 40
5.834386357
 40
5.946586094
 40
5.946586094
 40
6.058785832
 40
6.058785832
 40
6.283185307
 40
6.283185307
 40
6.283185307
 10
132.500000000
 20
105.750000000
 30
0.000000000
 10
132.490568315
 20
105.750000000
 30
0.000000000
 10
132.481136630
 20
105.750000000
 30
0.000000000
 10
132.452960183
 20
105.750000000
 30
0.000000000
 10
132.424783737
 20
105.750000000
 30
0.000000000
 10
132.378216864
 20
105.750000000
 30
0.000000000
 10
132.331649991
 20
105.750000000
 30
0.000000000
 10
132.267278297
 20
105.750000000
 30
0.000000000
 10
132.202906604
 20
105.750000000
 30
0.000000000
 10
132.121539601
 20
105.750000000
 30
0.000000000
 10
132.040172598
 20
105.750000000
 30
0.000000000
 10
131.942833523
 20
105.750000000
 30
0.000000000
 10
131.845494447
 20
105.750000000
 30
0.000000000
 10
131.733407395
 20
105.750000000
 30
0.000000000
 10
131.621320344
 20
105.750000000
 30
0.000000000
 10
131.495894875
 20
105.750000000
 30
0.000000000
 10
131.370469406
 20
105.750000000
 30
0.000000000
 10
131.233282818
 20
105.750000000
 30
0.000000000
 10
131.096096230
 20
105.750000000
 30
0.000000000
 10
130.948873723
 20
105.750000000
 30
0.000000000
 10
130.801651217
 20
105.750000000
 30
0.000000000
 10
130.646244202
 20
105.750000000
 30
0.000000000
 10
130.490837186
 20
105.750000000
 30
0.000000000
 10
130.329199994
 20
105.750000000
 30
0.000000000
 10
130.167562802
 20
105.750000000
 30
0.000000000
 10
129.837077933
 20
105.750000000
 30
0.000000000
 10
129.500000000
 20
105.750000000
 30
0.000000000
  0
LINE
  5
A13
330
A02
100
AcDbEntity
  8
View
100
AcDbLine
 10
132.500000000
 20
105.750000000
 30
0.000000000
 11
164.500000000
 21
105.750000000
 31
0.000000000
  0
LINE
  5
A14
330
A02
100
AcDbEntity
  8
View
100
AcDbLine
 10
129.500000000
 20
105.750000000
 30
0.000000000
 11
125.500000000
 21
105.750000000
 31
0.000000000
  0
SPLINE
  5
A15
330
A02
100
AcDbEntity
  8
View
100
AcDbSpline
210
0
220
0
230
1
 70
8
 71
1
 72
17
 73
15
 74
0
 40
4.712388980
 40
4.712388980
 40
4.824588718
 40
4.936788456
 40
5.048988193
 40
5.161187931
 40
5.273387669
 40
5.385587406
 40
5.497787144
 40
5.609986881
 40
5.722186619
 40
5.834386357
 40
5.946586094
 40
6.058785832
 40
6.170985570
 40
6.283185307
 40
6.283185307
 10
122.500000000
 20
105.750000000
 30
0.000000000
 10
122.518863370
 20
105.750000000
 30
0.000000000
 10
122.575216263
 20
105.750000000
 30
0.000000000
 10
122.668350009
 20
105.750000000
 30
0.000000000
 10
122.797093396
 20
105.750000000
 30
0.000000000
 10
122.959827402
 20
105.750000000
 30
0.000000000
 10
123.154505553
 20
105.750000000
 30
0.000000000
 10
123.378679656
 20
105.750000000
 30
0.000000000
 10
123.629530594
 20
105.750000000
 30
0.000000000
 10
123.903903770
 20
105.750000000
 30
0.000000000
 10
124.198348783
 20
105.750000000
 30
0.000000000
 10
124.509162814
 20
105.750000000
 30
0.000000000
 10
124.832437198
 20
105.750000000
 30
0.000000000
 10
125.164106572
 20
105.750000000
 30
0.000000000
 10
125.500000000
 20
105.750000000
 30
0.000000000
  0
SPLINE
  5
A16
330
A02
100
AcDbEntity
  8
View
100
AcDbSpline
210
0
220
0
230
1
 70
8
 71
2
 72
30
 73
27
 74
0
 40
4.712388980
 40
4.712388980
 40
4.712388980
 40
4.824588718
 40
4.824588718
 40
4.936788456
 40
4.936788456
 40
5.048988193
 40
5.048988193
 40
5.161187931
 40
5.161187931
 40
5.273387669
 40
5.273387669
 40
5.385587406
 40
5.385587406
 40
5.497787144
 40
5.497787144
 40
5.609986881
 40
5.609986881
 40
5.722186619
 40
5.722186619
 40
5.834386357
 40
5.834386357
 40
5.946586094
 40
5.946586094
 40
6.058785832
 40
6.058785832
 40
6.283185307
 40
6.283185307
 40
6.283185307
 10
164.500000000
 20
105.750000000
 30
0.000000000
 10
164.509431685
 20
105.750000000
 30
0.000000000
 10
164.518863370
 20
105.750000000
 30
0.000000000
 10
164.547039817
 20
105.750000000
 30
0.000000000
 10
164.575216263
 20
105.750000000
 30
0.000000000
 10
164.621783136
 20
105.750000000
 30
0.000000000
 10
164.668350009
 20
105.750000000
 30
0.000000000
 10
164.732721703
 20
105.750000000
 30
0.000000000
 10
164.797093396
 20
105.750000000
 30
0.000000000
 10
164.878460399
 20
105.750000000
 30
0.000000000
 10
164.959827402
 20
105.750000000
 30
0.000000000
 10
165.057166477
 20
105.750000000
 30
0.000000000
 10
165.154505553
 20
105.750000000
 30
0.000000000
 10
165.266592605
 20
105.750000000
 30
0.000000000
 10
165.378679656
 20
105.750000000
 30
0.000000000
 10
165.504105125
 20
105.750000000
 30
0.000000000
 10
165.629530594
 20
105.750000000
 30
0.000000000
 10
165.766717182
 20
105.750000000
 30
0.000000000
 10
165.903903770
 20
105.750000000
 30
0.000000000
 10
166.051126277
 20
105.750000000
 30
0.000000000
 10
166.198348783
 20
105.750000000
 30
0.000000000
 10
166.353755798
 20
105.750000000
 30
0.000000000
 10
166.509162814
 20
105.750000000
 30
0.000000000
 10
166.670800006
 20
105.750000000
 30
0.000000000
 10
166.832437198
 20
105.750000000
 30
0.000000000
 10
167.162922067
 20
105.750000000
 30
0.000000000
 10
167.500000000
 20
105.750000000
 30
0.000000000
  0
LINE
  5
A17
330
A02
100
AcDbEntity
  8
View
100
AcDbLine
 10
167.500000000
 20
105.750000000
 30
0.000000000
 11
175.500000000
 21
105.750000000
 31
0.000000000
  0
SPLINE
  5
A18
330
A02
100
AcDbEntity
  8
View
100
AcDbSpline
210
0
220
0
230
1
 70
8
 71
1
 72
17
 73
15
 74
0
 40
0.000000000
 40
0.000000000
 40
0.066235373
 40
0.132470745
 40
0.198706118
 40
0.264941491
 40
0.331176864
 40
0.397412236
 40
0.463647609
 40
0.529882982
 40
0.596118354
 40
0.662353727
 40
0.728589100
 40
0.794824473
 40
0.861059845
 40
0.927295218
 40
0.927295218
 10
122.500000000
 20
105.750000000
 30
0.000000000
 10
122.489036198
 20
105.750000000
 30
0.000000000
 10
122.456192873
 20
105.750000000
 30
0.000000000
 10
122.401614060
 20
105.750000000
 30
0.000000000
 10
122.325539117
 20
105.750000000
 30
0.000000000
 10
122.228301670
 20
105.750000000
 30
0.000000000
 10
122.110328158
 20
105.750000000
 30
0.000000000
 10
121.972135955
 20
105.750000000
 30
0.000000000
 10
121.814331106
 20
105.750000000
 30
0.000000000
 10
121.637605668
 20
105.750000000
 30
0.000000000
 10
121.442734674
 20
105.750000000
 30
0.000000000
 10
121.230572734
 20
105.750000000
 30
0.000000000
 10
121.002050289
 20
105.750000000
 30
0.000000000
 10
120.758169530
 20
105.750000000
 30
0.000000000
 10
120.500000000
 20
105.750000000
 30
0.000000000
  0
SPLINE
  5
A19
330
A02
100
AcDbEntity
  8
View
100
AcDbSpline
210
0
220
0
230
1
 70
8
 71
1
 72
17
 73
15
 74
0
 40
0.000000000
 40
0.000000000
 40
0.112199738
 40
0.224399475
 40
0.336599213
 40
0.448798951
 40
0.560998688
 40
0.673198426
 40
0.785398163
 40
0.897597901
 40
1.009797639
 40
1.121997376
 40
1.234197114
 40
1.346396852
 40
1.458596589
 40
1.570796327
 40
1.570796327
 10
175.500000000
 20
105.750000000
 30
0.000000000
 10
175.835893428
 20
105.750000000
 30
0.000000000
 10
176.167562802
 20
105.750000000
 30
0.000000000
 10
176.490837186
 20
105.750000000
 30
0.000000000
 10
176.801651217
 20
105.750000000
 30
0.000000000
 10
177.096096230
 20
105.750000000
 30
0.000000000
 10
177.370469406
 20
105.750000000
 30
0.000000000
 10
177.621320344
 20
105.750000000
 30
0.000000000
 10
177.845494447
 20
105.750000000
 30
0.000000000
 10
178.040172598
 20
105.750000000
 30
0.000000000
 10
178.202906604
 20
105.750000000
 30
0.000000000
 10
178.331649991
 20
105.750000000
 30
0.000000000
 10
178.424783737
 20
105.750000000
 30
0.000000000
 10
178.481136630
 20
105.750000000
 30
0.000000000
 10
178.500000000
 20
105.750000000
 30
0.000000000
  0
SPLINE
  5
A1A
330
A02
100
AcDbEntity
  8
View
100
AcDbSpline
210
0
220
0
230
1
 70
8
 71
1
 72
17
 73
15
 74
0
 40
3.141592654
 40
3.141592654
 40
3.207828026
 40
3.274063399
 40
3.340298772
 40
3.406534144
 40
3.472769517
 40
3.539004890
 40
3.605240263
 40
3.671475635
 40
3.737711008
 40
3.803946381
 40
3.870181753
 40
3.936417126
 40
4.002652499
 40
4.068887872
 40
4.068887872
 10
118.500000000
 20
105.750000000
 30
0.000000000
 10
118.510963802
 20
105.750000000
 30
0.000000000
 10
118.543807127
 20
105.750000000
 30
0.000000000
 10
118.598385940
 20
105.750000000
 30
0.000000000
 10
118.674460883
 20
105.750000000
 30
0.000000000
 10
118.771698330
 20
105.750000000
 30
0.000000000
 10
118.889671842
 20
105.750000000
 30
0.000000000
 10
119.027864045
 20
105.750000000
 30
0.000000000
 10
119.185668894
 20
105.750000000
 30
0.000000000
 10
119.362394332
 20
105.750000000
 30
0.000000000
 10
119.557265326
 20
105.750000000
 30
0.000000000
 10
119.769427266
 20
105.750000000
 30
0.000000000
 10
119.997949711
 20
105.750000000
 30
0.000000000
 10
120.241830470
 20
105.750000000
 30
0.000000000
 10
120.500000000
 20
105.750000000
 30
0.000000000
  0
LINE
  5
A1B
330
A02
100
AcDbEntity
  8
View
100
AcDbLine
 10
164.500000000
 20
104.250000000
 30
0.000000000
 11
164.500000000
 21
105.750000000
 31
0.000000000
  0
LINE
  5
A1C
330
A02
100
AcDbEntity
  8
View
100
AcDbLine
 10
122.500000000
 20
104.250000000
 30
0.000000000
 11
122.500000000
 21
105.750000000
 31
0.000000000
  0
LINE
  5
A1D
330
A02
100
AcDbEntity
  8
View
100
AcDbLine
 10
178.500000000
 20
104.250000000
 30
0.000000000
 11
178.500000000
 21
105.750000000
 31
0.000000000
  0
LINE
  5
A1E
330
A02
100
AcDbEntity
  8
View
100
AcDbLine
 10
118.500000000
 20
104.250000000
 30
0.000000000
 11
118.500000000
 21
105.750000000
 31
0.000000000
  0
LINE
  5
A1F
330
A02
100
AcDbEntity
  8
View
100
AcDbLine
 10
129.500000000
 20
104.250000000
 30
0.000000000
 11
129.500000000
 21
105.750000000
 31
0.000000000
  0
LINE
  5
A20
330
A02
100
AcDbEntity
  8
View
100
AcDbLine
 10
125.500000000
 20
104.250000000
 30
0.000000000
 11
125.500000000
 21
105.750000000
 31
0.000000000
  0
LINE
  5
A21
330
A02
100
AcDbEntity
  8
View
100
AcDbLine
 10
167.500000000
 20
104.250000000
 30
0.000000000
 11
167.500000000
 21
105.750000000
 31
0.000000000
  0
LINE
  5
A22
330
A02
100
AcDbEntity
  8
View
100
AcDbLine
 10
175.500000000
 20
104.250000000
 30
0.000000000
 11
175.500000000
 21
105.750000000
 31
0.000000000
  0
LINE
  5
A23
330
A02
100
AcDbEntity
  8
View
100
AcDbLine
 10
120.500000000
 20
104.250000000
 30
0.000000000
 11
120.500000000
 21
105.750000000
 31
0.000000000
  0
LINE
  5
A24
330
A02
100
AcDbEntity
  8
ProjItem
100
AcDbLine
 10
132.500000000
 20
197.750000100
 30
0.000000000
 11
132.500000000
 21
191.750000100
 31
0.000000000
  0
ARC
  5
A25
330
A02
100
AcDbEntity
  8
ProjItem
100
AcDbCircle
 10
129.500000000
 20
197.750000100
 30
0.000000000
 40
3.000000000
100
AcDbArc
 50
0.000000000
 51
90.000000000
  0
LINE
  5
A26
330
A02
100
AcDbEntity
  8
ProjItem
100
AcDbLine
 10
132.500000000
 20
191.750000100
 30
0.000000000
 11
164.500000000
 21
191.750000100
 31
0.000000000
  0
LINE
  5
A27
330
A02
100
AcDbEntity
  8
ProjItem
100
AcDbLine
 10
129.500000000
 20
200.750000100
 30
0.000000000
 11
125.500000000
 21
200.750000100
 31
0.000000000
  0
LINE
  5
A28
330
A02
100
AcDbEntity
  8
ProjItem
100
AcDbLine
 10
164.500000000
 20
191.750000100
 30
0.000000000
 11
164.500000000
 21
197.750000100
 31
0.000000000
  0
ARC
  5
A29
330
A02
100
AcDbEntity
  8
ProjItem
100
AcDbCircle
 10
125.500000000
 20
197.750000100
 30
0.000000000
 40
3.000000000
100
AcDbArc
 50
90.000000000
 51
180.000000000
  0
ARC
  5
A2A
330
A02
100
AcDbEntity
  8
ProjItem
100
AcDbCircle
 10
167.500000000
 20
197.750000100
 30
0.000000000
 40
3.000000000
100
AcDbArc
 50
90.000000000
 51
180.000000000
  0
LINE
  5
A2B
330
A02
100
AcDbEntity
  8
ProjItem
100
AcDbLine
 10
122.500000000
 20
197.750000100
 30
0.000000000
 11
122.500000000
 21
160.750000100
 31
0.000000000
  0
LINE
  5
A2C
330
A02
100
AcDbEntity
  8
ProjItem
100
AcDbLine
 10
167.500000000
 20
200.750000100
 30
0.000000000
 11
175.500000000
 21
200.750000100
 31
0.000000000
  0
ARC
  5
A2D
330
A02
100
AcDbEntity
  8
ProjItem
100
AcDbCircle
 10
117.500000000
 20
160.750000100
 30
0.000000000
 40
5.000000000
100
AcDbArc
 50
-53.130102354
 51
0.000000000
  0
ARC
  5
A2E
330
A02
100
AcDbEntity
  8
ProjItem
100
AcDbCircle
 10
175.500000000
 20
197.750000100
 30
0.000000000
 40
3.000000000
100
AcDbArc
 50
0.000000000
 51
90.000000000
  0
ARC
  5
A2F
330
A02
100
AcDbEntity
  8
ProjItem
100
AcDbCircle
 10
123.500000000
 20
152.750000100
 30
0.000000000
 40
5.000000000
100
AcDbArc
 50
126.869897646
 51
180.000000000
  0
LINE
  5
A30
330
A02
100
AcDbEntity
  8
ProjItem
100
AcDbLine
 10
178.500000000
 20
197.750000100
 30
0.000000000
 11
178.500000000
 21
120.750000100
 31
0.000000000
  0
LINE
  5
A31
330
A02
100
AcDbEntity
  8
ProjItem
100
AcDbLine
 10
118.500000000
 20
152.750000100
 30
0.000000000
 11
118.500000000
 21
120.750000100
 31
0.000000000
  0
LINE
  5
A32
330
A02
100
AcDbEntity
  8
ProjItem
100
AcDbLine
 10
178.500000000
 20
120.750000100
 30
0.000000000
 11
118.500000000
 21
120.750000100
 31
0.000000000
  0
ENDSEC
  0
SECTION
  2
OBJECTS
  0
DICTIONARY
  5
F000
330
0
100
AcDbDictionary
  3
ACAD_GROUP
350
F001
  0
DICTIONARY
  5
F001
330
F000
100
AcDbDictionary
  0
ENDSEC
  0
EOF