%TF.GenerationSoftware,KiCad,Pcbnew,9.0.0-9.0.0-2~ubuntu24.04.1*%
%TF.CreationDate,2025-03-07T10:51:01+01:00*%
%TF.ProjectId,SensorBoard,53656e73-6f72-4426-9f61-72642e6b6963,rev?*%
%TF.SameCoordinates,Original*%
%TF.FileFunction,Drillmap*%
%TF.FilePolarity,Positive*%
%FSLAX45Y45*%
G04 Gerber Fmt 4.5, Leading zero omitted, Abs format (unit mm)*
G04 Created by KiCad (PCBNEW 9.0.0-9.0.0-2~ubuntu24.04.1) date 2025-03-07 10:51:01*
%MOMM*%
%LPD*%
G01*
G04 APERTURE LIST*
%ADD10C,0.200000*%
%ADD11C,0.100000*%
G04 APERTURE END LIST*
D10*
X18629500Y-8147000D02*
G75*
G02*
X18829500Y-8347000I0J-200000D01*
G01*
X14229500Y-8347000D02*
X14229500Y-11147000D01*
X18129500Y-8147000D02*
X18629500Y-8147000D01*
X18829500Y-8347000D02*
X18829500Y-14147000D01*
X14529500Y-8147000D02*
X14429500Y-8147000D01*
X18829500Y-14147000D02*
X13829500Y-14147000D01*
X14229500Y-11147000D02*
G75*
G02*
X14029500Y-11547000I-500000J0D01*
G01*
X17929500Y-8347000D02*
G75*
G02*
X18129500Y-8147000I200000J0D01*
G01*
X14529500Y-8147000D02*
G75*
G02*
X14729500Y-8347000I0J-200000D01*
G01*
X13829500Y-11947000D02*
X13829500Y-14147000D01*
X13829500Y-11947000D02*
G75*
G02*
X14029500Y-11547000I500000J0D01*
G01*
X14729500Y-9047000D02*
X17929500Y-9047000D01*
X17929500Y-9047000D02*
X17929500Y-8347000D01*
X14229500Y-8347000D02*
G75*
G02*
X14429500Y-8147000I200000J0D01*
G01*
X14729500Y-8347000D02*
X14729500Y-9047000D01*
D11*
X14572700Y-12912800D02*
X14602700Y-12942800D01*
X14602700Y-12912800D02*
X14572700Y-12942800D01*
X14598100Y-13420800D02*
X14628100Y-13450800D01*
X14628100Y-13420800D02*
X14598100Y-13450800D01*
X15080700Y-12506400D02*
X15110700Y-12536400D01*
X15110700Y-12506400D02*
X15080700Y-12536400D01*
X15283900Y-12074600D02*
X15313900Y-12104600D01*
X15313900Y-12074600D02*
X15283900Y-12104600D01*
X15312800Y-10856950D02*
X15342800Y-10886950D01*
X15342800Y-10856950D02*
X15312800Y-10886950D01*
X15410900Y-11515800D02*
X15440900Y-11545800D01*
X15440900Y-11515800D02*
X15410900Y-11545800D01*
X15563300Y-13573200D02*
X15593300Y-13603200D01*
X15593300Y-13573200D02*
X15563300Y-13603200D01*
X15588700Y-12735000D02*
X15618700Y-12765000D01*
X15618700Y-12735000D02*
X15588700Y-12765000D01*
X15614100Y-11160200D02*
X15644100Y-11190200D01*
X15644100Y-11160200D02*
X15614100Y-11190200D01*
X15791900Y-9610800D02*
X15821900Y-9640800D01*
X15821900Y-9610800D02*
X15791900Y-9640800D01*
X15791900Y-11592000D02*
X15821900Y-11622000D01*
X15821900Y-11592000D02*
X15791900Y-11622000D01*
X15931500Y-9610800D02*
X15961500Y-9640800D01*
X15961500Y-9610800D02*
X15931500Y-9640800D01*
X15995100Y-12176200D02*
X16025100Y-12206200D01*
X16025100Y-12176200D02*
X15995100Y-12206200D01*
X16026200Y-10996850D02*
X16056200Y-11026850D01*
X16056200Y-10996850D02*
X16026200Y-11026850D01*
X16071300Y-11684673D02*
X16101300Y-11714673D01*
X16101300Y-11684673D02*
X16071300Y-11714673D01*
X16071300Y-12201600D02*
X16101300Y-12231600D01*
X16101300Y-12201600D02*
X16071300Y-12231600D01*
X16122100Y-10931600D02*
X16152100Y-10961600D01*
X16152100Y-10931600D02*
X16122100Y-10961600D01*
X16122100Y-11566600D02*
X16152100Y-11596600D01*
X16152100Y-11566600D02*
X16122100Y-11596600D01*
X16147500Y-11121850D02*
X16177500Y-11151850D01*
X16177500Y-11121850D02*
X16147500Y-11151850D01*
X16147500Y-12404800D02*
X16177500Y-12434800D01*
X16177500Y-12404800D02*
X16147500Y-12434800D01*
X16172900Y-11922200D02*
X16202900Y-11952200D01*
X16202900Y-11922200D02*
X16172900Y-11952200D01*
X16198300Y-12125400D02*
X16228300Y-12155400D01*
X16228300Y-12125400D02*
X16198300Y-12155400D01*
X16198300Y-12531800D02*
X16228300Y-12561800D01*
X16228300Y-12531800D02*
X16198300Y-12561800D01*
X16223700Y-10931600D02*
X16253700Y-10961600D01*
X16253700Y-10931600D02*
X16223700Y-10961600D01*
X16223700Y-11185600D02*
X16253700Y-11215600D01*
X16253700Y-11185600D02*
X16223700Y-11215600D01*
X16274500Y-10093300D02*
X16304500Y-10123300D01*
X16304500Y-10093300D02*
X16274500Y-10123300D01*
X16274500Y-12417500D02*
X16304500Y-12447500D01*
X16304500Y-12417500D02*
X16274500Y-12447500D01*
X16477700Y-10144200D02*
X16507700Y-10174200D01*
X16507700Y-10144200D02*
X16477700Y-10174200D01*
X16503100Y-11846000D02*
X16533100Y-11876000D01*
X16533100Y-11846000D02*
X16503100Y-11876000D01*
X16503100Y-13446200D02*
X16533100Y-13476200D01*
X16533100Y-13446200D02*
X16503100Y-13476200D01*
X16579300Y-12049200D02*
X16609300Y-12079200D01*
X16609300Y-12049200D02*
X16579300Y-12079200D01*
X16604700Y-9712400D02*
X16634700Y-9742400D01*
X16634700Y-9712400D02*
X16604700Y-9742400D01*
X16731700Y-12049200D02*
X16761700Y-12079200D01*
X16761700Y-12049200D02*
X16731700Y-12079200D01*
X16782500Y-10525200D02*
X16812500Y-10555200D01*
X16812500Y-10525200D02*
X16782500Y-10555200D01*
X16807900Y-12836600D02*
X16837900Y-12866600D01*
X16837900Y-12836600D02*
X16807900Y-12866600D01*
X16833300Y-13573200D02*
X16863300Y-13603200D01*
X16863300Y-13573200D02*
X16833300Y-13603200D01*
X16850732Y-10668400D02*
X16880732Y-10698400D01*
X16880732Y-10668400D02*
X16850732Y-10698400D01*
X16909500Y-10753800D02*
X16939500Y-10783800D01*
X16939500Y-10753800D02*
X16909500Y-10783800D01*
X17085800Y-11541200D02*
X17115800Y-11571200D01*
X17115800Y-11541200D02*
X17085800Y-11571200D01*
X17087300Y-11439600D02*
X17117300Y-11469600D01*
X17117300Y-11439600D02*
X17087300Y-11469600D01*
X17112700Y-12023800D02*
X17142700Y-12053800D01*
X17142700Y-12023800D02*
X17112700Y-12053800D01*
X17112700Y-13039800D02*
X17142700Y-13069800D01*
X17142700Y-13039800D02*
X17112700Y-13069800D01*
X17214300Y-12912800D02*
X17244300Y-12942800D01*
X17244300Y-12912800D02*
X17214300Y-12942800D01*
X17341300Y-12023800D02*
X17371300Y-12053800D01*
X17371300Y-12023800D02*
X17341300Y-12053800D01*
X17493700Y-9585400D02*
X17523700Y-9615400D01*
X17523700Y-9585400D02*
X17493700Y-9615400D01*
X17599627Y-12231326D02*
X17629627Y-12261326D01*
X17629627Y-12231326D02*
X17599627Y-12261326D01*
X17620700Y-10449000D02*
X17650700Y-10479000D01*
X17650700Y-10449000D02*
X17620700Y-10479000D01*
X17646100Y-13039800D02*
X17676100Y-13069800D01*
X17676100Y-13039800D02*
X17646100Y-13069800D01*
X17849300Y-13725600D02*
X17879300Y-13755600D01*
X17879300Y-13725600D02*
X17849300Y-13755600D01*
X17874700Y-10779200D02*
X17904700Y-10809200D01*
X17904700Y-10779200D02*
X17874700Y-10809200D01*
X17874700Y-12430200D02*
X17904700Y-12460200D01*
X17904700Y-12430200D02*
X17874700Y-12460200D01*
X17925500Y-10233100D02*
X17955500Y-10263100D01*
X17955500Y-10233100D02*
X17925500Y-10263100D01*
X17950900Y-10423600D02*
X17980900Y-10453600D01*
X17980900Y-10423600D02*
X17950900Y-10453600D01*
X17950900Y-10550600D02*
X17980900Y-10580600D01*
X17980900Y-10550600D02*
X17950900Y-10580600D01*
X18077900Y-13014400D02*
X18107900Y-13044400D01*
X18107900Y-13014400D02*
X18077900Y-13044400D01*
X18179500Y-12963600D02*
X18209500Y-12993600D01*
X18209500Y-12963600D02*
X18179500Y-12993600D01*
X18281100Y-11211000D02*
X18311100Y-11241000D01*
X18311100Y-11211000D02*
X18281100Y-11241000D01*
X18281100Y-12074600D02*
X18311100Y-12104600D01*
X18311100Y-12074600D02*
X18281100Y-12104600D01*
X18331900Y-11312600D02*
X18361900Y-11342600D01*
X18361900Y-11312600D02*
X18331900Y-11342600D01*
X18382700Y-11515800D02*
X18412700Y-11545800D01*
X18412700Y-11515800D02*
X18382700Y-11545800D01*
X18485800Y-11553806D02*
X18515800Y-11583806D01*
X18515800Y-11553806D02*
X18485800Y-11583806D01*
X17268300Y-11285600D02*
G75*
G02*
X17238300Y-11285600I-15000J0D01*
G01*
X17238300Y-11285600D02*
G75*
G02*
X17268300Y-11285600I15000J0D01*
G01*
X17268300Y-11425600D02*
G75*
G02*
X17238300Y-11425600I-15000J0D01*
G01*
X17238300Y-11425600D02*
G75*
G02*
X17268300Y-11425600I15000J0D01*
G01*
X17338300Y-11215600D02*
G75*
G02*
X17308300Y-11215600I-15000J0D01*
G01*
X17308300Y-11215600D02*
G75*
G02*
X17338300Y-11215600I15000J0D01*
G01*
X17338300Y-11355600D02*
G75*
G02*
X17308300Y-11355600I-15000J0D01*
G01*
X17308300Y-11355600D02*
G75*
G02*
X17338300Y-11355600I15000J0D01*
G01*
X17338300Y-11495600D02*
G75*
G02*
X17308300Y-11495600I-15000J0D01*
G01*
X17308300Y-11495600D02*
G75*
G02*
X17338300Y-11495600I15000J0D01*
G01*
X17408300Y-11285600D02*
G75*
G02*
X17378300Y-11285600I-15000J0D01*
G01*
X17378300Y-11285600D02*
G75*
G02*
X17408300Y-11285600I15000J0D01*
G01*
X17408300Y-11425600D02*
G75*
G02*
X17378300Y-11425600I-15000J0D01*
G01*
X17378300Y-11425600D02*
G75*
G02*
X17408300Y-11425600I15000J0D01*
G01*
X17478300Y-11215600D02*
G75*
G02*
X17448300Y-11215600I-15000J0D01*
G01*
X17448300Y-11215600D02*
G75*
G02*
X17478300Y-11215600I15000J0D01*
G01*
X17478300Y-11355600D02*
G75*
G02*
X17448300Y-11355600I-15000J0D01*
G01*
X17448300Y-11355600D02*
G75*
G02*
X17478300Y-11355600I15000J0D01*
G01*
X17478300Y-11495600D02*
G75*
G02*
X17448300Y-11495600I-15000J0D01*
G01*
X17448300Y-11495600D02*
G75*
G02*
X17478300Y-11495600I15000J0D01*
G01*
X17548300Y-11285600D02*
G75*
G02*
X17518300Y-11285600I-15000J0D01*
G01*
X17518300Y-11285600D02*
G75*
G02*
X17548300Y-11285600I15000J0D01*
G01*
X17548300Y-11425600D02*
G75*
G02*
X17518300Y-11425600I-15000J0D01*
G01*
X17518300Y-11425600D02*
G75*
G02*
X17548300Y-11425600I15000J0D01*
G01*
X14765500Y-11177000D02*
X14765500Y-11277000D01*
X14715500Y-11227000D02*
X14815500Y-11227000D01*
X14765500Y-11431000D02*
X14765500Y-11531000D01*
X14715500Y-11481000D02*
X14815500Y-11481000D01*
X14765500Y-11685000D02*
X14765500Y-11785000D01*
X14715500Y-11735000D02*
X14815500Y-11735000D01*
X14765500Y-11939000D02*
X14765500Y-12039000D01*
X14715500Y-11989000D02*
X14815500Y-11989000D01*
X15222700Y-9982200D02*
X15222700Y-10082200D01*
X15172700Y-10032200D02*
X15272700Y-10032200D01*
X15476700Y-9982200D02*
X15476700Y-10082200D01*
X15426700Y-10032200D02*
X15526700Y-10032200D01*
X15730700Y-9982200D02*
X15730700Y-10082200D01*
X15680700Y-10032200D02*
X15780700Y-10032200D01*
D10*
X14080277Y-14468484D02*
X14080277Y-14268484D01*
X14080277Y-14268484D02*
X14127896Y-14268484D01*
X14127896Y-14268484D02*
X14156467Y-14278008D01*
X14156467Y-14278008D02*
X14175515Y-14297055D01*
X14175515Y-14297055D02*
X14185039Y-14316103D01*
X14185039Y-14316103D02*
X14194562Y-14354198D01*
X14194562Y-14354198D02*
X14194562Y-14382769D01*
X14194562Y-14382769D02*
X14185039Y-14420865D01*
X14185039Y-14420865D02*
X14175515Y-14439912D01*
X14175515Y-14439912D02*
X14156467Y-14458960D01*
X14156467Y-14458960D02*
X14127896Y-14468484D01*
X14127896Y-14468484D02*
X14080277Y-14468484D01*
X14280277Y-14468484D02*
X14280277Y-14335150D01*
X14280277Y-14373246D02*
X14289801Y-14354198D01*
X14289801Y-14354198D02*
X14299324Y-14344674D01*
X14299324Y-14344674D02*
X14318372Y-14335150D01*
X14318372Y-14335150D02*
X14337420Y-14335150D01*
X14404086Y-14468484D02*
X14404086Y-14335150D01*
X14404086Y-14268484D02*
X14394562Y-14278008D01*
X14394562Y-14278008D02*
X14404086Y-14287531D01*
X14404086Y-14287531D02*
X14413610Y-14278008D01*
X14413610Y-14278008D02*
X14404086Y-14268484D01*
X14404086Y-14268484D02*
X14404086Y-14287531D01*
X14527896Y-14468484D02*
X14508848Y-14458960D01*
X14508848Y-14458960D02*
X14499324Y-14439912D01*
X14499324Y-14439912D02*
X14499324Y-14268484D01*
X14632658Y-14468484D02*
X14613610Y-14458960D01*
X14613610Y-14458960D02*
X14604086Y-14439912D01*
X14604086Y-14439912D02*
X14604086Y-14268484D01*
X14861229Y-14468484D02*
X14861229Y-14268484D01*
X14861229Y-14268484D02*
X14927896Y-14411341D01*
X14927896Y-14411341D02*
X14994562Y-14268484D01*
X14994562Y-14268484D02*
X14994562Y-14468484D01*
X15175515Y-14468484D02*
X15175515Y-14363722D01*
X15175515Y-14363722D02*
X15165991Y-14344674D01*
X15165991Y-14344674D02*
X15146943Y-14335150D01*
X15146943Y-14335150D02*
X15108848Y-14335150D01*
X15108848Y-14335150D02*
X15089801Y-14344674D01*
X15175515Y-14458960D02*
X15156467Y-14468484D01*
X15156467Y-14468484D02*
X15108848Y-14468484D01*
X15108848Y-14468484D02*
X15089801Y-14458960D01*
X15089801Y-14458960D02*
X15080277Y-14439912D01*
X15080277Y-14439912D02*
X15080277Y-14420865D01*
X15080277Y-14420865D02*
X15089801Y-14401817D01*
X15089801Y-14401817D02*
X15108848Y-14392293D01*
X15108848Y-14392293D02*
X15156467Y-14392293D01*
X15156467Y-14392293D02*
X15175515Y-14382769D01*
X15270753Y-14335150D02*
X15270753Y-14535150D01*
X15270753Y-14344674D02*
X15289801Y-14335150D01*
X15289801Y-14335150D02*
X15327896Y-14335150D01*
X15327896Y-14335150D02*
X15346943Y-14344674D01*
X15346943Y-14344674D02*
X15356467Y-14354198D01*
X15356467Y-14354198D02*
X15365991Y-14373246D01*
X15365991Y-14373246D02*
X15365991Y-14430388D01*
X15365991Y-14430388D02*
X15356467Y-14449436D01*
X15356467Y-14449436D02*
X15346943Y-14458960D01*
X15346943Y-14458960D02*
X15327896Y-14468484D01*
X15327896Y-14468484D02*
X15289801Y-14468484D01*
X15289801Y-14468484D02*
X15270753Y-14458960D01*
X15451705Y-14449436D02*
X15461229Y-14458960D01*
X15461229Y-14458960D02*
X15451705Y-14468484D01*
X15451705Y-14468484D02*
X15442182Y-14458960D01*
X15442182Y-14458960D02*
X15451705Y-14449436D01*
X15451705Y-14449436D02*
X15451705Y-14468484D01*
X15451705Y-14344674D02*
X15461229Y-14354198D01*
X15461229Y-14354198D02*
X15451705Y-14363722D01*
X15451705Y-14363722D02*
X15442182Y-14354198D01*
X15442182Y-14354198D02*
X15451705Y-14344674D01*
X15451705Y-14344674D02*
X15451705Y-14363722D01*
D11*
X13789500Y-14782000D02*
X13819500Y-14812000D01*
X13819500Y-14782000D02*
X13789500Y-14812000D01*
D10*
X14118372Y-14688484D02*
X14137420Y-14688484D01*
X14137420Y-14688484D02*
X14156467Y-14698008D01*
X14156467Y-14698008D02*
X14165991Y-14707531D01*
X14165991Y-14707531D02*
X14175515Y-14726579D01*
X14175515Y-14726579D02*
X14185039Y-14764674D01*
X14185039Y-14764674D02*
X14185039Y-14812293D01*
X14185039Y-14812293D02*
X14175515Y-14850388D01*
X14175515Y-14850388D02*
X14165991Y-14869436D01*
X14165991Y-14869436D02*
X14156467Y-14878960D01*
X14156467Y-14878960D02*
X14137420Y-14888484D01*
X14137420Y-14888484D02*
X14118372Y-14888484D01*
X14118372Y-14888484D02*
X14099324Y-14878960D01*
X14099324Y-14878960D02*
X14089801Y-14869436D01*
X14089801Y-14869436D02*
X14080277Y-14850388D01*
X14080277Y-14850388D02*
X14070753Y-14812293D01*
X14070753Y-14812293D02*
X14070753Y-14764674D01*
X14070753Y-14764674D02*
X14080277Y-14726579D01*
X14080277Y-14726579D02*
X14089801Y-14707531D01*
X14089801Y-14707531D02*
X14099324Y-14698008D01*
X14099324Y-14698008D02*
X14118372Y-14688484D01*
X14270753Y-14869436D02*
X14280277Y-14878960D01*
X14280277Y-14878960D02*
X14270753Y-14888484D01*
X14270753Y-14888484D02*
X14261229Y-14878960D01*
X14261229Y-14878960D02*
X14270753Y-14869436D01*
X14270753Y-14869436D02*
X14270753Y-14888484D01*
X14346943Y-14688484D02*
X14470753Y-14688484D01*
X14470753Y-14688484D02*
X14404086Y-14764674D01*
X14404086Y-14764674D02*
X14432658Y-14764674D01*
X14432658Y-14764674D02*
X14451705Y-14774198D01*
X14451705Y-14774198D02*
X14461229Y-14783722D01*
X14461229Y-14783722D02*
X14470753Y-14802769D01*
X14470753Y-14802769D02*
X14470753Y-14850388D01*
X14470753Y-14850388D02*
X14461229Y-14869436D01*
X14461229Y-14869436D02*
X14451705Y-14878960D01*
X14451705Y-14878960D02*
X14432658Y-14888484D01*
X14432658Y-14888484D02*
X14375515Y-14888484D01*
X14375515Y-14888484D02*
X14356467Y-14878960D01*
X14356467Y-14878960D02*
X14346943Y-14869436D01*
X14594562Y-14688484D02*
X14613610Y-14688484D01*
X14613610Y-14688484D02*
X14632658Y-14698008D01*
X14632658Y-14698008D02*
X14642182Y-14707531D01*
X14642182Y-14707531D02*
X14651705Y-14726579D01*
X14651705Y-14726579D02*
X14661229Y-14764674D01*
X14661229Y-14764674D02*
X14661229Y-14812293D01*
X14661229Y-14812293D02*
X14651705Y-14850388D01*
X14651705Y-14850388D02*
X14642182Y-14869436D01*
X14642182Y-14869436D02*
X14632658Y-14878960D01*
X14632658Y-14878960D02*
X14613610Y-14888484D01*
X14613610Y-14888484D02*
X14594562Y-14888484D01*
X14594562Y-14888484D02*
X14575515Y-14878960D01*
X14575515Y-14878960D02*
X14565991Y-14869436D01*
X14565991Y-14869436D02*
X14556467Y-14850388D01*
X14556467Y-14850388D02*
X14546943Y-14812293D01*
X14546943Y-14812293D02*
X14546943Y-14764674D01*
X14546943Y-14764674D02*
X14556467Y-14726579D01*
X14556467Y-14726579D02*
X14565991Y-14707531D01*
X14565991Y-14707531D02*
X14575515Y-14698008D01*
X14575515Y-14698008D02*
X14594562Y-14688484D01*
X14785039Y-14688484D02*
X14804086Y-14688484D01*
X14804086Y-14688484D02*
X14823134Y-14698008D01*
X14823134Y-14698008D02*
X14832658Y-14707531D01*
X14832658Y-14707531D02*
X14842182Y-14726579D01*
X14842182Y-14726579D02*
X14851705Y-14764674D01*
X14851705Y-14764674D02*
X14851705Y-14812293D01*
X14851705Y-14812293D02*
X14842182Y-14850388D01*
X14842182Y-14850388D02*
X14832658Y-14869436D01*
X14832658Y-14869436D02*
X14823134Y-14878960D01*
X14823134Y-14878960D02*
X14804086Y-14888484D01*
X14804086Y-14888484D02*
X14785039Y-14888484D01*
X14785039Y-14888484D02*
X14765991Y-14878960D01*
X14765991Y-14878960D02*
X14756467Y-14869436D01*
X14756467Y-14869436D02*
X14746943Y-14850388D01*
X14746943Y-14850388D02*
X14737420Y-14812293D01*
X14737420Y-14812293D02*
X14737420Y-14764674D01*
X14737420Y-14764674D02*
X14746943Y-14726579D01*
X14746943Y-14726579D02*
X14756467Y-14707531D01*
X14756467Y-14707531D02*
X14765991Y-14698008D01*
X14765991Y-14698008D02*
X14785039Y-14688484D01*
X14937420Y-14888484D02*
X14937420Y-14755150D01*
X14937420Y-14774198D02*
X14946943Y-14764674D01*
X14946943Y-14764674D02*
X14965991Y-14755150D01*
X14965991Y-14755150D02*
X14994563Y-14755150D01*
X14994563Y-14755150D02*
X15013610Y-14764674D01*
X15013610Y-14764674D02*
X15023134Y-14783722D01*
X15023134Y-14783722D02*
X15023134Y-14888484D01*
X15023134Y-14783722D02*
X15032658Y-14764674D01*
X15032658Y-14764674D02*
X15051705Y-14755150D01*
X15051705Y-14755150D02*
X15080277Y-14755150D01*
X15080277Y-14755150D02*
X15099324Y-14764674D01*
X15099324Y-14764674D02*
X15108848Y-14783722D01*
X15108848Y-14783722D02*
X15108848Y-14888484D01*
X15204086Y-14888484D02*
X15204086Y-14755150D01*
X15204086Y-14774198D02*
X15213610Y-14764674D01*
X15213610Y-14764674D02*
X15232658Y-14755150D01*
X15232658Y-14755150D02*
X15261229Y-14755150D01*
X15261229Y-14755150D02*
X15280277Y-14764674D01*
X15280277Y-14764674D02*
X15289801Y-14783722D01*
X15289801Y-14783722D02*
X15289801Y-14888484D01*
X15289801Y-14783722D02*
X15299324Y-14764674D01*
X15299324Y-14764674D02*
X15318372Y-14755150D01*
X15318372Y-14755150D02*
X15346943Y-14755150D01*
X15346943Y-14755150D02*
X15365991Y-14764674D01*
X15365991Y-14764674D02*
X15375515Y-14783722D01*
X15375515Y-14783722D02*
X15375515Y-14888484D01*
X15765991Y-14678960D02*
X15594563Y-14936103D01*
X16023134Y-14688484D02*
X16042182Y-14688484D01*
X16042182Y-14688484D02*
X16061229Y-14698008D01*
X16061229Y-14698008D02*
X16070753Y-14707531D01*
X16070753Y-14707531D02*
X16080277Y-14726579D01*
X16080277Y-14726579D02*
X16089801Y-14764674D01*
X16089801Y-14764674D02*
X16089801Y-14812293D01*
X16089801Y-14812293D02*
X16080277Y-14850388D01*
X16080277Y-14850388D02*
X16070753Y-14869436D01*
X16070753Y-14869436D02*
X16061229Y-14878960D01*
X16061229Y-14878960D02*
X16042182Y-14888484D01*
X16042182Y-14888484D02*
X16023134Y-14888484D01*
X16023134Y-14888484D02*
X16004086Y-14878960D01*
X16004086Y-14878960D02*
X15994563Y-14869436D01*
X15994563Y-14869436D02*
X15985039Y-14850388D01*
X15985039Y-14850388D02*
X15975515Y-14812293D01*
X15975515Y-14812293D02*
X15975515Y-14764674D01*
X15975515Y-14764674D02*
X15985039Y-14726579D01*
X15985039Y-14726579D02*
X15994563Y-14707531D01*
X15994563Y-14707531D02*
X16004086Y-14698008D01*
X16004086Y-14698008D02*
X16023134Y-14688484D01*
X16175515Y-14869436D02*
X16185039Y-14878960D01*
X16185039Y-14878960D02*
X16175515Y-14888484D01*
X16175515Y-14888484D02*
X16165991Y-14878960D01*
X16165991Y-14878960D02*
X16175515Y-14869436D01*
X16175515Y-14869436D02*
X16175515Y-14888484D01*
X16308848Y-14688484D02*
X16327896Y-14688484D01*
X16327896Y-14688484D02*
X16346944Y-14698008D01*
X16346944Y-14698008D02*
X16356467Y-14707531D01*
X16356467Y-14707531D02*
X16365991Y-14726579D01*
X16365991Y-14726579D02*
X16375515Y-14764674D01*
X16375515Y-14764674D02*
X16375515Y-14812293D01*
X16375515Y-14812293D02*
X16365991Y-14850388D01*
X16365991Y-14850388D02*
X16356467Y-14869436D01*
X16356467Y-14869436D02*
X16346944Y-14878960D01*
X16346944Y-14878960D02*
X16327896Y-14888484D01*
X16327896Y-14888484D02*
X16308848Y-14888484D01*
X16308848Y-14888484D02*
X16289801Y-14878960D01*
X16289801Y-14878960D02*
X16280277Y-14869436D01*
X16280277Y-14869436D02*
X16270753Y-14850388D01*
X16270753Y-14850388D02*
X16261229Y-14812293D01*
X16261229Y-14812293D02*
X16261229Y-14764674D01*
X16261229Y-14764674D02*
X16270753Y-14726579D01*
X16270753Y-14726579D02*
X16280277Y-14707531D01*
X16280277Y-14707531D02*
X16289801Y-14698008D01*
X16289801Y-14698008D02*
X16308848Y-14688484D01*
X16565991Y-14888484D02*
X16451706Y-14888484D01*
X16508848Y-14888484D02*
X16508848Y-14688484D01*
X16508848Y-14688484D02*
X16489801Y-14717055D01*
X16489801Y-14717055D02*
X16470753Y-14736103D01*
X16470753Y-14736103D02*
X16451706Y-14745627D01*
X16756467Y-14888484D02*
X16642182Y-14888484D01*
X16699325Y-14888484D02*
X16699325Y-14688484D01*
X16699325Y-14688484D02*
X16680277Y-14717055D01*
X16680277Y-14717055D02*
X16661229Y-14736103D01*
X16661229Y-14736103D02*
X16642182Y-14745627D01*
X16870753Y-14774198D02*
X16851706Y-14764674D01*
X16851706Y-14764674D02*
X16842182Y-14755150D01*
X16842182Y-14755150D02*
X16832658Y-14736103D01*
X16832658Y-14736103D02*
X16832658Y-14726579D01*
X16832658Y-14726579D02*
X16842182Y-14707531D01*
X16842182Y-14707531D02*
X16851706Y-14698008D01*
X16851706Y-14698008D02*
X16870753Y-14688484D01*
X16870753Y-14688484D02*
X16908849Y-14688484D01*
X16908849Y-14688484D02*
X16927896Y-14698008D01*
X16927896Y-14698008D02*
X16937420Y-14707531D01*
X16937420Y-14707531D02*
X16946944Y-14726579D01*
X16946944Y-14726579D02*
X16946944Y-14736103D01*
X16946944Y-14736103D02*
X16937420Y-14755150D01*
X16937420Y-14755150D02*
X16927896Y-14764674D01*
X16927896Y-14764674D02*
X16908849Y-14774198D01*
X16908849Y-14774198D02*
X16870753Y-14774198D01*
X16870753Y-14774198D02*
X16851706Y-14783722D01*
X16851706Y-14783722D02*
X16842182Y-14793246D01*
X16842182Y-14793246D02*
X16832658Y-14812293D01*
X16832658Y-14812293D02*
X16832658Y-14850388D01*
X16832658Y-14850388D02*
X16842182Y-14869436D01*
X16842182Y-14869436D02*
X16851706Y-14878960D01*
X16851706Y-14878960D02*
X16870753Y-14888484D01*
X16870753Y-14888484D02*
X16908849Y-14888484D01*
X16908849Y-14888484D02*
X16927896Y-14878960D01*
X16927896Y-14878960D02*
X16937420Y-14869436D01*
X16937420Y-14869436D02*
X16946944Y-14850388D01*
X16946944Y-14850388D02*
X16946944Y-14812293D01*
X16946944Y-14812293D02*
X16937420Y-14793246D01*
X16937420Y-14793246D02*
X16927896Y-14783722D01*
X16927896Y-14783722D02*
X16908849Y-14774198D01*
X17023134Y-14688484D02*
X17023134Y-14726579D01*
X17099325Y-14688484D02*
X17099325Y-14726579D01*
X17394563Y-14964674D02*
X17385039Y-14955150D01*
X17385039Y-14955150D02*
X17365991Y-14926579D01*
X17365991Y-14926579D02*
X17356468Y-14907531D01*
X17356468Y-14907531D02*
X17346944Y-14878960D01*
X17346944Y-14878960D02*
X17337420Y-14831341D01*
X17337420Y-14831341D02*
X17337420Y-14793246D01*
X17337420Y-14793246D02*
X17346944Y-14745627D01*
X17346944Y-14745627D02*
X17356468Y-14717055D01*
X17356468Y-14717055D02*
X17365991Y-14698008D01*
X17365991Y-14698008D02*
X17385039Y-14669436D01*
X17385039Y-14669436D02*
X17394563Y-14659912D01*
X17556468Y-14688484D02*
X17518372Y-14688484D01*
X17518372Y-14688484D02*
X17499325Y-14698008D01*
X17499325Y-14698008D02*
X17489801Y-14707531D01*
X17489801Y-14707531D02*
X17470753Y-14736103D01*
X17470753Y-14736103D02*
X17461230Y-14774198D01*
X17461230Y-14774198D02*
X17461230Y-14850388D01*
X17461230Y-14850388D02*
X17470753Y-14869436D01*
X17470753Y-14869436D02*
X17480277Y-14878960D01*
X17480277Y-14878960D02*
X17499325Y-14888484D01*
X17499325Y-14888484D02*
X17537420Y-14888484D01*
X17537420Y-14888484D02*
X17556468Y-14878960D01*
X17556468Y-14878960D02*
X17565991Y-14869436D01*
X17565991Y-14869436D02*
X17575515Y-14850388D01*
X17575515Y-14850388D02*
X17575515Y-14802769D01*
X17575515Y-14802769D02*
X17565991Y-14783722D01*
X17565991Y-14783722D02*
X17556468Y-14774198D01*
X17556468Y-14774198D02*
X17537420Y-14764674D01*
X17537420Y-14764674D02*
X17499325Y-14764674D01*
X17499325Y-14764674D02*
X17480277Y-14774198D01*
X17480277Y-14774198D02*
X17470753Y-14783722D01*
X17470753Y-14783722D02*
X17461230Y-14802769D01*
X17765991Y-14888484D02*
X17651706Y-14888484D01*
X17708849Y-14888484D02*
X17708849Y-14688484D01*
X17708849Y-14688484D02*
X17689801Y-14717055D01*
X17689801Y-14717055D02*
X17670753Y-14736103D01*
X17670753Y-14736103D02*
X17651706Y-14745627D01*
X18004087Y-14888484D02*
X18004087Y-14688484D01*
X18089801Y-14888484D02*
X18089801Y-14783722D01*
X18089801Y-14783722D02*
X18080277Y-14764674D01*
X18080277Y-14764674D02*
X18061230Y-14755150D01*
X18061230Y-14755150D02*
X18032658Y-14755150D01*
X18032658Y-14755150D02*
X18013611Y-14764674D01*
X18013611Y-14764674D02*
X18004087Y-14774198D01*
X18213611Y-14888484D02*
X18194563Y-14878960D01*
X18194563Y-14878960D02*
X18185039Y-14869436D01*
X18185039Y-14869436D02*
X18175515Y-14850388D01*
X18175515Y-14850388D02*
X18175515Y-14793246D01*
X18175515Y-14793246D02*
X18185039Y-14774198D01*
X18185039Y-14774198D02*
X18194563Y-14764674D01*
X18194563Y-14764674D02*
X18213611Y-14755150D01*
X18213611Y-14755150D02*
X18242182Y-14755150D01*
X18242182Y-14755150D02*
X18261230Y-14764674D01*
X18261230Y-14764674D02*
X18270753Y-14774198D01*
X18270753Y-14774198D02*
X18280277Y-14793246D01*
X18280277Y-14793246D02*
X18280277Y-14850388D01*
X18280277Y-14850388D02*
X18270753Y-14869436D01*
X18270753Y-14869436D02*
X18261230Y-14878960D01*
X18261230Y-14878960D02*
X18242182Y-14888484D01*
X18242182Y-14888484D02*
X18213611Y-14888484D01*
X18394563Y-14888484D02*
X18375515Y-14878960D01*
X18375515Y-14878960D02*
X18365992Y-14859912D01*
X18365992Y-14859912D02*
X18365992Y-14688484D01*
X18546944Y-14878960D02*
X18527896Y-14888484D01*
X18527896Y-14888484D02*
X18489801Y-14888484D01*
X18489801Y-14888484D02*
X18470753Y-14878960D01*
X18470753Y-14878960D02*
X18461230Y-14859912D01*
X18461230Y-14859912D02*
X18461230Y-14783722D01*
X18461230Y-14783722D02*
X18470753Y-14764674D01*
X18470753Y-14764674D02*
X18489801Y-14755150D01*
X18489801Y-14755150D02*
X18527896Y-14755150D01*
X18527896Y-14755150D02*
X18546944Y-14764674D01*
X18546944Y-14764674D02*
X18556468Y-14783722D01*
X18556468Y-14783722D02*
X18556468Y-14802769D01*
X18556468Y-14802769D02*
X18461230Y-14821817D01*
X18632658Y-14878960D02*
X18651706Y-14888484D01*
X18651706Y-14888484D02*
X18689801Y-14888484D01*
X18689801Y-14888484D02*
X18708849Y-14878960D01*
X18708849Y-14878960D02*
X18718373Y-14859912D01*
X18718373Y-14859912D02*
X18718373Y-14850388D01*
X18718373Y-14850388D02*
X18708849Y-14831341D01*
X18708849Y-14831341D02*
X18689801Y-14821817D01*
X18689801Y-14821817D02*
X18661230Y-14821817D01*
X18661230Y-14821817D02*
X18642182Y-14812293D01*
X18642182Y-14812293D02*
X18632658Y-14793246D01*
X18632658Y-14793246D02*
X18632658Y-14783722D01*
X18632658Y-14783722D02*
X18642182Y-14764674D01*
X18642182Y-14764674D02*
X18661230Y-14755150D01*
X18661230Y-14755150D02*
X18689801Y-14755150D01*
X18689801Y-14755150D02*
X18708849Y-14764674D01*
X18785039Y-14964674D02*
X18794563Y-14955150D01*
X18794563Y-14955150D02*
X18813611Y-14926579D01*
X18813611Y-14926579D02*
X18823134Y-14907531D01*
X18823134Y-14907531D02*
X18832658Y-14878960D01*
X18832658Y-14878960D02*
X18842182Y-14831341D01*
X18842182Y-14831341D02*
X18842182Y-14793246D01*
X18842182Y-14793246D02*
X18832658Y-14745627D01*
X18832658Y-14745627D02*
X18823134Y-14717055D01*
X18823134Y-14717055D02*
X18813611Y-14698008D01*
X18813611Y-14698008D02*
X18794563Y-14669436D01*
X18794563Y-14669436D02*
X18785039Y-14659912D01*
D11*
X13819500Y-15061000D02*
G75*
G02*
X13789500Y-15061000I-15000J0D01*
G01*
X13789500Y-15061000D02*
G75*
G02*
X13819500Y-15061000I15000J0D01*
G01*
D10*
X14118372Y-14952484D02*
X14137420Y-14952484D01*
X14137420Y-14952484D02*
X14156467Y-14962008D01*
X14156467Y-14962008D02*
X14165991Y-14971531D01*
X14165991Y-14971531D02*
X14175515Y-14990579D01*
X14175515Y-14990579D02*
X14185039Y-15028674D01*
X14185039Y-15028674D02*
X14185039Y-15076293D01*
X14185039Y-15076293D02*
X14175515Y-15114388D01*
X14175515Y-15114388D02*
X14165991Y-15133436D01*
X14165991Y-15133436D02*
X14156467Y-15142960D01*
X14156467Y-15142960D02*
X14137420Y-15152484D01*
X14137420Y-15152484D02*
X14118372Y-15152484D01*
X14118372Y-15152484D02*
X14099324Y-15142960D01*
X14099324Y-15142960D02*
X14089801Y-15133436D01*
X14089801Y-15133436D02*
X14080277Y-15114388D01*
X14080277Y-15114388D02*
X14070753Y-15076293D01*
X14070753Y-15076293D02*
X14070753Y-15028674D01*
X14070753Y-15028674D02*
X14080277Y-14990579D01*
X14080277Y-14990579D02*
X14089801Y-14971531D01*
X14089801Y-14971531D02*
X14099324Y-14962008D01*
X14099324Y-14962008D02*
X14118372Y-14952484D01*
X14270753Y-15133436D02*
X14280277Y-15142960D01*
X14280277Y-15142960D02*
X14270753Y-15152484D01*
X14270753Y-15152484D02*
X14261229Y-15142960D01*
X14261229Y-15142960D02*
X14270753Y-15133436D01*
X14270753Y-15133436D02*
X14270753Y-15152484D01*
X14346943Y-14952484D02*
X14470753Y-14952484D01*
X14470753Y-14952484D02*
X14404086Y-15028674D01*
X14404086Y-15028674D02*
X14432658Y-15028674D01*
X14432658Y-15028674D02*
X14451705Y-15038198D01*
X14451705Y-15038198D02*
X14461229Y-15047722D01*
X14461229Y-15047722D02*
X14470753Y-15066769D01*
X14470753Y-15066769D02*
X14470753Y-15114388D01*
X14470753Y-15114388D02*
X14461229Y-15133436D01*
X14461229Y-15133436D02*
X14451705Y-15142960D01*
X14451705Y-15142960D02*
X14432658Y-15152484D01*
X14432658Y-15152484D02*
X14375515Y-15152484D01*
X14375515Y-15152484D02*
X14356467Y-15142960D01*
X14356467Y-15142960D02*
X14346943Y-15133436D01*
X14594562Y-14952484D02*
X14613610Y-14952484D01*
X14613610Y-14952484D02*
X14632658Y-14962008D01*
X14632658Y-14962008D02*
X14642182Y-14971531D01*
X14642182Y-14971531D02*
X14651705Y-14990579D01*
X14651705Y-14990579D02*
X14661229Y-15028674D01*
X14661229Y-15028674D02*
X14661229Y-15076293D01*
X14661229Y-15076293D02*
X14651705Y-15114388D01*
X14651705Y-15114388D02*
X14642182Y-15133436D01*
X14642182Y-15133436D02*
X14632658Y-15142960D01*
X14632658Y-15142960D02*
X14613610Y-15152484D01*
X14613610Y-15152484D02*
X14594562Y-15152484D01*
X14594562Y-15152484D02*
X14575515Y-15142960D01*
X14575515Y-15142960D02*
X14565991Y-15133436D01*
X14565991Y-15133436D02*
X14556467Y-15114388D01*
X14556467Y-15114388D02*
X14546943Y-15076293D01*
X14546943Y-15076293D02*
X14546943Y-15028674D01*
X14546943Y-15028674D02*
X14556467Y-14990579D01*
X14556467Y-14990579D02*
X14565991Y-14971531D01*
X14565991Y-14971531D02*
X14575515Y-14962008D01*
X14575515Y-14962008D02*
X14594562Y-14952484D01*
X14785039Y-14952484D02*
X14804086Y-14952484D01*
X14804086Y-14952484D02*
X14823134Y-14962008D01*
X14823134Y-14962008D02*
X14832658Y-14971531D01*
X14832658Y-14971531D02*
X14842182Y-14990579D01*
X14842182Y-14990579D02*
X14851705Y-15028674D01*
X14851705Y-15028674D02*
X14851705Y-15076293D01*
X14851705Y-15076293D02*
X14842182Y-15114388D01*
X14842182Y-15114388D02*
X14832658Y-15133436D01*
X14832658Y-15133436D02*
X14823134Y-15142960D01*
X14823134Y-15142960D02*
X14804086Y-15152484D01*
X14804086Y-15152484D02*
X14785039Y-15152484D01*
X14785039Y-15152484D02*
X14765991Y-15142960D01*
X14765991Y-15142960D02*
X14756467Y-15133436D01*
X14756467Y-15133436D02*
X14746943Y-15114388D01*
X14746943Y-15114388D02*
X14737420Y-15076293D01*
X14737420Y-15076293D02*
X14737420Y-15028674D01*
X14737420Y-15028674D02*
X14746943Y-14990579D01*
X14746943Y-14990579D02*
X14756467Y-14971531D01*
X14756467Y-14971531D02*
X14765991Y-14962008D01*
X14765991Y-14962008D02*
X14785039Y-14952484D01*
X14937420Y-15152484D02*
X14937420Y-15019150D01*
X14937420Y-15038198D02*
X14946943Y-15028674D01*
X14946943Y-15028674D02*
X14965991Y-15019150D01*
X14965991Y-15019150D02*
X14994563Y-15019150D01*
X14994563Y-15019150D02*
X15013610Y-15028674D01*
X15013610Y-15028674D02*
X15023134Y-15047722D01*
X15023134Y-15047722D02*
X15023134Y-15152484D01*
X15023134Y-15047722D02*
X15032658Y-15028674D01*
X15032658Y-15028674D02*
X15051705Y-15019150D01*
X15051705Y-15019150D02*
X15080277Y-15019150D01*
X15080277Y-15019150D02*
X15099324Y-15028674D01*
X15099324Y-15028674D02*
X15108848Y-15047722D01*
X15108848Y-15047722D02*
X15108848Y-15152484D01*
X15204086Y-15152484D02*
X15204086Y-15019150D01*
X15204086Y-15038198D02*
X15213610Y-15028674D01*
X15213610Y-15028674D02*
X15232658Y-15019150D01*
X15232658Y-15019150D02*
X15261229Y-15019150D01*
X15261229Y-15019150D02*
X15280277Y-15028674D01*
X15280277Y-15028674D02*
X15289801Y-15047722D01*
X15289801Y-15047722D02*
X15289801Y-15152484D01*
X15289801Y-15047722D02*
X15299324Y-15028674D01*
X15299324Y-15028674D02*
X15318372Y-15019150D01*
X15318372Y-15019150D02*
X15346943Y-15019150D01*
X15346943Y-15019150D02*
X15365991Y-15028674D01*
X15365991Y-15028674D02*
X15375515Y-15047722D01*
X15375515Y-15047722D02*
X15375515Y-15152484D01*
X15765991Y-14942960D02*
X15594563Y-15200103D01*
X16023134Y-14952484D02*
X16042182Y-14952484D01*
X16042182Y-14952484D02*
X16061229Y-14962008D01*
X16061229Y-14962008D02*
X16070753Y-14971531D01*
X16070753Y-14971531D02*
X16080277Y-14990579D01*
X16080277Y-14990579D02*
X16089801Y-15028674D01*
X16089801Y-15028674D02*
X16089801Y-15076293D01*
X16089801Y-15076293D02*
X16080277Y-15114388D01*
X16080277Y-15114388D02*
X16070753Y-15133436D01*
X16070753Y-15133436D02*
X16061229Y-15142960D01*
X16061229Y-15142960D02*
X16042182Y-15152484D01*
X16042182Y-15152484D02*
X16023134Y-15152484D01*
X16023134Y-15152484D02*
X16004086Y-15142960D01*
X16004086Y-15142960D02*
X15994563Y-15133436D01*
X15994563Y-15133436D02*
X15985039Y-15114388D01*
X15985039Y-15114388D02*
X15975515Y-15076293D01*
X15975515Y-15076293D02*
X15975515Y-15028674D01*
X15975515Y-15028674D02*
X15985039Y-14990579D01*
X15985039Y-14990579D02*
X15994563Y-14971531D01*
X15994563Y-14971531D02*
X16004086Y-14962008D01*
X16004086Y-14962008D02*
X16023134Y-14952484D01*
X16175515Y-15133436D02*
X16185039Y-15142960D01*
X16185039Y-15142960D02*
X16175515Y-15152484D01*
X16175515Y-15152484D02*
X16165991Y-15142960D01*
X16165991Y-15142960D02*
X16175515Y-15133436D01*
X16175515Y-15133436D02*
X16175515Y-15152484D01*
X16308848Y-14952484D02*
X16327896Y-14952484D01*
X16327896Y-14952484D02*
X16346944Y-14962008D01*
X16346944Y-14962008D02*
X16356467Y-14971531D01*
X16356467Y-14971531D02*
X16365991Y-14990579D01*
X16365991Y-14990579D02*
X16375515Y-15028674D01*
X16375515Y-15028674D02*
X16375515Y-15076293D01*
X16375515Y-15076293D02*
X16365991Y-15114388D01*
X16365991Y-15114388D02*
X16356467Y-15133436D01*
X16356467Y-15133436D02*
X16346944Y-15142960D01*
X16346944Y-15142960D02*
X16327896Y-15152484D01*
X16327896Y-15152484D02*
X16308848Y-15152484D01*
X16308848Y-15152484D02*
X16289801Y-15142960D01*
X16289801Y-15142960D02*
X16280277Y-15133436D01*
X16280277Y-15133436D02*
X16270753Y-15114388D01*
X16270753Y-15114388D02*
X16261229Y-15076293D01*
X16261229Y-15076293D02*
X16261229Y-15028674D01*
X16261229Y-15028674D02*
X16270753Y-14990579D01*
X16270753Y-14990579D02*
X16280277Y-14971531D01*
X16280277Y-14971531D02*
X16289801Y-14962008D01*
X16289801Y-14962008D02*
X16308848Y-14952484D01*
X16565991Y-15152484D02*
X16451706Y-15152484D01*
X16508848Y-15152484D02*
X16508848Y-14952484D01*
X16508848Y-14952484D02*
X16489801Y-14981055D01*
X16489801Y-14981055D02*
X16470753Y-15000103D01*
X16470753Y-15000103D02*
X16451706Y-15009627D01*
X16756467Y-15152484D02*
X16642182Y-15152484D01*
X16699325Y-15152484D02*
X16699325Y-14952484D01*
X16699325Y-14952484D02*
X16680277Y-14981055D01*
X16680277Y-14981055D02*
X16661229Y-15000103D01*
X16661229Y-15000103D02*
X16642182Y-15009627D01*
X16870753Y-15038198D02*
X16851706Y-15028674D01*
X16851706Y-15028674D02*
X16842182Y-15019150D01*
X16842182Y-15019150D02*
X16832658Y-15000103D01*
X16832658Y-15000103D02*
X16832658Y-14990579D01*
X16832658Y-14990579D02*
X16842182Y-14971531D01*
X16842182Y-14971531D02*
X16851706Y-14962008D01*
X16851706Y-14962008D02*
X16870753Y-14952484D01*
X16870753Y-14952484D02*
X16908849Y-14952484D01*
X16908849Y-14952484D02*
X16927896Y-14962008D01*
X16927896Y-14962008D02*
X16937420Y-14971531D01*
X16937420Y-14971531D02*
X16946944Y-14990579D01*
X16946944Y-14990579D02*
X16946944Y-15000103D01*
X16946944Y-15000103D02*
X16937420Y-15019150D01*
X16937420Y-15019150D02*
X16927896Y-15028674D01*
X16927896Y-15028674D02*
X16908849Y-15038198D01*
X16908849Y-15038198D02*
X16870753Y-15038198D01*
X16870753Y-15038198D02*
X16851706Y-15047722D01*
X16851706Y-15047722D02*
X16842182Y-15057246D01*
X16842182Y-15057246D02*
X16832658Y-15076293D01*
X16832658Y-15076293D02*
X16832658Y-15114388D01*
X16832658Y-15114388D02*
X16842182Y-15133436D01*
X16842182Y-15133436D02*
X16851706Y-15142960D01*
X16851706Y-15142960D02*
X16870753Y-15152484D01*
X16870753Y-15152484D02*
X16908849Y-15152484D01*
X16908849Y-15152484D02*
X16927896Y-15142960D01*
X16927896Y-15142960D02*
X16937420Y-15133436D01*
X16937420Y-15133436D02*
X16946944Y-15114388D01*
X16946944Y-15114388D02*
X16946944Y-15076293D01*
X16946944Y-15076293D02*
X16937420Y-15057246D01*
X16937420Y-15057246D02*
X16927896Y-15047722D01*
X16927896Y-15047722D02*
X16908849Y-15038198D01*
X17023134Y-14952484D02*
X17023134Y-14990579D01*
X17099325Y-14952484D02*
X17099325Y-14990579D01*
X17394563Y-15228674D02*
X17385039Y-15219150D01*
X17385039Y-15219150D02*
X17365991Y-15190579D01*
X17365991Y-15190579D02*
X17356468Y-15171531D01*
X17356468Y-15171531D02*
X17346944Y-15142960D01*
X17346944Y-15142960D02*
X17337420Y-15095341D01*
X17337420Y-15095341D02*
X17337420Y-15057246D01*
X17337420Y-15057246D02*
X17346944Y-15009627D01*
X17346944Y-15009627D02*
X17356468Y-14981055D01*
X17356468Y-14981055D02*
X17365991Y-14962008D01*
X17365991Y-14962008D02*
X17385039Y-14933436D01*
X17385039Y-14933436D02*
X17394563Y-14923912D01*
X17575515Y-15152484D02*
X17461230Y-15152484D01*
X17518372Y-15152484D02*
X17518372Y-14952484D01*
X17518372Y-14952484D02*
X17499325Y-14981055D01*
X17499325Y-14981055D02*
X17480277Y-15000103D01*
X17480277Y-15000103D02*
X17461230Y-15009627D01*
X17651706Y-14971531D02*
X17661230Y-14962008D01*
X17661230Y-14962008D02*
X17680277Y-14952484D01*
X17680277Y-14952484D02*
X17727896Y-14952484D01*
X17727896Y-14952484D02*
X17746944Y-14962008D01*
X17746944Y-14962008D02*
X17756468Y-14971531D01*
X17756468Y-14971531D02*
X17765991Y-14990579D01*
X17765991Y-14990579D02*
X17765991Y-15009627D01*
X17765991Y-15009627D02*
X17756468Y-15038198D01*
X17756468Y-15038198D02*
X17642182Y-15152484D01*
X17642182Y-15152484D02*
X17765991Y-15152484D01*
X18004087Y-15152484D02*
X18004087Y-14952484D01*
X18089801Y-15152484D02*
X18089801Y-15047722D01*
X18089801Y-15047722D02*
X18080277Y-15028674D01*
X18080277Y-15028674D02*
X18061230Y-15019150D01*
X18061230Y-15019150D02*
X18032658Y-15019150D01*
X18032658Y-15019150D02*
X18013611Y-15028674D01*
X18013611Y-15028674D02*
X18004087Y-15038198D01*
X18213611Y-15152484D02*
X18194563Y-15142960D01*
X18194563Y-15142960D02*
X18185039Y-15133436D01*
X18185039Y-15133436D02*
X18175515Y-15114388D01*
X18175515Y-15114388D02*
X18175515Y-15057246D01*
X18175515Y-15057246D02*
X18185039Y-15038198D01*
X18185039Y-15038198D02*
X18194563Y-15028674D01*
X18194563Y-15028674D02*
X18213611Y-15019150D01*
X18213611Y-15019150D02*
X18242182Y-15019150D01*
X18242182Y-15019150D02*
X18261230Y-15028674D01*
X18261230Y-15028674D02*
X18270753Y-15038198D01*
X18270753Y-15038198D02*
X18280277Y-15057246D01*
X18280277Y-15057246D02*
X18280277Y-15114388D01*
X18280277Y-15114388D02*
X18270753Y-15133436D01*
X18270753Y-15133436D02*
X18261230Y-15142960D01*
X18261230Y-15142960D02*
X18242182Y-15152484D01*
X18242182Y-15152484D02*
X18213611Y-15152484D01*
X18394563Y-15152484D02*
X18375515Y-15142960D01*
X18375515Y-15142960D02*
X18365992Y-15123912D01*
X18365992Y-15123912D02*
X18365992Y-14952484D01*
X18546944Y-15142960D02*
X18527896Y-15152484D01*
X18527896Y-15152484D02*
X18489801Y-15152484D01*
X18489801Y-15152484D02*
X18470753Y-15142960D01*
X18470753Y-15142960D02*
X18461230Y-15123912D01*
X18461230Y-15123912D02*
X18461230Y-15047722D01*
X18461230Y-15047722D02*
X18470753Y-15028674D01*
X18470753Y-15028674D02*
X18489801Y-15019150D01*
X18489801Y-15019150D02*
X18527896Y-15019150D01*
X18527896Y-15019150D02*
X18546944Y-15028674D01*
X18546944Y-15028674D02*
X18556468Y-15047722D01*
X18556468Y-15047722D02*
X18556468Y-15066769D01*
X18556468Y-15066769D02*
X18461230Y-15085817D01*
X18632658Y-15142960D02*
X18651706Y-15152484D01*
X18651706Y-15152484D02*
X18689801Y-15152484D01*
X18689801Y-15152484D02*
X18708849Y-15142960D01*
X18708849Y-15142960D02*
X18718373Y-15123912D01*
X18718373Y-15123912D02*
X18718373Y-15114388D01*
X18718373Y-15114388D02*
X18708849Y-15095341D01*
X18708849Y-15095341D02*
X18689801Y-15085817D01*
X18689801Y-15085817D02*
X18661230Y-15085817D01*
X18661230Y-15085817D02*
X18642182Y-15076293D01*
X18642182Y-15076293D02*
X18632658Y-15057246D01*
X18632658Y-15057246D02*
X18632658Y-15047722D01*
X18632658Y-15047722D02*
X18642182Y-15028674D01*
X18642182Y-15028674D02*
X18661230Y-15019150D01*
X18661230Y-15019150D02*
X18689801Y-15019150D01*
X18689801Y-15019150D02*
X18708849Y-15028674D01*
X18785039Y-15228674D02*
X18794563Y-15219150D01*
X18794563Y-15219150D02*
X18813611Y-15190579D01*
X18813611Y-15190579D02*
X18823134Y-15171531D01*
X18823134Y-15171531D02*
X18832658Y-15142960D01*
X18832658Y-15142960D02*
X18842182Y-15095341D01*
X18842182Y-15095341D02*
X18842182Y-15057246D01*
X18842182Y-15057246D02*
X18832658Y-15009627D01*
X18832658Y-15009627D02*
X18823134Y-14981055D01*
X18823134Y-14981055D02*
X18813611Y-14962008D01*
X18813611Y-14962008D02*
X18794563Y-14933436D01*
X18794563Y-14933436D02*
X18785039Y-14923912D01*
D11*
X13769500Y-15275000D02*
X13769500Y-15375000D01*
X13719500Y-15325000D02*
X13819500Y-15325000D01*
D10*
X14185039Y-15416484D02*
X14070753Y-15416484D01*
X14127896Y-15416484D02*
X14127896Y-15216484D01*
X14127896Y-15216484D02*
X14108848Y-15245055D01*
X14108848Y-15245055D02*
X14089801Y-15264103D01*
X14089801Y-15264103D02*
X14070753Y-15273627D01*
X14270753Y-15397436D02*
X14280277Y-15406960D01*
X14280277Y-15406960D02*
X14270753Y-15416484D01*
X14270753Y-15416484D02*
X14261229Y-15406960D01*
X14261229Y-15406960D02*
X14270753Y-15397436D01*
X14270753Y-15397436D02*
X14270753Y-15416484D01*
X14404086Y-15216484D02*
X14423134Y-15216484D01*
X14423134Y-15216484D02*
X14442182Y-15226008D01*
X14442182Y-15226008D02*
X14451705Y-15235531D01*
X14451705Y-15235531D02*
X14461229Y-15254579D01*
X14461229Y-15254579D02*
X14470753Y-15292674D01*
X14470753Y-15292674D02*
X14470753Y-15340293D01*
X14470753Y-15340293D02*
X14461229Y-15378388D01*
X14461229Y-15378388D02*
X14451705Y-15397436D01*
X14451705Y-15397436D02*
X14442182Y-15406960D01*
X14442182Y-15406960D02*
X14423134Y-15416484D01*
X14423134Y-15416484D02*
X14404086Y-15416484D01*
X14404086Y-15416484D02*
X14385039Y-15406960D01*
X14385039Y-15406960D02*
X14375515Y-15397436D01*
X14375515Y-15397436D02*
X14365991Y-15378388D01*
X14365991Y-15378388D02*
X14356467Y-15340293D01*
X14356467Y-15340293D02*
X14356467Y-15292674D01*
X14356467Y-15292674D02*
X14365991Y-15254579D01*
X14365991Y-15254579D02*
X14375515Y-15235531D01*
X14375515Y-15235531D02*
X14385039Y-15226008D01*
X14385039Y-15226008D02*
X14404086Y-15216484D01*
X14594562Y-15216484D02*
X14613610Y-15216484D01*
X14613610Y-15216484D02*
X14632658Y-15226008D01*
X14632658Y-15226008D02*
X14642182Y-15235531D01*
X14642182Y-15235531D02*
X14651705Y-15254579D01*
X14651705Y-15254579D02*
X14661229Y-15292674D01*
X14661229Y-15292674D02*
X14661229Y-15340293D01*
X14661229Y-15340293D02*
X14651705Y-15378388D01*
X14651705Y-15378388D02*
X14642182Y-15397436D01*
X14642182Y-15397436D02*
X14632658Y-15406960D01*
X14632658Y-15406960D02*
X14613610Y-15416484D01*
X14613610Y-15416484D02*
X14594562Y-15416484D01*
X14594562Y-15416484D02*
X14575515Y-15406960D01*
X14575515Y-15406960D02*
X14565991Y-15397436D01*
X14565991Y-15397436D02*
X14556467Y-15378388D01*
X14556467Y-15378388D02*
X14546943Y-15340293D01*
X14546943Y-15340293D02*
X14546943Y-15292674D01*
X14546943Y-15292674D02*
X14556467Y-15254579D01*
X14556467Y-15254579D02*
X14565991Y-15235531D01*
X14565991Y-15235531D02*
X14575515Y-15226008D01*
X14575515Y-15226008D02*
X14594562Y-15216484D01*
X14785039Y-15216484D02*
X14804086Y-15216484D01*
X14804086Y-15216484D02*
X14823134Y-15226008D01*
X14823134Y-15226008D02*
X14832658Y-15235531D01*
X14832658Y-15235531D02*
X14842182Y-15254579D01*
X14842182Y-15254579D02*
X14851705Y-15292674D01*
X14851705Y-15292674D02*
X14851705Y-15340293D01*
X14851705Y-15340293D02*
X14842182Y-15378388D01*
X14842182Y-15378388D02*
X14832658Y-15397436D01*
X14832658Y-15397436D02*
X14823134Y-15406960D01*
X14823134Y-15406960D02*
X14804086Y-15416484D01*
X14804086Y-15416484D02*
X14785039Y-15416484D01*
X14785039Y-15416484D02*
X14765991Y-15406960D01*
X14765991Y-15406960D02*
X14756467Y-15397436D01*
X14756467Y-15397436D02*
X14746943Y-15378388D01*
X14746943Y-15378388D02*
X14737420Y-15340293D01*
X14737420Y-15340293D02*
X14737420Y-15292674D01*
X14737420Y-15292674D02*
X14746943Y-15254579D01*
X14746943Y-15254579D02*
X14756467Y-15235531D01*
X14756467Y-15235531D02*
X14765991Y-15226008D01*
X14765991Y-15226008D02*
X14785039Y-15216484D01*
X14937420Y-15416484D02*
X14937420Y-15283150D01*
X14937420Y-15302198D02*
X14946943Y-15292674D01*
X14946943Y-15292674D02*
X14965991Y-15283150D01*
X14965991Y-15283150D02*
X14994563Y-15283150D01*
X14994563Y-15283150D02*
X15013610Y-15292674D01*
X15013610Y-15292674D02*
X15023134Y-15311722D01*
X15023134Y-15311722D02*
X15023134Y-15416484D01*
X15023134Y-15311722D02*
X15032658Y-15292674D01*
X15032658Y-15292674D02*
X15051705Y-15283150D01*
X15051705Y-15283150D02*
X15080277Y-15283150D01*
X15080277Y-15283150D02*
X15099324Y-15292674D01*
X15099324Y-15292674D02*
X15108848Y-15311722D01*
X15108848Y-15311722D02*
X15108848Y-15416484D01*
X15204086Y-15416484D02*
X15204086Y-15283150D01*
X15204086Y-15302198D02*
X15213610Y-15292674D01*
X15213610Y-15292674D02*
X15232658Y-15283150D01*
X15232658Y-15283150D02*
X15261229Y-15283150D01*
X15261229Y-15283150D02*
X15280277Y-15292674D01*
X15280277Y-15292674D02*
X15289801Y-15311722D01*
X15289801Y-15311722D02*
X15289801Y-15416484D01*
X15289801Y-15311722D02*
X15299324Y-15292674D01*
X15299324Y-15292674D02*
X15318372Y-15283150D01*
X15318372Y-15283150D02*
X15346943Y-15283150D01*
X15346943Y-15283150D02*
X15365991Y-15292674D01*
X15365991Y-15292674D02*
X15375515Y-15311722D01*
X15375515Y-15311722D02*
X15375515Y-15416484D01*
X15765991Y-15206960D02*
X15594563Y-15464103D01*
X16023134Y-15216484D02*
X16042182Y-15216484D01*
X16042182Y-15216484D02*
X16061229Y-15226008D01*
X16061229Y-15226008D02*
X16070753Y-15235531D01*
X16070753Y-15235531D02*
X16080277Y-15254579D01*
X16080277Y-15254579D02*
X16089801Y-15292674D01*
X16089801Y-15292674D02*
X16089801Y-15340293D01*
X16089801Y-15340293D02*
X16080277Y-15378388D01*
X16080277Y-15378388D02*
X16070753Y-15397436D01*
X16070753Y-15397436D02*
X16061229Y-15406960D01*
X16061229Y-15406960D02*
X16042182Y-15416484D01*
X16042182Y-15416484D02*
X16023134Y-15416484D01*
X16023134Y-15416484D02*
X16004086Y-15406960D01*
X16004086Y-15406960D02*
X15994563Y-15397436D01*
X15994563Y-15397436D02*
X15985039Y-15378388D01*
X15985039Y-15378388D02*
X15975515Y-15340293D01*
X15975515Y-15340293D02*
X15975515Y-15292674D01*
X15975515Y-15292674D02*
X15985039Y-15254579D01*
X15985039Y-15254579D02*
X15994563Y-15235531D01*
X15994563Y-15235531D02*
X16004086Y-15226008D01*
X16004086Y-15226008D02*
X16023134Y-15216484D01*
X16175515Y-15397436D02*
X16185039Y-15406960D01*
X16185039Y-15406960D02*
X16175515Y-15416484D01*
X16175515Y-15416484D02*
X16165991Y-15406960D01*
X16165991Y-15406960D02*
X16175515Y-15397436D01*
X16175515Y-15397436D02*
X16175515Y-15416484D01*
X16308848Y-15216484D02*
X16327896Y-15216484D01*
X16327896Y-15216484D02*
X16346944Y-15226008D01*
X16346944Y-15226008D02*
X16356467Y-15235531D01*
X16356467Y-15235531D02*
X16365991Y-15254579D01*
X16365991Y-15254579D02*
X16375515Y-15292674D01*
X16375515Y-15292674D02*
X16375515Y-15340293D01*
X16375515Y-15340293D02*
X16365991Y-15378388D01*
X16365991Y-15378388D02*
X16356467Y-15397436D01*
X16356467Y-15397436D02*
X16346944Y-15406960D01*
X16346944Y-15406960D02*
X16327896Y-15416484D01*
X16327896Y-15416484D02*
X16308848Y-15416484D01*
X16308848Y-15416484D02*
X16289801Y-15406960D01*
X16289801Y-15406960D02*
X16280277Y-15397436D01*
X16280277Y-15397436D02*
X16270753Y-15378388D01*
X16270753Y-15378388D02*
X16261229Y-15340293D01*
X16261229Y-15340293D02*
X16261229Y-15292674D01*
X16261229Y-15292674D02*
X16270753Y-15254579D01*
X16270753Y-15254579D02*
X16280277Y-15235531D01*
X16280277Y-15235531D02*
X16289801Y-15226008D01*
X16289801Y-15226008D02*
X16308848Y-15216484D01*
X16442182Y-15216484D02*
X16565991Y-15216484D01*
X16565991Y-15216484D02*
X16499325Y-15292674D01*
X16499325Y-15292674D02*
X16527896Y-15292674D01*
X16527896Y-15292674D02*
X16546944Y-15302198D01*
X16546944Y-15302198D02*
X16556467Y-15311722D01*
X16556467Y-15311722D02*
X16565991Y-15330769D01*
X16565991Y-15330769D02*
X16565991Y-15378388D01*
X16565991Y-15378388D02*
X16556467Y-15397436D01*
X16556467Y-15397436D02*
X16546944Y-15406960D01*
X16546944Y-15406960D02*
X16527896Y-15416484D01*
X16527896Y-15416484D02*
X16470753Y-15416484D01*
X16470753Y-15416484D02*
X16451706Y-15406960D01*
X16451706Y-15406960D02*
X16442182Y-15397436D01*
X16661229Y-15416484D02*
X16699325Y-15416484D01*
X16699325Y-15416484D02*
X16718372Y-15406960D01*
X16718372Y-15406960D02*
X16727896Y-15397436D01*
X16727896Y-15397436D02*
X16746944Y-15368865D01*
X16746944Y-15368865D02*
X16756467Y-15330769D01*
X16756467Y-15330769D02*
X16756467Y-15254579D01*
X16756467Y-15254579D02*
X16746944Y-15235531D01*
X16746944Y-15235531D02*
X16737420Y-15226008D01*
X16737420Y-15226008D02*
X16718372Y-15216484D01*
X16718372Y-15216484D02*
X16680277Y-15216484D01*
X16680277Y-15216484D02*
X16661229Y-15226008D01*
X16661229Y-15226008D02*
X16651706Y-15235531D01*
X16651706Y-15235531D02*
X16642182Y-15254579D01*
X16642182Y-15254579D02*
X16642182Y-15302198D01*
X16642182Y-15302198D02*
X16651706Y-15321246D01*
X16651706Y-15321246D02*
X16661229Y-15330769D01*
X16661229Y-15330769D02*
X16680277Y-15340293D01*
X16680277Y-15340293D02*
X16718372Y-15340293D01*
X16718372Y-15340293D02*
X16737420Y-15330769D01*
X16737420Y-15330769D02*
X16746944Y-15321246D01*
X16746944Y-15321246D02*
X16756467Y-15302198D01*
X16927896Y-15283150D02*
X16927896Y-15416484D01*
X16880277Y-15206960D02*
X16832658Y-15349817D01*
X16832658Y-15349817D02*
X16956468Y-15349817D01*
X17023134Y-15216484D02*
X17023134Y-15254579D01*
X17099325Y-15216484D02*
X17099325Y-15254579D01*
X17394563Y-15492674D02*
X17385039Y-15483150D01*
X17385039Y-15483150D02*
X17365991Y-15454579D01*
X17365991Y-15454579D02*
X17356468Y-15435531D01*
X17356468Y-15435531D02*
X17346944Y-15406960D01*
X17346944Y-15406960D02*
X17337420Y-15359341D01*
X17337420Y-15359341D02*
X17337420Y-15321246D01*
X17337420Y-15321246D02*
X17346944Y-15273627D01*
X17346944Y-15273627D02*
X17356468Y-15245055D01*
X17356468Y-15245055D02*
X17365991Y-15226008D01*
X17365991Y-15226008D02*
X17385039Y-15197436D01*
X17385039Y-15197436D02*
X17394563Y-15187912D01*
X17451706Y-15216484D02*
X17585039Y-15216484D01*
X17585039Y-15216484D02*
X17499325Y-15416484D01*
X17813611Y-15416484D02*
X17813611Y-15216484D01*
X17899325Y-15416484D02*
X17899325Y-15311722D01*
X17899325Y-15311722D02*
X17889801Y-15292674D01*
X17889801Y-15292674D02*
X17870753Y-15283150D01*
X17870753Y-15283150D02*
X17842182Y-15283150D01*
X17842182Y-15283150D02*
X17823134Y-15292674D01*
X17823134Y-15292674D02*
X17813611Y-15302198D01*
X18023134Y-15416484D02*
X18004087Y-15406960D01*
X18004087Y-15406960D02*
X17994563Y-15397436D01*
X17994563Y-15397436D02*
X17985039Y-15378388D01*
X17985039Y-15378388D02*
X17985039Y-15321246D01*
X17985039Y-15321246D02*
X17994563Y-15302198D01*
X17994563Y-15302198D02*
X18004087Y-15292674D01*
X18004087Y-15292674D02*
X18023134Y-15283150D01*
X18023134Y-15283150D02*
X18051706Y-15283150D01*
X18051706Y-15283150D02*
X18070753Y-15292674D01*
X18070753Y-15292674D02*
X18080277Y-15302198D01*
X18080277Y-15302198D02*
X18089801Y-15321246D01*
X18089801Y-15321246D02*
X18089801Y-15378388D01*
X18089801Y-15378388D02*
X18080277Y-15397436D01*
X18080277Y-15397436D02*
X18070753Y-15406960D01*
X18070753Y-15406960D02*
X18051706Y-15416484D01*
X18051706Y-15416484D02*
X18023134Y-15416484D01*
X18204087Y-15416484D02*
X18185039Y-15406960D01*
X18185039Y-15406960D02*
X18175515Y-15387912D01*
X18175515Y-15387912D02*
X18175515Y-15216484D01*
X18356468Y-15406960D02*
X18337420Y-15416484D01*
X18337420Y-15416484D02*
X18299325Y-15416484D01*
X18299325Y-15416484D02*
X18280277Y-15406960D01*
X18280277Y-15406960D02*
X18270753Y-15387912D01*
X18270753Y-15387912D02*
X18270753Y-15311722D01*
X18270753Y-15311722D02*
X18280277Y-15292674D01*
X18280277Y-15292674D02*
X18299325Y-15283150D01*
X18299325Y-15283150D02*
X18337420Y-15283150D01*
X18337420Y-15283150D02*
X18356468Y-15292674D01*
X18356468Y-15292674D02*
X18365992Y-15311722D01*
X18365992Y-15311722D02*
X18365992Y-15330769D01*
X18365992Y-15330769D02*
X18270753Y-15349817D01*
X18442182Y-15406960D02*
X18461230Y-15416484D01*
X18461230Y-15416484D02*
X18499325Y-15416484D01*
X18499325Y-15416484D02*
X18518373Y-15406960D01*
X18518373Y-15406960D02*
X18527896Y-15387912D01*
X18527896Y-15387912D02*
X18527896Y-15378388D01*
X18527896Y-15378388D02*
X18518373Y-15359341D01*
X18518373Y-15359341D02*
X18499325Y-15349817D01*
X18499325Y-15349817D02*
X18470753Y-15349817D01*
X18470753Y-15349817D02*
X18451706Y-15340293D01*
X18451706Y-15340293D02*
X18442182Y-15321246D01*
X18442182Y-15321246D02*
X18442182Y-15311722D01*
X18442182Y-15311722D02*
X18451706Y-15292674D01*
X18451706Y-15292674D02*
X18470753Y-15283150D01*
X18470753Y-15283150D02*
X18499325Y-15283150D01*
X18499325Y-15283150D02*
X18518373Y-15292674D01*
X18594563Y-15492674D02*
X18604087Y-15483150D01*
X18604087Y-15483150D02*
X18623134Y-15454579D01*
X18623134Y-15454579D02*
X18632658Y-15435531D01*
X18632658Y-15435531D02*
X18642182Y-15406960D01*
X18642182Y-15406960D02*
X18651706Y-15359341D01*
X18651706Y-15359341D02*
X18651706Y-15321246D01*
X18651706Y-15321246D02*
X18642182Y-15273627D01*
X18642182Y-15273627D02*
X18632658Y-15245055D01*
X18632658Y-15245055D02*
X18623134Y-15226008D01*
X18623134Y-15226008D02*
X18604087Y-15197436D01*
X18604087Y-15197436D02*
X18594563Y-15187912D01*
M02*
