%TF.GenerationSoftware,KiCad,Pcbnew,9.0.0-9.0.0-2~ubuntu24.04.1*%
%TF.CreationDate,2025-03-07T10:50:57+01:00*%
%TF.ProjectId,SensorBoard,53656e73-6f72-4426-9f61-72642e6b6963,rev?*%
%TF.SameCoordinates,Original*%
%TF.FileFunction,Legend,Bot*%
%TF.FilePolarity,Positive*%
%FSLAX46Y46*%
G04 Gerber Fmt 4.6, Leading zero omitted, Abs format (unit mm)*
G04 Created by KiCad (PCBNEW 9.0.0-9.0.0-2~ubuntu24.04.1) date 2025-03-07 10:50:57*
%MOMM*%
%LPD*%
G01*
G04 APERTURE LIST*
G04 Aperture macros list*
%AMRoundRect*
0 Rectangle with rounded corners*
0 $1 Rounding radius*
0 $2 $3 $4 $5 $6 $7 $8 $9 X,Y pos of 4 corners*
0 Add a 4 corners polygon primitive as box body*
4,1,4,$2,$3,$4,$5,$6,$7,$8,$9,$2,$3,0*
0 Add four circle primitives for the rounded corners*
1,1,$1+$1,$2,$3*
1,1,$1+$1,$4,$5*
1,1,$1+$1,$6,$7*
1,1,$1+$1,$8,$9*
0 Add four rect primitives between the rounded corners*
20,1,$1+$1,$2,$3,$4,$5,0*
20,1,$1+$1,$4,$5,$6,$7,0*
20,1,$1+$1,$6,$7,$8,$9,0*
20,1,$1+$1,$8,$9,$2,$3,0*%
G04 Aperture macros list end*
%ADD10C,0.200000*%
%ADD11C,0.150000*%
%ADD12C,0.250000*%
%ADD13C,0.000250*%
%ADD14C,0.120000*%
%ADD15C,0.010000*%
%ADD16C,0.100000*%
%ADD17C,0.000000*%
%ADD18C,1.000000*%
%ADD19C,3.200000*%
%ADD20R,1.700000X1.700000*%
%ADD21O,1.700000X1.700000*%
%ADD22R,1.500000X4.000000*%
%ADD23RoundRect,0.237500X0.237500X-0.250000X0.237500X0.250000X-0.237500X0.250000X-0.237500X-0.250000X0*%
%ADD24C,1.050000*%
%ADD25RoundRect,0.240000X-0.560000X-0.560000X0.560000X-0.560000X0.560000X0.560000X-0.560000X0.560000X0*%
%ADD26RoundRect,0.240000X-0.560000X-0.710000X0.560000X-0.710000X0.560000X0.710000X-0.560000X0.710000X0*%
%ADD27R,0.700000X2.000000*%
%ADD28R,1.600000X1.900000*%
%ADD29R,1.700000X3.000000*%
%ADD30R,2.100000X2.000000*%
G04 APERTURE END LIST*
D10*
X169010279Y-106091280D02*
X169010279Y-104591280D01*
X169010279Y-104591280D02*
X168438850Y-104591280D01*
X168438850Y-104591280D02*
X168295993Y-104662709D01*
X168295993Y-104662709D02*
X168224564Y-104734137D01*
X168224564Y-104734137D02*
X168153136Y-104876994D01*
X168153136Y-104876994D02*
X168153136Y-105091280D01*
X168153136Y-105091280D02*
X168224564Y-105234137D01*
X168224564Y-105234137D02*
X168295993Y-105305566D01*
X168295993Y-105305566D02*
X168438850Y-105376994D01*
X168438850Y-105376994D02*
X169010279Y-105376994D01*
X167510279Y-106091280D02*
X167510279Y-105091280D01*
X167510279Y-105376994D02*
X167438850Y-105234137D01*
X167438850Y-105234137D02*
X167367422Y-105162709D01*
X167367422Y-105162709D02*
X167224564Y-105091280D01*
X167224564Y-105091280D02*
X167081707Y-105091280D01*
X166367422Y-106091280D02*
X166510279Y-106019852D01*
X166510279Y-106019852D02*
X166581708Y-105948423D01*
X166581708Y-105948423D02*
X166653136Y-105805566D01*
X166653136Y-105805566D02*
X166653136Y-105376994D01*
X166653136Y-105376994D02*
X166581708Y-105234137D01*
X166581708Y-105234137D02*
X166510279Y-105162709D01*
X166510279Y-105162709D02*
X166367422Y-105091280D01*
X166367422Y-105091280D02*
X166153136Y-105091280D01*
X166153136Y-105091280D02*
X166010279Y-105162709D01*
X166010279Y-105162709D02*
X165938851Y-105234137D01*
X165938851Y-105234137D02*
X165867422Y-105376994D01*
X165867422Y-105376994D02*
X165867422Y-105805566D01*
X165867422Y-105805566D02*
X165938851Y-105948423D01*
X165938851Y-105948423D02*
X166010279Y-106019852D01*
X166010279Y-106019852D02*
X166153136Y-106091280D01*
X166153136Y-106091280D02*
X166367422Y-106091280D01*
X165367422Y-105091280D02*
X165010279Y-106091280D01*
X164653136Y-105091280D02*
X165010279Y-106091280D01*
X165010279Y-106091280D02*
X165153136Y-106448423D01*
X165153136Y-106448423D02*
X165224565Y-106519852D01*
X165224565Y-106519852D02*
X165367422Y-106591280D01*
X163510279Y-106019852D02*
X163653136Y-106091280D01*
X163653136Y-106091280D02*
X163938851Y-106091280D01*
X163938851Y-106091280D02*
X164081708Y-106019852D01*
X164081708Y-106019852D02*
X164153136Y-105876994D01*
X164153136Y-105876994D02*
X164153136Y-105305566D01*
X164153136Y-105305566D02*
X164081708Y-105162709D01*
X164081708Y-105162709D02*
X163938851Y-105091280D01*
X163938851Y-105091280D02*
X163653136Y-105091280D01*
X163653136Y-105091280D02*
X163510279Y-105162709D01*
X163510279Y-105162709D02*
X163438851Y-105305566D01*
X163438851Y-105305566D02*
X163438851Y-105448423D01*
X163438851Y-105448423D02*
X164153136Y-105591280D01*
X162153137Y-106019852D02*
X162295994Y-106091280D01*
X162295994Y-106091280D02*
X162581708Y-106091280D01*
X162581708Y-106091280D02*
X162724565Y-106019852D01*
X162724565Y-106019852D02*
X162795994Y-105948423D01*
X162795994Y-105948423D02*
X162867422Y-105805566D01*
X162867422Y-105805566D02*
X162867422Y-105376994D01*
X162867422Y-105376994D02*
X162795994Y-105234137D01*
X162795994Y-105234137D02*
X162724565Y-105162709D01*
X162724565Y-105162709D02*
X162581708Y-105091280D01*
X162581708Y-105091280D02*
X162295994Y-105091280D01*
X162295994Y-105091280D02*
X162153137Y-105162709D01*
X161724565Y-105091280D02*
X161153137Y-105091280D01*
X161510280Y-104591280D02*
X161510280Y-105876994D01*
X161510280Y-105876994D02*
X161438851Y-106019852D01*
X161438851Y-106019852D02*
X161295994Y-106091280D01*
X161295994Y-106091280D02*
X161153137Y-106091280D01*
X160438851Y-106091280D02*
X160581708Y-106019852D01*
X160581708Y-106019852D02*
X160653137Y-105948423D01*
X160653137Y-105948423D02*
X160724565Y-105805566D01*
X160724565Y-105805566D02*
X160724565Y-105376994D01*
X160724565Y-105376994D02*
X160653137Y-105234137D01*
X160653137Y-105234137D02*
X160581708Y-105162709D01*
X160581708Y-105162709D02*
X160438851Y-105091280D01*
X160438851Y-105091280D02*
X160224565Y-105091280D01*
X160224565Y-105091280D02*
X160081708Y-105162709D01*
X160081708Y-105162709D02*
X160010280Y-105234137D01*
X160010280Y-105234137D02*
X159938851Y-105376994D01*
X159938851Y-105376994D02*
X159938851Y-105805566D01*
X159938851Y-105805566D02*
X160010280Y-105948423D01*
X160010280Y-105948423D02*
X160081708Y-106019852D01*
X160081708Y-106019852D02*
X160224565Y-106091280D01*
X160224565Y-106091280D02*
X160438851Y-106091280D01*
X158153137Y-106091280D02*
X158153137Y-104591280D01*
X158010280Y-104019852D02*
X158224565Y-104234137D01*
X156795994Y-106019852D02*
X156938851Y-106091280D01*
X156938851Y-106091280D02*
X157224565Y-106091280D01*
X157224565Y-106091280D02*
X157367422Y-106019852D01*
X157367422Y-106019852D02*
X157438851Y-105948423D01*
X157438851Y-105948423D02*
X157510279Y-105805566D01*
X157510279Y-105805566D02*
X157510279Y-105376994D01*
X157510279Y-105376994D02*
X157438851Y-105234137D01*
X157438851Y-105234137D02*
X157367422Y-105162709D01*
X157367422Y-105162709D02*
X157224565Y-105091280D01*
X157224565Y-105091280D02*
X156938851Y-105091280D01*
X156938851Y-105091280D02*
X156795994Y-105162709D01*
X155510280Y-106091280D02*
X155510280Y-105305566D01*
X155510280Y-105305566D02*
X155581708Y-105162709D01*
X155581708Y-105162709D02*
X155724565Y-105091280D01*
X155724565Y-105091280D02*
X156010280Y-105091280D01*
X156010280Y-105091280D02*
X156153137Y-105162709D01*
X155510280Y-106019852D02*
X155653137Y-106091280D01*
X155653137Y-106091280D02*
X156010280Y-106091280D01*
X156010280Y-106091280D02*
X156153137Y-106019852D01*
X156153137Y-106019852D02*
X156224565Y-105876994D01*
X156224565Y-105876994D02*
X156224565Y-105734137D01*
X156224565Y-105734137D02*
X156153137Y-105591280D01*
X156153137Y-105591280D02*
X156010280Y-105519852D01*
X156010280Y-105519852D02*
X155653137Y-105519852D01*
X155653137Y-105519852D02*
X155510280Y-105448423D01*
X154795994Y-106091280D02*
X154795994Y-105091280D01*
X154795994Y-105376994D02*
X154724565Y-105234137D01*
X154724565Y-105234137D02*
X154653137Y-105162709D01*
X154653137Y-105162709D02*
X154510279Y-105091280D01*
X154510279Y-105091280D02*
X154367422Y-105091280D01*
X153653137Y-106091280D02*
X153795994Y-106019852D01*
X153795994Y-106019852D02*
X153867423Y-105948423D01*
X153867423Y-105948423D02*
X153938851Y-105805566D01*
X153938851Y-105805566D02*
X153938851Y-105376994D01*
X153938851Y-105376994D02*
X153867423Y-105234137D01*
X153867423Y-105234137D02*
X153795994Y-105162709D01*
X153795994Y-105162709D02*
X153653137Y-105091280D01*
X153653137Y-105091280D02*
X153438851Y-105091280D01*
X153438851Y-105091280D02*
X153295994Y-105162709D01*
X153295994Y-105162709D02*
X153224566Y-105234137D01*
X153224566Y-105234137D02*
X153153137Y-105376994D01*
X153153137Y-105376994D02*
X153153137Y-105805566D01*
X153153137Y-105805566D02*
X153224566Y-105948423D01*
X153224566Y-105948423D02*
X153295994Y-106019852D01*
X153295994Y-106019852D02*
X153438851Y-106091280D01*
X153438851Y-106091280D02*
X153653137Y-106091280D01*
X169081707Y-108434768D02*
X168867422Y-108506196D01*
X168867422Y-108506196D02*
X168510279Y-108506196D01*
X168510279Y-108506196D02*
X168367422Y-108434768D01*
X168367422Y-108434768D02*
X168295993Y-108363339D01*
X168295993Y-108363339D02*
X168224564Y-108220482D01*
X168224564Y-108220482D02*
X168224564Y-108077625D01*
X168224564Y-108077625D02*
X168295993Y-107934768D01*
X168295993Y-107934768D02*
X168367422Y-107863339D01*
X168367422Y-107863339D02*
X168510279Y-107791910D01*
X168510279Y-107791910D02*
X168795993Y-107720482D01*
X168795993Y-107720482D02*
X168938850Y-107649053D01*
X168938850Y-107649053D02*
X169010279Y-107577625D01*
X169010279Y-107577625D02*
X169081707Y-107434768D01*
X169081707Y-107434768D02*
X169081707Y-107291910D01*
X169081707Y-107291910D02*
X169010279Y-107149053D01*
X169010279Y-107149053D02*
X168938850Y-107077625D01*
X168938850Y-107077625D02*
X168795993Y-107006196D01*
X168795993Y-107006196D02*
X168438850Y-107006196D01*
X168438850Y-107006196D02*
X168224564Y-107077625D01*
X167010279Y-108434768D02*
X167153136Y-108506196D01*
X167153136Y-108506196D02*
X167438851Y-108506196D01*
X167438851Y-108506196D02*
X167581708Y-108434768D01*
X167581708Y-108434768D02*
X167653136Y-108291910D01*
X167653136Y-108291910D02*
X167653136Y-107720482D01*
X167653136Y-107720482D02*
X167581708Y-107577625D01*
X167581708Y-107577625D02*
X167438851Y-107506196D01*
X167438851Y-107506196D02*
X167153136Y-107506196D01*
X167153136Y-107506196D02*
X167010279Y-107577625D01*
X167010279Y-107577625D02*
X166938851Y-107720482D01*
X166938851Y-107720482D02*
X166938851Y-107863339D01*
X166938851Y-107863339D02*
X167653136Y-108006196D01*
X166295994Y-107506196D02*
X166295994Y-108506196D01*
X166295994Y-107649053D02*
X166224565Y-107577625D01*
X166224565Y-107577625D02*
X166081708Y-107506196D01*
X166081708Y-107506196D02*
X165867422Y-107506196D01*
X165867422Y-107506196D02*
X165724565Y-107577625D01*
X165724565Y-107577625D02*
X165653137Y-107720482D01*
X165653137Y-107720482D02*
X165653137Y-108506196D01*
X165010279Y-108434768D02*
X164867422Y-108506196D01*
X164867422Y-108506196D02*
X164581708Y-108506196D01*
X164581708Y-108506196D02*
X164438851Y-108434768D01*
X164438851Y-108434768D02*
X164367422Y-108291910D01*
X164367422Y-108291910D02*
X164367422Y-108220482D01*
X164367422Y-108220482D02*
X164438851Y-108077625D01*
X164438851Y-108077625D02*
X164581708Y-108006196D01*
X164581708Y-108006196D02*
X164795994Y-108006196D01*
X164795994Y-108006196D02*
X164938851Y-107934768D01*
X164938851Y-107934768D02*
X165010279Y-107791910D01*
X165010279Y-107791910D02*
X165010279Y-107720482D01*
X165010279Y-107720482D02*
X164938851Y-107577625D01*
X164938851Y-107577625D02*
X164795994Y-107506196D01*
X164795994Y-107506196D02*
X164581708Y-107506196D01*
X164581708Y-107506196D02*
X164438851Y-107577625D01*
X163510279Y-108506196D02*
X163653136Y-108434768D01*
X163653136Y-108434768D02*
X163724565Y-108363339D01*
X163724565Y-108363339D02*
X163795993Y-108220482D01*
X163795993Y-108220482D02*
X163795993Y-107791910D01*
X163795993Y-107791910D02*
X163724565Y-107649053D01*
X163724565Y-107649053D02*
X163653136Y-107577625D01*
X163653136Y-107577625D02*
X163510279Y-107506196D01*
X163510279Y-107506196D02*
X163295993Y-107506196D01*
X163295993Y-107506196D02*
X163153136Y-107577625D01*
X163153136Y-107577625D02*
X163081708Y-107649053D01*
X163081708Y-107649053D02*
X163010279Y-107791910D01*
X163010279Y-107791910D02*
X163010279Y-108220482D01*
X163010279Y-108220482D02*
X163081708Y-108363339D01*
X163081708Y-108363339D02*
X163153136Y-108434768D01*
X163153136Y-108434768D02*
X163295993Y-108506196D01*
X163295993Y-108506196D02*
X163510279Y-108506196D01*
X162367422Y-108506196D02*
X162367422Y-107506196D01*
X162367422Y-107791910D02*
X162295993Y-107649053D01*
X162295993Y-107649053D02*
X162224565Y-107577625D01*
X162224565Y-107577625D02*
X162081707Y-107506196D01*
X162081707Y-107506196D02*
X161938850Y-107506196D01*
X160938851Y-107720482D02*
X160724565Y-107791910D01*
X160724565Y-107791910D02*
X160653136Y-107863339D01*
X160653136Y-107863339D02*
X160581708Y-108006196D01*
X160581708Y-108006196D02*
X160581708Y-108220482D01*
X160581708Y-108220482D02*
X160653136Y-108363339D01*
X160653136Y-108363339D02*
X160724565Y-108434768D01*
X160724565Y-108434768D02*
X160867422Y-108506196D01*
X160867422Y-108506196D02*
X161438851Y-108506196D01*
X161438851Y-108506196D02*
X161438851Y-107006196D01*
X161438851Y-107006196D02*
X160938851Y-107006196D01*
X160938851Y-107006196D02*
X160795994Y-107077625D01*
X160795994Y-107077625D02*
X160724565Y-107149053D01*
X160724565Y-107149053D02*
X160653136Y-107291910D01*
X160653136Y-107291910D02*
X160653136Y-107434768D01*
X160653136Y-107434768D02*
X160724565Y-107577625D01*
X160724565Y-107577625D02*
X160795994Y-107649053D01*
X160795994Y-107649053D02*
X160938851Y-107720482D01*
X160938851Y-107720482D02*
X161438851Y-107720482D01*
X159724565Y-108506196D02*
X159867422Y-108434768D01*
X159867422Y-108434768D02*
X159938851Y-108363339D01*
X159938851Y-108363339D02*
X160010279Y-108220482D01*
X160010279Y-108220482D02*
X160010279Y-107791910D01*
X160010279Y-107791910D02*
X159938851Y-107649053D01*
X159938851Y-107649053D02*
X159867422Y-107577625D01*
X159867422Y-107577625D02*
X159724565Y-107506196D01*
X159724565Y-107506196D02*
X159510279Y-107506196D01*
X159510279Y-107506196D02*
X159367422Y-107577625D01*
X159367422Y-107577625D02*
X159295994Y-107649053D01*
X159295994Y-107649053D02*
X159224565Y-107791910D01*
X159224565Y-107791910D02*
X159224565Y-108220482D01*
X159224565Y-108220482D02*
X159295994Y-108363339D01*
X159295994Y-108363339D02*
X159367422Y-108434768D01*
X159367422Y-108434768D02*
X159510279Y-108506196D01*
X159510279Y-108506196D02*
X159724565Y-108506196D01*
X157938851Y-108506196D02*
X157938851Y-107720482D01*
X157938851Y-107720482D02*
X158010279Y-107577625D01*
X158010279Y-107577625D02*
X158153136Y-107506196D01*
X158153136Y-107506196D02*
X158438851Y-107506196D01*
X158438851Y-107506196D02*
X158581708Y-107577625D01*
X157938851Y-108434768D02*
X158081708Y-108506196D01*
X158081708Y-108506196D02*
X158438851Y-108506196D01*
X158438851Y-108506196D02*
X158581708Y-108434768D01*
X158581708Y-108434768D02*
X158653136Y-108291910D01*
X158653136Y-108291910D02*
X158653136Y-108149053D01*
X158653136Y-108149053D02*
X158581708Y-108006196D01*
X158581708Y-108006196D02*
X158438851Y-107934768D01*
X158438851Y-107934768D02*
X158081708Y-107934768D01*
X158081708Y-107934768D02*
X157938851Y-107863339D01*
X157224565Y-108506196D02*
X157224565Y-107506196D01*
X157224565Y-107791910D02*
X157153136Y-107649053D01*
X157153136Y-107649053D02*
X157081708Y-107577625D01*
X157081708Y-107577625D02*
X156938850Y-107506196D01*
X156938850Y-107506196D02*
X156795993Y-107506196D01*
X155653137Y-108506196D02*
X155653137Y-107006196D01*
X155653137Y-108434768D02*
X155795994Y-108506196D01*
X155795994Y-108506196D02*
X156081708Y-108506196D01*
X156081708Y-108506196D02*
X156224565Y-108434768D01*
X156224565Y-108434768D02*
X156295994Y-108363339D01*
X156295994Y-108363339D02*
X156367422Y-108220482D01*
X156367422Y-108220482D02*
X156367422Y-107791910D01*
X156367422Y-107791910D02*
X156295994Y-107649053D01*
X156295994Y-107649053D02*
X156224565Y-107577625D01*
X156224565Y-107577625D02*
X156081708Y-107506196D01*
X156081708Y-107506196D02*
X155795994Y-107506196D01*
X155795994Y-107506196D02*
X155653137Y-107577625D01*
X169224564Y-109421112D02*
X168724564Y-110921112D01*
X168724564Y-110921112D02*
X168224564Y-109421112D01*
X166938850Y-110921112D02*
X167795993Y-110921112D01*
X167367422Y-110921112D02*
X167367422Y-109421112D01*
X167367422Y-109421112D02*
X167510279Y-109635398D01*
X167510279Y-109635398D02*
X167653136Y-109778255D01*
X167653136Y-109778255D02*
X167795993Y-109849684D01*
X166295994Y-110778255D02*
X166224565Y-110849684D01*
X166224565Y-110849684D02*
X166295994Y-110921112D01*
X166295994Y-110921112D02*
X166367422Y-110849684D01*
X166367422Y-110849684D02*
X166295994Y-110778255D01*
X166295994Y-110778255D02*
X166295994Y-110921112D01*
X165295993Y-109421112D02*
X165153136Y-109421112D01*
X165153136Y-109421112D02*
X165010279Y-109492541D01*
X165010279Y-109492541D02*
X164938851Y-109563969D01*
X164938851Y-109563969D02*
X164867422Y-109706826D01*
X164867422Y-109706826D02*
X164795993Y-109992541D01*
X164795993Y-109992541D02*
X164795993Y-110349684D01*
X164795993Y-110349684D02*
X164867422Y-110635398D01*
X164867422Y-110635398D02*
X164938851Y-110778255D01*
X164938851Y-110778255D02*
X165010279Y-110849684D01*
X165010279Y-110849684D02*
X165153136Y-110921112D01*
X165153136Y-110921112D02*
X165295993Y-110921112D01*
X165295993Y-110921112D02*
X165438851Y-110849684D01*
X165438851Y-110849684D02*
X165510279Y-110778255D01*
X165510279Y-110778255D02*
X165581708Y-110635398D01*
X165581708Y-110635398D02*
X165653136Y-110349684D01*
X165653136Y-110349684D02*
X165653136Y-109992541D01*
X165653136Y-109992541D02*
X165581708Y-109706826D01*
X165581708Y-109706826D02*
X165510279Y-109563969D01*
X165510279Y-109563969D02*
X165438851Y-109492541D01*
X165438851Y-109492541D02*
X165295993Y-109421112D01*
X169010279Y-113336028D02*
X169010279Y-111836028D01*
X169010279Y-112407457D02*
X168867422Y-112336028D01*
X168867422Y-112336028D02*
X168581707Y-112336028D01*
X168581707Y-112336028D02*
X168438850Y-112407457D01*
X168438850Y-112407457D02*
X168367422Y-112478885D01*
X168367422Y-112478885D02*
X168295993Y-112621742D01*
X168295993Y-112621742D02*
X168295993Y-113050314D01*
X168295993Y-113050314D02*
X168367422Y-113193171D01*
X168367422Y-113193171D02*
X168438850Y-113264600D01*
X168438850Y-113264600D02*
X168581707Y-113336028D01*
X168581707Y-113336028D02*
X168867422Y-113336028D01*
X168867422Y-113336028D02*
X169010279Y-113264600D01*
X167795993Y-112336028D02*
X167438850Y-113336028D01*
X167081707Y-112336028D02*
X167438850Y-113336028D01*
X167438850Y-113336028D02*
X167581707Y-113693171D01*
X167581707Y-113693171D02*
X167653136Y-113764600D01*
X167653136Y-113764600D02*
X167795993Y-113836028D01*
X166510279Y-113193171D02*
X166438850Y-113264600D01*
X166438850Y-113264600D02*
X166510279Y-113336028D01*
X166510279Y-113336028D02*
X166581707Y-113264600D01*
X166581707Y-113264600D02*
X166510279Y-113193171D01*
X166510279Y-113193171D02*
X166510279Y-113336028D01*
X166510279Y-112407457D02*
X166438850Y-112478885D01*
X166438850Y-112478885D02*
X166510279Y-112550314D01*
X166510279Y-112550314D02*
X166581707Y-112478885D01*
X166581707Y-112478885D02*
X166510279Y-112407457D01*
X166510279Y-112407457D02*
X166510279Y-112550314D01*
X163724564Y-112621742D02*
X163795993Y-112550314D01*
X163795993Y-112550314D02*
X163938850Y-112478885D01*
X163938850Y-112478885D02*
X164081707Y-112478885D01*
X164081707Y-112478885D02*
X164224564Y-112550314D01*
X164224564Y-112550314D02*
X164295993Y-112621742D01*
X164295993Y-112621742D02*
X164367421Y-112764600D01*
X164367421Y-112764600D02*
X164367421Y-112907457D01*
X164367421Y-112907457D02*
X164295993Y-113050314D01*
X164295993Y-113050314D02*
X164224564Y-113121742D01*
X164224564Y-113121742D02*
X164081707Y-113193171D01*
X164081707Y-113193171D02*
X163938850Y-113193171D01*
X163938850Y-113193171D02*
X163795993Y-113121742D01*
X163795993Y-113121742D02*
X163724564Y-113050314D01*
X163724564Y-112478885D02*
X163724564Y-113050314D01*
X163724564Y-113050314D02*
X163653136Y-113121742D01*
X163653136Y-113121742D02*
X163581707Y-113121742D01*
X163581707Y-113121742D02*
X163438850Y-113050314D01*
X163438850Y-113050314D02*
X163367421Y-112907457D01*
X163367421Y-112907457D02*
X163367421Y-112550314D01*
X163367421Y-112550314D02*
X163510279Y-112336028D01*
X163510279Y-112336028D02*
X163724564Y-112193171D01*
X163724564Y-112193171D02*
X164010279Y-112121742D01*
X164010279Y-112121742D02*
X164295993Y-112193171D01*
X164295993Y-112193171D02*
X164510279Y-112336028D01*
X164510279Y-112336028D02*
X164653136Y-112550314D01*
X164653136Y-112550314D02*
X164724564Y-112836028D01*
X164724564Y-112836028D02*
X164653136Y-113121742D01*
X164653136Y-113121742D02*
X164510279Y-113336028D01*
X164510279Y-113336028D02*
X164295993Y-113478885D01*
X164295993Y-113478885D02*
X164010279Y-113550314D01*
X164010279Y-113550314D02*
X163724564Y-113478885D01*
X163724564Y-113478885D02*
X163510279Y-113336028D01*
X162510279Y-113336028D02*
X162653136Y-113264600D01*
X162653136Y-113264600D02*
X162724565Y-113121742D01*
X162724565Y-113121742D02*
X162724565Y-111836028D01*
X161295994Y-113336028D02*
X161295994Y-112550314D01*
X161295994Y-112550314D02*
X161367422Y-112407457D01*
X161367422Y-112407457D02*
X161510279Y-112336028D01*
X161510279Y-112336028D02*
X161795994Y-112336028D01*
X161795994Y-112336028D02*
X161938851Y-112407457D01*
X161295994Y-113264600D02*
X161438851Y-113336028D01*
X161438851Y-113336028D02*
X161795994Y-113336028D01*
X161795994Y-113336028D02*
X161938851Y-113264600D01*
X161938851Y-113264600D02*
X162010279Y-113121742D01*
X162010279Y-113121742D02*
X162010279Y-112978885D01*
X162010279Y-112978885D02*
X161938851Y-112836028D01*
X161938851Y-112836028D02*
X161795994Y-112764600D01*
X161795994Y-112764600D02*
X161438851Y-112764600D01*
X161438851Y-112764600D02*
X161295994Y-112693171D01*
X160581708Y-113336028D02*
X160581708Y-111836028D01*
X160581708Y-112407457D02*
X160438851Y-112336028D01*
X160438851Y-112336028D02*
X160153136Y-112336028D01*
X160153136Y-112336028D02*
X160010279Y-112407457D01*
X160010279Y-112407457D02*
X159938851Y-112478885D01*
X159938851Y-112478885D02*
X159867422Y-112621742D01*
X159867422Y-112621742D02*
X159867422Y-113050314D01*
X159867422Y-113050314D02*
X159938851Y-113193171D01*
X159938851Y-113193171D02*
X160010279Y-113264600D01*
X160010279Y-113264600D02*
X160153136Y-113336028D01*
X160153136Y-113336028D02*
X160438851Y-113336028D01*
X160438851Y-113336028D02*
X160581708Y-113264600D01*
X158581708Y-112336028D02*
X158581708Y-113550314D01*
X158581708Y-113550314D02*
X158653136Y-113693171D01*
X158653136Y-113693171D02*
X158724565Y-113764600D01*
X158724565Y-113764600D02*
X158867422Y-113836028D01*
X158867422Y-113836028D02*
X159081708Y-113836028D01*
X159081708Y-113836028D02*
X159224565Y-113764600D01*
X158581708Y-113264600D02*
X158724565Y-113336028D01*
X158724565Y-113336028D02*
X159010279Y-113336028D01*
X159010279Y-113336028D02*
X159153136Y-113264600D01*
X159153136Y-113264600D02*
X159224565Y-113193171D01*
X159224565Y-113193171D02*
X159295993Y-113050314D01*
X159295993Y-113050314D02*
X159295993Y-112621742D01*
X159295993Y-112621742D02*
X159224565Y-112478885D01*
X159224565Y-112478885D02*
X159153136Y-112407457D01*
X159153136Y-112407457D02*
X159010279Y-112336028D01*
X159010279Y-112336028D02*
X158724565Y-112336028D01*
X158724565Y-112336028D02*
X158581708Y-112407457D01*
X157653136Y-113336028D02*
X157795993Y-113264600D01*
X157795993Y-113264600D02*
X157867422Y-113121742D01*
X157867422Y-113121742D02*
X157867422Y-111836028D01*
X156438851Y-112336028D02*
X156438851Y-113336028D01*
X157081708Y-112336028D02*
X157081708Y-113121742D01*
X157081708Y-113121742D02*
X157010279Y-113264600D01*
X157010279Y-113264600D02*
X156867422Y-113336028D01*
X156867422Y-113336028D02*
X156653136Y-113336028D01*
X156653136Y-113336028D02*
X156510279Y-113264600D01*
X156510279Y-113264600D02*
X156438851Y-113193171D01*
X155510279Y-113336028D02*
X155653136Y-113264600D01*
X155653136Y-113264600D02*
X155724565Y-113193171D01*
X155724565Y-113193171D02*
X155795993Y-113050314D01*
X155795993Y-113050314D02*
X155795993Y-112621742D01*
X155795993Y-112621742D02*
X155724565Y-112478885D01*
X155724565Y-112478885D02*
X155653136Y-112407457D01*
X155653136Y-112407457D02*
X155510279Y-112336028D01*
X155510279Y-112336028D02*
X155295993Y-112336028D01*
X155295993Y-112336028D02*
X155153136Y-112407457D01*
X155153136Y-112407457D02*
X155081708Y-112478885D01*
X155081708Y-112478885D02*
X155010279Y-112621742D01*
X155010279Y-112621742D02*
X155010279Y-113050314D01*
X155010279Y-113050314D02*
X155081708Y-113193171D01*
X155081708Y-113193171D02*
X155153136Y-113264600D01*
X155153136Y-113264600D02*
X155295993Y-113336028D01*
X155295993Y-113336028D02*
X155510279Y-113336028D01*
X154367422Y-112336028D02*
X154367422Y-113336028D01*
X154367422Y-112478885D02*
X154295993Y-112407457D01*
X154295993Y-112407457D02*
X154153136Y-112336028D01*
X154153136Y-112336028D02*
X153938850Y-112336028D01*
X153938850Y-112336028D02*
X153795993Y-112407457D01*
X153795993Y-112407457D02*
X153724565Y-112550314D01*
X153724565Y-112550314D02*
X153724565Y-113336028D01*
D11*
X173255819Y-118983142D02*
X172779628Y-118649809D01*
X173255819Y-118411714D02*
X172255819Y-118411714D01*
X172255819Y-118411714D02*
X172255819Y-118792666D01*
X172255819Y-118792666D02*
X172303438Y-118887904D01*
X172303438Y-118887904D02*
X172351057Y-118935523D01*
X172351057Y-118935523D02*
X172446295Y-118983142D01*
X172446295Y-118983142D02*
X172589152Y-118983142D01*
X172589152Y-118983142D02*
X172684390Y-118935523D01*
X172684390Y-118935523D02*
X172732009Y-118887904D01*
X172732009Y-118887904D02*
X172779628Y-118792666D01*
X172779628Y-118792666D02*
X172779628Y-118411714D01*
X173255819Y-119935523D02*
X173255819Y-119364095D01*
X173255819Y-119649809D02*
X172255819Y-119649809D01*
X172255819Y-119649809D02*
X172398676Y-119554571D01*
X172398676Y-119554571D02*
X172493914Y-119459333D01*
X172493914Y-119459333D02*
X172541533Y-119364095D01*
X172351057Y-120316476D02*
X172303438Y-120364095D01*
X172303438Y-120364095D02*
X172255819Y-120459333D01*
X172255819Y-120459333D02*
X172255819Y-120697428D01*
X172255819Y-120697428D02*
X172303438Y-120792666D01*
X172303438Y-120792666D02*
X172351057Y-120840285D01*
X172351057Y-120840285D02*
X172446295Y-120887904D01*
X172446295Y-120887904D02*
X172541533Y-120887904D01*
X172541533Y-120887904D02*
X172684390Y-120840285D01*
X172684390Y-120840285D02*
X173255819Y-120268857D01*
X173255819Y-120268857D02*
X173255819Y-120887904D01*
X179097819Y-96702666D02*
X178621628Y-96369333D01*
X179097819Y-96131238D02*
X178097819Y-96131238D01*
X178097819Y-96131238D02*
X178097819Y-96512190D01*
X178097819Y-96512190D02*
X178145438Y-96607428D01*
X178145438Y-96607428D02*
X178193057Y-96655047D01*
X178193057Y-96655047D02*
X178288295Y-96702666D01*
X178288295Y-96702666D02*
X178431152Y-96702666D01*
X178431152Y-96702666D02*
X178526390Y-96655047D01*
X178526390Y-96655047D02*
X178574009Y-96607428D01*
X178574009Y-96607428D02*
X178621628Y-96512190D01*
X178621628Y-96512190D02*
X178621628Y-96131238D01*
X178574009Y-97131238D02*
X178574009Y-97464571D01*
X179097819Y-97607428D02*
X179097819Y-97131238D01*
X179097819Y-97131238D02*
X178097819Y-97131238D01*
X178097819Y-97131238D02*
X178097819Y-97607428D01*
X178574009Y-98369333D02*
X178574009Y-98036000D01*
X179097819Y-98036000D02*
X178097819Y-98036000D01*
X178097819Y-98036000D02*
X178097819Y-98512190D01*
X178097819Y-99036000D02*
X178335914Y-99036000D01*
X178240676Y-98797905D02*
X178335914Y-99036000D01*
X178335914Y-99036000D02*
X178240676Y-99274095D01*
X178526390Y-98893143D02*
X178335914Y-99036000D01*
X178335914Y-99036000D02*
X178526390Y-99178857D01*
X178097819Y-99797905D02*
X178335914Y-99797905D01*
X178240676Y-99559810D02*
X178335914Y-99797905D01*
X178335914Y-99797905D02*
X178240676Y-100036000D01*
X178526390Y-99655048D02*
X178335914Y-99797905D01*
X178335914Y-99797905D02*
X178526390Y-99940762D01*
D12*
X149035077Y-143333405D02*
X149035077Y-142523882D01*
X149035077Y-142523882D02*
X149082696Y-142428644D01*
X149082696Y-142428644D02*
X149130315Y-142381025D01*
X149130315Y-142381025D02*
X149225553Y-142333405D01*
X149225553Y-142333405D02*
X149416029Y-142333405D01*
X149416029Y-142333405D02*
X149511267Y-142381025D01*
X149511267Y-142381025D02*
X149558886Y-142428644D01*
X149558886Y-142428644D02*
X149606505Y-142523882D01*
X149606505Y-142523882D02*
X149606505Y-143333405D01*
X150035077Y-143238167D02*
X150082696Y-143285786D01*
X150082696Y-143285786D02*
X150177934Y-143333405D01*
X150177934Y-143333405D02*
X150416029Y-143333405D01*
X150416029Y-143333405D02*
X150511267Y-143285786D01*
X150511267Y-143285786D02*
X150558886Y-143238167D01*
X150558886Y-143238167D02*
X150606505Y-143142929D01*
X150606505Y-143142929D02*
X150606505Y-143047691D01*
X150606505Y-143047691D02*
X150558886Y-142904834D01*
X150558886Y-142904834D02*
X149987458Y-142333405D01*
X149987458Y-142333405D02*
X150606505Y-142333405D01*
D11*
X168175819Y-118983142D02*
X167699628Y-118649809D01*
X168175819Y-118411714D02*
X167175819Y-118411714D01*
X167175819Y-118411714D02*
X167175819Y-118792666D01*
X167175819Y-118792666D02*
X167223438Y-118887904D01*
X167223438Y-118887904D02*
X167271057Y-118935523D01*
X167271057Y-118935523D02*
X167366295Y-118983142D01*
X167366295Y-118983142D02*
X167509152Y-118983142D01*
X167509152Y-118983142D02*
X167604390Y-118935523D01*
X167604390Y-118935523D02*
X167652009Y-118887904D01*
X167652009Y-118887904D02*
X167699628Y-118792666D01*
X167699628Y-118792666D02*
X167699628Y-118411714D01*
X168175819Y-119935523D02*
X168175819Y-119364095D01*
X168175819Y-119649809D02*
X167175819Y-119649809D01*
X167175819Y-119649809D02*
X167318676Y-119554571D01*
X167318676Y-119554571D02*
X167413914Y-119459333D01*
X167413914Y-119459333D02*
X167461533Y-119364095D01*
X167175819Y-120554571D02*
X167175819Y-120649809D01*
X167175819Y-120649809D02*
X167223438Y-120745047D01*
X167223438Y-120745047D02*
X167271057Y-120792666D01*
X167271057Y-120792666D02*
X167366295Y-120840285D01*
X167366295Y-120840285D02*
X167556771Y-120887904D01*
X167556771Y-120887904D02*
X167794866Y-120887904D01*
X167794866Y-120887904D02*
X167985342Y-120840285D01*
X167985342Y-120840285D02*
X168080580Y-120792666D01*
X168080580Y-120792666D02*
X168128200Y-120745047D01*
X168128200Y-120745047D02*
X168175819Y-120649809D01*
X168175819Y-120649809D02*
X168175819Y-120554571D01*
X168175819Y-120554571D02*
X168128200Y-120459333D01*
X168128200Y-120459333D02*
X168080580Y-120411714D01*
X168080580Y-120411714D02*
X167985342Y-120364095D01*
X167985342Y-120364095D02*
X167794866Y-120316476D01*
X167794866Y-120316476D02*
X167556771Y-120316476D01*
X167556771Y-120316476D02*
X167366295Y-120364095D01*
X167366295Y-120364095D02*
X167271057Y-120411714D01*
X167271057Y-120411714D02*
X167223438Y-120459333D01*
X167223438Y-120459333D02*
X167175819Y-120554571D01*
X147988333Y-109394819D02*
X147988333Y-110109104D01*
X147988333Y-110109104D02*
X148035952Y-110251961D01*
X148035952Y-110251961D02*
X148131190Y-110347200D01*
X148131190Y-110347200D02*
X148274047Y-110394819D01*
X148274047Y-110394819D02*
X148369285Y-110394819D01*
X147607380Y-109394819D02*
X146940714Y-109394819D01*
X146940714Y-109394819D02*
X147369285Y-110394819D01*
D13*
X163613376Y-97266286D02*
X163612376Y-97266286D01*
X163612995Y-97266381D02*
X163613376Y-97266667D01*
X163612709Y-97266667D02*
X163613090Y-97266286D01*
X163613376Y-97267096D02*
X163612709Y-97267096D01*
X163612376Y-97267096D02*
X163612424Y-97267048D01*
X163612424Y-97267048D02*
X163612471Y-97267096D01*
X163612471Y-97267096D02*
X163612424Y-97267143D01*
X163612424Y-97267143D02*
X163612376Y-97267096D01*
X163612376Y-97267096D02*
X163612471Y-97267096D01*
X163613376Y-97267572D02*
X163612376Y-97267572D01*
X163612757Y-97267572D02*
X163612709Y-97267667D01*
X163612709Y-97267667D02*
X163612709Y-97267857D01*
X163612709Y-97267857D02*
X163612757Y-97267953D01*
X163612757Y-97267953D02*
X163612805Y-97268000D01*
X163612805Y-97268000D02*
X163612900Y-97268048D01*
X163612900Y-97268048D02*
X163613186Y-97268048D01*
X163613186Y-97268048D02*
X163613281Y-97268000D01*
X163613281Y-97268000D02*
X163613329Y-97267953D01*
X163613329Y-97267953D02*
X163613376Y-97267857D01*
X163613376Y-97267857D02*
X163613376Y-97267667D01*
X163613376Y-97267667D02*
X163613329Y-97267572D01*
X163612709Y-97268905D02*
X163613376Y-97268905D01*
X163612709Y-97268477D02*
X163613233Y-97268477D01*
X163613233Y-97268477D02*
X163613329Y-97268524D01*
X163613329Y-97268524D02*
X163613376Y-97268619D01*
X163613376Y-97268619D02*
X163613376Y-97268762D01*
X163613376Y-97268762D02*
X163613329Y-97268858D01*
X163613329Y-97268858D02*
X163613281Y-97268905D01*
X163612709Y-97269286D02*
X163612709Y-97269810D01*
X163612709Y-97269810D02*
X163613376Y-97269286D01*
X163613376Y-97269286D02*
X163613376Y-97269810D01*
X163612709Y-97270096D02*
X163612709Y-97270620D01*
X163612709Y-97270620D02*
X163613376Y-97270096D01*
X163613376Y-97270096D02*
X163613376Y-97270620D01*
X163613376Y-97271430D02*
X163612852Y-97271430D01*
X163612852Y-97271430D02*
X163612757Y-97271383D01*
X163612757Y-97271383D02*
X163612709Y-97271287D01*
X163612709Y-97271287D02*
X163612709Y-97271097D01*
X163612709Y-97271097D02*
X163612757Y-97271002D01*
X163613329Y-97271430D02*
X163613376Y-97271335D01*
X163613376Y-97271335D02*
X163613376Y-97271097D01*
X163613376Y-97271097D02*
X163613329Y-97271002D01*
X163613329Y-97271002D02*
X163613233Y-97270954D01*
X163613233Y-97270954D02*
X163613138Y-97270954D01*
X163613138Y-97270954D02*
X163613043Y-97271002D01*
X163613043Y-97271002D02*
X163612995Y-97271097D01*
X163612995Y-97271097D02*
X163612995Y-97271335D01*
X163612995Y-97271335D02*
X163612948Y-97271430D01*
X163613376Y-97271907D02*
X163612709Y-97271907D01*
X163612900Y-97271907D02*
X163612805Y-97271954D01*
X163612805Y-97271954D02*
X163612757Y-97272002D01*
X163612757Y-97272002D02*
X163612709Y-97272097D01*
X163612709Y-97272097D02*
X163612709Y-97272192D01*
X163613376Y-97272954D02*
X163612376Y-97272954D01*
X163613329Y-97272954D02*
X163613376Y-97272859D01*
X163613376Y-97272859D02*
X163613376Y-97272668D01*
X163613376Y-97272668D02*
X163613329Y-97272573D01*
X163613329Y-97272573D02*
X163613281Y-97272526D01*
X163613281Y-97272526D02*
X163613186Y-97272478D01*
X163613186Y-97272478D02*
X163612900Y-97272478D01*
X163612900Y-97272478D02*
X163612805Y-97272526D01*
X163612805Y-97272526D02*
X163612757Y-97272573D01*
X163612757Y-97272573D02*
X163612709Y-97272668D01*
X163612709Y-97272668D02*
X163612709Y-97272859D01*
X163612709Y-97272859D02*
X163612757Y-97272954D01*
X163612995Y-97273431D02*
X163612995Y-97274193D01*
X163612376Y-97275097D02*
X163612376Y-97274907D01*
X163612376Y-97274907D02*
X163612424Y-97274811D01*
X163612424Y-97274811D02*
X163612471Y-97274764D01*
X163612471Y-97274764D02*
X163612614Y-97274669D01*
X163612614Y-97274669D02*
X163612805Y-97274621D01*
X163612805Y-97274621D02*
X163613186Y-97274621D01*
X163613186Y-97274621D02*
X163613281Y-97274669D01*
X163613281Y-97274669D02*
X163613329Y-97274716D01*
X163613329Y-97274716D02*
X163613376Y-97274811D01*
X163613376Y-97274811D02*
X163613376Y-97275002D01*
X163613376Y-97275002D02*
X163613329Y-97275097D01*
X163613329Y-97275097D02*
X163613281Y-97275145D01*
X163613281Y-97275145D02*
X163613186Y-97275192D01*
X163613186Y-97275192D02*
X163612948Y-97275192D01*
X163612948Y-97275192D02*
X163612852Y-97275145D01*
X163612852Y-97275145D02*
X163612805Y-97275097D01*
X163612805Y-97275097D02*
X163612757Y-97275002D01*
X163612757Y-97275002D02*
X163612757Y-97274811D01*
X163612757Y-97274811D02*
X163612805Y-97274716D01*
X163612805Y-97274716D02*
X163612852Y-97274669D01*
X163612852Y-97274669D02*
X163612948Y-97274621D01*
X163612376Y-97275525D02*
X163612376Y-97276192D01*
X163612376Y-97276192D02*
X163613376Y-97275763D01*
X163613281Y-97277144D02*
X163613329Y-97277096D01*
X163613329Y-97277096D02*
X163613376Y-97276954D01*
X163613376Y-97276954D02*
X163613376Y-97276858D01*
X163613376Y-97276858D02*
X163613329Y-97276715D01*
X163613329Y-97276715D02*
X163613233Y-97276620D01*
X163613233Y-97276620D02*
X163613138Y-97276573D01*
X163613138Y-97276573D02*
X163612948Y-97276525D01*
X163612948Y-97276525D02*
X163612805Y-97276525D01*
X163612805Y-97276525D02*
X163612614Y-97276573D01*
X163612614Y-97276573D02*
X163612519Y-97276620D01*
X163612519Y-97276620D02*
X163612424Y-97276715D01*
X163612424Y-97276715D02*
X163612376Y-97276858D01*
X163612376Y-97276858D02*
X163612376Y-97276954D01*
X163612376Y-97276954D02*
X163612424Y-97277096D01*
X163612424Y-97277096D02*
X163612471Y-97277144D01*
X163612376Y-97277477D02*
X163612376Y-97278096D01*
X163612376Y-97278096D02*
X163612757Y-97277763D01*
X163612757Y-97277763D02*
X163612757Y-97277906D01*
X163612757Y-97277906D02*
X163612805Y-97278001D01*
X163612805Y-97278001D02*
X163612852Y-97278049D01*
X163612852Y-97278049D02*
X163612948Y-97278096D01*
X163612948Y-97278096D02*
X163613186Y-97278096D01*
X163613186Y-97278096D02*
X163613281Y-97278049D01*
X163613281Y-97278049D02*
X163613329Y-97278001D01*
X163613329Y-97278001D02*
X163613376Y-97277906D01*
X163613376Y-97277906D02*
X163613376Y-97277620D01*
X163613376Y-97277620D02*
X163613329Y-97277525D01*
X163613329Y-97277525D02*
X163613281Y-97277477D01*
X163613090Y-97278477D02*
X163613090Y-97278953D01*
X163613376Y-97278382D02*
X163612376Y-97278715D01*
X163612376Y-97278715D02*
X163613376Y-97279048D01*
X163613090Y-97279334D02*
X163613090Y-97279810D01*
X163613376Y-97279239D02*
X163612376Y-97279572D01*
X163612376Y-97279572D02*
X163613376Y-97279905D01*
X163612852Y-97280572D02*
X163612900Y-97280715D01*
X163612900Y-97280715D02*
X163612948Y-97280762D01*
X163612948Y-97280762D02*
X163613043Y-97280810D01*
X163613043Y-97280810D02*
X163613186Y-97280810D01*
X163613186Y-97280810D02*
X163613281Y-97280762D01*
X163613281Y-97280762D02*
X163613329Y-97280715D01*
X163613329Y-97280715D02*
X163613376Y-97280620D01*
X163613376Y-97280620D02*
X163613376Y-97280239D01*
X163613376Y-97280239D02*
X163612376Y-97280239D01*
X163612376Y-97280239D02*
X163612376Y-97280572D01*
X163612376Y-97280572D02*
X163612424Y-97280667D01*
X163612424Y-97280667D02*
X163612471Y-97280715D01*
X163612471Y-97280715D02*
X163612567Y-97280762D01*
X163612567Y-97280762D02*
X163612662Y-97280762D01*
X163612662Y-97280762D02*
X163612757Y-97280715D01*
X163612757Y-97280715D02*
X163612805Y-97280667D01*
X163612805Y-97280667D02*
X163612852Y-97280572D01*
X163612852Y-97280572D02*
X163612852Y-97280239D01*
X163612471Y-97281191D02*
X163612424Y-97281239D01*
X163612424Y-97281239D02*
X163612376Y-97281334D01*
X163612376Y-97281334D02*
X163612376Y-97281572D01*
X163612376Y-97281572D02*
X163612424Y-97281667D01*
X163612424Y-97281667D02*
X163612471Y-97281715D01*
X163612471Y-97281715D02*
X163612567Y-97281762D01*
X163612567Y-97281762D02*
X163612662Y-97281762D01*
X163612662Y-97281762D02*
X163612805Y-97281715D01*
X163612805Y-97281715D02*
X163613376Y-97281143D01*
X163613376Y-97281143D02*
X163613376Y-97281762D01*
X170812570Y-97273118D02*
X170812522Y-97273023D01*
X170812522Y-97273023D02*
X170812522Y-97272880D01*
X170812522Y-97272880D02*
X170812570Y-97272737D01*
X170812570Y-97272737D02*
X170812665Y-97272642D01*
X170812665Y-97272642D02*
X170812760Y-97272595D01*
X170812760Y-97272595D02*
X170812951Y-97272547D01*
X170812951Y-97272547D02*
X170813094Y-97272547D01*
X170813094Y-97272547D02*
X170813284Y-97272595D01*
X170813284Y-97272595D02*
X170813379Y-97272642D01*
X170813379Y-97272642D02*
X170813475Y-97272737D01*
X170813475Y-97272737D02*
X170813522Y-97272880D01*
X170813522Y-97272880D02*
X170813522Y-97272976D01*
X170813522Y-97272976D02*
X170813475Y-97273118D01*
X170813475Y-97273118D02*
X170813427Y-97273166D01*
X170813427Y-97273166D02*
X170813094Y-97273166D01*
X170813094Y-97273166D02*
X170813094Y-97272976D01*
X170812522Y-97273737D02*
X170812760Y-97273737D01*
X170812665Y-97273499D02*
X170812760Y-97273737D01*
X170812760Y-97273737D02*
X170812665Y-97273976D01*
X170812951Y-97273595D02*
X170812760Y-97273737D01*
X170812760Y-97273737D02*
X170812951Y-97273880D01*
X170812522Y-97274499D02*
X170812760Y-97274499D01*
X170812665Y-97274261D02*
X170812760Y-97274499D01*
X170812760Y-97274499D02*
X170812665Y-97274738D01*
X170812951Y-97274357D02*
X170812760Y-97274499D01*
X170812760Y-97274499D02*
X170812951Y-97274642D01*
X170812522Y-97275261D02*
X170812760Y-97275261D01*
X170812665Y-97275023D02*
X170812760Y-97275261D01*
X170812760Y-97275261D02*
X170812665Y-97275500D01*
X170812951Y-97275119D02*
X170812760Y-97275261D01*
X170812760Y-97275261D02*
X170812951Y-97275404D01*
X171233376Y-97012286D02*
X171232376Y-97012286D01*
X171232995Y-97012381D02*
X171233376Y-97012667D01*
X171232709Y-97012667D02*
X171233090Y-97012286D01*
X171233376Y-97013096D02*
X171232709Y-97013096D01*
X171232376Y-97013096D02*
X171232424Y-97013048D01*
X171232424Y-97013048D02*
X171232471Y-97013096D01*
X171232471Y-97013096D02*
X171232424Y-97013143D01*
X171232424Y-97013143D02*
X171232376Y-97013096D01*
X171232376Y-97013096D02*
X171232471Y-97013096D01*
X171233376Y-97013572D02*
X171232376Y-97013572D01*
X171232757Y-97013572D02*
X171232709Y-97013667D01*
X171232709Y-97013667D02*
X171232709Y-97013857D01*
X171232709Y-97013857D02*
X171232757Y-97013953D01*
X171232757Y-97013953D02*
X171232805Y-97014000D01*
X171232805Y-97014000D02*
X171232900Y-97014048D01*
X171232900Y-97014048D02*
X171233186Y-97014048D01*
X171233186Y-97014048D02*
X171233281Y-97014000D01*
X171233281Y-97014000D02*
X171233329Y-97013953D01*
X171233329Y-97013953D02*
X171233376Y-97013857D01*
X171233376Y-97013857D02*
X171233376Y-97013667D01*
X171233376Y-97013667D02*
X171233329Y-97013572D01*
X171232709Y-97014905D02*
X171233376Y-97014905D01*
X171232709Y-97014477D02*
X171233233Y-97014477D01*
X171233233Y-97014477D02*
X171233329Y-97014524D01*
X171233329Y-97014524D02*
X171233376Y-97014619D01*
X171233376Y-97014619D02*
X171233376Y-97014762D01*
X171233376Y-97014762D02*
X171233329Y-97014858D01*
X171233329Y-97014858D02*
X171233281Y-97014905D01*
X171232709Y-97015286D02*
X171232709Y-97015810D01*
X171232709Y-97015810D02*
X171233376Y-97015286D01*
X171233376Y-97015286D02*
X171233376Y-97015810D01*
X171232709Y-97016096D02*
X171232709Y-97016620D01*
X171232709Y-97016620D02*
X171233376Y-97016096D01*
X171233376Y-97016096D02*
X171233376Y-97016620D01*
X171233376Y-97017430D02*
X171232852Y-97017430D01*
X171232852Y-97017430D02*
X171232757Y-97017383D01*
X171232757Y-97017383D02*
X171232709Y-97017287D01*
X171232709Y-97017287D02*
X171232709Y-97017097D01*
X171232709Y-97017097D02*
X171232757Y-97017002D01*
X171233329Y-97017430D02*
X171233376Y-97017335D01*
X171233376Y-97017335D02*
X171233376Y-97017097D01*
X171233376Y-97017097D02*
X171233329Y-97017002D01*
X171233329Y-97017002D02*
X171233233Y-97016954D01*
X171233233Y-97016954D02*
X171233138Y-97016954D01*
X171233138Y-97016954D02*
X171233043Y-97017002D01*
X171233043Y-97017002D02*
X171232995Y-97017097D01*
X171232995Y-97017097D02*
X171232995Y-97017335D01*
X171232995Y-97017335D02*
X171232948Y-97017430D01*
X171233376Y-97017907D02*
X171232709Y-97017907D01*
X171232900Y-97017907D02*
X171232805Y-97017954D01*
X171232805Y-97017954D02*
X171232757Y-97018002D01*
X171232757Y-97018002D02*
X171232709Y-97018097D01*
X171232709Y-97018097D02*
X171232709Y-97018192D01*
X171233376Y-97018954D02*
X171232376Y-97018954D01*
X171233329Y-97018954D02*
X171233376Y-97018859D01*
X171233376Y-97018859D02*
X171233376Y-97018668D01*
X171233376Y-97018668D02*
X171233329Y-97018573D01*
X171233329Y-97018573D02*
X171233281Y-97018526D01*
X171233281Y-97018526D02*
X171233186Y-97018478D01*
X171233186Y-97018478D02*
X171232900Y-97018478D01*
X171232900Y-97018478D02*
X171232805Y-97018526D01*
X171232805Y-97018526D02*
X171232757Y-97018573D01*
X171232757Y-97018573D02*
X171232709Y-97018668D01*
X171232709Y-97018668D02*
X171232709Y-97018859D01*
X171232709Y-97018859D02*
X171232757Y-97018954D01*
X171232995Y-97019431D02*
X171232995Y-97020193D01*
X171232376Y-97021097D02*
X171232376Y-97020907D01*
X171232376Y-97020907D02*
X171232424Y-97020811D01*
X171232424Y-97020811D02*
X171232471Y-97020764D01*
X171232471Y-97020764D02*
X171232614Y-97020669D01*
X171232614Y-97020669D02*
X171232805Y-97020621D01*
X171232805Y-97020621D02*
X171233186Y-97020621D01*
X171233186Y-97020621D02*
X171233281Y-97020669D01*
X171233281Y-97020669D02*
X171233329Y-97020716D01*
X171233329Y-97020716D02*
X171233376Y-97020811D01*
X171233376Y-97020811D02*
X171233376Y-97021002D01*
X171233376Y-97021002D02*
X171233329Y-97021097D01*
X171233329Y-97021097D02*
X171233281Y-97021145D01*
X171233281Y-97021145D02*
X171233186Y-97021192D01*
X171233186Y-97021192D02*
X171232948Y-97021192D01*
X171232948Y-97021192D02*
X171232852Y-97021145D01*
X171232852Y-97021145D02*
X171232805Y-97021097D01*
X171232805Y-97021097D02*
X171232757Y-97021002D01*
X171232757Y-97021002D02*
X171232757Y-97020811D01*
X171232757Y-97020811D02*
X171232805Y-97020716D01*
X171232805Y-97020716D02*
X171232852Y-97020669D01*
X171232852Y-97020669D02*
X171232948Y-97020621D01*
X171232376Y-97021525D02*
X171232376Y-97022192D01*
X171232376Y-97022192D02*
X171233376Y-97021763D01*
X171233281Y-97023144D02*
X171233329Y-97023096D01*
X171233329Y-97023096D02*
X171233376Y-97022954D01*
X171233376Y-97022954D02*
X171233376Y-97022858D01*
X171233376Y-97022858D02*
X171233329Y-97022715D01*
X171233329Y-97022715D02*
X171233233Y-97022620D01*
X171233233Y-97022620D02*
X171233138Y-97022573D01*
X171233138Y-97022573D02*
X171232948Y-97022525D01*
X171232948Y-97022525D02*
X171232805Y-97022525D01*
X171232805Y-97022525D02*
X171232614Y-97022573D01*
X171232614Y-97022573D02*
X171232519Y-97022620D01*
X171232519Y-97022620D02*
X171232424Y-97022715D01*
X171232424Y-97022715D02*
X171232376Y-97022858D01*
X171232376Y-97022858D02*
X171232376Y-97022954D01*
X171232376Y-97022954D02*
X171232424Y-97023096D01*
X171232424Y-97023096D02*
X171232471Y-97023144D01*
X171232376Y-97023477D02*
X171232376Y-97024096D01*
X171232376Y-97024096D02*
X171232757Y-97023763D01*
X171232757Y-97023763D02*
X171232757Y-97023906D01*
X171232757Y-97023906D02*
X171232805Y-97024001D01*
X171232805Y-97024001D02*
X171232852Y-97024049D01*
X171232852Y-97024049D02*
X171232948Y-97024096D01*
X171232948Y-97024096D02*
X171233186Y-97024096D01*
X171233186Y-97024096D02*
X171233281Y-97024049D01*
X171233281Y-97024049D02*
X171233329Y-97024001D01*
X171233329Y-97024001D02*
X171233376Y-97023906D01*
X171233376Y-97023906D02*
X171233376Y-97023620D01*
X171233376Y-97023620D02*
X171233329Y-97023525D01*
X171233329Y-97023525D02*
X171233281Y-97023477D01*
X171233090Y-97024477D02*
X171233090Y-97024953D01*
X171233376Y-97024382D02*
X171232376Y-97024715D01*
X171232376Y-97024715D02*
X171233376Y-97025048D01*
X171233090Y-97025334D02*
X171233090Y-97025810D01*
X171233376Y-97025239D02*
X171232376Y-97025572D01*
X171232376Y-97025572D02*
X171233376Y-97025905D01*
X171232852Y-97026572D02*
X171232900Y-97026715D01*
X171232900Y-97026715D02*
X171232948Y-97026762D01*
X171232948Y-97026762D02*
X171233043Y-97026810D01*
X171233043Y-97026810D02*
X171233186Y-97026810D01*
X171233186Y-97026810D02*
X171233281Y-97026762D01*
X171233281Y-97026762D02*
X171233329Y-97026715D01*
X171233329Y-97026715D02*
X171233376Y-97026620D01*
X171233376Y-97026620D02*
X171233376Y-97026239D01*
X171233376Y-97026239D02*
X171232376Y-97026239D01*
X171232376Y-97026239D02*
X171232376Y-97026572D01*
X171232376Y-97026572D02*
X171232424Y-97026667D01*
X171232424Y-97026667D02*
X171232471Y-97026715D01*
X171232471Y-97026715D02*
X171232567Y-97026762D01*
X171232567Y-97026762D02*
X171232662Y-97026762D01*
X171232662Y-97026762D02*
X171232757Y-97026715D01*
X171232757Y-97026715D02*
X171232805Y-97026667D01*
X171232805Y-97026667D02*
X171232852Y-97026572D01*
X171232852Y-97026572D02*
X171232852Y-97026239D01*
X171232471Y-97027191D02*
X171232424Y-97027239D01*
X171232424Y-97027239D02*
X171232376Y-97027334D01*
X171232376Y-97027334D02*
X171232376Y-97027572D01*
X171232376Y-97027572D02*
X171232424Y-97027667D01*
X171232424Y-97027667D02*
X171232471Y-97027715D01*
X171232471Y-97027715D02*
X171232567Y-97027762D01*
X171232567Y-97027762D02*
X171232662Y-97027762D01*
X171232662Y-97027762D02*
X171232805Y-97027715D01*
X171232805Y-97027715D02*
X171233376Y-97027143D01*
X171233376Y-97027143D02*
X171233376Y-97027762D01*
X178432570Y-97019118D02*
X178432522Y-97019023D01*
X178432522Y-97019023D02*
X178432522Y-97018880D01*
X178432522Y-97018880D02*
X178432570Y-97018737D01*
X178432570Y-97018737D02*
X178432665Y-97018642D01*
X178432665Y-97018642D02*
X178432760Y-97018595D01*
X178432760Y-97018595D02*
X178432951Y-97018547D01*
X178432951Y-97018547D02*
X178433094Y-97018547D01*
X178433094Y-97018547D02*
X178433284Y-97018595D01*
X178433284Y-97018595D02*
X178433379Y-97018642D01*
X178433379Y-97018642D02*
X178433475Y-97018737D01*
X178433475Y-97018737D02*
X178433522Y-97018880D01*
X178433522Y-97018880D02*
X178433522Y-97018976D01*
X178433522Y-97018976D02*
X178433475Y-97019118D01*
X178433475Y-97019118D02*
X178433427Y-97019166D01*
X178433427Y-97019166D02*
X178433094Y-97019166D01*
X178433094Y-97019166D02*
X178433094Y-97018976D01*
X178432522Y-97019737D02*
X178432760Y-97019737D01*
X178432665Y-97019499D02*
X178432760Y-97019737D01*
X178432760Y-97019737D02*
X178432665Y-97019976D01*
X178432951Y-97019595D02*
X178432760Y-97019737D01*
X178432760Y-97019737D02*
X178432951Y-97019880D01*
X178432522Y-97020499D02*
X178432760Y-97020499D01*
X178432665Y-97020261D02*
X178432760Y-97020499D01*
X178432760Y-97020499D02*
X178432665Y-97020738D01*
X178432951Y-97020357D02*
X178432760Y-97020499D01*
X178432760Y-97020499D02*
X178432951Y-97020642D01*
X178432522Y-97021261D02*
X178432760Y-97021261D01*
X178432665Y-97021023D02*
X178432760Y-97021261D01*
X178432760Y-97021261D02*
X178432665Y-97021500D01*
X178432951Y-97021119D02*
X178432760Y-97021261D01*
X178432760Y-97021261D02*
X178432951Y-97021404D01*
D11*
X174779819Y-118983142D02*
X174303628Y-118649809D01*
X174779819Y-118411714D02*
X173779819Y-118411714D01*
X173779819Y-118411714D02*
X173779819Y-118792666D01*
X173779819Y-118792666D02*
X173827438Y-118887904D01*
X173827438Y-118887904D02*
X173875057Y-118935523D01*
X173875057Y-118935523D02*
X173970295Y-118983142D01*
X173970295Y-118983142D02*
X174113152Y-118983142D01*
X174113152Y-118983142D02*
X174208390Y-118935523D01*
X174208390Y-118935523D02*
X174256009Y-118887904D01*
X174256009Y-118887904D02*
X174303628Y-118792666D01*
X174303628Y-118792666D02*
X174303628Y-118411714D01*
X173875057Y-119364095D02*
X173827438Y-119411714D01*
X173827438Y-119411714D02*
X173779819Y-119506952D01*
X173779819Y-119506952D02*
X173779819Y-119745047D01*
X173779819Y-119745047D02*
X173827438Y-119840285D01*
X173827438Y-119840285D02*
X173875057Y-119887904D01*
X173875057Y-119887904D02*
X173970295Y-119935523D01*
X173970295Y-119935523D02*
X174065533Y-119935523D01*
X174065533Y-119935523D02*
X174208390Y-119887904D01*
X174208390Y-119887904D02*
X174779819Y-119316476D01*
X174779819Y-119316476D02*
X174779819Y-119935523D01*
X173779819Y-120554571D02*
X173779819Y-120649809D01*
X173779819Y-120649809D02*
X173827438Y-120745047D01*
X173827438Y-120745047D02*
X173875057Y-120792666D01*
X173875057Y-120792666D02*
X173970295Y-120840285D01*
X173970295Y-120840285D02*
X174160771Y-120887904D01*
X174160771Y-120887904D02*
X174398866Y-120887904D01*
X174398866Y-120887904D02*
X174589342Y-120840285D01*
X174589342Y-120840285D02*
X174684580Y-120792666D01*
X174684580Y-120792666D02*
X174732200Y-120745047D01*
X174732200Y-120745047D02*
X174779819Y-120649809D01*
X174779819Y-120649809D02*
X174779819Y-120554571D01*
X174779819Y-120554571D02*
X174732200Y-120459333D01*
X174732200Y-120459333D02*
X174684580Y-120411714D01*
X174684580Y-120411714D02*
X174589342Y-120364095D01*
X174589342Y-120364095D02*
X174398866Y-120316476D01*
X174398866Y-120316476D02*
X174160771Y-120316476D01*
X174160771Y-120316476D02*
X173970295Y-120364095D01*
X173970295Y-120364095D02*
X173875057Y-120411714D01*
X173875057Y-120411714D02*
X173827438Y-120459333D01*
X173827438Y-120459333D02*
X173779819Y-120554571D01*
D13*
X150659376Y-97266238D02*
X150658376Y-97266238D01*
X150658995Y-97266333D02*
X150659376Y-97266619D01*
X150658709Y-97266619D02*
X150659090Y-97266238D01*
X150659376Y-97267048D02*
X150658709Y-97267048D01*
X150658376Y-97267048D02*
X150658424Y-97267000D01*
X150658424Y-97267000D02*
X150658471Y-97267048D01*
X150658471Y-97267048D02*
X150658424Y-97267095D01*
X150658424Y-97267095D02*
X150658376Y-97267048D01*
X150658376Y-97267048D02*
X150658471Y-97267048D01*
X150659376Y-97267524D02*
X150658376Y-97267524D01*
X150658757Y-97267524D02*
X150658709Y-97267619D01*
X150658709Y-97267619D02*
X150658709Y-97267809D01*
X150658709Y-97267809D02*
X150658757Y-97267905D01*
X150658757Y-97267905D02*
X150658805Y-97267952D01*
X150658805Y-97267952D02*
X150658900Y-97268000D01*
X150658900Y-97268000D02*
X150659186Y-97268000D01*
X150659186Y-97268000D02*
X150659281Y-97267952D01*
X150659281Y-97267952D02*
X150659329Y-97267905D01*
X150659329Y-97267905D02*
X150659376Y-97267809D01*
X150659376Y-97267809D02*
X150659376Y-97267619D01*
X150659376Y-97267619D02*
X150659329Y-97267524D01*
X150658709Y-97268857D02*
X150659376Y-97268857D01*
X150658709Y-97268429D02*
X150659233Y-97268429D01*
X150659233Y-97268429D02*
X150659329Y-97268476D01*
X150659329Y-97268476D02*
X150659376Y-97268571D01*
X150659376Y-97268571D02*
X150659376Y-97268714D01*
X150659376Y-97268714D02*
X150659329Y-97268810D01*
X150659329Y-97268810D02*
X150659281Y-97268857D01*
X150658709Y-97269238D02*
X150658709Y-97269762D01*
X150658709Y-97269762D02*
X150659376Y-97269238D01*
X150659376Y-97269238D02*
X150659376Y-97269762D01*
X150658709Y-97270048D02*
X150658709Y-97270572D01*
X150658709Y-97270572D02*
X150659376Y-97270048D01*
X150659376Y-97270048D02*
X150659376Y-97270572D01*
X150659376Y-97271382D02*
X150658852Y-97271382D01*
X150658852Y-97271382D02*
X150658757Y-97271335D01*
X150658757Y-97271335D02*
X150658709Y-97271239D01*
X150658709Y-97271239D02*
X150658709Y-97271049D01*
X150658709Y-97271049D02*
X150658757Y-97270954D01*
X150659329Y-97271382D02*
X150659376Y-97271287D01*
X150659376Y-97271287D02*
X150659376Y-97271049D01*
X150659376Y-97271049D02*
X150659329Y-97270954D01*
X150659329Y-97270954D02*
X150659233Y-97270906D01*
X150659233Y-97270906D02*
X150659138Y-97270906D01*
X150659138Y-97270906D02*
X150659043Y-97270954D01*
X150659043Y-97270954D02*
X150658995Y-97271049D01*
X150658995Y-97271049D02*
X150658995Y-97271287D01*
X150658995Y-97271287D02*
X150658948Y-97271382D01*
X150659376Y-97271859D02*
X150658709Y-97271859D01*
X150658900Y-97271859D02*
X150658805Y-97271906D01*
X150658805Y-97271906D02*
X150658757Y-97271954D01*
X150658757Y-97271954D02*
X150658709Y-97272049D01*
X150658709Y-97272049D02*
X150658709Y-97272144D01*
X150659376Y-97272906D02*
X150658376Y-97272906D01*
X150659329Y-97272906D02*
X150659376Y-97272811D01*
X150659376Y-97272811D02*
X150659376Y-97272620D01*
X150659376Y-97272620D02*
X150659329Y-97272525D01*
X150659329Y-97272525D02*
X150659281Y-97272478D01*
X150659281Y-97272478D02*
X150659186Y-97272430D01*
X150659186Y-97272430D02*
X150658900Y-97272430D01*
X150658900Y-97272430D02*
X150658805Y-97272478D01*
X150658805Y-97272478D02*
X150658757Y-97272525D01*
X150658757Y-97272525D02*
X150658709Y-97272620D01*
X150658709Y-97272620D02*
X150658709Y-97272811D01*
X150658709Y-97272811D02*
X150658757Y-97272906D01*
X150658995Y-97273383D02*
X150658995Y-97274145D01*
X150658376Y-97275049D02*
X150658376Y-97274859D01*
X150658376Y-97274859D02*
X150658424Y-97274763D01*
X150658424Y-97274763D02*
X150658471Y-97274716D01*
X150658471Y-97274716D02*
X150658614Y-97274621D01*
X150658614Y-97274621D02*
X150658805Y-97274573D01*
X150658805Y-97274573D02*
X150659186Y-97274573D01*
X150659186Y-97274573D02*
X150659281Y-97274621D01*
X150659281Y-97274621D02*
X150659329Y-97274668D01*
X150659329Y-97274668D02*
X150659376Y-97274763D01*
X150659376Y-97274763D02*
X150659376Y-97274954D01*
X150659376Y-97274954D02*
X150659329Y-97275049D01*
X150659329Y-97275049D02*
X150659281Y-97275097D01*
X150659281Y-97275097D02*
X150659186Y-97275144D01*
X150659186Y-97275144D02*
X150658948Y-97275144D01*
X150658948Y-97275144D02*
X150658852Y-97275097D01*
X150658852Y-97275097D02*
X150658805Y-97275049D01*
X150658805Y-97275049D02*
X150658757Y-97274954D01*
X150658757Y-97274954D02*
X150658757Y-97274763D01*
X150658757Y-97274763D02*
X150658805Y-97274668D01*
X150658805Y-97274668D02*
X150658852Y-97274621D01*
X150658852Y-97274621D02*
X150658948Y-97274573D01*
X150658376Y-97275477D02*
X150658376Y-97276144D01*
X150658376Y-97276144D02*
X150659376Y-97275715D01*
X150659281Y-97277096D02*
X150659329Y-97277048D01*
X150659329Y-97277048D02*
X150659376Y-97276906D01*
X150659376Y-97276906D02*
X150659376Y-97276810D01*
X150659376Y-97276810D02*
X150659329Y-97276667D01*
X150659329Y-97276667D02*
X150659233Y-97276572D01*
X150659233Y-97276572D02*
X150659138Y-97276525D01*
X150659138Y-97276525D02*
X150658948Y-97276477D01*
X150658948Y-97276477D02*
X150658805Y-97276477D01*
X150658805Y-97276477D02*
X150658614Y-97276525D01*
X150658614Y-97276525D02*
X150658519Y-97276572D01*
X150658519Y-97276572D02*
X150658424Y-97276667D01*
X150658424Y-97276667D02*
X150658376Y-97276810D01*
X150658376Y-97276810D02*
X150658376Y-97276906D01*
X150658376Y-97276906D02*
X150658424Y-97277048D01*
X150658424Y-97277048D02*
X150658471Y-97277096D01*
X150658376Y-97277429D02*
X150658376Y-97278048D01*
X150658376Y-97278048D02*
X150658757Y-97277715D01*
X150658757Y-97277715D02*
X150658757Y-97277858D01*
X150658757Y-97277858D02*
X150658805Y-97277953D01*
X150658805Y-97277953D02*
X150658852Y-97278001D01*
X150658852Y-97278001D02*
X150658948Y-97278048D01*
X150658948Y-97278048D02*
X150659186Y-97278048D01*
X150659186Y-97278048D02*
X150659281Y-97278001D01*
X150659281Y-97278001D02*
X150659329Y-97277953D01*
X150659329Y-97277953D02*
X150659376Y-97277858D01*
X150659376Y-97277858D02*
X150659376Y-97277572D01*
X150659376Y-97277572D02*
X150659329Y-97277477D01*
X150659329Y-97277477D02*
X150659281Y-97277429D01*
X150659090Y-97278429D02*
X150659090Y-97278905D01*
X150659376Y-97278334D02*
X150658376Y-97278667D01*
X150658376Y-97278667D02*
X150659376Y-97279000D01*
X150659281Y-97279905D02*
X150659329Y-97279857D01*
X150659329Y-97279857D02*
X150659376Y-97279715D01*
X150659376Y-97279715D02*
X150659376Y-97279619D01*
X150659376Y-97279619D02*
X150659329Y-97279476D01*
X150659329Y-97279476D02*
X150659233Y-97279381D01*
X150659233Y-97279381D02*
X150659138Y-97279334D01*
X150659138Y-97279334D02*
X150658948Y-97279286D01*
X150658948Y-97279286D02*
X150658805Y-97279286D01*
X150658805Y-97279286D02*
X150658614Y-97279334D01*
X150658614Y-97279334D02*
X150658519Y-97279381D01*
X150658519Y-97279381D02*
X150658424Y-97279476D01*
X150658424Y-97279476D02*
X150658376Y-97279619D01*
X150658376Y-97279619D02*
X150658376Y-97279715D01*
X150658376Y-97279715D02*
X150658424Y-97279857D01*
X150658424Y-97279857D02*
X150658471Y-97279905D01*
X150658376Y-97280238D02*
X150658376Y-97280857D01*
X150658376Y-97280857D02*
X150658757Y-97280524D01*
X150658757Y-97280524D02*
X150658757Y-97280667D01*
X150658757Y-97280667D02*
X150658805Y-97280762D01*
X150658805Y-97280762D02*
X150658852Y-97280810D01*
X150658852Y-97280810D02*
X150658948Y-97280857D01*
X150658948Y-97280857D02*
X150659186Y-97280857D01*
X150659186Y-97280857D02*
X150659281Y-97280810D01*
X150659281Y-97280810D02*
X150659329Y-97280762D01*
X150659329Y-97280762D02*
X150659376Y-97280667D01*
X150659376Y-97280667D02*
X150659376Y-97280381D01*
X150659376Y-97280381D02*
X150659329Y-97280286D01*
X150659329Y-97280286D02*
X150659281Y-97280238D01*
X150658709Y-97281714D02*
X150659376Y-97281714D01*
X150658329Y-97281476D02*
X150659043Y-97281238D01*
X150659043Y-97281238D02*
X150659043Y-97281857D01*
X157858570Y-97273118D02*
X157858522Y-97273023D01*
X157858522Y-97273023D02*
X157858522Y-97272880D01*
X157858522Y-97272880D02*
X157858570Y-97272737D01*
X157858570Y-97272737D02*
X157858665Y-97272642D01*
X157858665Y-97272642D02*
X157858760Y-97272595D01*
X157858760Y-97272595D02*
X157858951Y-97272547D01*
X157858951Y-97272547D02*
X157859094Y-97272547D01*
X157859094Y-97272547D02*
X157859284Y-97272595D01*
X157859284Y-97272595D02*
X157859379Y-97272642D01*
X157859379Y-97272642D02*
X157859475Y-97272737D01*
X157859475Y-97272737D02*
X157859522Y-97272880D01*
X157859522Y-97272880D02*
X157859522Y-97272976D01*
X157859522Y-97272976D02*
X157859475Y-97273118D01*
X157859475Y-97273118D02*
X157859427Y-97273166D01*
X157859427Y-97273166D02*
X157859094Y-97273166D01*
X157859094Y-97273166D02*
X157859094Y-97272976D01*
X157858522Y-97273737D02*
X157858760Y-97273737D01*
X157858665Y-97273499D02*
X157858760Y-97273737D01*
X157858760Y-97273737D02*
X157858665Y-97273976D01*
X157858951Y-97273595D02*
X157858760Y-97273737D01*
X157858760Y-97273737D02*
X157858951Y-97273880D01*
X157858522Y-97274499D02*
X157858760Y-97274499D01*
X157858665Y-97274261D02*
X157858760Y-97274499D01*
X157858760Y-97274499D02*
X157858665Y-97274738D01*
X157858951Y-97274357D02*
X157858760Y-97274499D01*
X157858760Y-97274499D02*
X157858951Y-97274642D01*
X157858522Y-97275261D02*
X157858760Y-97275261D01*
X157858665Y-97275023D02*
X157858760Y-97275261D01*
X157858760Y-97275261D02*
X157858665Y-97275500D01*
X157858951Y-97275119D02*
X157858760Y-97275261D01*
X157858760Y-97275261D02*
X157858951Y-97275404D01*
X148373376Y-97266286D02*
X148372376Y-97266286D01*
X148372995Y-97266381D02*
X148373376Y-97266667D01*
X148372709Y-97266667D02*
X148373090Y-97266286D01*
X148373376Y-97267096D02*
X148372709Y-97267096D01*
X148372376Y-97267096D02*
X148372424Y-97267048D01*
X148372424Y-97267048D02*
X148372471Y-97267096D01*
X148372471Y-97267096D02*
X148372424Y-97267143D01*
X148372424Y-97267143D02*
X148372376Y-97267096D01*
X148372376Y-97267096D02*
X148372471Y-97267096D01*
X148373376Y-97267572D02*
X148372376Y-97267572D01*
X148372757Y-97267572D02*
X148372709Y-97267667D01*
X148372709Y-97267667D02*
X148372709Y-97267857D01*
X148372709Y-97267857D02*
X148372757Y-97267953D01*
X148372757Y-97267953D02*
X148372805Y-97268000D01*
X148372805Y-97268000D02*
X148372900Y-97268048D01*
X148372900Y-97268048D02*
X148373186Y-97268048D01*
X148373186Y-97268048D02*
X148373281Y-97268000D01*
X148373281Y-97268000D02*
X148373329Y-97267953D01*
X148373329Y-97267953D02*
X148373376Y-97267857D01*
X148373376Y-97267857D02*
X148373376Y-97267667D01*
X148373376Y-97267667D02*
X148373329Y-97267572D01*
X148372709Y-97268905D02*
X148373376Y-97268905D01*
X148372709Y-97268477D02*
X148373233Y-97268477D01*
X148373233Y-97268477D02*
X148373329Y-97268524D01*
X148373329Y-97268524D02*
X148373376Y-97268619D01*
X148373376Y-97268619D02*
X148373376Y-97268762D01*
X148373376Y-97268762D02*
X148373329Y-97268858D01*
X148373329Y-97268858D02*
X148373281Y-97268905D01*
X148372709Y-97269286D02*
X148372709Y-97269810D01*
X148372709Y-97269810D02*
X148373376Y-97269286D01*
X148373376Y-97269286D02*
X148373376Y-97269810D01*
X148372709Y-97270096D02*
X148372709Y-97270620D01*
X148372709Y-97270620D02*
X148373376Y-97270096D01*
X148373376Y-97270096D02*
X148373376Y-97270620D01*
X148373376Y-97271430D02*
X148372852Y-97271430D01*
X148372852Y-97271430D02*
X148372757Y-97271383D01*
X148372757Y-97271383D02*
X148372709Y-97271287D01*
X148372709Y-97271287D02*
X148372709Y-97271097D01*
X148372709Y-97271097D02*
X148372757Y-97271002D01*
X148373329Y-97271430D02*
X148373376Y-97271335D01*
X148373376Y-97271335D02*
X148373376Y-97271097D01*
X148373376Y-97271097D02*
X148373329Y-97271002D01*
X148373329Y-97271002D02*
X148373233Y-97270954D01*
X148373233Y-97270954D02*
X148373138Y-97270954D01*
X148373138Y-97270954D02*
X148373043Y-97271002D01*
X148373043Y-97271002D02*
X148372995Y-97271097D01*
X148372995Y-97271097D02*
X148372995Y-97271335D01*
X148372995Y-97271335D02*
X148372948Y-97271430D01*
X148373376Y-97271907D02*
X148372709Y-97271907D01*
X148372900Y-97271907D02*
X148372805Y-97271954D01*
X148372805Y-97271954D02*
X148372757Y-97272002D01*
X148372757Y-97272002D02*
X148372709Y-97272097D01*
X148372709Y-97272097D02*
X148372709Y-97272192D01*
X148373376Y-97272954D02*
X148372376Y-97272954D01*
X148373329Y-97272954D02*
X148373376Y-97272859D01*
X148373376Y-97272859D02*
X148373376Y-97272668D01*
X148373376Y-97272668D02*
X148373329Y-97272573D01*
X148373329Y-97272573D02*
X148373281Y-97272526D01*
X148373281Y-97272526D02*
X148373186Y-97272478D01*
X148373186Y-97272478D02*
X148372900Y-97272478D01*
X148372900Y-97272478D02*
X148372805Y-97272526D01*
X148372805Y-97272526D02*
X148372757Y-97272573D01*
X148372757Y-97272573D02*
X148372709Y-97272668D01*
X148372709Y-97272668D02*
X148372709Y-97272859D01*
X148372709Y-97272859D02*
X148372757Y-97272954D01*
X148372995Y-97273431D02*
X148372995Y-97274193D01*
X148372376Y-97275097D02*
X148372376Y-97274907D01*
X148372376Y-97274907D02*
X148372424Y-97274811D01*
X148372424Y-97274811D02*
X148372471Y-97274764D01*
X148372471Y-97274764D02*
X148372614Y-97274669D01*
X148372614Y-97274669D02*
X148372805Y-97274621D01*
X148372805Y-97274621D02*
X148373186Y-97274621D01*
X148373186Y-97274621D02*
X148373281Y-97274669D01*
X148373281Y-97274669D02*
X148373329Y-97274716D01*
X148373329Y-97274716D02*
X148373376Y-97274811D01*
X148373376Y-97274811D02*
X148373376Y-97275002D01*
X148373376Y-97275002D02*
X148373329Y-97275097D01*
X148373329Y-97275097D02*
X148373281Y-97275145D01*
X148373281Y-97275145D02*
X148373186Y-97275192D01*
X148373186Y-97275192D02*
X148372948Y-97275192D01*
X148372948Y-97275192D02*
X148372852Y-97275145D01*
X148372852Y-97275145D02*
X148372805Y-97275097D01*
X148372805Y-97275097D02*
X148372757Y-97275002D01*
X148372757Y-97275002D02*
X148372757Y-97274811D01*
X148372757Y-97274811D02*
X148372805Y-97274716D01*
X148372805Y-97274716D02*
X148372852Y-97274669D01*
X148372852Y-97274669D02*
X148372948Y-97274621D01*
X148372376Y-97275525D02*
X148372376Y-97276192D01*
X148372376Y-97276192D02*
X148373376Y-97275763D01*
X148373281Y-97277144D02*
X148373329Y-97277096D01*
X148373329Y-97277096D02*
X148373376Y-97276954D01*
X148373376Y-97276954D02*
X148373376Y-97276858D01*
X148373376Y-97276858D02*
X148373329Y-97276715D01*
X148373329Y-97276715D02*
X148373233Y-97276620D01*
X148373233Y-97276620D02*
X148373138Y-97276573D01*
X148373138Y-97276573D02*
X148372948Y-97276525D01*
X148372948Y-97276525D02*
X148372805Y-97276525D01*
X148372805Y-97276525D02*
X148372614Y-97276573D01*
X148372614Y-97276573D02*
X148372519Y-97276620D01*
X148372519Y-97276620D02*
X148372424Y-97276715D01*
X148372424Y-97276715D02*
X148372376Y-97276858D01*
X148372376Y-97276858D02*
X148372376Y-97276954D01*
X148372376Y-97276954D02*
X148372424Y-97277096D01*
X148372424Y-97277096D02*
X148372471Y-97277144D01*
X148372376Y-97277477D02*
X148372376Y-97278096D01*
X148372376Y-97278096D02*
X148372757Y-97277763D01*
X148372757Y-97277763D02*
X148372757Y-97277906D01*
X148372757Y-97277906D02*
X148372805Y-97278001D01*
X148372805Y-97278001D02*
X148372852Y-97278049D01*
X148372852Y-97278049D02*
X148372948Y-97278096D01*
X148372948Y-97278096D02*
X148373186Y-97278096D01*
X148373186Y-97278096D02*
X148373281Y-97278049D01*
X148373281Y-97278049D02*
X148373329Y-97278001D01*
X148373329Y-97278001D02*
X148373376Y-97277906D01*
X148373376Y-97277906D02*
X148373376Y-97277620D01*
X148373376Y-97277620D02*
X148373329Y-97277525D01*
X148373329Y-97277525D02*
X148373281Y-97277477D01*
X148373090Y-97278477D02*
X148373090Y-97278953D01*
X148373376Y-97278382D02*
X148372376Y-97278715D01*
X148372376Y-97278715D02*
X148373376Y-97279048D01*
X148373090Y-97279334D02*
X148373090Y-97279810D01*
X148373376Y-97279239D02*
X148372376Y-97279572D01*
X148372376Y-97279572D02*
X148373376Y-97279905D01*
X148372852Y-97280572D02*
X148372900Y-97280715D01*
X148372900Y-97280715D02*
X148372948Y-97280762D01*
X148372948Y-97280762D02*
X148373043Y-97280810D01*
X148373043Y-97280810D02*
X148373186Y-97280810D01*
X148373186Y-97280810D02*
X148373281Y-97280762D01*
X148373281Y-97280762D02*
X148373329Y-97280715D01*
X148373329Y-97280715D02*
X148373376Y-97280620D01*
X148373376Y-97280620D02*
X148373376Y-97280239D01*
X148373376Y-97280239D02*
X148372376Y-97280239D01*
X148372376Y-97280239D02*
X148372376Y-97280572D01*
X148372376Y-97280572D02*
X148372424Y-97280667D01*
X148372424Y-97280667D02*
X148372471Y-97280715D01*
X148372471Y-97280715D02*
X148372567Y-97280762D01*
X148372567Y-97280762D02*
X148372662Y-97280762D01*
X148372662Y-97280762D02*
X148372757Y-97280715D01*
X148372757Y-97280715D02*
X148372805Y-97280667D01*
X148372805Y-97280667D02*
X148372852Y-97280572D01*
X148372852Y-97280572D02*
X148372852Y-97280239D01*
X148372471Y-97281191D02*
X148372424Y-97281239D01*
X148372424Y-97281239D02*
X148372376Y-97281334D01*
X148372376Y-97281334D02*
X148372376Y-97281572D01*
X148372376Y-97281572D02*
X148372424Y-97281667D01*
X148372424Y-97281667D02*
X148372471Y-97281715D01*
X148372471Y-97281715D02*
X148372567Y-97281762D01*
X148372567Y-97281762D02*
X148372662Y-97281762D01*
X148372662Y-97281762D02*
X148372805Y-97281715D01*
X148372805Y-97281715D02*
X148373376Y-97281143D01*
X148373376Y-97281143D02*
X148373376Y-97281762D01*
X155572570Y-97273118D02*
X155572522Y-97273023D01*
X155572522Y-97273023D02*
X155572522Y-97272880D01*
X155572522Y-97272880D02*
X155572570Y-97272737D01*
X155572570Y-97272737D02*
X155572665Y-97272642D01*
X155572665Y-97272642D02*
X155572760Y-97272595D01*
X155572760Y-97272595D02*
X155572951Y-97272547D01*
X155572951Y-97272547D02*
X155573094Y-97272547D01*
X155573094Y-97272547D02*
X155573284Y-97272595D01*
X155573284Y-97272595D02*
X155573379Y-97272642D01*
X155573379Y-97272642D02*
X155573475Y-97272737D01*
X155573475Y-97272737D02*
X155573522Y-97272880D01*
X155573522Y-97272880D02*
X155573522Y-97272976D01*
X155573522Y-97272976D02*
X155573475Y-97273118D01*
X155573475Y-97273118D02*
X155573427Y-97273166D01*
X155573427Y-97273166D02*
X155573094Y-97273166D01*
X155573094Y-97273166D02*
X155573094Y-97272976D01*
X155572522Y-97273737D02*
X155572760Y-97273737D01*
X155572665Y-97273499D02*
X155572760Y-97273737D01*
X155572760Y-97273737D02*
X155572665Y-97273976D01*
X155572951Y-97273595D02*
X155572760Y-97273737D01*
X155572760Y-97273737D02*
X155572951Y-97273880D01*
X155572522Y-97274499D02*
X155572760Y-97274499D01*
X155572665Y-97274261D02*
X155572760Y-97274499D01*
X155572760Y-97274499D02*
X155572665Y-97274738D01*
X155572951Y-97274357D02*
X155572760Y-97274499D01*
X155572760Y-97274499D02*
X155572951Y-97274642D01*
X155572522Y-97275261D02*
X155572760Y-97275261D01*
X155572665Y-97275023D02*
X155572760Y-97275261D01*
X155572760Y-97275261D02*
X155572665Y-97275500D01*
X155572951Y-97275119D02*
X155572760Y-97275261D01*
X155572760Y-97275261D02*
X155572951Y-97275404D01*
D11*
X165127819Y-119967333D02*
X164651628Y-119634000D01*
X165127819Y-119395905D02*
X164127819Y-119395905D01*
X164127819Y-119395905D02*
X164127819Y-119776857D01*
X164127819Y-119776857D02*
X164175438Y-119872095D01*
X164175438Y-119872095D02*
X164223057Y-119919714D01*
X164223057Y-119919714D02*
X164318295Y-119967333D01*
X164318295Y-119967333D02*
X164461152Y-119967333D01*
X164461152Y-119967333D02*
X164556390Y-119919714D01*
X164556390Y-119919714D02*
X164604009Y-119872095D01*
X164604009Y-119872095D02*
X164651628Y-119776857D01*
X164651628Y-119776857D02*
X164651628Y-119395905D01*
X164556390Y-120538762D02*
X164508771Y-120443524D01*
X164508771Y-120443524D02*
X164461152Y-120395905D01*
X164461152Y-120395905D02*
X164365914Y-120348286D01*
X164365914Y-120348286D02*
X164318295Y-120348286D01*
X164318295Y-120348286D02*
X164223057Y-120395905D01*
X164223057Y-120395905D02*
X164175438Y-120443524D01*
X164175438Y-120443524D02*
X164127819Y-120538762D01*
X164127819Y-120538762D02*
X164127819Y-120729238D01*
X164127819Y-120729238D02*
X164175438Y-120824476D01*
X164175438Y-120824476D02*
X164223057Y-120872095D01*
X164223057Y-120872095D02*
X164318295Y-120919714D01*
X164318295Y-120919714D02*
X164365914Y-120919714D01*
X164365914Y-120919714D02*
X164461152Y-120872095D01*
X164461152Y-120872095D02*
X164508771Y-120824476D01*
X164508771Y-120824476D02*
X164556390Y-120729238D01*
X164556390Y-120729238D02*
X164556390Y-120538762D01*
X164556390Y-120538762D02*
X164604009Y-120443524D01*
X164604009Y-120443524D02*
X164651628Y-120395905D01*
X164651628Y-120395905D02*
X164746866Y-120348286D01*
X164746866Y-120348286D02*
X164937342Y-120348286D01*
X164937342Y-120348286D02*
X165032580Y-120395905D01*
X165032580Y-120395905D02*
X165080200Y-120443524D01*
X165080200Y-120443524D02*
X165127819Y-120538762D01*
X165127819Y-120538762D02*
X165127819Y-120729238D01*
X165127819Y-120729238D02*
X165080200Y-120824476D01*
X165080200Y-120824476D02*
X165032580Y-120872095D01*
X165032580Y-120872095D02*
X164937342Y-120919714D01*
X164937342Y-120919714D02*
X164746866Y-120919714D01*
X164746866Y-120919714D02*
X164651628Y-120872095D01*
X164651628Y-120872095D02*
X164604009Y-120824476D01*
X164604009Y-120824476D02*
X164556390Y-120729238D01*
X161196333Y-123652819D02*
X161196333Y-124367104D01*
X161196333Y-124367104D02*
X161243952Y-124509961D01*
X161243952Y-124509961D02*
X161339190Y-124605200D01*
X161339190Y-124605200D02*
X161482047Y-124652819D01*
X161482047Y-124652819D02*
X161577285Y-124652819D01*
X160291571Y-123652819D02*
X160482047Y-123652819D01*
X160482047Y-123652819D02*
X160577285Y-123700438D01*
X160577285Y-123700438D02*
X160624904Y-123748057D01*
X160624904Y-123748057D02*
X160720142Y-123890914D01*
X160720142Y-123890914D02*
X160767761Y-124081390D01*
X160767761Y-124081390D02*
X160767761Y-124462342D01*
X160767761Y-124462342D02*
X160720142Y-124557580D01*
X160720142Y-124557580D02*
X160672523Y-124605200D01*
X160672523Y-124605200D02*
X160577285Y-124652819D01*
X160577285Y-124652819D02*
X160386809Y-124652819D01*
X160386809Y-124652819D02*
X160291571Y-124605200D01*
X160291571Y-124605200D02*
X160243952Y-124557580D01*
X160243952Y-124557580D02*
X160196333Y-124462342D01*
X160196333Y-124462342D02*
X160196333Y-124224247D01*
X160196333Y-124224247D02*
X160243952Y-124129009D01*
X160243952Y-124129009D02*
X160291571Y-124081390D01*
X160291571Y-124081390D02*
X160386809Y-124033771D01*
X160386809Y-124033771D02*
X160577285Y-124033771D01*
X160577285Y-124033771D02*
X160672523Y-124081390D01*
X160672523Y-124081390D02*
X160720142Y-124129009D01*
X160720142Y-124129009D02*
X160767761Y-124224247D01*
X171731819Y-118983142D02*
X171255628Y-118649809D01*
X171731819Y-118411714D02*
X170731819Y-118411714D01*
X170731819Y-118411714D02*
X170731819Y-118792666D01*
X170731819Y-118792666D02*
X170779438Y-118887904D01*
X170779438Y-118887904D02*
X170827057Y-118935523D01*
X170827057Y-118935523D02*
X170922295Y-118983142D01*
X170922295Y-118983142D02*
X171065152Y-118983142D01*
X171065152Y-118983142D02*
X171160390Y-118935523D01*
X171160390Y-118935523D02*
X171208009Y-118887904D01*
X171208009Y-118887904D02*
X171255628Y-118792666D01*
X171255628Y-118792666D02*
X171255628Y-118411714D01*
X171731819Y-119935523D02*
X171731819Y-119364095D01*
X171731819Y-119649809D02*
X170731819Y-119649809D01*
X170731819Y-119649809D02*
X170874676Y-119554571D01*
X170874676Y-119554571D02*
X170969914Y-119459333D01*
X170969914Y-119459333D02*
X171017533Y-119364095D01*
X171731819Y-120887904D02*
X171731819Y-120316476D01*
X171731819Y-120602190D02*
X170731819Y-120602190D01*
X170731819Y-120602190D02*
X170874676Y-120506952D01*
X170874676Y-120506952D02*
X170969914Y-120411714D01*
X170969914Y-120411714D02*
X171017533Y-120316476D01*
X166651819Y-119967333D02*
X166175628Y-119634000D01*
X166651819Y-119395905D02*
X165651819Y-119395905D01*
X165651819Y-119395905D02*
X165651819Y-119776857D01*
X165651819Y-119776857D02*
X165699438Y-119872095D01*
X165699438Y-119872095D02*
X165747057Y-119919714D01*
X165747057Y-119919714D02*
X165842295Y-119967333D01*
X165842295Y-119967333D02*
X165985152Y-119967333D01*
X165985152Y-119967333D02*
X166080390Y-119919714D01*
X166080390Y-119919714D02*
X166128009Y-119872095D01*
X166128009Y-119872095D02*
X166175628Y-119776857D01*
X166175628Y-119776857D02*
X166175628Y-119395905D01*
X166651819Y-120443524D02*
X166651819Y-120634000D01*
X166651819Y-120634000D02*
X166604200Y-120729238D01*
X166604200Y-120729238D02*
X166556580Y-120776857D01*
X166556580Y-120776857D02*
X166413723Y-120872095D01*
X166413723Y-120872095D02*
X166223247Y-120919714D01*
X166223247Y-120919714D02*
X165842295Y-120919714D01*
X165842295Y-120919714D02*
X165747057Y-120872095D01*
X165747057Y-120872095D02*
X165699438Y-120824476D01*
X165699438Y-120824476D02*
X165651819Y-120729238D01*
X165651819Y-120729238D02*
X165651819Y-120538762D01*
X165651819Y-120538762D02*
X165699438Y-120443524D01*
X165699438Y-120443524D02*
X165747057Y-120395905D01*
X165747057Y-120395905D02*
X165842295Y-120348286D01*
X165842295Y-120348286D02*
X166080390Y-120348286D01*
X166080390Y-120348286D02*
X166175628Y-120395905D01*
X166175628Y-120395905D02*
X166223247Y-120443524D01*
X166223247Y-120443524D02*
X166270866Y-120538762D01*
X166270866Y-120538762D02*
X166270866Y-120729238D01*
X166270866Y-120729238D02*
X166223247Y-120824476D01*
X166223247Y-120824476D02*
X166175628Y-120872095D01*
X166175628Y-120872095D02*
X166080390Y-120919714D01*
D14*
X172206500Y-123068724D02*
X172206500Y-122559276D01*
X173251500Y-123068724D02*
X173251500Y-122559276D01*
D15*
X186704264Y-102154873D02*
X186721739Y-102186233D01*
X186722575Y-102222034D01*
X186702082Y-102253472D01*
X186697416Y-102257348D01*
X186687949Y-102262814D01*
X186674267Y-102267021D01*
X186653748Y-102270133D01*
X186623768Y-102272313D01*
X186581704Y-102273724D01*
X186524932Y-102274529D01*
X186450830Y-102274893D01*
X186356773Y-102274978D01*
X186035227Y-102274978D01*
X186013647Y-102248327D01*
X185998877Y-102224614D01*
X185992067Y-102201600D01*
X185997949Y-102180594D01*
X186013647Y-102154873D01*
X186035227Y-102128222D01*
X186682684Y-102128222D01*
X186704264Y-102154873D01*
G36*
X186704264Y-102154873D02*
G01*
X186721739Y-102186233D01*
X186722575Y-102222034D01*
X186702082Y-102253472D01*
X186697416Y-102257348D01*
X186687949Y-102262814D01*
X186674267Y-102267021D01*
X186653748Y-102270133D01*
X186623768Y-102272313D01*
X186581704Y-102273724D01*
X186524932Y-102274529D01*
X186450830Y-102274893D01*
X186356773Y-102274978D01*
X186035227Y-102274978D01*
X186013647Y-102248327D01*
X185998877Y-102224614D01*
X185992067Y-102201600D01*
X185997949Y-102180594D01*
X186013647Y-102154873D01*
X186035227Y-102128222D01*
X186682684Y-102128222D01*
X186704264Y-102154873D01*
G37*
X186444567Y-94988041D02*
X186518789Y-94988299D01*
X186575541Y-94988970D01*
X186617512Y-94990248D01*
X186647389Y-94992327D01*
X186667861Y-94995401D01*
X186681614Y-94999666D01*
X186691337Y-95005316D01*
X186699717Y-95012545D01*
X186721181Y-95044009D01*
X186722947Y-95079174D01*
X186703267Y-95112178D01*
X186697398Y-95117484D01*
X186688314Y-95122934D01*
X186674973Y-95127100D01*
X186654757Y-95130154D01*
X186625049Y-95132268D01*
X186583232Y-95133614D01*
X186526689Y-95134362D01*
X186452802Y-95134686D01*
X186358956Y-95134755D01*
X186283294Y-95134716D01*
X186205385Y-95134461D01*
X186145375Y-95133817D01*
X186100648Y-95132613D01*
X186068585Y-95130676D01*
X186046571Y-95127836D01*
X186031987Y-95123921D01*
X186022218Y-95118758D01*
X186014645Y-95112178D01*
X185995623Y-95082994D01*
X185996463Y-95049863D01*
X186019776Y-95015709D01*
X186047485Y-94988000D01*
X186360537Y-94988000D01*
X186444567Y-94988041D01*
G36*
X186444567Y-94988041D02*
G01*
X186518789Y-94988299D01*
X186575541Y-94988970D01*
X186617512Y-94990248D01*
X186647389Y-94992327D01*
X186667861Y-94995401D01*
X186681614Y-94999666D01*
X186691337Y-95005316D01*
X186699717Y-95012545D01*
X186721181Y-95044009D01*
X186722947Y-95079174D01*
X186703267Y-95112178D01*
X186697398Y-95117484D01*
X186688314Y-95122934D01*
X186674973Y-95127100D01*
X186654757Y-95130154D01*
X186625049Y-95132268D01*
X186583232Y-95133614D01*
X186526689Y-95134362D01*
X186452802Y-95134686D01*
X186358956Y-95134755D01*
X186283294Y-95134716D01*
X186205385Y-95134461D01*
X186145375Y-95133817D01*
X186100648Y-95132613D01*
X186068585Y-95130676D01*
X186046571Y-95127836D01*
X186031987Y-95123921D01*
X186022218Y-95118758D01*
X186014645Y-95112178D01*
X185995623Y-95082994D01*
X185996463Y-95049863D01*
X186019776Y-95015709D01*
X186047485Y-94988000D01*
X186360537Y-94988000D01*
X186444567Y-94988041D01*
G37*
X181257307Y-95231331D02*
X181298450Y-95233540D01*
X181330582Y-95239106D01*
X181361122Y-95249414D01*
X181397489Y-95265852D01*
X181424728Y-95279800D01*
X181510429Y-95338335D01*
X181579617Y-95410381D01*
X181630741Y-95494053D01*
X181662250Y-95587469D01*
X181669225Y-95620566D01*
X181676094Y-95661040D01*
X181677919Y-95694001D01*
X181674947Y-95728302D01*
X181667426Y-95772800D01*
X181655002Y-95824066D01*
X181617112Y-95914566D01*
X181562836Y-95993655D01*
X181494770Y-96059472D01*
X181415511Y-96110160D01*
X181327654Y-96143860D01*
X181233795Y-96158714D01*
X181136530Y-96152864D01*
X181040220Y-96126601D01*
X180951494Y-96081582D01*
X180876419Y-96020627D01*
X180816641Y-95945816D01*
X180773809Y-95859232D01*
X180749571Y-95762957D01*
X180745576Y-95659072D01*
X180755850Y-95581438D01*
X180783053Y-95498687D01*
X180828484Y-95423594D01*
X180894302Y-95351702D01*
X180938567Y-95313154D01*
X180996961Y-95273744D01*
X181057586Y-95248554D01*
X181126865Y-95235139D01*
X181211222Y-95231052D01*
X181257307Y-95231331D01*
G36*
X181257307Y-95231331D02*
G01*
X181298450Y-95233540D01*
X181330582Y-95239106D01*
X181361122Y-95249414D01*
X181397489Y-95265852D01*
X181424728Y-95279800D01*
X181510429Y-95338335D01*
X181579617Y-95410381D01*
X181630741Y-95494053D01*
X181662250Y-95587469D01*
X181669225Y-95620566D01*
X181676094Y-95661040D01*
X181677919Y-95694001D01*
X181674947Y-95728302D01*
X181667426Y-95772800D01*
X181655002Y-95824066D01*
X181617112Y-95914566D01*
X181562836Y-95993655D01*
X181494770Y-96059472D01*
X181415511Y-96110160D01*
X181327654Y-96143860D01*
X181233795Y-96158714D01*
X181136530Y-96152864D01*
X181040220Y-96126601D01*
X180951494Y-96081582D01*
X180876419Y-96020627D01*
X180816641Y-95945816D01*
X180773809Y-95859232D01*
X180749571Y-95762957D01*
X180745576Y-95659072D01*
X180755850Y-95581438D01*
X180783053Y-95498687D01*
X180828484Y-95423594D01*
X180894302Y-95351702D01*
X180938567Y-95313154D01*
X180996961Y-95273744D01*
X181057586Y-95248554D01*
X181126865Y-95235139D01*
X181211222Y-95231052D01*
X181257307Y-95231331D01*
G37*
X186118178Y-102525083D02*
X186119631Y-102526443D01*
X186127992Y-102537646D01*
X186133547Y-102554748D01*
X186136840Y-102581918D01*
X186138418Y-102623322D01*
X186138822Y-102683127D01*
X186138822Y-102822489D01*
X186402589Y-102822489D01*
X186478417Y-102822564D01*
X186545083Y-102822972D01*
X186594867Y-102823954D01*
X186630784Y-102825750D01*
X186655850Y-102828601D01*
X186673081Y-102832747D01*
X186685492Y-102838429D01*
X186696100Y-102845886D01*
X186698906Y-102848176D01*
X186721548Y-102879354D01*
X186723112Y-102913734D01*
X186703267Y-102946666D01*
X186695191Y-102953645D01*
X186684593Y-102959117D01*
X186668749Y-102963137D01*
X186644773Y-102965928D01*
X186609774Y-102967712D01*
X186560864Y-102968711D01*
X186495154Y-102969148D01*
X186409756Y-102969244D01*
X186138822Y-102969244D01*
X186138822Y-103115180D01*
X186138821Y-103126280D01*
X186138596Y-103182798D01*
X186137457Y-103221642D01*
X186134657Y-103247035D01*
X186129450Y-103263196D01*
X186121089Y-103274348D01*
X186108826Y-103284711D01*
X186078138Y-103300559D01*
X186044358Y-103297457D01*
X186011822Y-103271813D01*
X186008105Y-103266871D01*
X186003269Y-103256662D01*
X185999506Y-103241236D01*
X185996683Y-103218114D01*
X185994670Y-103184817D01*
X185993333Y-103138863D01*
X185992542Y-103077772D01*
X185992163Y-102999065D01*
X185992067Y-102900260D01*
X185992068Y-102880233D01*
X185992158Y-102786110D01*
X185992498Y-102711595D01*
X185993239Y-102654189D01*
X185994535Y-102611389D01*
X185996537Y-102580696D01*
X185999396Y-102559609D01*
X186003266Y-102545627D01*
X186008298Y-102536250D01*
X186014645Y-102528978D01*
X186047362Y-102510172D01*
X186084939Y-102508725D01*
X186118178Y-102525083D01*
G36*
X186118178Y-102525083D02*
G01*
X186119631Y-102526443D01*
X186127992Y-102537646D01*
X186133547Y-102554748D01*
X186136840Y-102581918D01*
X186138418Y-102623322D01*
X186138822Y-102683127D01*
X186138822Y-102822489D01*
X186402589Y-102822489D01*
X186478417Y-102822564D01*
X186545083Y-102822972D01*
X186594867Y-102823954D01*
X186630784Y-102825750D01*
X186655850Y-102828601D01*
X186673081Y-102832747D01*
X186685492Y-102838429D01*
X186696100Y-102845886D01*
X186698906Y-102848176D01*
X186721548Y-102879354D01*
X186723112Y-102913734D01*
X186703267Y-102946666D01*
X186695191Y-102953645D01*
X186684593Y-102959117D01*
X186668749Y-102963137D01*
X186644773Y-102965928D01*
X186609774Y-102967712D01*
X186560864Y-102968711D01*
X186495154Y-102969148D01*
X186409756Y-102969244D01*
X186138822Y-102969244D01*
X186138822Y-103115180D01*
X186138821Y-103126280D01*
X186138596Y-103182798D01*
X186137457Y-103221642D01*
X186134657Y-103247035D01*
X186129450Y-103263196D01*
X186121089Y-103274348D01*
X186108826Y-103284711D01*
X186078138Y-103300559D01*
X186044358Y-103297457D01*
X186011822Y-103271813D01*
X186008105Y-103266871D01*
X186003269Y-103256662D01*
X185999506Y-103241236D01*
X185996683Y-103218114D01*
X185994670Y-103184817D01*
X185993333Y-103138863D01*
X185992542Y-103077772D01*
X185992163Y-102999065D01*
X185992067Y-102900260D01*
X185992068Y-102880233D01*
X185992158Y-102786110D01*
X185992498Y-102711595D01*
X185993239Y-102654189D01*
X185994535Y-102611389D01*
X185996537Y-102580696D01*
X185999396Y-102559609D01*
X186003266Y-102545627D01*
X186008298Y-102536250D01*
X186014645Y-102528978D01*
X186047362Y-102510172D01*
X186084939Y-102508725D01*
X186118178Y-102525083D01*
G37*
X186400631Y-103532891D02*
X186517000Y-103533375D01*
X186531175Y-103533443D01*
X186592937Y-103534029D01*
X186636620Y-103535352D01*
X186666001Y-103537897D01*
X186684855Y-103542152D01*
X186696959Y-103548604D01*
X186706089Y-103557738D01*
X186723506Y-103591196D01*
X186720604Y-103626144D01*
X186696100Y-103657047D01*
X186682897Y-103666056D01*
X186664361Y-103673508D01*
X186638333Y-103677876D01*
X186599787Y-103679931D01*
X186543700Y-103680444D01*
X186421045Y-103680444D01*
X186421045Y-104177155D01*
X186555871Y-104177155D01*
X186591662Y-104177228D01*
X186637992Y-104177991D01*
X186668526Y-104180167D01*
X186687557Y-104184464D01*
X186699374Y-104191588D01*
X186708271Y-104202245D01*
X186723341Y-104234496D01*
X186720673Y-104269783D01*
X186696100Y-104300514D01*
X186689845Y-104305169D01*
X186679321Y-104311105D01*
X186665391Y-104315636D01*
X186645317Y-104318952D01*
X186616360Y-104321241D01*
X186575780Y-104322692D01*
X186520840Y-104323495D01*
X186448799Y-104323838D01*
X186356920Y-104323911D01*
X186047485Y-104323911D01*
X186019776Y-104296202D01*
X185997533Y-104264823D01*
X185994844Y-104231594D01*
X186014645Y-104199733D01*
X186024415Y-104191447D01*
X186040307Y-104184035D01*
X186064275Y-104179698D01*
X186101148Y-104177662D01*
X186155756Y-104177155D01*
X186274289Y-104177155D01*
X186274289Y-103680444D01*
X186158776Y-103680444D01*
X186107078Y-103680006D01*
X186072554Y-103678042D01*
X186049978Y-103673526D01*
X186034126Y-103665433D01*
X186019776Y-103652735D01*
X185997533Y-103621357D01*
X185994844Y-103588128D01*
X186014645Y-103556266D01*
X186020835Y-103550634D01*
X186029041Y-103545544D01*
X186040817Y-103541457D01*
X186058276Y-103538279D01*
X186083530Y-103535913D01*
X186118690Y-103534262D01*
X186165869Y-103533231D01*
X186227177Y-103532723D01*
X186304727Y-103532641D01*
X186400631Y-103532891D01*
G36*
X186400631Y-103532891D02*
G01*
X186517000Y-103533375D01*
X186531175Y-103533443D01*
X186592937Y-103534029D01*
X186636620Y-103535352D01*
X186666001Y-103537897D01*
X186684855Y-103542152D01*
X186696959Y-103548604D01*
X186706089Y-103557738D01*
X186723506Y-103591196D01*
X186720604Y-103626144D01*
X186696100Y-103657047D01*
X186682897Y-103666056D01*
X186664361Y-103673508D01*
X186638333Y-103677876D01*
X186599787Y-103679931D01*
X186543700Y-103680444D01*
X186421045Y-103680444D01*
X186421045Y-104177155D01*
X186555871Y-104177155D01*
X186591662Y-104177228D01*
X186637992Y-104177991D01*
X186668526Y-104180167D01*
X186687557Y-104184464D01*
X186699374Y-104191588D01*
X186708271Y-104202245D01*
X186723341Y-104234496D01*
X186720673Y-104269783D01*
X186696100Y-104300514D01*
X186689845Y-104305169D01*
X186679321Y-104311105D01*
X186665391Y-104315636D01*
X186645317Y-104318952D01*
X186616360Y-104321241D01*
X186575780Y-104322692D01*
X186520840Y-104323495D01*
X186448799Y-104323838D01*
X186356920Y-104323911D01*
X186047485Y-104323911D01*
X186019776Y-104296202D01*
X185997533Y-104264823D01*
X185994844Y-104231594D01*
X186014645Y-104199733D01*
X186024415Y-104191447D01*
X186040307Y-104184035D01*
X186064275Y-104179698D01*
X186101148Y-104177662D01*
X186155756Y-104177155D01*
X186274289Y-104177155D01*
X186274289Y-103680444D01*
X186158776Y-103680444D01*
X186107078Y-103680006D01*
X186072554Y-103678042D01*
X186049978Y-103673526D01*
X186034126Y-103665433D01*
X186019776Y-103652735D01*
X185997533Y-103621357D01*
X185994844Y-103588128D01*
X186014645Y-103556266D01*
X186020835Y-103550634D01*
X186029041Y-103545544D01*
X186040817Y-103541457D01*
X186058276Y-103538279D01*
X186083530Y-103535913D01*
X186118690Y-103534262D01*
X186165869Y-103533231D01*
X186227177Y-103532723D01*
X186304727Y-103532641D01*
X186400631Y-103532891D01*
G37*
X186418526Y-98848825D02*
X186497311Y-98849050D01*
X186558021Y-98849668D01*
X186579089Y-98850225D01*
X186603396Y-98850867D01*
X186636175Y-98852837D01*
X186659095Y-98855765D01*
X186674897Y-98859842D01*
X186686319Y-98865257D01*
X186696100Y-98872197D01*
X186725845Y-98895594D01*
X186725251Y-99061286D01*
X186724953Y-99096082D01*
X186721522Y-99194565D01*
X186713839Y-99275527D01*
X186701282Y-99342621D01*
X186683227Y-99399504D01*
X186659052Y-99449831D01*
X186657135Y-99453190D01*
X186620417Y-99511002D01*
X186583451Y-99553356D01*
X186539966Y-99586172D01*
X186483689Y-99615372D01*
X186474073Y-99619654D01*
X186410887Y-99642231D01*
X186355509Y-99649203D01*
X186300483Y-99640601D01*
X186238351Y-99616459D01*
X186236658Y-99615663D01*
X186167236Y-99575212D01*
X186110638Y-99524527D01*
X186066070Y-99461802D01*
X186032741Y-99385226D01*
X186009861Y-99292991D01*
X185996636Y-99183288D01*
X185992275Y-99054309D01*
X185992270Y-99050737D01*
X185992372Y-99006844D01*
X186138822Y-99006844D01*
X186139270Y-99094333D01*
X186141746Y-99161253D01*
X186152998Y-99253651D01*
X186172537Y-99332966D01*
X186199511Y-99394940D01*
X186220240Y-99425880D01*
X186250006Y-99454000D01*
X186292434Y-99477340D01*
X186308400Y-99484467D01*
X186340902Y-99496291D01*
X186365333Y-99498721D01*
X186390061Y-99493108D01*
X186405939Y-99487382D01*
X186465847Y-99454452D01*
X186511600Y-99407114D01*
X186544736Y-99343348D01*
X186566790Y-99261139D01*
X186567292Y-99258345D01*
X186573255Y-99212060D01*
X186577483Y-99155664D01*
X186579089Y-99100726D01*
X186579089Y-99006844D01*
X186138822Y-99006844D01*
X185992372Y-99006844D01*
X185992410Y-98990717D01*
X185993446Y-98948786D01*
X185996040Y-98920672D01*
X186000853Y-98902103D01*
X186008544Y-98888806D01*
X186019776Y-98876509D01*
X186047485Y-98848800D01*
X186356920Y-98848800D01*
X186418526Y-98848825D01*
G36*
X186418526Y-98848825D02*
G01*
X186497311Y-98849050D01*
X186558021Y-98849668D01*
X186579089Y-98850225D01*
X186603396Y-98850867D01*
X186636175Y-98852837D01*
X186659095Y-98855765D01*
X186674897Y-98859842D01*
X186686319Y-98865257D01*
X186696100Y-98872197D01*
X186725845Y-98895594D01*
X186725251Y-99061286D01*
X186724953Y-99096082D01*
X186721522Y-99194565D01*
X186713839Y-99275527D01*
X186701282Y-99342621D01*
X186683227Y-99399504D01*
X186659052Y-99449831D01*
X186657135Y-99453190D01*
X186620417Y-99511002D01*
X186583451Y-99553356D01*
X186539966Y-99586172D01*
X186483689Y-99615372D01*
X186474073Y-99619654D01*
X186410887Y-99642231D01*
X186355509Y-99649203D01*
X186300483Y-99640601D01*
X186238351Y-99616459D01*
X186236658Y-99615663D01*
X186167236Y-99575212D01*
X186110638Y-99524527D01*
X186066070Y-99461802D01*
X186032741Y-99385226D01*
X186009861Y-99292991D01*
X185996636Y-99183288D01*
X185992275Y-99054309D01*
X185992270Y-99050737D01*
X185992372Y-99006844D01*
X186138822Y-99006844D01*
X186139270Y-99094333D01*
X186141746Y-99161253D01*
X186152998Y-99253651D01*
X186172537Y-99332966D01*
X186199511Y-99394940D01*
X186220240Y-99425880D01*
X186250006Y-99454000D01*
X186292434Y-99477340D01*
X186308400Y-99484467D01*
X186340902Y-99496291D01*
X186365333Y-99498721D01*
X186390061Y-99493108D01*
X186405939Y-99487382D01*
X186465847Y-99454452D01*
X186511600Y-99407114D01*
X186544736Y-99343348D01*
X186566790Y-99261139D01*
X186567292Y-99258345D01*
X186573255Y-99212060D01*
X186577483Y-99155664D01*
X186579089Y-99100726D01*
X186579089Y-99006844D01*
X186138822Y-99006844D01*
X185992372Y-99006844D01*
X185992410Y-98990717D01*
X185993446Y-98948786D01*
X185996040Y-98920672D01*
X186000853Y-98902103D01*
X186008544Y-98888806D01*
X186019776Y-98876509D01*
X186047485Y-98848800D01*
X186356920Y-98848800D01*
X186418526Y-98848825D01*
G37*
X186358956Y-91759378D02*
X186434617Y-91759417D01*
X186512526Y-91759672D01*
X186572536Y-91760316D01*
X186617264Y-91761520D01*
X186649326Y-91763457D01*
X186671340Y-91766297D01*
X186685924Y-91770212D01*
X186695694Y-91775374D01*
X186703267Y-91781955D01*
X186709501Y-91788923D01*
X186716801Y-91801921D01*
X186721554Y-91821069D01*
X186724292Y-91850472D01*
X186725545Y-91894238D01*
X186725845Y-91956472D01*
X186725469Y-92005418D01*
X186721041Y-92112278D01*
X186710953Y-92201506D01*
X186694365Y-92276304D01*
X186670435Y-92339875D01*
X186638321Y-92395421D01*
X186597182Y-92446146D01*
X186591330Y-92452134D01*
X186542821Y-92489001D01*
X186482013Y-92520101D01*
X186417769Y-92541583D01*
X186358956Y-92549600D01*
X186337739Y-92548321D01*
X186280323Y-92536009D01*
X186220413Y-92513480D01*
X186166363Y-92484250D01*
X186126532Y-92451833D01*
X186109510Y-92432292D01*
X186070322Y-92377580D01*
X186040193Y-92317277D01*
X186018232Y-92248081D01*
X186003550Y-92166689D01*
X185995259Y-92069800D01*
X185993148Y-91982333D01*
X186138808Y-91982333D01*
X186138817Y-91985361D01*
X186140782Y-92036481D01*
X186145507Y-92096584D01*
X186152035Y-92153292D01*
X186161331Y-92203250D01*
X186187600Y-92278002D01*
X186226899Y-92335511D01*
X186279933Y-92377012D01*
X186331200Y-92398229D01*
X186379026Y-92399647D01*
X186429961Y-92381365D01*
X186475878Y-92351695D01*
X186518287Y-92304998D01*
X186548090Y-92243608D01*
X186567226Y-92164462D01*
X186567464Y-92162972D01*
X186573256Y-92114001D01*
X186577396Y-92055307D01*
X186579004Y-91999266D01*
X186579089Y-91906133D01*
X186138822Y-91906133D01*
X186138808Y-91982333D01*
X185993148Y-91982333D01*
X185992467Y-91954111D01*
X185992066Y-91914629D01*
X185991653Y-91868918D01*
X185993457Y-91833117D01*
X185999739Y-91806026D01*
X186012759Y-91786444D01*
X186034778Y-91773170D01*
X186068055Y-91765002D01*
X186114851Y-91760740D01*
X186138822Y-91760143D01*
X186177427Y-91759183D01*
X186258041Y-91759130D01*
X186358956Y-91759378D01*
G36*
X186358956Y-91759378D02*
G01*
X186434617Y-91759417D01*
X186512526Y-91759672D01*
X186572536Y-91760316D01*
X186617264Y-91761520D01*
X186649326Y-91763457D01*
X186671340Y-91766297D01*
X186685924Y-91770212D01*
X186695694Y-91775374D01*
X186703267Y-91781955D01*
X186709501Y-91788923D01*
X186716801Y-91801921D01*
X186721554Y-91821069D01*
X186724292Y-91850472D01*
X186725545Y-91894238D01*
X186725845Y-91956472D01*
X186725469Y-92005418D01*
X186721041Y-92112278D01*
X186710953Y-92201506D01*
X186694365Y-92276304D01*
X186670435Y-92339875D01*
X186638321Y-92395421D01*
X186597182Y-92446146D01*
X186591330Y-92452134D01*
X186542821Y-92489001D01*
X186482013Y-92520101D01*
X186417769Y-92541583D01*
X186358956Y-92549600D01*
X186337739Y-92548321D01*
X186280323Y-92536009D01*
X186220413Y-92513480D01*
X186166363Y-92484250D01*
X186126532Y-92451833D01*
X186109510Y-92432292D01*
X186070322Y-92377580D01*
X186040193Y-92317277D01*
X186018232Y-92248081D01*
X186003550Y-92166689D01*
X185995259Y-92069800D01*
X185993148Y-91982333D01*
X186138808Y-91982333D01*
X186138817Y-91985361D01*
X186140782Y-92036481D01*
X186145507Y-92096584D01*
X186152035Y-92153292D01*
X186161331Y-92203250D01*
X186187600Y-92278002D01*
X186226899Y-92335511D01*
X186279933Y-92377012D01*
X186331200Y-92398229D01*
X186379026Y-92399647D01*
X186429961Y-92381365D01*
X186475878Y-92351695D01*
X186518287Y-92304998D01*
X186548090Y-92243608D01*
X186567226Y-92164462D01*
X186567464Y-92162972D01*
X186573256Y-92114001D01*
X186577396Y-92055307D01*
X186579004Y-91999266D01*
X186579089Y-91906133D01*
X186138822Y-91906133D01*
X186138808Y-91982333D01*
X185993148Y-91982333D01*
X185992467Y-91954111D01*
X185992066Y-91914629D01*
X185991653Y-91868918D01*
X185993457Y-91833117D01*
X185999739Y-91806026D01*
X186012759Y-91786444D01*
X186034778Y-91773170D01*
X186068055Y-91765002D01*
X186114851Y-91760740D01*
X186138822Y-91760143D01*
X186177427Y-91759183D01*
X186258041Y-91759130D01*
X186358956Y-91759378D01*
G37*
X186417486Y-96647489D02*
X186496573Y-96647708D01*
X186557516Y-96648317D01*
X186603062Y-96649508D01*
X186635963Y-96651471D01*
X186658968Y-96654397D01*
X186674826Y-96658477D01*
X186686286Y-96663903D01*
X186696100Y-96670864D01*
X186720493Y-96701292D01*
X186723372Y-96736235D01*
X186704282Y-96773216D01*
X186700807Y-96777400D01*
X186692279Y-96785576D01*
X186680728Y-96791636D01*
X186662896Y-96796019D01*
X186635524Y-96799161D01*
X186595354Y-96801498D01*
X186539128Y-96803469D01*
X186463589Y-96805511D01*
X186244458Y-96811155D01*
X186485099Y-97076444D01*
X186551875Y-97150278D01*
X186609991Y-97215458D01*
X186654949Y-97267652D01*
X186687871Y-97308727D01*
X186709879Y-97340545D01*
X186722094Y-97364974D01*
X186725639Y-97383876D01*
X186721636Y-97399117D01*
X186711207Y-97412561D01*
X186695474Y-97426073D01*
X186686991Y-97432318D01*
X186676413Y-97437950D01*
X186662255Y-97442161D01*
X186641803Y-97445113D01*
X186612342Y-97446968D01*
X186571161Y-97447887D01*
X186515544Y-97448032D01*
X186442779Y-97447565D01*
X186350151Y-97446648D01*
X186035199Y-97443333D01*
X186013633Y-97416682D01*
X185997441Y-97390617D01*
X185994670Y-97357759D01*
X186013623Y-97323228D01*
X186017208Y-97318916D01*
X186025737Y-97310784D01*
X186037329Y-97304755D01*
X186055235Y-97300394D01*
X186082706Y-97297266D01*
X186122994Y-97294937D01*
X186179351Y-97292971D01*
X186255029Y-97290933D01*
X186474878Y-97285289D01*
X186311084Y-97104666D01*
X186232451Y-97017928D01*
X186164058Y-96942157D01*
X186108708Y-96880020D01*
X186065338Y-96829922D01*
X186032881Y-96790265D01*
X186010273Y-96759452D01*
X185996448Y-96735886D01*
X185990343Y-96717970D01*
X185990892Y-96704107D01*
X185997029Y-96692699D01*
X186007691Y-96682150D01*
X186021811Y-96670864D01*
X186027772Y-96666411D01*
X186038268Y-96660412D01*
X186052093Y-96655833D01*
X186071998Y-96652481D01*
X186100732Y-96650167D01*
X186141045Y-96648699D01*
X186195687Y-96647887D01*
X186267407Y-96647540D01*
X186358956Y-96647466D01*
X186417486Y-96647489D01*
G36*
X186417486Y-96647489D02*
G01*
X186496573Y-96647708D01*
X186557516Y-96648317D01*
X186603062Y-96649508D01*
X186635963Y-96651471D01*
X186658968Y-96654397D01*
X186674826Y-96658477D01*
X186686286Y-96663903D01*
X186696100Y-96670864D01*
X186720493Y-96701292D01*
X186723372Y-96736235D01*
X186704282Y-96773216D01*
X186700807Y-96777400D01*
X186692279Y-96785576D01*
X186680728Y-96791636D01*
X186662896Y-96796019D01*
X186635524Y-96799161D01*
X186595354Y-96801498D01*
X186539128Y-96803469D01*
X186463589Y-96805511D01*
X186244458Y-96811155D01*
X186485099Y-97076444D01*
X186551875Y-97150278D01*
X186609991Y-97215458D01*
X186654949Y-97267652D01*
X186687871Y-97308727D01*
X186709879Y-97340545D01*
X186722094Y-97364974D01*
X186725639Y-97383876D01*
X186721636Y-97399117D01*
X186711207Y-97412561D01*
X186695474Y-97426073D01*
X186686991Y-97432318D01*
X186676413Y-97437950D01*
X186662255Y-97442161D01*
X186641803Y-97445113D01*
X186612342Y-97446968D01*
X186571161Y-97447887D01*
X186515544Y-97448032D01*
X186442779Y-97447565D01*
X186350151Y-97446648D01*
X186035199Y-97443333D01*
X186013633Y-97416682D01*
X185997441Y-97390617D01*
X185994670Y-97357759D01*
X186013623Y-97323228D01*
X186017208Y-97318916D01*
X186025737Y-97310784D01*
X186037329Y-97304755D01*
X186055235Y-97300394D01*
X186082706Y-97297266D01*
X186122994Y-97294937D01*
X186179351Y-97292971D01*
X186255029Y-97290933D01*
X186474878Y-97285289D01*
X186311084Y-97104666D01*
X186232451Y-97017928D01*
X186164058Y-96942157D01*
X186108708Y-96880020D01*
X186065338Y-96829922D01*
X186032881Y-96790265D01*
X186010273Y-96759452D01*
X185996448Y-96735886D01*
X185990343Y-96717970D01*
X185990892Y-96704107D01*
X185997029Y-96692699D01*
X186007691Y-96682150D01*
X186021811Y-96670864D01*
X186027772Y-96666411D01*
X186038268Y-96660412D01*
X186052093Y-96655833D01*
X186071998Y-96652481D01*
X186100732Y-96650167D01*
X186141045Y-96648699D01*
X186195687Y-96647887D01*
X186267407Y-96647540D01*
X186358956Y-96647466D01*
X186417486Y-96647489D01*
G37*
X186377259Y-95463702D02*
X186428592Y-95476643D01*
X186485118Y-95499806D01*
X186539035Y-95529698D01*
X186582539Y-95562827D01*
X186592887Y-95573023D01*
X186644662Y-95640108D01*
X186684554Y-95720234D01*
X186708956Y-95806444D01*
X186717068Y-95861408D01*
X186723673Y-95954861D01*
X186721586Y-96044642D01*
X186711340Y-96127131D01*
X186693470Y-96198714D01*
X186668508Y-96255772D01*
X186636988Y-96294689D01*
X186635012Y-96296064D01*
X186609786Y-96303152D01*
X186562535Y-96307391D01*
X186493071Y-96308800D01*
X186430838Y-96307940D01*
X186383456Y-96303220D01*
X186351353Y-96291530D01*
X186331800Y-96269761D01*
X186322070Y-96234802D01*
X186319433Y-96183544D01*
X186321161Y-96112877D01*
X186324173Y-96064257D01*
X186332366Y-96014061D01*
X186346419Y-95981567D01*
X186367654Y-95964108D01*
X186397394Y-95959017D01*
X186401936Y-95959123D01*
X186436730Y-95967825D01*
X186460147Y-95991835D01*
X186473347Y-96033100D01*
X186477489Y-96093569D01*
X186477489Y-96162044D01*
X186515841Y-96162044D01*
X186524976Y-96161994D01*
X186542227Y-96159773D01*
X186552521Y-96150506D01*
X186559459Y-96129125D01*
X186566641Y-96090564D01*
X186567575Y-96085090D01*
X186577478Y-95988140D01*
X186574559Y-95898148D01*
X186559829Y-95817240D01*
X186534299Y-95747541D01*
X186498978Y-95691176D01*
X186454879Y-95650271D01*
X186403012Y-95626949D01*
X186344388Y-95623337D01*
X186315494Y-95628855D01*
X186259604Y-95655539D01*
X186213945Y-95701727D01*
X186179108Y-95766709D01*
X186155690Y-95849771D01*
X186151241Y-95874445D01*
X186140742Y-95963774D01*
X186141971Y-96043581D01*
X186154906Y-96121674D01*
X186161696Y-96156817D01*
X186162713Y-96202255D01*
X186150182Y-96233570D01*
X186123395Y-96253723D01*
X186095148Y-96260107D01*
X186063924Y-96250621D01*
X186050499Y-96241292D01*
X186026967Y-96207057D01*
X186009095Y-96154435D01*
X185997599Y-96085919D01*
X185993192Y-96004000D01*
X185997179Y-95906850D01*
X186013494Y-95800843D01*
X186041545Y-95707031D01*
X186080452Y-95628235D01*
X186129334Y-95567281D01*
X186162195Y-95541211D01*
X186211394Y-95511703D01*
X186265252Y-95486432D01*
X186316419Y-95468782D01*
X186357544Y-95462142D01*
X186377259Y-95463702D01*
G36*
X186377259Y-95463702D02*
G01*
X186428592Y-95476643D01*
X186485118Y-95499806D01*
X186539035Y-95529698D01*
X186582539Y-95562827D01*
X186592887Y-95573023D01*
X186644662Y-95640108D01*
X186684554Y-95720234D01*
X186708956Y-95806444D01*
X186717068Y-95861408D01*
X186723673Y-95954861D01*
X186721586Y-96044642D01*
X186711340Y-96127131D01*
X186693470Y-96198714D01*
X186668508Y-96255772D01*
X186636988Y-96294689D01*
X186635012Y-96296064D01*
X186609786Y-96303152D01*
X186562535Y-96307391D01*
X186493071Y-96308800D01*
X186430838Y-96307940D01*
X186383456Y-96303220D01*
X186351353Y-96291530D01*
X186331800Y-96269761D01*
X186322070Y-96234802D01*
X186319433Y-96183544D01*
X186321161Y-96112877D01*
X186324173Y-96064257D01*
X186332366Y-96014061D01*
X186346419Y-95981567D01*
X186367654Y-95964108D01*
X186397394Y-95959017D01*
X186401936Y-95959123D01*
X186436730Y-95967825D01*
X186460147Y-95991835D01*
X186473347Y-96033100D01*
X186477489Y-96093569D01*
X186477489Y-96162044D01*
X186515841Y-96162044D01*
X186524976Y-96161994D01*
X186542227Y-96159773D01*
X186552521Y-96150506D01*
X186559459Y-96129125D01*
X186566641Y-96090564D01*
X186567575Y-96085090D01*
X186577478Y-95988140D01*
X186574559Y-95898148D01*
X186559829Y-95817240D01*
X186534299Y-95747541D01*
X186498978Y-95691176D01*
X186454879Y-95650271D01*
X186403012Y-95626949D01*
X186344388Y-95623337D01*
X186315494Y-95628855D01*
X186259604Y-95655539D01*
X186213945Y-95701727D01*
X186179108Y-95766709D01*
X186155690Y-95849771D01*
X186151241Y-95874445D01*
X186140742Y-95963774D01*
X186141971Y-96043581D01*
X186154906Y-96121674D01*
X186161696Y-96156817D01*
X186162713Y-96202255D01*
X186150182Y-96233570D01*
X186123395Y-96253723D01*
X186095148Y-96260107D01*
X186063924Y-96250621D01*
X186050499Y-96241292D01*
X186026967Y-96207057D01*
X186009095Y-96154435D01*
X185997599Y-96085919D01*
X185993192Y-96004000D01*
X185997179Y-95906850D01*
X186013494Y-95800843D01*
X186041545Y-95707031D01*
X186080452Y-95628235D01*
X186129334Y-95567281D01*
X186162195Y-95541211D01*
X186211394Y-95511703D01*
X186265252Y-95486432D01*
X186316419Y-95468782D01*
X186357544Y-95462142D01*
X186377259Y-95463702D01*
G37*
X186429911Y-97832829D02*
X186508228Y-97833061D01*
X186568496Y-97833681D01*
X186613393Y-97834874D01*
X186645602Y-97836821D01*
X186667800Y-97839706D01*
X186682669Y-97843712D01*
X186692889Y-97849021D01*
X186701138Y-97855817D01*
X186705795Y-97860332D01*
X186712282Y-97868562D01*
X186717194Y-97879922D01*
X186720749Y-97897190D01*
X186723167Y-97923145D01*
X186724667Y-97960564D01*
X186725467Y-98012227D01*
X186725787Y-98080911D01*
X186725845Y-98169394D01*
X186725838Y-98189069D01*
X186725572Y-98276094D01*
X186724806Y-98343746D01*
X186723392Y-98394701D01*
X186721180Y-98431633D01*
X186718022Y-98457217D01*
X186713769Y-98474129D01*
X186708271Y-98485043D01*
X186698285Y-98495536D01*
X186667168Y-98508797D01*
X186631280Y-98507614D01*
X186599733Y-98491450D01*
X186597457Y-98489261D01*
X186591189Y-98480573D01*
X186586523Y-98467231D01*
X186583227Y-98446248D01*
X186581068Y-98414637D01*
X186579814Y-98369410D01*
X186579231Y-98307580D01*
X186579089Y-98226161D01*
X186579089Y-97979555D01*
X186421045Y-97979555D01*
X186421045Y-98141994D01*
X186420964Y-98177662D01*
X186420167Y-98233432D01*
X186418162Y-98272570D01*
X186414521Y-98299024D01*
X186408812Y-98316741D01*
X186400607Y-98329671D01*
X186397423Y-98333314D01*
X186366448Y-98351722D01*
X186330112Y-98352356D01*
X186296493Y-98334817D01*
X186296424Y-98334755D01*
X186287798Y-98325084D01*
X186281742Y-98311791D01*
X186277811Y-98291083D01*
X186275556Y-98259172D01*
X186274531Y-98212266D01*
X186274289Y-98146576D01*
X186274289Y-97978429D01*
X186209378Y-97981814D01*
X186144467Y-97985200D01*
X186141414Y-98227277D01*
X186141086Y-98252293D01*
X186139606Y-98333913D01*
X186137222Y-98396232D01*
X186133227Y-98441846D01*
X186126913Y-98473348D01*
X186117574Y-98493333D01*
X186104503Y-98504396D01*
X186086992Y-98509131D01*
X186064335Y-98510133D01*
X186061970Y-98510127D01*
X186041939Y-98508973D01*
X186026146Y-98504176D01*
X186014090Y-98493368D01*
X186005267Y-98474183D01*
X185999175Y-98444255D01*
X185995311Y-98401217D01*
X185993174Y-98342701D01*
X185992260Y-98266343D01*
X185992067Y-98169774D01*
X185992067Y-97879594D01*
X186021811Y-97856197D01*
X186028495Y-97851248D01*
X186039066Y-97845404D01*
X186053153Y-97840943D01*
X186073478Y-97837679D01*
X186102765Y-97835426D01*
X186143737Y-97833998D01*
X186199117Y-97833208D01*
X186271628Y-97832871D01*
X186363994Y-97832800D01*
X186429911Y-97832829D01*
G36*
X186429911Y-97832829D02*
G01*
X186508228Y-97833061D01*
X186568496Y-97833681D01*
X186613393Y-97834874D01*
X186645602Y-97836821D01*
X186667800Y-97839706D01*
X186682669Y-97843712D01*
X186692889Y-97849021D01*
X186701138Y-97855817D01*
X186705795Y-97860332D01*
X186712282Y-97868562D01*
X186717194Y-97879922D01*
X186720749Y-97897190D01*
X186723167Y-97923145D01*
X186724667Y-97960564D01*
X186725467Y-98012227D01*
X186725787Y-98080911D01*
X186725845Y-98169394D01*
X186725838Y-98189069D01*
X186725572Y-98276094D01*
X186724806Y-98343746D01*
X186723392Y-98394701D01*
X186721180Y-98431633D01*
X186718022Y-98457217D01*
X186713769Y-98474129D01*
X186708271Y-98485043D01*
X186698285Y-98495536D01*
X186667168Y-98508797D01*
X186631280Y-98507614D01*
X186599733Y-98491450D01*
X186597457Y-98489261D01*
X186591189Y-98480573D01*
X186586523Y-98467231D01*
X186583227Y-98446248D01*
X186581068Y-98414637D01*
X186579814Y-98369410D01*
X186579231Y-98307580D01*
X186579089Y-98226161D01*
X186579089Y-97979555D01*
X186421045Y-97979555D01*
X186421045Y-98141994D01*
X186420964Y-98177662D01*
X186420167Y-98233432D01*
X186418162Y-98272570D01*
X186414521Y-98299024D01*
X186408812Y-98316741D01*
X186400607Y-98329671D01*
X186397423Y-98333314D01*
X186366448Y-98351722D01*
X186330112Y-98352356D01*
X186296493Y-98334817D01*
X186296424Y-98334755D01*
X186287798Y-98325084D01*
X186281742Y-98311791D01*
X186277811Y-98291083D01*
X186275556Y-98259172D01*
X186274531Y-98212266D01*
X186274289Y-98146576D01*
X186274289Y-97978429D01*
X186209378Y-97981814D01*
X186144467Y-97985200D01*
X186141414Y-98227277D01*
X186141086Y-98252293D01*
X186139606Y-98333913D01*
X186137222Y-98396232D01*
X186133227Y-98441846D01*
X186126913Y-98473348D01*
X186117574Y-98493333D01*
X186104503Y-98504396D01*
X186086992Y-98509131D01*
X186064335Y-98510133D01*
X186061970Y-98510127D01*
X186041939Y-98508973D01*
X186026146Y-98504176D01*
X186014090Y-98493368D01*
X186005267Y-98474183D01*
X185999175Y-98444255D01*
X185995311Y-98401217D01*
X185993174Y-98342701D01*
X185992260Y-98266343D01*
X185992067Y-98169774D01*
X185992067Y-97879594D01*
X186021811Y-97856197D01*
X186028495Y-97851248D01*
X186039066Y-97845404D01*
X186053153Y-97840943D01*
X186073478Y-97837679D01*
X186102765Y-97835426D01*
X186143737Y-97833998D01*
X186199117Y-97833208D01*
X186271628Y-97832871D01*
X186363994Y-97832800D01*
X186429911Y-97832829D01*
G37*
X186433713Y-92888303D02*
X186511889Y-92888552D01*
X186572103Y-92889188D01*
X186616982Y-92890385D01*
X186649152Y-92892316D01*
X186671239Y-92895154D01*
X186685870Y-92899073D01*
X186695670Y-92904245D01*
X186703267Y-92910844D01*
X186706444Y-92914178D01*
X186712554Y-92922700D01*
X186717229Y-92934702D01*
X186720659Y-92952913D01*
X186723036Y-92980060D01*
X186724552Y-93018871D01*
X186725398Y-93072076D01*
X186725765Y-93142402D01*
X186725845Y-93232578D01*
X186725833Y-93274686D01*
X186725651Y-93355833D01*
X186725098Y-93418325D01*
X186723982Y-93464891D01*
X186722113Y-93498259D01*
X186719298Y-93521156D01*
X186715346Y-93536312D01*
X186710066Y-93546454D01*
X186703267Y-93554311D01*
X186681667Y-93569037D01*
X186652467Y-93576889D01*
X186628560Y-93571390D01*
X186601667Y-93554311D01*
X186597059Y-93549332D01*
X186590772Y-93539557D01*
X186586146Y-93525441D01*
X186582930Y-93503946D01*
X186580870Y-93472032D01*
X186579712Y-93426658D01*
X186579202Y-93364787D01*
X186579089Y-93283378D01*
X186579089Y-93035022D01*
X186421045Y-93035022D01*
X186421045Y-93196199D01*
X186420899Y-93232017D01*
X186419176Y-93297641D01*
X186414741Y-93344882D01*
X186406637Y-93376617D01*
X186393906Y-93395723D01*
X186375592Y-93405077D01*
X186350738Y-93407555D01*
X186330482Y-93406758D01*
X186308656Y-93401506D01*
X186293304Y-93388712D01*
X186283309Y-93365372D01*
X186277553Y-93328483D01*
X186274919Y-93275041D01*
X186274289Y-93202042D01*
X186274289Y-93033895D01*
X186209378Y-93037281D01*
X186144467Y-93040666D01*
X186141418Y-93288383D01*
X186140539Y-93350974D01*
X186139095Y-93419435D01*
X186137164Y-93470339D01*
X186134514Y-93506592D01*
X186130910Y-93531099D01*
X186126121Y-93546765D01*
X186119913Y-93556494D01*
X186113510Y-93562509D01*
X186081828Y-93575518D01*
X186046142Y-93571957D01*
X186015084Y-93552182D01*
X186012161Y-93548931D01*
X186005810Y-93539951D01*
X186000957Y-93527847D01*
X185997403Y-93509841D01*
X185994946Y-93483153D01*
X185993385Y-93445003D01*
X185992518Y-93392614D01*
X185992146Y-93323206D01*
X185992067Y-93233999D01*
X185992083Y-93179266D01*
X185992275Y-93102169D01*
X185992860Y-93043223D01*
X185994051Y-92999636D01*
X185996064Y-92968617D01*
X185999112Y-92947375D01*
X186003409Y-92933118D01*
X186009172Y-92923055D01*
X186016612Y-92914394D01*
X186018293Y-92912609D01*
X186025832Y-92905365D01*
X186034850Y-92899723D01*
X186047984Y-92895483D01*
X186067872Y-92892444D01*
X186097151Y-92890406D01*
X186138458Y-92889170D01*
X186194431Y-92888535D01*
X186267707Y-92888300D01*
X186360923Y-92888266D01*
X186433713Y-92888303D01*
G36*
X186433713Y-92888303D02*
G01*
X186511889Y-92888552D01*
X186572103Y-92889188D01*
X186616982Y-92890385D01*
X186649152Y-92892316D01*
X186671239Y-92895154D01*
X186685870Y-92899073D01*
X186695670Y-92904245D01*
X186703267Y-92910844D01*
X186706444Y-92914178D01*
X186712554Y-92922700D01*
X186717229Y-92934702D01*
X186720659Y-92952913D01*
X186723036Y-92980060D01*
X186724552Y-93018871D01*
X186725398Y-93072076D01*
X186725765Y-93142402D01*
X186725845Y-93232578D01*
X186725833Y-93274686D01*
X186725651Y-93355833D01*
X186725098Y-93418325D01*
X186723982Y-93464891D01*
X186722113Y-93498259D01*
X186719298Y-93521156D01*
X186715346Y-93536312D01*
X186710066Y-93546454D01*
X186703267Y-93554311D01*
X186681667Y-93569037D01*
X186652467Y-93576889D01*
X186628560Y-93571390D01*
X186601667Y-93554311D01*
X186597059Y-93549332D01*
X186590772Y-93539557D01*
X186586146Y-93525441D01*
X186582930Y-93503946D01*
X186580870Y-93472032D01*
X186579712Y-93426658D01*
X186579202Y-93364787D01*
X186579089Y-93283378D01*
X186579089Y-93035022D01*
X186421045Y-93035022D01*
X186421045Y-93196199D01*
X186420899Y-93232017D01*
X186419176Y-93297641D01*
X186414741Y-93344882D01*
X186406637Y-93376617D01*
X186393906Y-93395723D01*
X186375592Y-93405077D01*
X186350738Y-93407555D01*
X186330482Y-93406758D01*
X186308656Y-93401506D01*
X186293304Y-93388712D01*
X186283309Y-93365372D01*
X186277553Y-93328483D01*
X186274919Y-93275041D01*
X186274289Y-93202042D01*
X186274289Y-93033895D01*
X186209378Y-93037281D01*
X186144467Y-93040666D01*
X186141418Y-93288383D01*
X186140539Y-93350974D01*
X186139095Y-93419435D01*
X186137164Y-93470339D01*
X186134514Y-93506592D01*
X186130910Y-93531099D01*
X186126121Y-93546765D01*
X186119913Y-93556494D01*
X186113510Y-93562509D01*
X186081828Y-93575518D01*
X186046142Y-93571957D01*
X186015084Y-93552182D01*
X186012161Y-93548931D01*
X186005810Y-93539951D01*
X186000957Y-93527847D01*
X185997403Y-93509841D01*
X185994946Y-93483153D01*
X185993385Y-93445003D01*
X185992518Y-93392614D01*
X185992146Y-93323206D01*
X185992067Y-93233999D01*
X185992083Y-93179266D01*
X185992275Y-93102169D01*
X185992860Y-93043223D01*
X185994051Y-92999636D01*
X185996064Y-92968617D01*
X185999112Y-92947375D01*
X186003409Y-92933118D01*
X186009172Y-92923055D01*
X186016612Y-92914394D01*
X186018293Y-92912609D01*
X186025832Y-92905365D01*
X186034850Y-92899723D01*
X186047984Y-92895483D01*
X186067872Y-92892444D01*
X186097151Y-92890406D01*
X186138458Y-92889170D01*
X186194431Y-92888535D01*
X186267707Y-92888300D01*
X186360923Y-92888266D01*
X186433713Y-92888303D01*
G37*
X186074915Y-100740772D02*
X186109481Y-100753636D01*
X186157826Y-100773395D01*
X186216825Y-100798619D01*
X186283355Y-100827881D01*
X186354291Y-100859750D01*
X186426507Y-100892799D01*
X186496880Y-100925599D01*
X186562285Y-100956720D01*
X186619597Y-100984735D01*
X186665692Y-101008214D01*
X186697446Y-101025728D01*
X186711733Y-101035849D01*
X186725102Y-101070257D01*
X186718741Y-101111954D01*
X186714044Y-101117319D01*
X186691893Y-101133148D01*
X186655132Y-101155350D01*
X186607415Y-101181767D01*
X186552393Y-101210240D01*
X186393150Y-101290014D01*
X186539742Y-101363201D01*
X186559032Y-101372897D01*
X186611380Y-101399875D01*
X186656170Y-101423904D01*
X186689154Y-101442668D01*
X186706089Y-101453854D01*
X186707332Y-101455000D01*
X186722619Y-101483121D01*
X186724302Y-101518183D01*
X186711733Y-101549224D01*
X186708884Y-101551650D01*
X186688259Y-101563910D01*
X186650708Y-101583648D01*
X186598880Y-101609552D01*
X186535423Y-101640315D01*
X186462985Y-101674625D01*
X186384216Y-101711175D01*
X186340093Y-101731415D01*
X186259365Y-101768188D01*
X186195687Y-101796645D01*
X186146752Y-101817669D01*
X186110257Y-101832146D01*
X186083895Y-101840961D01*
X186065361Y-101844996D01*
X186052352Y-101845138D01*
X186042561Y-101842270D01*
X186021678Y-101827613D01*
X186001377Y-101801010D01*
X186001035Y-101800255D01*
X185994034Y-101780665D01*
X185993504Y-101763210D01*
X186001478Y-101746298D01*
X186019989Y-101728337D01*
X186051071Y-101707737D01*
X186096756Y-101682905D01*
X186159078Y-101652250D01*
X186240071Y-101614180D01*
X186271454Y-101599546D01*
X186334638Y-101569797D01*
X186389244Y-101543703D01*
X186432290Y-101522708D01*
X186460793Y-101508261D01*
X186471770Y-101501809D01*
X186471189Y-101500450D01*
X186457242Y-101490458D01*
X186427704Y-101473167D01*
X186386087Y-101450570D01*
X186335903Y-101424662D01*
X186304414Y-101408689D01*
X186249061Y-101379739D01*
X186210044Y-101357251D01*
X186184566Y-101339035D01*
X186169831Y-101322904D01*
X186163042Y-101306670D01*
X186161400Y-101288143D01*
X186161875Y-101277640D01*
X186166082Y-101261524D01*
X186176946Y-101246210D01*
X186197219Y-101229612D01*
X186229654Y-101209643D01*
X186277004Y-101184217D01*
X186342022Y-101151248D01*
X186361277Y-101141515D01*
X186407946Y-101117057D01*
X186444109Y-101096822D01*
X186466497Y-101082689D01*
X186471845Y-101076540D01*
X186468573Y-101075173D01*
X186447664Y-101065798D01*
X186410725Y-101048938D01*
X186360874Y-101026021D01*
X186301226Y-100998480D01*
X186234898Y-100967745D01*
X186177677Y-100941030D01*
X186115688Y-100911407D01*
X186069949Y-100888336D01*
X186037908Y-100870357D01*
X186017014Y-100856010D01*
X186004718Y-100843834D01*
X185998466Y-100832368D01*
X185995574Y-100822958D01*
X185995425Y-100797853D01*
X186010768Y-100770710D01*
X186011753Y-100769410D01*
X186034388Y-100747326D01*
X186056613Y-100736277D01*
X186057253Y-100736231D01*
X186074915Y-100740772D01*
G36*
X186074915Y-100740772D02*
G01*
X186109481Y-100753636D01*
X186157826Y-100773395D01*
X186216825Y-100798619D01*
X186283355Y-100827881D01*
X186354291Y-100859750D01*
X186426507Y-100892799D01*
X186496880Y-100925599D01*
X186562285Y-100956720D01*
X186619597Y-100984735D01*
X186665692Y-101008214D01*
X186697446Y-101025728D01*
X186711733Y-101035849D01*
X186725102Y-101070257D01*
X186718741Y-101111954D01*
X186714044Y-101117319D01*
X186691893Y-101133148D01*
X186655132Y-101155350D01*
X186607415Y-101181767D01*
X186552393Y-101210240D01*
X186393150Y-101290014D01*
X186539742Y-101363201D01*
X186559032Y-101372897D01*
X186611380Y-101399875D01*
X186656170Y-101423904D01*
X186689154Y-101442668D01*
X186706089Y-101453854D01*
X186707332Y-101455000D01*
X186722619Y-101483121D01*
X186724302Y-101518183D01*
X186711733Y-101549224D01*
X186708884Y-101551650D01*
X186688259Y-101563910D01*
X186650708Y-101583648D01*
X186598880Y-101609552D01*
X186535423Y-101640315D01*
X186462985Y-101674625D01*
X186384216Y-101711175D01*
X186340093Y-101731415D01*
X186259365Y-101768188D01*
X186195687Y-101796645D01*
X186146752Y-101817669D01*
X186110257Y-101832146D01*
X186083895Y-101840961D01*
X186065361Y-101844996D01*
X186052352Y-101845138D01*
X186042561Y-101842270D01*
X186021678Y-101827613D01*
X186001377Y-101801010D01*
X186001035Y-101800255D01*
X185994034Y-101780665D01*
X185993504Y-101763210D01*
X186001478Y-101746298D01*
X186019989Y-101728337D01*
X186051071Y-101707737D01*
X186096756Y-101682905D01*
X186159078Y-101652250D01*
X186240071Y-101614180D01*
X186271454Y-101599546D01*
X186334638Y-101569797D01*
X186389244Y-101543703D01*
X186432290Y-101522708D01*
X186460793Y-101508261D01*
X186471770Y-101501809D01*
X186471189Y-101500450D01*
X186457242Y-101490458D01*
X186427704Y-101473167D01*
X186386087Y-101450570D01*
X186335903Y-101424662D01*
X186304414Y-101408689D01*
X186249061Y-101379739D01*
X186210044Y-101357251D01*
X186184566Y-101339035D01*
X186169831Y-101322904D01*
X186163042Y-101306670D01*
X186161400Y-101288143D01*
X186161875Y-101277640D01*
X186166082Y-101261524D01*
X186176946Y-101246210D01*
X186197219Y-101229612D01*
X186229654Y-101209643D01*
X186277004Y-101184217D01*
X186342022Y-101151248D01*
X186361277Y-101141515D01*
X186407946Y-101117057D01*
X186444109Y-101096822D01*
X186466497Y-101082689D01*
X186471845Y-101076540D01*
X186468573Y-101075173D01*
X186447664Y-101065798D01*
X186410725Y-101048938D01*
X186360874Y-101026021D01*
X186301226Y-100998480D01*
X186234898Y-100967745D01*
X186177677Y-100941030D01*
X186115688Y-100911407D01*
X186069949Y-100888336D01*
X186037908Y-100870357D01*
X186017014Y-100856010D01*
X186004718Y-100843834D01*
X185998466Y-100832368D01*
X185995574Y-100822958D01*
X185995425Y-100797853D01*
X186010768Y-100770710D01*
X186011753Y-100769410D01*
X186034388Y-100747326D01*
X186056613Y-100736277D01*
X186057253Y-100736231D01*
X186074915Y-100740772D01*
G37*
X186243232Y-93860048D02*
X186268029Y-93865840D01*
X186289699Y-93880647D01*
X186317049Y-93908620D01*
X186324378Y-93916598D01*
X186345281Y-93940308D01*
X186362251Y-93962702D01*
X186376205Y-93986735D01*
X186388056Y-94015363D01*
X186398720Y-94051540D01*
X186409111Y-94098220D01*
X186420146Y-94158359D01*
X186432738Y-94234910D01*
X186447804Y-94330829D01*
X186450838Y-94349192D01*
X186464458Y-94411522D01*
X186480192Y-94456740D01*
X186497263Y-94483024D01*
X186514897Y-94488553D01*
X186519168Y-94485932D01*
X186534233Y-94468000D01*
X186550867Y-94439874D01*
X186556857Y-94427074D01*
X186564050Y-94405776D01*
X186568827Y-94379390D01*
X186571646Y-94343546D01*
X186572964Y-94293872D01*
X186573237Y-94226000D01*
X186573164Y-94208215D01*
X186572053Y-94140594D01*
X186569828Y-94075655D01*
X186566762Y-94020030D01*
X186563127Y-93980349D01*
X186559059Y-93944838D01*
X186558276Y-93915585D01*
X186562876Y-93896685D01*
X186573551Y-93881571D01*
X186577144Y-93877915D01*
X186608918Y-93861573D01*
X186644572Y-93862893D01*
X186675190Y-93881850D01*
X186686796Y-93902220D01*
X186699491Y-93938204D01*
X186709541Y-93980628D01*
X186710140Y-93984078D01*
X186715356Y-94026748D01*
X186719730Y-94084134D01*
X186722818Y-94149151D01*
X186724177Y-94214711D01*
X186724218Y-94230943D01*
X186721741Y-94329256D01*
X186713735Y-94409308D01*
X186699203Y-94474487D01*
X186677149Y-94528183D01*
X186646576Y-94573784D01*
X186606486Y-94614677D01*
X186580259Y-94634798D01*
X186550712Y-94646424D01*
X186510995Y-94649333D01*
X186499026Y-94649192D01*
X186466345Y-94645319D01*
X186439819Y-94632935D01*
X186408971Y-94607770D01*
X186386831Y-94586558D01*
X186364285Y-94560162D01*
X186345917Y-94530445D01*
X186330661Y-94494215D01*
X186317449Y-94448283D01*
X186305214Y-94389456D01*
X186292889Y-94314544D01*
X186279406Y-94220355D01*
X186272396Y-94175043D01*
X186257837Y-94107089D01*
X186241337Y-94057953D01*
X186223439Y-94028386D01*
X186204685Y-94019136D01*
X186185615Y-94030952D01*
X186166771Y-94064584D01*
X186165557Y-94067630D01*
X186153479Y-94113989D01*
X186145279Y-94176639D01*
X186141119Y-94250073D01*
X186141161Y-94328783D01*
X186145569Y-94407261D01*
X186154505Y-94480000D01*
X186155154Y-94483927D01*
X186162861Y-94532743D01*
X186166473Y-94564995D01*
X186165876Y-94585992D01*
X186160954Y-94601046D01*
X186151596Y-94615466D01*
X186150725Y-94616636D01*
X186120351Y-94641153D01*
X186084850Y-94645946D01*
X186050269Y-94630140D01*
X186045813Y-94625594D01*
X186030673Y-94595980D01*
X186017550Y-94548998D01*
X186006750Y-94488694D01*
X185998581Y-94419112D01*
X185993351Y-94344297D01*
X185991367Y-94268294D01*
X185992936Y-94195147D01*
X185998366Y-94128900D01*
X186007964Y-94073600D01*
X186022825Y-94022717D01*
X186055958Y-93951405D01*
X186098640Y-93900248D01*
X186150705Y-93869425D01*
X186211983Y-93859111D01*
X186243232Y-93860048D01*
G36*
X186243232Y-93860048D02*
G01*
X186268029Y-93865840D01*
X186289699Y-93880647D01*
X186317049Y-93908620D01*
X186324378Y-93916598D01*
X186345281Y-93940308D01*
X186362251Y-93962702D01*
X186376205Y-93986735D01*
X186388056Y-94015363D01*
X186398720Y-94051540D01*
X186409111Y-94098220D01*
X186420146Y-94158359D01*
X186432738Y-94234910D01*
X186447804Y-94330829D01*
X186450838Y-94349192D01*
X186464458Y-94411522D01*
X186480192Y-94456740D01*
X186497263Y-94483024D01*
X186514897Y-94488553D01*
X186519168Y-94485932D01*
X186534233Y-94468000D01*
X186550867Y-94439874D01*
X186556857Y-94427074D01*
X186564050Y-94405776D01*
X186568827Y-94379390D01*
X186571646Y-94343546D01*
X186572964Y-94293872D01*
X186573237Y-94226000D01*
X186573164Y-94208215D01*
X186572053Y-94140594D01*
X186569828Y-94075655D01*
X186566762Y-94020030D01*
X186563127Y-93980349D01*
X186559059Y-93944838D01*
X186558276Y-93915585D01*
X186562876Y-93896685D01*
X186573551Y-93881571D01*
X186577144Y-93877915D01*
X186608918Y-93861573D01*
X186644572Y-93862893D01*
X186675190Y-93881850D01*
X186686796Y-93902220D01*
X186699491Y-93938204D01*
X186709541Y-93980628D01*
X186710140Y-93984078D01*
X186715356Y-94026748D01*
X186719730Y-94084134D01*
X186722818Y-94149151D01*
X186724177Y-94214711D01*
X186724218Y-94230943D01*
X186721741Y-94329256D01*
X186713735Y-94409308D01*
X186699203Y-94474487D01*
X186677149Y-94528183D01*
X186646576Y-94573784D01*
X186606486Y-94614677D01*
X186580259Y-94634798D01*
X186550712Y-94646424D01*
X186510995Y-94649333D01*
X186499026Y-94649192D01*
X186466345Y-94645319D01*
X186439819Y-94632935D01*
X186408971Y-94607770D01*
X186386831Y-94586558D01*
X186364285Y-94560162D01*
X186345917Y-94530445D01*
X186330661Y-94494215D01*
X186317449Y-94448283D01*
X186305214Y-94389456D01*
X186292889Y-94314544D01*
X186279406Y-94220355D01*
X186272396Y-94175043D01*
X186257837Y-94107089D01*
X186241337Y-94057953D01*
X186223439Y-94028386D01*
X186204685Y-94019136D01*
X186185615Y-94030952D01*
X186166771Y-94064584D01*
X186165557Y-94067630D01*
X186153479Y-94113989D01*
X186145279Y-94176639D01*
X186141119Y-94250073D01*
X186141161Y-94328783D01*
X186145569Y-94407261D01*
X186154505Y-94480000D01*
X186155154Y-94483927D01*
X186162861Y-94532743D01*
X186166473Y-94564995D01*
X186165876Y-94585992D01*
X186160954Y-94601046D01*
X186151596Y-94615466D01*
X186150725Y-94616636D01*
X186120351Y-94641153D01*
X186084850Y-94645946D01*
X186050269Y-94630140D01*
X186045813Y-94625594D01*
X186030673Y-94595980D01*
X186017550Y-94548998D01*
X186006750Y-94488694D01*
X185998581Y-94419112D01*
X185993351Y-94344297D01*
X185991367Y-94268294D01*
X185992936Y-94195147D01*
X185998366Y-94128900D01*
X186007964Y-94073600D01*
X186022825Y-94022717D01*
X186055958Y-93951405D01*
X186098640Y-93900248D01*
X186150705Y-93869425D01*
X186211983Y-93859111D01*
X186243232Y-93860048D01*
G37*
X183544325Y-96718449D02*
X183745581Y-96735209D01*
X183940128Y-96768708D01*
X184123756Y-96818956D01*
X184241053Y-96862810D01*
X184403951Y-96940652D01*
X184557866Y-97034172D01*
X184699671Y-97141178D01*
X184826239Y-97259481D01*
X184934441Y-97386889D01*
X184987120Y-97464394D01*
X185056750Y-97591275D01*
X185115468Y-97728757D01*
X185160587Y-97870284D01*
X185189422Y-98009298D01*
X185191106Y-98023403D01*
X185194434Y-98066847D01*
X185197275Y-98124277D01*
X185199373Y-98189878D01*
X185200468Y-98257833D01*
X185198140Y-98384622D01*
X185185136Y-98532327D01*
X185160133Y-98670221D01*
X185122318Y-98803986D01*
X185113889Y-98827438D01*
X185094408Y-98875388D01*
X185069473Y-98931860D01*
X185040722Y-98993621D01*
X185009790Y-99057437D01*
X184978315Y-99120074D01*
X184947934Y-99178297D01*
X184920283Y-99228873D01*
X184896999Y-99268567D01*
X184879718Y-99294146D01*
X184870079Y-99302375D01*
X184866984Y-99300924D01*
X184847079Y-99289750D01*
X184811420Y-99268866D01*
X184762459Y-99239735D01*
X184702646Y-99203819D01*
X184634433Y-99162580D01*
X184560271Y-99117483D01*
X184263008Y-98936215D01*
X184307539Y-98889685D01*
X184385865Y-98798277D01*
X184460439Y-98684666D01*
X184514474Y-98566878D01*
X184547290Y-98446441D01*
X184558211Y-98324883D01*
X184556868Y-98283415D01*
X184538612Y-98165920D01*
X184499617Y-98055911D01*
X184440670Y-97954570D01*
X184362557Y-97863079D01*
X184266064Y-97782620D01*
X184151978Y-97714373D01*
X184117724Y-97698092D01*
X183994240Y-97652018D01*
X183855918Y-97616894D01*
X183706561Y-97592803D01*
X183549973Y-97579827D01*
X183389956Y-97578051D01*
X183230314Y-97587557D01*
X183074850Y-97608428D01*
X182927366Y-97640748D01*
X182791667Y-97684601D01*
X182705076Y-97722018D01*
X182591688Y-97786815D01*
X182498070Y-97862228D01*
X182423959Y-97948582D01*
X182369094Y-98046205D01*
X182333212Y-98155423D01*
X182316051Y-98276561D01*
X182314880Y-98345962D01*
X182329141Y-98468832D01*
X182364241Y-98584336D01*
X182419682Y-98691047D01*
X182494964Y-98787536D01*
X182509440Y-98803280D01*
X182535962Y-98833850D01*
X182553138Y-98856191D01*
X182557787Y-98866309D01*
X182555597Y-98868294D01*
X182536721Y-98882759D01*
X182503397Y-98906600D01*
X182458380Y-98937971D01*
X182404425Y-98975026D01*
X182344285Y-99015917D01*
X182280718Y-99058798D01*
X182216476Y-99101822D01*
X182154315Y-99143143D01*
X182096991Y-99180914D01*
X182047257Y-99213288D01*
X182007868Y-99238418D01*
X181981580Y-99254458D01*
X181971147Y-99259561D01*
X181966941Y-99254950D01*
X181961933Y-99235733D01*
X181959386Y-99226162D01*
X181948249Y-99198191D01*
X181929802Y-99156552D01*
X181905725Y-99105005D01*
X181877699Y-99047310D01*
X181872154Y-99036043D01*
X181792889Y-98858313D01*
X181733385Y-98688510D01*
X181693245Y-98524570D01*
X181672071Y-98364429D01*
X181669466Y-98206023D01*
X181685033Y-98047289D01*
X181702523Y-97951732D01*
X181747564Y-97787442D01*
X181810656Y-97633411D01*
X181892915Y-97487491D01*
X181995457Y-97347534D01*
X182119399Y-97211392D01*
X182164661Y-97167527D01*
X182296865Y-97055242D01*
X182434832Y-96962028D01*
X182582750Y-96885281D01*
X182744803Y-96822397D01*
X182756391Y-96818580D01*
X182942392Y-96768493D01*
X183138521Y-96735101D01*
X183340568Y-96718416D01*
X183544325Y-96718449D01*
G36*
X183544325Y-96718449D02*
G01*
X183745581Y-96735209D01*
X183940128Y-96768708D01*
X184123756Y-96818956D01*
X184241053Y-96862810D01*
X184403951Y-96940652D01*
X184557866Y-97034172D01*
X184699671Y-97141178D01*
X184826239Y-97259481D01*
X184934441Y-97386889D01*
X184987120Y-97464394D01*
X185056750Y-97591275D01*
X185115468Y-97728757D01*
X185160587Y-97870284D01*
X185189422Y-98009298D01*
X185191106Y-98023403D01*
X185194434Y-98066847D01*
X185197275Y-98124277D01*
X185199373Y-98189878D01*
X185200468Y-98257833D01*
X185198140Y-98384622D01*
X185185136Y-98532327D01*
X185160133Y-98670221D01*
X185122318Y-98803986D01*
X185113889Y-98827438D01*
X185094408Y-98875388D01*
X185069473Y-98931860D01*
X185040722Y-98993621D01*
X185009790Y-99057437D01*
X184978315Y-99120074D01*
X184947934Y-99178297D01*
X184920283Y-99228873D01*
X184896999Y-99268567D01*
X184879718Y-99294146D01*
X184870079Y-99302375D01*
X184866984Y-99300924D01*
X184847079Y-99289750D01*
X184811420Y-99268866D01*
X184762459Y-99239735D01*
X184702646Y-99203819D01*
X184634433Y-99162580D01*
X184560271Y-99117483D01*
X184263008Y-98936215D01*
X184307539Y-98889685D01*
X184385865Y-98798277D01*
X184460439Y-98684666D01*
X184514474Y-98566878D01*
X184547290Y-98446441D01*
X184558211Y-98324883D01*
X184556868Y-98283415D01*
X184538612Y-98165920D01*
X184499617Y-98055911D01*
X184440670Y-97954570D01*
X184362557Y-97863079D01*
X184266064Y-97782620D01*
X184151978Y-97714373D01*
X184117724Y-97698092D01*
X183994240Y-97652018D01*
X183855918Y-97616894D01*
X183706561Y-97592803D01*
X183549973Y-97579827D01*
X183389956Y-97578051D01*
X183230314Y-97587557D01*
X183074850Y-97608428D01*
X182927366Y-97640748D01*
X182791667Y-97684601D01*
X182705076Y-97722018D01*
X182591688Y-97786815D01*
X182498070Y-97862228D01*
X182423959Y-97948582D01*
X182369094Y-98046205D01*
X182333212Y-98155423D01*
X182316051Y-98276561D01*
X182314880Y-98345962D01*
X182329141Y-98468832D01*
X182364241Y-98584336D01*
X182419682Y-98691047D01*
X182494964Y-98787536D01*
X182509440Y-98803280D01*
X182535962Y-98833850D01*
X182553138Y-98856191D01*
X182557787Y-98866309D01*
X182555597Y-98868294D01*
X182536721Y-98882759D01*
X182503397Y-98906600D01*
X182458380Y-98937971D01*
X182404425Y-98975026D01*
X182344285Y-99015917D01*
X182280718Y-99058798D01*
X182216476Y-99101822D01*
X182154315Y-99143143D01*
X182096991Y-99180914D01*
X182047257Y-99213288D01*
X182007868Y-99238418D01*
X181981580Y-99254458D01*
X181971147Y-99259561D01*
X181966941Y-99254950D01*
X181961933Y-99235733D01*
X181959386Y-99226162D01*
X181948249Y-99198191D01*
X181929802Y-99156552D01*
X181905725Y-99105005D01*
X181877699Y-99047310D01*
X181872154Y-99036043D01*
X181792889Y-98858313D01*
X181733385Y-98688510D01*
X181693245Y-98524570D01*
X181672071Y-98364429D01*
X181669466Y-98206023D01*
X181685033Y-98047289D01*
X181702523Y-97951732D01*
X181747564Y-97787442D01*
X181810656Y-97633411D01*
X181892915Y-97487491D01*
X181995457Y-97347534D01*
X182119399Y-97211392D01*
X182164661Y-97167527D01*
X182296865Y-97055242D01*
X182434832Y-96962028D01*
X182582750Y-96885281D01*
X182744803Y-96822397D01*
X182756391Y-96818580D01*
X182942392Y-96768493D01*
X183138521Y-96735101D01*
X183340568Y-96718416D01*
X183544325Y-96718449D01*
G37*
X184043158Y-101850732D02*
X184194594Y-101859311D01*
X184331283Y-101878167D01*
X184457276Y-101908163D01*
X184576625Y-101950164D01*
X184693381Y-102005031D01*
X184804179Y-102071833D01*
X184917739Y-102162637D01*
X185013211Y-102266292D01*
X185090073Y-102382113D01*
X185147797Y-102509414D01*
X185185858Y-102647511D01*
X185191666Y-102685207D01*
X185197396Y-102764248D01*
X185197583Y-102852371D01*
X185192539Y-102941764D01*
X185182578Y-103024616D01*
X185168012Y-103093113D01*
X185158364Y-103123965D01*
X185128123Y-103201270D01*
X185090617Y-103278321D01*
X185049614Y-103347800D01*
X185008879Y-103402385D01*
X184989505Y-103425084D01*
X184971662Y-103447799D01*
X184964778Y-103459221D01*
X184966424Y-103460463D01*
X184984205Y-103463272D01*
X185017370Y-103465224D01*
X185060733Y-103465955D01*
X185156689Y-103465955D01*
X185156689Y-104324104D01*
X185095974Y-104289839D01*
X185086868Y-104284645D01*
X185072249Y-104276285D01*
X185058173Y-104268712D01*
X185043540Y-104261888D01*
X185027249Y-104255773D01*
X185008198Y-104250327D01*
X184985286Y-104245513D01*
X184957413Y-104241292D01*
X184923478Y-104237623D01*
X184882379Y-104234469D01*
X184833015Y-104231789D01*
X184774286Y-104229546D01*
X184705090Y-104227701D01*
X184624326Y-104226213D01*
X184530894Y-104225045D01*
X184423692Y-104224156D01*
X184301620Y-104223509D01*
X184163576Y-104223064D01*
X184008459Y-104222782D01*
X183835168Y-104222625D01*
X183642603Y-104222552D01*
X183429662Y-104222526D01*
X183195245Y-104222507D01*
X181510378Y-104222311D01*
X181510378Y-103316983D01*
X181547067Y-103341415D01*
X181556647Y-103347682D01*
X181602981Y-103373792D01*
X181650102Y-103391531D01*
X181705251Y-103403092D01*
X181775667Y-103410669D01*
X181782650Y-103411161D01*
X181820641Y-103412938D01*
X181874576Y-103414556D01*
X181941703Y-103416001D01*
X182019271Y-103417260D01*
X182104528Y-103418320D01*
X182194724Y-103419171D01*
X182287107Y-103419797D01*
X182378925Y-103420188D01*
X182467427Y-103420330D01*
X182549862Y-103420210D01*
X182623479Y-103419817D01*
X182685526Y-103419138D01*
X182733251Y-103418159D01*
X182763904Y-103416868D01*
X182774733Y-103415253D01*
X182770333Y-103407043D01*
X182755362Y-103385353D01*
X182733448Y-103355986D01*
X182699236Y-103307121D01*
X182652714Y-103218875D01*
X182619046Y-103120084D01*
X182616231Y-103105557D01*
X183170465Y-103105557D01*
X183182389Y-103190681D01*
X183209040Y-103274867D01*
X183249962Y-103353392D01*
X183293530Y-103420800D01*
X184443721Y-103420800D01*
X184490089Y-103350244D01*
X184513791Y-103309583D01*
X184539639Y-103255454D01*
X184557829Y-103206311D01*
X184573551Y-103142835D01*
X184584541Y-103046669D01*
X184576365Y-102962100D01*
X184548805Y-102888781D01*
X184501642Y-102826363D01*
X184434658Y-102774498D01*
X184347633Y-102732840D01*
X184240350Y-102701038D01*
X184228009Y-102698455D01*
X184166772Y-102690000D01*
X184089692Y-102684337D01*
X184002002Y-102681424D01*
X183908934Y-102681217D01*
X183815720Y-102683670D01*
X183727594Y-102688739D01*
X183649788Y-102696381D01*
X183587533Y-102706552D01*
X183581666Y-102707833D01*
X183471121Y-102736874D01*
X183380575Y-102771390D01*
X183307953Y-102812544D01*
X183251181Y-102861501D01*
X183208184Y-102919426D01*
X183192615Y-102951380D01*
X183173722Y-103024216D01*
X183170465Y-103105557D01*
X182616231Y-103105557D01*
X182597231Y-103007490D01*
X182586265Y-102877836D01*
X182585219Y-102785330D01*
X182595014Y-102663989D01*
X182619174Y-102553901D01*
X182658785Y-102450611D01*
X182714932Y-102349662D01*
X182745883Y-102304497D01*
X182837115Y-102199089D01*
X182946106Y-102107462D01*
X183072726Y-102029668D01*
X183216845Y-101965759D01*
X183378332Y-101915786D01*
X183557059Y-101879802D01*
X183752895Y-101857857D01*
X183908934Y-101852100D01*
X183965711Y-101850006D01*
X184043158Y-101850732D01*
G36*
X184043158Y-101850732D02*
G01*
X184194594Y-101859311D01*
X184331283Y-101878167D01*
X184457276Y-101908163D01*
X184576625Y-101950164D01*
X184693381Y-102005031D01*
X184804179Y-102071833D01*
X184917739Y-102162637D01*
X185013211Y-102266292D01*
X185090073Y-102382113D01*
X185147797Y-102509414D01*
X185185858Y-102647511D01*
X185191666Y-102685207D01*
X185197396Y-102764248D01*
X185197583Y-102852371D01*
X185192539Y-102941764D01*
X185182578Y-103024616D01*
X185168012Y-103093113D01*
X185158364Y-103123965D01*
X185128123Y-103201270D01*
X185090617Y-103278321D01*
X185049614Y-103347800D01*
X185008879Y-103402385D01*
X184989505Y-103425084D01*
X184971662Y-103447799D01*
X184964778Y-103459221D01*
X184966424Y-103460463D01*
X184984205Y-103463272D01*
X185017370Y-103465224D01*
X185060733Y-103465955D01*
X185156689Y-103465955D01*
X185156689Y-104324104D01*
X185095974Y-104289839D01*
X185086868Y-104284645D01*
X185072249Y-104276285D01*
X185058173Y-104268712D01*
X185043540Y-104261888D01*
X185027249Y-104255773D01*
X185008198Y-104250327D01*
X184985286Y-104245513D01*
X184957413Y-104241292D01*
X184923478Y-104237623D01*
X184882379Y-104234469D01*
X184833015Y-104231789D01*
X184774286Y-104229546D01*
X184705090Y-104227701D01*
X184624326Y-104226213D01*
X184530894Y-104225045D01*
X184423692Y-104224156D01*
X184301620Y-104223509D01*
X184163576Y-104223064D01*
X184008459Y-104222782D01*
X183835168Y-104222625D01*
X183642603Y-104222552D01*
X183429662Y-104222526D01*
X183195245Y-104222507D01*
X181510378Y-104222311D01*
X181510378Y-103316983D01*
X181547067Y-103341415D01*
X181556647Y-103347682D01*
X181602981Y-103373792D01*
X181650102Y-103391531D01*
X181705251Y-103403092D01*
X181775667Y-103410669D01*
X181782650Y-103411161D01*
X181820641Y-103412938D01*
X181874576Y-103414556D01*
X181941703Y-103416001D01*
X182019271Y-103417260D01*
X182104528Y-103418320D01*
X182194724Y-103419171D01*
X182287107Y-103419797D01*
X182378925Y-103420188D01*
X182467427Y-103420330D01*
X182549862Y-103420210D01*
X182623479Y-103419817D01*
X182685526Y-103419138D01*
X182733251Y-103418159D01*
X182763904Y-103416868D01*
X182774733Y-103415253D01*
X182770333Y-103407043D01*
X182755362Y-103385353D01*
X182733448Y-103355986D01*
X182699236Y-103307121D01*
X182652714Y-103218875D01*
X182619046Y-103120084D01*
X182616231Y-103105557D01*
X183170465Y-103105557D01*
X183182389Y-103190681D01*
X183209040Y-103274867D01*
X183249962Y-103353392D01*
X183293530Y-103420800D01*
X184443721Y-103420800D01*
X184490089Y-103350244D01*
X184513791Y-103309583D01*
X184539639Y-103255454D01*
X184557829Y-103206311D01*
X184573551Y-103142835D01*
X184584541Y-103046669D01*
X184576365Y-102962100D01*
X184548805Y-102888781D01*
X184501642Y-102826363D01*
X184434658Y-102774498D01*
X184347633Y-102732840D01*
X184240350Y-102701038D01*
X184228009Y-102698455D01*
X184166772Y-102690000D01*
X184089692Y-102684337D01*
X184002002Y-102681424D01*
X183908934Y-102681217D01*
X183815720Y-102683670D01*
X183727594Y-102688739D01*
X183649788Y-102696381D01*
X183587533Y-102706552D01*
X183581666Y-102707833D01*
X183471121Y-102736874D01*
X183380575Y-102771390D01*
X183307953Y-102812544D01*
X183251181Y-102861501D01*
X183208184Y-102919426D01*
X183192615Y-102951380D01*
X183173722Y-103024216D01*
X183170465Y-103105557D01*
X182616231Y-103105557D01*
X182597231Y-103007490D01*
X182586265Y-102877836D01*
X182585219Y-102785330D01*
X182595014Y-102663989D01*
X182619174Y-102553901D01*
X182658785Y-102450611D01*
X182714932Y-102349662D01*
X182745883Y-102304497D01*
X182837115Y-102199089D01*
X182946106Y-102107462D01*
X183072726Y-102029668D01*
X183216845Y-101965759D01*
X183378332Y-101915786D01*
X183557059Y-101879802D01*
X183752895Y-101857857D01*
X183908934Y-101852100D01*
X183965711Y-101850006D01*
X184043158Y-101850732D01*
G37*
X184400363Y-99308739D02*
X184475202Y-99312368D01*
X184537401Y-99319978D01*
X184593984Y-99332312D01*
X184720076Y-99376687D01*
X184834679Y-99439600D01*
X184935568Y-99519762D01*
X185021924Y-99616260D01*
X185092932Y-99728178D01*
X185147776Y-99854603D01*
X185185638Y-99994622D01*
X185191351Y-100030851D01*
X185197313Y-100109845D01*
X185197646Y-100198159D01*
X185192659Y-100287925D01*
X185182666Y-100371278D01*
X185167978Y-100440349D01*
X185137749Y-100526813D01*
X185083057Y-100636714D01*
X185015543Y-100734044D01*
X184964556Y-100796133D01*
X185060622Y-100799395D01*
X185156689Y-100802657D01*
X185156689Y-101225550D01*
X185156686Y-101236457D01*
X185156380Y-101330944D01*
X185155616Y-101417669D01*
X185154451Y-101494163D01*
X185152942Y-101557957D01*
X185151147Y-101606582D01*
X185149121Y-101637567D01*
X185146922Y-101648444D01*
X185146463Y-101648422D01*
X185130910Y-101641386D01*
X185108071Y-101625566D01*
X185102638Y-101621266D01*
X185088606Y-101610223D01*
X185075186Y-101600689D01*
X185060722Y-101592539D01*
X185043556Y-101585648D01*
X185022034Y-101579889D01*
X184994498Y-101575138D01*
X184959292Y-101571269D01*
X184914760Y-101568156D01*
X184859246Y-101565675D01*
X184791093Y-101563700D01*
X184708645Y-101562106D01*
X184610246Y-101560766D01*
X184494239Y-101559556D01*
X184358968Y-101558351D01*
X184202778Y-101557025D01*
X184060012Y-101555772D01*
X183914942Y-101554349D01*
X183789027Y-101552824D01*
X183680436Y-101551067D01*
X183587334Y-101548949D01*
X183507891Y-101546340D01*
X183440273Y-101543110D01*
X183382649Y-101539131D01*
X183333185Y-101534272D01*
X183290050Y-101528403D01*
X183251410Y-101521396D01*
X183215434Y-101513120D01*
X183180289Y-101503446D01*
X183144142Y-101492244D01*
X183105161Y-101479384D01*
X183062091Y-101463910D01*
X182969871Y-101421006D01*
X182890099Y-101367265D01*
X182815965Y-101298424D01*
X182752405Y-101220815D01*
X182690725Y-101116239D01*
X182643202Y-100996756D01*
X182609567Y-100861492D01*
X182589552Y-100709574D01*
X182582889Y-100540128D01*
X182583287Y-100482110D01*
X182585335Y-100416602D01*
X182589704Y-100355307D01*
X182597035Y-100293903D01*
X182607969Y-100228068D01*
X182623147Y-100153480D01*
X182643209Y-100065816D01*
X182668797Y-99960755D01*
X182675820Y-99932194D01*
X182693776Y-99856946D01*
X182709820Y-99786612D01*
X182723028Y-99725433D01*
X182732474Y-99677646D01*
X182737231Y-99647489D01*
X182740910Y-99619217D01*
X182746187Y-99592940D01*
X182750942Y-99582941D01*
X182759781Y-99586048D01*
X182787072Y-99596806D01*
X182829906Y-99614136D01*
X182885425Y-99636874D01*
X182950772Y-99663853D01*
X183023089Y-99693910D01*
X183038879Y-99700507D01*
X183129484Y-99739093D01*
X183199217Y-99770232D01*
X183248405Y-99794083D01*
X183277374Y-99810802D01*
X183286452Y-99820546D01*
X183284405Y-99828234D01*
X183274760Y-99854585D01*
X183259190Y-99893018D01*
X183239815Y-99938178D01*
X183201814Y-100032707D01*
X183160780Y-100169520D01*
X183135612Y-100310711D01*
X183131611Y-100348686D01*
X183129447Y-100451941D01*
X183142622Y-100539048D01*
X183171756Y-100610871D01*
X183217466Y-100668269D01*
X183280372Y-100712104D01*
X183361092Y-100743238D01*
X183460245Y-100762530D01*
X183519224Y-100769950D01*
X183512445Y-100608064D01*
X183512110Y-100582106D01*
X184034842Y-100582106D01*
X184034857Y-100590993D01*
X184035655Y-100646340D01*
X184037488Y-100693264D01*
X184040111Y-100727047D01*
X184043274Y-100742972D01*
X184049741Y-100747057D01*
X184071875Y-100751428D01*
X184110988Y-100754396D01*
X184168939Y-100756086D01*
X184247586Y-100756622D01*
X184443462Y-100756622D01*
X184499973Y-100711952D01*
X184515212Y-100699215D01*
X184557844Y-100652396D01*
X184593672Y-100591745D01*
X184598850Y-100581103D01*
X184615745Y-100542324D01*
X184625909Y-100507308D01*
X184631325Y-100467278D01*
X184633978Y-100413459D01*
X184634383Y-100395352D01*
X184631540Y-100319989D01*
X184619620Y-100259257D01*
X184597037Y-100207548D01*
X184562211Y-100159254D01*
X184557798Y-100154197D01*
X184502160Y-100105728D01*
X184438333Y-100077541D01*
X184363282Y-100068248D01*
X184291693Y-100075480D01*
X184228645Y-100100204D01*
X184170758Y-100144751D01*
X184123808Y-100199681D01*
X184083961Y-100272106D01*
X184056263Y-100358660D01*
X184040096Y-100461330D01*
X184034842Y-100582106D01*
X183512110Y-100582106D01*
X183510813Y-100481505D01*
X183517194Y-100330049D01*
X183531777Y-100181604D01*
X183553882Y-100045422D01*
X183568821Y-99980755D01*
X183611741Y-99848510D01*
X183668340Y-99726238D01*
X183737017Y-99616315D01*
X183816170Y-99521117D01*
X183904196Y-99443020D01*
X183999493Y-99384401D01*
X184051864Y-99360405D01*
X184122590Y-99334768D01*
X184193812Y-99318522D01*
X184272712Y-99310178D01*
X184363282Y-99308310D01*
X184366467Y-99308245D01*
X184400363Y-99308739D01*
G36*
X184400363Y-99308739D02*
G01*
X184475202Y-99312368D01*
X184537401Y-99319978D01*
X184593984Y-99332312D01*
X184720076Y-99376687D01*
X184834679Y-99439600D01*
X184935568Y-99519762D01*
X185021924Y-99616260D01*
X185092932Y-99728178D01*
X185147776Y-99854603D01*
X185185638Y-99994622D01*
X185191351Y-100030851D01*
X185197313Y-100109845D01*
X185197646Y-100198159D01*
X185192659Y-100287925D01*
X185182666Y-100371278D01*
X185167978Y-100440349D01*
X185137749Y-100526813D01*
X185083057Y-100636714D01*
X185015543Y-100734044D01*
X184964556Y-100796133D01*
X185060622Y-100799395D01*
X185156689Y-100802657D01*
X185156689Y-101225550D01*
X185156686Y-101236457D01*
X185156380Y-101330944D01*
X185155616Y-101417669D01*
X185154451Y-101494163D01*
X185152942Y-101557957D01*
X185151147Y-101606582D01*
X185149121Y-101637567D01*
X185146922Y-101648444D01*
X185146463Y-101648422D01*
X185130910Y-101641386D01*
X185108071Y-101625566D01*
X185102638Y-101621266D01*
X185088606Y-101610223D01*
X185075186Y-101600689D01*
X185060722Y-101592539D01*
X185043556Y-101585648D01*
X185022034Y-101579889D01*
X184994498Y-101575138D01*
X184959292Y-101571269D01*
X184914760Y-101568156D01*
X184859246Y-101565675D01*
X184791093Y-101563700D01*
X184708645Y-101562106D01*
X184610246Y-101560766D01*
X184494239Y-101559556D01*
X184358968Y-101558351D01*
X184202778Y-101557025D01*
X184060012Y-101555772D01*
X183914942Y-101554349D01*
X183789027Y-101552824D01*
X183680436Y-101551067D01*
X183587334Y-101548949D01*
X183507891Y-101546340D01*
X183440273Y-101543110D01*
X183382649Y-101539131D01*
X183333185Y-101534272D01*
X183290050Y-101528403D01*
X183251410Y-101521396D01*
X183215434Y-101513120D01*
X183180289Y-101503446D01*
X183144142Y-101492244D01*
X183105161Y-101479384D01*
X183062091Y-101463910D01*
X182969871Y-101421006D01*
X182890099Y-101367265D01*
X182815965Y-101298424D01*
X182752405Y-101220815D01*
X182690725Y-101116239D01*
X182643202Y-100996756D01*
X182609567Y-100861492D01*
X182589552Y-100709574D01*
X182582889Y-100540128D01*
X182583287Y-100482110D01*
X182585335Y-100416602D01*
X182589704Y-100355307D01*
X182597035Y-100293903D01*
X182607969Y-100228068D01*
X182623147Y-100153480D01*
X182643209Y-100065816D01*
X182668797Y-99960755D01*
X182675820Y-99932194D01*
X182693776Y-99856946D01*
X182709820Y-99786612D01*
X182723028Y-99725433D01*
X182732474Y-99677646D01*
X182737231Y-99647489D01*
X182740910Y-99619217D01*
X182746187Y-99592940D01*
X182750942Y-99582941D01*
X182759781Y-99586048D01*
X182787072Y-99596806D01*
X182829906Y-99614136D01*
X182885425Y-99636874D01*
X182950772Y-99663853D01*
X183023089Y-99693910D01*
X183038879Y-99700507D01*
X183129484Y-99739093D01*
X183199217Y-99770232D01*
X183248405Y-99794083D01*
X183277374Y-99810802D01*
X183286452Y-99820546D01*
X183284405Y-99828234D01*
X183274760Y-99854585D01*
X183259190Y-99893018D01*
X183239815Y-99938178D01*
X183201814Y-100032707D01*
X183160780Y-100169520D01*
X183135612Y-100310711D01*
X183131611Y-100348686D01*
X183129447Y-100451941D01*
X183142622Y-100539048D01*
X183171756Y-100610871D01*
X183217466Y-100668269D01*
X183280372Y-100712104D01*
X183361092Y-100743238D01*
X183460245Y-100762530D01*
X183519224Y-100769950D01*
X183512445Y-100608064D01*
X183512110Y-100582106D01*
X184034842Y-100582106D01*
X184034857Y-100590993D01*
X184035655Y-100646340D01*
X184037488Y-100693264D01*
X184040111Y-100727047D01*
X184043274Y-100742972D01*
X184049741Y-100747057D01*
X184071875Y-100751428D01*
X184110988Y-100754396D01*
X184168939Y-100756086D01*
X184247586Y-100756622D01*
X184443462Y-100756622D01*
X184499973Y-100711952D01*
X184515212Y-100699215D01*
X184557844Y-100652396D01*
X184593672Y-100591745D01*
X184598850Y-100581103D01*
X184615745Y-100542324D01*
X184625909Y-100507308D01*
X184631325Y-100467278D01*
X184633978Y-100413459D01*
X184634383Y-100395352D01*
X184631540Y-100319989D01*
X184619620Y-100259257D01*
X184597037Y-100207548D01*
X184562211Y-100159254D01*
X184557798Y-100154197D01*
X184502160Y-100105728D01*
X184438333Y-100077541D01*
X184363282Y-100068248D01*
X184291693Y-100075480D01*
X184228645Y-100100204D01*
X184170758Y-100144751D01*
X184123808Y-100199681D01*
X184083961Y-100272106D01*
X184056263Y-100358660D01*
X184040096Y-100461330D01*
X184034842Y-100582106D01*
X183512110Y-100582106D01*
X183510813Y-100481505D01*
X183517194Y-100330049D01*
X183531777Y-100181604D01*
X183553882Y-100045422D01*
X183568821Y-99980755D01*
X183611741Y-99848510D01*
X183668340Y-99726238D01*
X183737017Y-99616315D01*
X183816170Y-99521117D01*
X183904196Y-99443020D01*
X183999493Y-99384401D01*
X184051864Y-99360405D01*
X184122590Y-99334768D01*
X184193812Y-99318522D01*
X184272712Y-99310178D01*
X184363282Y-99308310D01*
X184366467Y-99308245D01*
X184400363Y-99308739D01*
G37*
X184344295Y-91759313D02*
X184524535Y-91759407D01*
X184687015Y-91759605D01*
X184832670Y-91759937D01*
X184962434Y-91760431D01*
X185077243Y-91761117D01*
X185178030Y-91762024D01*
X185265730Y-91763183D01*
X185341279Y-91764622D01*
X185405611Y-91766371D01*
X185459661Y-91768460D01*
X185504363Y-91770917D01*
X185540652Y-91773773D01*
X185569463Y-91777057D01*
X185591731Y-91780798D01*
X185608390Y-91785026D01*
X185620375Y-91789771D01*
X185628621Y-91795061D01*
X185634062Y-91800927D01*
X185637634Y-91807398D01*
X185640270Y-91814503D01*
X185642906Y-91822272D01*
X185646477Y-91830734D01*
X185648145Y-91835092D01*
X185650111Y-91843605D01*
X185651911Y-91856306D01*
X185653555Y-91874115D01*
X185655047Y-91897951D01*
X185656397Y-91928734D01*
X185657611Y-91967383D01*
X185658697Y-92014818D01*
X185659661Y-92071957D01*
X185660511Y-92139721D01*
X185661253Y-92219029D01*
X185661897Y-92310801D01*
X185662447Y-92415956D01*
X185662913Y-92535413D01*
X185663300Y-92670092D01*
X185663616Y-92820912D01*
X185663869Y-92988794D01*
X185664066Y-93174655D01*
X185664213Y-93379417D01*
X185664318Y-93603998D01*
X185664389Y-93849318D01*
X185664432Y-94116296D01*
X185664437Y-94154679D01*
X185664480Y-94420078D01*
X185664525Y-94663950D01*
X185664548Y-94887217D01*
X185664524Y-95090804D01*
X185664430Y-95275633D01*
X185664243Y-95442627D01*
X185663939Y-95592710D01*
X185663494Y-95726804D01*
X185662885Y-95845834D01*
X185662089Y-95950721D01*
X185661080Y-96042390D01*
X185659837Y-96121763D01*
X185658335Y-96189763D01*
X185656551Y-96247314D01*
X185654461Y-96295338D01*
X185652042Y-96334760D01*
X185649270Y-96366501D01*
X185646121Y-96391486D01*
X185642572Y-96410636D01*
X185638598Y-96424877D01*
X185634178Y-96435129D01*
X185629286Y-96442318D01*
X185623900Y-96447365D01*
X185617996Y-96451195D01*
X185611549Y-96454729D01*
X185604537Y-96458892D01*
X185602687Y-96459975D01*
X185597180Y-96462187D01*
X185588868Y-96464214D01*
X185576809Y-96466062D01*
X185560063Y-96467739D01*
X185537687Y-96469255D01*
X185508740Y-96470617D01*
X185472280Y-96471833D01*
X185427367Y-96472911D01*
X185373057Y-96473860D01*
X185308410Y-96474688D01*
X185232484Y-96475403D01*
X185144338Y-96476013D01*
X185043029Y-96476526D01*
X184927617Y-96476950D01*
X184797160Y-96477294D01*
X184650716Y-96477566D01*
X184487344Y-96477773D01*
X184306101Y-96477924D01*
X184106048Y-96478028D01*
X183886241Y-96478092D01*
X183645739Y-96478124D01*
X183383602Y-96478133D01*
X181192031Y-96478133D01*
X181153649Y-96439751D01*
X181129911Y-96412645D01*
X181118111Y-96385747D01*
X181115267Y-96349440D01*
X181115267Y-96297511D01*
X181203206Y-96297511D01*
X181253102Y-96295573D01*
X181363523Y-96276801D01*
X181464987Y-96239783D01*
X181556152Y-96186631D01*
X181635673Y-96119454D01*
X181702205Y-96040362D01*
X181754406Y-95951466D01*
X181790930Y-95854875D01*
X181810434Y-95752700D01*
X181811561Y-95648147D01*
X182627978Y-95648147D01*
X182627978Y-96093805D01*
X183804845Y-96096880D01*
X184981711Y-96099955D01*
X185040622Y-96126593D01*
X185065183Y-96138515D01*
X185095434Y-96155754D01*
X185112560Y-96168926D01*
X185120591Y-96176924D01*
X185135493Y-96184622D01*
X185136765Y-96180740D01*
X185138791Y-96157480D01*
X185140626Y-96115126D01*
X185142227Y-96055868D01*
X185143549Y-95981893D01*
X185144548Y-95895390D01*
X185145180Y-95798548D01*
X185145400Y-95693555D01*
X185145349Y-95624644D01*
X185145091Y-95526393D01*
X185144637Y-95436970D01*
X185144010Y-95358667D01*
X185143235Y-95293777D01*
X185142335Y-95244589D01*
X185141334Y-95213396D01*
X185140257Y-95202489D01*
X185137037Y-95203678D01*
X185119452Y-95213824D01*
X185093158Y-95230960D01*
X185080691Y-95239460D01*
X185066622Y-95248671D01*
X185052351Y-95256767D01*
X185036479Y-95263815D01*
X185017609Y-95269883D01*
X184994341Y-95275039D01*
X184965278Y-95279349D01*
X184929021Y-95282881D01*
X184884170Y-95285703D01*
X184829328Y-95287882D01*
X184763097Y-95289486D01*
X184684077Y-95290581D01*
X184590871Y-95291235D01*
X184482079Y-95291516D01*
X184356303Y-95291491D01*
X184212145Y-95291228D01*
X184048207Y-95290794D01*
X183863089Y-95290255D01*
X183684232Y-95289721D01*
X183525374Y-95289195D01*
X183386316Y-95288650D01*
X183265665Y-95288055D01*
X183162028Y-95287381D01*
X183074011Y-95286597D01*
X183000223Y-95285674D01*
X182939269Y-95284581D01*
X182889757Y-95283288D01*
X182850293Y-95281765D01*
X182819484Y-95279981D01*
X182795938Y-95277908D01*
X182778260Y-95275514D01*
X182765059Y-95272770D01*
X182754940Y-95269644D01*
X182746511Y-95266108D01*
X182738375Y-95262209D01*
X182701544Y-95242562D01*
X182671391Y-95223775D01*
X182669908Y-95222728D01*
X182647659Y-95208398D01*
X182634702Y-95202489D01*
X182634249Y-95203496D01*
X182632803Y-95220695D01*
X182631480Y-95257344D01*
X182630316Y-95311038D01*
X182629347Y-95379370D01*
X182628611Y-95459936D01*
X182628142Y-95550330D01*
X182627978Y-95648147D01*
X181811561Y-95648147D01*
X181811573Y-95647050D01*
X181793005Y-95540036D01*
X181753384Y-95433768D01*
X181695516Y-95336781D01*
X181620684Y-95251707D01*
X181532615Y-95182985D01*
X181433616Y-95132082D01*
X181325993Y-95100465D01*
X181212054Y-95089600D01*
X181115267Y-95089600D01*
X181115267Y-93469247D01*
X181115280Y-93258103D01*
X181115313Y-93123686D01*
X181724867Y-93123686D01*
X181787966Y-93085689D01*
X181813005Y-93071007D01*
X181840586Y-93056469D01*
X181868700Y-93044373D01*
X181899551Y-93034468D01*
X181935344Y-93026506D01*
X181978283Y-93020239D01*
X182030574Y-93015418D01*
X182094419Y-93011794D01*
X182172025Y-93009119D01*
X182265594Y-93007143D01*
X182377333Y-93005618D01*
X182509445Y-93004296D01*
X182629434Y-93003387D01*
X182746063Y-93002980D01*
X182841531Y-93003233D01*
X182915556Y-93004143D01*
X182967855Y-93005707D01*
X182998149Y-93007921D01*
X183006156Y-93010780D01*
X183002858Y-93013839D01*
X182981408Y-93031994D01*
X182944889Y-93061725D01*
X182895442Y-93101361D01*
X182835207Y-93149229D01*
X182766327Y-93203657D01*
X182690943Y-93262973D01*
X182611196Y-93325505D01*
X182529228Y-93389579D01*
X182447180Y-93453525D01*
X182367194Y-93515669D01*
X182291411Y-93574339D01*
X182221973Y-93627863D01*
X182161021Y-93674570D01*
X182110696Y-93712786D01*
X182073140Y-93740839D01*
X182050495Y-93757057D01*
X181978212Y-93802365D01*
X181898463Y-93842339D01*
X181830188Y-93863870D01*
X181772844Y-93867173D01*
X181724867Y-93861884D01*
X181725117Y-94993644D01*
X181755722Y-94954133D01*
X181763089Y-94944752D01*
X181817438Y-94881817D01*
X181885259Y-94813003D01*
X181968516Y-94736404D01*
X182069178Y-94650112D01*
X182089847Y-94632948D01*
X182139409Y-94592167D01*
X182200326Y-94542412D01*
X182270898Y-94485045D01*
X182349424Y-94421431D01*
X182434204Y-94352931D01*
X182523537Y-94280910D01*
X182615722Y-94206730D01*
X182634702Y-94191483D01*
X182709060Y-94131754D01*
X182801848Y-94057347D01*
X182892388Y-93984869D01*
X182978978Y-93915686D01*
X183059918Y-93851159D01*
X183133506Y-93792653D01*
X183198044Y-93741530D01*
X183251829Y-93699153D01*
X183293162Y-93666885D01*
X183320342Y-93646090D01*
X183331668Y-93638131D01*
X183335771Y-93639889D01*
X183356334Y-93652770D01*
X183392561Y-93677115D01*
X183442824Y-93711753D01*
X183505492Y-93755514D01*
X183578936Y-93807225D01*
X183661527Y-93865716D01*
X183751636Y-93929816D01*
X183847631Y-93998354D01*
X183947885Y-94070157D01*
X184050768Y-94144056D01*
X184154650Y-94218879D01*
X184257901Y-94293455D01*
X184358892Y-94366613D01*
X184455994Y-94437181D01*
X184547577Y-94503989D01*
X184632011Y-94565865D01*
X184707667Y-94621639D01*
X184772916Y-94670138D01*
X184826128Y-94710193D01*
X184865673Y-94740631D01*
X184891026Y-94761056D01*
X184945295Y-94807101D01*
X185001775Y-94857388D01*
X185051669Y-94904185D01*
X185145400Y-94995349D01*
X185145400Y-93840910D01*
X185069200Y-93841544D01*
X185027160Y-93840426D01*
X184991334Y-93834696D01*
X184953772Y-93822110D01*
X184905577Y-93800432D01*
X184898897Y-93797211D01*
X184849359Y-93771812D01*
X184801369Y-93745004D01*
X184764466Y-93722083D01*
X184757834Y-93717515D01*
X184726593Y-93695484D01*
X184681654Y-93663307D01*
X184625147Y-93622543D01*
X184559204Y-93574755D01*
X184485957Y-93521502D01*
X184407536Y-93464345D01*
X184326072Y-93404845D01*
X184243698Y-93344563D01*
X184162544Y-93285060D01*
X184084742Y-93227895D01*
X184012423Y-93174630D01*
X183947718Y-93126826D01*
X183892759Y-93086043D01*
X183849676Y-93053842D01*
X183820602Y-93031784D01*
X183807667Y-93021429D01*
X183803351Y-93016956D01*
X183801312Y-93012764D01*
X183803926Y-93009357D01*
X183812986Y-93006675D01*
X183830285Y-93004659D01*
X183857614Y-93003252D01*
X183896765Y-93002395D01*
X183949533Y-93002030D01*
X184017707Y-93002097D01*
X184103082Y-93002540D01*
X184207449Y-93003298D01*
X184332600Y-93004315D01*
X184377300Y-93004692D01*
X184498395Y-93005831D01*
X184599688Y-93007028D01*
X184683262Y-93008364D01*
X184751204Y-93009923D01*
X184805599Y-93011785D01*
X184848532Y-93014034D01*
X184882089Y-93016752D01*
X184908355Y-93020021D01*
X184929416Y-93023922D01*
X184947357Y-93028539D01*
X184973770Y-93036808D01*
X185035772Y-93060417D01*
X185088573Y-93086315D01*
X185125645Y-93111465D01*
X185127075Y-93112661D01*
X185131424Y-93114832D01*
X185135026Y-93112672D01*
X185137951Y-93104356D01*
X185140269Y-93088060D01*
X185142051Y-93061959D01*
X185143367Y-93024229D01*
X185144286Y-92973044D01*
X185144878Y-92906580D01*
X185145215Y-92823013D01*
X185145365Y-92720517D01*
X185145400Y-92597268D01*
X185145400Y-92065704D01*
X185087783Y-92104477D01*
X185078893Y-92110568D01*
X185064069Y-92121024D01*
X185050422Y-92130421D01*
X185036765Y-92138817D01*
X185021911Y-92146267D01*
X185004670Y-92152827D01*
X184983855Y-92158554D01*
X184958280Y-92163505D01*
X184926755Y-92167734D01*
X184888093Y-92171299D01*
X184841107Y-92174256D01*
X184784608Y-92176660D01*
X184717409Y-92178569D01*
X184638322Y-92180038D01*
X184546160Y-92181124D01*
X184439734Y-92181882D01*
X184317857Y-92182370D01*
X184179341Y-92182642D01*
X184022999Y-92182757D01*
X183847642Y-92182769D01*
X183652082Y-92182735D01*
X183435133Y-92182711D01*
X183312513Y-92182720D01*
X183107447Y-92182757D01*
X182923116Y-92182773D01*
X182758334Y-92182712D01*
X182611916Y-92182516D01*
X182482674Y-92182130D01*
X182369422Y-92181495D01*
X182270975Y-92180556D01*
X182186144Y-92179255D01*
X182113744Y-92177536D01*
X182052589Y-92175341D01*
X182001492Y-92172615D01*
X181959267Y-92169299D01*
X181924727Y-92165338D01*
X181896686Y-92160675D01*
X181873958Y-92155253D01*
X181855356Y-92149014D01*
X181839693Y-92141903D01*
X181825784Y-92133862D01*
X181812441Y-92124834D01*
X181798479Y-92114764D01*
X181782711Y-92103593D01*
X181724867Y-92063803D01*
X181724867Y-93123686D01*
X181115313Y-93123686D01*
X181115330Y-93053980D01*
X181115430Y-92870314D01*
X181115592Y-92706009D01*
X181115829Y-92559971D01*
X181116153Y-92431106D01*
X181116575Y-92318317D01*
X181117109Y-92220512D01*
X181117767Y-92136596D01*
X181118561Y-92065473D01*
X181119504Y-92006050D01*
X181120608Y-91957232D01*
X181121884Y-91917923D01*
X181123347Y-91887031D01*
X181125007Y-91863459D01*
X181126878Y-91846114D01*
X181128972Y-91833901D01*
X181131300Y-91825725D01*
X181133876Y-91820492D01*
X181137445Y-91814496D01*
X181140978Y-91807721D01*
X181144488Y-91801522D01*
X181148918Y-91795874D01*
X181155208Y-91790753D01*
X181164301Y-91786131D01*
X181177139Y-91781985D01*
X181194662Y-91778287D01*
X181217813Y-91775013D01*
X181247534Y-91772137D01*
X181284765Y-91769633D01*
X181330449Y-91767476D01*
X181385527Y-91765640D01*
X181450941Y-91764100D01*
X181527633Y-91762830D01*
X181616544Y-91761805D01*
X181718617Y-91760999D01*
X181724867Y-91760966D01*
X181834792Y-91760386D01*
X181966011Y-91759941D01*
X182113216Y-91759638D01*
X182277349Y-91759452D01*
X182459352Y-91759358D01*
X182660165Y-91759329D01*
X182880732Y-91759339D01*
X183121992Y-91759364D01*
X183384889Y-91759378D01*
X183427040Y-91759378D01*
X183687668Y-91759354D01*
X183926796Y-91759315D01*
X184145360Y-91759292D01*
X184344295Y-91759313D01*
G36*
X184344295Y-91759313D02*
G01*
X184524535Y-91759407D01*
X184687015Y-91759605D01*
X184832670Y-91759937D01*
X184962434Y-91760431D01*
X185077243Y-91761117D01*
X185178030Y-91762024D01*
X185265730Y-91763183D01*
X185341279Y-91764622D01*
X185405611Y-91766371D01*
X185459661Y-91768460D01*
X185504363Y-91770917D01*
X185540652Y-91773773D01*
X185569463Y-91777057D01*
X185591731Y-91780798D01*
X185608390Y-91785026D01*
X185620375Y-91789771D01*
X185628621Y-91795061D01*
X185634062Y-91800927D01*
X185637634Y-91807398D01*
X185640270Y-91814503D01*
X185642906Y-91822272D01*
X185646477Y-91830734D01*
X185648145Y-91835092D01*
X185650111Y-91843605D01*
X185651911Y-91856306D01*
X185653555Y-91874115D01*
X185655047Y-91897951D01*
X185656397Y-91928734D01*
X185657611Y-91967383D01*
X185658697Y-92014818D01*
X185659661Y-92071957D01*
X185660511Y-92139721D01*
X185661253Y-92219029D01*
X185661897Y-92310801D01*
X185662447Y-92415956D01*
X185662913Y-92535413D01*
X185663300Y-92670092D01*
X185663616Y-92820912D01*
X185663869Y-92988794D01*
X185664066Y-93174655D01*
X185664213Y-93379417D01*
X185664318Y-93603998D01*
X185664389Y-93849318D01*
X185664432Y-94116296D01*
X185664437Y-94154679D01*
X185664480Y-94420078D01*
X185664525Y-94663950D01*
X185664548Y-94887217D01*
X185664524Y-95090804D01*
X185664430Y-95275633D01*
X185664243Y-95442627D01*
X185663939Y-95592710D01*
X185663494Y-95726804D01*
X185662885Y-95845834D01*
X185662089Y-95950721D01*
X185661080Y-96042390D01*
X185659837Y-96121763D01*
X185658335Y-96189763D01*
X185656551Y-96247314D01*
X185654461Y-96295338D01*
X185652042Y-96334760D01*
X185649270Y-96366501D01*
X185646121Y-96391486D01*
X185642572Y-96410636D01*
X185638598Y-96424877D01*
X185634178Y-96435129D01*
X185629286Y-96442318D01*
X185623900Y-96447365D01*
X185617996Y-96451195D01*
X185611549Y-96454729D01*
X185604537Y-96458892D01*
X185602687Y-96459975D01*
X185597180Y-96462187D01*
X185588868Y-96464214D01*
X185576809Y-96466062D01*
X185560063Y-96467739D01*
X185537687Y-96469255D01*
X185508740Y-96470617D01*
X185472280Y-96471833D01*
X185427367Y-96472911D01*
X185373057Y-96473860D01*
X185308410Y-96474688D01*
X185232484Y-96475403D01*
X185144338Y-96476013D01*
X185043029Y-96476526D01*
X184927617Y-96476950D01*
X184797160Y-96477294D01*
X184650716Y-96477566D01*
X184487344Y-96477773D01*
X184306101Y-96477924D01*
X184106048Y-96478028D01*
X183886241Y-96478092D01*
X183645739Y-96478124D01*
X183383602Y-96478133D01*
X181192031Y-96478133D01*
X181153649Y-96439751D01*
X181129911Y-96412645D01*
X181118111Y-96385747D01*
X181115267Y-96349440D01*
X181115267Y-96297511D01*
X181203206Y-96297511D01*
X181253102Y-96295573D01*
X181363523Y-96276801D01*
X181464987Y-96239783D01*
X181556152Y-96186631D01*
X181635673Y-96119454D01*
X181702205Y-96040362D01*
X181754406Y-95951466D01*
X181790930Y-95854875D01*
X181810434Y-95752700D01*
X181811561Y-95648147D01*
X182627978Y-95648147D01*
X182627978Y-96093805D01*
X183804845Y-96096880D01*
X184981711Y-96099955D01*
X185040622Y-96126593D01*
X185065183Y-96138515D01*
X185095434Y-96155754D01*
X185112560Y-96168926D01*
X185120591Y-96176924D01*
X185135493Y-96184622D01*
X185136765Y-96180740D01*
X185138791Y-96157480D01*
X185140626Y-96115126D01*
X185142227Y-96055868D01*
X185143549Y-95981893D01*
X185144548Y-95895390D01*
X185145180Y-95798548D01*
X185145400Y-95693555D01*
X185145349Y-95624644D01*
X185145091Y-95526393D01*
X185144637Y-95436970D01*
X185144010Y-95358667D01*
X185143235Y-95293777D01*
X185142335Y-95244589D01*
X185141334Y-95213396D01*
X185140257Y-95202489D01*
X185137037Y-95203678D01*
X185119452Y-95213824D01*
X185093158Y-95230960D01*
X185080691Y-95239460D01*
X185066622Y-95248671D01*
X185052351Y-95256767D01*
X185036479Y-95263815D01*
X185017609Y-95269883D01*
X184994341Y-95275039D01*
X184965278Y-95279349D01*
X184929021Y-95282881D01*
X184884170Y-95285703D01*
X184829328Y-95287882D01*
X184763097Y-95289486D01*
X184684077Y-95290581D01*
X184590871Y-95291235D01*
X184482079Y-95291516D01*
X184356303Y-95291491D01*
X184212145Y-95291228D01*
X184048207Y-95290794D01*
X183863089Y-95290255D01*
X183684232Y-95289721D01*
X183525374Y-95289195D01*
X183386316Y-95288650D01*
X183265665Y-95288055D01*
X183162028Y-95287381D01*
X183074011Y-95286597D01*
X183000223Y-95285674D01*
X182939269Y-95284581D01*
X182889757Y-95283288D01*
X182850293Y-95281765D01*
X182819484Y-95279981D01*
X182795938Y-95277908D01*
X182778260Y-95275514D01*
X182765059Y-95272770D01*
X182754940Y-95269644D01*
X182746511Y-95266108D01*
X182738375Y-95262209D01*
X182701544Y-95242562D01*
X182671391Y-95223775D01*
X182669908Y-95222728D01*
X182647659Y-95208398D01*
X182634702Y-95202489D01*
X182634249Y-95203496D01*
X182632803Y-95220695D01*
X182631480Y-95257344D01*
X182630316Y-95311038D01*
X182629347Y-95379370D01*
X182628611Y-95459936D01*
X182628142Y-95550330D01*
X182627978Y-95648147D01*
X181811561Y-95648147D01*
X181811573Y-95647050D01*
X181793005Y-95540036D01*
X181753384Y-95433768D01*
X181695516Y-95336781D01*
X181620684Y-95251707D01*
X181532615Y-95182985D01*
X181433616Y-95132082D01*
X181325993Y-95100465D01*
X181212054Y-95089600D01*
X181115267Y-95089600D01*
X181115267Y-93469247D01*
X181115280Y-93258103D01*
X181115313Y-93123686D01*
X181724867Y-93123686D01*
X181787966Y-93085689D01*
X181813005Y-93071007D01*
X181840586Y-93056469D01*
X181868700Y-93044373D01*
X181899551Y-93034468D01*
X181935344Y-93026506D01*
X181978283Y-93020239D01*
X182030574Y-93015418D01*
X182094419Y-93011794D01*
X182172025Y-93009119D01*
X182265594Y-93007143D01*
X182377333Y-93005618D01*
X182509445Y-93004296D01*
X182629434Y-93003387D01*
X182746063Y-93002980D01*
X182841531Y-93003233D01*
X182915556Y-93004143D01*
X182967855Y-93005707D01*
X182998149Y-93007921D01*
X183006156Y-93010780D01*
X183002858Y-93013839D01*
X182981408Y-93031994D01*
X182944889Y-93061725D01*
X182895442Y-93101361D01*
X182835207Y-93149229D01*
X182766327Y-93203657D01*
X182690943Y-93262973D01*
X182611196Y-93325505D01*
X182529228Y-93389579D01*
X182447180Y-93453525D01*
X182367194Y-93515669D01*
X182291411Y-93574339D01*
X182221973Y-93627863D01*
X182161021Y-93674570D01*
X182110696Y-93712786D01*
X182073140Y-93740839D01*
X182050495Y-93757057D01*
X181978212Y-93802365D01*
X181898463Y-93842339D01*
X181830188Y-93863870D01*
X181772844Y-93867173D01*
X181724867Y-93861884D01*
X181725117Y-94993644D01*
X181755722Y-94954133D01*
X181763089Y-94944752D01*
X181817438Y-94881817D01*
X181885259Y-94813003D01*
X181968516Y-94736404D01*
X182069178Y-94650112D01*
X182089847Y-94632948D01*
X182139409Y-94592167D01*
X182200326Y-94542412D01*
X182270898Y-94485045D01*
X182349424Y-94421431D01*
X182434204Y-94352931D01*
X182523537Y-94280910D01*
X182615722Y-94206730D01*
X182634702Y-94191483D01*
X182709060Y-94131754D01*
X182801848Y-94057347D01*
X182892388Y-93984869D01*
X182978978Y-93915686D01*
X183059918Y-93851159D01*
X183133506Y-93792653D01*
X183198044Y-93741530D01*
X183251829Y-93699153D01*
X183293162Y-93666885D01*
X183320342Y-93646090D01*
X183331668Y-93638131D01*
X183335771Y-93639889D01*
X183356334Y-93652770D01*
X183392561Y-93677115D01*
X183442824Y-93711753D01*
X183505492Y-93755514D01*
X183578936Y-93807225D01*
X183661527Y-93865716D01*
X183751636Y-93929816D01*
X183847631Y-93998354D01*
X183947885Y-94070157D01*
X184050768Y-94144056D01*
X184154650Y-94218879D01*
X184257901Y-94293455D01*
X184358892Y-94366613D01*
X184455994Y-94437181D01*
X184547577Y-94503989D01*
X184632011Y-94565865D01*
X184707667Y-94621639D01*
X184772916Y-94670138D01*
X184826128Y-94710193D01*
X184865673Y-94740631D01*
X184891026Y-94761056D01*
X184945295Y-94807101D01*
X185001775Y-94857388D01*
X185051669Y-94904185D01*
X185145400Y-94995349D01*
X185145400Y-93840910D01*
X185069200Y-93841544D01*
X185027160Y-93840426D01*
X184991334Y-93834696D01*
X184953772Y-93822110D01*
X184905577Y-93800432D01*
X184898897Y-93797211D01*
X184849359Y-93771812D01*
X184801369Y-93745004D01*
X184764466Y-93722083D01*
X184757834Y-93717515D01*
X184726593Y-93695484D01*
X184681654Y-93663307D01*
X184625147Y-93622543D01*
X184559204Y-93574755D01*
X184485957Y-93521502D01*
X184407536Y-93464345D01*
X184326072Y-93404845D01*
X184243698Y-93344563D01*
X184162544Y-93285060D01*
X184084742Y-93227895D01*
X184012423Y-93174630D01*
X183947718Y-93126826D01*
X183892759Y-93086043D01*
X183849676Y-93053842D01*
X183820602Y-93031784D01*
X183807667Y-93021429D01*
X183803351Y-93016956D01*
X183801312Y-93012764D01*
X183803926Y-93009357D01*
X183812986Y-93006675D01*
X183830285Y-93004659D01*
X183857614Y-93003252D01*
X183896765Y-93002395D01*
X183949533Y-93002030D01*
X184017707Y-93002097D01*
X184103082Y-93002540D01*
X184207449Y-93003298D01*
X184332600Y-93004315D01*
X184377300Y-93004692D01*
X184498395Y-93005831D01*
X184599688Y-93007028D01*
X184683262Y-93008364D01*
X184751204Y-93009923D01*
X184805599Y-93011785D01*
X184848532Y-93014034D01*
X184882089Y-93016752D01*
X184908355Y-93020021D01*
X184929416Y-93023922D01*
X184947357Y-93028539D01*
X184973770Y-93036808D01*
X185035772Y-93060417D01*
X185088573Y-93086315D01*
X185125645Y-93111465D01*
X185127075Y-93112661D01*
X185131424Y-93114832D01*
X185135026Y-93112672D01*
X185137951Y-93104356D01*
X185140269Y-93088060D01*
X185142051Y-93061959D01*
X185143367Y-93024229D01*
X185144286Y-92973044D01*
X185144878Y-92906580D01*
X185145215Y-92823013D01*
X185145365Y-92720517D01*
X185145400Y-92597268D01*
X185145400Y-92065704D01*
X185087783Y-92104477D01*
X185078893Y-92110568D01*
X185064069Y-92121024D01*
X185050422Y-92130421D01*
X185036765Y-92138817D01*
X185021911Y-92146267D01*
X185004670Y-92152827D01*
X184983855Y-92158554D01*
X184958280Y-92163505D01*
X184926755Y-92167734D01*
X184888093Y-92171299D01*
X184841107Y-92174256D01*
X184784608Y-92176660D01*
X184717409Y-92178569D01*
X184638322Y-92180038D01*
X184546160Y-92181124D01*
X184439734Y-92181882D01*
X184317857Y-92182370D01*
X184179341Y-92182642D01*
X184022999Y-92182757D01*
X183847642Y-92182769D01*
X183652082Y-92182735D01*
X183435133Y-92182711D01*
X183312513Y-92182720D01*
X183107447Y-92182757D01*
X182923116Y-92182773D01*
X182758334Y-92182712D01*
X182611916Y-92182516D01*
X182482674Y-92182130D01*
X182369422Y-92181495D01*
X182270975Y-92180556D01*
X182186144Y-92179255D01*
X182113744Y-92177536D01*
X182052589Y-92175341D01*
X182001492Y-92172615D01*
X181959267Y-92169299D01*
X181924727Y-92165338D01*
X181896686Y-92160675D01*
X181873958Y-92155253D01*
X181855356Y-92149014D01*
X181839693Y-92141903D01*
X181825784Y-92133862D01*
X181812441Y-92124834D01*
X181798479Y-92114764D01*
X181782711Y-92103593D01*
X181724867Y-92063803D01*
X181724867Y-93123686D01*
X181115313Y-93123686D01*
X181115330Y-93053980D01*
X181115430Y-92870314D01*
X181115592Y-92706009D01*
X181115829Y-92559971D01*
X181116153Y-92431106D01*
X181116575Y-92318317D01*
X181117109Y-92220512D01*
X181117767Y-92136596D01*
X181118561Y-92065473D01*
X181119504Y-92006050D01*
X181120608Y-91957232D01*
X181121884Y-91917923D01*
X181123347Y-91887031D01*
X181125007Y-91863459D01*
X181126878Y-91846114D01*
X181128972Y-91833901D01*
X181131300Y-91825725D01*
X181133876Y-91820492D01*
X181137445Y-91814496D01*
X181140978Y-91807721D01*
X181144488Y-91801522D01*
X181148918Y-91795874D01*
X181155208Y-91790753D01*
X181164301Y-91786131D01*
X181177139Y-91781985D01*
X181194662Y-91778287D01*
X181217813Y-91775013D01*
X181247534Y-91772137D01*
X181284765Y-91769633D01*
X181330449Y-91767476D01*
X181385527Y-91765640D01*
X181450941Y-91764100D01*
X181527633Y-91762830D01*
X181616544Y-91761805D01*
X181718617Y-91760999D01*
X181724867Y-91760966D01*
X181834792Y-91760386D01*
X181966011Y-91759941D01*
X182113216Y-91759638D01*
X182277349Y-91759452D01*
X182459352Y-91759358D01*
X182660165Y-91759329D01*
X182880732Y-91759339D01*
X183121992Y-91759364D01*
X183384889Y-91759378D01*
X183427040Y-91759378D01*
X183687668Y-91759354D01*
X183926796Y-91759315D01*
X184145360Y-91759292D01*
X184344295Y-91759313D01*
G37*
D16*
X143296982Y-132283025D02*
X143296982Y-133533025D01*
X143296982Y-132283025D02*
X144546982Y-132283025D01*
X144546982Y-132283025D02*
X143296982Y-132283025D01*
X155046982Y-132283025D02*
X156296982Y-132283025D01*
X156296982Y-132283025D02*
X156296982Y-133533025D01*
D14*
X167126500Y-123172224D02*
X167126500Y-122662776D01*
X168171500Y-123172224D02*
X168171500Y-122662776D01*
X146325000Y-113540000D02*
X146325000Y-121220000D01*
X148985000Y-110940000D02*
X147655000Y-110940000D01*
X148985000Y-112270000D02*
X148985000Y-110940000D01*
X148985000Y-113540000D02*
X146325000Y-113540000D01*
X148985000Y-113540000D02*
X148985000Y-121220000D01*
X148985000Y-121220000D02*
X146325000Y-121220000D01*
D17*
G36*
X167512623Y-97774987D02*
G01*
X167512623Y-97789204D01*
X167491945Y-97880318D01*
X167435079Y-97939769D01*
X167349134Y-97972079D01*
X167296953Y-97979349D01*
X167239925Y-97981772D01*
X167139117Y-97974018D01*
X167052526Y-97946877D01*
X166992429Y-97893889D01*
X166969812Y-97807297D01*
X166970458Y-97784034D01*
X166973689Y-97760771D01*
X167511331Y-97760771D01*
X167512623Y-97774987D01*
G37*
G36*
X167765073Y-97344616D02*
G01*
X167765073Y-97772402D01*
X167765073Y-98143323D01*
X167765073Y-98251024D01*
X167762415Y-98305137D01*
X167754465Y-98358728D01*
X167741301Y-98411282D01*
X167723049Y-98462293D01*
X167699885Y-98511269D01*
X167672032Y-98557739D01*
X167639758Y-98601255D01*
X167603375Y-98641399D01*
X167563232Y-98677782D01*
X167519715Y-98710056D01*
X167473246Y-98737909D01*
X167424269Y-98761073D01*
X167373258Y-98779325D01*
X167320704Y-98792489D01*
X167267113Y-98800439D01*
X167213000Y-98803097D01*
X167158887Y-98800439D01*
X167105296Y-98792489D01*
X167052742Y-98779325D01*
X167001731Y-98761073D01*
X166952754Y-98737909D01*
X166906285Y-98710056D01*
X166862768Y-98677782D01*
X166822625Y-98641399D01*
X166786242Y-98601255D01*
X166753968Y-98557739D01*
X166726115Y-98511269D01*
X166702951Y-98462293D01*
X166684699Y-98411282D01*
X166671535Y-98358728D01*
X166663585Y-98305137D01*
X166660927Y-98251024D01*
X166660927Y-98143323D01*
X166660927Y-97793081D01*
X166831525Y-97793081D01*
X166837340Y-97868525D01*
X166854788Y-97937184D01*
X166884675Y-97997443D01*
X166927809Y-98047685D01*
X166984352Y-98087911D01*
X167054465Y-98118121D01*
X167139279Y-98137023D01*
X167239925Y-98143323D01*
X167342833Y-98136377D01*
X167429263Y-98115537D01*
X167500184Y-98082419D01*
X167556565Y-98038638D01*
X167599053Y-97984842D01*
X167628293Y-97921675D01*
X167645256Y-97850432D01*
X167650911Y-97772402D01*
X167646387Y-97689042D01*
X167631525Y-97601805D01*
X166850911Y-97601805D01*
X166835402Y-97703905D01*
X166831525Y-97793081D01*
X166660927Y-97793081D01*
X166660927Y-96945262D01*
X166840571Y-96945262D01*
X166840571Y-97073210D01*
X166899861Y-97109398D01*
X166963996Y-97145585D01*
X167030394Y-97181288D01*
X167096468Y-97216021D01*
X167161411Y-97248978D01*
X167224416Y-97279349D01*
X167282575Y-97306328D01*
X167332978Y-97329107D01*
X166840571Y-97329107D01*
X166840571Y-97472564D01*
X167640571Y-97472564D01*
X167640571Y-97344616D01*
X167551898Y-97307351D01*
X167463368Y-97267933D01*
X167374982Y-97226360D01*
X167286595Y-97182634D01*
X167198066Y-97136754D01*
X167109392Y-97088719D01*
X167640571Y-97088719D01*
X167640571Y-96945262D01*
X166840571Y-96945262D01*
X166660927Y-96945262D01*
X166660927Y-96620868D01*
X166822478Y-96620868D01*
X166829586Y-96704228D01*
X166845741Y-96768202D01*
X166865127Y-96812790D01*
X166880636Y-96839285D01*
X167007292Y-96797927D01*
X166974982Y-96728138D01*
X166960765Y-96642839D01*
X166981444Y-96547201D01*
X167038956Y-96483226D01*
X167126840Y-96447039D01*
X167180636Y-96438800D01*
X167239925Y-96436054D01*
X167327163Y-96441080D01*
X167397599Y-96456158D01*
X167451234Y-96481288D01*
X167502122Y-96537184D01*
X167519085Y-96614406D01*
X167517793Y-96645423D01*
X167513915Y-96676441D01*
X167221831Y-96676441D01*
X167221831Y-96835407D01*
X167621185Y-96835407D01*
X167644449Y-96746877D01*
X167654142Y-96680480D01*
X167657373Y-96601482D01*
X167650749Y-96530238D01*
X167630878Y-96466425D01*
X167597922Y-96410690D01*
X167552041Y-96363679D01*
X167493237Y-96325876D01*
X167421508Y-96297766D01*
X167337017Y-96280318D01*
X167239925Y-96274503D01*
X167143802Y-96281288D01*
X167059634Y-96301643D01*
X166987744Y-96333630D01*
X166928455Y-96375310D01*
X166882090Y-96426037D01*
X166848972Y-96485165D01*
X166829101Y-96550755D01*
X166822478Y-96620868D01*
X166660927Y-96620868D01*
X166660927Y-96274503D01*
X166660927Y-96112952D01*
X167213000Y-95744903D01*
X167765073Y-96112952D01*
X167765073Y-96274503D01*
X167765073Y-96601482D01*
X167765073Y-97344616D01*
G37*
G36*
X175132623Y-97520987D02*
G01*
X175132623Y-97535204D01*
X175111945Y-97626318D01*
X175055079Y-97685769D01*
X174969134Y-97718079D01*
X174916953Y-97725349D01*
X174859925Y-97727772D01*
X174759117Y-97720018D01*
X174672526Y-97692877D01*
X174612429Y-97639889D01*
X174589812Y-97553297D01*
X174590458Y-97530034D01*
X174593689Y-97506771D01*
X175131331Y-97506771D01*
X175132623Y-97520987D01*
G37*
G36*
X175385073Y-97090616D02*
G01*
X175385073Y-97518402D01*
X175385073Y-97889323D01*
X175385073Y-97997024D01*
X175382415Y-98051137D01*
X175374465Y-98104728D01*
X175361301Y-98157282D01*
X175343049Y-98208293D01*
X175319885Y-98257269D01*
X175292032Y-98303739D01*
X175259758Y-98347255D01*
X175223375Y-98387399D01*
X175183232Y-98423782D01*
X175139715Y-98456056D01*
X175093246Y-98483909D01*
X175044269Y-98507073D01*
X174993258Y-98525325D01*
X174940704Y-98538489D01*
X174887113Y-98546439D01*
X174833000Y-98549097D01*
X174778887Y-98546439D01*
X174725296Y-98538489D01*
X174672742Y-98525325D01*
X174621731Y-98507073D01*
X174572754Y-98483909D01*
X174526285Y-98456056D01*
X174482768Y-98423782D01*
X174442625Y-98387399D01*
X174406242Y-98347255D01*
X174373968Y-98303739D01*
X174346115Y-98257269D01*
X174322951Y-98208293D01*
X174304699Y-98157282D01*
X174291535Y-98104728D01*
X174283585Y-98051137D01*
X174280927Y-97997024D01*
X174280927Y-97889323D01*
X174280927Y-97539081D01*
X174451525Y-97539081D01*
X174457340Y-97614525D01*
X174474788Y-97683184D01*
X174504675Y-97743443D01*
X174547809Y-97793685D01*
X174604352Y-97833911D01*
X174674465Y-97864121D01*
X174759279Y-97883023D01*
X174859925Y-97889323D01*
X174962833Y-97882377D01*
X175049263Y-97861537D01*
X175120184Y-97828419D01*
X175176565Y-97784638D01*
X175219053Y-97730842D01*
X175248293Y-97667675D01*
X175265256Y-97596432D01*
X175270911Y-97518402D01*
X175266387Y-97435042D01*
X175251525Y-97347805D01*
X174470911Y-97347805D01*
X174455402Y-97449905D01*
X174451525Y-97539081D01*
X174280927Y-97539081D01*
X174280927Y-96691262D01*
X174460571Y-96691262D01*
X174460571Y-96819210D01*
X174519861Y-96855398D01*
X174583996Y-96891585D01*
X174650394Y-96927288D01*
X174716468Y-96962021D01*
X174781411Y-96994978D01*
X174844416Y-97025349D01*
X174902575Y-97052328D01*
X174952978Y-97075107D01*
X174460571Y-97075107D01*
X174460571Y-97218564D01*
X175260571Y-97218564D01*
X175260571Y-97090616D01*
X175171898Y-97053351D01*
X175083368Y-97013933D01*
X174994982Y-96972360D01*
X174906595Y-96928634D01*
X174818066Y-96882754D01*
X174729392Y-96834719D01*
X175260571Y-96834719D01*
X175260571Y-96691262D01*
X174460571Y-96691262D01*
X174280927Y-96691262D01*
X174280927Y-96366868D01*
X174442478Y-96366868D01*
X174449586Y-96450228D01*
X174465741Y-96514202D01*
X174485127Y-96558790D01*
X174500636Y-96585285D01*
X174627292Y-96543927D01*
X174594982Y-96474138D01*
X174580765Y-96388839D01*
X174601444Y-96293201D01*
X174658956Y-96229226D01*
X174746840Y-96193039D01*
X174800636Y-96184800D01*
X174859925Y-96182054D01*
X174947163Y-96187080D01*
X175017599Y-96202158D01*
X175071234Y-96227288D01*
X175122122Y-96283184D01*
X175139085Y-96360406D01*
X175137793Y-96391423D01*
X175133915Y-96422441D01*
X174841831Y-96422441D01*
X174841831Y-96581407D01*
X175241185Y-96581407D01*
X175264449Y-96492877D01*
X175274142Y-96426480D01*
X175277373Y-96347482D01*
X175270749Y-96276238D01*
X175250878Y-96212425D01*
X175217922Y-96156690D01*
X175172041Y-96109679D01*
X175113237Y-96071876D01*
X175041508Y-96043766D01*
X174957017Y-96026318D01*
X174859925Y-96020503D01*
X174763802Y-96027288D01*
X174679634Y-96047643D01*
X174607744Y-96079630D01*
X174548455Y-96121310D01*
X174502090Y-96172037D01*
X174468972Y-96231165D01*
X174449101Y-96296755D01*
X174442478Y-96366868D01*
X174280927Y-96366868D01*
X174280927Y-96020503D01*
X174280927Y-95858952D01*
X174833000Y-95490903D01*
X175385073Y-95858952D01*
X175385073Y-96020503D01*
X175385073Y-96347482D01*
X175385073Y-97090616D01*
G37*
D14*
X173730500Y-123068724D02*
X173730500Y-122559276D01*
X174775500Y-123068724D02*
X174775500Y-122559276D01*
D17*
G36*
X154811073Y-97141708D02*
G01*
X154811073Y-97812467D01*
X154811073Y-98120060D01*
X154811073Y-98227761D01*
X154808415Y-98281873D01*
X154800465Y-98335465D01*
X154787301Y-98388019D01*
X154769049Y-98439030D01*
X154745885Y-98488006D01*
X154718032Y-98534476D01*
X154685758Y-98577992D01*
X154649375Y-98618135D01*
X154609232Y-98654519D01*
X154565715Y-98686793D01*
X154519246Y-98714646D01*
X154470269Y-98737810D01*
X154419258Y-98756062D01*
X154366704Y-98769226D01*
X154313113Y-98777175D01*
X154259000Y-98779834D01*
X154204887Y-98777175D01*
X154151296Y-98769226D01*
X154098742Y-98756062D01*
X154047731Y-98737810D01*
X153998754Y-98714646D01*
X153952285Y-98686793D01*
X153908768Y-98654519D01*
X153868625Y-98618135D01*
X153832242Y-98577992D01*
X153799968Y-98534476D01*
X153772115Y-98488006D01*
X153748951Y-98439030D01*
X153730699Y-98388019D01*
X153717535Y-98335465D01*
X153709585Y-98281873D01*
X153706927Y-98227761D01*
X153706927Y-98120060D01*
X153706927Y-97826684D01*
X153868478Y-97826684D01*
X153872678Y-97889527D01*
X153885279Y-97943646D01*
X153932452Y-98025714D01*
X154004180Y-98073533D01*
X154093356Y-98089042D01*
X154185117Y-98061902D01*
X154252323Y-97989527D01*
X154284310Y-98044616D01*
X154328575Y-98085811D01*
X154383825Y-98111498D01*
X154448768Y-98120060D01*
X154550869Y-98101966D01*
X154631644Y-98046393D01*
X154662016Y-98003743D01*
X154684633Y-97950755D01*
X154698688Y-97887104D01*
X154703373Y-97812467D01*
X154698849Y-97749785D01*
X154687864Y-97686457D01*
X154673647Y-97630238D01*
X154659431Y-97590173D01*
X154526313Y-97621191D01*
X154553453Y-97698089D01*
X154564116Y-97749947D01*
X154567670Y-97811175D01*
X154558946Y-97880480D01*
X154532775Y-97925553D01*
X154446184Y-97958509D01*
X154392387Y-97945908D01*
X154357654Y-97908105D01*
X154338752Y-97850916D01*
X154332452Y-97780157D01*
X154332452Y-97731045D01*
X154200626Y-97731045D01*
X154200626Y-97790496D01*
X154195457Y-97839608D01*
X154178655Y-97883549D01*
X154147638Y-97915213D01*
X154098526Y-97927491D01*
X154029382Y-97900997D01*
X154004180Y-97827976D01*
X154019043Y-97738154D01*
X154055877Y-97661255D01*
X153939560Y-97604390D01*
X153892387Y-97696797D01*
X153874455Y-97758024D01*
X153868478Y-97826684D01*
X153706927Y-97826684D01*
X153706927Y-96909074D01*
X154079140Y-96909074D01*
X154079140Y-97075795D01*
X154129867Y-97088558D01*
X154183825Y-97103582D01*
X154239560Y-97120222D01*
X154295618Y-97137831D01*
X154351030Y-97156086D01*
X154404827Y-97174664D01*
X154501757Y-97210205D01*
X154404827Y-97247685D01*
X154351030Y-97268202D01*
X154295618Y-97288396D01*
X154239560Y-97308105D01*
X154183825Y-97327168D01*
X154129867Y-97344131D01*
X154079140Y-97357540D01*
X154079140Y-97519091D01*
X154169083Y-97491223D01*
X154255392Y-97461902D01*
X154338066Y-97431126D01*
X154417104Y-97398897D01*
X154515686Y-97355817D01*
X154605509Y-97314460D01*
X154686571Y-97274826D01*
X154686571Y-97141708D01*
X154605509Y-97102720D01*
X154515686Y-97063302D01*
X154417104Y-97023453D01*
X154338066Y-96993768D01*
X154255392Y-96964810D01*
X154169083Y-96936579D01*
X154079140Y-96909074D01*
X153706927Y-96909074D01*
X153706927Y-96534276D01*
X153868478Y-96534276D01*
X153872678Y-96597120D01*
X153885279Y-96651239D01*
X153932452Y-96733307D01*
X154004180Y-96781126D01*
X154093356Y-96796635D01*
X154185117Y-96769495D01*
X154252323Y-96697120D01*
X154284310Y-96752209D01*
X154328575Y-96793404D01*
X154383825Y-96819091D01*
X154448768Y-96827653D01*
X154550869Y-96809559D01*
X154631644Y-96753986D01*
X154662016Y-96711336D01*
X154684633Y-96658348D01*
X154698688Y-96594696D01*
X154703373Y-96520060D01*
X154698849Y-96457378D01*
X154687864Y-96394050D01*
X154673647Y-96337831D01*
X154659431Y-96297766D01*
X154526313Y-96328784D01*
X154553453Y-96405682D01*
X154564116Y-96457540D01*
X154567670Y-96518768D01*
X154558946Y-96588073D01*
X154532775Y-96633146D01*
X154446184Y-96666102D01*
X154392387Y-96653501D01*
X154357654Y-96615698D01*
X154338752Y-96558509D01*
X154332452Y-96487750D01*
X154332452Y-96438638D01*
X154200626Y-96438638D01*
X154200626Y-96498089D01*
X154195457Y-96547201D01*
X154178655Y-96591142D01*
X154147638Y-96622806D01*
X154098526Y-96635084D01*
X154029382Y-96608590D01*
X154004180Y-96535569D01*
X154019043Y-96445747D01*
X154055877Y-96368848D01*
X153939560Y-96311982D01*
X153892387Y-96404390D01*
X153874455Y-96465617D01*
X153868478Y-96534276D01*
X153706927Y-96534276D01*
X153706927Y-96297766D01*
X153706927Y-96136215D01*
X154259000Y-95768166D01*
X154811073Y-96136215D01*
X154811073Y-96297766D01*
X154811073Y-96520060D01*
X154811073Y-97141708D01*
G37*
G36*
X152272623Y-97774987D02*
G01*
X152272623Y-97789204D01*
X152251945Y-97880318D01*
X152195079Y-97939769D01*
X152109134Y-97972079D01*
X152056953Y-97979349D01*
X151999925Y-97981772D01*
X151899117Y-97974018D01*
X151812526Y-97946877D01*
X151752429Y-97893889D01*
X151729812Y-97807297D01*
X151730458Y-97784034D01*
X151733689Y-97760771D01*
X152271331Y-97760771D01*
X152272623Y-97774987D01*
G37*
G36*
X152525073Y-97344616D02*
G01*
X152525073Y-97772402D01*
X152525073Y-98143323D01*
X152525073Y-98251024D01*
X152522415Y-98305137D01*
X152514465Y-98358728D01*
X152501301Y-98411282D01*
X152483049Y-98462293D01*
X152459885Y-98511269D01*
X152432032Y-98557739D01*
X152399758Y-98601255D01*
X152363375Y-98641399D01*
X152323232Y-98677782D01*
X152279715Y-98710056D01*
X152233246Y-98737909D01*
X152184269Y-98761073D01*
X152133258Y-98779325D01*
X152080704Y-98792489D01*
X152027113Y-98800439D01*
X151973000Y-98803097D01*
X151918887Y-98800439D01*
X151865296Y-98792489D01*
X151812742Y-98779325D01*
X151761731Y-98761073D01*
X151712754Y-98737909D01*
X151666285Y-98710056D01*
X151622768Y-98677782D01*
X151582625Y-98641399D01*
X151546242Y-98601255D01*
X151513968Y-98557739D01*
X151486115Y-98511269D01*
X151462951Y-98462293D01*
X151444699Y-98411282D01*
X151431535Y-98358728D01*
X151423585Y-98305137D01*
X151420927Y-98251024D01*
X151420927Y-98143323D01*
X151420927Y-97793081D01*
X151591525Y-97793081D01*
X151597340Y-97868525D01*
X151614788Y-97937184D01*
X151644675Y-97997443D01*
X151687809Y-98047685D01*
X151744352Y-98087911D01*
X151814465Y-98118121D01*
X151899279Y-98137023D01*
X151999925Y-98143323D01*
X152102833Y-98136377D01*
X152189263Y-98115537D01*
X152260184Y-98082419D01*
X152316565Y-98038638D01*
X152359053Y-97984842D01*
X152388293Y-97921675D01*
X152405256Y-97850432D01*
X152410911Y-97772402D01*
X152406387Y-97689042D01*
X152391525Y-97601805D01*
X151610911Y-97601805D01*
X151595402Y-97703905D01*
X151591525Y-97793081D01*
X151420927Y-97793081D01*
X151420927Y-96945262D01*
X151600571Y-96945262D01*
X151600571Y-97073210D01*
X151659861Y-97109398D01*
X151723996Y-97145585D01*
X151790394Y-97181288D01*
X151856468Y-97216021D01*
X151921411Y-97248978D01*
X151984416Y-97279349D01*
X152042575Y-97306328D01*
X152092978Y-97329107D01*
X151600571Y-97329107D01*
X151600571Y-97472564D01*
X152400571Y-97472564D01*
X152400571Y-97344616D01*
X152311898Y-97307351D01*
X152223368Y-97267933D01*
X152134982Y-97226360D01*
X152046595Y-97182634D01*
X151958066Y-97136754D01*
X151869392Y-97088719D01*
X152400571Y-97088719D01*
X152400571Y-96945262D01*
X151600571Y-96945262D01*
X151420927Y-96945262D01*
X151420927Y-96620868D01*
X151582478Y-96620868D01*
X151589586Y-96704228D01*
X151605741Y-96768202D01*
X151625127Y-96812790D01*
X151640636Y-96839285D01*
X151767292Y-96797927D01*
X151734982Y-96728138D01*
X151720765Y-96642839D01*
X151741444Y-96547201D01*
X151798956Y-96483226D01*
X151886840Y-96447039D01*
X151940636Y-96438800D01*
X151999925Y-96436054D01*
X152087163Y-96441080D01*
X152157599Y-96456158D01*
X152211234Y-96481288D01*
X152262122Y-96537184D01*
X152279085Y-96614406D01*
X152277793Y-96645423D01*
X152273915Y-96676441D01*
X151981831Y-96676441D01*
X151981831Y-96835407D01*
X152381185Y-96835407D01*
X152404449Y-96746877D01*
X152414142Y-96680480D01*
X152417373Y-96601482D01*
X152410749Y-96530238D01*
X152390878Y-96466425D01*
X152357922Y-96410690D01*
X152312041Y-96363679D01*
X152253237Y-96325876D01*
X152181508Y-96297766D01*
X152097017Y-96280318D01*
X151999925Y-96274503D01*
X151903802Y-96281288D01*
X151819634Y-96301643D01*
X151747744Y-96333630D01*
X151688455Y-96375310D01*
X151642090Y-96426037D01*
X151608972Y-96485165D01*
X151589101Y-96550755D01*
X151582478Y-96620868D01*
X151420927Y-96620868D01*
X151420927Y-96274503D01*
X151420927Y-96112952D01*
X151973000Y-95744903D01*
X152525073Y-96112952D01*
X152525073Y-96274503D01*
X152525073Y-96601482D01*
X152525073Y-97344616D01*
G37*
D14*
X164129300Y-123170324D02*
X164129300Y-122660876D01*
X165174300Y-123170324D02*
X165174300Y-122660876D01*
D11*
X164763000Y-136930000D02*
X171013000Y-136930000D01*
D14*
X170682500Y-123068724D02*
X170682500Y-122559276D01*
X171727500Y-123068724D02*
X171727500Y-122559276D01*
X165627900Y-123172224D02*
X165627900Y-122662776D01*
X166672900Y-123172224D02*
X166672900Y-122662776D01*
D18*
X171943000Y-136930000D03*
X163963000Y-136930000D03*
%LPC*%
D19*
X183700800Y-86070000D03*
D20*
X152227000Y-100322000D03*
D21*
X154767000Y-100322000D03*
X157307000Y-100322000D03*
D22*
X149305000Y-92870000D03*
X151845000Y-92870000D03*
X154385000Y-92870000D03*
X156925000Y-92870000D03*
X159465000Y-92870000D03*
X162005000Y-92870000D03*
X164545000Y-92870000D03*
X167085000Y-92870000D03*
X169625000Y-92870000D03*
X172165000Y-92870000D03*
X174705000Y-92870000D03*
X177245000Y-92870000D03*
D23*
X172729000Y-123726500D03*
X172729000Y-121901500D03*
D24*
X147296982Y-136783025D03*
X152296982Y-136783025D03*
D25*
X143796982Y-137783025D03*
X144396982Y-137783025D03*
X155196982Y-137783025D03*
X155796982Y-137783025D03*
D26*
X147296982Y-132283025D03*
X147296982Y-133133025D03*
X149796982Y-132283025D03*
X149796982Y-133133025D03*
X152296982Y-132283025D03*
X152296982Y-133133025D03*
D23*
X167649000Y-123830000D03*
X167649000Y-122005000D03*
D20*
X147655000Y-112270000D03*
D21*
X147655000Y-114810000D03*
X147655000Y-117350000D03*
X147655000Y-119890000D03*
D23*
X174253000Y-123726500D03*
X174253000Y-121901500D03*
X164651800Y-123828100D03*
X164651800Y-122003100D03*
D18*
X171943000Y-136930000D03*
X163963000Y-136930000D03*
D27*
X164763000Y-126230000D03*
X165863000Y-126230000D03*
X166963000Y-126230000D03*
X168063000Y-126230000D03*
X169163000Y-126230000D03*
X170263000Y-126230000D03*
X171363000Y-126230000D03*
X172463000Y-126230000D03*
X173563000Y-126230000D03*
D28*
X175063000Y-126930000D03*
D29*
X175013000Y-136530000D03*
D30*
X159913000Y-126630000D03*
D29*
X159013000Y-136530000D03*
D23*
X171205000Y-123726500D03*
X171205000Y-121901500D03*
X166150400Y-123830000D03*
X166150400Y-122005000D03*
%LPD*%
M02*
