%TF.GenerationSoftware,KiCad,Pcbnew,9.0.0-9.0.0-2~ubuntu24.04.1*%
%TF.CreationDate,2025-03-07T10:50:57+01:00*%
%TF.ProjectId,SensorBoard,53656e73-6f72-4426-9f61-72642e6b6963,rev?*%
%TF.SameCoordinates,Original*%
%TF.FileFunction,Soldermask,Bot*%
%TF.FilePolarity,Negative*%
%FSLAX46Y46*%
G04 Gerber Fmt 4.6, Leading zero omitted, Abs format (unit mm)*
G04 Created by KiCad (PCBNEW 9.0.0-9.0.0-2~ubuntu24.04.1) date 2025-03-07 10:50:57*
%MOMM*%
%LPD*%
G01*
G04 APERTURE LIST*
G04 Aperture macros list*
%AMRoundRect*
0 Rectangle with rounded corners*
0 $1 Rounding radius*
0 $2 $3 $4 $5 $6 $7 $8 $9 X,Y pos of 4 corners*
0 Add a 4 corners polygon primitive as box body*
4,1,4,$2,$3,$4,$5,$6,$7,$8,$9,$2,$3,0*
0 Add four circle primitives for the rounded corners*
1,1,$1+$1,$2,$3*
1,1,$1+$1,$4,$5*
1,1,$1+$1,$6,$7*
1,1,$1+$1,$8,$9*
0 Add four rect primitives between the rounded corners*
20,1,$1+$1,$2,$3,$4,$5,0*
20,1,$1+$1,$4,$5,$6,$7,0*
20,1,$1+$1,$6,$7,$8,$9,0*
20,1,$1+$1,$8,$9,$2,$3,0*%
G04 Aperture macros list end*
%ADD10C,3.200000*%
%ADD11R,1.700000X1.700000*%
%ADD12O,1.700000X1.700000*%
%ADD13R,1.500000X4.000000*%
%ADD14RoundRect,0.237500X0.237500X-0.250000X0.237500X0.250000X-0.237500X0.250000X-0.237500X-0.250000X0*%
%ADD15C,1.050000*%
%ADD16RoundRect,0.240000X-0.560000X-0.560000X0.560000X-0.560000X0.560000X0.560000X-0.560000X0.560000X0*%
%ADD17RoundRect,0.240000X-0.560000X-0.710000X0.560000X-0.710000X0.560000X0.710000X-0.560000X0.710000X0*%
%ADD18C,1.000000*%
%ADD19R,0.700000X2.000000*%
%ADD20R,1.600000X1.900000*%
%ADD21R,1.700000X3.000000*%
%ADD22R,2.100000X2.000000*%
G04 APERTURE END LIST*
D10*
X183700800Y-86070000D03*
D11*
X152227000Y-100322000D03*
D12*
X154767000Y-100322000D03*
X157307000Y-100322000D03*
D13*
X149305000Y-92870000D03*
X151845000Y-92870000D03*
X154385000Y-92870000D03*
X156925000Y-92870000D03*
X159465000Y-92870000D03*
X162005000Y-92870000D03*
X164545000Y-92870000D03*
X167085000Y-92870000D03*
X169625000Y-92870000D03*
X172165000Y-92870000D03*
X174705000Y-92870000D03*
X177245000Y-92870000D03*
D14*
X172729000Y-123726500D03*
X172729000Y-121901500D03*
D15*
X147296982Y-136783025D03*
X152296982Y-136783025D03*
D16*
X143796982Y-137783025D03*
X144396982Y-137783025D03*
X155196982Y-137783025D03*
X155796982Y-137783025D03*
D17*
X147296982Y-132283025D03*
X147296982Y-133133025D03*
X149796982Y-132283025D03*
X149796982Y-133133025D03*
X152296982Y-132283025D03*
X152296982Y-133133025D03*
D14*
X167649000Y-123830000D03*
X167649000Y-122005000D03*
D11*
X147655000Y-112270000D03*
D12*
X147655000Y-114810000D03*
X147655000Y-117350000D03*
X147655000Y-119890000D03*
D14*
X174253000Y-123726500D03*
X174253000Y-121901500D03*
X164651800Y-123828100D03*
X164651800Y-122003100D03*
D18*
X171943000Y-136930000D03*
X163963000Y-136930000D03*
D19*
X164763000Y-126230000D03*
X165863000Y-126230000D03*
X166963000Y-126230000D03*
X168063000Y-126230000D03*
X169163000Y-126230000D03*
X170263000Y-126230000D03*
X171363000Y-126230000D03*
X172463000Y-126230000D03*
X173563000Y-126230000D03*
D20*
X175063000Y-126930000D03*
D21*
X175013000Y-136530000D03*
D22*
X159913000Y-126630000D03*
D21*
X159013000Y-136530000D03*
D14*
X171205000Y-123726500D03*
X171205000Y-121901500D03*
X166150400Y-123830000D03*
X166150400Y-122005000D03*
M02*
