M48
; DRILL file {KiCad 9.0.0-9.0.0-2~ubuntu24.04.1} date 2025-03-07T10:51:01+0100
; FORMAT={-:-/ absolute / metric / decimal}
; #@! TF.CreationDate,2025-03-07T10:51:01+01:00
; #@! TF.GenerationSoftware,Kicad,Pcbnew,9.0.0-9.0.0-2~ubuntu24.04.1
; #@! TF.FileFunction,Plated,1,2,PTH
FMAT,2
METRIC
; #@! TA.AperFunction,Plated,PTH,ViaDrill
T1C0.300
; #@! TA.AperFunction,Plated,PTH,ComponentDrill
T2C0.300
; #@! TA.AperFunction,Plated,PTH,ComponentDrill
T3C1.000
%
G90
G05
T1
X145.877Y-129.278
X146.131Y-134.358
X150.957Y-125.214
X152.989Y-120.896
X153.278Y-108.719
X154.259Y-115.308
X155.783Y-135.882
X156.037Y-127.5
X156.291Y-111.752
X158.069Y-96.258
X158.069Y-116.07
X159.465Y-96.258
X160.101Y-121.912
X160.412Y-110.118
X160.863Y-116.997
X160.863Y-122.166
X161.371Y-109.466
X161.371Y-115.816
X161.625Y-111.368
X161.625Y-124.198
X161.879Y-119.372
X162.133Y-121.404
X162.133Y-125.468
X162.387Y-109.466
X162.387Y-112.006
X162.895Y-101.083
X162.895Y-124.325
X164.927Y-101.592
X165.181Y-118.61
X165.181Y-134.612
X165.943Y-120.642
X166.197Y-97.274
X167.467Y-120.642
X167.975Y-105.402
X168.229Y-128.516
X168.483Y-135.882
X168.657Y-106.834
X169.245Y-107.688
X171.008Y-115.562
X171.023Y-114.546
X171.277Y-120.388
X171.277Y-130.548
X172.293Y-129.278
X173.563Y-120.388
X175.087Y-96.004
X176.146Y-122.463
X176.357Y-104.64
X176.611Y-130.548
X178.643Y-137.406
X178.897Y-107.942
X178.897Y-124.452
X179.405Y-102.481
X179.659Y-104.386
X179.659Y-105.656
X180.929Y-130.294
X181.945Y-129.786
X182.961Y-112.26
X182.961Y-120.896
X183.469Y-113.276
X183.977Y-115.308
X185.008Y-115.688
T2
X172.533Y-112.856
X172.533Y-114.256
X173.233Y-112.156
X173.233Y-113.556
X173.233Y-114.956
X173.933Y-112.856
X173.933Y-114.256
X174.633Y-112.156
X174.633Y-113.556
X174.633Y-114.956
X175.333Y-112.856
X175.333Y-114.256
T3
X147.655Y-112.27
X147.655Y-114.81
X147.655Y-117.35
X147.655Y-119.89
X152.227Y-100.322
X154.767Y-100.322
X157.307Y-100.322
M30
